<?xml version="1.0" encoding="UTF-8" standalone="no"?>
<svg
   viewBox="0 0 192.99975 486.66942"
   width="192.99976"
   height="486.6694"
   version="1.1"
   id="svg96"
   sodipodi:docname="panel.svg"
   inkscape:version="1.4.3 (0d15f75042, 2025-12-25)"
   inkscape:export-filename="panel_font_only_texture.png"
   inkscape:export-xdpi="1000"
   inkscape:export-ydpi="1000"
   xml:space="preserve"
   xmlns:inkscape="http://www.inkscape.org/namespaces/inkscape"
   xmlns:sodipodi="http://sodipodi.sourceforge.net/DTD/sodipodi-0.dtd"
   xmlns="http://www.w3.org/2000/svg"
   xmlns:svg="http://www.w3.org/2000/svg"><sodipodi:namedview
     id="namedview96"
     pagecolor="#ffffff"
     bordercolor="#000000"
     borderopacity="0.25"
     inkscape:showpageshadow="2"
     inkscape:pageopacity="0.0"
     inkscape:pagecheckerboard="0"
     inkscape:deskcolor="#d1d1d1"
     inkscape:zoom="2.0756873"
     inkscape:cx="74.433175"
     inkscape:cy="230.04428"
     inkscape:window-width="2560"
     inkscape:window-height="1374"
     inkscape:window-x="0"
     inkscape:window-y="0"
     inkscape:window-maximized="1"
     inkscape:current-layer="g118"
     showguides="true"
     inkscape:document-units="mm"><sodipodi:guide
       position="34.138018,806.99472"
       orientation="0,793.70081"
       id="guide118"
       inkscape:locked="false" /><sodipodi:guide
       position="34.138018,791.99472"
       orientation="0,1"
       id="guide123"
       inkscape:label=""
       inkscape:locked="false"
       inkscape:color="rgb(0,134,229)" /><sodipodi:guide
       position="34.138008,747.65623"
       orientation="0,-1"
       id="guide124"
       inkscape:locked="false" /><sodipodi:guide
       position="34.138008,732.65623"
       orientation="0,1"
       id="guide125"
       inkscape:label=""
       inkscape:locked="false"
       inkscape:color="rgb(0,134,229)" /><sodipodi:guide
       position="34.138008,688.31772"
       orientation="0,-1"
       id="guide126"
       inkscape:locked="false" /><sodipodi:guide
       position="34.138008,673.31772"
       orientation="0,1"
       id="guide127"
       inkscape:label=""
       inkscape:locked="false"
       inkscape:color="rgb(0,134,229)" /><sodipodi:guide
       position="34.138448,859.673"
       orientation="0,-1"
       id="guide128"
       inkscape:locked="false" /><sodipodi:guide
       position="34.138448,844.673"
       orientation="0,1"
       id="guide129"
       inkscape:label=""
       inkscape:locked="false"
       inkscape:color="rgb(0,134,229)" /><sodipodi:guide
       position="34.138458,1001.4048"
       orientation="0,1"
       id="guide130"
       inkscape:label=""
       inkscape:locked="false"
       inkscape:color="rgb(0,134,229)" /></sodipodi:namedview><desc
     id="desc1">panel.dxf - scale = 1.000000, origin = (0.000000, 0.000000), method = manual</desc><defs
     id="defs4"><marker
       id="DistanceX"
       orient="auto"
       refX="0"
       refY="0"
       style="overflow:visible"><path
         d="M 3,-3 -3,3 M 0,-5 V 5"
         style="stroke:#000000;stroke-width:0.5"
         id="path1" /></marker><pattern
       id="Hatch"
       patternUnits="userSpaceOnUse"
       width="8"
       height="8"
       x="0"
       y="0"><path
         d="M8 4 l-4,4"
         stroke="#000000"
         stroke-width="0.25"
         linecap="square"
         id="path2" /><path
         d="M6 2 l-4,4"
         stroke="#000000"
         stroke-width="0.25"
         linecap="square"
         id="path3" /><path
         d="M4 0 l-4,4"
         stroke="#000000"
         stroke-width="0.25"
         linecap="square"
         id="path4" /></pattern><marker
       id="DistanceX-7"
       orient="auto"
       refX="0.0"
       refY="0.0"
       style="overflow:visible"><path
         d="M 3,-3 L -3,3 M 0,-5 L  0,5"
         style="stroke:#000000; stroke-width:0.5"
         id="path1-5" /></marker><pattern
       id="Hatch-3"
       patternUnits="userSpaceOnUse"
       width="8"
       height="8"
       x="0"
       y="0"><path
         d="M8 4 l-4,4"
         stroke="#000000"
         stroke-width="0.25"
         linecap="square"
         id="path2-5" /><path
         d="M6 2 l-4,4"
         stroke="#000000"
         stroke-width="0.25"
         linecap="square"
         id="path3-6" /><path
         d="M4 0 l-4,4"
         stroke="#000000"
         stroke-width="0.25"
         linecap="square"
         id="path4-2" /></pattern><symbol
       id="*MODEL_SPACE" /><symbol
       id="*PAPER_SPACE" /></defs><g
     id="g130"
     inkscape:label="UI"
     transform="translate(-300.03662,-306.96961)"
     style="display:inline"><rect
       style="fill:#050505;fill-opacity:1;stroke:#000000;stroke-width:0;stroke-dasharray:none"
       id="rect130"
       width="2.8224111"
       height="0.76649088"
       x="323.24289"
       y="498.56662" /><text
       xml:space="preserve"
       style="font-size:10.6667px;writing-mode:lr-tb;direction:ltr;fill:#000000;stroke:#000000;stroke-width:0;stroke-dasharray:none"
       x="314.88858"
       y="502.46552"
       id="text130"
       inkscape:label="Pitch  (Fader 1)"><tspan
         sodipodi:role="line"
         id="tspan130"
         x="314.88858"
         y="502.46552"
         style="font-style:normal;font-variant:normal;font-weight:normal;font-stretch:normal;font-size:10.6667px;font-family:'Liberation Mono';-inkscape-font-specification:'Liberation Mono';fill:#050505;fill-opacity:1;stroke-width:0;stroke-dasharray:none">0</tspan></text><rect
       style="fill:#050505;fill-opacity:1;stroke:#000000;stroke-width:0;stroke-dasharray:none"
       id="rect131"
       width="2.8224111"
       height="0.76649088"
       x="322.10034"
       y="435.32639" /><text
       xml:space="preserve"
       style="font-size:10.6667px;writing-mode:lr-tb;direction:ltr;fill:#000000;stroke:#000000;stroke-width:0;stroke-dasharray:none"
       x="303.0152"
       y="439.78238"
       id="text131"
       inkscape:label="Pitch  (Fader 1)"><tspan
         sodipodi:role="line"
         id="tspan131"
         x="303.0152"
         y="439.78238"
         style="font-style:normal;font-variant:normal;font-weight:normal;font-stretch:normal;font-size:10.6667px;font-family:'Liberation Mono';-inkscape-font-specification:'Liberation Mono';fill:#050505;fill-opacity:1;stroke-width:0;stroke-dasharray:none">+24</tspan></text><rect
       style="fill:#050505;fill-opacity:1;stroke:#000000;stroke-width:0;stroke-dasharray:none"
       id="rect132"
       width="2.8224111"
       height="0.76649088"
       x="323.24289"
       y="566.27515" /><text
       xml:space="preserve"
       style="font-size:10.6667px;writing-mode:lr-tb;direction:ltr;fill:#000000;stroke:#000000;stroke-width:0;stroke-dasharray:none"
       x="303.2081"
       y="570.27759"
       id="text132"
       inkscape:label="Pitch  (Fader 1)"><tspan
         sodipodi:role="line"
         id="tspan132"
         x="303.2081"
         y="570.27759"
         style="font-style:normal;font-variant:normal;font-weight:normal;font-stretch:normal;font-size:10.6667px;font-family:'Liberation Mono';-inkscape-font-specification:'Liberation Mono';fill:#050505;fill-opacity:1;stroke-width:0;stroke-dasharray:none">-24</tspan></text></g><g
     id="g118"
     inkscape:label="Text"
     transform="translate(-300.03662,-306.96961)"
     style="display:inline"><text
       xml:space="preserve"
       style="font-size:13.3333px;letter-spacing:1.2px;writing-mode:lr-tb;direction:ltr;fill:#000000;stroke:#000000;stroke-width:0;stroke-dasharray:none"
       x="339.06339"
       y="786.47821"
       id="text96"
       inkscape:label="AWARE MODULAR"><tspan
         sodipodi:role="line"
         id="tspan96"
         x="339.06339"
         y="786.47821"
         style="font-style:normal;font-variant:normal;font-weight:normal;font-stretch:normal;font-size:13.3333px;font-family:'Liberation Mono';-inkscape-font-specification:'Liberation Mono';letter-spacing:1.2px;fill:#050505;fill-opacity:1;stroke-width:0;stroke-dasharray:none">AWARE MODULAR</tspan></text><text
       xml:space="preserve"
       style="font-size:10.6667px;writing-mode:lr-tb;direction:ltr;fill:#000000;stroke:#000000;stroke-width:0;stroke-dasharray:none"
       x="324.12625"
       y="756.06476"
       id="text97"
       inkscape:label="InL"><tspan
         sodipodi:role="line"
         id="tspan97"
         x="324.12625"
         y="756.06476"
         style="font-style:normal;font-variant:normal;font-weight:normal;font-stretch:normal;font-size:10.6667px;font-family:'Liberation Mono';-inkscape-font-specification:'Liberation Mono';fill:#050505;fill-opacity:1;stroke-width:0;stroke-dasharray:none">InL</tspan></text><text
       xml:space="preserve"
       style="font-size:10.6667px;writing-mode:lr-tb;direction:ltr;fill:#000000;stroke:#000000;stroke-width:0;stroke-dasharray:none"
       x="365.74716"
       y="756.06476"
       id="text98"
       inkscape:label="InR"><tspan
         sodipodi:role="line"
         id="tspan98"
         x="365.74716"
         y="756.06476"
         style="font-style:normal;font-variant:normal;font-weight:normal;font-stretch:normal;font-size:10.6667px;font-family:'Liberation Mono';-inkscape-font-specification:'Liberation Mono';fill:#050505;fill-opacity:1;stroke-width:0;stroke-dasharray:none">InR</tspan></text><text
       xml:space="preserve"
       style="font-size:10.6667px;writing-mode:lr-tb;direction:ltr;fill:#000000;stroke:#000000;stroke-width:0;stroke-dasharray:none"
       x="403.2482"
       y="756.06738"
       id="text99"
       inkscape:label="OutL"><tspan
         sodipodi:role="line"
         id="tspan99"
         x="403.2482"
         y="756.06738"
         style="font-style:normal;font-variant:normal;font-weight:normal;font-stretch:normal;font-size:10.6667px;font-family:'Liberation Mono';-inkscape-font-specification:'Liberation Mono';fill:#050505;fill-opacity:1;stroke-width:0;stroke-dasharray:none">OutL</tspan></text><text
       xml:space="preserve"
       style="font-size:10.6667px;writing-mode:lr-tb;direction:ltr;fill:#000000;stroke:#000000;stroke-width:0;stroke-dasharray:none"
       x="445.95654"
       y="756.08643"
       id="text100"
       inkscape:label="OutR"><tspan
         sodipodi:role="line"
         id="tspan100"
         x="445.95654"
         y="756.08643"
         style="font-style:normal;font-variant:normal;font-weight:normal;font-stretch:normal;font-size:10.6667px;font-family:'Liberation Mono';-inkscape-font-specification:'Liberation Mono';fill:#050505;fill-opacity:1;stroke-width:0;stroke-dasharray:none">OutR</tspan></text><text
       xml:space="preserve"
       style="font-size:10.6667px;writing-mode:lr-tb;direction:ltr;fill:#000000;stroke:#000000;stroke-width:0;stroke-dasharray:none"
       x="321.11771"
       y="696.84882"
       id="text101"
       inkscape:label="Play (Gate 1)"><tspan
         sodipodi:role="line"
         id="tspan101"
         x="321.11771"
         y="696.84882"
         style="font-style:normal;font-variant:normal;font-weight:normal;font-stretch:normal;font-size:10.6667px;font-family:'Liberation Mono';-inkscape-font-specification:'Liberation Mono';fill:#050505;fill-opacity:1;stroke-width:0;stroke-dasharray:none">Play</tspan></text><text
       xml:space="preserve"
       style="font-size:10.6667px;writing-mode:lr-tb;direction:ltr;fill:#000000;stroke:#000000;stroke-width:0;stroke-dasharray:none"
       x="366.11899"
       y="696.82922"
       id="text102"
       inkscape:label="Record (Gate 2)"><tspan
         sodipodi:role="line"
         id="tspan102"
         x="366.11899"
         y="696.82922"
         style="font-style:normal;font-variant:normal;font-weight:normal;font-stretch:normal;font-size:10.6667px;font-family:'Liberation Mono';-inkscape-font-specification:'Liberation Mono';fill:#050505;fill-opacity:1;stroke-width:0;stroke-dasharray:none">Rec</tspan></text><text
       xml:space="preserve"
       style="font-size:10.6667px;writing-mode:lr-tb;direction:ltr;fill:#000000;stroke:#000000;stroke-width:0;stroke-dasharray:none"
       x="409.92868"
       y="696.79889"
       id="text104"
       inkscape:label="Unused (Gate3)"><tspan
         sodipodi:role="line"
         id="tspan104"
         x="409.92868"
         y="696.79889"
         style="font-style:normal;font-variant:normal;font-weight:normal;font-stretch:normal;font-size:10.6667px;font-family:'Liberation Mono';-inkscape-font-specification:'Liberation Mono';fill:#050505;fill-opacity:1;stroke-width:0;stroke-dasharray:none">:&lt;</tspan></text><text
       xml:space="preserve"
       style="font-size:10.6667px;writing-mode:lr-tb;direction:ltr;fill:#000000;stroke:#000000;stroke-width:0;stroke-dasharray:none"
       x="443.03204"
       y="696.69543"
       id="text103"
       inkscape:label="Slice (Gate 4)"><tspan
         sodipodi:role="line"
         id="tspan103"
         x="443.03204"
         y="696.69543"
         style="font-style:normal;font-variant:normal;font-weight:normal;font-stretch:normal;font-size:10.6667px;font-family:'Liberation Mono';-inkscape-font-specification:'Liberation Mono';fill:#050505;fill-opacity:1;stroke-width:0;stroke-dasharray:none">Slice</tspan></text><text
       xml:space="preserve"
       style="font-size:10.6667px;writing-mode:lr-tb;direction:ltr;fill:#000000;stroke:#000000;stroke-width:0;stroke-dasharray:none"
       x="318.68802"
       y="637.39087"
       id="text105"
       inkscape:label="V/Oct"><tspan
         sodipodi:role="line"
         id="tspan105"
         x="318.68802"
         y="637.39087"
         style="font-style:normal;font-variant:normal;font-weight:normal;font-stretch:normal;font-size:10.6667px;font-family:'Liberation Mono';-inkscape-font-specification:'Liberation Mono';fill:#050505;fill-opacity:1;stroke-width:0;stroke-dasharray:none">V/Oct</tspan></text><text
       xml:space="preserve"
       style="font-size:10.6667px;line-height:0.8;text-align:center;writing-mode:lr-tb;direction:ltr;text-anchor:middle;fill:#000000;stroke:#000000;stroke-width:0;stroke-dasharray:none"
       x="375.88522"
       y="637.33063"
       id="text106"
       inkscape:label="Slice Position (CV1)"><tspan
         style="font-style:normal;font-variant:normal;font-weight:normal;font-stretch:normal;font-size:10.6667px;line-height:0.8;font-family:'Liberation Mono';-inkscape-font-specification:'Liberation Mono';fill:#050505;fill-opacity:1;stroke-width:0;stroke-dasharray:none"
         sodipodi:role="line"
         id="tspan111"
         x="375.88522"
         y="637.33063">Slice</tspan><tspan
         sodipodi:role="line"
         x="375.88522"
         y="646.07837"
         style="font-style:normal;font-variant:normal;font-weight:normal;font-stretch:normal;font-size:10.6667px;line-height:0.8;font-family:'Liberation Mono';-inkscape-font-specification:'Liberation Mono';fill:#050505;fill-opacity:1;stroke-width:0;stroke-dasharray:none"
         id="tspan108">Pos</tspan></text><text
       xml:space="preserve"
       style="font-size:10.6667px;writing-mode:lr-tb;direction:ltr;fill:#000000;stroke:#000000;stroke-width:0;stroke-dasharray:none"
       x="414.1188"
       y="637.55481"
       id="text112"
       inkscape:label="x (CV2)"><tspan
         sodipodi:role="line"
         id="tspan112"
         x="414.1188"
         y="637.55481"
         style="font-style:normal;font-variant:normal;font-weight:normal;font-stretch:normal;font-size:10.6667px;font-family:'Liberation Mono';-inkscape-font-specification:'Liberation Mono';fill:#050505;fill-opacity:1;stroke-width:0;stroke-dasharray:none">x</tspan></text><text
       xml:space="preserve"
       style="font-size:10.6667px;writing-mode:lr-tb;direction:ltr;fill:#000000;stroke:#000000;stroke-width:0;stroke-dasharray:none"
       x="455.69354"
       y="637.45111"
       id="text113"
       inkscape:label="y (CV3)"><tspan
         sodipodi:role="line"
         id="tspan113"
         x="455.69354"
         y="637.45111"
         style="font-style:normal;font-variant:normal;font-weight:normal;font-stretch:normal;font-size:10.6667px;font-family:'Liberation Mono';-inkscape-font-specification:'Liberation Mono';fill:#050505;fill-opacity:1;stroke-width:0;stroke-dasharray:none">y</tspan></text><text
       xml:space="preserve"
       style="font-size:10.6667px;writing-mode:lr-tb;direction:ltr;fill:#000000;stroke:#000000;stroke-width:0;stroke-dasharray:none"
       x="318.2193"
       y="584.65796"
       id="text114"
       inkscape:label="Pitch  (Fader 1)"><tspan
         sodipodi:role="line"
         id="tspan114"
         x="318.2193"
         y="584.65796"
         style="font-style:normal;font-variant:normal;font-weight:normal;font-stretch:normal;font-size:10.6667px;font-family:'Liberation Mono';-inkscape-font-specification:'Liberation Mono';fill:#050505;fill-opacity:1;stroke-width:0;stroke-dasharray:none">Pitch</tspan></text><text
       xml:space="preserve"
       style="font-size:10.6667px;writing-mode:lr-tb;direction:ltr;fill:#000000;stroke:#000000;stroke-width:0;stroke-dasharray:none"
       x="366.69952"
       y="584.77747"
       id="text115"
       inkscape:label="Attack (Fader 2)"><tspan
         sodipodi:role="line"
         id="tspan115"
         x="366.69952"
         y="584.77747"
         style="font-style:normal;font-variant:normal;font-weight:normal;font-stretch:normal;font-size:10.6667px;font-family:'Liberation Mono';-inkscape-font-specification:'Liberation Mono';fill:#050505;fill-opacity:1;stroke-width:0;stroke-dasharray:none">Att</tspan></text><text
       xml:space="preserve"
       style="font-size:10.6667px;writing-mode:lr-tb;direction:ltr;fill:#000000;stroke:#000000;stroke-width:0;stroke-dasharray:none"
       x="407.58493"
       y="584.81116"
       id="text116"
       inkscape:label="Release (Fader 3)"><tspan
         sodipodi:role="line"
         id="tspan116"
         x="407.58493"
         y="584.81116"
         style="font-style:normal;font-variant:normal;font-weight:normal;font-stretch:normal;font-size:10.6667px;font-family:'Liberation Mono';-inkscape-font-specification:'Liberation Mono';fill:#050505;fill-opacity:1;stroke-width:0;stroke-dasharray:none">Rel</tspan></text><text
       xml:space="preserve"
       style="font-size:10.6667px;writing-mode:lr-tb;direction:ltr;fill:#000000;stroke:#000000;stroke-width:0;stroke-dasharray:none"
       x="442.95355"
       y="584.70471"
       id="text117"
       inkscape:label="Destroy (Fader 4)"><tspan
         sodipodi:role="line"
         id="tspan117"
         x="442.95355"
         y="584.70471"
         style="font-style:normal;font-variant:normal;font-weight:normal;font-stretch:normal;font-size:10.6667px;font-family:'Liberation Mono';-inkscape-font-specification:'Liberation Mono';fill:#050505;fill-opacity:1;stroke-width:0;stroke-dasharray:none">Destr</tspan></text><text
       xml:space="preserve"
       style="font-size:18.6667px;writing-mode:lr-tb;direction:ltr;fill:#000000;stroke:#000000;stroke-width:0;stroke-dasharray:none"
       x="361.384"
       y="325.37061"
       id="text118"
       inkscape:label="AAREBOT"><tspan
         sodipodi:role="line"
         id="tspan118"
         x="361.384"
         y="325.37061"
         style="font-style:normal;font-variant:normal;font-weight:normal;font-stretch:normal;font-size:18.6667px;font-family:'Liberation Mono';-inkscape-font-specification:'Liberation Mono';fill:#050505;fill-opacity:1;stroke-width:0;stroke-dasharray:none">AAREBOT</tspan></text></g><g
     id="g1"
     transform="translate(-312.158,-291.679)"
     style="display:inline"><g
       inkscape:label="0"
       id="g4-9" /><g
       inkscape:label="View"
       id="g78-1"><path
         style="fill:none;stroke:#000000"
         d="m 504.658,292.179 v 485.67"
         id="path5-2" /><path
         style="fill:none;stroke:#000000"
         d="m 504.658,777.849 h -192"
         id="path6-7" /><path
         style="fill:none;stroke:#000000"
         d="M 312.658,777.849 V 292.179"
         id="path7-0" /><path
         style="fill:none;stroke:#000000"
         d="m 312.658,292.179 h 192"
         id="path8-9" /><path
         style="fill:none;stroke:#000000"
         d="M 394.107,415.203 V 552.778"
         id="path9-3" /><path
         d="m 392.02828,554.8566 a 2.07874,2.07874 0 0 0 2.07874,-2.07874"
         style="fill:none;stroke:#000000"
         id="path10-6" /><path
         style="fill:none;stroke:#000000"
         d="m 392.028,554.857 h -8.315"
         id="path11-0" /><path
         d="m 381.63458,552.77786 a 2.07874,2.07874 0 0 0 2.07874,2.07874"
         style="fill:none;stroke:#000000"
         id="path12-6" /><path
         style="fill:none;stroke:#000000"
         d="M 381.635,552.778 V 415.203"
         id="path13-2" /><path
         d="m 383.71332,413.12431 a 2.07874,2.07874 0 0 0 -2.07874,2.07874"
         style="fill:none;stroke:#000000"
         id="path14-6" /><path
         style="fill:none;stroke:#000000"
         d="m 383.713,413.124 h 8.315"
         id="path15-1" /><path
         d="m 394.10702,415.20305 a 2.07874,2.07874 0 0 0 -2.07874,-2.07874"
         style="fill:none;stroke:#000000"
         id="path16-8" /><path
         style="fill:none;stroke:#000000"
         d="M 435.682,415.203 V 552.778"
         id="path17-7" /><path
         d="m 433.60309,554.8566 a 2.07874,2.07874 0 0 0 2.07874,-2.07874"
         style="fill:none;stroke:#000000"
         id="path18-9" /><path
         style="fill:none;stroke:#000000"
         d="m 433.603,554.857 h -8.315"
         id="path19-2" /><path
         d="m 423.20938,552.77786 a 2.07874,2.07874 0 0 0 2.07874,2.07874"
         style="fill:none;stroke:#000000"
         id="path20-0" /><path
         style="fill:none;stroke:#000000"
         d="M 423.209,552.778 V 415.203"
         id="path21-2" /><path
         d="m 425.28812,413.12431 a 2.07874,2.07874 0 0 0 -2.07874,2.07874"
         style="fill:none;stroke:#000000"
         id="path22-3" /><path
         style="fill:none;stroke:#000000"
         d="m 425.288,413.124 h 8.315"
         id="path23-7" /><path
         d="m 435.68183,415.20305 a 2.07874,2.07874 0 0 0 -2.07874,-2.07874"
         style="fill:none;stroke:#000000"
         id="path24-5" /><path
         style="fill:none;stroke:#000000"
         d="M 477.257,415.203 V 552.778"
         id="path25-9" /><path
         d="m 475.17789,554.8566 a 2.07874,2.07874 0 0 0 2.07874,-2.07874"
         style="fill:none;stroke:#000000"
         id="path26-2" /><path
         style="fill:none;stroke:#000000"
         d="m 475.178,554.857 h -8.315"
         id="path27-2" /><path
         d="m 464.78419,552.77786 a 2.07874,2.07874 0 0 0 2.07874,2.07874"
         style="fill:none;stroke:#000000"
         id="path28-8" /><path
         style="fill:none;stroke:#000000"
         d="M 464.784,552.778 V 415.203"
         id="path29-9" /><path
         d="m 466.86293,413.12431 a 2.07874,2.07874 0 0 0 -2.07874,2.07874"
         style="fill:none;stroke:#000000"
         id="path30-7" /><path
         style="fill:none;stroke:#000000"
         d="m 466.863,413.124 h 8.315"
         id="path31-3" /><path
         d="m 477.25663,415.20305 a 2.07874,2.07874 0 0 0 -2.07874,-2.07874"
         style="fill:none;stroke:#000000"
         id="path32-6" /><path
         style="fill:none;stroke:#000000"
         d="M 352.532,414.872 V 552.447"
         id="path33-1" /><path
         d="m 350.45348,554.52589 a 2.07874,2.07874 0 0 0 2.07874,-2.07874"
         style="fill:none;stroke:#000000"
         id="path34-2" /><path
         style="fill:none;stroke:#000000"
         d="m 350.453,554.526 h -8.314"
         id="path35-9" /><path
         d="m 340.05978,552.44715 a 2.07874,2.07874 0 0 0 2.07874,2.07874"
         style="fill:none;stroke:#000000"
         id="path36-3" /><path
         style="fill:none;stroke:#000000"
         d="M 340.06,552.447 V 414.872"
         id="path37-1" /><path
         d="m 342.13852,412.79361 a 2.07874,2.07874 0 0 0 -2.07874,2.07874"
         style="fill:none;stroke:#000000"
         id="path38-9" /><path
         style="fill:none;stroke:#000000"
         d="m 342.139,412.794 h 8.314"
         id="path39-4" /><path
         d="m 352.53222,414.87235 a 2.07874,2.07874 0 0 0 -2.07874,-2.07874"
         style="fill:none;stroke:#000000"
         id="path40-7" /><path
         d="m 375.58734,654.2629 c 7.4e-4,-1.02224 0.12511,-2.17994 0.49134,-3.43937 0.36603,-1.2551 0.98136,-2.61766 1.96535,-3.93071 0.97819,-1.30889 2.34122,-2.56093 4.04632,-3.46827 1.69599,-0.91155 3.72998,-1.45076 5.78045,-1.44512 2.05047,-0.006 4.08446,0.53357 5.78046,1.44512 1.70509,0.90734 3.06813,2.15938 4.04631,3.46827 0.984,1.31305 1.59933,2.67561 1.96536,3.93071 0.36622,1.25943 0.49059,2.41713 0.49134,3.43937 -7.5e-4,1.02223 -0.12512,2.17993 -0.49134,3.43937 -0.36603,1.2551 -0.98136,2.61765 -1.96536,3.93071 -0.97818,1.30888 -2.34122,2.56092 -4.04631,3.46827 -1.696,0.91155 -3.72999,1.45075 -5.78046,1.44511 -2.05047,0.006 -4.08446,-0.53356 -5.78045,-1.44511 -1.7051,-0.90735 -3.06813,-2.15939 -4.04632,-3.46827 -0.98399,-1.31306 -1.59932,-2.67561 -1.96535,-3.93071 -0.36623,-1.25944 -0.4906,-2.41714 -0.49134,-3.43937 z"
         style="fill:none;stroke:#000000"
         id="path41-8" /><path
         d="m 400.15427,713.60148 a 12.283465,12.283465 0 0 0 -24.56693,0 12.283465,12.283465 0 0 0 24.56693,0 z"
         style="fill:none;stroke:#000000"
         id="path42-4" /><path
         d="m 358.57946,594.92431 a 12.283465,12.283465 0 0 0 -24.56692,0 12.283465,12.283465 0 0 0 24.56692,0 z"
         style="fill:none;stroke:#000000"
         id="path43-5" /><path
         d="m 400.15427,594.92431 a 12.283465,12.283465 0 0 0 -24.56693,0 12.283465,12.283465 0 0 0 24.56693,0 z"
         style="fill:none;stroke:#000000"
         id="path44-0" /><path
         d="m 441.72907,594.92431 a 12.283465,12.283465 0 0 0 -24.56693,0 12.283465,12.283465 0 0 0 24.56693,0 z"
         style="fill:none;stroke:#000000"
         id="path45-3" /><path
         d="m 358.57946,654.2629 a 12.283465,12.283465 0 0 0 -24.56692,0 12.283465,12.283465 0 0 0 24.56692,0 z"
         style="fill:none;stroke:#000000"
         id="path46-6" /><path
         d="m 483.30387,594.92431 a 12.283465,12.283465 0 0 0 -24.56693,0 12.283465,12.283465 0 0 0 24.56693,0 z"
         style="fill:none;stroke:#000000"
         id="path47-1" /><path
         d="m 441.72907,654.2629 a 12.283465,12.283465 0 0 0 -24.56693,0 12.283465,12.283465 0 0 0 24.56693,0 z"
         style="fill:none;stroke:#000000"
         id="path48-0" /><path
         d="m 483.30387,654.2629 a 12.283465,12.283465 0 0 0 -24.56693,0 12.283465,12.283465 0 0 0 24.56693,0 z"
         style="fill:none;stroke:#000000"
         id="path49-6" /><path
         d="m 358.57946,713.60148 a 12.283465,12.283465 0 0 0 -24.56692,0 12.283465,12.283465 0 0 0 24.56692,0 z"
         style="fill:none;stroke:#000000"
         id="path50-3" /><path
         d="m 483.30387,713.60148 a 12.283465,12.283465 0 0 0 -24.56693,0 12.283465,12.283465 0 0 0 24.56693,0 z"
         style="fill:none;stroke:#000000"
         id="path51-2" /><path
         d="m 441.72907,713.60148 a 12.283465,12.283465 0 0 0 -24.56693,0 12.283465,12.283465 0 0 0 24.56693,0 z"
         style="fill:none;stroke:#000000"
         id="path52-0" /><path
         d="m 337.22513,309.37628 a 6.1417325,6.1417325 0 0 0 0,-12.28346"
         style="fill:none;stroke:#000000"
         id="path53-6" /><path
         style="fill:none;stroke:#000000"
         d="M 337.225,309.376 H 325.887"
         id="path54-1" /><path
         d="m 325.88655,297.09282 a 6.1417325,6.1417325 0 0 0 0,12.28346"
         style="fill:none;stroke:#000000"
         id="path55-5" /><path
         style="fill:none;stroke:#000000"
         d="M 337.225,297.093 H 325.887"
         id="path56-5" /><path
         d="m 491.42986,309.37628 a 6.1417325,6.1417325 0 0 0 0,-12.28346"
         style="fill:none;stroke:#000000"
         id="path57-4" /><path
         style="fill:none;stroke:#000000"
         d="M 491.43,309.376 H 480.091"
         id="path58-7" /><path
         d="m 480.09127,297.09282 a 6.1417325,6.1417325 0 0 0 0,12.28346"
         style="fill:none;stroke:#000000"
         id="path59-6" /><path
         style="fill:none;stroke:#000000"
         d="M 491.43,297.093 H 480.091"
         id="path60-5" /><path
         d="m 337.22513,772.93534 a 6.141735,6.141735 0 0 0 0,-12.28347"
         style="fill:none;stroke:#000000"
         id="path61-6" /><path
         style="fill:none;stroke:#000000"
         d="M 337.225,772.935 H 325.887"
         id="path62-9" /><path
         d="m 325.88655,760.65187 a 6.141735,6.141735 0 0 0 0,12.28347"
         style="fill:none;stroke:#000000"
         id="path63-3" /><path
         style="fill:none;stroke:#000000"
         d="M 337.225,760.652 H 325.887"
         id="path64-7" /><path
         d="m 491.42986,772.93534 a 6.141735,6.141735 0 0 0 0,-12.28347"
         style="fill:none;stroke:#000000"
         id="path65-4" /><path
         style="fill:none;stroke:#000000"
         d="M 491.43,772.935 H 480.091"
         id="path66-5" /><path
         d="m 480.09127,760.65187 a 6.141735,6.141735 0 0 0 0,12.28347"
         style="fill:none;stroke:#000000"
         id="path67-2" /><path
         style="fill:none;stroke:#000000"
         d="M 491.43,760.652 H 480.091"
         id="path68-5" /><path
         d="m 352.26765,346.41565 a 7.483465,7.483465 0 0 0 -14.96693,0 7.483465,7.483465 0 0 0 14.96693,0 z"
         style="fill:none;stroke:#000000"
         id="path69-4" /><path
         d="m 394.72434,346.41565 a 7.483465,7.483465 0 0 0 -14.96693,0 7.483465,7.483465 0 0 0 14.96693,0 z"
         style="fill:none;stroke:#000000"
         id="path70-7" /><path
         d="m 437.18104,346.41565 a 7.483465,7.483465 0 0 0 -14.96693,0 7.483465,7.483465 0 0 0 14.96693,0 z"
         style="fill:none;stroke:#000000"
         id="path71-4" /><path
         d="m 479.63773,346.41565 a 7.483465,7.483465 0 0 0 -14.96693,0 7.483465,7.483465 0 0 0 14.96693,0 z"
         style="fill:none;stroke:#000000"
         id="path72-4" /><path
         d="m 362.73694,377.97471 a 6.2362205,6.2362205 0 0 0 -12.47244,0 6.2362205,6.2362205 0 0 0 12.47244,0 z"
         style="fill:none;stroke:#000000"
         id="path73-3" /><path
         d="m 467.0519,378.35266 a 6.2362205,6.2362205 0 0 0 -12.47244,0 6.2362205,6.2362205 0 0 0 12.47244,0 z"
         style="fill:none;stroke:#000000"
         id="path74-0" /><path
         d="m 350.45348,406.17943 a 4.15748,4.15748 0 0 0 -8.31496,0 4.15748,4.15748 0 0 0 8.31496,0 z"
         style="fill:none;stroke:#000000"
         id="path75-7" /><path
         d="m 475.17789,406.51014 a 4.1574805,4.1574805 0 0 0 -8.31496,0 4.1574805,4.1574805 0 0 0 8.31496,0 z"
         style="fill:none;stroke:#000000"
         id="path76-8" /><path
         d="m 392.02828,406.51014 a 4.1574805,4.1574805 0 0 0 -8.31496,0 4.1574805,4.1574805 0 0 0 8.31496,0 z"
         style="fill:none;stroke:#000000"
         id="path77-6" /><path
         d="m 433.60309,406.51014 a 4.157485,4.157485 0 0 0 -8.31497,0 4.157485,4.157485 0 0 0 8.31497,0 z"
         style="fill:none;stroke:#000000"
         id="path78-8" /></g></g></svg>
