<?xml version="1.0" encoding="UTF-8" standalone="no"?>
<svg
   viewBox="0 0 192.99975 486.66942"
   width="192.99976"
   height="486.6694"
   version="1.1"
   id="svg96"
   sodipodi:docname="panel.svg"
   inkscape:version="1.4.3 (0d15f75042, 2025-12-25)"
   inkscape:export-filename="panel_font_only_texture.png"
   inkscape:export-xdpi="1000"
   inkscape:export-ydpi="1000"
   xmlns:inkscape="http://www.inkscape.org/namespaces/inkscape"
   xmlns:sodipodi="http://sodipodi.sourceforge.net/DTD/sodipodi-0.dtd"
   xmlns="http://www.w3.org/2000/svg"
   xmlns:svg="http://www.w3.org/2000/svg">
  <sodipodi:namedview
     id="namedview96"
     pagecolor="#ffffff"
     bordercolor="#000000"
     borderopacity="0.25"
     inkscape:showpageshadow="2"
     inkscape:pageopacity="0.0"
     inkscape:pagecheckerboard="0"
     inkscape:deskcolor="#d1d1d1"
     inkscape:zoom="1.4677326"
     inkscape:cx="1.7033075"
     inkscape:cy="240.84768"
     inkscape:window-width="2560"
     inkscape:window-height="1374"
     inkscape:window-x="0"
     inkscape:window-y="0"
     inkscape:window-maximized="1"
     inkscape:current-layer="svg96"
     showguides="true"
     inkscape:document-units="mm">
    <sodipodi:guide
       position="34.138018,806.99472"
       orientation="0,793.70081"
       id="guide118"
       inkscape:locked="false" />
    <sodipodi:guide
       position="34.138018,791.99472"
       orientation="0,1"
       id="guide123"
       inkscape:label=""
       inkscape:locked="false"
       inkscape:color="rgb(0,134,229)" />
    <sodipodi:guide
       position="34.138008,747.65623"
       orientation="0,-1"
       id="guide124"
       inkscape:locked="false" />
    <sodipodi:guide
       position="34.138008,732.65623"
       orientation="0,1"
       id="guide125"
       inkscape:label=""
       inkscape:locked="false"
       inkscape:color="rgb(0,134,229)" />
    <sodipodi:guide
       position="34.138008,688.31772"
       orientation="0,-1"
       id="guide126"
       inkscape:locked="false" />
    <sodipodi:guide
       position="34.138008,673.31772"
       orientation="0,1"
       id="guide127"
       inkscape:label=""
       inkscape:locked="false"
       inkscape:color="rgb(0,134,229)" />
    <sodipodi:guide
       position="34.138448,859.673"
       orientation="0,-1"
       id="guide128"
       inkscape:locked="false" />
    <sodipodi:guide
       position="34.138448,844.673"
       orientation="0,1"
       id="guide129"
       inkscape:label=""
       inkscape:locked="false"
       inkscape:color="rgb(0,134,229)" />
    <sodipodi:guide
       position="34.138458,1001.4048"
       orientation="0,1"
       id="guide130"
       inkscape:label=""
       inkscape:locked="false"
       inkscape:color="rgb(0,134,229)" />
  </sodipodi:namedview>
  <desc
     id="desc1">panel.dxf - scale = 1.000000, origin = (0.000000, 0.000000), method = manual</desc>
  <defs
     id="defs4">
    <marker
       id="DistanceX"
       orient="auto"
       refX="0"
       refY="0"
       style="overflow:visible">
      <path
         d="M 3,-3 -3,3 M 0,-5 V 5"
         style="stroke:#000000;stroke-width:0.5"
         id="path1" />
    </marker>
    <pattern
       id="Hatch"
       patternUnits="userSpaceOnUse"
       width="8"
       height="8"
       x="0"
       y="0">
      <path
         d="M8 4 l-4,4"
         stroke="#000000"
         stroke-width="0.25"
         linecap="square"
         id="path2" />
      <path
         d="M6 2 l-4,4"
         stroke="#000000"
         stroke-width="0.25"
         linecap="square"
         id="path3" />
      <path
         d="M4 0 l-4,4"
         stroke="#000000"
         stroke-width="0.25"
         linecap="square"
         id="path4" />
    </pattern>
  </defs>
  <g
     inkscape:groupmode="layer"
     inkscape:label="0"
     id="g4"
     transform="translate(-300.03662,-306.96961)" />
  <g
     inkscape:groupmode="layer"
     inkscape:label="View"
     id="g78"
     transform="translate(-300.03662,-306.96961)"
     style="display:none">
    <path
       d="M 492.53638,307.46961 V 793.139"
       style="fill:none;stroke:#000000"
       id="path5" />
    <path
       d="M 492.53638,793.139 H 300.53662"
       style="fill:none;stroke:#000000"
       id="path6" />
    <path
       d="M 300.53662,793.139 V 307.46961"
       style="fill:none;stroke:#000000"
       id="path7" />
    <path
       d="M 300.53662,307.46961 H 492.53638"
       style="fill:none;stroke:#000000"
       id="path8" />
    <path
       d="M 381.98552,430.49346 V 568.06828"
       style="fill:none;stroke:#000000"
       id="path9" />
    <path
       d="m 379.90687,570.14693 1.46988,-0.60885 0.60885,-1.46989"
       style="fill:none;stroke:#000000"
       id="path10" />
    <path
       d="m 379.90652,570.14728 h -8.31499"
       style="fill:none;stroke:#000000"
       id="path11" />
    <path
       d="m 369.51318,568.06819 0.60885,1.46989 1.46989,0.60885"
       style="fill:none;stroke:#000000"
       id="path12" />
    <path
       d="M 369.51354,568.06828 V 430.49346"
       style="fill:none;stroke:#000000"
       id="path13" />
    <path
       d="m 371.59192,428.41483 -1.46989,0.60885 -0.60885,1.46988"
       style="fill:none;stroke:#000000"
       id="path14" />
    <path
       d="m 371.59153,428.41446 h 8.31499"
       style="fill:none;stroke:#000000"
       id="path15" />
    <path
       d="m 381.9856,430.49356 -0.60885,-1.46988 -1.46988,-0.60885"
       style="fill:none;stroke:#000000"
       id="path16" />
    <path
       d="M 423.56047,430.49346 V 568.06828"
       style="fill:none;stroke:#000000"
       id="path17" />
    <path
       d="m 421.48162,570.14693 1.46988,-0.60885 0.60885,-1.46989"
       style="fill:none;stroke:#000000"
       id="path18" />
    <path
       d="m 421.48147,570.14728 h -8.31499"
       style="fill:none;stroke:#000000"
       id="path19" />
    <path
       d="m 411.08793,568.06819 0.60885,1.46989 1.46989,0.60885"
       style="fill:none;stroke:#000000"
       id="path20" />
    <path
       d="M 411.08748,568.06828 V 430.49346"
       style="fill:none;stroke:#000000"
       id="path21" />
    <path
       d="m 413.16667,428.41483 -1.46989,0.60885 -0.60885,1.46988"
       style="fill:none;stroke:#000000"
       id="path22" />
    <path
       d="m 413.16648,428.41446 h 8.31499"
       style="fill:none;stroke:#000000"
       id="path23" />
    <path
       d="m 423.56035,430.49356 -0.60885,-1.46988 -1.46988,-0.60885"
       style="fill:none;stroke:#000000"
       id="path24" />
    <path
       d="M 465.13541,430.49346 V 568.06828"
       style="fill:none;stroke:#000000"
       id="path25" />
    <path
       d="m 463.05637,570.14693 1.46988,-0.60885 0.60886,-1.46989"
       style="fill:none;stroke:#000000"
       id="path26" />
    <path
       d="m 463.05642,570.14728 h -8.31499"
       style="fill:none;stroke:#000000"
       id="path27" />
    <path
       d="m 452.66268,568.06819 0.60885,1.46989 1.46989,0.60885"
       style="fill:none;stroke:#000000"
       id="path28" />
    <path
       d="M 452.66243,568.06828 V 430.49346"
       style="fill:none;stroke:#000000"
       id="path29" />
    <path
       d="m 454.74142,428.41483 -1.46989,0.60885 -0.60885,1.46988"
       style="fill:none;stroke:#000000"
       id="path30" />
    <path
       d="m 454.74143,428.41446 h 8.31499"
       style="fill:none;stroke:#000000"
       id="path31" />
    <path
       d="m 465.13511,430.49356 -0.60886,-1.46988 -1.46988,-0.60885"
       style="fill:none;stroke:#000000"
       id="path32" />
    <path
       d="M 340.41057,430.16246 V 567.73728"
       style="fill:none;stroke:#000000"
       id="path33" />
    <path
       d="m 338.33212,569.81622 1.46988,-0.60884 0.60885,-1.4699"
       style="fill:none;stroke:#000000"
       id="path34" />
    <path
       d="m 338.33257,569.81628 h -8.31499"
       style="fill:none;stroke:#000000"
       id="path35" />
    <path
       d="m 327.93843,567.73748 0.60884,1.4699 1.4699,0.60884"
       style="fill:none;stroke:#000000"
       id="path36" />
    <path
       d="M 327.93858,567.73728 V 430.16246"
       style="fill:none;stroke:#000000"
       id="path37" />
    <path
       d="m 330.01717,428.08412 -1.4699,0.60885 -0.60884,1.46988"
       style="fill:none;stroke:#000000"
       id="path38" />
    <path
       d="m 330.01758,428.08446 h 8.31499"
       style="fill:none;stroke:#000000"
       id="path39" />
    <path
       d="m 340.41085,430.16285 -0.60885,-1.46988 -1.46988,-0.60885"
       style="fill:none;stroke:#000000"
       id="path40" />
    <path
       d="m 363.46594,669.5531 0.49134,-3.43936 1.96535,-3.9307 1.75057,-1.88471 2.29575,-1.58356 2.75729,-1.0665 3.02315,-0.37862 3.02315,0.37862 2.7573,1.0665 2.29575,1.58356 1.75056,1.88471 1.96535,3.9307 0.49134,3.43936 -0.49134,3.43937 -1.96535,3.93071 -1.75056,1.88471 -2.29575,1.58355 -2.7573,1.0665 -3.02315,0.37861 -3.02315,-0.37861 -2.75729,-1.0665 -2.29575,-1.58355 -1.75057,-1.88471 -1.96535,-3.93071 -0.49134,-3.43937 v 0"
       style="fill:none;stroke:#000000"
       id="path41" />
    <path
       d="m 388.03284,728.89161 -0.9663,-4.78015 -2.63268,-3.90329 -3.90405,-2.63156 -4.78042,-0.96494 -4.78042,0.96494 -3.90405,2.63156 -2.63268,3.90329 -0.9663,4.78015 0.9663,4.78015 2.63268,3.9033 3.90405,2.63156 4.78042,0.96494 4.78042,-0.96494 3.90405,-2.63156 2.63268,-3.9033 0.9663,-4.78015 v 0"
       style="fill:none;stroke:#000000"
       id="path42" />
    <path
       d="m 346.45809,610.2146 -0.96631,-4.78015 -2.63267,-3.9033 -3.90405,-2.63156 -4.78042,-0.96494 -4.78042,0.96494 -3.90405,2.63156 -2.63268,3.9033 -0.9663,4.78015 0.9663,4.78015 2.63268,3.90329 3.90405,2.63156 4.78042,0.96494 4.78042,-0.96494 3.90405,-2.63156 2.63267,-3.90329 0.96631,-4.78015 v 0"
       style="fill:none;stroke:#000000"
       id="path43" />
    <path
       d="m 388.03284,610.2146 -0.9663,-4.78015 -2.63268,-3.9033 -3.90405,-2.63156 -4.78042,-0.96494 -4.78042,0.96494 -3.90405,2.63156 -2.63268,3.9033 -0.9663,4.78015 0.9663,4.78015 2.63268,3.90329 3.90405,2.63156 4.78042,0.96494 4.78042,-0.96494 3.90405,-2.63156 2.63268,-3.90329 0.9663,-4.78015 v 0"
       style="fill:none;stroke:#000000"
       id="path44" />
    <path
       d="m 429.60759,610.2146 -0.9663,-4.78015 -2.63268,-3.9033 -3.90404,-2.63156 -4.78043,-0.96494 -4.78042,0.96494 -3.90405,2.63156 -2.63267,3.9033 -0.96631,4.78015 0.96631,4.78015 2.63267,3.90329 3.90405,2.63156 4.78042,0.96494 4.78043,-0.96494 3.90404,-2.63156 2.63268,-3.90329 0.9663,-4.78015 v 0"
       style="fill:none;stroke:#000000"
       id="path45" />
    <path
       d="m 346.45809,669.5531 -0.96631,-4.78014 -2.63267,-3.9033 -3.90405,-2.63156 -4.78042,-0.96494 -4.78042,0.96494 -3.90405,2.63156 -2.63268,3.9033 -0.9663,4.78014 0.9663,4.78015 2.63268,3.9033 3.90405,2.63156 4.78042,0.96494 4.78042,-0.96494 3.90405,-2.63156 2.63267,-3.9033 0.96631,-4.78015 v 0"
       style="fill:none;stroke:#000000"
       id="path46" />
    <path
       d="m 471.18234,610.2146 -0.9663,-4.78015 -2.63268,-3.9033 -3.90404,-2.63156 -4.78043,-0.96494 -4.78042,0.96494 -3.90405,2.63156 -2.63268,3.9033 -0.9663,4.78015 0.9663,4.78015 2.63268,3.90329 3.90405,2.63156 4.78042,0.96494 4.78043,-0.96494 3.90404,-2.63156 2.63268,-3.90329 0.9663,-4.78015 v 0"
       style="fill:none;stroke:#000000"
       id="path47" />
    <path
       d="m 429.60759,669.5531 -0.9663,-4.78014 -2.63268,-3.9033 -3.90404,-2.63156 -4.78043,-0.96494 -4.78042,0.96494 -3.90405,2.63156 -2.63267,3.9033 -0.96631,4.78014 0.96631,4.78015 2.63267,3.9033 3.90405,2.63156 4.78042,0.96494 4.78043,-0.96494 3.90404,-2.63156 2.63268,-3.9033 0.9663,-4.78015 v 0"
       style="fill:none;stroke:#000000"
       id="path48" />
    <path
       d="m 471.18234,669.5531 -0.9663,-4.78014 -2.63268,-3.9033 -3.90404,-2.63156 -4.78043,-0.96494 -4.78042,0.96494 -3.90405,2.63156 -2.63268,3.9033 -0.9663,4.78014 0.9663,4.78015 2.63268,3.9033 3.90405,2.63156 4.78042,0.96494 4.78043,-0.96494 3.90404,-2.63156 2.63268,-3.9033 0.9663,-4.78015 v 0"
       style="fill:none;stroke:#000000"
       id="path49" />
    <path
       d="m 346.45809,728.89161 -0.96631,-4.78015 -2.63267,-3.90329 -3.90405,-2.63156 -4.78042,-0.96494 -4.78042,0.96494 -3.90405,2.63156 -2.63268,3.90329 -0.9663,4.78015 0.9663,4.78015 2.63268,3.9033 3.90405,2.63156 4.78042,0.96494 4.78042,-0.96494 3.90405,-2.63156 2.63267,-3.9033 0.96631,-4.78015 v 0"
       style="fill:none;stroke:#000000"
       id="path50" />
    <path
       d="m 471.18234,728.89161 -0.9663,-4.78015 -2.63268,-3.90329 -3.90404,-2.63156 -4.78043,-0.96494 -4.78042,0.96494 -3.90405,2.63156 -2.63268,3.90329 -0.9663,4.78015 0.9663,4.78015 2.63268,3.9033 3.90405,2.63156 4.78042,0.96494 4.78043,-0.96494 3.90404,-2.63156 2.63268,-3.9033 0.9663,-4.78015 v 0"
       style="fill:none;stroke:#000000"
       id="path51" />
    <path
       d="m 429.60759,728.89161 -0.9663,-4.78015 -2.63268,-3.90329 -3.90404,-2.63156 -4.78043,-0.96494 -4.78042,0.96494 -3.90405,2.63156 -2.63267,3.90329 -0.96631,4.78015 0.96631,4.78015 2.63267,3.9033 3.90405,2.63156 4.78042,0.96494 4.78043,-0.96494 3.90404,-2.63156 2.63268,-3.9033 0.9663,-4.78015 v 0"
       style="fill:none;stroke:#000000"
       id="path52" />
    <path
       d="m 321.32427,324.66692 3.07086,-0.82283 2.24802,-2.24803 0.82284,-3.07086 -0.82284,-3.07086 -2.24802,-2.24803 -3.07086,-0.82284"
       style="fill:none;stroke:#000000"
       id="path53" />
    <path
       d="M 321.32459,324.66659 H 309.98561"
       style="fill:none;stroke:#000000"
       id="path54" />
    <path
       d="m 309.98569,312.38347 -3.07086,0.82284 -2.24802,2.24803 -0.82284,3.07086 0.82284,3.07086 2.24802,2.24803 3.07086,0.82283"
       style="fill:none;stroke:#000000"
       id="path55" />
    <path
       d="M 321.32459,312.38361 H 309.98561"
       style="fill:none;stroke:#000000"
       id="path56" />
    <path
       d="m 483.08784,788.2254 3.07086,-0.82284 2.24803,-2.24803 0.82283,-3.07086 -0.82283,-3.07086 -2.24803,-2.24803 -3.07086,-0.82283"
       style="fill:none;stroke:#000000"
       id="path57" />
    <path
       d="M 483.08739,788.22501 H 471.74941"
       style="fill:none;stroke:#000000"
       id="path58" />
    <path
       d="m 471.74927,775.94195 -3.07086,0.82283 -2.24803,2.24803 -0.82284,3.07086 0.82284,3.07086 2.24803,2.24803 3.07086,0.82284"
       style="fill:none;stroke:#000000"
       id="path59" />
    <path
       d="M 483.08739,775.94202 H 471.74941"
       style="fill:none;stroke:#000000"
       id="path60" />
    <path
       d="m 483.08784,324.66692 3.07086,-0.82283 2.24803,-2.24803 0.82283,-3.07086 -0.82283,-3.07086 -2.24803,-2.24803 -3.07086,-0.82284"
       style="fill:none;stroke:#000000"
       id="path61" />
    <path
       d="M 483.08739,324.66659 H 471.74941"
       style="fill:none;stroke:#000000"
       id="path62" />
    <path
       d="m 471.74927,312.38347 -3.07086,0.82284 -2.24803,2.24803 -0.82284,3.07086 0.82284,3.07086 2.24803,2.24803 3.07086,0.82283"
       style="fill:none;stroke:#000000"
       id="path63" />
    <path
       d="M 483.08739,312.38361 H 471.74941"
       style="fill:none;stroke:#000000"
       id="path64" />
    <path
       d="m 321.32427,788.2254 3.07086,-0.82284 2.24802,-2.24803 0.82284,-3.07086 -0.82284,-3.07086 -2.24802,-2.24803 -3.07086,-0.82283"
       style="fill:none;stroke:#000000"
       id="path65" />
    <path
       d="M 321.32459,788.22501 H 309.98561"
       style="fill:none;stroke:#000000"
       id="path66" />
    <path
       d="m 309.98569,775.94195 -3.07086,0.82283 -2.24802,2.24803 -0.82284,3.07086 0.82284,3.07086 2.24802,2.24803 3.07086,0.82284"
       style="fill:none;stroke:#000000"
       id="path67" />
    <path
       d="M 321.32459,775.94202 H 309.98561"
       style="fill:none;stroke:#000000"
       id="path68" />
    <path
       d="m 340.14628,361.70625 -0.58887,-2.91202 -1.60394,-2.37782 -2.3784,-1.60307 -2.91224,-0.58781 -2.91223,0.58781 -2.3784,1.60307 -1.60395,2.37782 -0.58888,2.91202 0.58888,2.91202 1.60395,2.37781 2.3784,1.60308 2.91223,0.58781 2.91224,-0.58781 2.3784,-1.60308 1.60394,-2.37781 0.58887,-2.91202 v 0"
       style="fill:none;stroke:#000000"
       id="path69" />
    <path
       d="m 382.60292,361.70625 -1.00259,-3.74173 -2.73913,-2.73913 -3.74173,-1.0026 -3.74173,1.0026 -2.73914,2.73913 -1.00259,3.74173 1.00259,3.74173 2.73914,2.73913 3.74173,1.00259 3.74173,-1.00259 2.73913,-2.73913 1.00259,-3.74173 v 0"
       style="fill:none;stroke:#000000"
       id="path70" />
    <path
       d="m 425.05957,361.70625 -0.58888,-2.91202 -1.60395,-2.37782 -2.3784,-1.60307 -2.91223,-0.58781 -2.91223,0.58781 -2.3784,1.60307 -1.60395,2.37782 -0.58887,2.91202 0.58887,2.91202 1.60395,2.37781 2.3784,1.60308 2.91223,0.58781 2.91223,-0.58781 2.3784,-1.60308 1.60395,-2.37781 0.58888,-2.91202 v 0"
       style="fill:none;stroke:#000000"
       id="path71" />
    <path
       d="m 467.51621,361.70625 -1.0026,-3.74173 -2.73913,-2.73913 -3.74173,-1.0026 -3.74173,1.0026 -2.73913,2.73913 -1.0026,3.74173 1.0026,3.74173 2.73913,2.73913 3.74173,1.00259 3.74173,-1.00259 2.73913,-2.73913 1.0026,-3.74173 v 0"
       style="fill:none;stroke:#000000"
       id="path72" />
    <path
       d="m 350.42659,393.26527 -0.81018,-3.02362 -2.21344,-2.21344 -3.02362,-0.81018 -3.02362,0.81018 -2.21344,2.21344 -0.81017,3.02362 0.81017,3.02361 2.21344,2.21344 3.02362,0.81018 3.02362,-0.81018 2.21344,-2.21344 0.81018,-3.02361 v 0"
       style="fill:none;stroke:#000000"
       id="path73" />
    <path
       d="m 454.74142,393.64321 -0.81018,-3.02361 -2.21344,-2.21345 -3.02362,-0.81017 -3.02362,0.81017 -2.21344,2.21345 -0.81018,3.02361 0.81018,3.02362 2.21344,2.21345 3.02362,0.81017 3.02362,-0.81017 2.21344,-2.21345 0.81018,-3.02362 v 0"
       style="fill:none;stroke:#000000"
       id="path74" />
    <path
       d="m 338.33212,421.46995 -0.557,-2.07873 -1.52174,-1.52175 -2.07874,-0.55699 -2.07874,0.55699 -1.52174,1.52175 -0.55699,2.07873 0.55699,2.07874 1.52174,1.52174 2.07874,0.557 2.07874,-0.557 1.52174,-1.52174 0.557,-2.07874 v 0"
       style="fill:none;stroke:#000000"
       id="path75" />
    <path
       d="m 463.05637,421.80066 -0.557,-2.07874 -1.52174,-1.52174 -2.07874,-0.55699 -2.07874,0.55699 -1.52174,1.52174 -0.55699,2.07874 0.55699,2.07874 1.52174,1.52174 2.07874,0.557 2.07874,-0.557 1.52174,-1.52174 0.557,-2.07874 v 0"
       style="fill:none;stroke:#000000"
       id="path76" />
    <path
       d="m 379.90687,421.80066 -0.557,-2.07874 -1.52174,-1.52174 -2.07874,-0.55699 -2.07874,0.55699 -1.52174,1.52174 -0.55699,2.07874 0.55699,2.07874 1.52174,1.52174 2.07874,0.557 2.07874,-0.557 1.52174,-1.52174 0.557,-2.07874 v 0"
       style="fill:none;stroke:#000000"
       id="path77" />
    <path
       d="m 421.48162,421.80066 -0.557,-2.07874 -1.52174,-1.52174 -2.07874,-0.55699 -2.07874,0.55699 -1.52174,1.52174 -0.55699,2.07874 0.55699,2.07874 1.52174,1.52174 2.07874,0.557 2.07874,-0.557 1.52174,-1.52174 0.557,-2.07874 v 0"
       style="fill:none;stroke:#000000"
       id="path78" />
  </g>
  <g
     id="g130"
     inkscape:label="UI"
     transform="translate(-300.03662,-306.96961)"
     style="display:inline">
    <rect
       style="fill:#050505;fill-opacity:1;stroke:#000000;stroke-width:0;stroke-dasharray:none"
       id="rect130"
       width="2.8224111"
       height="0.76649088"
       x="323.24289"
       y="498.56662" />
    <text
       xml:space="preserve"
       style="font-size:10.6667px;writing-mode:lr-tb;direction:ltr;fill:#000000;stroke:#000000;stroke-width:0;stroke-dasharray:none"
       x="314.88858"
       y="502.46552"
       id="text130"
       inkscape:label="Pitch  (Fader 1)"><tspan
         sodipodi:role="line"
         id="tspan130"
         x="314.88858"
         y="502.46552"
         style="font-style:normal;font-variant:normal;font-weight:normal;font-stretch:normal;font-size:10.6667px;font-family:'Liberation Mono';-inkscape-font-specification:'Liberation Mono';fill:#050505;fill-opacity:1;stroke-width:0;stroke-dasharray:none">0</tspan></text>
    <rect
       style="fill:#050505;fill-opacity:1;stroke:#000000;stroke-width:0;stroke-dasharray:none"
       id="rect131"
       width="2.8224111"
       height="0.76649088"
       x="323.03717"
       y="430.30164" />
    <text
       xml:space="preserve"
       style="font-size:10.6667px;writing-mode:lr-tb;direction:ltr;fill:#000000;stroke:#000000;stroke-width:0;stroke-dasharray:none"
       x="303.95203"
       y="434.75763"
       id="text131"
       inkscape:label="Pitch  (Fader 1)"><tspan
         sodipodi:role="line"
         id="tspan131"
         x="303.95203"
         y="434.75763"
         style="font-style:normal;font-variant:normal;font-weight:normal;font-stretch:normal;font-size:10.6667px;font-family:'Liberation Mono';-inkscape-font-specification:'Liberation Mono';fill:#050505;fill-opacity:1;stroke-width:0;stroke-dasharray:none">+24</tspan></text>
    <rect
       style="fill:#050505;fill-opacity:1;stroke:#000000;stroke-width:0;stroke-dasharray:none"
       id="rect132"
       width="2.8224111"
       height="0.76649088"
       x="323.24289"
       y="566.27515" />
    <text
       xml:space="preserve"
       style="font-size:10.6667px;writing-mode:lr-tb;direction:ltr;fill:#000000;stroke:#000000;stroke-width:0;stroke-dasharray:none"
       x="303.2081"
       y="570.27759"
       id="text132"
       inkscape:label="Pitch  (Fader 1)"><tspan
         sodipodi:role="line"
         id="tspan132"
         x="303.2081"
         y="570.27759"
         style="font-style:normal;font-variant:normal;font-weight:normal;font-stretch:normal;font-size:10.6667px;font-family:'Liberation Mono';-inkscape-font-specification:'Liberation Mono';fill:#050505;fill-opacity:1;stroke-width:0;stroke-dasharray:none">-24</tspan></text>
  </g>
  <g
     id="g118"
     inkscape:label="Text"
     transform="translate(-300.03662,-306.96961)">
    <text
       xml:space="preserve"
       style="font-size:13.3333px;letter-spacing:1.2px;writing-mode:lr-tb;direction:ltr;fill:#000000;stroke:#000000;stroke-width:0;stroke-dasharray:none"
       x="339.06339"
       y="786.47821"
       id="text96"
       inkscape:label="AWARE MODULAR"><tspan
         sodipodi:role="line"
         id="tspan96"
         x="339.06339"
         y="786.47821"
         style="font-style:normal;font-variant:normal;font-weight:normal;font-stretch:normal;font-size:13.3333px;font-family:'Liberation Mono';-inkscape-font-specification:'Liberation Mono';letter-spacing:1.2px;fill:#050505;fill-opacity:1;stroke-width:0;stroke-dasharray:none">AWARE MODULAR</tspan></text>
    <text
       xml:space="preserve"
       style="font-size:10.6667px;writing-mode:lr-tb;direction:ltr;fill:#000000;stroke:#000000;stroke-width:0;stroke-dasharray:none"
       x="324.12625"
       y="756.06476"
       id="text97"
       inkscape:label="InL"><tspan
         sodipodi:role="line"
         id="tspan97"
         x="324.12625"
         y="756.06476"
         style="font-style:normal;font-variant:normal;font-weight:normal;font-stretch:normal;font-size:10.6667px;font-family:'Liberation Mono';-inkscape-font-specification:'Liberation Mono';fill:#050505;fill-opacity:1;stroke-width:0;stroke-dasharray:none">InL</tspan></text>
    <text
       xml:space="preserve"
       style="font-size:10.6667px;writing-mode:lr-tb;direction:ltr;fill:#000000;stroke:#000000;stroke-width:0;stroke-dasharray:none"
       x="365.74716"
       y="756.06476"
       id="text98"
       inkscape:label="InR"><tspan
         sodipodi:role="line"
         id="tspan98"
         x="365.74716"
         y="756.06476"
         style="font-style:normal;font-variant:normal;font-weight:normal;font-stretch:normal;font-size:10.6667px;font-family:'Liberation Mono';-inkscape-font-specification:'Liberation Mono';fill:#050505;fill-opacity:1;stroke-width:0;stroke-dasharray:none">InR</tspan></text>
    <text
       xml:space="preserve"
       style="font-size:10.6667px;writing-mode:lr-tb;direction:ltr;fill:#000000;stroke:#000000;stroke-width:0;stroke-dasharray:none"
       x="403.2482"
       y="756.06738"
       id="text99"
       inkscape:label="OutL"><tspan
         sodipodi:role="line"
         id="tspan99"
         x="403.2482"
         y="756.06738"
         style="font-style:normal;font-variant:normal;font-weight:normal;font-stretch:normal;font-size:10.6667px;font-family:'Liberation Mono';-inkscape-font-specification:'Liberation Mono';fill:#050505;fill-opacity:1;stroke-width:0;stroke-dasharray:none">OutL</tspan></text>
    <text
       xml:space="preserve"
       style="font-size:10.6667px;writing-mode:lr-tb;direction:ltr;fill:#000000;stroke:#000000;stroke-width:0;stroke-dasharray:none"
       x="445.95654"
       y="756.08643"
       id="text100"
       inkscape:label="OutR"><tspan
         sodipodi:role="line"
         id="tspan100"
         x="445.95654"
         y="756.08643"
         style="font-style:normal;font-variant:normal;font-weight:normal;font-stretch:normal;font-size:10.6667px;font-family:'Liberation Mono';-inkscape-font-specification:'Liberation Mono';fill:#050505;fill-opacity:1;stroke-width:0;stroke-dasharray:none">OutR</tspan></text>
    <text
       xml:space="preserve"
       style="font-size:10.6667px;writing-mode:lr-tb;direction:ltr;fill:#000000;stroke:#000000;stroke-width:0;stroke-dasharray:none"
       x="321.11771"
       y="696.84882"
       id="text101"
       inkscape:label="Play (Gate 1)"><tspan
         sodipodi:role="line"
         id="tspan101"
         x="321.11771"
         y="696.84882"
         style="font-style:normal;font-variant:normal;font-weight:normal;font-stretch:normal;font-size:10.6667px;font-family:'Liberation Mono';-inkscape-font-specification:'Liberation Mono';fill:#050505;fill-opacity:1;stroke-width:0;stroke-dasharray:none">Play</tspan></text>
    <text
       xml:space="preserve"
       style="font-size:10.6667px;writing-mode:lr-tb;direction:ltr;fill:#000000;stroke:#000000;stroke-width:0;stroke-dasharray:none"
       x="366.11899"
       y="696.82922"
       id="text102"
       inkscape:label="Record (Gate 2)"><tspan
         sodipodi:role="line"
         id="tspan102"
         x="366.11899"
         y="696.82922"
         style="font-style:normal;font-variant:normal;font-weight:normal;font-stretch:normal;font-size:10.6667px;font-family:'Liberation Mono';-inkscape-font-specification:'Liberation Mono';fill:#050505;fill-opacity:1;stroke-width:0;stroke-dasharray:none">Rec</tspan></text>
    <text
       xml:space="preserve"
       style="font-size:10.6667px;writing-mode:lr-tb;direction:ltr;fill:#000000;stroke:#000000;stroke-width:0;stroke-dasharray:none"
       x="409.92868"
       y="696.79889"
       id="text104"
       inkscape:label="Unused (Gate3)"><tspan
         sodipodi:role="line"
         id="tspan104"
         x="409.92868"
         y="696.79889"
         style="font-style:normal;font-variant:normal;font-weight:normal;font-stretch:normal;font-size:10.6667px;font-family:'Liberation Mono';-inkscape-font-specification:'Liberation Mono';fill:#050505;fill-opacity:1;stroke-width:0;stroke-dasharray:none">:&lt;</tspan></text>
    <text
       xml:space="preserve"
       style="font-size:10.6667px;writing-mode:lr-tb;direction:ltr;fill:#000000;stroke:#000000;stroke-width:0;stroke-dasharray:none"
       x="443.03204"
       y="696.69543"
       id="text103"
       inkscape:label="Slice (Gate 4)"><tspan
         sodipodi:role="line"
         id="tspan103"
         x="443.03204"
         y="696.69543"
         style="font-style:normal;font-variant:normal;font-weight:normal;font-stretch:normal;font-size:10.6667px;font-family:'Liberation Mono';-inkscape-font-specification:'Liberation Mono';fill:#050505;fill-opacity:1;stroke-width:0;stroke-dasharray:none">Slice</tspan></text>
    <text
       xml:space="preserve"
       style="font-size:10.6667px;writing-mode:lr-tb;direction:ltr;fill:#000000;stroke:#000000;stroke-width:0;stroke-dasharray:none"
       x="318.68802"
       y="637.39087"
       id="text105"
       inkscape:label="V/Oct"><tspan
         sodipodi:role="line"
         id="tspan105"
         x="318.68802"
         y="637.39087"
         style="font-style:normal;font-variant:normal;font-weight:normal;font-stretch:normal;font-size:10.6667px;font-family:'Liberation Mono';-inkscape-font-specification:'Liberation Mono';fill:#050505;fill-opacity:1;stroke-width:0;stroke-dasharray:none">V/Oct</tspan></text>
    <text
       xml:space="preserve"
       style="font-size:10.6667px;line-height:0.8;text-align:center;writing-mode:lr-tb;direction:ltr;text-anchor:middle;fill:#000000;stroke:#000000;stroke-width:0;stroke-dasharray:none"
       x="375.88522"
       y="637.33063"
       id="text106"
       inkscape:label="Slice Position (CV1)"><tspan
         style="font-style:normal;font-variant:normal;font-weight:normal;font-stretch:normal;font-size:10.6667px;line-height:0.8;font-family:'Liberation Mono';-inkscape-font-specification:'Liberation Mono';fill:#050505;fill-opacity:1;stroke-width:0;stroke-dasharray:none"
         sodipodi:role="line"
         id="tspan111"
         x="375.88522"
         y="637.33063">Slice</tspan><tspan
         sodipodi:role="line"
         x="375.88522"
         y="646.07837"
         style="font-style:normal;font-variant:normal;font-weight:normal;font-stretch:normal;font-size:10.6667px;line-height:0.8;font-family:'Liberation Mono';-inkscape-font-specification:'Liberation Mono';fill:#050505;fill-opacity:1;stroke-width:0;stroke-dasharray:none"
         id="tspan108">Pos</tspan></text>
    <text
       xml:space="preserve"
       style="font-size:10.6667px;writing-mode:lr-tb;direction:ltr;fill:#000000;stroke:#000000;stroke-width:0;stroke-dasharray:none"
       x="414.1188"
       y="637.55481"
       id="text112"
       inkscape:label="x (CV2)"><tspan
         sodipodi:role="line"
         id="tspan112"
         x="414.1188"
         y="637.55481"
         style="font-style:normal;font-variant:normal;font-weight:normal;font-stretch:normal;font-size:10.6667px;font-family:'Liberation Mono';-inkscape-font-specification:'Liberation Mono';fill:#050505;fill-opacity:1;stroke-width:0;stroke-dasharray:none">x</tspan></text>
    <text
       xml:space="preserve"
       style="font-size:10.6667px;writing-mode:lr-tb;direction:ltr;fill:#000000;stroke:#000000;stroke-width:0;stroke-dasharray:none"
       x="455.69354"
       y="637.45111"
       id="text113"
       inkscape:label="y (CV3)"><tspan
         sodipodi:role="line"
         id="tspan113"
         x="455.69354"
         y="637.45111"
         style="font-style:normal;font-variant:normal;font-weight:normal;font-stretch:normal;font-size:10.6667px;font-family:'Liberation Mono';-inkscape-font-specification:'Liberation Mono';fill:#050505;fill-opacity:1;stroke-width:0;stroke-dasharray:none">y</tspan></text>
    <text
       xml:space="preserve"
       style="font-size:10.6667px;writing-mode:lr-tb;direction:ltr;fill:#000000;stroke:#000000;stroke-width:0;stroke-dasharray:none"
       x="318.2193"
       y="584.65796"
       id="text114"
       inkscape:label="Pitch  (Fader 1)"><tspan
         sodipodi:role="line"
         id="tspan114"
         x="318.2193"
         y="584.65796"
         style="font-style:normal;font-variant:normal;font-weight:normal;font-stretch:normal;font-size:10.6667px;font-family:'Liberation Mono';-inkscape-font-specification:'Liberation Mono';fill:#050505;fill-opacity:1;stroke-width:0;stroke-dasharray:none">Pitch</tspan></text>
    <text
       xml:space="preserve"
       style="font-size:10.6667px;writing-mode:lr-tb;direction:ltr;fill:#000000;stroke:#000000;stroke-width:0;stroke-dasharray:none"
       x="366.69952"
       y="584.77747"
       id="text115"
       inkscape:label="Attack (Fader 2)"><tspan
         sodipodi:role="line"
         id="tspan115"
         x="366.69952"
         y="584.77747"
         style="font-style:normal;font-variant:normal;font-weight:normal;font-stretch:normal;font-size:10.6667px;font-family:'Liberation Mono';-inkscape-font-specification:'Liberation Mono';fill:#050505;fill-opacity:1;stroke-width:0;stroke-dasharray:none">Att</tspan></text>
    <text
       xml:space="preserve"
       style="font-size:10.6667px;writing-mode:lr-tb;direction:ltr;fill:#000000;stroke:#000000;stroke-width:0;stroke-dasharray:none"
       x="407.58493"
       y="584.81116"
       id="text116"
       inkscape:label="Release (Fader 3)"><tspan
         sodipodi:role="line"
         id="tspan116"
         x="407.58493"
         y="584.81116"
         style="font-style:normal;font-variant:normal;font-weight:normal;font-stretch:normal;font-size:10.6667px;font-family:'Liberation Mono';-inkscape-font-specification:'Liberation Mono';fill:#050505;fill-opacity:1;stroke-width:0;stroke-dasharray:none">Rel</tspan></text>
    <text
       xml:space="preserve"
       style="font-size:10.6667px;writing-mode:lr-tb;direction:ltr;fill:#000000;stroke:#000000;stroke-width:0;stroke-dasharray:none"
       x="442.95355"
       y="584.70471"
       id="text117"
       inkscape:label="Destroy (Fader 4)"><tspan
         sodipodi:role="line"
         id="tspan117"
         x="442.95355"
         y="584.70471"
         style="font-style:normal;font-variant:normal;font-weight:normal;font-stretch:normal;font-size:10.6667px;font-family:'Liberation Mono';-inkscape-font-specification:'Liberation Mono';fill:#050505;fill-opacity:1;stroke-width:0;stroke-dasharray:none">Destr</tspan></text>
    <text
       xml:space="preserve"
       style="font-size:18.6667px;writing-mode:lr-tb;direction:ltr;fill:#000000;stroke:#000000;stroke-width:0;stroke-dasharray:none"
       x="361.384"
       y="325.37061"
       id="text118"
       inkscape:label="AAREBOT"><tspan
         sodipodi:role="line"
         id="tspan118"
         x="361.384"
         y="325.37061"
         style="font-style:normal;font-variant:normal;font-weight:normal;font-stretch:normal;font-size:18.6667px;font-family:'Liberation Mono';-inkscape-font-specification:'Liberation Mono';fill:#050505;fill-opacity:1;stroke-width:0;stroke-dasharray:none">AAREBOT</tspan></text>
  </g>
</svg>
