999
"DXF R12 Output" (www.mydxf.blogspot.com)
 0 
SECTION
 2 
HEADER
 9 
$ACADVER
 1 
AC1009
 9 
$EXTMIN
 10 
 0 
 20 
 0 
 9 
$EXTMAX
 10 
 8.5 
 20 
 11 
 0 
ENDSEC
 0 
SECTION
 2 
ENTITIES
0
POLYLINE
8
View
62
7
70
0
10
0.000000
20
0.000000
66
1
0
VERTEX
8
View
10
130.316753
20
215.648767
70
0
0
VERTEX
8
View
10
130.316753
20
87.148903
70
0
0
SEQEND
8
View
0
POLYLINE
8
View
62
7
70
0
10
0.000000
20
0.000000
66
1
0
VERTEX
8
View
10
130.316753
20
87.148903
70
0
0
VERTEX
8
View
10
79.516881
20
87.148903
70
0
0
SEQEND
8
View
0
POLYLINE
8
View
62
7
70
0
10
0.000000
20
0.000000
66
1
0
VERTEX
8
View
10
79.516881
20
87.148903
70
0
0
VERTEX
8
View
10
79.516881
20
215.648767
70
0
0
SEQEND
8
View
0
POLYLINE
8
View
62
7
70
0
10
0.000000
20
0.000000
66
1
0
VERTEX
8
View
10
79.516881
20
215.648767
70
0
0
VERTEX
8
View
10
130.316753
20
215.648767
70
0
0
SEQEND
8
View
0
POLYLINE
8
View
62
7
70
0
10
0.000000
20
0.000000
66
1
0
VERTEX
8
View
10
101.066875
20
183.098749
70
0
0
VERTEX
8
View
10
101.066875
20
146.698789
70
0
0
SEQEND
8
View
0
POLYLINE
8
View
62
7
70
0
10
0.000000
20
0.000000
66
1
0
VERTEX
8
View
10
100.516898
20
146.148815
70
0
0
VERTEX
8
View
10
100.905806
20
146.309906
70
0
0
VERTEX
8
View
10
101.066897
20
146.698813
70
0
0
SEQEND
8
View
0
POLYLINE
8
View
62
7
70
0
10
0.000000
20
0.000000
66
1
0
VERTEX
8
View
10
100.516807
20
146.148722
70
0
0
VERTEX
8
View
10
98.316802
20
146.148722
70
0
0
SEQEND
8
View
0
POLYLINE
8
View
62
7
70
0
10
0.000000
20
0.000000
66
1
0
VERTEX
8
View
10
97.766905
20
146.698813
70
0
0
VERTEX
8
View
10
97.927997
20
146.309906
70
0
0
VERTEX
8
View
10
98.316904
20
146.148815
70
0
0
SEQEND
8
View
0
POLYLINE
8
View
62
7
70
0
10
0.000000
20
0.000000
66
1
0
VERTEX
8
View
10
97.767000
20
146.698789
70
0
0
VERTEX
8
View
10
97.767000
20
183.098749
70
0
0
SEQEND
8
View
0
POLYLINE
8
View
62
7
70
0
10
0.000000
20
0.000000
66
1
0
VERTEX
8
View
10
98.316904
20
183.648720
70
0
0
VERTEX
8
View
10
97.927997
20
183.487629
70
0
0
VERTEX
8
View
10
97.766905
20
183.098722
70
0
0
SEQEND
8
View
0
POLYLINE
8
View
62
7
70
0
10
0.000000
20
0.000000
66
1
0
VERTEX
8
View
10
98.316802
20
183.648817
70
0
0
VERTEX
8
View
10
100.516807
20
183.648817
70
0
0
SEQEND
8
View
0
POLYLINE
8
View
62
7
70
0
10
0.000000
20
0.000000
66
1
0
VERTEX
8
View
10
101.066897
20
183.098722
70
0
0
VERTEX
8
View
10
100.905806
20
183.487629
70
0
0
VERTEX
8
View
10
100.516898
20
183.648720
70
0
0
SEQEND
8
View
0
POLYLINE
8
View
62
7
70
0
10
0.000000
20
0.000000
66
1
0
VERTEX
8
View
10
112.066899
20
183.098749
70
0
0
VERTEX
8
View
10
112.066899
20
146.698789
70
0
0
SEQEND
8
View
0
POLYLINE
8
View
62
7
70
0
10
0.000000
20
0.000000
66
1
0
VERTEX
8
View
10
111.516870
20
146.148815
70
0
0
VERTEX
8
View
10
111.905778
20
146.309906
70
0
0
VERTEX
8
View
10
112.066869
20
146.698813
70
0
0
SEQEND
8
View
0
POLYLINE
8
View
62
7
70
0
10
0.000000
20
0.000000
66
1
0
VERTEX
8
View
10
111.516832
20
146.148722
70
0
0
VERTEX
8
View
10
109.316826
20
146.148722
70
0
0
SEQEND
8
View
0
POLYLINE
8
View
62
7
70
0
10
0.000000
20
0.000000
66
1
0
VERTEX
8
View
10
108.766878
20
146.698813
70
0
0
VERTEX
8
View
10
108.927969
20
146.309906
70
0
0
VERTEX
8
View
10
109.316876
20
146.148815
70
0
0
SEQEND
8
View
0
POLYLINE
8
View
62
7
70
0
10
0.000000
20
0.000000
66
1
0
VERTEX
8
View
10
108.766759
20
146.698789
70
0
0
VERTEX
8
View
10
108.766759
20
183.098749
70
0
0
SEQEND
8
View
0
POLYLINE
8
View
62
7
70
0
10
0.000000
20
0.000000
66
1
0
VERTEX
8
View
10
109.316876
20
183.648720
70
0
0
VERTEX
8
View
10
108.927969
20
183.487629
70
0
0
VERTEX
8
View
10
108.766878
20
183.098722
70
0
0
SEQEND
8
View
0
POLYLINE
8
View
62
7
70
0
10
0.000000
20
0.000000
66
1
0
VERTEX
8
View
10
109.316826
20
183.648817
70
0
0
VERTEX
8
View
10
111.516832
20
183.648817
70
0
0
SEQEND
8
View
0
POLYLINE
8
View
62
7
70
0
10
0.000000
20
0.000000
66
1
0
VERTEX
8
View
10
112.066869
20
183.098722
70
0
0
VERTEX
8
View
10
111.905778
20
183.487629
70
0
0
VERTEX
8
View
10
111.516870
20
183.648720
70
0
0
SEQEND
8
View
0
POLYLINE
8
View
62
7
70
0
10
0.000000
20
0.000000
66
1
0
VERTEX
8
View
10
123.066923
20
183.098749
70
0
0
VERTEX
8
View
10
123.066923
20
146.698789
70
0
0
SEQEND
8
View
0
POLYLINE
8
View
62
7
70
0
10
0.000000
20
0.000000
66
1
0
VERTEX
8
View
10
122.516843
20
146.148815
70
0
0
VERTEX
8
View
10
122.905750
20
146.309906
70
0
0
VERTEX
8
View
10
123.066842
20
146.698813
70
0
0
SEQEND
8
View
0
POLYLINE
8
View
62
7
70
0
10
0.000000
20
0.000000
66
1
0
VERTEX
8
View
10
122.516856
20
146.148722
70
0
0
VERTEX
8
View
10
120.316852
20
146.148722
70
0
0
SEQEND
8
View
0
POLYLINE
8
View
62
7
70
0
10
0.000000
20
0.000000
66
1
0
VERTEX
8
View
10
119.766850
20
146.698813
70
0
0
VERTEX
8
View
10
119.927941
20
146.309906
70
0
0
VERTEX
8
View
10
120.316848
20
146.148815
70
0
0
SEQEND
8
View
0
POLYLINE
8
View
62
7
70
0
10
0.000000
20
0.000000
66
1
0
VERTEX
8
View
10
119.766784
20
146.698789
70
0
0
VERTEX
8
View
10
119.766784
20
183.098749
70
0
0
SEQEND
8
View
0
POLYLINE
8
View
62
7
70
0
10
0.000000
20
0.000000
66
1
0
VERTEX
8
View
10
120.316848
20
183.648720
70
0
0
VERTEX
8
View
10
119.927941
20
183.487629
70
0
0
VERTEX
8
View
10
119.766850
20
183.098722
70
0
0
SEQEND
8
View
0
POLYLINE
8
View
62
7
70
0
10
0.000000
20
0.000000
66
1
0
VERTEX
8
View
10
120.316852
20
183.648817
70
0
0
VERTEX
8
View
10
122.516856
20
183.648817
70
0
0
SEQEND
8
View
0
POLYLINE
8
View
62
7
70
0
10
0.000000
20
0.000000
66
1
0
VERTEX
8
View
10
123.066842
20
183.098722
70
0
0
VERTEX
8
View
10
122.905750
20
183.487629
70
0
0
VERTEX
8
View
10
122.516843
20
183.648720
70
0
0
SEQEND
8
View
0
POLYLINE
8
View
62
7
70
0
10
0.000000
20
0.000000
66
1
0
VERTEX
8
View
10
90.066851
20
183.186326
70
0
0
VERTEX
8
View
10
90.066851
20
146.786366
70
0
0
SEQEND
8
View
0
POLYLINE
8
View
62
7
70
0
10
0.000000
20
0.000000
66
1
0
VERTEX
8
View
10
89.516926
20
146.236314
70
0
0
VERTEX
8
View
10
89.905834
20
146.397405
70
0
0
VERTEX
8
View
10
90.066924
20
146.786313
70
0
0
SEQEND
8
View
0
POLYLINE
8
View
62
7
70
0
10
0.000000
20
0.000000
66
1
0
VERTEX
8
View
10
89.517047
20
146.236299
70
0
0
VERTEX
8
View
10
87.317042
20
146.236299
70
0
0
SEQEND
8
View
0
POLYLINE
8
View
62
7
70
0
10
0.000000
20
0.000000
66
1
0
VERTEX
8
View
10
86.766933
20
146.786313
70
0
0
VERTEX
8
View
10
86.928023
20
146.397405
70
0
0
VERTEX
8
View
10
87.316932
20
146.236314
70
0
0
SEQEND
8
View
0
POLYLINE
8
View
62
7
70
0
10
0.000000
20
0.000000
66
1
0
VERTEX
8
View
10
86.766975
20
146.786366
70
0
0
VERTEX
8
View
10
86.766975
20
183.186326
70
0
0
SEQEND
8
View
0
POLYLINE
8
View
62
7
70
0
10
0.000000
20
0.000000
66
1
0
VERTEX
8
View
10
87.316932
20
183.736220
70
0
0
VERTEX
8
View
10
86.928023
20
183.575129
70
0
0
VERTEX
8
View
10
86.766933
20
183.186221
70
0
0
SEQEND
8
View
0
POLYLINE
8
View
62
7
70
0
10
0.000000
20
0.000000
66
1
0
VERTEX
8
View
10
87.317042
20
183.736129
70
0
0
VERTEX
8
View
10
89.517047
20
183.736129
70
0
0
SEQEND
8
View
0
POLYLINE
8
View
62
7
70
0
10
0.000000
20
0.000000
66
1
0
VERTEX
8
View
10
90.066924
20
183.186221
70
0
0
VERTEX
8
View
10
89.905834
20
183.575129
70
0
0
VERTEX
8
View
10
89.516926
20
183.736220
70
0
0
SEQEND
8
View
0
POLYLINE
8
View
62
7
70
0
10
0.000000
20
0.000000
66
1
0
VERTEX
8
View
10
96.166910
20
119.847631
70
0
0
VERTEX
8
View
10
96.296909
20
120.757629
70
0
0
VERTEX
8
View
10
96.816908
20
121.797626
70
0
0
VERTEX
8
View
10
97.280077
20
122.296288
70
0
0
VERTEX
8
View
10
97.887494
20
122.715271
70
0
0
VERTEX
8
View
10
98.617027
20
122.997448
70
0
0
VERTEX
8
View
10
99.416901
20
123.097623
70
0
0
VERTEX
8
View
10
100.216776
20
122.997448
70
0
0
VERTEX
8
View
10
100.946309
20
122.715271
70
0
0
VERTEX
8
View
10
101.553725
20
122.296288
70
0
0
VERTEX
8
View
10
102.016894
20
121.797626
70
0
0
VERTEX
8
View
10
102.536893
20
120.757629
70
0
0
VERTEX
8
View
10
102.666893
20
119.847631
70
0
0
VERTEX
8
View
10
102.536893
20
118.937633
70
0
0
VERTEX
8
View
10
102.016894
20
117.897636
70
0
0
VERTEX
8
View
10
101.553725
20
117.398973
70
0
0
VERTEX
8
View
10
100.946309
20
116.979991
70
0
0
VERTEX
8
View
10
100.216776
20
116.697813
70
0
0
VERTEX
8
View
10
99.416901
20
116.597639
70
0
0
VERTEX
8
View
10
98.617027
20
116.697813
70
0
0
VERTEX
8
View
10
97.887494
20
116.979991
70
0
0
VERTEX
8
View
10
97.280077
20
117.398973
70
0
0
VERTEX
8
View
10
96.816908
20
117.897636
70
0
0
VERTEX
8
View
10
96.296909
20
118.937633
70
0
0
VERTEX
8
View
10
96.166910
20
119.847631
70
0
0
VERTEX
8
View
10
96.166910
20
119.847631
70
0
0
SEQEND
8
View
0
POLYLINE
8
View
62
7
70
0
10
0.000000
20
0.000000
66
1
0
VERTEX
8
View
10
102.666893
20
104.147670
70
0
0
VERTEX
8
View
10
102.411226
20
105.412416
70
0
0
VERTEX
8
View
10
101.714665
20
106.445162
70
0
0
VERTEX
8
View
10
100.681720
20
107.141428
70
0
0
VERTEX
8
View
10
99.416901
20
107.396735
70
0
0
VERTEX
8
View
10
98.152082
20
107.141428
70
0
0
VERTEX
8
View
10
97.119138
20
106.445162
70
0
0
VERTEX
8
View
10
96.422576
20
105.412416
70
0
0
VERTEX
8
View
10
96.166910
20
104.147670
70
0
0
VERTEX
8
View
10
96.422576
20
102.882924
70
0
0
VERTEX
8
View
10
97.119138
20
101.850179
70
0
0
VERTEX
8
View
10
98.152082
20
101.153913
70
0
0
VERTEX
8
View
10
99.416901
20
100.898606
70
0
0
VERTEX
8
View
10
100.681720
20
101.153913
70
0
0
VERTEX
8
View
10
101.714665
20
101.850179
70
0
0
VERTEX
8
View
10
102.411226
20
102.882924
70
0
0
VERTEX
8
View
10
102.666893
20
104.147670
70
0
0
VERTEX
8
View
10
102.666893
20
104.147670
70
0
0
SEQEND
8
View
0
POLYLINE
8
View
62
7
70
0
10
0.000000
20
0.000000
66
1
0
VERTEX
8
View
10
91.666921
20
135.547591
70
0
0
VERTEX
8
View
10
91.411253
20
136.812337
70
0
0
VERTEX
8
View
10
90.714693
20
137.845083
70
0
0
VERTEX
8
View
10
89.681748
20
138.541350
70
0
0
VERTEX
8
View
10
88.416929
20
138.796656
70
0
0
VERTEX
8
View
10
87.152110
20
138.541350
70
0
0
VERTEX
8
View
10
86.119165
20
137.845083
70
0
0
VERTEX
8
View
10
85.422604
20
136.812337
70
0
0
VERTEX
8
View
10
85.166937
20
135.547591
70
0
0
VERTEX
8
View
10
85.422604
20
134.282845
70
0
0
VERTEX
8
View
10
86.119165
20
133.250099
70
0
0
VERTEX
8
View
10
87.152110
20
132.553833
70
0
0
VERTEX
8
View
10
88.416929
20
132.298527
70
0
0
VERTEX
8
View
10
89.681748
20
132.553833
70
0
0
VERTEX
8
View
10
90.714693
20
133.250099
70
0
0
VERTEX
8
View
10
91.411253
20
134.282845
70
0
0
VERTEX
8
View
10
91.666921
20
135.547591
70
0
0
VERTEX
8
View
10
91.666921
20
135.547591
70
0
0
SEQEND
8
View
0
POLYLINE
8
View
62
7
70
0
10
0.000000
20
0.000000
66
1
0
VERTEX
8
View
10
102.666893
20
135.547591
70
0
0
VERTEX
8
View
10
102.411226
20
136.812337
70
0
0
VERTEX
8
View
10
101.714665
20
137.845083
70
0
0
VERTEX
8
View
10
100.681720
20
138.541350
70
0
0
VERTEX
8
View
10
99.416901
20
138.796656
70
0
0
VERTEX
8
View
10
98.152082
20
138.541350
70
0
0
VERTEX
8
View
10
97.119138
20
137.845083
70
0
0
VERTEX
8
View
10
96.422576
20
136.812337
70
0
0
VERTEX
8
View
10
96.166910
20
135.547591
70
0
0
VERTEX
8
View
10
96.422576
20
134.282845
70
0
0
VERTEX
8
View
10
97.119138
20
133.250099
70
0
0
VERTEX
8
View
10
98.152082
20
132.553833
70
0
0
VERTEX
8
View
10
99.416901
20
132.298527
70
0
0
VERTEX
8
View
10
100.681720
20
132.553833
70
0
0
VERTEX
8
View
10
101.714665
20
133.250099
70
0
0
VERTEX
8
View
10
102.411226
20
134.282845
70
0
0
VERTEX
8
View
10
102.666893
20
135.547591
70
0
0
VERTEX
8
View
10
102.666893
20
135.547591
70
0
0
SEQEND
8
View
0
POLYLINE
8
View
62
7
70
0
10
0.000000
20
0.000000
66
1
0
VERTEX
8
View
10
113.666865
20
135.547591
70
0
0
VERTEX
8
View
10
113.411198
20
136.812337
70
0
0
VERTEX
8
View
10
112.714637
20
137.845083
70
0
0
VERTEX
8
View
10
111.681692
20
138.541350
70
0
0
VERTEX
8
View
10
110.416874
20
138.796656
70
0
0
VERTEX
8
View
10
109.152055
20
138.541350
70
0
0
VERTEX
8
View
10
108.119110
20
137.845083
70
0
0
VERTEX
8
View
10
107.422549
20
136.812337
70
0
0
VERTEX
8
View
10
107.166882
20
135.547591
70
0
0
VERTEX
8
View
10
107.422549
20
134.282845
70
0
0
VERTEX
8
View
10
108.119110
20
133.250099
70
0
0
VERTEX
8
View
10
109.152055
20
132.553833
70
0
0
VERTEX
8
View
10
110.416874
20
132.298527
70
0
0
VERTEX
8
View
10
111.681692
20
132.553833
70
0
0
VERTEX
8
View
10
112.714637
20
133.250099
70
0
0
VERTEX
8
View
10
113.411198
20
134.282845
70
0
0
VERTEX
8
View
10
113.666865
20
135.547591
70
0
0
VERTEX
8
View
10
113.666865
20
135.547591
70
0
0
SEQEND
8
View
0
POLYLINE
8
View
62
7
70
0
10
0.000000
20
0.000000
66
1
0
VERTEX
8
View
10
91.666921
20
119.847631
70
0
0
VERTEX
8
View
10
91.411253
20
121.112377
70
0
0
VERTEX
8
View
10
90.714693
20
122.145122
70
0
0
VERTEX
8
View
10
89.681748
20
122.841389
70
0
0
VERTEX
8
View
10
88.416929
20
123.096695
70
0
0
VERTEX
8
View
10
87.152110
20
122.841389
70
0
0
VERTEX
8
View
10
86.119165
20
122.145122
70
0
0
VERTEX
8
View
10
85.422604
20
121.112377
70
0
0
VERTEX
8
View
10
85.166937
20
119.847631
70
0
0
VERTEX
8
View
10
85.422604
20
118.582885
70
0
0
VERTEX
8
View
10
86.119165
20
117.550139
70
0
0
VERTEX
8
View
10
87.152110
20
116.853873
70
0
0
VERTEX
8
View
10
88.416929
20
116.598566
70
0
0
VERTEX
8
View
10
89.681748
20
116.853873
70
0
0
VERTEX
8
View
10
90.714693
20
117.550139
70
0
0
VERTEX
8
View
10
91.411253
20
118.582885
70
0
0
VERTEX
8
View
10
91.666921
20
119.847631
70
0
0
VERTEX
8
View
10
91.666921
20
119.847631
70
0
0
SEQEND
8
View
0
POLYLINE
8
View
62
7
70
0
10
0.000000
20
0.000000
66
1
0
VERTEX
8
View
10
124.666837
20
135.547591
70
0
0
VERTEX
8
View
10
124.411170
20
136.812337
70
0
0
VERTEX
8
View
10
123.714609
20
137.845083
70
0
0
VERTEX
8
View
10
122.681664
20
138.541350
70
0
0
VERTEX
8
View
10
121.416846
20
138.796656
70
0
0
VERTEX
8
View
10
120.152027
20
138.541350
70
0
0
VERTEX
8
View
10
119.119082
20
137.845083
70
0
0
VERTEX
8
View
10
118.422521
20
136.812337
70
0
0
VERTEX
8
View
10
118.166854
20
135.547591
70
0
0
VERTEX
8
View
10
118.422521
20
134.282845
70
0
0
VERTEX
8
View
10
119.119082
20
133.250099
70
0
0
VERTEX
8
View
10
120.152027
20
132.553833
70
0
0
VERTEX
8
View
10
121.416846
20
132.298527
70
0
0
VERTEX
8
View
10
122.681664
20
132.553833
70
0
0
VERTEX
8
View
10
123.714609
20
133.250099
70
0
0
VERTEX
8
View
10
124.411170
20
134.282845
70
0
0
VERTEX
8
View
10
124.666837
20
135.547591
70
0
0
VERTEX
8
View
10
124.666837
20
135.547591
70
0
0
SEQEND
8
View
0
POLYLINE
8
View
62
7
70
0
10
0.000000
20
0.000000
66
1
0
VERTEX
8
View
10
113.666865
20
119.847631
70
0
0
VERTEX
8
View
10
113.411198
20
121.112377
70
0
0
VERTEX
8
View
10
112.714637
20
122.145122
70
0
0
VERTEX
8
View
10
111.681692
20
122.841389
70
0
0
VERTEX
8
View
10
110.416874
20
123.096695
70
0
0
VERTEX
8
View
10
109.152055
20
122.841389
70
0
0
VERTEX
8
View
10
108.119110
20
122.145122
70
0
0
VERTEX
8
View
10
107.422549
20
121.112377
70
0
0
VERTEX
8
View
10
107.166882
20
119.847631
70
0
0
VERTEX
8
View
10
107.422549
20
118.582885
70
0
0
VERTEX
8
View
10
108.119110
20
117.550139
70
0
0
VERTEX
8
View
10
109.152055
20
116.853873
70
0
0
VERTEX
8
View
10
110.416874
20
116.598566
70
0
0
VERTEX
8
View
10
111.681692
20
116.853873
70
0
0
VERTEX
8
View
10
112.714637
20
117.550139
70
0
0
VERTEX
8
View
10
113.411198
20
118.582885
70
0
0
VERTEX
8
View
10
113.666865
20
119.847631
70
0
0
VERTEX
8
View
10
113.666865
20
119.847631
70
0
0
SEQEND
8
View
0
POLYLINE
8
View
62
7
70
0
10
0.000000
20
0.000000
66
1
0
VERTEX
8
View
10
124.666837
20
119.847631
70
0
0
VERTEX
8
View
10
124.411170
20
121.112377
70
0
0
VERTEX
8
View
10
123.714609
20
122.145122
70
0
0
VERTEX
8
View
10
122.681664
20
122.841389
70
0
0
VERTEX
8
View
10
121.416846
20
123.096695
70
0
0
VERTEX
8
View
10
120.152027
20
122.841389
70
0
0
VERTEX
8
View
10
119.119082
20
122.145122
70
0
0
VERTEX
8
View
10
118.422521
20
121.112377
70
0
0
VERTEX
8
View
10
118.166854
20
119.847631
70
0
0
VERTEX
8
View
10
118.422521
20
118.582885
70
0
0
VERTEX
8
View
10
119.119082
20
117.550139
70
0
0
VERTEX
8
View
10
120.152027
20
116.853873
70
0
0
VERTEX
8
View
10
121.416846
20
116.598566
70
0
0
VERTEX
8
View
10
122.681664
20
116.853873
70
0
0
VERTEX
8
View
10
123.714609
20
117.550139
70
0
0
VERTEX
8
View
10
124.411170
20
118.582885
70
0
0
VERTEX
8
View
10
124.666837
20
119.847631
70
0
0
VERTEX
8
View
10
124.666837
20
119.847631
70
0
0
SEQEND
8
View
0
POLYLINE
8
View
62
7
70
0
10
0.000000
20
0.000000
66
1
0
VERTEX
8
View
10
91.666921
20
104.147670
70
0
0
VERTEX
8
View
10
91.411253
20
105.412416
70
0
0
VERTEX
8
View
10
90.714693
20
106.445162
70
0
0
VERTEX
8
View
10
89.681748
20
107.141428
70
0
0
VERTEX
8
View
10
88.416929
20
107.396735
70
0
0
VERTEX
8
View
10
87.152110
20
107.141428
70
0
0
VERTEX
8
View
10
86.119165
20
106.445162
70
0
0
VERTEX
8
View
10
85.422604
20
105.412416
70
0
0
VERTEX
8
View
10
85.166937
20
104.147670
70
0
0
VERTEX
8
View
10
85.422604
20
102.882924
70
0
0
VERTEX
8
View
10
86.119165
20
101.850179
70
0
0
VERTEX
8
View
10
87.152110
20
101.153913
70
0
0
VERTEX
8
View
10
88.416929
20
100.898606
70
0
0
VERTEX
8
View
10
89.681748
20
101.153913
70
0
0
VERTEX
8
View
10
90.714693
20
101.850179
70
0
0
VERTEX
8
View
10
91.411253
20
102.882924
70
0
0
VERTEX
8
View
10
91.666921
20
104.147670
70
0
0
VERTEX
8
View
10
91.666921
20
104.147670
70
0
0
SEQEND
8
View
0
POLYLINE
8
View
62
7
70
0
10
0.000000
20
0.000000
66
1
0
VERTEX
8
View
10
124.666837
20
104.147670
70
0
0
VERTEX
8
View
10
124.411170
20
105.412416
70
0
0
VERTEX
8
View
10
123.714609
20
106.445162
70
0
0
VERTEX
8
View
10
122.681664
20
107.141428
70
0
0
VERTEX
8
View
10
121.416846
20
107.396735
70
0
0
VERTEX
8
View
10
120.152027
20
107.141428
70
0
0
VERTEX
8
View
10
119.119082
20
106.445162
70
0
0
VERTEX
8
View
10
118.422521
20
105.412416
70
0
0
VERTEX
8
View
10
118.166854
20
104.147670
70
0
0
VERTEX
8
View
10
118.422521
20
102.882924
70
0
0
VERTEX
8
View
10
119.119082
20
101.850179
70
0
0
VERTEX
8
View
10
120.152027
20
101.153913
70
0
0
VERTEX
8
View
10
121.416846
20
100.898606
70
0
0
VERTEX
8
View
10
122.681664
20
101.153913
70
0
0
VERTEX
8
View
10
123.714609
20
101.850179
70
0
0
VERTEX
8
View
10
124.411170
20
102.882924
70
0
0
VERTEX
8
View
10
124.666837
20
104.147670
70
0
0
VERTEX
8
View
10
124.666837
20
104.147670
70
0
0
SEQEND
8
View
0
POLYLINE
8
View
62
7
70
0
10
0.000000
20
0.000000
66
1
0
VERTEX
8
View
10
113.666865
20
104.147670
70
0
0
VERTEX
8
View
10
113.411198
20
105.412416
70
0
0
VERTEX
8
View
10
112.714637
20
106.445162
70
0
0
VERTEX
8
View
10
111.681692
20
107.141428
70
0
0
VERTEX
8
View
10
110.416874
20
107.396735
70
0
0
VERTEX
8
View
10
109.152055
20
107.141428
70
0
0
VERTEX
8
View
10
108.119110
20
106.445162
70
0
0
VERTEX
8
View
10
107.422549
20
105.412416
70
0
0
VERTEX
8
View
10
107.166882
20
104.147670
70
0
0
VERTEX
8
View
10
107.422549
20
102.882924
70
0
0
VERTEX
8
View
10
108.119110
20
101.850179
70
0
0
VERTEX
8
View
10
109.152055
20
101.153913
70
0
0
VERTEX
8
View
10
110.416874
20
100.898606
70
0
0
VERTEX
8
View
10
111.681692
20
101.153913
70
0
0
VERTEX
8
View
10
112.714637
20
101.850179
70
0
0
VERTEX
8
View
10
113.411198
20
102.882924
70
0
0
VERTEX
8
View
10
113.666865
20
104.147670
70
0
0
VERTEX
8
View
10
113.666865
20
104.147670
70
0
0
SEQEND
8
View
0
POLYLINE
8
View
62
7
70
0
10
0.000000
20
0.000000
66
1
0
VERTEX
8
View
10
85.016938
20
211.098651
70
0
0
VERTEX
8
View
10
85.829436
20
211.316359
70
0
0
VERTEX
8
View
10
86.424225
20
211.911149
70
0
0
VERTEX
8
View
10
86.641934
20
212.723647
70
0
0
VERTEX
8
View
10
86.424225
20
213.536145
70
0
0
VERTEX
8
View
10
85.829436
20
214.130934
70
0
0
VERTEX
8
View
10
85.016938
20
214.348643
70
0
0
SEQEND
8
View
0
POLYLINE
8
View
62
7
70
0
10
0.000000
20
0.000000
66
1
0
VERTEX
8
View
10
85.017025
20
211.098739
70
0
0
VERTEX
8
View
10
82.016923
20
211.098739
70
0
0
SEQEND
8
View
0
POLYLINE
8
View
62
7
70
0
10
0.000000
20
0.000000
66
1
0
VERTEX
8
View
10
82.016945
20
214.348643
70
0
0
VERTEX
8
View
10
81.204447
20
214.130934
70
0
0
VERTEX
8
View
10
80.609658
20
213.536145
70
0
0
VERTEX
8
View
10
80.391949
20
212.723647
70
0
0
VERTEX
8
View
10
80.609658
20
211.911149
70
0
0
VERTEX
8
View
10
81.204447
20
211.316359
70
0
0
VERTEX
8
View
10
82.016945
20
211.098651
70
0
0
SEQEND
8
View
0
POLYLINE
8
View
62
7
70
0
10
0.000000
20
0.000000
66
1
0
VERTEX
8
View
10
85.017025
20
214.348608
70
0
0
VERTEX
8
View
10
82.016923
20
214.348608
70
0
0
SEQEND
8
View
0
POLYLINE
8
View
62
7
70
0
10
0.000000
20
0.000000
66
1
0
VERTEX
8
View
10
127.816830
20
88.448960
70
0
0
VERTEX
8
View
10
128.629328
20
88.666668
70
0
0
VERTEX
8
View
10
129.224117
20
89.261458
70
0
0
VERTEX
8
View
10
129.441825
20
90.073956
70
0
0
VERTEX
8
View
10
129.224117
20
90.886454
70
0
0
VERTEX
8
View
10
128.629328
20
91.481244
70
0
0
VERTEX
8
View
10
127.816830
20
91.698952
70
0
0
SEQEND
8
View
0
POLYLINE
8
View
62
7
70
0
10
0.000000
20
0.000000
66
1
0
VERTEX
8
View
10
127.816711
20
88.449063
70
0
0
VERTEX
8
View
10
124.816873
20
88.449063
70
0
0
SEQEND
8
View
0
POLYLINE
8
View
62
7
70
0
10
0.000000
20
0.000000
66
1
0
VERTEX
8
View
10
124.816837
20
91.698952
70
0
0
VERTEX
8
View
10
124.004339
20
91.481244
70
0
0
VERTEX
8
View
10
123.409549
20
90.886454
70
0
0
VERTEX
8
View
10
123.191841
20
90.073956
70
0
0
VERTEX
8
View
10
123.409549
20
89.261458
70
0
0
VERTEX
8
View
10
124.004339
20
88.666668
70
0
0
VERTEX
8
View
10
124.816837
20
88.448960
70
0
0
SEQEND
8
View
0
POLYLINE
8
View
62
7
70
0
10
0.000000
20
0.000000
66
1
0
VERTEX
8
View
10
127.816711
20
91.698932
70
0
0
VERTEX
8
View
10
124.816873
20
91.698932
70
0
0
SEQEND
8
View
0
POLYLINE
8
View
62
7
70
0
10
0.000000
20
0.000000
66
1
0
VERTEX
8
View
10
127.816830
20
211.098651
70
0
0
VERTEX
8
View
10
128.629328
20
211.316359
70
0
0
VERTEX
8
View
10
129.224117
20
211.911149
70
0
0
VERTEX
8
View
10
129.441825
20
212.723647
70
0
0
VERTEX
8
View
10
129.224117
20
213.536145
70
0
0
VERTEX
8
View
10
128.629328
20
214.130934
70
0
0
VERTEX
8
View
10
127.816830
20
214.348643
70
0
0
SEQEND
8
View
0
POLYLINE
8
View
62
7
70
0
10
0.000000
20
0.000000
66
1
0
VERTEX
8
View
10
127.816711
20
211.098739
70
0
0
VERTEX
8
View
10
124.816873
20
211.098739
70
0
0
SEQEND
8
View
0
POLYLINE
8
View
62
7
70
0
10
0.000000
20
0.000000
66
1
0
VERTEX
8
View
10
124.816837
20
214.348643
70
0
0
VERTEX
8
View
10
124.004339
20
214.130934
70
0
0
VERTEX
8
View
10
123.409549
20
213.536145
70
0
0
VERTEX
8
View
10
123.191841
20
212.723647
70
0
0
VERTEX
8
View
10
123.409549
20
211.911149
70
0
0
VERTEX
8
View
10
124.004339
20
211.316359
70
0
0
VERTEX
8
View
10
124.816837
20
211.098651
70
0
0
SEQEND
8
View
0
POLYLINE
8
View
62
7
70
0
10
0.000000
20
0.000000
66
1
0
VERTEX
8
View
10
127.816711
20
214.348608
70
0
0
VERTEX
8
View
10
124.816873
20
214.348608
70
0
0
SEQEND
8
View
0
POLYLINE
8
View
62
7
70
0
10
0.000000
20
0.000000
66
1
0
VERTEX
8
View
10
85.016938
20
88.448960
70
0
0
VERTEX
8
View
10
85.829436
20
88.666668
70
0
0
VERTEX
8
View
10
86.424225
20
89.261458
70
0
0
VERTEX
8
View
10
86.641934
20
90.073956
70
0
0
VERTEX
8
View
10
86.424225
20
90.886454
70
0
0
VERTEX
8
View
10
85.829436
20
91.481244
70
0
0
VERTEX
8
View
10
85.016938
20
91.698952
70
0
0
SEQEND
8
View
0
POLYLINE
8
View
62
7
70
0
10
0.000000
20
0.000000
66
1
0
VERTEX
8
View
10
85.017025
20
88.449063
70
0
0
VERTEX
8
View
10
82.016923
20
88.449063
70
0
0
SEQEND
8
View
0
POLYLINE
8
View
62
7
70
0
10
0.000000
20
0.000000
66
1
0
VERTEX
8
View
10
82.016945
20
91.698952
70
0
0
VERTEX
8
View
10
81.204447
20
91.481244
70
0
0
VERTEX
8
View
10
80.609658
20
90.886454
70
0
0
VERTEX
8
View
10
80.391949
20
90.073956
70
0
0
VERTEX
8
View
10
80.609658
20
89.261458
70
0
0
VERTEX
8
View
10
81.204447
20
88.666668
70
0
0
VERTEX
8
View
10
82.016945
20
88.448960
70
0
0
SEQEND
8
View
0
POLYLINE
8
View
62
7
70
0
10
0.000000
20
0.000000
66
1
0
VERTEX
8
View
10
85.017025
20
91.698932
70
0
0
VERTEX
8
View
10
82.016923
20
91.698932
70
0
0
SEQEND
8
View
0
POLYLINE
8
View
62
7
70
0
10
0.000000
20
0.000000
66
1
0
VERTEX
8
View
10
89.996925
20
201.298676
70
0
0
VERTEX
8
View
10
89.841119
20
202.069147
70
0
0
VERTEX
8
View
10
89.416742
20
202.698276
70
0
0
VERTEX
8
View
10
88.787458
20
203.122422
70
0
0
VERTEX
8
View
10
88.016930
20
203.277947
70
0
0
VERTEX
8
View
10
87.246402
20
203.122422
70
0
0
VERTEX
8
View
10
86.617118
20
202.698276
70
0
0
VERTEX
8
View
10
86.192741
20
202.069147
70
0
0
VERTEX
8
View
10
86.036935
20
201.298676
70
0
0
VERTEX
8
View
10
86.192741
20
200.528205
70
0
0
VERTEX
8
View
10
86.617118
20
199.899075
70
0
0
VERTEX
8
View
10
87.246402
20
199.474929
70
0
0
VERTEX
8
View
10
88.016930
20
199.319404
70
0
0
VERTEX
8
View
10
88.787458
20
199.474929
70
0
0
VERTEX
8
View
10
89.416742
20
199.899075
70
0
0
VERTEX
8
View
10
89.841119
20
200.528205
70
0
0
VERTEX
8
View
10
89.996925
20
201.298676
70
0
0
VERTEX
8
View
10
89.996925
20
201.298676
70
0
0
SEQEND
8
View
0
POLYLINE
8
View
62
7
70
0
10
0.000000
20
0.000000
66
1
0
VERTEX
8
View
10
101.230229
20
201.298676
70
0
0
VERTEX
8
View
10
100.964961
20
202.288673
70
0
0
VERTEX
8
View
10
100.240232
20
203.013401
70
0
0
VERTEX
8
View
10
99.250235
20
203.278671
70
0
0
VERTEX
8
View
10
98.260237
20
203.013401
70
0
0
VERTEX
8
View
10
97.535508
20
202.288673
70
0
0
VERTEX
8
View
10
97.270239
20
201.298676
70
0
0
VERTEX
8
View
10
97.535508
20
200.308678
70
0
0
VERTEX
8
View
10
98.260237
20
199.583950
70
0
0
VERTEX
8
View
10
99.250235
20
199.318681
70
0
0
VERTEX
8
View
10
100.240232
20
199.583950
70
0
0
VERTEX
8
View
10
100.964961
20
200.308678
70
0
0
VERTEX
8
View
10
101.230229
20
201.298676
70
0
0
VERTEX
8
View
10
101.230229
20
201.298676
70
0
0
SEQEND
8
View
0
POLYLINE
8
View
62
7
70
0
10
0.000000
20
0.000000
66
1
0
VERTEX
8
View
10
112.463535
20
201.298676
70
0
0
VERTEX
8
View
10
112.307730
20
202.069147
70
0
0
VERTEX
8
View
10
111.883352
20
202.698276
70
0
0
VERTEX
8
View
10
111.254068
20
203.122422
70
0
0
VERTEX
8
View
10
110.483540
20
203.277947
70
0
0
VERTEX
8
View
10
109.713013
20
203.122422
70
0
0
VERTEX
8
View
10
109.083729
20
202.698276
70
0
0
VERTEX
8
View
10
108.659351
20
202.069147
70
0
0
VERTEX
8
View
10
108.503545
20
201.298676
70
0
0
VERTEX
8
View
10
108.659351
20
200.528205
70
0
0
VERTEX
8
View
10
109.083729
20
199.899075
70
0
0
VERTEX
8
View
10
109.713013
20
199.474929
70
0
0
VERTEX
8
View
10
110.483540
20
199.319404
70
0
0
VERTEX
8
View
10
111.254068
20
199.474929
70
0
0
VERTEX
8
View
10
111.883352
20
199.899075
70
0
0
VERTEX
8
View
10
112.307730
20
200.528205
70
0
0
VERTEX
8
View
10
112.463535
20
201.298676
70
0
0
VERTEX
8
View
10
112.463535
20
201.298676
70
0
0
SEQEND
8
View
0
POLYLINE
8
View
62
7
70
0
10
0.000000
20
0.000000
66
1
0
VERTEX
8
View
10
123.696840
20
201.298676
70
0
0
VERTEX
8
View
10
123.431572
20
202.288673
70
0
0
VERTEX
8
View
10
122.706842
20
203.013401
70
0
0
VERTEX
8
View
10
121.716845
20
203.278671
70
0
0
VERTEX
8
View
10
120.726847
20
203.013401
70
0
0
VERTEX
8
View
10
120.002119
20
202.288673
70
0
0
VERTEX
8
View
10
119.736850
20
201.298676
70
0
0
VERTEX
8
View
10
120.002119
20
200.308678
70
0
0
VERTEX
8
View
10
120.726847
20
199.583950
70
0
0
VERTEX
8
View
10
121.716845
20
199.318681
70
0
0
VERTEX
8
View
10
122.706842
20
199.583950
70
0
0
VERTEX
8
View
10
123.431572
20
200.308678
70
0
0
VERTEX
8
View
10
123.696840
20
201.298676
70
0
0
VERTEX
8
View
10
123.696840
20
201.298676
70
0
0
SEQEND
8
View
0
POLYLINE
8
View
62
7
70
0
10
0.000000
20
0.000000
66
1
0
VERTEX
8
View
10
92.716918
20
192.948696
70
0
0
VERTEX
8
View
10
92.502559
20
193.748694
70
0
0
VERTEX
8
View
10
91.916920
20
194.334333
70
0
0
VERTEX
8
View
10
91.116922
20
194.548692
70
0
0
VERTEX
8
View
10
90.316924
20
194.334333
70
0
0
VERTEX
8
View
10
89.731285
20
193.748694
70
0
0
VERTEX
8
View
10
89.516926
20
192.948696
70
0
0
VERTEX
8
View
10
89.731285
20
192.148698
70
0
0
VERTEX
8
View
10
90.316924
20
191.563060
70
0
0
VERTEX
8
View
10
91.116922
20
191.348700
70
0
0
VERTEX
8
View
10
91.916920
20
191.563060
70
0
0
VERTEX
8
View
10
92.502559
20
192.148698
70
0
0
VERTEX
8
View
10
92.716918
20
192.948696
70
0
0
VERTEX
8
View
10
92.716918
20
192.948696
70
0
0
SEQEND
8
View
0
POLYLINE
8
View
62
7
70
0
10
0.000000
20
0.000000
66
1
0
VERTEX
8
View
10
120.316848
20
192.848697
70
0
0
VERTEX
8
View
10
120.102490
20
193.648695
70
0
0
VERTEX
8
View
10
119.516850
20
194.234335
70
0
0
VERTEX
8
View
10
118.716852
20
194.448693
70
0
0
VERTEX
8
View
10
117.916855
20
194.234335
70
0
0
VERTEX
8
View
10
117.331215
20
193.648695
70
0
0
VERTEX
8
View
10
117.116856
20
192.848697
70
0
0
VERTEX
8
View
10
117.331215
20
192.048699
70
0
0
VERTEX
8
View
10
117.916855
20
191.463060
70
0
0
VERTEX
8
View
10
118.716852
20
191.248701
70
0
0
VERTEX
8
View
10
119.516850
20
191.463060
70
0
0
VERTEX
8
View
10
120.102490
20
192.048699
70
0
0
VERTEX
8
View
10
120.316848
20
192.848697
70
0
0
VERTEX
8
View
10
120.316848
20
192.848697
70
0
0
SEQEND
8
View
0
POLYLINE
8
View
62
7
70
0
10
0.000000
20
0.000000
66
1
0
VERTEX
8
View
10
89.516926
20
185.486215
70
0
0
VERTEX
8
View
10
89.369554
20
186.036214
70
0
0
VERTEX
8
View
10
88.966928
20
186.438841
70
0
0
VERTEX
8
View
10
88.416929
20
186.586212
70
0
0
VERTEX
8
View
10
87.866930
20
186.438841
70
0
0
VERTEX
8
View
10
87.464304
20
186.036214
70
0
0
VERTEX
8
View
10
87.316932
20
185.486215
70
0
0
VERTEX
8
View
10
87.464304
20
184.936217
70
0
0
VERTEX
8
View
10
87.866930
20
184.533590
70
0
0
VERTEX
8
View
10
88.416929
20
184.386218
70
0
0
VERTEX
8
View
10
88.966928
20
184.533590
70
0
0
VERTEX
8
View
10
89.369554
20
184.936217
70
0
0
VERTEX
8
View
10
89.516926
20
185.486215
70
0
0
VERTEX
8
View
10
89.516926
20
185.486215
70
0
0
SEQEND
8
View
0
POLYLINE
8
View
62
7
70
0
10
0.000000
20
0.000000
66
1
0
VERTEX
8
View
10
122.516843
20
185.398716
70
0
0
VERTEX
8
View
10
122.369471
20
185.948714
70
0
0
VERTEX
8
View
10
121.966844
20
186.351342
70
0
0
VERTEX
8
View
10
121.416846
20
186.498712
70
0
0
VERTEX
8
View
10
120.866847
20
186.351342
70
0
0
VERTEX
8
View
10
120.464220
20
185.948714
70
0
0
VERTEX
8
View
10
120.316848
20
185.398716
70
0
0
VERTEX
8
View
10
120.464220
20
184.848717
70
0
0
VERTEX
8
View
10
120.866847
20
184.446090
70
0
0
VERTEX
8
View
10
121.416846
20
184.298718
70
0
0
VERTEX
8
View
10
121.966844
20
184.446090
70
0
0
VERTEX
8
View
10
122.369471
20
184.848717
70
0
0
VERTEX
8
View
10
122.516843
20
185.398716
70
0
0
VERTEX
8
View
10
122.516843
20
185.398716
70
0
0
SEQEND
8
View
0
POLYLINE
8
View
62
7
70
0
10
0.000000
20
0.000000
66
1
0
VERTEX
8
View
10
100.516898
20
185.398716
70
0
0
VERTEX
8
View
10
100.369527
20
185.948714
70
0
0
VERTEX
8
View
10
99.966900
20
186.351342
70
0
0
VERTEX
8
View
10
99.416901
20
186.498712
70
0
0
VERTEX
8
View
10
98.866902
20
186.351342
70
0
0
VERTEX
8
View
10
98.464276
20
185.948714
70
0
0
VERTEX
8
View
10
98.316904
20
185.398716
70
0
0
VERTEX
8
View
10
98.464276
20
184.848717
70
0
0
VERTEX
8
View
10
98.866902
20
184.446090
70
0
0
VERTEX
8
View
10
99.416901
20
184.298718
70
0
0
VERTEX
8
View
10
99.966900
20
184.446090
70
0
0
VERTEX
8
View
10
100.369527
20
184.848717
70
0
0
VERTEX
8
View
10
100.516898
20
185.398716
70
0
0
VERTEX
8
View
10
100.516898
20
185.398716
70
0
0
SEQEND
8
View
0
POLYLINE
8
View
62
7
70
0
10
0.000000
20
0.000000
66
1
0
VERTEX
8
View
10
111.516870
20
185.398716
70
0
0
VERTEX
8
View
10
111.369499
20
185.948714
70
0
0
VERTEX
8
View
10
110.966872
20
186.351342
70
0
0
VERTEX
8
View
10
110.416874
20
186.498712
70
0
0
VERTEX
8
View
10
109.866874
20
186.351342
70
0
0
VERTEX
8
View
10
109.464248
20
185.948714
70
0
0
VERTEX
8
View
10
109.316876
20
185.398716
70
0
0
VERTEX
8
View
10
109.464248
20
184.848717
70
0
0
VERTEX
8
View
10
109.866874
20
184.446090
70
0
0
VERTEX
8
View
10
110.416874
20
184.298718
70
0
0
VERTEX
8
View
10
110.966872
20
184.446090
70
0
0
VERTEX
8
View
10
111.369499
20
184.848717
70
0
0
VERTEX
8
View
10
111.516870
20
185.398716
70
0
0
VERTEX
8
View
10
111.516870
20
185.398716
70
0
0
SEQEND
8
View
0
POLYLINE
8
UI
62
7
70
0
10
0.000000
20
0.000000
66
1
0
VERTEX
8
UI
10
85.524574
20
165.087748
70
0
0
VERTEX
8
UI
10
86.271336
20
165.087748
70
0
0
VERTEX
8
UI
10
86.271336
20
164.884948
70
0
0
VERTEX
8
UI
10
85.524574
20
164.884948
70
0
0
VERTEX
8
UI
10
85.524574
20
165.087748
70
0
0
SEQEND
8
UI
0
POLYLINE
8
UI
62
7
70
0
10
0.000000
20
0.000000
66
1
0
VERTEX
8
UI
10
84.834144
20
164.986344
70
0
0
VERTEX
8
UI
10
84.661890
20
164.273896
70
0
0
VERTEX
8
UI
10
84.156148
20
164.028606
70
0
0
VERTEX
8
UI
10
83.653162
20
164.272520
70
0
0
VERTEX
8
UI
10
83.485043
20
164.986344
70
0
0
VERTEX
8
UI
10
83.649029
20
165.705682
70
0
0
VERTEX
8
UI
10
84.164416
20
165.944081
70
0
0
VERTEX
8
UI
10
84.670158
20
165.702925
70
0
0
VERTEX
8
UI
10
84.834144
20
164.986344
70
0
0
VERTEX
8
UI
10
84.834144
20
164.986344
70
0
0
SEQEND
8
UI
0
POLYLINE
8
UI
62
7
70
0
10
0.000000
20
0.000000
66
1
0
VERTEX
8
UI
10
84.581962
20
164.986344
70
0
0
VERTEX
8
UI
10
84.484122
20
165.563743
70
0
0
VERTEX
8
UI
10
84.164416
20
165.742890
70
0
0
VERTEX
8
UI
10
83.835066
20
165.566500
70
0
0
VERTEX
8
UI
10
83.735847
20
164.986344
70
0
0
VERTEX
8
UI
10
83.836441
20
164.411701
70
0
0
VERTEX
8
UI
10
84.158905
20
164.231179
70
0
0
VERTEX
8
UI
10
84.479987
20
164.417213
70
0
0
VERTEX
8
UI
10
84.581962
20
164.986344
70
0
0
VERTEX
8
UI
10
84.581962
20
164.986344
70
0
0
SEQEND
8
UI
0
POLYLINE
8
UI
62
7
70
0
10
0.000000
20
0.000000
66
1
0
VERTEX
8
UI
10
83.997673
20
164.820980
70
0
0
VERTEX
8
UI
10
83.997673
20
165.164112
70
0
0
VERTEX
8
UI
10
84.321512
20
165.164112
70
0
0
VERTEX
8
UI
10
84.321512
20
164.820980
70
0
0
VERTEX
8
UI
10
83.997673
20
164.820980
70
0
0
SEQEND
8
UI
0
POLYLINE
8
UI
62
7
70
0
10
0.000000
20
0.000000
66
1
0
VERTEX
8
UI
10
85.470144
20
183.149501
70
0
0
VERTEX
8
UI
10
86.216906
20
183.149501
70
0
0
VERTEX
8
UI
10
86.216906
20
182.946701
70
0
0
VERTEX
8
UI
10
85.470144
20
182.946701
70
0
0
VERTEX
8
UI
10
85.470144
20
183.149501
70
0
0
SEQEND
8
UI
0
POLYLINE
8
UI
62
7
70
0
10
0.000000
20
0.000000
66
1
0
VERTEX
8
UI
10
81.367252
20
182.808372
70
0
0
VERTEX
8
UI
10
81.367252
20
182.218569
70
0
0
VERTEX
8
UI
10
81.164682
20
182.218569
70
0
0
VERTEX
8
UI
10
81.164682
20
182.808372
70
0
0
VERTEX
8
UI
10
80.580390
20
182.808372
70
0
0
VERTEX
8
UI
10
80.580390
20
183.009566
70
0
0
VERTEX
8
UI
10
81.164682
20
183.009566
70
0
0
VERTEX
8
UI
10
81.164682
20
183.599366
70
0
0
VERTEX
8
UI
10
81.367252
20
183.599366
70
0
0
VERTEX
8
UI
10
81.367252
20
183.009566
70
0
0
VERTEX
8
UI
10
81.951542
20
183.009566
70
0
0
VERTEX
8
UI
10
81.951542
20
182.808372
70
0
0
VERTEX
8
UI
10
81.367252
20
182.808372
70
0
0
SEQEND
8
UI
0
POLYLINE
8
UI
62
7
70
0
10
0.000000
20
0.000000
66
1
0
VERTEX
8
UI
10
82.312589
20
181.970522
70
0
0
VERTEX
8
UI
10
82.312589
20
182.131754
70
0
0
VERTEX
8
UI
10
82.522051
20
182.433545
70
0
0
VERTEX
8
UI
10
82.910658
20
182.782189
70
0
0
VERTEX
8
UI
10
83.226231
20
183.086734
70
0
0
VERTEX
8
UI
10
83.322693
20
183.336162
70
0
0
VERTEX
8
UI
10
83.227609
20
183.571805
70
0
0
VERTEX
8
UI
10
82.956134
20
183.654487
70
0
0
VERTEX
8
UI
10
82.701198
20
183.567672
70
0
0
VERTEX
8
UI
10
82.586819
20
183.326515
70
0
0
VERTEX
8
UI
10
82.333261
20
183.349931
70
0
0
VERTEX
8
UI
10
82.524808
20
183.720622
70
0
0
VERTEX
8
UI
10
82.956134
20
183.858428
70
0
0
VERTEX
8
UI
10
83.413643
20
183.726136
70
0
0
VERTEX
8
UI
10
83.577632
20
183.351309
70
0
0
VERTEX
8
UI
10
83.472899
20
183.034360
70
0
0
VERTEX
8
UI
10
83.160085
20
182.711897
70
0
0
VERTEX
8
UI
10
82.765965
20
182.378411
70
0
0
VERTEX
8
UI
10
82.611623
20
182.171706
70
0
0
VERTEX
8
UI
10
83.607948
20
182.171706
70
0
0
VERTEX
8
UI
10
83.607948
20
181.970511
70
0
0
VERTEX
8
UI
10
82.312589
20
181.970522
70
0
0
SEQEND
8
UI
0
POLYLINE
8
UI
62
7
70
0
10
0.000000
20
0.000000
66
1
0
VERTEX
8
UI
10
85.098987
20
182.410116
70
0
0
VERTEX
8
UI
10
85.098987
20
181.970522
70
0
0
VERTEX
8
UI
10
84.850940
20
181.970522
70
0
0
VERTEX
8
UI
10
84.850940
20
182.410116
70
0
0
VERTEX
8
UI
10
83.949701
20
182.410116
70
0
0
VERTEX
8
UI
10
83.949701
20
182.603042
70
0
0
VERTEX
8
UI
10
84.824757
20
183.829498
70
0
0
VERTEX
8
UI
10
85.098987
20
183.829498
70
0
0
VERTEX
8
UI
10
85.098987
20
182.605799
70
0
0
VERTEX
8
UI
10
85.358058
20
182.605799
70
0
0
VERTEX
8
UI
10
85.358058
20
182.410116
70
0
0
VERTEX
8
UI
10
85.098987
20
182.410116
70
0
0
SEQEND
8
UI
0
POLYLINE
8
UI
62
7
70
0
10
0.000000
20
0.000000
66
1
0
VERTEX
8
UI
10
84.850940
20
183.560782
70
0
0
VERTEX
8
UI
10
84.161921
20
182.605799
70
0
0
VERTEX
8
UI
10
84.850940
20
182.605799
70
0
0
VERTEX
8
UI
10
84.850940
20
183.560782
70
0
0
SEQEND
8
UI
0
POLYLINE
8
UI
62
7
70
0
10
0.000000
20
0.000000
66
1
0
VERTEX
8
UI
10
85.524574
20
147.173222
70
0
0
VERTEX
8
UI
10
86.271336
20
147.173222
70
0
0
VERTEX
8
UI
10
86.271336
20
146.970422
70
0
0
VERTEX
8
UI
10
85.524574
20
146.970422
70
0
0
VERTEX
8
UI
10
85.524574
20
147.173222
70
0
0
SEQEND
8
UI
0
POLYLINE
8
UI
62
7
70
0
10
0.000000
20
0.000000
66
1
0
VERTEX
8
UI
10
80.683975
20
146.753657
70
0
0
VERTEX
8
UI
10
80.683975
20
146.974142
70
0
0
VERTEX
8
UI
10
81.455676
20
146.974142
70
0
0
VERTEX
8
UI
10
81.455676
20
146.753657
70
0
0
VERTEX
8
UI
10
80.683975
20
146.753657
70
0
0
SEQEND
8
UI
0
POLYLINE
8
UI
62
7
70
0
10
0.000000
20
0.000000
66
1
0
VERTEX
8
UI
10
82.115758
20
146.114244
70
0
0
VERTEX
8
UI
10
82.115758
20
146.275476
70
0
0
VERTEX
8
UI
10
82.325220
20
146.577267
70
0
0
VERTEX
8
UI
10
82.713829
20
146.925911
70
0
0
VERTEX
8
UI
10
83.029400
20
147.230459
70
0
0
VERTEX
8
UI
10
83.125861
20
147.479884
70
0
0
VERTEX
8
UI
10
83.030778
20
147.715527
70
0
0
VERTEX
8
UI
10
82.759303
20
147.798212
70
0
0
VERTEX
8
UI
10
82.504367
20
147.711394
70
0
0
VERTEX
8
UI
10
82.389990
20
147.470238
70
0
0
VERTEX
8
UI
10
82.136430
20
147.493653
70
0
0
VERTEX
8
UI
10
82.327977
20
147.864347
70
0
0
VERTEX
8
UI
10
82.759303
20
148.002150
70
0
0
VERTEX
8
UI
10
83.216814
20
147.869858
70
0
0
VERTEX
8
UI
10
83.380800
20
147.495032
70
0
0
VERTEX
8
UI
10
83.276068
20
147.178082
70
0
0
VERTEX
8
UI
10
82.963254
20
146.855619
70
0
0
VERTEX
8
UI
10
82.569134
20
146.522133
70
0
0
VERTEX
8
UI
10
82.414795
20
146.315428
70
0
0
VERTEX
8
UI
10
83.411116
20
146.315428
70
0
0
VERTEX
8
UI
10
83.411116
20
146.114234
70
0
0
VERTEX
8
UI
10
82.115758
20
146.114244
70
0
0
SEQEND
8
UI
0
POLYLINE
8
UI
62
7
70
0
10
0.000000
20
0.000000
66
1
0
VERTEX
8
UI
10
84.902158
20
146.553841
70
0
0
VERTEX
8
UI
10
84.902158
20
146.114244
70
0
0
VERTEX
8
UI
10
84.654109
20
146.114244
70
0
0
VERTEX
8
UI
10
84.654109
20
146.553841
70
0
0
VERTEX
8
UI
10
83.752870
20
146.553841
70
0
0
VERTEX
8
UI
10
83.752870
20
146.746764
70
0
0
VERTEX
8
UI
10
84.627928
20
147.973223
70
0
0
VERTEX
8
UI
10
84.902158
20
147.973223
70
0
0
VERTEX
8
UI
10
84.902158
20
146.749521
70
0
0
VERTEX
8
UI
10
85.161230
20
146.749521
70
0
0
VERTEX
8
UI
10
85.161230
20
146.553841
70
0
0
VERTEX
8
UI
10
84.902158
20
146.553841
70
0
0
SEQEND
8
UI
0
POLYLINE
8
UI
62
7
70
0
10
0.000000
20
0.000000
66
1
0
VERTEX
8
UI
10
84.654109
20
147.704505
70
0
0
VERTEX
8
UI
10
83.965090
20
146.749521
70
0
0
VERTEX
8
UI
10
84.654109
20
146.749521
70
0
0
VERTEX
8
UI
10
84.654109
20
147.704505
70
0
0
SEQEND
8
UI
0
POLYLINE
8
Text
62
7
70
0
10
0.000000
20
0.000000
66
1
0
VERTEX
8
Text
10
91.491516
20
88.911236
70
0
0
VERTEX
8
Text
10
91.253804
20
89.569246
70
0
0
VERTEX
8
Text
10
90.284014
20
89.569246
70
0
0
VERTEX
8
Text
10
90.048025
20
88.911236
70
0
0
VERTEX
8
Text
10
89.710409
20
88.911236
70
0
0
VERTEX
8
Text
10
90.588904
20
91.234944
70
0
0
VERTEX
8
Text
10
90.962696
20
91.234944
70
0
0
VERTEX
8
Text
10
91.825689
20
88.911236
70
0
0
VERTEX
8
Text
10
91.491516
20
88.911236
70
0
0
SEQEND
8
Text
0
POLYLINE
8
Text
62
7
70
0
10
0.000000
20
0.000000
66
1
0
VERTEX
8
Text
10
90.771493
20
90.986897
70
0
0
VERTEX
8
Text
10
90.750829
20
90.919720
70
0
0
VERTEX
8
Text
10
90.631973
20
90.554540
70
0
0
VERTEX
8
Text
10
90.371869
20
89.825904
70
0
0
VERTEX
8
Text
10
91.169404
20
89.825904
70
0
0
VERTEX
8
Text
10
90.871404
20
90.687175
70
0
0
VERTEX
8
Text
10
90.771493
20
90.986897
70
0
0
SEQEND
8
Text
0
POLYLINE
8
Text
62
7
70
0
10
0.000000
20
0.000000
66
1
0
VERTEX
8
Text
10
93.898456
20
88.911236
70
0
0
VERTEX
8
Text
10
93.540168
20
88.911236
70
0
0
VERTEX
8
Text
10
93.345523
20
89.634704
70
0
0
VERTEX
8
Text
10
93.205995
20
90.213476
70
0
0
VERTEX
8
Text
10
93.112978
20
89.824182
70
0
0
VERTEX
8
Text
10
92.866654
20
88.911236
70
0
0
VERTEX
8
Text
10
92.508366
20
88.911236
70
0
0
VERTEX
8
Text
10
92.144911
20
91.234944
70
0
0
VERTEX
8
Text
10
92.470470
20
91.234944
70
0
0
VERTEX
8
Text
10
92.658229
20
89.796623
70
0
0
VERTEX
8
Text
10
92.715072
20
89.200623
70
0
0
VERTEX
8
Text
10
92.806366
20
89.593362
70
0
0
VERTEX
8
Text
10
93.054413
20
90.514921
70
0
0
VERTEX
8
Text
10
93.355857
20
90.514921
70
0
0
VERTEX
8
Text
10
93.541891
20
89.829349
70
0
0
VERTEX
8
Text
10
93.695198
20
89.200623
70
0
0
VERTEX
8
Text
10
93.755486
20
89.796623
70
0
0
VERTEX
8
Text
10
93.934630
20
91.234944
70
0
0
VERTEX
8
Text
10
94.260191
20
91.234944
70
0
0
VERTEX
8
Text
10
93.898456
20
88.911236
70
0
0
SEQEND
8
Text
0
POLYLINE
8
Text
62
7
70
0
10
0.000000
20
0.000000
66
1
0
VERTEX
8
Text
10
96.360520
20
88.911236
70
0
0
VERTEX
8
Text
10
96.122811
20
89.569246
70
0
0
VERTEX
8
Text
10
95.153019
20
89.569246
70
0
0
VERTEX
8
Text
10
94.917032
20
88.911236
70
0
0
VERTEX
8
Text
10
94.579413
20
88.911236
70
0
0
VERTEX
8
Text
10
95.457908
20
91.234944
70
0
0
VERTEX
8
Text
10
95.831701
20
91.234944
70
0
0
VERTEX
8
Text
10
96.694694
20
88.911236
70
0
0
VERTEX
8
Text
10
96.360520
20
88.911236
70
0
0
SEQEND
8
Text
0
POLYLINE
8
Text
62
7
70
0
10
0.000000
20
0.000000
66
1
0
VERTEX
8
Text
10
95.640497
20
90.986897
70
0
0
VERTEX
8
Text
10
95.619833
20
90.919720
70
0
0
VERTEX
8
Text
10
95.500977
20
90.554540
70
0
0
VERTEX
8
Text
10
95.240874
20
89.825904
70
0
0
VERTEX
8
Text
10
96.038411
20
89.825904
70
0
0
VERTEX
8
Text
10
95.740412
20
90.687175
70
0
0
VERTEX
8
Text
10
95.640497
20
90.986897
70
0
0
SEQEND
8
Text
0
POLYLINE
8
Text
62
7
70
0
10
0.000000
20
0.000000
66
1
0
VERTEX
8
Text
10
98.662387
20
88.911236
70
0
0
VERTEX
8
Text
10
98.031938
20
89.901697
70
0
0
VERTEX
8
Text
10
97.621972
20
89.901697
70
0
0
VERTEX
8
Text
10
97.621972
20
88.911236
70
0
0
VERTEX
8
Text
10
97.292969
20
88.911236
70
0
0
VERTEX
8
Text
10
97.292969
20
91.234944
70
0
0
VERTEX
8
Text
10
98.123233
20
91.234944
70
0
0
VERTEX
8
Text
10
98.734734
20
91.067857
70
0
0
VERTEX
8
Text
10
98.944885
20
90.592436
70
0
0
VERTEX
8
Text
10
98.782965
20
90.160078
70
0
0
VERTEX
8
Text
10
98.352330
20
89.939593
70
0
0
VERTEX
8
Text
10
99.041346
20
88.911236
70
0
0
VERTEX
8
Text
10
98.662387
20
88.911236
70
0
0
SEQEND
8
Text
0
POLYLINE
8
Text
62
7
70
0
10
0.000000
20
0.000000
66
1
0
VERTEX
8
Text
10
98.614156
20
90.587269
70
0
0
VERTEX
8
Text
10
98.483243
20
90.875364
70
0
0
VERTEX
8
Text
10
98.090504
20
90.971395
70
0
0
VERTEX
8
Text
10
97.621972
20
90.971395
70
0
0
VERTEX
8
Text
10
97.621972
20
90.161801
70
0
0
VERTEX
8
Text
10
98.104283
20
90.161801
70
0
0
VERTEX
8
Text
10
98.481521
20
90.272044
70
0
0
VERTEX
8
Text
10
98.614156
20
90.587269
70
0
0
VERTEX
8
Text
10
98.614156
20
90.587269
70
0
0
SEQEND
8
Text
0
POLYLINE
8
Text
62
7
70
0
10
0.000000
20
0.000000
66
1
0
VERTEX
8
Text
10
99.727471
20
88.911236
70
0
0
VERTEX
8
Text
10
99.727471
20
91.234944
70
0
0
VERTEX
8
Text
10
101.310484
20
91.234944
70
0
0
VERTEX
8
Text
10
101.310484
20
90.966228
70
0
0
VERTEX
8
Text
10
100.056475
20
90.966228
70
0
0
VERTEX
8
Text
10
100.056475
20
90.239315
70
0
0
VERTEX
8
Text
10
101.207133
20
90.239315
70
0
0
VERTEX
8
Text
10
101.207133
20
89.974045
70
0
0
VERTEX
8
Text
10
100.056475
20
89.974045
70
0
0
VERTEX
8
Text
10
100.056475
20
89.179952
70
0
0
VERTEX
8
Text
10
101.381109
20
89.179952
70
0
0
VERTEX
8
Text
10
101.381109
20
88.911236
70
0
0
VERTEX
8
Text
10
99.727471
20
88.911236
70
0
0
SEQEND
8
Text
0
POLYLINE
8
Text
62
7
70
0
10
0.000000
20
0.000000
66
1
0
VERTEX
8
Text
10
105.931445
20
88.911236
70
0
0
VERTEX
8
Text
10
105.931445
20
90.406402
70
0
0
VERTEX
8
Text
10
105.936604
20
90.752633
70
0
0
VERTEX
8
Text
10
105.941764
20
90.924887
70
0
0
VERTEX
8
Text
10
105.778124
20
90.423627
70
0
0
VERTEX
8
Text
10
105.495626
20
89.669155
70
0
0
VERTEX
8
Text
10
105.259640
20
89.669155
70
0
0
VERTEX
8
Text
10
104.973697
20
90.423627
70
0
0
VERTEX
8
Text
10
104.808332
20
90.924887
70
0
0
VERTEX
8
Text
10
104.815212
20
90.406402
70
0
0
VERTEX
8
Text
10
104.815212
20
88.911236
70
0
0
VERTEX
8
Text
10
104.539606
20
88.911236
70
0
0
VERTEX
8
Text
10
104.539606
20
91.234944
70
0
0
VERTEX
8
Text
10
104.947847
20
91.234944
70
0
0
VERTEX
8
Text
10
105.266519
20
90.392620
70
0
0
VERTEX
8
Text
10
105.383650
20
89.994714
70
0
0
VERTEX
8
Text
10
105.428436
20
90.149743
70
0
0
VERTEX
8
Text
10
105.504228
20
90.390898
70
0
0
VERTEX
8
Text
10
105.822900
20
91.234944
70
0
0
VERTEX
8
Text
10
106.210472
20
91.234944
70
0
0
VERTEX
8
Text
10
106.210472
20
88.911236
70
0
0
VERTEX
8
Text
10
105.931445
20
88.911236
70
0
0
SEQEND
8
Text
0
POLYLINE
8
Text
62
7
70
0
10
0.000000
20
0.000000
66
1
0
VERTEX
8
Text
10
108.691509
20
90.084286
70
0
0
VERTEX
8
Text
10
108.462412
20
89.190286
70
0
0
VERTEX
8
Text
10
108.185081
20
88.955160
70
0
0
VERTEX
8
Text
10
107.807844
20
88.876784
70
0
0
VERTEX
8
Text
10
107.429746
20
88.953868
70
0
0
VERTEX
8
Text
10
107.153279
20
89.185119
70
0
0
VERTEX
8
Text
10
106.927626
20
90.084286
70
0
0
VERTEX
8
Text
10
107.151556
20
90.967951
70
0
0
VERTEX
8
Text
10
107.428454
20
91.195326
70
0
0
VERTEX
8
Text
10
107.811289
20
91.271118
70
0
0
VERTEX
8
Text
10
108.187234
20
91.196187
70
0
0
VERTEX
8
Text
10
108.464134
20
90.971395
70
0
0
VERTEX
8
Text
10
108.691509
20
90.084286
70
0
0
VERTEX
8
Text
10
108.691509
20
90.084286
70
0
0
SEQEND
8
Text
0
POLYLINE
8
Text
62
7
70
0
10
0.000000
20
0.000000
66
1
0
VERTEX
8
Text
10
108.345278
20
90.084286
70
0
0
VERTEX
8
Text
10
108.211781
20
90.772873
70
0
0
VERTEX
8
Text
10
107.811289
20
91.002402
70
0
0
VERTEX
8
Text
10
107.408215
20
90.772873
70
0
0
VERTEX
8
Text
10
107.273857
20
90.084286
70
0
0
VERTEX
8
Text
10
107.409937
20
89.381490
70
0
0
VERTEX
8
Text
10
107.809566
20
89.143778
70
0
0
VERTEX
8
Text
10
108.217810
20
89.384935
70
0
0
VERTEX
8
Text
10
108.345278
20
90.084286
70
0
0
VERTEX
8
Text
10
108.345278
20
90.084286
70
0
0
SEQEND
8
Text
0
POLYLINE
8
Text
62
7
70
0
10
0.000000
20
0.000000
66
1
0
VERTEX
8
Text
10
111.124289
20
90.096351
70
0
0
VERTEX
8
Text
10
111.057971
20
89.591647
70
0
0
VERTEX
8
Text
10
110.859018
20
89.217856
70
0
0
VERTEX
8
Text
10
110.538193
20
88.987897
70
0
0
VERTEX
8
Text
10
110.102821
20
88.911244
70
0
0
VERTEX
8
Text
10
109.465480
20
88.911244
70
0
0
VERTEX
8
Text
10
109.465480
20
91.234952
70
0
0
VERTEX
8
Text
10
110.001192
20
91.234952
70
0
0
VERTEX
8
Text
10
110.495561
20
91.163897
70
0
0
VERTEX
8
Text
10
110.845235
20
90.950731
70
0
0
VERTEX
8
Text
10
111.054525
20
90.595889
70
0
0
VERTEX
8
Text
10
111.124289
20
90.096351
70
0
0
VERTEX
8
Text
10
111.124289
20
90.096351
70
0
0
SEQEND
8
Text
0
POLYLINE
8
Text
62
7
70
0
10
0.000000
20
0.000000
66
1
0
VERTEX
8
Text
10
110.793560
20
90.096351
70
0
0
VERTEX
8
Text
10
110.604081
20
90.757808
70
0
0
VERTEX
8
Text
10
110.002914
20
90.966236
70
0
0
VERTEX
8
Text
10
109.794486
20
90.966236
70
0
0
VERTEX
8
Text
10
109.794486
20
89.179959
70
0
0
VERTEX
8
Text
10
110.073537
20
89.179959
70
0
0
VERTEX
8
Text
10
110.616138
20
89.409059
70
0
0
VERTEX
8
Text
10
110.793560
20
90.096351
70
0
0
VERTEX
8
Text
10
110.793560
20
90.096351
70
0
0
SEQEND
8
Text
0
POLYLINE
8
Text
62
7
70
0
10
0.000000
20
0.000000
66
1
0
VERTEX
8
Text
10
113.489891
20
89.755290
70
0
0
VERTEX
8
Text
10
113.293520
20
89.085220
70
0
0
VERTEX
8
Text
10
112.663071
20
88.876792
70
0
0
VERTEX
8
Text
10
112.053290
20
89.078331
70
0
0
VERTEX
8
Text
10
111.865534
20
89.724283
70
0
0
VERTEX
8
Text
10
111.865534
20
91.234952
70
0
0
VERTEX
8
Text
10
112.194540
20
91.234952
70
0
0
VERTEX
8
Text
10
112.194540
20
89.769069
70
0
0
VERTEX
8
Text
10
112.294447
20
89.279869
70
0
0
VERTEX
8
Text
10
112.661349
20
89.143786
70
0
0
VERTEX
8
Text
10
113.050643
20
89.285036
70
0
0
VERTEX
8
Text
10
113.162607
20
89.791461
70
0
0
VERTEX
8
Text
10
113.162607
20
91.234952
70
0
0
VERTEX
8
Text
10
113.489891
20
91.234952
70
0
0
VERTEX
8
Text
10
113.489891
20
89.755290
70
0
0
SEQEND
8
Text
0
POLYLINE
8
Text
62
7
70
0
10
0.000000
20
0.000000
66
1
0
VERTEX
8
Text
10
114.463678
20
88.911244
70
0
0
VERTEX
8
Text
10
114.463678
20
91.234952
70
0
0
VERTEX
8
Text
10
114.792682
20
91.234952
70
0
0
VERTEX
8
Text
10
114.792682
20
89.179959
70
0
0
VERTEX
8
Text
10
115.950230
20
89.179959
70
0
0
VERTEX
8
Text
10
115.950230
20
88.911244
70
0
0
VERTEX
8
Text
10
114.463678
20
88.911244
70
0
0
SEQEND
8
Text
0
POLYLINE
8
Text
62
7
70
0
10
0.000000
20
0.000000
66
1
0
VERTEX
8
Text
10
118.271043
20
88.911244
70
0
0
VERTEX
8
Text
10
118.033334
20
89.569254
70
0
0
VERTEX
8
Text
10
117.063542
20
89.569254
70
0
0
VERTEX
8
Text
10
116.827555
20
88.911244
70
0
0
VERTEX
8
Text
10
116.489936
20
88.911244
70
0
0
VERTEX
8
Text
10
117.368434
20
91.234952
70
0
0
VERTEX
8
Text
10
117.742224
20
91.234952
70
0
0
VERTEX
8
Text
10
118.605217
20
88.911244
70
0
0
VERTEX
8
Text
10
118.271043
20
88.911244
70
0
0
SEQEND
8
Text
0
POLYLINE
8
Text
62
7
70
0
10
0.000000
20
0.000000
66
1
0
VERTEX
8
Text
10
117.551023
20
90.986905
70
0
0
VERTEX
8
Text
10
117.530359
20
90.919728
70
0
0
VERTEX
8
Text
10
117.411506
20
90.554548
70
0
0
VERTEX
8
Text
10
117.151399
20
89.825912
70
0
0
VERTEX
8
Text
10
117.948937
20
89.825912
70
0
0
VERTEX
8
Text
10
117.650937
20
90.687183
70
0
0
VERTEX
8
Text
10
117.551023
20
90.986905
70
0
0
SEQEND
8
Text
0
POLYLINE
8
Text
62
7
70
0
10
0.000000
20
0.000000
66
1
0
VERTEX
8
Text
10
120.572913
20
88.911244
70
0
0
VERTEX
8
Text
10
119.942462
20
89.901705
70
0
0
VERTEX
8
Text
10
119.532498
20
89.901705
70
0
0
VERTEX
8
Text
10
119.532498
20
88.911244
70
0
0
VERTEX
8
Text
10
119.203492
20
88.911244
70
0
0
VERTEX
8
Text
10
119.203492
20
91.234952
70
0
0
VERTEX
8
Text
10
120.033759
20
91.234952
70
0
0
VERTEX
8
Text
10
120.645260
20
91.067865
70
0
0
VERTEX
8
Text
10
120.855410
20
90.592444
70
0
0
VERTEX
8
Text
10
120.693491
20
90.160086
70
0
0
VERTEX
8
Text
10
120.262856
20
89.939601
70
0
0
VERTEX
8
Text
10
120.951872
20
88.911244
70
0
0
VERTEX
8
Text
10
120.572913
20
88.911244
70
0
0
SEQEND
8
Text
0
POLYLINE
8
Text
62
7
70
0
10
0.000000
20
0.000000
66
1
0
VERTEX
8
Text
10
120.524682
20
90.587276
70
0
0
VERTEX
8
Text
10
120.393769
20
90.875372
70
0
0
VERTEX
8
Text
10
120.001030
20
90.971403
70
0
0
VERTEX
8
Text
10
119.532498
20
90.971403
70
0
0
VERTEX
8
Text
10
119.532498
20
90.161808
70
0
0
VERTEX
8
Text
10
120.014809
20
90.161808
70
0
0
VERTEX
8
Text
10
120.392046
20
90.272052
70
0
0
VERTEX
8
Text
10
120.524682
20
90.587276
70
0
0
VERTEX
8
Text
10
120.524682
20
90.587276
70
0
0
SEQEND
8
Text
0
POLYLINE
8
Text
62
7
70
0
10
0.000000
20
0.000000
66
1
0
VERTEX
8
Text
10
86.036661
20
98.817096
70
0
0
VERTEX
8
Text
10
87.170788
20
98.817096
70
0
0
VERTEX
8
Text
10
87.170788
20
98.602120
70
0
0
VERTEX
8
Text
10
86.735327
20
98.602120
70
0
0
VERTEX
8
Text
10
86.735327
20
97.173091
70
0
0
VERTEX
8
Text
10
87.170788
20
97.173091
70
0
0
VERTEX
8
Text
10
87.170788
20
96.958118
70
0
0
VERTEX
8
Text
10
86.036661
20
96.958118
70
0
0
VERTEX
8
Text
10
86.036661
20
97.173091
70
0
0
VERTEX
8
Text
10
86.472122
20
97.173091
70
0
0
VERTEX
8
Text
10
86.472122
20
98.602120
70
0
0
VERTEX
8
Text
10
86.036661
20
98.602120
70
0
0
VERTEX
8
Text
10
86.036661
20
98.817096
70
0
0
SEQEND
8
Text
0
POLYLINE
8
Text
62
7
70
0
10
0.000000
20
0.000000
66
1
0
VERTEX
8
Text
10
88.648047
20
96.958118
70
0
0
VERTEX
8
Text
10
88.648047
20
97.915855
70
0
0
VERTEX
8
Text
10
88.575012
20
98.194220
70
0
0
VERTEX
8
Text
10
88.344878
20
98.285171
70
0
0
VERTEX
8
Text
10
88.063758
20
98.159769
70
0
0
VERTEX
8
Text
10
87.954893
20
97.822150
70
0
0
VERTEX
8
Text
10
87.954893
20
96.958118
70
0
0
VERTEX
8
Text
10
87.706846
20
96.958118
70
0
0
VERTEX
8
Text
10
87.706846
20
98.130831
70
0
0
VERTEX
8
Text
10
87.698591
20
98.449159
70
0
0
VERTEX
8
Text
10
87.932858
20
98.449159
70
0
0
VERTEX
8
Text
10
87.935610
20
98.411951
70
0
0
VERTEX
8
Text
10
87.938362
20
98.341670
70
0
0
VERTEX
8
Text
10
87.943865
20
98.194220
70
0
0
VERTEX
8
Text
10
87.947992
20
98.194220
70
0
0
VERTEX
8
Text
10
88.139541
20
98.406094
70
0
0
VERTEX
8
Text
10
88.424795
20
98.476718
70
0
0
VERTEX
8
Text
10
88.780328
20
98.347184
70
0
0
VERTEX
8
Text
10
88.897462
20
97.951685
70
0
0
VERTEX
8
Text
10
88.897462
20
96.958118
70
0
0
VERTEX
8
Text
10
88.648047
20
96.958118
70
0
0
SEQEND
8
Text
0
POLYLINE
8
Text
62
7
70
0
10
0.000000
20
0.000000
66
1
0
VERTEX
8
Text
10
89.472115
20
96.958118
70
0
0
VERTEX
8
Text
10
89.472115
20
98.817096
70
0
0
VERTEX
8
Text
10
89.735322
20
98.817096
70
0
0
VERTEX
8
Text
10
89.735322
20
97.173091
70
0
0
VERTEX
8
Text
10
90.661365
20
97.173091
70
0
0
VERTEX
8
Text
10
90.661365
20
96.958118
70
0
0
VERTEX
8
Text
10
89.472115
20
96.958118
70
0
0
SEQEND
8
Text
0
POLYLINE
8
Text
62
7
70
0
10
0.000000
20
0.000000
66
1
0
VERTEX
8
Text
10
97.048846
20
98.817096
70
0
0
VERTEX
8
Text
10
98.182973
20
98.817096
70
0
0
VERTEX
8
Text
10
98.182973
20
98.602120
70
0
0
VERTEX
8
Text
10
97.747512
20
98.602120
70
0
0
VERTEX
8
Text
10
97.747512
20
97.173091
70
0
0
VERTEX
8
Text
10
98.182973
20
97.173091
70
0
0
VERTEX
8
Text
10
98.182973
20
96.958118
70
0
0
VERTEX
8
Text
10
97.048846
20
96.958118
70
0
0
VERTEX
8
Text
10
97.048846
20
97.173091
70
0
0
VERTEX
8
Text
10
97.484307
20
97.173091
70
0
0
VERTEX
8
Text
10
97.484307
20
98.602120
70
0
0
VERTEX
8
Text
10
97.048846
20
98.602120
70
0
0
VERTEX
8
Text
10
97.048846
20
98.817096
70
0
0
SEQEND
8
Text
0
POLYLINE
8
Text
62
7
70
0
10
0.000000
20
0.000000
66
1
0
VERTEX
8
Text
10
99.660233
20
96.958118
70
0
0
VERTEX
8
Text
10
99.660233
20
97.915855
70
0
0
VERTEX
8
Text
10
99.587197
20
98.194220
70
0
0
VERTEX
8
Text
10
99.357063
20
98.285171
70
0
0
VERTEX
8
Text
10
99.075943
20
98.159769
70
0
0
VERTEX
8
Text
10
98.967078
20
97.822150
70
0
0
VERTEX
8
Text
10
98.967078
20
96.958118
70
0
0
VERTEX
8
Text
10
98.719031
20
96.958118
70
0
0
VERTEX
8
Text
10
98.719031
20
98.130831
70
0
0
VERTEX
8
Text
10
98.710776
20
98.449159
70
0
0
VERTEX
8
Text
10
98.945044
20
98.449159
70
0
0
VERTEX
8
Text
10
98.947795
20
98.411951
70
0
0
VERTEX
8
Text
10
98.950547
20
98.341670
70
0
0
VERTEX
8
Text
10
98.956050
20
98.194220
70
0
0
VERTEX
8
Text
10
98.960178
20
98.194220
70
0
0
VERTEX
8
Text
10
99.151726
20
98.406094
70
0
0
VERTEX
8
Text
10
99.436980
20
98.476718
70
0
0
VERTEX
8
Text
10
99.792513
20
98.347184
70
0
0
VERTEX
8
Text
10
99.909647
20
97.951685
70
0
0
VERTEX
8
Text
10
99.909647
20
96.958118
70
0
0
VERTEX
8
Text
10
99.660233
20
96.958118
70
0
0
SEQEND
8
Text
0
POLYLINE
8
Text
62
7
70
0
10
0.000000
20
0.000000
66
1
0
VERTEX
8
Text
10
101.476492
20
96.958118
70
0
0
VERTEX
8
Text
10
100.972128
20
97.750491
70
0
0
VERTEX
8
Text
10
100.644153
20
97.750491
70
0
0
VERTEX
8
Text
10
100.644153
20
96.958118
70
0
0
VERTEX
8
Text
10
100.380949
20
96.958118
70
0
0
VERTEX
8
Text
10
100.380949
20
98.817096
70
0
0
VERTEX
8
Text
10
101.045163
20
98.817096
70
0
0
VERTEX
8
Text
10
101.534369
20
98.683426
70
0
0
VERTEX
8
Text
10
101.702491
20
98.303086
70
0
0
VERTEX
8
Text
10
101.572953
20
97.957199
70
0
0
VERTEX
8
Text
10
101.228442
20
97.780809
70
0
0
VERTEX
8
Text
10
101.779659
20
96.958118
70
0
0
VERTEX
8
Text
10
101.476492
20
96.958118
70
0
0
SEQEND
8
Text
0
POLYLINE
8
Text
62
7
70
0
10
0.000000
20
0.000000
66
1
0
VERTEX
8
Text
10
101.437905
20
98.298953
70
0
0
VERTEX
8
Text
10
101.333174
20
98.529430
70
0
0
VERTEX
8
Text
10
101.018980
20
98.606255
70
0
0
VERTEX
8
Text
10
100.644153
20
98.606255
70
0
0
VERTEX
8
Text
10
100.644153
20
97.958575
70
0
0
VERTEX
8
Text
10
101.030005
20
97.958575
70
0
0
VERTEX
8
Text
10
101.331797
20
98.046771
70
0
0
VERTEX
8
Text
10
101.437905
20
98.298953
70
0
0
VERTEX
8
Text
10
101.437905
20
98.298953
70
0
0
SEQEND
8
Text
0
POLYLINE
8
Text
62
7
70
0
10
0.000000
20
0.000000
66
1
0
VERTEX
8
Text
10
108.244292
20
97.895869
70
0
0
VERTEX
8
Text
10
108.061013
20
97.180666
70
0
0
VERTEX
8
Text
10
107.537358
20
96.929863
70
0
0
VERTEX
8
Text
10
107.013701
20
97.176531
70
0
0
VERTEX
8
Text
10
106.833178
20
97.895869
70
0
0
VERTEX
8
Text
10
107.012325
20
98.602805
70
0
0
VERTEX
8
Text
10
107.540112
20
98.845341
70
0
0
VERTEX
8
Text
10
108.062391
20
98.605560
70
0
0
VERTEX
8
Text
10
108.244292
20
97.895869
70
0
0
VERTEX
8
Text
10
108.244292
20
97.895869
70
0
0
SEQEND
8
Text
0
POLYLINE
8
Text
62
7
70
0
10
0.000000
20
0.000000
66
1
0
VERTEX
8
Text
10
107.967305
20
97.895869
70
0
0
VERTEX
8
Text
10
107.860507
20
98.446740
70
0
0
VERTEX
8
Text
10
107.540112
20
98.630364
70
0
0
VERTEX
8
Text
10
107.217652
20
98.446740
70
0
0
VERTEX
8
Text
10
107.110165
20
97.895869
70
0
0
VERTEX
8
Text
10
107.219030
20
97.333630
70
0
0
VERTEX
8
Text
10
107.538736
20
97.143458
70
0
0
VERTEX
8
Text
10
107.865332
20
97.336384
70
0
0
VERTEX
8
Text
10
107.967305
20
97.895869
70
0
0
VERTEX
8
Text
10
107.967305
20
97.895869
70
0
0
SEQEND
8
Text
0
POLYLINE
8
Text
62
7
70
0
10
0.000000
20
0.000000
66
1
0
VERTEX
8
Text
10
108.889216
20
98.448463
70
0
0
VERTEX
8
Text
10
108.889216
20
97.503127
70
0
0
VERTEX
8
Text
10
108.956740
20
97.204092
70
0
0
VERTEX
8
Text
10
109.197897
20
97.121410
70
0
0
VERTEX
8
Text
10
109.479016
20
97.242679
70
0
0
VERTEX
8
Text
10
109.582370
20
97.584433
70
0
0
VERTEX
8
Text
10
109.582370
20
98.448463
70
0
0
VERTEX
8
Text
10
109.831795
20
98.448463
70
0
0
VERTEX
8
Text
10
109.831795
20
97.275752
70
0
0
VERTEX
8
Text
10
109.840050
20
96.957424
70
0
0
VERTEX
8
Text
10
109.605783
20
96.957424
70
0
0
VERTEX
8
Text
10
109.603032
20
96.994630
70
0
0
VERTEX
8
Text
10
109.598904
20
97.063533
70
0
0
VERTEX
8
Text
10
109.594777
20
97.212361
70
0
0
VERTEX
8
Text
10
109.590649
20
97.212361
70
0
0
VERTEX
8
Text
10
109.392212
20
96.993252
70
0
0
VERTEX
8
Text
10
109.113847
20
96.929863
70
0
0
VERTEX
8
Text
10
108.754178
20
97.051129
70
0
0
VERTEX
8
Text
10
108.641180
20
97.454896
70
0
0
VERTEX
8
Text
10
108.641180
20
98.448463
70
0
0
VERTEX
8
Text
10
108.889216
20
98.448463
70
0
0
SEQEND
8
Text
0
POLYLINE
8
Text
62
7
70
0
10
0.000000
20
0.000000
66
1
0
VERTEX
8
Text
10
110.341671
20
98.252783
70
0
0
VERTEX
8
Text
10
110.341671
20
98.448463
70
0
0
VERTEX
8
Text
10
110.575938
20
98.448463
70
0
0
VERTEX
8
Text
10
110.655863
20
98.837072
70
0
0
VERTEX
8
Text
10
110.821230
20
98.837072
70
0
0
VERTEX
8
Text
10
110.821230
20
98.448463
70
0
0
VERTEX
8
Text
10
111.416542
20
98.448463
70
0
0
VERTEX
8
Text
10
111.416542
20
98.252783
70
0
0
VERTEX
8
Text
10
110.821230
20
98.252783
70
0
0
VERTEX
8
Text
10
110.821230
20
97.354299
70
0
0
VERTEX
8
Text
10
110.879107
20
97.193070
70
0
0
VERTEX
8
Text
10
111.072033
20
97.140704
70
0
0
VERTEX
8
Text
10
111.481312
20
97.187556
70
0
0
VERTEX
8
Text
10
111.481312
20
96.998765
70
0
0
VERTEX
8
Text
10
111.019667
20
96.935374
70
0
0
VERTEX
8
Text
10
110.684803
20
97.029081
70
0
0
VERTEX
8
Text
10
110.573181
20
97.328116
70
0
0
VERTEX
8
Text
10
110.573181
20
98.252783
70
0
0
VERTEX
8
Text
10
110.341671
20
98.252783
70
0
0
SEQEND
8
Text
0
POLYLINE
8
Text
62
7
70
0
10
0.000000
20
0.000000
66
1
0
VERTEX
8
Text
10
112.100049
20
96.957424
70
0
0
VERTEX
8
Text
10
112.100049
20
98.816400
70
0
0
VERTEX
8
Text
10
112.363257
20
98.816400
70
0
0
VERTEX
8
Text
10
112.363257
20
97.172398
70
0
0
VERTEX
8
Text
10
113.289300
20
97.172398
70
0
0
VERTEX
8
Text
10
113.289300
20
96.957424
70
0
0
VERTEX
8
Text
10
112.100049
20
96.957424
70
0
0
SEQEND
8
Text
0
POLYLINE
8
Text
62
7
70
0
10
0.000000
20
0.000000
66
1
0
VERTEX
8
Text
10
119.544193
20
97.890831
70
0
0
VERTEX
8
Text
10
119.360913
20
97.175629
70
0
0
VERTEX
8
Text
10
118.837259
20
96.924825
70
0
0
VERTEX
8
Text
10
118.313604
20
97.171493
70
0
0
VERTEX
8
Text
10
118.133079
20
97.890831
70
0
0
VERTEX
8
Text
10
118.312225
20
98.597765
70
0
0
VERTEX
8
Text
10
118.840016
20
98.840300
70
0
0
VERTEX
8
Text
10
119.362292
20
98.600522
70
0
0
VERTEX
8
Text
10
119.544193
20
97.890831
70
0
0
VERTEX
8
Text
10
119.544193
20
97.890831
70
0
0
SEQEND
8
Text
0
POLYLINE
8
Text
62
7
70
0
10
0.000000
20
0.000000
66
1
0
VERTEX
8
Text
10
119.267209
20
97.890831
70
0
0
VERTEX
8
Text
10
119.160410
20
98.441703
70
0
0
VERTEX
8
Text
10
118.840016
20
98.625327
70
0
0
VERTEX
8
Text
10
118.517553
20
98.441703
70
0
0
VERTEX
8
Text
10
118.410066
20
97.890831
70
0
0
VERTEX
8
Text
10
118.518931
20
97.328589
70
0
0
VERTEX
8
Text
10
118.838637
20
97.138420
70
0
0
VERTEX
8
Text
10
119.165233
20
97.331346
70
0
0
VERTEX
8
Text
10
119.267209
20
97.890831
70
0
0
VERTEX
8
Text
10
119.267209
20
97.890831
70
0
0
SEQEND
8
Text
0
POLYLINE
8
Text
62
7
70
0
10
0.000000
20
0.000000
66
1
0
VERTEX
8
Text
10
120.189116
20
98.443426
70
0
0
VERTEX
8
Text
10
120.189116
20
97.498089
70
0
0
VERTEX
8
Text
10
120.256641
20
97.199055
70
0
0
VERTEX
8
Text
10
120.497797
20
97.116373
70
0
0
VERTEX
8
Text
10
120.778920
20
97.237639
70
0
0
VERTEX
8
Text
10
120.882271
20
97.579393
70
0
0
VERTEX
8
Text
10
120.882271
20
98.443426
70
0
0
VERTEX
8
Text
10
121.131696
20
98.443426
70
0
0
VERTEX
8
Text
10
121.131696
20
97.270712
70
0
0
VERTEX
8
Text
10
121.139951
20
96.952384
70
0
0
VERTEX
8
Text
10
120.905684
20
96.952384
70
0
0
VERTEX
8
Text
10
120.902932
20
96.989592
70
0
0
VERTEX
8
Text
10
120.898805
20
97.058495
70
0
0
VERTEX
8
Text
10
120.894677
20
97.207323
70
0
0
VERTEX
8
Text
10
120.890550
20
97.207323
70
0
0
VERTEX
8
Text
10
120.692112
20
96.988214
70
0
0
VERTEX
8
Text
10
120.413747
20
96.924825
70
0
0
VERTEX
8
Text
10
120.054079
20
97.046091
70
0
0
VERTEX
8
Text
10
119.941080
20
97.449858
70
0
0
VERTEX
8
Text
10
119.941080
20
98.443426
70
0
0
VERTEX
8
Text
10
120.189116
20
98.443426
70
0
0
SEQEND
8
Text
0
POLYLINE
8
Text
62
7
70
0
10
0.000000
20
0.000000
66
1
0
VERTEX
8
Text
10
121.641571
20
98.247743
70
0
0
VERTEX
8
Text
10
121.641571
20
98.443426
70
0
0
VERTEX
8
Text
10
121.875838
20
98.443426
70
0
0
VERTEX
8
Text
10
121.955766
20
98.832032
70
0
0
VERTEX
8
Text
10
122.121131
20
98.832032
70
0
0
VERTEX
8
Text
10
122.121131
20
98.443426
70
0
0
VERTEX
8
Text
10
122.716445
20
98.443426
70
0
0
VERTEX
8
Text
10
122.716445
20
98.247743
70
0
0
VERTEX
8
Text
10
122.121131
20
98.247743
70
0
0
VERTEX
8
Text
10
122.121131
20
97.349261
70
0
0
VERTEX
8
Text
10
122.179008
20
97.188030
70
0
0
VERTEX
8
Text
10
122.371934
20
97.135663
70
0
0
VERTEX
8
Text
10
122.781212
20
97.182518
70
0
0
VERTEX
8
Text
10
122.781212
20
96.993725
70
0
0
VERTEX
8
Text
10
122.319568
20
96.930336
70
0
0
VERTEX
8
Text
10
121.984704
20
97.024044
70
0
0
VERTEX
8
Text
10
121.873084
20
97.323078
70
0
0
VERTEX
8
Text
10
121.873084
20
98.247743
70
0
0
VERTEX
8
Text
10
121.641571
20
98.247743
70
0
0
SEQEND
8
Text
0
POLYLINE
8
Text
62
7
70
0
10
0.000000
20
0.000000
66
1
0
VERTEX
8
Text
10
124.392142
20
96.952384
70
0
0
VERTEX
8
Text
10
123.887778
20
97.744760
70
0
0
VERTEX
8
Text
10
123.559806
20
97.744760
70
0
0
VERTEX
8
Text
10
123.559806
20
96.952384
70
0
0
VERTEX
8
Text
10
123.296599
20
96.952384
70
0
0
VERTEX
8
Text
10
123.296599
20
98.811363
70
0
0
VERTEX
8
Text
10
123.960816
20
98.811363
70
0
0
VERTEX
8
Text
10
124.450019
20
98.677693
70
0
0
VERTEX
8
Text
10
124.618141
20
98.297352
70
0
0
VERTEX
8
Text
10
124.488603
20
97.951465
70
0
0
VERTEX
8
Text
10
124.144095
20
97.775076
70
0
0
VERTEX
8
Text
10
124.695311
20
96.952384
70
0
0
VERTEX
8
Text
10
124.392142
20
96.952384
70
0
0
SEQEND
8
Text
0
POLYLINE
8
Text
62
7
70
0
10
0.000000
20
0.000000
66
1
0
VERTEX
8
Text
10
124.353558
20
98.293219
70
0
0
VERTEX
8
Text
10
124.248826
20
98.523696
70
0
0
VERTEX
8
Text
10
123.934633
20
98.600522
70
0
0
VERTEX
8
Text
10
123.559806
20
98.600522
70
0
0
VERTEX
8
Text
10
123.559806
20
97.952844
70
0
0
VERTEX
8
Text
10
123.945655
20
97.952844
70
0
0
VERTEX
8
Text
10
124.247447
20
98.041037
70
0
0
VERTEX
8
Text
10
124.353558
20
98.293219
70
0
0
VERTEX
8
Text
10
124.353558
20
98.293219
70
0
0
SEQEND
8
Text
0
POLYLINE
8
Text
62
7
70
0
10
0.000000
20
0.000000
66
1
0
VERTEX
8
Text
10
86.504314
20
113.927897
70
0
0
VERTEX
8
Text
10
86.421632
20
113.620595
70
0
0
VERTEX
8
Text
10
86.187365
20
113.409756
70
0
0
VERTEX
8
Text
10
85.835964
20
113.333964
70
0
0
VERTEX
8
Text
10
85.448733
20
113.333964
70
0
0
VERTEX
8
Text
10
85.448733
20
112.625649
70
0
0
VERTEX
8
Text
10
85.185529
20
112.625649
70
0
0
VERTEX
8
Text
10
85.185529
20
114.484627
70
0
0
VERTEX
8
Text
10
85.819428
20
114.484627
70
0
0
VERTEX
8
Text
10
86.325167
20
114.337175
70
0
0
VERTEX
8
Text
10
86.504314
20
113.927897
70
0
0
VERTEX
8
Text
10
86.504314
20
113.927897
70
0
0
SEQEND
8
Text
0
POLYLINE
8
Text
62
7
70
0
10
0.000000
20
0.000000
66
1
0
VERTEX
8
Text
10
86.239731
20
113.923770
70
0
0
VERTEX
8
Text
10
86.126731
20
114.186286
70
0
0
VERTEX
8
Text
10
85.787733
20
114.273792
70
0
0
VERTEX
8
Text
10
85.448733
20
114.273792
70
0
0
VERTEX
8
Text
10
85.448733
20
113.542053
70
0
0
VERTEX
8
Text
10
85.798756
20
113.542053
70
0
0
VERTEX
8
Text
10
86.121219
20
113.642650
70
0
0
VERTEX
8
Text
10
86.239731
20
113.923770
70
0
0
VERTEX
8
Text
10
86.239731
20
113.923770
70
0
0
SEQEND
8
Text
0
POLYLINE
8
Text
62
7
70
0
10
0.000000
20
0.000000
66
1
0
VERTEX
8
Text
10
87.806562
20
112.828227
70
0
0
VERTEX
8
Text
10
88.193793
20
112.821347
70
0
0
VERTEX
8
Text
10
88.193793
20
112.625665
70
0
0
VERTEX
8
Text
10
87.683917
20
112.631168
70
0
0
VERTEX
8
Text
10
87.456540
20
112.755191
70
0
0
VERTEX
8
Text
10
87.422089
20
112.981190
70
0
0
VERTEX
8
Text
10
87.422089
20
114.474986
70
0
0
VERTEX
8
Text
10
87.023836
20
114.474986
70
0
0
VERTEX
8
Text
10
87.023836
20
114.670669
70
0
0
VERTEX
8
Text
10
87.670135
20
114.670669
70
0
0
VERTEX
8
Text
10
87.670135
20
112.952250
70
0
0
VERTEX
8
Text
10
87.704587
20
112.859921
70
0
0
VERTEX
8
Text
10
87.806562
20
112.828227
70
0
0
VERTEX
8
Text
10
87.806562
20
112.828227
70
0
0
SEQEND
8
Text
0
POLYLINE
8
Text
62
7
70
0
10
0.000000
20
0.000000
66
1
0
VERTEX
8
Text
10
87.812066
20
112.821347
70
0
0
VERTEX
8
Text
10
87.812066
20
112.821347
70
0
0
SEQEND
8
Text
0
POLYLINE
8
Text
62
7
70
0
10
0.000000
20
0.000000
66
1
0
VERTEX
8
Text
10
87.670127
20
112.952260
70
0
0
VERTEX
8
Text
10
87.670127
20
112.952260
70
0
0
SEQEND
8
Text
0
POLYLINE
8
Text
62
7
70
0
10
0.000000
20
0.000000
66
1
0
VERTEX
8
Text
10
87.692167
20
112.625665
70
0
0
VERTEX
8
Text
10
87.692167
20
112.625665
70
0
0
SEQEND
8
Text
0
POLYLINE
8
Text
62
7
70
0
10
0.000000
20
0.000000
66
1
0
VERTEX
8
Text
10
87.422070
20
112.821347
70
0
0
VERTEX
8
Text
10
87.422070
20
112.981201
70
0
0
VERTEX
8
Text
10
87.422070
20
112.821347
70
0
0
SEQEND
8
Text
0
POLYLINE
8
Text
62
7
70
0
10
0.000000
20
0.000000
66
1
0
VERTEX
8
Text
10
89.866714
20
112.778628
70
0
0
VERTEX
8
Text
10
89.948020
20
112.788285
70
0
0
VERTEX
8
Text
10
89.948020
20
112.633943
70
0
0
VERTEX
8
Text
10
89.756473
20
112.611904
70
0
0
VERTEX
8
Text
10
89.555279
20
112.683561
70
0
0
VERTEX
8
Text
10
89.484997
20
112.910938
70
0
0
VERTEX
8
Text
10
89.476742
20
112.910938
70
0
0
VERTEX
8
Text
10
89.264523
20
112.671160
70
0
0
VERTEX
8
Text
10
88.964110
20
112.598124
70
0
0
VERTEX
8
Text
10
88.636138
20
112.716636
70
0
0
VERTEX
8
Text
10
88.525895
20
113.041854
70
0
0
VERTEX
8
Text
10
88.682302
20
113.404277
70
0
0
VERTEX
8
Text
10
89.151525
20
113.529678
70
0
0
VERTEX
8
Text
10
89.476742
20
113.535182
70
0
0
VERTEX
8
Text
10
89.476742
20
113.616488
70
0
0
VERTEX
8
Text
10
89.403707
20
113.875560
70
0
0
VERTEX
8
Text
10
89.170818
20
113.955485
70
0
0
VERTEX
8
Text
10
88.936551
20
113.897608
70
0
0
VERTEX
8
Text
10
88.851112
20
113.718464
70
0
0
VERTEX
8
Text
10
88.592040
20
113.741879
70
0
0
VERTEX
8
Text
10
88.769462
20
114.043671
70
0
0
VERTEX
8
Text
10
89.174951
20
114.144268
70
0
0
VERTEX
8
Text
10
89.588365
20
114.014731
70
0
0
VERTEX
8
Text
10
89.727546
20
113.642661
70
0
0
VERTEX
8
Text
10
89.727546
20
113.000494
70
0
0
VERTEX
8
Text
10
89.756486
20
112.833748
70
0
0
VERTEX
8
Text
10
89.866727
20
112.778628
70
0
0
VERTEX
8
Text
10
89.866714
20
112.778628
70
0
0
SEQEND
8
Text
0
POLYLINE
8
Text
62
7
70
0
10
0.000000
20
0.000000
66
1
0
VERTEX
8
Text
10
89.027488
20
112.786883
70
0
0
VERTEX
8
Text
10
89.261756
20
112.850274
70
0
0
VERTEX
8
Text
10
89.420230
20
113.019771
70
0
0
VERTEX
8
Text
10
89.476729
20
113.238881
70
0
0
VERTEX
8
Text
10
89.476729
20
113.361525
70
0
0
VERTEX
8
Text
10
89.214901
20
113.356022
70
0
0
VERTEX
8
Text
10
88.966854
20
113.320192
70
0
0
VERTEX
8
Text
10
88.833184
20
113.218217
70
0
0
VERTEX
8
Text
10
88.786332
20
113.037694
70
0
0
VERTEX
8
Text
10
88.846963
20
112.855794
70
0
0
VERTEX
8
Text
10
89.027488
20
112.786891
70
0
0
VERTEX
8
Text
10
89.027488
20
112.786883
70
0
0
SEQEND
8
Text
0
POLYLINE
8
Text
62
7
70
0
10
0.000000
20
0.000000
66
1
0
VERTEX
8
Text
10
90.445492
20
112.039986
70
0
0
VERTEX
8
Text
10
90.274616
20
112.055147
70
0
0
VERTEX
8
Text
10
90.274616
20
112.241180
70
0
0
VERTEX
8
Text
10
90.390371
20
112.232925
70
0
0
VERTEX
8
Text
10
90.594320
20
112.314232
70
0
0
VERTEX
8
Text
10
90.756930
20
112.573304
70
0
0
VERTEX
8
Text
10
90.781721
20
112.640828
70
0
0
VERTEX
8
Text
10
90.134041
20
114.116709
70
0
0
VERTEX
8
Text
10
90.398626
20
114.116709
70
0
0
VERTEX
8
Text
10
90.762428
20
113.232007
70
0
0
VERTEX
8
Text
10
90.897476
20
112.881985
70
0
0
VERTEX
8
Text
10
90.953975
20
113.033569
70
0
0
VERTEX
8
Text
10
91.381169
20
114.116709
70
0
0
VERTEX
8
Text
10
91.642997
20
114.116709
70
0
0
VERTEX
8
Text
10
91.014610
20
112.625667
70
0
0
VERTEX
8
Text
10
90.759671
20
112.170915
70
0
0
VERTEX
8
Text
10
90.445479
20
112.040002
70
0
0
VERTEX
8
Text
10
90.445492
20
112.039986
70
0
0
SEQEND
8
Text
0
POLYLINE
8
Text
62
7
70
0
10
0.000000
20
0.000000
66
1
0
VERTEX
8
Text
10
98.187646
20
112.630834
70
0
0
VERTEX
8
Text
10
97.683282
20
113.423208
70
0
0
VERTEX
8
Text
10
97.355310
20
113.423208
70
0
0
VERTEX
8
Text
10
97.355310
20
112.630834
70
0
0
VERTEX
8
Text
10
97.092103
20
112.630834
70
0
0
VERTEX
8
Text
10
97.092103
20
114.489811
70
0
0
VERTEX
8
Text
10
97.756320
20
114.489811
70
0
0
VERTEX
8
Text
10
98.245523
20
114.356141
70
0
0
VERTEX
8
Text
10
98.413644
20
113.975802
70
0
0
VERTEX
8
Text
10
98.284107
20
113.629913
70
0
0
VERTEX
8
Text
10
97.939599
20
113.453524
70
0
0
VERTEX
8
Text
10
98.490815
20
112.630834
70
0
0
VERTEX
8
Text
10
98.187646
20
112.630834
70
0
0
SEQEND
8
Text
0
POLYLINE
8
Text
62
7
70
0
10
0.000000
20
0.000000
66
1
0
VERTEX
8
Text
10
98.149059
20
113.971667
70
0
0
VERTEX
8
Text
10
98.044328
20
114.202144
70
0
0
VERTEX
8
Text
10
97.730137
20
114.278970
70
0
0
VERTEX
8
Text
10
97.355310
20
114.278970
70
0
0
VERTEX
8
Text
10
97.355310
20
113.631292
70
0
0
VERTEX
8
Text
10
97.741159
20
113.631292
70
0
0
VERTEX
8
Text
10
98.042950
20
113.719485
70
0
0
VERTEX
8
Text
10
98.149059
20
113.971667
70
0
0
VERTEX
8
Text
10
98.149059
20
113.971667
70
0
0
SEQEND
8
Text
0
POLYLINE
8
Text
62
7
70
0
10
0.000000
20
0.000000
66
1
0
VERTEX
8
Text
10
99.006202
20
113.323989
70
0
0
VERTEX
8
Text
10
99.116446
20
112.931247
70
0
0
VERTEX
8
Text
10
99.420991
20
112.789309
70
0
0
VERTEX
8
Text
10
99.669038
20
112.849941
70
0
0
VERTEX
8
Text
10
99.812355
20
113.018062
70
0
0
VERTEX
8
Text
10
100.030085
20
112.956052
70
0
0
VERTEX
8
Text
10
99.806843
20
112.694223
70
0
0
VERTEX
8
Text
10
99.420991
20
112.603273
70
0
0
VERTEX
8
Text
10
98.920763
20
112.805846
70
0
0
VERTEX
8
Text
10
98.745752
20
113.385999
70
0
0
VERTEX
8
Text
10
98.916630
20
113.950998
70
0
0
VERTEX
8
Text
10
99.412723
20
114.149435
70
0
0
VERTEX
8
Text
10
99.903305
20
113.952374
70
0
0
VERTEX
8
Text
10
100.070048
20
113.357062
70
0
0
VERTEX
8
Text
10
100.070048
20
113.323989
70
0
0
VERTEX
8
Text
10
99.006202
20
113.323989
70
0
0
SEQEND
8
Text
0
POLYLINE
8
Text
62
7
70
0
10
0.000000
20
0.000000
66
1
0
VERTEX
8
Text
10
99.415480
20
113.966156
70
0
0
VERTEX
8
Text
10
99.123335
20
113.844887
70
0
0
VERTEX
8
Text
10
99.008959
20
113.514158
70
0
0
VERTEX
8
Text
10
99.813733
20
113.514158
70
0
0
VERTEX
8
Text
10
99.694878
20
113.853156
70
0
0
VERTEX
8
Text
10
99.415480
20
113.966156
70
0
0
VERTEX
8
Text
10
99.415480
20
113.966156
70
0
0
SEQEND
8
Text
0
POLYLINE
8
Text
62
7
70
0
10
0.000000
20
0.000000
66
1
0
VERTEX
8
Text
10
100.435231
20
113.377731
70
0
0
VERTEX
8
Text
10
100.612996
20
113.949619
70
0
0
VERTEX
8
Text
10
101.127007
20
114.149435
70
0
0
VERTEX
8
Text
10
101.540418
20
114.028166
70
0
0
VERTEX
8
Text
10
101.741612
20
113.704327
70
0
0
VERTEX
8
Text
10
101.477029
20
113.685039
70
0
0
VERTEX
8
Text
10
101.366785
20
113.882100
70
0
0
VERTEX
8
Text
10
101.115981
20
113.955136
70
0
0
VERTEX
8
Text
10
100.796278
20
113.820087
70
0
0
VERTEX
8
Text
10
100.695681
20
113.383250
70
0
0
VERTEX
8
Text
10
100.796278
20
112.935385
70
0
0
VERTEX
8
Text
10
101.114603
20
112.794826
70
0
0
VERTEX
8
Text
10
101.361274
20
112.867861
70
0
0
VERTEX
8
Text
10
101.482540
20
113.091106
70
0
0
VERTEX
8
Text
10
101.744369
20
113.074569
70
0
0
VERTEX
8
Text
10
101.643772
20
112.833412
70
0
0
VERTEX
8
Text
10
101.427419
20
112.663915
70
0
0
VERTEX
8
Text
10
101.125628
20
112.603281
70
0
0
VERTEX
8
Text
10
100.611620
20
112.801718
70
0
0
VERTEX
8
Text
10
100.435231
20
113.377739
70
0
0
VERTEX
8
Text
10
100.435231
20
113.377731
70
0
0
SEQEND
8
Text
0
POLYLINE
8
Text
62
7
70
0
10
0.000000
20
0.000000
66
1
0
VERTEX
8
Text
10
109.143668
20
112.638859
70
0
0
VERTEX
8
Text
10
109.143668
20
113.050894
70
0
0
VERTEX
8
Text
10
109.467507
20
113.050894
70
0
0
VERTEX
8
Text
10
109.467507
20
112.638859
70
0
0
VERTEX
8
Text
10
109.143668
20
112.638859
70
0
0
SEQEND
8
Text
0
POLYLINE
8
Text
62
7
70
0
10
0.000000
20
0.000000
66
1
0
VERTEX
8
Text
10
109.143668
20
113.717866
70
0
0
VERTEX
8
Text
10
109.143668
20
114.129901
70
0
0
VERTEX
8
Text
10
109.467507
20
114.129901
70
0
0
VERTEX
8
Text
10
109.467507
20
113.717866
70
0
0
VERTEX
8
Text
10
109.143668
20
113.717866
70
0
0
SEQEND
8
Text
0
POLYLINE
8
Text
62
7
70
0
10
0.000000
20
0.000000
66
1
0
VERTEX
8
Text
10
110.313625
20
113.425721
70
0
0
VERTEX
8
Text
10
110.313625
20
113.708219
70
0
0
VERTEX
8
Text
10
111.684776
20
114.284240
70
0
0
VERTEX
8
Text
10
111.684776
20
114.072021
70
0
0
VERTEX
8
Text
10
110.502415
20
113.567659
70
0
0
VERTEX
8
Text
10
111.684776
20
113.061917
70
0
0
VERTEX
8
Text
10
111.684776
20
112.851079
70
0
0
VERTEX
8
Text
10
110.313625
20
113.425721
70
0
0
SEQEND
8
Text
0
POLYLINE
8
Text
62
7
70
0
10
0.000000
20
0.000000
66
1
0
VERTEX
8
Text
10
118.773177
20
113.176106
70
0
0
VERTEX
8
Text
10
118.587140
20
112.780610
70
0
0
VERTEX
8
Text
10
118.059353
20
112.638671
70
0
0
VERTEX
8
Text
10
117.561535
20
112.762006
70
0
0
VERTEX
8
Text
10
117.327612
20
113.132010
70
0
0
VERTEX
8
Text
10
117.582551
20
113.182998
70
0
0
VERTEX
8
Text
10
117.742404
20
112.923926
70
0
0
VERTEX
8
Text
10
118.066243
20
112.843998
70
0
0
VERTEX
8
Text
10
118.398350
20
112.929438
70
0
0
VERTEX
8
Text
10
118.512726
20
113.171973
70
0
0
VERTEX
8
Text
10
118.467253
20
113.329069
70
0
0
VERTEX
8
Text
10
118.350119
20
113.428288
70
0
0
VERTEX
8
Text
10
118.184755
20
113.490301
70
0
0
VERTEX
8
Text
10
118.000097
20
113.538531
70
0
0
VERTEX
8
Text
10
117.683148
20
113.641886
70
0
0
VERTEX
8
Text
10
117.532941
20
113.745237
70
0
0
VERTEX
8
Text
10
117.447502
20
113.880285
70
0
0
VERTEX
8
Text
10
117.418562
20
114.058053
70
0
0
VERTEX
8
Text
10
117.585305
20
114.424612
70
0
0
VERTEX
8
Text
10
118.066243
20
114.554147
70
0
0
VERTEX
8
Text
10
118.512726
20
114.452174
70
0
0
VERTEX
8
Text
10
118.727703
20
114.107663
70
0
0
VERTEX
8
Text
10
118.468631
20
114.062186
70
0
0
VERTEX
8
Text
10
118.336340
20
114.285431
70
0
0
VERTEX
8
Text
10
118.064864
20
114.355709
70
0
0
VERTEX
8
Text
10
117.772376
20
114.282328
70
0
0
VERTEX
8
Text
10
117.674879
20
114.062186
70
0
0
VERTEX
8
Text
10
117.710707
20
113.927140
70
0
0
VERTEX
8
Text
10
117.809928
20
113.841701
70
0
0
VERTEX
8
Text
10
117.955999
20
113.786578
70
0
0
VERTEX
8
Text
10
118.135145
20
113.739726
70
0
0
VERTEX
8
Text
10
118.410754
20
113.658422
70
0
0
VERTEX
8
Text
10
118.559581
20
113.585384
70
0
0
VERTEX
8
Text
10
118.672580
20
113.487544
70
0
0
VERTEX
8
Text
10
118.745618
20
113.355252
70
0
0
VERTEX
8
Text
10
118.773177
20
113.176106
70
0
0
VERTEX
8
Text
10
118.773177
20
113.176106
70
0
0
SEQEND
8
Text
0
POLYLINE
8
Text
62
7
70
0
10
0.000000
20
0.000000
66
1
0
VERTEX
8
Text
10
120.063024
20
112.868803
70
0
0
VERTEX
8
Text
10
120.450252
20
112.861924
70
0
0
VERTEX
8
Text
10
120.450252
20
112.666244
70
0
0
VERTEX
8
Text
10
119.940377
20
112.671747
70
0
0
VERTEX
8
Text
10
119.713002
20
112.795770
70
0
0
VERTEX
8
Text
10
119.678551
20
113.021769
70
0
0
VERTEX
8
Text
10
119.678551
20
114.515565
70
0
0
VERTEX
8
Text
10
119.280295
20
114.515565
70
0
0
VERTEX
8
Text
10
119.280295
20
114.711248
70
0
0
VERTEX
8
Text
10
119.926597
20
114.711248
70
0
0
VERTEX
8
Text
10
119.926597
20
112.992829
70
0
0
VERTEX
8
Text
10
119.961048
20
112.900500
70
0
0
VERTEX
8
Text
10
120.063024
20
112.868806
70
0
0
VERTEX
8
Text
10
120.063024
20
112.868803
70
0
0
SEQEND
8
Text
0
POLYLINE
8
Text
62
7
70
0
10
0.000000
20
0.000000
66
1
0
VERTEX
8
Text
10
120.068527
20
112.861924
70
0
0
VERTEX
8
Text
10
120.068527
20
112.861924
70
0
0
SEQEND
8
Text
0
POLYLINE
8
Text
62
7
70
0
10
0.000000
20
0.000000
66
1
0
VERTEX
8
Text
10
119.926589
20
112.992837
70
0
0
VERTEX
8
Text
10
119.926589
20
112.992837
70
0
0
SEQEND
8
Text
0
POLYLINE
8
Text
62
7
70
0
10
0.000000
20
0.000000
66
1
0
VERTEX
8
Text
10
119.948629
20
112.666244
70
0
0
VERTEX
8
Text
10
119.948629
20
112.666244
70
0
0
SEQEND
8
Text
0
POLYLINE
8
Text
62
7
70
0
10
0.000000
20
0.000000
66
1
0
VERTEX
8
Text
10
119.678535
20
112.861924
70
0
0
VERTEX
8
Text
10
119.678535
20
113.021777
70
0
0
VERTEX
8
Text
10
119.678535
20
112.861924
70
0
0
SEQEND
8
Text
0
POLYLINE
8
Text
62
7
70
0
10
0.000000
20
0.000000
66
1
0
VERTEX
8
Text
10
121.632597
20
112.861924
70
0
0
VERTEX
8
Text
10
122.156251
20
112.861924
70
0
0
VERTEX
8
Text
10
122.156251
20
112.666244
70
0
0
VERTEX
8
Text
10
120.803015
20
112.666244
70
0
0
VERTEX
8
Text
10
120.803015
20
112.861924
70
0
0
VERTEX
8
Text
10
121.384550
20
112.861924
70
0
0
VERTEX
8
Text
10
121.384550
20
113.961600
70
0
0
VERTEX
8
Text
10
120.944953
20
113.961600
70
0
0
VERTEX
8
Text
10
120.944953
20
114.157272
70
0
0
VERTEX
8
Text
10
121.632597
20
114.157272
70
0
0
VERTEX
8
Text
10
121.632597
20
112.861924
70
0
0
SEQEND
8
Text
0
POLYLINE
8
Text
62
7
70
0
10
0.000000
20
0.000000
66
1
0
VERTEX
8
Text
10
121.356988
20
114.446670
70
0
0
VERTEX
8
Text
10
121.356988
20
114.711256
70
0
0
VERTEX
8
Text
10
121.632597
20
114.711256
70
0
0
VERTEX
8
Text
10
121.632597
20
114.446670
70
0
0
VERTEX
8
Text
10
121.356988
20
114.446670
70
0
0
SEQEND
8
Text
0
POLYLINE
8
Text
62
7
70
0
10
0.000000
20
0.000000
66
1
0
VERTEX
8
Text
10
122.478712
20
113.413140
70
0
0
VERTEX
8
Text
10
122.656480
20
113.985028
70
0
0
VERTEX
8
Text
10
123.170491
20
114.184844
70
0
0
VERTEX
8
Text
10
123.583901
20
114.063575
70
0
0
VERTEX
8
Text
10
123.785096
20
113.739736
70
0
0
VERTEX
8
Text
10
123.520513
20
113.720448
70
0
0
VERTEX
8
Text
10
123.410269
20
113.917510
70
0
0
VERTEX
8
Text
10
123.159465
20
113.990545
70
0
0
VERTEX
8
Text
10
122.839759
20
113.855497
70
0
0
VERTEX
8
Text
10
122.739162
20
113.418657
70
0
0
VERTEX
8
Text
10
122.839759
20
112.970795
70
0
0
VERTEX
8
Text
10
123.158087
20
112.830235
70
0
0
VERTEX
8
Text
10
123.404758
20
112.903270
70
0
0
VERTEX
8
Text
10
123.526024
20
113.126512
70
0
0
VERTEX
8
Text
10
123.787853
20
113.109976
70
0
0
VERTEX
8
Text
10
123.687256
20
112.868819
70
0
0
VERTEX
8
Text
10
123.470903
20
112.699322
70
0
0
VERTEX
8
Text
10
123.169112
20
112.638687
70
0
0
VERTEX
8
Text
10
122.655101
20
112.837125
70
0
0
VERTEX
8
Text
10
122.478712
20
113.413146
70
0
0
VERTEX
8
Text
10
122.478712
20
113.413140
70
0
0
SEQEND
8
Text
0
POLYLINE
8
Text
62
7
70
0
10
0.000000
20
0.000000
66
1
0
VERTEX
8
Text
10
124.436909
20
113.359398
70
0
0
VERTEX
8
Text
10
124.547153
20
112.966656
70
0
0
VERTEX
8
Text
10
124.851699
20
112.824718
70
0
0
VERTEX
8
Text
10
125.099748
20
112.885350
70
0
0
VERTEX
8
Text
10
125.243062
20
113.053471
70
0
0
VERTEX
8
Text
10
125.460792
20
112.991461
70
0
0
VERTEX
8
Text
10
125.237551
20
112.729632
70
0
0
VERTEX
8
Text
10
124.851699
20
112.638682
70
0
0
VERTEX
8
Text
10
124.351470
20
112.841255
70
0
0
VERTEX
8
Text
10
124.176459
20
113.421408
70
0
0
VERTEX
8
Text
10
124.347337
20
113.986404
70
0
0
VERTEX
8
Text
10
124.843430
20
114.184844
70
0
0
VERTEX
8
Text
10
125.334015
20
113.987783
70
0
0
VERTEX
8
Text
10
125.500758
20
113.392471
70
0
0
VERTEX
8
Text
10
125.500758
20
113.359398
70
0
0
VERTEX
8
Text
10
124.436909
20
113.359398
70
0
0
SEQEND
8
Text
0
POLYLINE
8
Text
62
7
70
0
10
0.000000
20
0.000000
66
1
0
VERTEX
8
Text
10
124.846187
20
114.001565
70
0
0
VERTEX
8
Text
10
124.554043
20
113.880296
70
0
0
VERTEX
8
Text
10
124.439666
20
113.549567
70
0
0
VERTEX
8
Text
10
125.244440
20
113.549567
70
0
0
VERTEX
8
Text
10
125.125585
20
113.888565
70
0
0
VERTEX
8
Text
10
124.846187
20
114.001565
70
0
0
VERTEX
8
Text
10
124.846187
20
114.001565
70
0
0
SEQEND
8
Text
0
POLYLINE
8
Text
62
7
70
0
10
0.000000
20
0.000000
66
1
0
VERTEX
8
Text
10
85.301975
20
128.357211
70
0
0
VERTEX
8
Text
10
85.029123
20
128.357211
70
0
0
VERTEX
8
Text
10
84.333212
20
130.216187
70
0
0
VERTEX
8
Text
10
84.610199
20
130.216187
70
0
0
VERTEX
8
Text
10
85.051171
20
128.973195
70
0
0
VERTEX
8
Text
10
85.166926
20
128.588722
70
0
0
VERTEX
8
Text
10
85.282684
20
128.973195
70
0
0
VERTEX
8
Text
10
85.720899
20
130.216187
70
0
0
VERTEX
8
Text
10
85.997886
20
130.216187
70
0
0
VERTEX
8
Text
10
85.301975
20
128.357211
70
0
0
SEQEND
8
Text
0
POLYLINE
8
Text
62
7
70
0
10
0.000000
20
0.000000
66
1
0
VERTEX
8
Text
10
86.170140
20
128.329650
70
0
0
VERTEX
8
Text
10
87.301513
20
130.402224
70
0
0
VERTEX
8
Text
10
87.546803
20
130.402224
70
0
0
VERTEX
8
Text
10
86.420944
20
128.329650
70
0
0
VERTEX
8
Text
10
86.170140
20
128.329650
70
0
0
SEQEND
8
Text
0
POLYLINE
8
Text
62
7
70
0
10
0.000000
20
0.000000
66
1
0
VERTEX
8
Text
10
89.258329
20
129.295658
70
0
0
VERTEX
8
Text
10
89.075050
20
128.580453
70
0
0
VERTEX
8
Text
10
88.551395
20
128.329650
70
0
0
VERTEX
8
Text
10
88.027740
20
128.576321
70
0
0
VERTEX
8
Text
10
87.847215
20
129.295658
70
0
0
VERTEX
8
Text
10
88.026362
20
130.002592
70
0
0
VERTEX
8
Text
10
88.554152
20
130.245128
70
0
0
VERTEX
8
Text
10
89.076428
20
130.005349
70
0
0
VERTEX
8
Text
10
89.258329
20
129.295658
70
0
0
VERTEX
8
Text
10
89.258329
20
129.295658
70
0
0
SEQEND
8
Text
0
POLYLINE
8
Text
62
7
70
0
10
0.000000
20
0.000000
66
1
0
VERTEX
8
Text
10
88.981345
20
129.295658
70
0
0
VERTEX
8
Text
10
88.874547
20
129.846530
70
0
0
VERTEX
8
Text
10
88.554152
20
130.030154
70
0
0
VERTEX
8
Text
10
88.231690
20
129.846530
70
0
0
VERTEX
8
Text
10
88.124202
20
129.295658
70
0
0
VERTEX
8
Text
10
88.233067
20
128.733417
70
0
0
VERTEX
8
Text
10
88.552774
20
128.543248
70
0
0
VERTEX
8
Text
10
88.879370
20
128.736174
70
0
0
VERTEX
8
Text
10
88.981345
20
129.295658
70
0
0
VERTEX
8
Text
10
88.981345
20
129.295658
70
0
0
SEQEND
8
Text
0
POLYLINE
8
Text
62
7
70
0
10
0.000000
20
0.000000
66
1
0
VERTEX
8
Text
10
89.579414
20
129.104111
70
0
0
VERTEX
8
Text
10
89.757182
20
129.675996
70
0
0
VERTEX
8
Text
10
90.271190
20
129.875812
70
0
0
VERTEX
8
Text
10
90.684604
20
129.754546
70
0
0
VERTEX
8
Text
10
90.885798
20
129.430707
70
0
0
VERTEX
8
Text
10
90.621212
20
129.411419
70
0
0
VERTEX
8
Text
10
90.510968
20
129.608477
70
0
0
VERTEX
8
Text
10
90.260167
20
129.681516
70
0
0
VERTEX
8
Text
10
89.940461
20
129.546467
70
0
0
VERTEX
8
Text
10
89.839864
20
129.109627
70
0
0
VERTEX
8
Text
10
89.940461
20
128.661765
70
0
0
VERTEX
8
Text
10
90.258789
20
128.521203
70
0
0
VERTEX
8
Text
10
90.505457
20
128.594241
70
0
0
VERTEX
8
Text
10
90.626726
20
128.817483
70
0
0
VERTEX
8
Text
10
90.888552
20
128.800946
70
0
0
VERTEX
8
Text
10
90.787955
20
128.559789
70
0
0
VERTEX
8
Text
10
90.571603
20
128.390290
70
0
0
VERTEX
8
Text
10
90.269811
20
128.329655
70
0
0
VERTEX
8
Text
10
89.755803
20
128.528095
70
0
0
VERTEX
8
Text
10
89.579414
20
129.104116
70
0
0
VERTEX
8
Text
10
89.579414
20
129.104111
70
0
0
SEQEND
8
Text
0
POLYLINE
8
Text
62
7
70
0
10
0.000000
20
0.000000
66
1
0
VERTEX
8
Text
10
91.355708
20
129.652570
70
0
0
VERTEX
8
Text
10
91.355708
20
129.848253
70
0
0
VERTEX
8
Text
10
91.589975
20
129.848253
70
0
0
VERTEX
8
Text
10
91.669903
20
130.236859
70
0
0
VERTEX
8
Text
10
91.835267
20
130.236859
70
0
0
VERTEX
8
Text
10
91.835267
20
129.848253
70
0
0
VERTEX
8
Text
10
92.430581
20
129.848253
70
0
0
VERTEX
8
Text
10
92.430581
20
129.652570
70
0
0
VERTEX
8
Text
10
91.835267
20
129.652570
70
0
0
VERTEX
8
Text
10
91.835267
20
128.754089
70
0
0
VERTEX
8
Text
10
91.893145
20
128.592857
70
0
0
VERTEX
8
Text
10
92.086071
20
128.540491
70
0
0
VERTEX
8
Text
10
92.495349
20
128.587346
70
0
0
VERTEX
8
Text
10
92.495349
20
128.398553
70
0
0
VERTEX
8
Text
10
92.033704
20
128.335164
70
0
0
VERTEX
8
Text
10
91.698840
20
128.428871
70
0
0
VERTEX
8
Text
10
91.587220
20
128.727905
70
0
0
VERTEX
8
Text
10
91.587220
20
129.652570
70
0
0
VERTEX
8
Text
10
91.355708
20
129.652570
70
0
0
SEQEND
8
Text
0
POLYLINE
8
Slice Position (CV1)
62
7
70
0
10
0.000000
20
0.000000
66
1
0
VERTEX
8
Slice Position (CV1)
10
96.773240
20
128.883025
70
0
0
VERTEX
8
Slice Position (CV1)
10
96.587204
20
128.487529
70
0
0
VERTEX
8
Slice Position (CV1)
10
96.059414
20
128.345591
70
0
0
VERTEX
8
Slice Position (CV1)
10
95.561598
20
128.468925
70
0
0
VERTEX
8
Slice Position (CV1)
10
95.327675
20
128.838927
70
0
0
VERTEX
8
Slice Position (CV1)
10
95.582612
20
128.889915
70
0
0
VERTEX
8
Slice Position (CV1)
10
95.742465
20
128.630843
70
0
0
VERTEX
8
Slice Position (CV1)
10
96.066304
20
128.550918
70
0
0
VERTEX
8
Slice Position (CV1)
10
96.398414
20
128.636357
70
0
0
VERTEX
8
Slice Position (CV1)
10
96.512790
20
128.878892
70
0
0
VERTEX
8
Slice Position (CV1)
10
96.467314
20
129.035989
70
0
0
VERTEX
8
Slice Position (CV1)
10
96.350180
20
129.135207
70
0
0
VERTEX
8
Slice Position (CV1)
10
96.184816
20
129.197220
70
0
0
VERTEX
8
Slice Position (CV1)
10
96.000158
20
129.245451
70
0
0
VERTEX
8
Slice Position (CV1)
10
95.683209
20
129.348802
70
0
0
VERTEX
8
Slice Position (CV1)
10
95.533002
20
129.452156
70
0
0
VERTEX
8
Slice Position (CV1)
10
95.447563
20
129.587205
70
0
0
VERTEX
8
Slice Position (CV1)
10
95.418626
20
129.764973
70
0
0
VERTEX
8
Slice Position (CV1)
10
95.585369
20
130.131531
70
0
0
VERTEX
8
Slice Position (CV1)
10
96.066304
20
130.261066
70
0
0
VERTEX
8
Slice Position (CV1)
10
96.512790
20
130.159090
70
0
0
VERTEX
8
Slice Position (CV1)
10
96.727764
20
129.814582
70
0
0
VERTEX
8
Slice Position (CV1)
10
96.468692
20
129.769106
70
0
0
VERTEX
8
Slice Position (CV1)
10
96.336401
20
129.992348
70
0
0
VERTEX
8
Slice Position (CV1)
10
96.064928
20
130.062629
70
0
0
VERTEX
8
Slice Position (CV1)
10
95.772437
20
129.989248
70
0
0
VERTEX
8
Slice Position (CV1)
10
95.674941
20
129.769106
70
0
0
VERTEX
8
Slice Position (CV1)
10
95.710770
20
129.634057
70
0
0
VERTEX
8
Slice Position (CV1)
10
95.809989
20
129.548618
70
0
0
VERTEX
8
Slice Position (CV1)
10
95.956063
20
129.493498
70
0
0
VERTEX
8
Slice Position (CV1)
10
96.135206
20
129.446645
70
0
0
VERTEX
8
Slice Position (CV1)
10
96.410815
20
129.365339
70
0
0
VERTEX
8
Slice Position (CV1)
10
96.559643
20
129.292303
70
0
0
VERTEX
8
Slice Position (CV1)
10
96.672643
20
129.194463
70
0
0
VERTEX
8
Slice Position (CV1)
10
96.745679
20
129.062172
70
0
0
VERTEX
8
Slice Position (CV1)
10
96.773240
20
128.883025
70
0
0
VERTEX
8
Slice Position (CV1)
10
96.773240
20
128.883025
70
0
0
SEQEND
8
Slice Position (CV1)
0
POLYLINE
8
Slice Position (CV1)
62
7
70
0
10
0.000000
20
0.000000
66
1
0
VERTEX
8
Slice Position (CV1)
10
98.063085
20
128.575723
70
0
0
VERTEX
8
Slice Position (CV1)
10
98.450316
20
128.568843
70
0
0
VERTEX
8
Slice Position (CV1)
10
98.450316
20
128.373161
70
0
0
VERTEX
8
Slice Position (CV1)
10
97.940440
20
128.378664
70
0
0
VERTEX
8
Slice Position (CV1)
10
97.713063
20
128.502687
70
0
0
VERTEX
8
Slice Position (CV1)
10
97.678612
20
128.728686
70
0
0
VERTEX
8
Slice Position (CV1)
10
97.678612
20
130.222482
70
0
0
VERTEX
8
Slice Position (CV1)
10
97.280359
20
130.222482
70
0
0
VERTEX
8
Slice Position (CV1)
10
97.280359
20
130.418162
70
0
0
VERTEX
8
Slice Position (CV1)
10
97.926661
20
130.418162
70
0
0
VERTEX
8
Slice Position (CV1)
10
97.926661
20
128.699746
70
0
0
VERTEX
8
Slice Position (CV1)
10
97.961110
20
128.607417
70
0
0
VERTEX
8
Slice Position (CV1)
10
98.063085
20
128.575723
70
0
0
VERTEX
8
Slice Position (CV1)
10
98.063085
20
128.575723
70
0
0
SEQEND
8
Slice Position (CV1)
0
POLYLINE
8
Slice Position (CV1)
62
7
70
0
10
0.000000
20
0.000000
66
1
0
VERTEX
8
Slice Position (CV1)
10
98.068589
20
128.568843
70
0
0
VERTEX
8
Slice Position (CV1)
10
98.068589
20
128.568843
70
0
0
SEQEND
8
Slice Position (CV1)
0
POLYLINE
8
Slice Position (CV1)
62
7
70
0
10
0.000000
20
0.000000
66
1
0
VERTEX
8
Slice Position (CV1)
10
97.926650
20
128.699756
70
0
0
VERTEX
8
Slice Position (CV1)
10
97.926650
20
128.699756
70
0
0
SEQEND
8
Slice Position (CV1)
0
POLYLINE
8
Slice Position (CV1)
62
7
70
0
10
0.000000
20
0.000000
66
1
0
VERTEX
8
Slice Position (CV1)
10
97.948690
20
128.373161
70
0
0
VERTEX
8
Slice Position (CV1)
10
97.948690
20
128.373161
70
0
0
SEQEND
8
Slice Position (CV1)
0
POLYLINE
8
Slice Position (CV1)
62
7
70
0
10
0.000000
20
0.000000
66
1
0
VERTEX
8
Slice Position (CV1)
10
97.678593
20
128.568843
70
0
0
VERTEX
8
Slice Position (CV1)
10
97.678593
20
128.728697
70
0
0
VERTEX
8
Slice Position (CV1)
10
97.678593
20
128.568843
70
0
0
SEQEND
8
Slice Position (CV1)
0
POLYLINE
8
Slice Position (CV1)
62
7
70
0
10
0.000000
20
0.000000
66
1
0
VERTEX
8
Slice Position (CV1)
10
99.632655
20
128.568843
70
0
0
VERTEX
8
Slice Position (CV1)
10
100.156312
20
128.568843
70
0
0
VERTEX
8
Slice Position (CV1)
10
100.156312
20
128.373161
70
0
0
VERTEX
8
Slice Position (CV1)
10
98.803076
20
128.373161
70
0
0
VERTEX
8
Slice Position (CV1)
10
98.803076
20
128.568843
70
0
0
VERTEX
8
Slice Position (CV1)
10
99.384608
20
128.568843
70
0
0
VERTEX
8
Slice Position (CV1)
10
99.384608
20
129.668519
70
0
0
VERTEX
8
Slice Position (CV1)
10
98.945014
20
129.668519
70
0
0
VERTEX
8
Slice Position (CV1)
10
98.945014
20
129.864202
70
0
0
VERTEX
8
Slice Position (CV1)
10
99.632655
20
129.864202
70
0
0
VERTEX
8
Slice Position (CV1)
10
99.632655
20
128.568843
70
0
0
SEQEND
8
Slice Position (CV1)
0
POLYLINE
8
Slice Position (CV1)
62
7
70
0
10
0.000000
20
0.000000
66
1
0
VERTEX
8
Slice Position (CV1)
10
99.357047
20
130.153590
70
0
0
VERTEX
8
Slice Position (CV1)
10
99.357047
20
130.418173
70
0
0
VERTEX
8
Slice Position (CV1)
10
99.632655
20
130.418173
70
0
0
VERTEX
8
Slice Position (CV1)
10
99.632655
20
130.153590
70
0
0
VERTEX
8
Slice Position (CV1)
10
99.357047
20
130.153590
70
0
0
SEQEND
8
Slice Position (CV1)
0
POLYLINE
8
Slice Position (CV1)
62
7
70
0
10
0.000000
20
0.000000
66
1
0
VERTEX
8
Slice Position (CV1)
10
100.478773
20
129.120060
70
0
0
VERTEX
8
Slice Position (CV1)
10
100.656541
20
129.691945
70
0
0
VERTEX
8
Slice Position (CV1)
10
101.170549
20
129.891761
70
0
0
VERTEX
8
Slice Position (CV1)
10
101.583963
20
129.770495
70
0
0
VERTEX
8
Slice Position (CV1)
10
101.785157
20
129.446656
70
0
0
VERTEX
8
Slice Position (CV1)
10
101.520571
20
129.427368
70
0
0
VERTEX
8
Slice Position (CV1)
10
101.410327
20
129.624426
70
0
0
VERTEX
8
Slice Position (CV1)
10
101.159524
20
129.697465
70
0
0
VERTEX
8
Slice Position (CV1)
10
100.839820
20
129.562416
70
0
0
VERTEX
8
Slice Position (CV1)
10
100.739223
20
129.125576
70
0
0
VERTEX
8
Slice Position (CV1)
10
100.839820
20
128.677714
70
0
0
VERTEX
8
Slice Position (CV1)
10
101.158148
20
128.537154
70
0
0
VERTEX
8
Slice Position (CV1)
10
101.404816
20
128.610190
70
0
0
VERTEX
8
Slice Position (CV1)
10
101.526085
20
128.833432
70
0
0
VERTEX
8
Slice Position (CV1)
10
101.787911
20
128.816895
70
0
0
VERTEX
8
Slice Position (CV1)
10
101.687314
20
128.575738
70
0
0
VERTEX
8
Slice Position (CV1)
10
101.470962
20
128.406239
70
0
0
VERTEX
8
Slice Position (CV1)
10
101.169171
20
128.345607
70
0
0
VERTEX
8
Slice Position (CV1)
10
100.655163
20
128.544044
70
0
0
VERTEX
8
Slice Position (CV1)
10
100.478773
20
129.120065
70
0
0
VERTEX
8
Slice Position (CV1)
10
100.478773
20
129.120060
70
0
0
SEQEND
8
Slice Position (CV1)
0
POLYLINE
8
Slice Position (CV1)
62
7
70
0
10
0.000000
20
0.000000
66
1
0
VERTEX
8
Slice Position (CV1)
10
102.436970
20
129.066315
70
0
0
VERTEX
8
Slice Position (CV1)
10
102.547211
20
128.673573
70
0
0
VERTEX
8
Slice Position (CV1)
10
102.851760
20
128.531635
70
0
0
VERTEX
8
Slice Position (CV1)
10
103.099806
20
128.592270
70
0
0
VERTEX
8
Slice Position (CV1)
10
103.243123
20
128.760391
70
0
0
VERTEX
8
Slice Position (CV1)
10
103.460854
20
128.698378
70
0
0
VERTEX
8
Slice Position (CV1)
10
103.237612
20
128.436552
70
0
0
VERTEX
8
Slice Position (CV1)
10
102.851760
20
128.345602
70
0
0
VERTEX
8
Slice Position (CV1)
10
102.351531
20
128.548172
70
0
0
VERTEX
8
Slice Position (CV1)
10
102.176520
20
129.128328
70
0
0
VERTEX
8
Slice Position (CV1)
10
102.347396
20
129.693324
70
0
0
VERTEX
8
Slice Position (CV1)
10
102.843491
20
129.891761
70
0
0
VERTEX
8
Slice Position (CV1)
10
103.334073
20
129.694702
70
0
0
VERTEX
8
Slice Position (CV1)
10
103.500816
20
129.099388
70
0
0
VERTEX
8
Slice Position (CV1)
10
103.500816
20
129.066315
70
0
0
VERTEX
8
Slice Position (CV1)
10
102.436970
20
129.066315
70
0
0
SEQEND
8
Slice Position (CV1)
0
POLYLINE
8
Slice Position (CV1)
62
7
70
0
10
0.000000
20
0.000000
66
1
0
VERTEX
8
Slice Position (CV1)
10
102.846248
20
129.708482
70
0
0
VERTEX
8
Slice Position (CV1)
10
102.554104
20
129.587215
70
0
0
VERTEX
8
Slice Position (CV1)
10
102.439725
20
129.256484
70
0
0
VERTEX
8
Slice Position (CV1)
10
103.244501
20
129.256484
70
0
0
VERTEX
8
Slice Position (CV1)
10
103.125645
20
129.595482
70
0
0
VERTEX
8
Slice Position (CV1)
10
102.846248
20
129.708482
70
0
0
VERTEX
8
Slice Position (CV1)
10
102.846248
20
129.708482
70
0
0
SEQEND
8
Slice Position (CV1)
0
POLYLINE
8
Slice Position (CV1)
62
7
70
0
10
0.000000
20
0.000000
66
1
0
VERTEX
8
Slice Position (CV1)
10
98.454448
20
127.360898
70
0
0
VERTEX
8
Slice Position (CV1)
10
98.371766
20
127.053595
70
0
0
VERTEX
8
Slice Position (CV1)
10
98.137499
20
126.842754
70
0
0
VERTEX
8
Slice Position (CV1)
10
97.786099
20
126.766962
70
0
0
VERTEX
8
Slice Position (CV1)
10
97.398871
20
126.766962
70
0
0
VERTEX
8
Slice Position (CV1)
10
97.398871
20
126.058649
70
0
0
VERTEX
8
Slice Position (CV1)
10
97.135664
20
126.058649
70
0
0
VERTEX
8
Slice Position (CV1)
10
97.135664
20
127.917625
70
0
0
VERTEX
8
Slice Position (CV1)
10
97.769562
20
127.917625
70
0
0
VERTEX
8
Slice Position (CV1)
10
98.275305
20
127.770176
70
0
0
VERTEX
8
Slice Position (CV1)
10
98.454448
20
127.360898
70
0
0
VERTEX
8
Slice Position (CV1)
10
98.454448
20
127.360898
70
0
0
SEQEND
8
Slice Position (CV1)
0
POLYLINE
8
Slice Position (CV1)
62
7
70
0
10
0.000000
20
0.000000
66
1
0
VERTEX
8
Slice Position (CV1)
10
98.189865
20
127.356770
70
0
0
VERTEX
8
Slice Position (CV1)
10
98.076866
20
127.619287
70
0
0
VERTEX
8
Slice Position (CV1)
10
97.737868
20
127.706792
70
0
0
VERTEX
8
Slice Position (CV1)
10
97.398871
20
127.706792
70
0
0
VERTEX
8
Slice Position (CV1)
10
97.398871
20
126.975054
70
0
0
VERTEX
8
Slice Position (CV1)
10
97.748893
20
126.975054
70
0
0
VERTEX
8
Slice Position (CV1)
10
98.071353
20
127.075651
70
0
0
VERTEX
8
Slice Position (CV1)
10
98.189865
20
127.356770
70
0
0
VERTEX
8
Slice Position (CV1)
10
98.189865
20
127.356770
70
0
0
SEQEND
8
Slice Position (CV1)
0
POLYLINE
8
Slice Position (CV1)
62
7
70
0
10
0.000000
20
0.000000
66
1
0
VERTEX
8
Slice Position (CV1)
10
100.117744
20
126.805554
70
0
0
VERTEX
8
Slice Position (CV1)
10
99.944112
20
126.229533
70
0
0
VERTEX
8
Slice Position (CV1)
10
99.445262
20
126.031096
70
0
0
VERTEX
8
Slice Position (CV1)
10
98.954680
20
126.232290
70
0
0
VERTEX
8
Slice Position (CV1)
10
98.785180
20
126.805554
70
0
0
VERTEX
8
Slice Position (CV1)
10
98.958812
20
127.382953
70
0
0
VERTEX
8
Slice Position (CV1)
10
99.453530
20
127.577258
70
0
0
VERTEX
8
Slice Position (CV1)
10
99.953758
20
127.385710
70
0
0
VERTEX
8
Slice Position (CV1)
10
100.117744
20
126.805554
70
0
0
VERTEX
8
Slice Position (CV1)
10
100.117744
20
126.805554
70
0
0
SEQEND
8
Slice Position (CV1)
0
POLYLINE
8
Slice Position (CV1)
62
7
70
0
10
0.000000
20
0.000000
66
1
0
VERTEX
8
Slice Position (CV1)
10
99.857294
20
126.805554
70
0
0
VERTEX
8
Slice Position (CV1)
10
99.762211
20
127.247905
70
0
0
VERTEX
8
Slice Position (CV1)
10
99.457663
20
127.393979
70
0
0
VERTEX
8
Slice Position (CV1)
10
99.144849
20
127.245151
70
0
0
VERTEX
8
Slice Position (CV1)
10
99.045630
20
126.805554
70
0
0
VERTEX
8
Slice Position (CV1)
10
99.144849
20
126.364581
70
0
0
VERTEX
8
Slice Position (CV1)
10
99.442505
20
126.214375
70
0
0
VERTEX
8
Slice Position (CV1)
10
99.759454
20
126.361824
70
0
0
VERTEX
8
Slice Position (CV1)
10
99.857294
20
126.805554
70
0
0
VERTEX
8
Slice Position (CV1)
10
99.857294
20
126.805554
70
0
0
SEQEND
8
Slice Position (CV1)
0
POLYLINE
8
Slice Position (CV1)
62
7
70
0
10
0.000000
20
0.000000
66
1
0
VERTEX
8
Slice Position (CV1)
10
101.760371
20
126.484472
70
0
0
VERTEX
8
Slice Position (CV1)
10
101.599139
20
126.150986
70
0
0
VERTEX
8
Slice Position (CV1)
10
101.155410
20
126.031096
70
0
0
VERTEX
8
Slice Position (CV1)
10
100.722705
20
126.119289
70
0
0
VERTEX
8
Slice Position (CV1)
10
100.529779
20
126.400411
70
0
0
VERTEX
8
Slice Position (CV1)
10
100.748888
20
126.443131
70
0
0
VERTEX
8
Slice Position (CV1)
10
100.860508
20
126.269495
70
0
0
VERTEX
8
Slice Position (CV1)
10
101.155410
20
126.215753
70
0
0
VERTEX
8
Slice Position (CV1)
10
101.434462
20
126.274665
70
0
0
VERTEX
8
Slice Position (CV1)
10
101.527479
20
126.451399
70
0
0
VERTEX
8
Slice Position (CV1)
10
101.459958
20
126.593337
70
0
0
VERTEX
8
Slice Position (CV1)
10
101.253250
20
126.682909
70
0
0
VERTEX
8
Slice Position (CV1)
10
100.791608
20
126.823469
70
0
0
VERTEX
8
Slice Position (CV1)
10
100.641402
20
126.950249
70
0
0
VERTEX
8
Slice Position (CV1)
10
100.589035
20
127.141797
70
0
0
VERTEX
8
Slice Position (CV1)
10
100.735106
20
127.458746
70
0
0
VERTEX
8
Slice Position (CV1)
10
101.158167
20
127.573122
70
0
0
VERTEX
8
Slice Position (CV1)
10
101.545394
20
127.480793
70
0
0
VERTEX
8
Slice Position (CV1)
10
101.725919
20
127.214832
70
0
0
VERTEX
8
Slice Position (CV1)
10
101.502675
20
127.187273
70
0
0
VERTEX
8
Slice Position (CV1)
10
101.404835
20
127.337479
70
0
0
VERTEX
8
Slice Position (CV1)
10
101.158167
20
127.388465
70
0
0
VERTEX
8
Slice Position (CV1)
10
100.904951
20
127.336444
70
0
0
VERTEX
8
Slice Position (CV1)
10
100.820545
20
127.180381
70
0
0
VERTEX
8
Slice Position (CV1)
10
100.877044
20
127.048089
70
0
0
VERTEX
8
Slice Position (CV1)
10
101.061702
20
126.968164
70
0
0
VERTEX
8
Slice Position (CV1)
10
101.225691
20
126.925444
70
0
0
VERTEX
8
Slice Position (CV1)
10
101.548151
20
126.816579
70
0
0
VERTEX
8
Slice Position (CV1)
10
101.703869
20
126.681531
70
0
0
VERTEX
8
Slice Position (CV1)
10
101.760371
20
126.484472
70
0
0
VERTEX
8
Slice Position (CV1)
10
101.760371
20
126.484472
70
0
0
SEQEND
8
Slice Position (CV1)
0
POLYLINE
8
Text
62
7
70
0
10
0.000000
20
0.000000
66
1
0
VERTEX
8
Text
10
110.853131
20
128.313836
70
0
0
VERTEX
8
Text
10
110.410780
20
128.925687
70
0
0
VERTEX
8
Text
10
109.965672
20
128.313836
70
0
0
VERTEX
8
Text
10
109.698332
20
128.313836
70
0
0
VERTEX
8
Text
10
110.270217
20
129.080026
70
0
0
VERTEX
8
Text
10
109.723136
20
129.804875
70
0
0
VERTEX
8
Text
10
109.997366
20
129.804875
70
0
0
VERTEX
8
Text
10
110.410780
20
129.224721
70
0
0
VERTEX
8
Text
10
110.821434
20
129.804875
70
0
0
VERTEX
8
Text
10
111.098420
20
129.804875
70
0
0
VERTEX
8
Text
10
110.551339
20
129.082783
70
0
0
VERTEX
8
Text
10
111.130117
20
128.313836
70
0
0
VERTEX
8
Text
10
110.853131
20
128.313836
70
0
0
SEQEND
8
Text
0
POLYLINE
8
Text
62
7
70
0
10
0.000000
20
0.000000
66
1
0
VERTEX
8
Text
10
120.971152
20
127.755605
70
0
0
VERTEX
8
Text
10
120.800277
20
127.770766
70
0
0
VERTEX
8
Text
10
120.800277
20
127.956802
70
0
0
VERTEX
8
Text
10
120.916032
20
127.948547
70
0
0
VERTEX
8
Text
10
121.119980
20
128.029851
70
0
0
VERTEX
8
Text
10
121.282590
20
128.288923
70
0
0
VERTEX
8
Text
10
121.307382
20
128.356447
70
0
0
VERTEX
8
Text
10
120.659701
20
129.832328
70
0
0
VERTEX
8
Text
10
120.924287
20
129.832328
70
0
0
VERTEX
8
Text
10
121.288088
20
128.947626
70
0
0
VERTEX
8
Text
10
121.423137
20
128.597604
70
0
0
VERTEX
8
Text
10
121.479636
20
128.749189
70
0
0
VERTEX
8
Text
10
121.906829
20
129.832328
70
0
0
VERTEX
8
Text
10
122.168658
20
129.832328
70
0
0
VERTEX
8
Text
10
121.540270
20
128.341289
70
0
0
VERTEX
8
Text
10
121.285331
20
127.886534
70
0
0
VERTEX
8
Text
10
120.971139
20
127.755621
70
0
0
VERTEX
8
Text
10
120.971152
20
127.755605
70
0
0
SEQEND
8
Text
0
POLYLINE
8
Text
62
7
70
0
10
0.000000
20
0.000000
66
1
0
VERTEX
8
Text
10
85.737444
20
143.611691
70
0
0
VERTEX
8
Text
10
85.654762
20
143.304389
70
0
0
VERTEX
8
Text
10
85.420495
20
143.093548
70
0
0
VERTEX
8
Text
10
85.069094
20
143.017755
70
0
0
VERTEX
8
Text
10
84.681866
20
143.017755
70
0
0
VERTEX
8
Text
10
84.681866
20
142.309443
70
0
0
VERTEX
8
Text
10
84.418659
20
142.309443
70
0
0
VERTEX
8
Text
10
84.418659
20
144.168419
70
0
0
VERTEX
8
Text
10
85.052557
20
144.168419
70
0
0
VERTEX
8
Text
10
85.558300
20
144.020970
70
0
0
VERTEX
8
Text
10
85.737444
20
143.611691
70
0
0
VERTEX
8
Text
10
85.737444
20
143.611691
70
0
0
SEQEND
8
Text
0
POLYLINE
8
Text
62
7
70
0
10
0.000000
20
0.000000
66
1
0
VERTEX
8
Text
10
85.472861
20
143.607564
70
0
0
VERTEX
8
Text
10
85.359861
20
143.870081
70
0
0
VERTEX
8
Text
10
85.020863
20
143.957586
70
0
0
VERTEX
8
Text
10
84.681866
20
143.957586
70
0
0
VERTEX
8
Text
10
84.681866
20
143.225845
70
0
0
VERTEX
8
Text
10
85.031888
20
143.225845
70
0
0
VERTEX
8
Text
10
85.354349
20
143.326442
70
0
0
VERTEX
8
Text
10
85.472861
20
143.607564
70
0
0
VERTEX
8
Text
10
85.472861
20
143.607564
70
0
0
SEQEND
8
Text
0
POLYLINE
8
Text
62
7
70
0
10
0.000000
20
0.000000
66
1
0
VERTEX
8
Text
10
86.915669
20
142.505131
70
0
0
VERTEX
8
Text
10
87.439324
20
142.505131
70
0
0
VERTEX
8
Text
10
87.439324
20
142.309448
70
0
0
VERTEX
8
Text
10
86.086090
20
142.309448
70
0
0
VERTEX
8
Text
10
86.086090
20
142.505131
70
0
0
VERTEX
8
Text
10
86.667622
20
142.505131
70
0
0
VERTEX
8
Text
10
86.667622
20
143.604807
70
0
0
VERTEX
8
Text
10
86.228028
20
143.604807
70
0
0
VERTEX
8
Text
10
86.228028
20
143.800490
70
0
0
VERTEX
8
Text
10
86.915669
20
143.800490
70
0
0
VERTEX
8
Text
10
86.915669
20
142.505131
70
0
0
SEQEND
8
Text
0
POLYLINE
8
Text
62
7
70
0
10
0.000000
20
0.000000
66
1
0
VERTEX
8
Text
10
86.640061
20
144.089878
70
0
0
VERTEX
8
Text
10
86.640061
20
144.354461
70
0
0
VERTEX
8
Text
10
86.915669
20
144.354461
70
0
0
VERTEX
8
Text
10
86.915669
20
144.089878
70
0
0
VERTEX
8
Text
10
86.640061
20
144.089878
70
0
0
SEQEND
8
Text
0
POLYLINE
8
Text
62
7
70
0
10
0.000000
20
0.000000
66
1
0
VERTEX
8
Text
10
87.844469
20
143.604807
70
0
0
VERTEX
8
Text
10
87.844469
20
143.800490
70
0
0
VERTEX
8
Text
10
88.078736
20
143.800490
70
0
0
VERTEX
8
Text
10
88.158661
20
144.189096
70
0
0
VERTEX
8
Text
10
88.324028
20
144.189096
70
0
0
VERTEX
8
Text
10
88.324028
20
143.800490
70
0
0
VERTEX
8
Text
10
88.919340
20
143.800490
70
0
0
VERTEX
8
Text
10
88.919340
20
143.604807
70
0
0
VERTEX
8
Text
10
88.324028
20
143.604807
70
0
0
VERTEX
8
Text
10
88.324028
20
142.706325
70
0
0
VERTEX
8
Text
10
88.381906
20
142.545094
70
0
0
VERTEX
8
Text
10
88.574832
20
142.492728
70
0
0
VERTEX
8
Text
10
88.984110
20
142.539583
70
0
0
VERTEX
8
Text
10
88.984110
20
142.350789
70
0
0
VERTEX
8
Text
10
88.522466
20
142.287401
70
0
0
VERTEX
8
Text
10
88.187601
20
142.381108
70
0
0
VERTEX
8
Text
10
88.075979
20
142.680142
70
0
0
VERTEX
8
Text
10
88.075979
20
143.604807
70
0
0
VERTEX
8
Text
10
87.844469
20
143.604807
70
0
0
SEQEND
8
Text
0
POLYLINE
8
Text
62
7
70
0
10
0.000000
20
0.000000
66
1
0
VERTEX
8
Text
10
89.455399
20
143.056348
70
0
0
VERTEX
8
Text
10
89.633167
20
143.628233
70
0
0
VERTEX
8
Text
10
90.147175
20
143.828049
70
0
0
VERTEX
8
Text
10
90.560588
20
143.706783
70
0
0
VERTEX
8
Text
10
90.761782
20
143.382944
70
0
0
VERTEX
8
Text
10
90.497197
20
143.363655
70
0
0
VERTEX
8
Text
10
90.386956
20
143.560714
70
0
0
VERTEX
8
Text
10
90.136152
20
143.633752
70
0
0
VERTEX
8
Text
10
89.816446
20
143.498704
70
0
0
VERTEX
8
Text
10
89.715849
20
143.061864
70
0
0
VERTEX
8
Text
10
89.816446
20
142.614002
70
0
0
VERTEX
8
Text
10
90.134774
20
142.473439
70
0
0
VERTEX
8
Text
10
90.381442
20
142.546478
70
0
0
VERTEX
8
Text
10
90.502711
20
142.769719
70
0
0
VERTEX
8
Text
10
90.764537
20
142.753183
70
0
0
VERTEX
8
Text
10
90.663940
20
142.512026
70
0
0
VERTEX
8
Text
10
90.447587
20
142.342526
70
0
0
VERTEX
8
Text
10
90.145796
20
142.281892
70
0
0
VERTEX
8
Text
10
89.631788
20
142.480332
70
0
0
VERTEX
8
Text
10
89.455399
20
143.056353
70
0
0
VERTEX
8
Text
10
89.455399
20
143.056348
70
0
0
SEQEND
8
Text
0
POLYLINE
8
Text
62
7
70
0
10
0.000000
20
0.000000
66
1
0
VERTEX
8
Text
10
91.224803
20
144.354461
70
0
0
VERTEX
8
Text
10
91.474228
20
144.354461
70
0
0
VERTEX
8
Text
10
91.474228
20
143.817026
70
0
0
VERTEX
8
Text
10
91.461819
20
143.545551
70
0
0
VERTEX
8
Text
10
91.465946
20
143.545551
70
0
0
VERTEX
8
Text
10
91.655083
20
143.757424
70
0
0
VERTEX
8
Text
10
91.933102
20
143.828049
70
0
0
VERTEX
8
Text
10
92.294839
20
143.696791
70
0
0
VERTEX
8
Text
10
92.415418
20
143.303016
70
0
0
VERTEX
8
Text
10
92.415418
20
142.309448
70
0
0
VERTEX
8
Text
10
92.165991
20
142.309448
70
0
0
VERTEX
8
Text
10
92.165991
20
143.267186
70
0
0
VERTEX
8
Text
10
92.092955
20
143.545551
70
0
0
VERTEX
8
Text
10
91.862823
20
143.636501
70
0
0
VERTEX
8
Text
10
91.581701
20
143.511100
70
0
0
VERTEX
8
Text
10
91.472839
20
143.173481
70
0
0
VERTEX
8
Text
10
91.472839
20
142.309448
70
0
0
VERTEX
8
Text
10
91.224789
20
142.309448
70
0
0
VERTEX
8
Text
10
91.224803
20
144.354461
70
0
0
SEQEND
8
Text
0
POLYLINE
8
Text
62
7
70
0
10
0.000000
20
0.000000
66
1
0
VERTEX
8
Text
10
98.447355
20
142.277823
70
0
0
VERTEX
8
Text
10
98.257186
20
142.804234
70
0
0
VERTEX
8
Text
10
97.481347
20
142.804234
70
0
0
VERTEX
8
Text
10
97.292556
20
142.277823
70
0
0
VERTEX
8
Text
10
97.022459
20
142.277823
70
0
0
VERTEX
8
Text
10
97.725260
20
144.136801
70
0
0
VERTEX
8
Text
10
98.024295
20
144.136801
70
0
0
VERTEX
8
Text
10
98.714695
20
142.277823
70
0
0
VERTEX
8
Text
10
98.447355
20
142.277823
70
0
0
SEQEND
8
Text
0
POLYLINE
8
Text
62
7
70
0
10
0.000000
20
0.000000
66
1
0
VERTEX
8
Text
10
97.871334
20
143.938364
70
0
0
VERTEX
8
Text
10
97.854798
20
143.884619
70
0
0
VERTEX
8
Text
10
97.759712
20
143.592475
70
0
0
VERTEX
8
Text
10
97.551628
20
143.009564
70
0
0
VERTEX
8
Text
10
98.189662
20
143.009564
70
0
0
VERTEX
8
Text
10
97.951259
20
143.698583
70
0
0
VERTEX
8
Text
10
97.871334
20
143.938364
70
0
0
SEQEND
8
Text
0
POLYLINE
8
Text
62
7
70
0
10
0.000000
20
0.000000
66
1
0
VERTEX
8
Text
10
98.977899
20
143.573181
70
0
0
VERTEX
8
Text
10
98.977899
20
143.768864
70
0
0
VERTEX
8
Text
10
99.212167
20
143.768864
70
0
0
VERTEX
8
Text
10
99.292094
20
144.157471
70
0
0
VERTEX
8
Text
10
99.457459
20
144.157471
70
0
0
VERTEX
8
Text
10
99.457459
20
143.768864
70
0
0
VERTEX
8
Text
10
100.052773
20
143.768864
70
0
0
VERTEX
8
Text
10
100.052773
20
143.573181
70
0
0
VERTEX
8
Text
10
99.457459
20
143.573181
70
0
0
VERTEX
8
Text
10
99.457459
20
142.674700
70
0
0
VERTEX
8
Text
10
99.515336
20
142.513468
70
0
0
VERTEX
8
Text
10
99.708262
20
142.461102
70
0
0
VERTEX
8
Text
10
100.117540
20
142.507957
70
0
0
VERTEX
8
Text
10
100.117540
20
142.319164
70
0
0
VERTEX
8
Text
10
99.655896
20
142.255775
70
0
0
VERTEX
8
Text
10
99.321032
20
142.349482
70
0
0
VERTEX
8
Text
10
99.209412
20
142.648517
70
0
0
VERTEX
8
Text
10
99.209412
20
143.573181
70
0
0
VERTEX
8
Text
10
98.977899
20
143.573181
70
0
0
SEQEND
8
Text
0
POLYLINE
8
Text
62
7
70
0
10
0.000000
20
0.000000
66
1
0
VERTEX
8
Text
10
100.671511
20
143.573181
70
0
0
VERTEX
8
Text
10
100.671511
20
143.768864
70
0
0
VERTEX
8
Text
10
100.905778
20
143.768864
70
0
0
VERTEX
8
Text
10
100.985706
20
144.157471
70
0
0
VERTEX
8
Text
10
101.151070
20
144.157471
70
0
0
VERTEX
8
Text
10
101.151070
20
143.768864
70
0
0
VERTEX
8
Text
10
101.746385
20
143.768864
70
0
0
VERTEX
8
Text
10
101.746385
20
143.573181
70
0
0
VERTEX
8
Text
10
101.151070
20
143.573181
70
0
0
VERTEX
8
Text
10
101.151070
20
142.674700
70
0
0
VERTEX
8
Text
10
101.208948
20
142.513468
70
0
0
VERTEX
8
Text
10
101.401874
20
142.461102
70
0
0
VERTEX
8
Text
10
101.811152
20
142.507957
70
0
0
VERTEX
8
Text
10
101.811152
20
142.319164
70
0
0
VERTEX
8
Text
10
101.349508
20
142.255775
70
0
0
VERTEX
8
Text
10
101.014644
20
142.349482
70
0
0
VERTEX
8
Text
10
100.903024
20
142.648517
70
0
0
VERTEX
8
Text
10
100.903024
20
143.573181
70
0
0
VERTEX
8
Text
10
100.671511
20
143.573181
70
0
0
SEQEND
8
Text
0
POLYLINE
8
Text
62
7
70
0
10
0.000000
20
0.000000
66
1
0
VERTEX
8
Text
10
109.158828
20
142.268909
70
0
0
VERTEX
8
Text
10
108.654467
20
143.061282
70
0
0
VERTEX
8
Text
10
108.326493
20
143.061282
70
0
0
VERTEX
8
Text
10
108.326493
20
142.268909
70
0
0
VERTEX
8
Text
10
108.063285
20
142.268909
70
0
0
VERTEX
8
Text
10
108.063285
20
144.127888
70
0
0
VERTEX
8
Text
10
108.727503
20
144.127888
70
0
0
VERTEX
8
Text
10
109.216706
20
143.994218
70
0
0
VERTEX
8
Text
10
109.384827
20
143.613877
70
0
0
VERTEX
8
Text
10
109.255293
20
143.267990
70
0
0
VERTEX
8
Text
10
108.910782
20
143.091601
70
0
0
VERTEX
8
Text
10
109.461998
20
142.268909
70
0
0
VERTEX
8
Text
10
109.158828
20
142.268909
70
0
0
SEQEND
8
Text
0
POLYLINE
8
Text
62
7
70
0
10
0.000000
20
0.000000
66
1
0
VERTEX
8
Text
10
109.120244
20
143.609744
70
0
0
VERTEX
8
Text
10
109.015513
20
143.840221
70
0
0
VERTEX
8
Text
10
108.701319
20
143.917047
70
0
0
VERTEX
8
Text
10
108.326493
20
143.917047
70
0
0
VERTEX
8
Text
10
108.326493
20
143.269366
70
0
0
VERTEX
8
Text
10
108.712345
20
143.269366
70
0
0
VERTEX
8
Text
10
109.014133
20
143.357562
70
0
0
VERTEX
8
Text
10
109.120244
20
143.609744
70
0
0
VERTEX
8
Text
10
109.120244
20
143.609744
70
0
0
SEQEND
8
Text
0
POLYLINE
8
Text
62
7
70
0
10
0.000000
20
0.000000
66
1
0
VERTEX
8
Text
10
109.977385
20
142.962063
70
0
0
VERTEX
8
Text
10
110.087628
20
142.569322
70
0
0
VERTEX
8
Text
10
110.392174
20
142.427383
70
0
0
VERTEX
8
Text
10
110.640223
20
142.488018
70
0
0
VERTEX
8
Text
10
110.783540
20
142.656139
70
0
0
VERTEX
8
Text
10
111.001268
20
142.594126
70
0
0
VERTEX
8
Text
10
110.778026
20
142.332300
70
0
0
VERTEX
8
Text
10
110.392174
20
142.241350
70
0
0
VERTEX
8
Text
10
109.891946
20
142.443920
70
0
0
VERTEX
8
Text
10
109.716934
20
143.024076
70
0
0
VERTEX
8
Text
10
109.887813
20
143.589072
70
0
0
VERTEX
8
Text
10
110.383906
20
143.787509
70
0
0
VERTEX
8
Text
10
110.874490
20
143.590451
70
0
0
VERTEX
8
Text
10
111.041233
20
142.995136
70
0
0
VERTEX
8
Text
10
111.041233
20
142.962063
70
0
0
VERTEX
8
Text
10
109.977385
20
142.962063
70
0
0
SEQEND
8
Text
0
POLYLINE
8
Text
62
7
70
0
10
0.000000
20
0.000000
66
1
0
VERTEX
8
Text
10
110.386663
20
143.604230
70
0
0
VERTEX
8
Text
10
110.094518
20
143.482964
70
0
0
VERTEX
8
Text
10
109.980142
20
143.152232
70
0
0
VERTEX
8
Text
10
110.784916
20
143.152232
70
0
0
VERTEX
8
Text
10
110.666061
20
143.491231
70
0
0
VERTEX
8
Text
10
110.386663
20
143.604230
70
0
0
VERTEX
8
Text
10
110.386663
20
143.604230
70
0
0
SEQEND
8
Text
0
POLYLINE
8
Text
62
7
70
0
10
0.000000
20
0.000000
66
1
0
VERTEX
8
Text
10
112.377933
20
142.471482
70
0
0
VERTEX
8
Text
10
112.765161
20
142.464602
70
0
0
VERTEX
8
Text
10
112.765161
20
142.268919
70
0
0
VERTEX
8
Text
10
112.255286
20
142.274423
70
0
0
VERTEX
8
Text
10
112.027911
20
142.398446
70
0
0
VERTEX
8
Text
10
111.993460
20
142.624445
70
0
0
VERTEX
8
Text
10
111.993460
20
144.118241
70
0
0
VERTEX
8
Text
10
111.595204
20
144.118241
70
0
0
VERTEX
8
Text
10
111.595204
20
144.313921
70
0
0
VERTEX
8
Text
10
112.241506
20
144.313921
70
0
0
VERTEX
8
Text
10
112.241506
20
142.595505
70
0
0
VERTEX
8
Text
10
112.275957
20
142.503176
70
0
0
VERTEX
8
Text
10
112.377933
20
142.471482
70
0
0
VERTEX
8
Text
10
112.377933
20
142.471482
70
0
0
SEQEND
8
Text
0
POLYLINE
8
Text
62
7
70
0
10
0.000000
20
0.000000
66
1
0
VERTEX
8
Text
10
112.383436
20
142.464602
70
0
0
VERTEX
8
Text
10
112.383436
20
142.464602
70
0
0
SEQEND
8
Text
0
POLYLINE
8
Text
62
7
70
0
10
0.000000
20
0.000000
66
1
0
VERTEX
8
Text
10
112.241498
20
142.595515
70
0
0
VERTEX
8
Text
10
112.241498
20
142.595515
70
0
0
SEQEND
8
Text
0
POLYLINE
8
Text
62
7
70
0
10
0.000000
20
0.000000
66
1
0
VERTEX
8
Text
10
112.263538
20
142.268919
70
0
0
VERTEX
8
Text
10
112.263538
20
142.268919
70
0
0
SEQEND
8
Text
0
POLYLINE
8
Text
62
7
70
0
10
0.000000
20
0.000000
66
1
0
VERTEX
8
Text
10
111.993444
20
142.464602
70
0
0
VERTEX
8
Text
10
111.993444
20
142.624455
70
0
0
VERTEX
8
Text
10
111.993444
20
142.464602
70
0
0
SEQEND
8
Text
0
POLYLINE
8
Text
62
7
70
0
10
0.000000
20
0.000000
66
1
0
VERTEX
8
Text
10
118.748277
20
143.245165
70
0
0
VERTEX
8
Text
10
118.536057
20
142.542363
70
0
0
VERTEX
8
Text
10
117.931096
20
142.297074
70
0
0
VERTEX
8
Text
10
117.421221
20
142.297074
70
0
0
VERTEX
8
Text
10
117.421221
20
144.156050
70
0
0
VERTEX
8
Text
10
117.849793
20
144.156050
70
0
0
VERTEX
8
Text
10
118.525032
20
143.928672
70
0
0
VERTEX
8
Text
10
118.748277
20
143.245165
70
0
0
VERTEX
8
Text
10
118.748277
20
143.245165
70
0
0
SEQEND
8
Text
0
POLYLINE
8
Text
62
7
70
0
10
0.000000
20
0.000000
66
1
0
VERTEX
8
Text
10
118.483691
20
143.245165
70
0
0
VERTEX
8
Text
10
118.332106
20
143.774333
70
0
0
VERTEX
8
Text
10
117.851171
20
143.941076
70
0
0
VERTEX
8
Text
10
117.684428
20
143.941076
70
0
0
VERTEX
8
Text
10
117.684428
20
142.512047
70
0
0
VERTEX
8
Text
10
117.907670
20
142.512047
70
0
0
VERTEX
8
Text
10
118.341753
20
142.695327
70
0
0
VERTEX
8
Text
10
118.483691
20
143.245165
70
0
0
VERTEX
8
Text
10
118.483691
20
143.245165
70
0
0
SEQEND
8
Text
0
POLYLINE
8
Text
62
7
70
0
10
0.000000
20
0.000000
66
1
0
VERTEX
8
Text
10
119.335320
20
142.990228
70
0
0
VERTEX
8
Text
10
119.445564
20
142.597487
70
0
0
VERTEX
8
Text
10
119.750112
20
142.455548
70
0
0
VERTEX
8
Text
10
119.998159
20
142.516183
70
0
0
VERTEX
8
Text
10
120.141476
20
142.684302
70
0
0
VERTEX
8
Text
10
120.359206
20
142.622291
70
0
0
VERTEX
8
Text
10
120.135962
20
142.360463
70
0
0
VERTEX
8
Text
10
119.750112
20
142.269512
70
0
0
VERTEX
8
Text
10
119.249884
20
142.472085
70
0
0
VERTEX
8
Text
10
119.074870
20
143.052239
70
0
0
VERTEX
8
Text
10
119.245748
20
143.617237
70
0
0
VERTEX
8
Text
10
119.741844
20
143.815674
70
0
0
VERTEX
8
Text
10
120.232426
20
143.618616
70
0
0
VERTEX
8
Text
10
120.399169
20
143.023301
70
0
0
VERTEX
8
Text
10
120.399169
20
142.990228
70
0
0
VERTEX
8
Text
10
119.335320
20
142.990228
70
0
0
SEQEND
8
Text
0
POLYLINE
8
Text
62
7
70
0
10
0.000000
20
0.000000
66
1
0
VERTEX
8
Text
10
119.744598
20
143.632395
70
0
0
VERTEX
8
Text
10
119.452454
20
143.511126
70
0
0
VERTEX
8
Text
10
119.338077
20
143.180397
70
0
0
VERTEX
8
Text
10
120.142854
20
143.180397
70
0
0
VERTEX
8
Text
10
120.023997
20
143.519396
70
0
0
VERTEX
8
Text
10
119.744598
20
143.632395
70
0
0
VERTEX
8
Text
10
119.744598
20
143.632395
70
0
0
SEQEND
8
Text
0
POLYLINE
8
Text
62
7
70
0
10
0.000000
20
0.000000
66
1
0
VERTEX
8
Text
10
122.045928
20
142.722888
70
0
0
VERTEX
8
Text
10
121.884697
20
142.389403
70
0
0
VERTEX
8
Text
10
121.440967
20
142.269512
70
0
0
VERTEX
8
Text
10
121.008263
20
142.357708
70
0
0
VERTEX
8
Text
10
120.815337
20
142.638828
70
0
0
VERTEX
8
Text
10
121.034446
20
142.681547
70
0
0
VERTEX
8
Text
10
121.146065
20
142.507915
70
0
0
VERTEX
8
Text
10
121.440967
20
142.454170
70
0
0
VERTEX
8
Text
10
121.720021
20
142.513081
70
0
0
VERTEX
8
Text
10
121.813040
20
142.689815
70
0
0
VERTEX
8
Text
10
121.745515
20
142.831754
70
0
0
VERTEX
8
Text
10
121.538807
20
142.921326
70
0
0
VERTEX
8
Text
10
121.077165
20
143.061885
70
0
0
VERTEX
8
Text
10
120.926959
20
143.188666
70
0
0
VERTEX
8
Text
10
120.874593
20
143.380213
70
0
0
VERTEX
8
Text
10
121.020664
20
143.697162
70
0
0
VERTEX
8
Text
10
121.443724
20
143.811539
70
0
0
VERTEX
8
Text
10
121.830952
20
143.719213
70
0
0
VERTEX
8
Text
10
122.011477
20
143.453249
70
0
0
VERTEX
8
Text
10
121.788235
20
143.425690
70
0
0
VERTEX
8
Text
10
121.690392
20
143.575896
70
0
0
VERTEX
8
Text
10
121.443724
20
143.626884
70
0
0
VERTEX
8
Text
10
121.190508
20
143.574862
70
0
0
VERTEX
8
Text
10
121.106103
20
143.418797
70
0
0
VERTEX
8
Text
10
121.162602
20
143.286506
70
0
0
VERTEX
8
Text
10
121.347260
20
143.206580
70
0
0
VERTEX
8
Text
10
121.511248
20
143.163861
70
0
0
VERTEX
8
Text
10
121.833709
20
143.054996
70
0
0
VERTEX
8
Text
10
121.989426
20
142.919947
70
0
0
VERTEX
8
Text
10
122.045928
20
142.722888
70
0
0
VERTEX
8
Text
10
122.045928
20
142.722888
70
0
0
SEQEND
8
Text
0
POLYLINE
8
Text
62
7
70
0
10
0.000000
20
0.000000
66
1
0
VERTEX
8
Text
10
122.540643
20
143.592432
70
0
0
VERTEX
8
Text
10
122.540643
20
143.788113
70
0
0
VERTEX
8
Text
10
122.774910
20
143.788113
70
0
0
VERTEX
8
Text
10
122.854838
20
144.176722
70
0
0
VERTEX
8
Text
10
123.020202
20
144.176722
70
0
0
VERTEX
8
Text
10
123.020202
20
143.788113
70
0
0
VERTEX
8
Text
10
123.615517
20
143.788113
70
0
0
VERTEX
8
Text
10
123.615517
20
143.592432
70
0
0
VERTEX
8
Text
10
123.020202
20
143.592432
70
0
0
VERTEX
8
Text
10
123.020202
20
142.693948
70
0
0
VERTEX
8
Text
10
123.078080
20
142.532719
70
0
0
VERTEX
8
Text
10
123.271006
20
142.480353
70
0
0
VERTEX
8
Text
10
123.680284
20
142.527205
70
0
0
VERTEX
8
Text
10
123.680284
20
142.338415
70
0
0
VERTEX
8
Text
10
123.218639
20
142.275023
70
0
0
VERTEX
8
Text
10
122.883775
20
142.368731
70
0
0
VERTEX
8
Text
10
122.772156
20
142.667765
70
0
0
VERTEX
8
Text
10
122.772156
20
143.592432
70
0
0
VERTEX
8
Text
10
122.540643
20
143.592432
70
0
0
SEQEND
8
Text
0
POLYLINE
8
Text
62
7
70
0
10
0.000000
20
0.000000
66
1
0
VERTEX
8
Text
10
125.412482
20
143.562114
70
0
0
VERTEX
8
Text
10
125.120338
20
143.588308
70
0
0
VERTEX
8
Text
10
124.762045
20
143.421565
70
0
0
VERTEX
8
Text
10
124.625620
20
142.997129
70
0
0
VERTEX
8
Text
10
124.625620
20
142.297084
70
0
0
VERTEX
8
Text
10
124.377574
20
142.297084
70
0
0
VERTEX
8
Text
10
124.377574
20
143.263090
70
0
0
VERTEX
8
Text
10
124.358286
20
143.509761
70
0
0
VERTEX
8
Text
10
124.305919
20
143.788123
70
0
0
VERTEX
8
Text
10
124.541565
20
143.788123
70
0
0
VERTEX
8
Text
10
124.607711
20
143.443615
70
0
0
VERTEX
8
Text
10
124.614590
20
143.443615
70
0
0
VERTEX
8
Text
10
124.749638
20
143.669611
70
0
0
VERTEX
8
Text
10
124.906734
20
143.778477
70
0
0
VERTEX
8
Text
10
125.128601
20
143.815685
70
0
0
VERTEX
8
Text
10
125.412477
20
143.792269
70
0
0
VERTEX
8
Text
10
125.412482
20
143.562114
70
0
0
SEQEND
8
Text
0
POLYLINE
8
Text
62
7
70
0
10
0.000000
20
0.000000
66
1
0
VERTEX
8
Text
10
98.109625
20
210.912468
70
0
0
VERTEX
8
Text
10
97.776828
20
211.833688
70
0
0
VERTEX
8
Text
10
96.419115
20
211.833688
70
0
0
VERTEX
8
Text
10
96.088730
20
210.912468
70
0
0
VERTEX
8
Text
10
95.616063
20
210.912468
70
0
0
VERTEX
8
Text
10
96.845964
20
214.165675
70
0
0
VERTEX
8
Text
10
97.369274
20
214.165675
70
0
0
VERTEX
8
Text
10
98.577469
20
210.912468
70
0
0
VERTEX
8
Text
10
98.109625
20
210.912468
70
0
0
SEQEND
8
Text
0
POLYLINE
8
Text
62
7
70
0
10
0.000000
20
0.000000
66
1
0
VERTEX
8
Text
10
97.101591
20
213.818409
70
0
0
VERTEX
8
Text
10
97.072650
20
213.724358
70
0
0
VERTEX
8
Text
10
96.906252
20
213.213104
70
0
0
VERTEX
8
Text
10
96.542106
20
212.193013
70
0
0
VERTEX
8
Text
10
97.658662
20
212.193013
70
0
0
VERTEX
8
Text
10
97.241460
20
213.398797
70
0
0
VERTEX
8
Text
10
97.101591
20
213.818409
70
0
0
SEQEND
8
Text
0
POLYLINE
8
Text
62
7
70
0
10
0.000000
20
0.000000
66
1
0
VERTEX
8
Text
10
101.073442
20
210.912468
70
0
0
VERTEX
8
Text
10
100.740647
20
211.833688
70
0
0
VERTEX
8
Text
10
99.382934
20
211.833688
70
0
0
VERTEX
8
Text
10
99.052549
20
210.912468
70
0
0
VERTEX
8
Text
10
98.579882
20
210.912468
70
0
0
VERTEX
8
Text
10
99.809780
20
214.165675
70
0
0
VERTEX
8
Text
10
100.333091
20
214.165675
70
0
0
VERTEX
8
Text
10
101.541285
20
210.912468
70
0
0
VERTEX
8
Text
10
101.073442
20
210.912468
70
0
0
SEQEND
8
Text
0
POLYLINE
8
Text
62
7
70
0
10
0.000000
20
0.000000
66
1
0
VERTEX
8
Text
10
100.065407
20
213.818409
70
0
0
VERTEX
8
Text
10
100.036467
20
213.724358
70
0
0
VERTEX
8
Text
10
99.870071
20
213.213104
70
0
0
VERTEX
8
Text
10
99.505922
20
212.193013
70
0
0
VERTEX
8
Text
10
100.622479
20
212.193013
70
0
0
VERTEX
8
Text
10
100.205279
20
213.398797
70
0
0
VERTEX
8
Text
10
100.065407
20
213.818409
70
0
0
SEQEND
8
Text
0
POLYLINE
8
Text
62
7
70
0
10
0.000000
20
0.000000
66
1
0
VERTEX
8
Text
10
103.851569
20
210.912468
70
0
0
VERTEX
8
Text
10
102.968936
20
212.299121
70
0
0
VERTEX
8
Text
10
102.394981
20
212.299121
70
0
0
VERTEX
8
Text
10
102.394981
20
210.912468
70
0
0
VERTEX
8
Text
10
101.934371
20
210.912468
70
0
0
VERTEX
8
Text
10
101.934371
20
214.165675
70
0
0
VERTEX
8
Text
10
103.096748
20
214.165675
70
0
0
VERTEX
8
Text
10
103.952854
20
213.931752
70
0
0
VERTEX
8
Text
10
104.173514
20
213.649598
70
0
0
VERTEX
8
Text
10
104.247067
20
213.266159
70
0
0
VERTEX
8
Text
10
104.020378
20
212.660856
70
0
0
VERTEX
8
Text
10
103.417486
20
212.352175
70
0
0
VERTEX
8
Text
10
104.382113
20
210.912468
70
0
0
VERTEX
8
Text
10
103.851569
20
210.912468
70
0
0
SEQEND
8
Text
0
POLYLINE
8
Text
62
7
70
0
10
0.000000
20
0.000000
66
1
0
VERTEX
8
Text
10
103.784044
20
213.258925
70
0
0
VERTEX
8
Text
10
103.600765
20
213.662260
70
0
0
VERTEX
8
Text
10
103.050927
20
213.796706
70
0
0
VERTEX
8
Text
10
102.394981
20
213.796706
70
0
0
VERTEX
8
Text
10
102.394981
20
212.663267
70
0
0
VERTEX
8
Text
10
103.070221
20
212.663267
70
0
0
VERTEX
8
Text
10
103.598355
20
212.817608
70
0
0
VERTEX
8
Text
10
103.784044
20
213.258925
70
0
0
VERTEX
8
Text
10
103.784044
20
213.258925
70
0
0
SEQEND
8
Text
0
POLYLINE
8
Text
62
7
70
0
10
0.000000
20
0.000000
66
1
0
VERTEX
8
Text
10
104.898190
20
210.912468
70
0
0
VERTEX
8
Text
10
104.898190
20
214.165675
70
0
0
VERTEX
8
Text
10
107.114419
20
214.165675
70
0
0
VERTEX
8
Text
10
107.114419
20
213.789469
70
0
0
VERTEX
8
Text
10
105.358800
20
213.789469
70
0
0
VERTEX
8
Text
10
105.358800
20
212.771788
70
0
0
VERTEX
8
Text
10
106.969727
20
212.771788
70
0
0
VERTEX
8
Text
10
106.969727
20
212.400406
70
0
0
VERTEX
8
Text
10
105.358800
20
212.400406
70
0
0
VERTEX
8
Text
10
105.358800
20
211.288673
70
0
0
VERTEX
8
Text
10
107.213294
20
211.288673
70
0
0
VERTEX
8
Text
10
107.213294
20
210.912468
70
0
0
VERTEX
8
Text
10
104.898190
20
210.912468
70
0
0
SEQEND
8
Text
0
POLYLINE
8
Text
62
7
70
0
10
0.000000
20
0.000000
66
1
0
VERTEX
8
Text
10
110.249458
20
211.828864
70
0
0
VERTEX
8
Text
10
110.166862
20
211.443013
70
0
0
VERTEX
8
Text
10
109.919073
20
211.153625
70
0
0
VERTEX
8
Text
10
109.000266
20
210.912468
70
0
0
VERTEX
8
Text
10
107.862007
20
210.912468
70
0
0
VERTEX
8
Text
10
107.862007
20
214.165675
70
0
0
VERTEX
8
Text
10
108.855574
20
214.165675
70
0
0
VERTEX
8
Text
10
109.752677
20
213.968529
70
0
0
VERTEX
8
Text
10
109.976953
20
213.722097
70
0
0
VERTEX
8
Text
10
110.051711
20
213.377093
70
0
0
VERTEX
8
Text
10
109.878079
20
212.885133
70
0
0
VERTEX
8
Text
10
109.405409
20
212.627093
70
0
0
VERTEX
8
Text
10
110.027595
20
212.369056
70
0
0
VERTEX
8
Text
10
110.249458
20
211.828864
70
0
0
VERTEX
8
Text
10
110.249458
20
211.828864
70
0
0
SEQEND
8
Text
0
POLYLINE
8
Text
62
7
70
0
10
0.000000
20
0.000000
66
1
0
VERTEX
8
Text
10
109.588688
20
213.319215
70
0
0
VERTEX
8
Text
10
109.405409
20
213.685771
70
0
0
VERTEX
8
Text
10
108.860397
20
213.796706
70
0
0
VERTEX
8
Text
10
108.322616
20
213.796706
70
0
0
VERTEX
8
Text
10
108.322616
20
212.793492
70
0
0
VERTEX
8
Text
10
108.865218
20
212.793492
70
0
0
VERTEX
8
Text
10
109.407821
20
212.924923
70
0
0
VERTEX
8
Text
10
109.588688
20
213.319215
70
0
0
VERTEX
8
Text
10
109.588688
20
213.319215
70
0
0
SEQEND
8
Text
0
POLYLINE
8
Text
62
7
70
0
10
0.000000
20
0.000000
66
1
0
VERTEX
8
Text
10
109.784027
20
211.869861
70
0
0
VERTEX
8
Text
10
109.569398
20
212.289474
70
0
0
VERTEX
8
Text
10
108.930332
20
212.434169
70
0
0
VERTEX
8
Text
10
108.322616
20
212.434169
70
0
0
VERTEX
8
Text
10
108.322616
20
211.281439
70
0
0
VERTEX
8
Text
10
108.964093
20
211.281439
70
0
0
VERTEX
8
Text
10
109.583868
20
211.426132
70
0
0
VERTEX
8
Text
10
109.784027
20
211.869861
70
0
0
VERTEX
8
Text
10
109.784027
20
211.869861
70
0
0
SEQEND
8
Text
0
POLYLINE
8
Text
62
7
70
0
10
0.000000
20
0.000000
66
1
0
VERTEX
8
Text
10
113.150576
20
212.554748
70
0
0
VERTEX
8
Text
10
113.070392
20
211.835497
70
0
0
VERTEX
8
Text
10
112.829838
20
211.303143
70
0
0
VERTEX
8
Text
10
112.441575
20
210.973964
70
0
0
VERTEX
8
Text
10
111.913442
20
210.864237
70
0
0
VERTEX
8
Text
10
111.384102
20
210.972155
70
0
0
VERTEX
8
Text
10
110.997045
20
211.295910
70
0
0
VERTEX
8
Text
10
110.760109
20
211.826454
70
0
0
VERTEX
8
Text
10
110.681130
20
212.554748
70
0
0
VERTEX
8
Text
10
110.759507
20
213.270381
70
0
0
VERTEX
8
Text
10
110.994635
20
213.791882
70
0
0
VERTEX
8
Text
10
111.382293
20
214.110209
70
0
0
VERTEX
8
Text
10
111.918265
20
214.216318
70
0
0
VERTEX
8
Text
10
112.444589
20
214.111415
70
0
0
VERTEX
8
Text
10
112.832248
20
213.796706
70
0
0
VERTEX
8
Text
10
113.070994
20
213.277615
70
0
0
VERTEX
8
Text
10
113.150576
20
212.554748
70
0
0
VERTEX
8
Text
10
113.150576
20
212.554748
70
0
0
SEQEND
8
Text
0
POLYLINE
8
Text
62
7
70
0
10
0.000000
20
0.000000
66
1
0
VERTEX
8
Text
10
112.665850
20
212.554748
70
0
0
VERTEX
8
Text
10
112.478953
20
213.518772
70
0
0
VERTEX
8
Text
10
112.245333
20
213.759778
70
0
0
VERTEX
8
Text
10
111.918265
20
213.840113
70
0
0
VERTEX
8
Text
10
111.589085
20
213.759778
70
0
0
VERTEX
8
Text
10
111.353957
20
213.518772
70
0
0
VERTEX
8
Text
10
111.165854
20
212.554748
70
0
0
VERTEX
8
Text
10
111.356370
20
211.570827
70
0
0
VERTEX
8
Text
10
111.591497
20
211.321231
70
0
0
VERTEX
8
Text
10
111.915852
20
211.238032
70
0
0
VERTEX
8
Text
10
112.255280
20
211.322437
70
0
0
VERTEX
8
Text
10
112.487394
20
211.575650
70
0
0
VERTEX
8
Text
10
112.665850
20
212.554748
70
0
0
VERTEX
8
Text
10
112.665850
20
212.554748
70
0
0
SEQEND
8
Text
0
POLYLINE
8
Text
62
7
70
0
10
0.000000
20
0.000000
66
1
0
VERTEX
8
Text
10
115.108768
20
213.789469
70
0
0
VERTEX
8
Text
10
115.108768
20
210.912468
70
0
0
VERTEX
8
Text
10
114.650571
20
210.912468
70
0
0
VERTEX
8
Text
10
114.650571
20
213.789469
70
0
0
VERTEX
8
Text
10
113.582246
20
213.789469
70
0
0
VERTEX
8
Text
10
113.582246
20
214.165675
70
0
0
VERTEX
8
Text
10
116.177094
20
214.165675
70
0
0
VERTEX
8
Text
10
116.177094
20
213.789469
70
0
0
VERTEX
8
Text
10
115.108768
20
213.789469
70
0
0
SEQEND
8
Text
 0 
ENDSEC
 0 
EOF