%TF.GenerationSoftware,KiCad,Pcbnew,8.0.8*%
%TF.CreationDate,2025-01-25T01:21:00+01:00*%
%TF.ProjectId,aware01_h7,61776172-6530-4315-9f68-372e6b696361,rev?*%
%TF.SameCoordinates,Original*%
%TF.FileFunction,Copper,L1,Top*%
%TF.FilePolarity,Positive*%
%FSLAX46Y46*%
G04 Gerber Fmt 4.6, Leading zero omitted, Abs format (unit mm)*
G04 Created by KiCad (PCBNEW 8.0.8) date 2025-01-25 01:21:00*
%MOMM*%
%LPD*%
G01*
G04 APERTURE LIST*
G04 Aperture macros list*
%AMRoundRect*
0 Rectangle with rounded corners*
0 $1 Rounding radius*
0 $2 $3 $4 $5 $6 $7 $8 $9 X,Y pos of 4 corners*
0 Add a 4 corners polygon primitive as box body*
4,1,4,$2,$3,$4,$5,$6,$7,$8,$9,$2,$3,0*
0 Add four circle primitives for the rounded corners*
1,1,$1+$1,$2,$3*
1,1,$1+$1,$4,$5*
1,1,$1+$1,$6,$7*
1,1,$1+$1,$8,$9*
0 Add four rect primitives between the rounded corners*
20,1,$1+$1,$2,$3,$4,$5,0*
20,1,$1+$1,$4,$5,$6,$7,0*
20,1,$1+$1,$6,$7,$8,$9,0*
20,1,$1+$1,$8,$9,$2,$3,0*%
G04 Aperture macros list end*
%TA.AperFunction,ComponentPad*%
%ADD10C,0.700000*%
%TD*%
%TA.AperFunction,ComponentPad*%
%ADD11C,1.200000*%
%TD*%
%TA.AperFunction,SMDPad,CuDef*%
%ADD12RoundRect,0.225000X-0.250000X0.225000X-0.250000X-0.225000X0.250000X-0.225000X0.250000X0.225000X0*%
%TD*%
%TA.AperFunction,ComponentPad*%
%ADD13O,2.216000X1.108000*%
%TD*%
%TA.AperFunction,ComponentPad*%
%ADD14O,2.016000X1.008000*%
%TD*%
%TA.AperFunction,ComponentPad*%
%ADD15C,2.000000*%
%TD*%
%TA.AperFunction,ComponentPad*%
%ADD16C,1.800000*%
%TD*%
%TA.AperFunction,ComponentPad*%
%ADD17C,4.455000*%
%TD*%
%TA.AperFunction,SMDPad,CuDef*%
%ADD18RoundRect,0.237500X0.250000X0.237500X-0.250000X0.237500X-0.250000X-0.237500X0.250000X-0.237500X0*%
%TD*%
%TA.AperFunction,ComponentPad*%
%ADD19R,1.700000X1.700000*%
%TD*%
%TA.AperFunction,ComponentPad*%
%ADD20O,1.700000X1.700000*%
%TD*%
%TA.AperFunction,ViaPad*%
%ADD21C,0.700000*%
%TD*%
%TA.AperFunction,Conductor*%
%ADD22C,0.300000*%
%TD*%
%TA.AperFunction,Conductor*%
%ADD23C,0.500000*%
%TD*%
G04 APERTURE END LIST*
D10*
%TO.P,IC2,38*%
%TO.N,N/C*%
X233000000Y-100700000D03*
%TO.P,IC2,37*%
X231800000Y-99500000D03*
%TO.P,IC2,36*%
X233000000Y-98300000D03*
%TO.P,IC2,35*%
X234200000Y-99500000D03*
%TO.P,IC2,34*%
X233000000Y-99500000D03*
%TD*%
D11*
%TO.P,U4,1,1*%
%TO.N,+3.3V*%
X187250000Y-93000000D03*
%TO.P,U4,2,2*%
%TO.N,/FADER2_IN*%
X184750000Y-93000000D03*
%TO.P,U4,3,3*%
%TO.N,GND*%
X187250000Y-53000000D03*
%TO.P,U4,4,A*%
%TO.N,Net-(U4B-A)*%
X189750000Y-93000000D03*
%TO.P,U4,5,K*%
%TO.N,GND*%
X192250000Y-93000000D03*
%TO.P,U4,6,B*%
%TO.N,unconnected-(U4A-B-Pad6)*%
X192250000Y-53000000D03*
%TD*%
%TO.P,U6,1,1*%
%TO.N,+3.3V*%
X227000000Y-93000000D03*
%TO.P,U6,2,2*%
%TO.N,/FADER4_IN*%
X224500000Y-93000000D03*
%TO.P,U6,3,3*%
%TO.N,GND*%
X227000000Y-53000000D03*
%TO.P,U6,4,A*%
%TO.N,Net-(U6B-A)*%
X229500000Y-93000000D03*
%TO.P,U6,5,K*%
%TO.N,GND*%
X232000000Y-93000000D03*
%TO.P,U6,6,B*%
%TO.N,unconnected-(U6A-B-Pad6)*%
X232000000Y-53000000D03*
%TD*%
D12*
%TO.P,C15,1*%
%TO.N,/BUTTON1_IN*%
X191750000Y-44975000D03*
%TO.P,C15,2*%
%TO.N,GND*%
X191750000Y-46525000D03*
%TD*%
D13*
%TO.P,J9,S*%
%TO.N,GND*%
X208500000Y-129940000D03*
D14*
%TO.P,J9,T*%
%TO.N,Net-(J9-PadT)*%
X208500000Y-141340000D03*
D13*
%TO.P,J9,TN*%
%TO.N,unconnected-(J9-PadTN)*%
X208500000Y-133040000D03*
%TD*%
D12*
%TO.P,C16,1*%
%TO.N,/BUTTON2_IN*%
X216250000Y-45225000D03*
%TO.P,C16,2*%
%TO.N,GND*%
X216250000Y-46775000D03*
%TD*%
D15*
%TO.P,SW3,1,1*%
%TO.N,GND*%
X213750000Y-45250000D03*
X207250000Y-45250000D03*
%TO.P,SW3,2,2*%
%TO.N,/BUTTON2_IN*%
X213750000Y-40750000D03*
X207250000Y-40750000D03*
%TD*%
D16*
%TO.P,VR1,1*%
%TO.N,Net-(C45-Pad1)*%
X180500000Y-124475000D03*
%TO.P,VR1,2*%
X178500000Y-124475000D03*
%TO.P,VR1,3*%
%TO.N,Net-(C46-Pad1)*%
X188500000Y-124475000D03*
%TO.P,VR1,4*%
%TO.N,Net-(R11-Pad2)*%
X182500000Y-124475000D03*
%TO.P,VR1,5*%
%TO.N,Net-(C46-Pad1)*%
X184500000Y-124475000D03*
%TO.P,VR1,6*%
%TO.N,Net-(R12-Pad2)*%
X186500000Y-124475000D03*
D17*
%TO.P,VR1,MH1,MH1*%
%TO.N,unconnected-(VR1-PadMH1)*%
X177700000Y-113475000D03*
%TO.P,VR1,MH2,MH2*%
%TO.N,unconnected-(VR1-PadMH2)*%
X189300000Y-113475000D03*
%TD*%
D11*
%TO.P,U3,1,1*%
%TO.N,+3.3V*%
X169250000Y-93000000D03*
%TO.P,U3,2,2*%
%TO.N,/FADER1_IN*%
X166750000Y-93000000D03*
%TO.P,U3,3,3*%
%TO.N,GND*%
X169250000Y-53000000D03*
%TO.P,U3,4,A*%
%TO.N,Net-(U3B-A)*%
X171750000Y-93000000D03*
%TO.P,U3,5,K*%
%TO.N,GND*%
X174250000Y-93000000D03*
%TO.P,U3,6,B*%
%TO.N,unconnected-(U3A-B-Pad6)*%
X174250000Y-53000000D03*
%TD*%
D18*
%TO.P,R2,1*%
%TO.N,+3.3V*%
X193662500Y-42500000D03*
%TO.P,R2,2*%
%TO.N,/BUTTON1_IN*%
X191837500Y-42500000D03*
%TD*%
D13*
%TO.P,J13,S*%
%TO.N,GND*%
X230500000Y-121480000D03*
D14*
%TO.P,J13,T*%
%TO.N,Net-(J13-PadT)*%
X230500000Y-110080000D03*
D13*
%TO.P,J13,TN*%
%TO.N,unconnected-(J13-PadTN)*%
X230500000Y-118380000D03*
%TD*%
%TO.P,J8,S*%
%TO.N,GND*%
X230500000Y-129940000D03*
D14*
%TO.P,J8,T*%
%TO.N,Net-(J8-PadT)*%
X230500000Y-141340000D03*
D13*
%TO.P,J8,TN*%
%TO.N,unconnected-(J8-PadTN)*%
X230500000Y-133040000D03*
%TD*%
%TO.P,J4,S*%
%TO.N,GND*%
X208500000Y-121480000D03*
D14*
%TO.P,J4,T*%
%TO.N,Net-(J11-PadTN)*%
X208500000Y-110080000D03*
D13*
%TO.P,J4,TN*%
%TO.N,unconnected-(J4-PadTN)*%
X208500000Y-118380000D03*
%TD*%
D18*
%TO.P,R3,1*%
%TO.N,+3.3V*%
X218162500Y-42750000D03*
%TO.P,R3,2*%
%TO.N,/BUTTON2_IN*%
X216337500Y-42750000D03*
%TD*%
D13*
%TO.P,J5,S*%
%TO.N,GND*%
X186500000Y-129940000D03*
D14*
%TO.P,J5,T*%
%TO.N,Net-(J5-PadT)*%
X186500000Y-141340000D03*
D13*
%TO.P,J5,TN*%
%TO.N,unconnected-(J5-PadTN)*%
X186500000Y-133040000D03*
%TD*%
%TO.P,J11,S*%
%TO.N,GND*%
X197500000Y-121480000D03*
D14*
%TO.P,J11,T*%
%TO.N,Net-(J11-PadT)*%
X197500000Y-110080000D03*
D13*
%TO.P,J11,TN*%
%TO.N,Net-(J11-PadTN)*%
X197500000Y-118380000D03*
%TD*%
%TO.P,J7,S*%
%TO.N,GND*%
X197500000Y-129940000D03*
D14*
%TO.P,J7,T*%
%TO.N,Net-(J7-PadT)*%
X197500000Y-141340000D03*
D13*
%TO.P,J7,TN*%
%TO.N,unconnected-(J7-PadTN)*%
X197500000Y-133040000D03*
%TD*%
D11*
%TO.P,U5,6,B*%
%TO.N,unconnected-(U5A-B-Pad6)*%
X211500000Y-53000000D03*
%TO.P,U5,5,K*%
%TO.N,GND*%
X211500000Y-93000000D03*
%TO.P,U5,4,A*%
%TO.N,Net-(U5B-A)*%
X209000000Y-93000000D03*
%TO.P,U5,3,3*%
%TO.N,GND*%
X206500000Y-53000000D03*
%TO.P,U5,2,2*%
%TO.N,/FADER3_IN*%
X204000000Y-93000000D03*
%TO.P,U5,1,1*%
%TO.N,+3.3V*%
X206500000Y-93000000D03*
%TD*%
D15*
%TO.P,SW2,1,1*%
%TO.N,GND*%
X189000000Y-45250000D03*
X182500000Y-45250000D03*
%TO.P,SW2,2,2*%
%TO.N,/BUTTON1_IN*%
X189000000Y-40750000D03*
X182500000Y-40750000D03*
%TD*%
D13*
%TO.P,J10,S*%
%TO.N,GND*%
X219500000Y-129940000D03*
D14*
%TO.P,J10,T*%
%TO.N,Net-(J10-PadT)*%
X219500000Y-141340000D03*
D13*
%TO.P,J10,TN*%
%TO.N,unconnected-(J10-PadTN)*%
X219500000Y-133040000D03*
%TD*%
%TO.P,J6,S*%
%TO.N,GND*%
X219500000Y-121480000D03*
D14*
%TO.P,J6,T*%
%TO.N,Net-(J6-PadT)*%
X219500000Y-110080000D03*
D13*
%TO.P,J6,TN*%
%TO.N,unconnected-(J6-PadTN)*%
X219500000Y-118380000D03*
%TD*%
D19*
%TO.P,J2,1,Pin_1*%
%TO.N,/UART4_TX*%
X229000000Y-40875000D03*
D20*
%TO.P,J2,2,Pin_2*%
%TO.N,/UART4_RX*%
X229000000Y-43415000D03*
%TO.P,J2,3,Pin_3*%
%TO.N,GND*%
X229000000Y-45955000D03*
%TD*%
D19*
%TO.P,J1,1,Pin_1*%
%TO.N,+3.3V*%
X167500000Y-112920000D03*
D20*
%TO.P,J1,2,Pin_2*%
%TO.N,/SWCLK*%
X167500000Y-115460000D03*
%TO.P,J1,3,Pin_3*%
%TO.N,/SWDIO*%
X167500000Y-118000000D03*
%TO.P,J1,4,Pin_4*%
%TO.N,/SWO*%
X167500000Y-120540000D03*
%TO.P,J1,5,Pin_5*%
%TO.N,/NRST*%
X167500000Y-123080000D03*
%TO.P,J1,6,Pin_6*%
%TO.N,GND*%
X167500000Y-125620000D03*
%TD*%
D19*
%TO.P,J3,1,Pin_1*%
%TO.N,Net-(D1-A)*%
X176120000Y-44250000D03*
D20*
%TO.P,J3,2,Pin_2*%
X176120000Y-41710000D03*
%TO.P,J3,3,Pin_3*%
%TO.N,GND*%
X173580000Y-44250000D03*
%TO.P,J3,4,Pin_4*%
X173580000Y-41710000D03*
%TO.P,J3,5,Pin_5*%
X171040000Y-44250000D03*
%TO.P,J3,6,Pin_6*%
X171040000Y-41710000D03*
%TO.P,J3,7,Pin_7*%
X168500000Y-44250000D03*
%TO.P,J3,8,Pin_8*%
X168500000Y-41710000D03*
%TO.P,J3,9,Pin_9*%
%TO.N,Net-(D2-K)*%
X165960000Y-44250000D03*
%TO.P,J3,10,Pin_10*%
X165960000Y-41710000D03*
%TD*%
D21*
%TO.N,GND*%
X229000000Y-95200000D03*
X227600000Y-46000000D03*
%TO.N,/UART4_TX*%
X184400000Y-49800000D03*
X181600000Y-62700000D03*
%TO.N,/UART4_RX*%
X185200000Y-50800000D03*
X182600000Y-62700000D03*
%TO.N,+3.3V*%
X178600000Y-65200000D03*
X174600000Y-76400000D03*
X222400000Y-80600000D03*
%TO.N,GND*%
X201800000Y-129200000D03*
X206600000Y-104200000D03*
X215600000Y-104200000D03*
X217600000Y-124475000D03*
%TO.N,/FADER3_IN*%
X194600000Y-90000000D03*
X190580903Y-85405871D03*
%TO.N,/FAD_LED3_OUT*%
X205400000Y-90000000D03*
%TO.N,Net-(U5B-A)*%
X209400000Y-90800000D03*
%TO.N,/FADER4_IN*%
X196300000Y-74900000D03*
%TO.N,/FADER3_IN*%
X195000000Y-75000000D03*
%TO.N,/FADER4_IN*%
X210205548Y-85000000D03*
%TO.N,/SWDIO*%
X208200000Y-86000000D03*
%TO.N,/CV2_IN*%
X225200000Y-107800000D03*
X223800000Y-103400000D03*
%TO.N,GND*%
X223650000Y-115250000D03*
X208529656Y-68710294D03*
X173500000Y-46500000D03*
X182000000Y-92000000D03*
X173200000Y-92400000D03*
X228750000Y-62750000D03*
X233025000Y-89475000D03*
X197000000Y-105000000D03*
X225000000Y-103800000D03*
X164500000Y-63000000D03*
X210000000Y-105500000D03*
X225100000Y-64900000D03*
X206250000Y-125000000D03*
X208000000Y-100200000D03*
X170250000Y-46500000D03*
X208800281Y-74100000D03*
X175250000Y-136800000D03*
X193750000Y-100750000D03*
X223250000Y-81500000D03*
X234750000Y-104250000D03*
X233200000Y-81200000D03*
X232200000Y-91800000D03*
X230000000Y-65200000D03*
X230250000Y-127250000D03*
X165250000Y-61750000D03*
X182250000Y-86600000D03*
X178500000Y-73500000D03*
X167200000Y-77800000D03*
X207700000Y-53900000D03*
X206250000Y-123750000D03*
X172000000Y-46500000D03*
X170400000Y-53600000D03*
X197400000Y-87000000D03*
X232550000Y-96000000D03*
X182025000Y-57225000D03*
X222750000Y-65000000D03*
X213200000Y-80800000D03*
X193775000Y-87624997D03*
X224600000Y-59200000D03*
X228000000Y-102800000D03*
X196900000Y-56600000D03*
X210750000Y-68000000D03*
X233025000Y-86000000D03*
X221600000Y-105000000D03*
X226750000Y-95275000D03*
X229600000Y-87800000D03*
X189500000Y-102500000D03*
X192400000Y-59200000D03*
X185400000Y-58800000D03*
X192000000Y-139000000D03*
X185000000Y-87250000D03*
X174500000Y-61450000D03*
X221750000Y-127500000D03*
X235600000Y-126400000D03*
X218250000Y-128750000D03*
X224775000Y-99025000D03*
X207250000Y-47250000D03*
X179910529Y-64906412D03*
X231500000Y-65200000D03*
X177475000Y-65200000D03*
X210600000Y-92400000D03*
X228200000Y-81200000D03*
X208125000Y-80875000D03*
X180200000Y-92000000D03*
X169225000Y-62000000D03*
X214600000Y-46775000D03*
X168750000Y-46500000D03*
X179600000Y-76000000D03*
X180400000Y-139000000D03*
X206750000Y-60000000D03*
X199750000Y-97500000D03*
X170925000Y-58675000D03*
X188200000Y-53800000D03*
X215000000Y-123000000D03*
X190100000Y-46900000D03*
X203600000Y-58025000D03*
X221000000Y-65000000D03*
X213750000Y-93000000D03*
X220250000Y-122750000D03*
X191200000Y-92400000D03*
X230220000Y-128280000D03*
X227500000Y-76000000D03*
X177800000Y-67100000D03*
X235025000Y-95975000D03*
X181250000Y-82000000D03*
X165800000Y-125600000D03*
X228000000Y-53800000D03*
%TO.N,+12V*%
X210500000Y-98500000D03*
X179000000Y-96250000D03*
X172500000Y-65000000D03*
X192475000Y-99075000D03*
%TO.N,+3.3V*%
X167000000Y-69750000D03*
X230025000Y-81225000D03*
X208400000Y-70200000D03*
X211750000Y-127500000D03*
X195000000Y-42500000D03*
X207800000Y-82050000D03*
X211600000Y-80800000D03*
X197800003Y-56600000D03*
X231400000Y-81200000D03*
X180000000Y-78400000D03*
X204000000Y-59000000D03*
X226200000Y-92200000D03*
X219400000Y-42750000D03*
X192800000Y-87600000D03*
X225800000Y-79800000D03*
X208750000Y-75675000D03*
X186300003Y-58800000D03*
X170000000Y-92200000D03*
X165750000Y-69750000D03*
X234123900Y-95936950D03*
X168500000Y-69750000D03*
X196501388Y-86950000D03*
X184900000Y-85500000D03*
X169800000Y-112800000D03*
X221558000Y-123905000D03*
X230600000Y-85750000D03*
X188400000Y-92400000D03*
X181000000Y-78400000D03*
X207400000Y-92400000D03*
X226300000Y-62800000D03*
X193300003Y-59200000D03*
X237000000Y-101000000D03*
X179600000Y-75000000D03*
%TO.N,/GATE1_IN*%
X177500000Y-74250000D03*
X185750000Y-73250000D03*
%TO.N,/CV2_IN*%
X194400000Y-80400000D03*
X185200000Y-66400000D03*
X184800000Y-80400000D03*
%TO.N,/FMC_D15*%
X207239411Y-66210766D03*
X223630025Y-71950000D03*
%TO.N,/FMC_D4*%
X225900000Y-76300000D03*
X196200000Y-61050000D03*
%TO.N,/FADER1_IN*%
X170750000Y-77000000D03*
X187750000Y-64000000D03*
%TO.N,/FADER2_IN*%
X181000000Y-93000000D03*
X190250000Y-64250000D03*
%TO.N,/FMC_D8*%
X205730025Y-57969975D03*
X199500000Y-59250000D03*
%TO.N,/I2S1_SDO*%
X195466784Y-91226833D03*
X236784606Y-99896183D03*
%TO.N,/I2C1_SCL*%
X236300000Y-102700000D03*
X190000000Y-87750000D03*
%TO.N,/FMC_NBL0*%
X202608698Y-86368747D03*
X187373440Y-85126560D03*
%TO.N,/FMC_A7*%
X195254339Y-67215687D03*
X202201908Y-67048091D03*
%TO.N,/FMC_SDNE0*%
X197101388Y-75500000D03*
X211700000Y-83300000D03*
%TO.N,/NRST*%
X185000000Y-70400000D03*
X186400000Y-66500000D03*
%TO.N,/FMC_D12*%
X223750000Y-62000000D03*
X216750000Y-62000000D03*
%TO.N,/FMC_A4*%
X187600000Y-75250000D03*
X210600000Y-69400000D03*
%TO.N,/FMC_D14*%
X207750000Y-65450000D03*
X223000000Y-71250000D03*
%TO.N,/FMC_BA1*%
X201300000Y-76800000D03*
X206250000Y-76800000D03*
%TO.N,/BUTTON1_IN*%
X187250000Y-70750000D03*
%TO.N,/FAD_LED2_OUT*%
X206200000Y-86100000D03*
X192800000Y-89800000D03*
%TO.N,/FMC_A3*%
X198796164Y-76836173D03*
X211500000Y-76500000D03*
%TO.N,/BUTTON2_IN*%
X185500000Y-71750000D03*
%TO.N,/FMC_SDNRAS*%
X210700000Y-83300000D03*
X198000000Y-75450000D03*
%TO.N,/FMC_SDCKE0*%
X217842939Y-68513315D03*
X195250000Y-72750000D03*
%TO.N,/FMC_A11*%
X196644975Y-65050000D03*
X203750000Y-61750000D03*
%TO.N,/FMC_D11*%
X214500000Y-59000000D03*
X219250000Y-61250000D03*
%TO.N,/I2S1_SDI*%
X237074318Y-99044085D03*
X196369975Y-92130025D03*
%TO.N,/FMC_D6*%
X215750000Y-72250000D03*
X200750000Y-65067258D03*
%TO.N,+3.3VA*%
X178800000Y-85400000D03*
X173000000Y-79600000D03*
X173000000Y-79600000D03*
%TO.N,-12V*%
X181250000Y-97750000D03*
X163000000Y-63250000D03*
%TO.N,/FAD_LED3_OUT*%
X207250000Y-86100000D03*
%TO.N,/FMC_A5*%
X211656226Y-69800000D03*
X189219975Y-74569975D03*
%TO.N,/FMC_A9*%
X195244975Y-65255025D03*
X204505737Y-62338283D03*
%TO.N,/FMC_A0*%
X200655788Y-78865837D03*
X214600000Y-79263567D03*
%TO.N,/CV1_IN*%
X193773839Y-75763789D03*
X216000000Y-92510050D03*
X212500000Y-118750000D03*
X213750000Y-105250000D03*
%TO.N,/FMC_NBL1*%
X219209361Y-69050000D03*
X187700000Y-81300000D03*
%TO.N,/SWDIO*%
X202800000Y-89200000D03*
X193363602Y-93363602D03*
%TO.N,/FMC_D9*%
X203750000Y-57000000D03*
X199546359Y-60296358D03*
%TO.N,/FMC_A1*%
X200292441Y-78042441D03*
X213575754Y-79229272D03*
%TO.N,/FAD_LED4_OUT*%
X223243750Y-89156250D03*
X203100000Y-79800000D03*
%TO.N,/V_OCT_IN*%
X173800000Y-122600000D03*
X189750000Y-61000000D03*
X170750000Y-95000000D03*
X199750000Y-127750000D03*
%TO.N,/FMC_SDCLK*%
X213000000Y-76400000D03*
X219857557Y-69700000D03*
%TO.N,/FMC_SDNCAS*%
X191537412Y-85487588D03*
X202234992Y-85550000D03*
%TO.N,/FMC_SDNWE*%
X219410355Y-79410355D03*
X200250000Y-76150000D03*
%TO.N,/FAD_LED1_OUT*%
X174500000Y-86500000D03*
X199250000Y-74000000D03*
%TO.N,/FMC_A10*%
X198600000Y-71600000D03*
X210988796Y-73613480D03*
%TO.N,/SWCLK*%
X194200000Y-94600000D03*
X200800000Y-89400000D03*
X204059926Y-85840074D03*
%TO.N,/I2C1_SDA*%
X189000000Y-87000000D03*
X235000000Y-103000000D03*
%TO.N,/FMC_A6*%
X202900000Y-68700000D03*
X195141422Y-68108578D03*
%TO.N,/FMC_A2*%
X209800000Y-77575000D03*
X199832726Y-77032726D03*
%TO.N,/FMC_D7*%
X201800000Y-65800000D03*
X214750000Y-72250000D03*
%TO.N,/FMC_D3*%
X226720321Y-79220321D03*
X225444975Y-82544975D03*
%TO.N,/FMC_D5*%
X216852945Y-72199999D03*
X199619975Y-65119975D03*
%TO.N,/FMC_A8*%
X213154975Y-63745025D03*
X195250000Y-66250000D03*
%TO.N,Net-(C45-Pad1)*%
X202000000Y-100250000D03*
X181250000Y-111750000D03*
%TO.N,Net-(U9A--)*%
X201250000Y-107750000D03*
X198500000Y-106750000D03*
X201905331Y-101344669D03*
%TO.N,Net-(C46-Pad1)*%
X199750000Y-102500000D03*
%TO.N,/Audio Codec/Input Output Channels/INR*%
X232083700Y-103750000D03*
X215750000Y-108575000D03*
%TO.N,/Audio Codec/Input Output Channels/INL*%
X232979504Y-103939709D03*
X215750000Y-99000000D03*
%TO.N,Net-(C52-Pad1)*%
X218400000Y-97250000D03*
X215500000Y-97250000D03*
%TO.N,Net-(C53-Pad1)*%
X223000000Y-102750000D03*
X222400000Y-105850000D03*
%TO.N,Net-(C54-Pad1)*%
X213500000Y-103750000D03*
X223700000Y-107900000D03*
%TO.N,/SWO*%
X188700000Y-82200000D03*
%TO.N,Net-(R11-Pad2)*%
X185500000Y-110250000D03*
%TO.N,Net-(R12-Pad2)*%
X185250000Y-111500000D03*
%TO.N,/CV2_IN*%
X217600000Y-93210050D03*
%TD*%
D22*
%TO.N,Net-(C54-Pad1)*%
X223700000Y-107900000D02*
X217650000Y-107900000D01*
X217650000Y-107900000D02*
X213500000Y-103750000D01*
%TO.N,/UART4_TX*%
X182725000Y-51475000D02*
X184400000Y-49800000D01*
X182725000Y-55200000D02*
X182725000Y-51475000D01*
%TO.N,/UART4_RX*%
X183600000Y-52400000D02*
X185200000Y-50800000D01*
X183600000Y-61700000D02*
X183600000Y-52400000D01*
X182600000Y-62700000D02*
X183600000Y-61700000D01*
%TO.N,/UART4_TX*%
X182725000Y-59875000D02*
X182725000Y-55200000D01*
X182200000Y-60400000D02*
X182725000Y-59875000D01*
X181600000Y-61000000D02*
X182200000Y-60400000D01*
X181600000Y-62700000D02*
X181600000Y-61000000D01*
%TO.N,/CV2_IN*%
X186450000Y-78750000D02*
X184800000Y-80400000D01*
X186450000Y-72960050D02*
X186450000Y-78750000D01*
X185150000Y-72550000D02*
X186039950Y-72550000D01*
X186039950Y-72550000D02*
X186450000Y-72960050D01*
X184300000Y-71700000D02*
X185150000Y-72550000D01*
X184300000Y-67300000D02*
X184300000Y-71700000D01*
X185200000Y-66400000D02*
X184300000Y-67300000D01*
%TO.N,/CV1_IN*%
X193800000Y-75789950D02*
X193773839Y-75763789D01*
X199550000Y-84350000D02*
X193800000Y-78600000D01*
X209705761Y-85808704D02*
X208247057Y-84350000D01*
X208247057Y-84350000D02*
X199550000Y-84350000D01*
X209705761Y-86305761D02*
X209705761Y-85808704D01*
X215910050Y-92510050D02*
X209705761Y-86305761D01*
X216000000Y-92510050D02*
X215910050Y-92510050D01*
X193800000Y-78600000D02*
X193800000Y-75789950D01*
%TO.N,/FADER4_IN*%
X217010050Y-91810050D02*
X223310050Y-91810050D01*
X210205548Y-85000000D02*
X210205548Y-85005548D01*
X210205548Y-85005548D02*
X217010050Y-91810050D01*
X223310050Y-91810050D02*
X224500000Y-93000000D01*
%TO.N,/CV2_IN*%
X194400000Y-81600000D02*
X194400000Y-80400000D01*
X197800000Y-85000000D02*
X194400000Y-81600000D01*
X201795042Y-85000000D02*
X197800000Y-85000000D01*
X201945042Y-84850000D02*
X201795042Y-85000000D01*
X205542893Y-84850000D02*
X201945042Y-84850000D01*
X205592893Y-84900000D02*
X205542893Y-84850000D01*
X208089950Y-84900000D02*
X205592893Y-84900000D01*
X209205761Y-86015811D02*
X208089950Y-84900000D01*
X209205761Y-87405761D02*
X209205761Y-86015811D01*
X215010050Y-93210050D02*
X209205761Y-87405761D01*
X217600000Y-93210050D02*
X215010050Y-93210050D01*
%TO.N,/FADER4_IN*%
X209000000Y-83800000D02*
X202400000Y-83800000D01*
X196200000Y-75000000D02*
X196300000Y-74900000D01*
X210200000Y-85000000D02*
X209000000Y-83800000D01*
X202400000Y-83800000D02*
X196200000Y-77600000D01*
X196200000Y-77600000D02*
X196200000Y-75000000D01*
X210205548Y-85000000D02*
X210200000Y-85000000D01*
%TO.N,/FADER3_IN*%
X196800000Y-91000000D02*
X202000000Y-91000000D01*
X202000000Y-91000000D02*
X204000000Y-93000000D01*
X194600000Y-90000000D02*
X195800000Y-90000000D01*
X195800000Y-90000000D02*
X196800000Y-91000000D01*
%TO.N,/FAD_LED2_OUT*%
X206200000Y-87050000D02*
X206200000Y-86100000D01*
X200510050Y-90100000D02*
X203150000Y-90100000D01*
X192800000Y-89800000D02*
X193400000Y-89200000D01*
X193400000Y-89200000D02*
X199610050Y-89200000D01*
X199610050Y-89200000D02*
X200510050Y-90100000D01*
X203150000Y-90100000D02*
X206200000Y-87050000D01*
%TO.N,/I2C1_SCL*%
X190000000Y-89000000D02*
X190000000Y-87750000D01*
X192300000Y-91300000D02*
X190000000Y-89000000D01*
X193300000Y-91300000D02*
X192300000Y-91300000D01*
X196700000Y-95500000D02*
X196700000Y-94700000D01*
X196700000Y-94700000D02*
X193300000Y-91300000D01*
X227707106Y-99000000D02*
X224207106Y-95500000D01*
X233050000Y-102300000D02*
X229750000Y-99000000D01*
X229750000Y-99000000D02*
X227707106Y-99000000D01*
X235900000Y-102300000D02*
X233050000Y-102300000D01*
X236300000Y-102700000D02*
X235900000Y-102300000D01*
X224207106Y-95500000D02*
X196700000Y-95500000D01*
%TO.N,/I2C1_SDA*%
X189000000Y-89000000D02*
X189000000Y-87000000D01*
X191800000Y-91800000D02*
X189000000Y-89000000D01*
X192789950Y-91800000D02*
X191800000Y-91800000D01*
X196200000Y-95210050D02*
X192789950Y-91800000D01*
X196200000Y-96400000D02*
X196200000Y-95210050D01*
X231930756Y-101900000D02*
X231100000Y-101900000D01*
X231100000Y-101900000D02*
X229200000Y-100000000D01*
X232930756Y-102900000D02*
X231930756Y-101900000D01*
X227000000Y-100000000D02*
X223400000Y-96400000D01*
X234900000Y-102900000D02*
X232930756Y-102900000D01*
X235000000Y-103000000D02*
X234900000Y-102900000D01*
X229200000Y-100000000D02*
X227000000Y-100000000D01*
X223400000Y-96400000D02*
X196200000Y-96400000D01*
%TO.N,/FADER3_IN*%
X192186774Y-83800000D02*
X190580903Y-85405871D01*
X193000000Y-83800000D02*
X192186774Y-83800000D01*
%TO.N,/SWDIO*%
X205400000Y-85800000D02*
X205400000Y-86600000D01*
X207739950Y-85400000D02*
X205800000Y-85400000D01*
X205800000Y-85400000D02*
X205400000Y-85800000D01*
X205400000Y-86600000D02*
X202800000Y-89200000D01*
X208200000Y-85860050D02*
X207739950Y-85400000D01*
X208200000Y-86000000D02*
X208200000Y-85860050D01*
%TO.N,/FAD_LED3_OUT*%
X205400000Y-89000000D02*
X205400000Y-90000000D01*
X207250000Y-87150000D02*
X205400000Y-89000000D01*
X207250000Y-86100000D02*
X207250000Y-87150000D01*
%TO.N,Net-(U5B-A)*%
X209000000Y-91200000D02*
X209400000Y-90800000D01*
X209000000Y-93000000D02*
X209000000Y-91200000D01*
%TO.N,/FADER3_IN*%
X193000000Y-75547678D02*
X193000000Y-83800000D01*
X193547678Y-75000000D02*
X193000000Y-75547678D01*
X195000000Y-75000000D02*
X193547678Y-75000000D01*
%TO.N,/FMC_NBL1*%
X187700000Y-78500000D02*
X187700000Y-81300000D01*
X192600000Y-73600000D02*
X187700000Y-78500000D01*
X194402944Y-73600000D02*
X192600000Y-73600000D01*
X194802944Y-74000000D02*
X194402944Y-73600000D01*
X196889950Y-74000000D02*
X194802944Y-74000000D01*
X197639950Y-74750000D02*
X196889950Y-74000000D01*
X209787132Y-74800000D02*
X206707107Y-74800000D01*
X209815829Y-74828697D02*
X209787132Y-74800000D01*
X215921304Y-74828697D02*
X209815829Y-74828697D01*
X218750000Y-72000001D02*
X215921304Y-74828697D01*
X218750000Y-69509361D02*
X218750000Y-72000001D01*
X206657107Y-74750000D02*
X197639950Y-74750000D01*
X219209361Y-69050000D02*
X218750000Y-69509361D01*
X206707107Y-74800000D02*
X206657107Y-74750000D01*
%TO.N,/FAD_LED1_OUT*%
X186950000Y-79239950D02*
X179689950Y-86500000D01*
X186950000Y-78250000D02*
X186950000Y-79239950D01*
X194510050Y-73000000D02*
X192200000Y-73000000D01*
X192200000Y-73000000D02*
X186950000Y-78250000D01*
X195010050Y-73500000D02*
X194510050Y-73000000D01*
X198750000Y-73500000D02*
X195010050Y-73500000D01*
X179689950Y-86500000D02*
X174500000Y-86500000D01*
X199250000Y-74000000D02*
X198750000Y-73500000D01*
%TO.N,/FMC_A5*%
X210556226Y-70900000D02*
X211656226Y-69800000D01*
X209089950Y-70900000D02*
X210556226Y-70900000D01*
X208460050Y-70950000D02*
X209039950Y-70950000D01*
X189430025Y-74569975D02*
X193100000Y-70900000D01*
X189219975Y-74569975D02*
X189430025Y-74569975D01*
X193100000Y-70900000D02*
X208410050Y-70900000D01*
X208410050Y-70900000D02*
X208460050Y-70950000D01*
X209039950Y-70950000D02*
X209089950Y-70900000D01*
%TO.N,/FMC_A4*%
X187600000Y-75200000D02*
X193400000Y-69400000D01*
X193400000Y-69400000D02*
X199776415Y-69400000D01*
X187600000Y-75250000D02*
X187600000Y-75200000D01*
%TO.N,/FMC_SDNE0*%
X211000000Y-84000000D02*
X211700000Y-83300000D01*
X210410050Y-84000000D02*
X211000000Y-84000000D01*
X210000000Y-83589950D02*
X210410050Y-84000000D01*
X206552943Y-82500000D02*
X207302943Y-83250000D01*
X203117104Y-82500000D02*
X206552943Y-82500000D01*
X209942894Y-83250000D02*
X210000000Y-83307106D01*
X202246050Y-81628946D02*
X203117104Y-82500000D01*
X197101388Y-77008495D02*
X201721839Y-81628946D01*
X207302943Y-83250000D02*
X209942894Y-83250000D01*
X201721839Y-81628946D02*
X202246050Y-81628946D01*
X197101388Y-75500000D02*
X197101388Y-77008495D01*
X210000000Y-83307106D02*
X210000000Y-83589950D01*
%TO.N,/FMC_NBL0*%
X188496880Y-86250000D02*
X187373440Y-85126560D01*
X202489951Y-86250000D02*
X188496880Y-86250000D01*
X202608698Y-86368747D02*
X202489951Y-86250000D01*
%TO.N,/FMC_SDNCAS*%
X194400000Y-84770000D02*
G75*
G03*
X194160000Y-85010000I0J-240000D01*
G01*
X196200000Y-85600000D02*
G75*
G02*
X195960000Y-85360000I0J240000D01*
G01*
X193560000Y-85010000D02*
G75*
G03*
X193320000Y-84770000I-240000J0D01*
G01*
X195600000Y-84770000D02*
G75*
G03*
X195360000Y-85010000I0J-240000D01*
G01*
X195960000Y-85360000D02*
X195960000Y-85010000D01*
X195960000Y-85010000D02*
G75*
G03*
X195720000Y-84770000I-240000J0D01*
G01*
X192960000Y-85360000D02*
G75*
G02*
X192720000Y-85600000I-240000J0D01*
G01*
X195000000Y-85600000D02*
G75*
G02*
X194760000Y-85360000I0J240000D01*
G01*
X194520000Y-84770000D02*
X194400000Y-84770000D01*
X193800000Y-85600000D02*
G75*
G02*
X193560000Y-85360000I0J240000D01*
G01*
X194160000Y-85010000D02*
X194160000Y-85360000D01*
X192960000Y-85010000D02*
X192960000Y-85360000D01*
X194160000Y-85360000D02*
G75*
G02*
X193920000Y-85600000I-240000J0D01*
G01*
X193320000Y-84770000D02*
X193200000Y-84770000D01*
X192720000Y-85600000D02*
X192600000Y-85600000D01*
X202234992Y-85550000D02*
X202184992Y-85600000D01*
X193200000Y-84770000D02*
G75*
G03*
X192960000Y-85010000I0J-240000D01*
G01*
X194760000Y-85010000D02*
G75*
G03*
X194520000Y-84770000I-240000J0D01*
G01*
X192600000Y-85600000D02*
X192200000Y-85600000D01*
X191649824Y-85600000D02*
X191537412Y-85487588D01*
X192200000Y-85600000D02*
X191649824Y-85600000D01*
X195720000Y-84770000D02*
X195600000Y-84770000D01*
X195360000Y-85360000D02*
G75*
G02*
X195120000Y-85600000I-240000J0D01*
G01*
X193560000Y-85360000D02*
X193560000Y-85010000D01*
X195120000Y-85600000D02*
X195000000Y-85600000D01*
X193920000Y-85600000D02*
X193800000Y-85600000D01*
X195360000Y-85010000D02*
X195360000Y-85360000D01*
X194760000Y-85360000D02*
X194760000Y-85010000D01*
X202184992Y-85600000D02*
X196200000Y-85600000D01*
%TO.N,/FMC_A1*%
X201772341Y-78042441D02*
X200292441Y-78042441D01*
X202116891Y-78386991D02*
X201772341Y-78042441D01*
X208886991Y-78386991D02*
X202116891Y-78386991D01*
X209729272Y-79229272D02*
X208886991Y-78386991D01*
X213575754Y-79229272D02*
X209729272Y-79229272D01*
%TO.N,/FMC_A0*%
X200676942Y-78886991D02*
X200655788Y-78865837D01*
X208679885Y-78886991D02*
X200676942Y-78886991D01*
X209742894Y-79950000D02*
X208679885Y-78886991D01*
X213913567Y-79950000D02*
X209742894Y-79950000D01*
X214600000Y-79263567D02*
X213913567Y-79950000D01*
%TO.N,/FMC_A2*%
X199865452Y-77000000D02*
X199832726Y-77032726D01*
X200500000Y-77000000D02*
X199865452Y-77000000D01*
X201979448Y-77542441D02*
X201042441Y-77542441D01*
X202137007Y-77700000D02*
X201979448Y-77542441D01*
X201042441Y-77542441D02*
X200500000Y-77000000D01*
X209675000Y-77700000D02*
X202137007Y-77700000D01*
X209800000Y-77575000D02*
X209675000Y-77700000D01*
%TO.N,/FMC_SDNWE*%
X210675000Y-76875000D02*
X212100000Y-78300000D01*
X207367894Y-76875000D02*
X210675000Y-76875000D01*
X206592894Y-76100000D02*
X207367894Y-76875000D01*
X200300000Y-76100000D02*
X206592894Y-76100000D01*
X212100000Y-78300000D02*
X218300000Y-78300000D01*
X200250000Y-76150000D02*
X200300000Y-76100000D01*
X218300000Y-78300000D02*
X219410355Y-79410355D01*
%TO.N,/FMC_A3*%
X210800000Y-75800000D02*
X211500000Y-76500000D01*
X209039950Y-76375000D02*
X209614950Y-75800000D01*
X200160050Y-75250000D02*
X206450000Y-75250000D01*
X207575000Y-76375000D02*
X209039950Y-76375000D01*
X199550000Y-75860050D02*
X200160050Y-75250000D01*
X199550000Y-76082337D02*
X199550000Y-75860050D01*
X206450000Y-75250000D02*
X207575000Y-76375000D01*
X209614950Y-75800000D02*
X210800000Y-75800000D01*
X198796164Y-76836173D02*
X199550000Y-76082337D01*
%TO.N,/CV2_IN*%
X223800000Y-106400000D02*
X225200000Y-107800000D01*
X223800000Y-103400000D02*
X223800000Y-106400000D01*
%TO.N,Net-(C52-Pad1)*%
X218400000Y-97250000D02*
X215500000Y-97250000D01*
%TO.N,/SWCLK*%
X204059926Y-85840074D02*
X204059926Y-86540074D01*
X204059926Y-86540074D02*
X201200000Y-89400000D01*
X201200000Y-89400000D02*
X200800000Y-89400000D01*
D23*
%TO.N,GND*%
X207700000Y-53900000D02*
X206800000Y-53000000D01*
X169800000Y-53000000D02*
X170400000Y-53600000D01*
X206800000Y-53000000D02*
X206500000Y-53000000D01*
X190100000Y-46900000D02*
X190475000Y-46525000D01*
X213750000Y-45250000D02*
X213750000Y-45925000D01*
X189000000Y-45800000D02*
X190100000Y-46900000D01*
D22*
X207250000Y-45250000D02*
X207250000Y-47250000D01*
D23*
X213750000Y-45925000D02*
X214600000Y-46775000D01*
X187250000Y-53000000D02*
X187400000Y-53000000D01*
X214600000Y-46775000D02*
X216250000Y-46775000D01*
X169250000Y-53000000D02*
X169800000Y-53000000D01*
X189000000Y-45250000D02*
X189000000Y-45800000D01*
X190475000Y-46525000D02*
X191750000Y-46525000D01*
X227200000Y-53000000D02*
X228000000Y-53800000D01*
X187400000Y-53000000D02*
X188200000Y-53800000D01*
X227000000Y-53000000D02*
X227200000Y-53000000D01*
%TO.N,+12V*%
X164200000Y-75800000D02*
X164200000Y-94210050D01*
X166239950Y-96250000D02*
X179000000Y-96250000D01*
X172500000Y-65000000D02*
X172500000Y-67500000D01*
X210000000Y-99000000D02*
X210500000Y-98500000D01*
X164200000Y-94210050D02*
X166239950Y-96250000D01*
X192550000Y-99000000D02*
X210000000Y-99000000D01*
X172500000Y-67500000D02*
X164200000Y-75800000D01*
X192475000Y-99075000D02*
X192550000Y-99000000D01*
%TO.N,+3.3V*%
X193662500Y-42500000D02*
X195000000Y-42500000D01*
X219400000Y-42750000D02*
X218162500Y-42750000D01*
D22*
%TO.N,/GATE1_IN*%
X179000000Y-74250000D02*
X180000000Y-73250000D01*
X180000000Y-73250000D02*
X185750000Y-73250000D01*
X177500000Y-74250000D02*
X179000000Y-74250000D01*
%TO.N,/FMC_D15*%
X212900000Y-66250000D02*
X207278645Y-66250000D01*
X216286526Y-66490000D02*
X216286526Y-66680000D01*
X213886526Y-66490000D02*
X213886526Y-66680000D01*
X213046526Y-66250000D02*
X212926526Y-66250000D01*
X223630025Y-71950000D02*
X222710050Y-71950000D01*
X215086526Y-66490000D02*
X215086526Y-66680000D01*
X214846526Y-66920000D02*
X214726526Y-66920000D01*
X214486526Y-66680000D02*
X214486526Y-66490000D01*
X214246526Y-66250000D02*
X214126526Y-66250000D01*
X215686526Y-66680000D02*
X215686526Y-66490000D01*
X222710050Y-71950000D02*
X222300000Y-71539950D01*
X213286526Y-66680000D02*
X213286526Y-66490000D01*
X215446526Y-66250000D02*
X215326526Y-66250000D01*
X217450000Y-66250000D02*
X216526526Y-66250000D01*
X213646526Y-66920000D02*
X213526526Y-66920000D01*
X212926526Y-66250000D02*
X212900000Y-66250000D01*
X222300000Y-71100000D02*
X217450000Y-66250000D01*
X207278645Y-66250000D02*
X207239411Y-66210766D01*
X216046526Y-66920000D02*
X215926526Y-66920000D01*
X222300000Y-71539950D02*
X222300000Y-71100000D01*
X213526526Y-66920000D02*
G75*
G02*
X213286500Y-66680000I-26J240000D01*
G01*
X216286526Y-66680000D02*
G75*
G02*
X216046526Y-66920026I-240026J0D01*
G01*
X215926526Y-66920000D02*
G75*
G02*
X215686500Y-66680000I-26J240000D01*
G01*
X213286526Y-66490000D02*
G75*
G03*
X213046526Y-66249974I-240026J0D01*
G01*
X215326526Y-66250000D02*
G75*
G03*
X215086500Y-66490000I-26J-240000D01*
G01*
X214486526Y-66490000D02*
G75*
G03*
X214246526Y-66249974I-240026J0D01*
G01*
X215086526Y-66680000D02*
G75*
G02*
X214846526Y-66920026I-240026J0D01*
G01*
X213886526Y-66680000D02*
G75*
G02*
X213646526Y-66920026I-240026J0D01*
G01*
X216526526Y-66250000D02*
G75*
G03*
X216286500Y-66490000I-26J-240000D01*
G01*
X214726526Y-66920000D02*
G75*
G02*
X214486500Y-66680000I-26J240000D01*
G01*
X214126526Y-66250000D02*
G75*
G03*
X213886500Y-66490000I-26J-240000D01*
G01*
X215686526Y-66490000D02*
G75*
G03*
X215446526Y-66249974I-240026J0D01*
G01*
%TO.N,/FMC_D4*%
X204539950Y-61050000D02*
X205989950Y-62500000D01*
X205989950Y-62500000D02*
X212899900Y-62500000D01*
X215399900Y-65000000D02*
X217739950Y-65000000D01*
X212899900Y-62500000D02*
X215399900Y-65000000D01*
X225900000Y-73160050D02*
X225900000Y-76300000D01*
X217739950Y-65000000D02*
X225900000Y-73160050D01*
X196200000Y-61050000D02*
X204539950Y-61050000D01*
%TO.N,/FADER1_IN*%
X170750000Y-77000000D02*
X171000000Y-77000000D01*
X184000000Y-64000000D02*
X187750000Y-64000000D01*
X171000000Y-77000000D02*
X184000000Y-64000000D01*
%TO.N,/FADER2_IN*%
X178750000Y-93000000D02*
X170250000Y-84500000D01*
X181000000Y-93000000D02*
X178750000Y-93000000D01*
X170250000Y-84500000D02*
X170250000Y-79250000D01*
X170250000Y-79250000D02*
X184000000Y-65500000D01*
X189000000Y-65500000D02*
X190250000Y-64250000D01*
X184000000Y-65500000D02*
X189000000Y-65500000D01*
%TO.N,/FMC_D8*%
X199596863Y-59153137D02*
X199500000Y-59250000D01*
X201434045Y-57570515D02*
X201306766Y-57443236D01*
X200288530Y-58122058D02*
X200090540Y-57924068D01*
X201985588Y-56425000D02*
X201787598Y-56227010D01*
X205730025Y-57969975D02*
X205719975Y-57969975D01*
X202450000Y-56300000D02*
X202325000Y-56425000D01*
X201731028Y-57018969D02*
X201731029Y-57018971D01*
X199751128Y-57924068D02*
X199666275Y-58008920D01*
X201561322Y-56849263D02*
X201731028Y-57018969D01*
X201858309Y-57400809D02*
X201688603Y-57570516D01*
X201448186Y-56227010D02*
X201363333Y-56311862D01*
X201306766Y-57443236D02*
X200939069Y-57075539D01*
X199666275Y-58348332D02*
X199864264Y-58546321D01*
X201731029Y-57018971D02*
X201858309Y-57146251D01*
X200712794Y-58037204D02*
X200627942Y-58122057D01*
X204050000Y-56300000D02*
X202450000Y-56300000D01*
X200514805Y-57499803D02*
X200712794Y-57697792D01*
X200627942Y-58122057D02*
X200627942Y-58122058D01*
X205719975Y-57969975D02*
X204050000Y-56300000D01*
X201363333Y-56651274D02*
X201561322Y-56849263D01*
X199779413Y-58970586D02*
X199596863Y-59153137D01*
X199864264Y-58885733D02*
X199779413Y-58970586D01*
X200599658Y-57075539D02*
X200514805Y-57160391D01*
X201363333Y-56311862D02*
G75*
G03*
X201363301Y-56651306I169667J-169738D01*
G01*
X200712794Y-57697792D02*
G75*
G02*
X200712796Y-58037206I-169694J-169708D01*
G01*
X199864264Y-58546321D02*
G75*
G02*
X199864237Y-58885706I-169664J-169679D01*
G01*
X200939069Y-57075539D02*
G75*
G03*
X200599659Y-57075539I-169705J-169703D01*
G01*
X201688603Y-57570516D02*
G75*
G02*
X201434021Y-57570540I-127303J127316D01*
G01*
X202325000Y-56425000D02*
G75*
G02*
X201985588Y-56425000I-169706J169704D01*
G01*
X200627942Y-58122058D02*
G75*
G02*
X200288530Y-58122058I-169706J169704D01*
G01*
X200090540Y-57924068D02*
G75*
G03*
X199751128Y-57924068I-169706J-169704D01*
G01*
X201787598Y-56227010D02*
G75*
G03*
X201448186Y-56227010I-169706J-169704D01*
G01*
X199666275Y-58008920D02*
G75*
G03*
X199666301Y-58348306I169725J-169680D01*
G01*
X201858309Y-57146251D02*
G75*
G02*
X201858279Y-57400779I-127309J-127249D01*
G01*
X200514805Y-57160391D02*
G75*
G03*
X200514802Y-57499806I169695J-169709D01*
G01*
%TO.N,/I2S1_SDO*%
X225150000Y-94750000D02*
X228650000Y-98250000D01*
X236374318Y-99485895D02*
X236784606Y-99896183D01*
X231254963Y-98250000D02*
X232004963Y-97500000D01*
X195443617Y-92193617D02*
X198000000Y-94750000D01*
X198000000Y-94750000D02*
X225150000Y-94750000D01*
X228650000Y-98250000D02*
X231254963Y-98250000D01*
X195466784Y-91226833D02*
X195443617Y-91250000D01*
X232004963Y-97500000D02*
X234569212Y-97500000D01*
X195443617Y-91250000D02*
X195443617Y-92193617D01*
X236374318Y-99305106D02*
X236374318Y-99485895D01*
X234569212Y-97500000D02*
X236374318Y-99305106D01*
%TO.N,/FMC_A7*%
X198127928Y-67048091D02*
X198007928Y-67048091D01*
X200767928Y-67048091D02*
X200767928Y-67398091D01*
X195254339Y-67215687D02*
X195421935Y-67048091D01*
X200167928Y-67048091D02*
X200167928Y-66698091D01*
X198967928Y-67048091D02*
X198967928Y-66808091D01*
X198367928Y-66698091D02*
X198367928Y-66808091D01*
X199927928Y-66458091D02*
X199807928Y-66458091D01*
X199327928Y-67638091D02*
X199207928Y-67638091D01*
X200527928Y-67638091D02*
X200407928Y-67638091D01*
X200167928Y-67398091D02*
X200167928Y-67048091D01*
X200767928Y-66808091D02*
X200767928Y-67048091D01*
X198727928Y-66458091D02*
X198607928Y-66458091D01*
X201367928Y-66808091D02*
X201367928Y-66698091D01*
X198967928Y-67398091D02*
X198967928Y-67048091D01*
X199567928Y-66698091D02*
X199567928Y-67048091D01*
X198007928Y-67048091D02*
X197200000Y-67048091D01*
X200767928Y-66698091D02*
X200767928Y-66808091D01*
X201127928Y-66458091D02*
X201007928Y-66458091D01*
X199567928Y-67048091D02*
X199567928Y-67398091D01*
X195421935Y-67048091D02*
X197200000Y-67048091D01*
X198967928Y-66808091D02*
X198967928Y-66698091D01*
X202201908Y-67048091D02*
X201607928Y-67048091D01*
X200167928Y-66698091D02*
G75*
G03*
X199927928Y-66458072I-240028J-9D01*
G01*
X198367928Y-66808091D02*
G75*
G02*
X198127928Y-67048128I-240028J-9D01*
G01*
X201367928Y-66698091D02*
G75*
G03*
X201127928Y-66458072I-240028J-9D01*
G01*
X199207928Y-67638091D02*
G75*
G02*
X198967909Y-67398091I-28J239991D01*
G01*
X199807928Y-66458091D02*
G75*
G03*
X199567891Y-66698091I-28J-240009D01*
G01*
X198967928Y-66698091D02*
G75*
G03*
X198727928Y-66458072I-240028J-9D01*
G01*
X200407928Y-67638091D02*
G75*
G02*
X200167909Y-67398091I-28J239991D01*
G01*
X200767928Y-67398091D02*
G75*
G02*
X200527928Y-67638128I-240028J-9D01*
G01*
X198607928Y-66458091D02*
G75*
G03*
X198367891Y-66698091I-28J-240009D01*
G01*
X199567928Y-67398091D02*
G75*
G02*
X199327928Y-67638128I-240028J-9D01*
G01*
X201007928Y-66458091D02*
G75*
G03*
X200767891Y-66698091I-28J-240009D01*
G01*
X201607928Y-67048091D02*
G75*
G02*
X201367909Y-66808091I-28J239991D01*
G01*
%TO.N,/NRST*%
X185500000Y-67400000D02*
X185500000Y-69900000D01*
X186400000Y-66500000D02*
X185500000Y-67400000D01*
X185500000Y-69900000D02*
X185000000Y-70400000D01*
%TO.N,/FMC_D12*%
X220210903Y-62248000D02*
X220210903Y-62282000D01*
X222690903Y-62248000D02*
X222690903Y-62282000D01*
X222070903Y-62248000D02*
X222070903Y-62000000D01*
X223750000Y-62000000D02*
X222938903Y-62000000D01*
X220830903Y-62000000D02*
X220830903Y-61718000D01*
X219962903Y-62530000D02*
X219838903Y-62530000D01*
X219342903Y-62000000D02*
X219218903Y-62000000D01*
X221450903Y-61718000D02*
X221450903Y-62000000D01*
X221450903Y-62000000D02*
X221450903Y-62282000D01*
X220210903Y-61718000D02*
X220210903Y-62000000D01*
X219590903Y-62282000D02*
X219590903Y-62248000D01*
X221822903Y-61470000D02*
X221698903Y-61470000D01*
X220582903Y-61470000D02*
X220458903Y-61470000D01*
X221202903Y-62530000D02*
X221078903Y-62530000D01*
X222070903Y-62000000D02*
X222070903Y-61718000D01*
X219218903Y-62000000D02*
X218700000Y-62000000D01*
X220210903Y-62000000D02*
X220210903Y-62248000D01*
X222070903Y-62282000D02*
X222070903Y-62248000D01*
X218700000Y-62000000D02*
X216750000Y-62000000D01*
X220830903Y-62282000D02*
X220830903Y-62000000D01*
X222442903Y-62530000D02*
X222318903Y-62530000D01*
X220210903Y-62282000D02*
G75*
G02*
X219962903Y-62530003I-248003J0D01*
G01*
X220830903Y-61718000D02*
G75*
G03*
X220582903Y-61469997I-248003J0D01*
G01*
X221078903Y-62530000D02*
G75*
G02*
X220830900Y-62282000I-3J248000D01*
G01*
X221698903Y-61470000D02*
G75*
G03*
X221450900Y-61718000I-3J-248000D01*
G01*
X222690903Y-62282000D02*
G75*
G02*
X222442903Y-62530003I-248003J0D01*
G01*
X219590903Y-62248000D02*
G75*
G03*
X219342903Y-61999997I-248003J0D01*
G01*
X219838903Y-62530000D02*
G75*
G02*
X219590900Y-62282000I-3J248000D01*
G01*
X221450903Y-62282000D02*
G75*
G02*
X221202903Y-62530003I-248003J0D01*
G01*
X222318903Y-62530000D02*
G75*
G02*
X222070900Y-62282000I-3J248000D01*
G01*
X222070903Y-61718000D02*
G75*
G03*
X221822903Y-61469997I-248003J0D01*
G01*
X222938903Y-62000000D02*
G75*
G03*
X222690900Y-62248000I-3J-248000D01*
G01*
X220458903Y-61470000D02*
G75*
G03*
X220210900Y-61718000I-3J-248000D01*
G01*
%TO.N,/FMC_A4*%
X201931399Y-69710000D02*
X201641399Y-69710000D01*
X208410050Y-69400000D02*
X203441399Y-69400000D01*
X203131399Y-69710000D02*
X202841399Y-69710000D01*
X208460050Y-69450000D02*
X208410050Y-69400000D01*
X209089950Y-69400000D02*
X209039950Y-69450000D01*
X201331399Y-69400000D02*
X201041399Y-69400000D01*
X210600000Y-69400000D02*
X209089950Y-69400000D01*
X200131399Y-69400000D02*
X199841399Y-69400000D01*
X202531399Y-69400000D02*
X202241399Y-69400000D01*
X209039950Y-69450000D02*
X208460050Y-69450000D01*
X200731399Y-69710000D02*
X200441399Y-69710000D01*
X199841399Y-69400000D02*
X199776415Y-69400000D01*
X201641399Y-69710000D02*
G75*
G02*
X201486400Y-69555000I1J155000D01*
G01*
X202841399Y-69710000D02*
G75*
G02*
X202686400Y-69555000I1J155000D01*
G01*
X202241399Y-69400000D02*
G75*
G03*
X202086400Y-69555000I1J-155000D01*
G01*
X201041399Y-69400000D02*
G75*
G03*
X200886400Y-69555000I1J-155000D01*
G01*
X200286399Y-69555000D02*
G75*
G03*
X200131399Y-69400001I-154999J0D01*
G01*
X202086399Y-69555000D02*
G75*
G02*
X201931399Y-69709999I-154999J0D01*
G01*
X203286399Y-69555000D02*
G75*
G02*
X203131399Y-69709999I-154999J0D01*
G01*
X200441399Y-69710000D02*
G75*
G02*
X200286400Y-69555000I1J155000D01*
G01*
X203441399Y-69400000D02*
G75*
G03*
X203286400Y-69555000I1J-155000D01*
G01*
X201486399Y-69555000D02*
G75*
G03*
X201331399Y-69400001I-154999J0D01*
G01*
X200886399Y-69555000D02*
G75*
G02*
X200731399Y-69709999I-154999J0D01*
G01*
X202686399Y-69555000D02*
G75*
G03*
X202531399Y-69400001I-154999J0D01*
G01*
%TO.N,/FMC_D14*%
X212383635Y-65500000D02*
X212263635Y-65500000D01*
X217500000Y-65500000D02*
X215178635Y-65500000D01*
X210823635Y-65260000D02*
X210823635Y-64730000D01*
X213823635Y-65500000D02*
X213823635Y-65655000D01*
X211183635Y-65500000D02*
X211063635Y-65500000D01*
X208663635Y-65500000D02*
X208300000Y-65500000D01*
X209623635Y-65260000D02*
X209623635Y-64730000D01*
X212023635Y-65260000D02*
X212023635Y-64580000D01*
X213223635Y-65500000D02*
X213223635Y-65260000D01*
X210583635Y-64490000D02*
X210463635Y-64490000D01*
X211423635Y-64580000D02*
X211423635Y-65260000D01*
X214183635Y-64590000D02*
X214063635Y-64590000D01*
X213223635Y-65260000D02*
X213223635Y-64680000D01*
X208300000Y-65500000D02*
X207800000Y-65500000D01*
X214423635Y-65500000D02*
X214423635Y-64830000D01*
X209023635Y-64730000D02*
X209023635Y-65260000D01*
X210223635Y-64730000D02*
X210223635Y-65260000D01*
X209383635Y-64490000D02*
X209263635Y-64490000D01*
X211783635Y-64340000D02*
X211663635Y-64340000D01*
X213223635Y-65655000D02*
X213223635Y-65500000D01*
X212623635Y-64680000D02*
X212623635Y-65260000D01*
X213668635Y-65810000D02*
X213378635Y-65810000D01*
X223000000Y-71250000D02*
X223000000Y-71000000D01*
X214868635Y-65810000D02*
X214578635Y-65810000D01*
X209983635Y-65500000D02*
X209863635Y-65500000D01*
X223000000Y-71000000D02*
X217500000Y-65500000D01*
X207800000Y-65500000D02*
X207750000Y-65450000D01*
X213823635Y-64830000D02*
X213823635Y-65500000D01*
X214423635Y-65655000D02*
X214423635Y-65500000D01*
X208783635Y-65500000D02*
X208663635Y-65500000D01*
X212983635Y-64440000D02*
X212863635Y-64440000D01*
X209023635Y-65260000D02*
G75*
G02*
X208783635Y-65500035I-240035J0D01*
G01*
X211063635Y-65500000D02*
G75*
G02*
X210823600Y-65260000I-35J240000D01*
G01*
X211663635Y-64340000D02*
G75*
G03*
X211423600Y-64580000I-35J-240000D01*
G01*
X210823635Y-64730000D02*
G75*
G03*
X210583635Y-64489965I-240035J0D01*
G01*
X214063635Y-64590000D02*
G75*
G03*
X213823600Y-64830000I-35J-240000D01*
G01*
X209863635Y-65500000D02*
G75*
G02*
X209623600Y-65260000I-35J240000D01*
G01*
X211423635Y-65260000D02*
G75*
G02*
X211183635Y-65500035I-240035J0D01*
G01*
X212023635Y-64580000D02*
G75*
G03*
X211783635Y-64339965I-240035J0D01*
G01*
X210223635Y-65260000D02*
G75*
G02*
X209983635Y-65500035I-240035J0D01*
G01*
X210463635Y-64490000D02*
G75*
G03*
X210223600Y-64730000I-35J-240000D01*
G01*
X212863635Y-64440000D02*
G75*
G03*
X212623600Y-64680000I-35J-240000D01*
G01*
X214423635Y-64830000D02*
G75*
G03*
X214183635Y-64589965I-240035J0D01*
G01*
X215023635Y-65655000D02*
G75*
G02*
X214868635Y-65810035I-155035J0D01*
G01*
X213378635Y-65810000D02*
G75*
G02*
X213223600Y-65655000I-35J155000D01*
G01*
X213223635Y-64680000D02*
G75*
G03*
X212983635Y-64439965I-240035J0D01*
G01*
X212623635Y-65260000D02*
G75*
G02*
X212383635Y-65500035I-240035J0D01*
G01*
X209623635Y-64730000D02*
G75*
G03*
X209383635Y-64489965I-240035J0D01*
G01*
X215178635Y-65500000D02*
G75*
G03*
X215023600Y-65655000I-35J-155000D01*
G01*
X212263635Y-65500000D02*
G75*
G02*
X212023600Y-65260000I-35J240000D01*
G01*
X213823635Y-65655000D02*
G75*
G02*
X213668635Y-65810035I-155035J0D01*
G01*
X209263635Y-64490000D02*
G75*
G03*
X209023600Y-64730000I-35J-240000D01*
G01*
X214578635Y-65810000D02*
G75*
G02*
X214423600Y-65655000I-35J155000D01*
G01*
%TO.N,/FMC_BA1*%
X206250000Y-76800000D02*
X201300000Y-76800000D01*
%TO.N,/BUTTON1_IN*%
X191837500Y-44887500D02*
X191750000Y-44975000D01*
X189250000Y-40500000D02*
X189000000Y-40750000D01*
X184750000Y-45590811D02*
X184750000Y-43000000D01*
X191000000Y-62957106D02*
X190500000Y-62457106D01*
X190500000Y-62457106D02*
X190500000Y-51340811D01*
X184750000Y-43000000D02*
X182500000Y-40750000D01*
X190500000Y-51340811D02*
X184750000Y-45590811D01*
X191837500Y-42500000D02*
X191837500Y-44887500D01*
X187250000Y-70750000D02*
X191000000Y-67000000D01*
X191000000Y-67000000D02*
X191000000Y-62957106D01*
X190750000Y-42500000D02*
X191837500Y-42500000D01*
X189000000Y-40750000D02*
X182500000Y-40750000D01*
X189000000Y-40750000D02*
X190750000Y-42500000D01*
%TO.N,/BUTTON2_IN*%
X191000000Y-62250000D02*
X191750000Y-63000000D01*
X207250000Y-40750000D02*
X213750000Y-40750000D01*
X191000000Y-57000000D02*
X191000000Y-62250000D01*
X213750000Y-40750000D02*
X215750000Y-42750000D01*
X191750000Y-67500000D02*
X187500000Y-71750000D01*
X207250000Y-40750000D02*
X191000000Y-57000000D01*
X191750000Y-63000000D02*
X191750000Y-67500000D01*
X216337500Y-45137500D02*
X216250000Y-45225000D01*
X215750000Y-42750000D02*
X216337500Y-42750000D01*
X187500000Y-71750000D02*
X185500000Y-71750000D01*
X216337500Y-42750000D02*
X216337500Y-45137500D01*
%TO.N,/FMC_SDCKE0*%
X217842939Y-71907061D02*
X217842939Y-68513315D01*
X217552945Y-72197055D02*
X217842939Y-71907061D01*
X195500000Y-73000000D02*
X209250000Y-73000000D01*
X195250000Y-72750000D02*
X195500000Y-73000000D01*
X210578697Y-74328697D02*
X215714197Y-74328697D01*
X209250000Y-73000000D02*
X210578697Y-74328697D01*
X215714197Y-74328697D02*
X217552945Y-72489949D01*
X217552945Y-72489949D02*
X217552945Y-72197055D01*
%TO.N,/FMC_A11*%
X198377544Y-63622453D02*
X198292692Y-63707307D01*
X197161320Y-63763876D02*
X197529015Y-64131571D01*
X197444163Y-64555836D02*
X197201930Y-64798070D01*
X197246173Y-63339612D02*
X197161320Y-63424464D01*
X198858378Y-62066818D02*
X199226073Y-62434513D01*
X198094702Y-62491083D02*
X198009849Y-62575935D01*
X197529015Y-64470982D02*
X197444163Y-64555836D01*
X197953280Y-63707308D02*
X197585584Y-63339612D01*
X197201930Y-64798070D02*
X196950000Y-65050000D01*
X198943231Y-61642554D02*
X198858378Y-61727406D01*
X199226073Y-62773924D02*
X199141221Y-62858778D01*
X200250000Y-61750000D02*
X199989750Y-62010250D01*
X198292692Y-63707307D02*
X198292692Y-63707308D01*
X203750000Y-61750000D02*
X200250000Y-61750000D01*
X199650338Y-62010250D02*
X199282642Y-61642554D01*
X196950000Y-65050000D02*
X196644975Y-65050000D01*
X198009849Y-62915347D02*
X198377544Y-63283042D01*
X198801809Y-62858779D02*
X198434113Y-62491083D01*
X199141221Y-62858778D02*
X199141221Y-62858779D01*
X197529015Y-64131571D02*
G75*
G02*
X197529039Y-64471005I-169715J-169729D01*
G01*
X197161320Y-63424464D02*
G75*
G03*
X197161290Y-63763906I169680J-169736D01*
G01*
X198377544Y-63283042D02*
G75*
G02*
X198377497Y-63622406I-169744J-169658D01*
G01*
X198009849Y-62575935D02*
G75*
G03*
X198009890Y-62915306I169751J-169665D01*
G01*
X199989750Y-62010250D02*
G75*
G02*
X199650338Y-62010250I-169706J169704D01*
G01*
X198858378Y-61727406D02*
G75*
G03*
X198858390Y-62066806I169722J-169694D01*
G01*
X199282642Y-61642554D02*
G75*
G03*
X198943232Y-61642554I-169705J-169703D01*
G01*
X197585584Y-63339612D02*
G75*
G03*
X197246172Y-63339611I-169706J-169703D01*
G01*
X199141221Y-62858779D02*
G75*
G02*
X198801809Y-62858779I-169706J169704D01*
G01*
X199226073Y-62434513D02*
G75*
G02*
X199226055Y-62773905I-169673J-169687D01*
G01*
X198292692Y-63707308D02*
G75*
G02*
X197953280Y-63707308I-169706J169704D01*
G01*
X198434113Y-62491083D02*
G75*
G03*
X198094701Y-62491082I-169706J-169703D01*
G01*
%TO.N,/FMC_D11*%
X216264927Y-61109364D02*
X216130575Y-61243713D01*
X215890156Y-59787070D02*
X215586100Y-60091125D01*
X216314421Y-59871923D02*
X216229568Y-59787070D01*
X215840661Y-60685097D02*
X216010366Y-60515392D01*
X216010366Y-60515391D02*
X216314421Y-60211335D01*
X215586100Y-60091125D02*
X215416393Y-60260829D01*
X215791165Y-61243714D02*
X215706312Y-61158861D01*
X219250000Y-61250000D02*
X216744975Y-61250000D01*
X214684999Y-59190024D02*
X214500000Y-59005025D01*
X214992128Y-59497152D02*
X214907277Y-59412302D01*
X215706312Y-60819449D02*
X215840661Y-60685097D01*
X216744975Y-61250000D02*
X216604339Y-61109364D01*
X215416393Y-60260829D02*
X215282043Y-60395179D01*
X214500000Y-59005025D02*
X214500000Y-59000000D01*
X214857778Y-59970914D02*
X214992129Y-59836564D01*
X214907277Y-59412302D02*
X214684999Y-59190024D01*
X214942631Y-60395179D02*
X214857778Y-60310326D01*
X216010366Y-60515392D02*
X216010366Y-60515391D01*
X215706312Y-61158861D02*
G75*
G02*
X215706357Y-60819494I169688J169661D01*
G01*
X214857778Y-60310326D02*
G75*
G02*
X214857758Y-59970894I169722J169726D01*
G01*
X215282043Y-60395179D02*
G75*
G02*
X214942631Y-60395179I-169706J169701D01*
G01*
X216229568Y-59787070D02*
G75*
G03*
X215890156Y-59787070I-169706J-169704D01*
G01*
X216130575Y-61243713D02*
G75*
G02*
X215791196Y-61243684I-169675J169713D01*
G01*
X216314421Y-60211335D02*
G75*
G03*
X216314450Y-59871894I-169721J169735D01*
G01*
X214992129Y-59836564D02*
G75*
G03*
X214992087Y-59497193I-169729J169664D01*
G01*
X216604339Y-61109364D02*
G75*
G03*
X216264927Y-61109364I-169706J-169701D01*
G01*
%TO.N,/I2S1_SDI*%
X198239950Y-94000000D02*
X196369975Y-92130025D01*
X230950000Y-96200000D02*
X228800000Y-96200000D01*
X234830233Y-96800000D02*
X231550000Y-96800000D01*
X228800000Y-96200000D02*
X226600000Y-94000000D01*
X231550000Y-96800000D02*
X230950000Y-96200000D01*
X226600000Y-94000000D02*
X198239950Y-94000000D01*
X237074318Y-99044085D02*
X234830233Y-96800000D01*
%TO.N,/FMC_D6*%
X213034695Y-68334695D02*
X212864988Y-68504399D01*
X213034695Y-68334696D02*
X213034695Y-68334695D01*
X212864988Y-68504399D02*
X212857917Y-68511470D01*
X213883228Y-69183228D02*
X213706450Y-69360003D01*
X212440725Y-67740723D02*
X212355872Y-67655872D01*
X204360152Y-65067258D02*
X200750000Y-65067258D01*
X214986322Y-70625733D02*
X215156027Y-70456028D01*
X212433654Y-68087206D02*
X212440724Y-68080133D01*
X214908538Y-69854986D02*
X214731761Y-70031762D01*
X211768257Y-67250000D02*
X207897234Y-67250000D01*
X207897234Y-67250000D02*
X207736468Y-67410766D01*
X215410588Y-71050000D02*
X215403515Y-71057070D01*
X214307494Y-69607494D02*
X214484270Y-69430717D01*
X214731761Y-70031761D02*
X214554983Y-70208536D01*
X215156027Y-70456027D02*
X215332803Y-70279250D01*
X214979252Y-70632806D02*
X214986322Y-70625733D01*
X206703660Y-67410766D02*
X204360152Y-65067258D01*
X215156027Y-70456028D02*
X215156027Y-70456027D01*
X212355872Y-67655872D02*
X212110766Y-67410766D01*
X214215573Y-70208537D02*
X214130720Y-70123684D01*
X212518507Y-68511471D02*
X212433654Y-68426618D01*
X214307495Y-69607494D02*
X214307494Y-69607494D01*
X215750000Y-71259268D02*
X215750000Y-71050000D01*
X213282187Y-68935739D02*
X213458962Y-68758961D01*
X212110766Y-67410766D02*
X211929023Y-67410766D01*
X213458962Y-68758961D02*
X213458961Y-68758961D01*
X214130720Y-69784272D02*
X214307495Y-69607494D01*
X215064105Y-71057071D02*
X214979252Y-70972218D01*
X215332803Y-69939839D02*
X215247950Y-69854986D01*
X207736468Y-67410766D02*
X206703660Y-67410766D01*
X213367040Y-69360004D02*
X213282187Y-69275151D01*
X214484270Y-69091306D02*
X214399417Y-69006453D01*
X214060005Y-69006453D02*
X213883228Y-69183229D01*
X211929023Y-67410766D02*
X211768257Y-67250000D01*
X213211472Y-68157920D02*
X213034695Y-68334696D01*
X213458961Y-68758961D02*
X213635737Y-68582184D01*
X214731761Y-70031762D02*
X214731761Y-70031761D01*
X213635737Y-68242773D02*
X213550884Y-68157920D01*
X215750000Y-72250000D02*
X215750000Y-71259268D01*
X213883228Y-69183229D02*
X213883228Y-69183228D01*
X214399417Y-69006453D02*
G75*
G03*
X214060005Y-69006453I-169706J-169704D01*
G01*
X214979252Y-70972218D02*
G75*
G02*
X214979240Y-70632794I169748J169718D01*
G01*
X213550884Y-68157920D02*
G75*
G03*
X213211472Y-68157920I-169706J-169704D01*
G01*
X215247950Y-69854986D02*
G75*
G03*
X214908538Y-69854986I-169706J-169704D01*
G01*
X212857917Y-68511470D02*
G75*
G02*
X212518495Y-68511483I-169717J169670D01*
G01*
X212440724Y-68080133D02*
G75*
G03*
X212440753Y-67740696I-169724J169733D01*
G01*
X214554983Y-70208536D02*
G75*
G02*
X214215595Y-70208515I-169683J169736D01*
G01*
X213635737Y-68582184D02*
G75*
G03*
X213635716Y-68242794I-169737J169684D01*
G01*
X214130720Y-70123684D02*
G75*
G02*
X214130742Y-69784294I169680J169684D01*
G01*
X215403515Y-71057070D02*
G75*
G02*
X215064095Y-71057081I-169715J169670D01*
G01*
X213706450Y-69360003D02*
G75*
G02*
X213366996Y-69360049I-169750J169703D01*
G01*
X215332803Y-70279250D02*
G75*
G03*
X215332848Y-69939795I-169703J169750D01*
G01*
X215750000Y-71050000D02*
G75*
G03*
X215410588Y-71050000I-169706J-169701D01*
G01*
X214484270Y-69430717D02*
G75*
G03*
X214484282Y-69091294I-169670J169717D01*
G01*
X213282187Y-69275151D02*
G75*
G02*
X213282142Y-68935694I169713J169751D01*
G01*
X212433654Y-68426618D02*
G75*
G02*
X212433642Y-68087194I169746J169718D01*
G01*
D23*
%TO.N,+3.3VA*%
X178800000Y-85400000D02*
X173000000Y-79600000D01*
%TO.N,-12V*%
X165750000Y-97750000D02*
X181250000Y-97750000D01*
X163000000Y-95000000D02*
X165750000Y-97750000D01*
X163000000Y-63250000D02*
X163000000Y-95000000D01*
D22*
%TO.N,/FMC_A9*%
X204505737Y-62338283D02*
X204394020Y-62450000D01*
X200550000Y-62450000D02*
X197250000Y-65750000D01*
X195739950Y-65750000D02*
X195244975Y-65255025D01*
X204394020Y-62450000D02*
X200550000Y-62450000D01*
X197250000Y-65750000D02*
X195739950Y-65750000D01*
%TO.N,/CV1_IN*%
X213750000Y-105250000D02*
X213750000Y-117500000D01*
X213750000Y-117500000D02*
X212500000Y-118750000D01*
%TO.N,/SWDIO*%
X167002943Y-114260000D02*
X170140000Y-114260000D01*
X184800000Y-102000000D02*
X193400000Y-93400000D01*
X167500000Y-118000000D02*
X166300000Y-116800000D01*
X182400000Y-102000000D02*
X184800000Y-102000000D01*
X166300000Y-116800000D02*
X166300000Y-114962943D01*
X193400000Y-93400000D02*
X193363602Y-93363602D01*
X166300000Y-114962943D02*
X167002943Y-114260000D01*
X170140000Y-114260000D02*
X182400000Y-102000000D01*
%TO.N,/FMC_D9*%
X201392433Y-59682371D02*
X201024738Y-59314676D01*
X201332328Y-58172696D02*
X201155551Y-58349472D01*
X201449001Y-58890411D02*
X201816697Y-59258107D01*
X203750000Y-57000000D02*
X203000000Y-57000000D01*
X202665225Y-58748990D02*
X202580374Y-58833842D01*
X202297530Y-58041882D02*
X202665226Y-58409578D01*
X202240962Y-58833842D02*
X201873267Y-58466147D01*
X199703642Y-60296358D02*
X199546359Y-60296358D01*
X201816696Y-59597519D02*
X201731845Y-59682371D01*
X201873267Y-58466147D02*
X201579816Y-58172696D01*
X201155551Y-58596960D02*
X201279294Y-58720703D01*
X203000000Y-57000000D02*
X202297530Y-57702470D01*
X200685326Y-59314677D02*
X200600472Y-59399529D01*
X200600472Y-59399529D02*
X200091591Y-59908409D01*
X201279295Y-58720705D02*
X201449001Y-58890411D01*
X201279294Y-58720703D02*
X201279295Y-58720705D01*
X200091591Y-59908409D02*
X199703642Y-60296358D01*
X201024738Y-59314676D02*
G75*
G03*
X200685294Y-59314644I-169738J-169724D01*
G01*
X201731845Y-59682371D02*
G75*
G02*
X201392433Y-59682371I-169706J169701D01*
G01*
X201155551Y-58349472D02*
G75*
G03*
X201155567Y-58596944I123749J-123728D01*
G01*
X202665226Y-58409578D02*
G75*
G02*
X202665242Y-58749006I-169726J-169722D01*
G01*
X201579816Y-58172696D02*
G75*
G03*
X201332328Y-58172696I-123744J-123746D01*
G01*
X202297530Y-57702470D02*
G75*
G03*
X202297506Y-58041906I169670J-169730D01*
G01*
X202580374Y-58833842D02*
G75*
G02*
X202240962Y-58833842I-169706J169701D01*
G01*
X201816697Y-59258107D02*
G75*
G02*
X201816684Y-59597506I-169697J-169693D01*
G01*
%TO.N,/FAD_LED4_OUT*%
X209250000Y-81000000D02*
X209239950Y-81000000D01*
X208039950Y-79800000D02*
X203100000Y-79800000D01*
X223243750Y-89156250D02*
X223243750Y-89043750D01*
X223243750Y-89043750D02*
X216050000Y-81850000D01*
X209239950Y-81000000D02*
X208039950Y-79800000D01*
X210100000Y-81850000D02*
X209250000Y-81000000D01*
%TO.N,/V_OCT_IN*%
X168549264Y-84130025D02*
X168549264Y-77960786D01*
X178750000Y-127750000D02*
X199750000Y-127750000D01*
X170750000Y-95000000D02*
X170750000Y-86330761D01*
X185510050Y-61000000D02*
X189750000Y-61000000D01*
X168549264Y-77960786D02*
X185510050Y-61000000D01*
X173800000Y-122600000D02*
X174000000Y-122800000D01*
X174000000Y-123000000D02*
X178750000Y-127750000D01*
X174000000Y-122800000D02*
X174000000Y-123000000D01*
X170750000Y-86330761D02*
X168549264Y-84130025D01*
%TO.N,/FMC_SDCLK*%
X214200000Y-75930000D02*
X214200000Y-76400000D01*
X219654004Y-72628841D02*
X219512583Y-72487420D01*
X219159027Y-72840973D02*
X219632789Y-73314735D01*
X220007557Y-71500000D02*
X220007557Y-71992443D01*
X215835617Y-76164386D02*
X215764905Y-76235096D01*
X213900000Y-76600000D02*
X213200000Y-76600000D01*
X218451918Y-73548082D02*
X218925680Y-74021844D01*
X218925679Y-74304688D02*
X218854970Y-74375398D01*
X217391254Y-74608746D02*
X217260439Y-74477931D01*
X216450799Y-76496726D02*
X216118459Y-76164386D01*
X218805472Y-73194528D02*
X218674657Y-73063713D01*
X216684147Y-75315856D02*
X216684145Y-75315855D01*
X219120136Y-72356604D02*
X219028212Y-72448527D01*
X220007557Y-71400000D02*
X220007557Y-71500000D01*
X220339897Y-72890470D02*
X220269188Y-72961180D01*
X217157908Y-75789617D02*
X216684147Y-75315856D01*
X218321103Y-73417266D02*
X218451917Y-73548080D01*
X218098365Y-73901638D02*
X218098363Y-73901637D01*
X214700000Y-77270000D02*
X214700000Y-76800000D01*
X213200000Y-76600000D02*
X213000000Y-76400000D01*
X218218570Y-75011797D02*
X218147861Y-75082507D01*
X218098363Y-73901637D02*
X217967548Y-73770822D01*
X216330591Y-75669409D02*
X216472013Y-75810831D01*
X216199776Y-75538593D02*
X216330590Y-75669407D01*
X218572126Y-74375399D02*
X218098365Y-73901638D01*
X219857557Y-69700000D02*
X220007557Y-69850000D01*
X219028212Y-72710157D02*
X219159026Y-72840971D01*
X220007556Y-72275287D02*
X220339897Y-72607628D01*
X219986344Y-72961181D02*
X219654004Y-72628841D01*
X217705918Y-73770822D02*
X217613994Y-73862745D01*
X216330590Y-75669407D02*
X216330591Y-75669409D01*
X219279235Y-73668290D02*
X218805474Y-73194529D01*
X220007557Y-69850000D02*
X220007557Y-70500000D01*
X217744808Y-74255189D02*
X217744809Y-74255191D01*
X216472013Y-75810831D02*
X216804353Y-76143171D01*
X217613994Y-74124375D02*
X217744808Y-74255189D01*
X220207557Y-70700000D02*
X220677557Y-70700000D01*
X218451917Y-73548080D02*
X218451918Y-73548082D01*
X217037699Y-74962298D02*
X217037700Y-74962300D01*
X214700000Y-76800000D02*
X214700000Y-75930000D01*
X217865017Y-75082508D02*
X217391256Y-74608747D01*
X215200000Y-76800000D02*
X215200000Y-77270000D01*
X218805474Y-73194529D02*
X218805472Y-73194528D01*
X219632788Y-73597579D02*
X219562079Y-73668289D01*
X218413027Y-73063713D02*
X218321103Y-73155636D01*
X216684145Y-75315855D02*
X216553330Y-75185040D01*
X217744809Y-74255191D02*
X218218571Y-74728953D01*
X216291700Y-75185040D02*
X216199776Y-75276963D01*
X217037700Y-74962300D02*
X217511462Y-75436062D01*
X217511461Y-75718906D02*
X217440752Y-75789616D01*
X220677557Y-71200000D02*
X220207557Y-71200000D01*
X215000000Y-77470000D02*
X214900000Y-77470000D01*
X216906885Y-74831484D02*
X217037699Y-74962298D01*
X217391256Y-74608747D02*
X217391254Y-74608746D01*
X216998809Y-74477931D02*
X216906885Y-74569854D01*
X216804352Y-76426015D02*
X216733643Y-76496725D01*
X219512583Y-72487420D02*
X219512581Y-72487419D01*
X219159026Y-72840971D02*
X219159027Y-72840973D01*
X214000000Y-76600000D02*
X213900000Y-76600000D01*
X215764905Y-76235096D02*
X215400000Y-76600000D01*
X220877557Y-70900000D02*
X220877557Y-71000000D01*
X214500000Y-75730000D02*
X214400000Y-75730000D01*
X219512581Y-72487419D02*
X219381766Y-72356604D01*
X218854970Y-74375398D02*
G75*
G02*
X218572079Y-74375447I-141470J141398D01*
G01*
X219632789Y-73314735D02*
G75*
G02*
X219632832Y-73597623I-141389J-141465D01*
G01*
X219028212Y-72448527D02*
G75*
G03*
X219028254Y-72710115I130788J-130773D01*
G01*
X218321103Y-73155636D02*
G75*
G03*
X218321054Y-73417315I130797J-130864D01*
G01*
X214900000Y-77470000D02*
G75*
G02*
X214700000Y-77270000I0J200000D01*
G01*
X220007557Y-70500000D02*
G75*
G03*
X220207557Y-70700043I200043J0D01*
G01*
X216553330Y-75185040D02*
G75*
G03*
X216291700Y-75185040I-130815J-130816D01*
G01*
X220207557Y-71200000D02*
G75*
G03*
X220007600Y-71400000I43J-200000D01*
G01*
X214200000Y-76400000D02*
G75*
G02*
X214000000Y-76600000I-200000J0D01*
G01*
X220339897Y-72607628D02*
G75*
G02*
X220339848Y-72890421I-141397J-141372D01*
G01*
X214700000Y-75930000D02*
G75*
G03*
X214500000Y-75730000I-200000J0D01*
G01*
X217511462Y-75436062D02*
G75*
G02*
X217511478Y-75718922I-141462J-141438D01*
G01*
X218674657Y-73063713D02*
G75*
G03*
X218413027Y-73063713I-130815J-130816D01*
G01*
X217260439Y-74477931D02*
G75*
G03*
X216998809Y-74477931I-130815J-130816D01*
G01*
X220877557Y-71000000D02*
G75*
G02*
X220677557Y-71199957I-199957J0D01*
G01*
X218147861Y-75082507D02*
G75*
G02*
X217864979Y-75082547I-141461J141407D01*
G01*
X217967548Y-73770822D02*
G75*
G03*
X217705918Y-73770822I-130815J-130816D01*
G01*
X215400000Y-76600000D02*
G75*
G03*
X215200000Y-76800000I0J-200000D01*
G01*
X216118459Y-76164386D02*
G75*
G03*
X215835617Y-76164386I-141421J-141419D01*
G01*
X220269188Y-72961180D02*
G75*
G02*
X219986379Y-72961147I-141388J141380D01*
G01*
X217613994Y-73862745D02*
G75*
G03*
X217613954Y-74124415I130806J-130855D01*
G01*
X217440752Y-75789616D02*
G75*
G02*
X217157879Y-75789647I-141452J141416D01*
G01*
X215200000Y-77270000D02*
G75*
G02*
X215000000Y-77470000I-200000J0D01*
G01*
X218925680Y-74021844D02*
G75*
G02*
X218925714Y-74304723I-141380J-141456D01*
G01*
X219562079Y-73668289D02*
G75*
G02*
X219279279Y-73668247I-141379J141389D01*
G01*
X219381766Y-72356604D02*
G75*
G03*
X219120136Y-72356604I-130815J-130816D01*
G01*
X218218571Y-74728953D02*
G75*
G02*
X218218596Y-75011823I-141371J-141447D01*
G01*
X216804353Y-76143171D02*
G75*
G02*
X216804360Y-76426022I-141453J-141429D01*
G01*
X216906885Y-74569854D02*
G75*
G03*
X216906854Y-74831515I130815J-130846D01*
G01*
X220007557Y-71992443D02*
G75*
G03*
X220007521Y-72275321I141443J-141457D01*
G01*
X216733643Y-76496725D02*
G75*
G02*
X216450779Y-76496747I-141443J141425D01*
G01*
X220677557Y-70700000D02*
G75*
G02*
X220877600Y-70900000I43J-200000D01*
G01*
X214400000Y-75730000D02*
G75*
G03*
X214200000Y-75930000I0J-200000D01*
G01*
X216199776Y-75276963D02*
G75*
G03*
X216199754Y-75538615I130824J-130837D01*
G01*
%TO.N,/FMC_A10*%
X202067882Y-72260000D02*
X202067882Y-72160000D01*
X203627882Y-72500000D02*
X203507882Y-72500000D01*
X205427882Y-71920000D02*
X205307882Y-71920000D01*
X204467882Y-72260000D02*
X204467882Y-72160000D01*
X200992287Y-72500000D02*
X199500000Y-72500000D01*
X204827882Y-72500000D02*
X204707882Y-72500000D01*
X206157882Y-72250000D02*
X205907882Y-72500000D01*
X201827882Y-71920000D02*
X201707882Y-71920000D01*
X202667882Y-72160000D02*
X202667882Y-72260000D01*
X204227882Y-71920000D02*
X204107882Y-71920000D01*
X201227882Y-72500000D02*
X201107882Y-72500000D01*
X201467882Y-72160000D02*
X201467882Y-72260000D01*
X203867882Y-72160000D02*
X203867882Y-72260000D01*
X203267882Y-72260000D02*
X203267882Y-72160000D01*
X205667882Y-72260000D02*
X205667882Y-72160000D01*
X205067882Y-72160000D02*
X205067882Y-72260000D01*
X210988796Y-73613480D02*
X209625316Y-72250000D01*
X209625316Y-72250000D02*
X206157882Y-72250000D01*
X201107882Y-72500000D02*
X200992287Y-72500000D01*
X199500000Y-72500000D02*
X198600000Y-71600000D01*
X202427882Y-72500000D02*
X202307882Y-72500000D01*
X203027882Y-71920000D02*
X202907882Y-71920000D01*
X205067882Y-72260000D02*
G75*
G02*
X204827882Y-72499982I-239982J0D01*
G01*
X201707882Y-71920000D02*
G75*
G03*
X201467900Y-72160000I18J-240000D01*
G01*
X202307882Y-72500000D02*
G75*
G02*
X202067900Y-72260000I18J240000D01*
G01*
X201467882Y-72260000D02*
G75*
G02*
X201227882Y-72499982I-239982J0D01*
G01*
X204107882Y-71920000D02*
G75*
G03*
X203867900Y-72160000I18J-240000D01*
G01*
X203267882Y-72160000D02*
G75*
G03*
X203027882Y-71920018I-239982J0D01*
G01*
X204707882Y-72500000D02*
G75*
G02*
X204467900Y-72260000I18J240000D01*
G01*
X205667882Y-72160000D02*
G75*
G03*
X205427882Y-71920018I-239982J0D01*
G01*
X202907882Y-71920000D02*
G75*
G03*
X202667900Y-72160000I18J-240000D01*
G01*
X202667882Y-72260000D02*
G75*
G02*
X202427882Y-72499982I-239982J0D01*
G01*
X203507882Y-72500000D02*
G75*
G02*
X203267900Y-72260000I18J240000D01*
G01*
X204467882Y-72160000D02*
G75*
G03*
X204227882Y-71920018I-239982J0D01*
G01*
X205907882Y-72500000D02*
G75*
G02*
X205667900Y-72260000I18J240000D01*
G01*
X205307882Y-71920000D02*
G75*
G03*
X205067900Y-72160000I18J-240000D01*
G01*
X202067882Y-72160000D02*
G75*
G03*
X201827882Y-71920018I-239982J0D01*
G01*
X203867882Y-72260000D02*
G75*
G02*
X203627882Y-72499982I-239982J0D01*
G01*
%TO.N,/SWCLK*%
X182800000Y-103600000D02*
X170940000Y-115460000D01*
X185000000Y-103600000D02*
X182800000Y-103600000D01*
X194200000Y-94600000D02*
X194000000Y-94600000D01*
X194000000Y-94600000D02*
X185000000Y-103600000D01*
X170940000Y-115460000D02*
X167500000Y-115460000D01*
%TO.N,/FMC_A6*%
X199355678Y-68480000D02*
X199355678Y-68500000D01*
X199655678Y-68280000D02*
X199555678Y-68280000D01*
X201655678Y-68280000D02*
X201555678Y-68280000D01*
X199155678Y-68700000D02*
X199055678Y-68700000D01*
X199000000Y-68700000D02*
X195732844Y-68700000D01*
X202900000Y-68700000D02*
X202055678Y-68700000D01*
X201355678Y-68480000D02*
X201355678Y-68500000D01*
X201155678Y-68700000D02*
X201055678Y-68700000D01*
X195732844Y-68700000D02*
X195141422Y-68108578D01*
X199055678Y-68700000D02*
X199000000Y-68700000D01*
X200655678Y-68280000D02*
X200555678Y-68280000D01*
X200855678Y-68500000D02*
X200855678Y-68480000D01*
X200355678Y-68480000D02*
X200355678Y-68500000D01*
X199855678Y-68500000D02*
X199855678Y-68480000D01*
X201855678Y-68500000D02*
X201855678Y-68480000D01*
X200155678Y-68700000D02*
X200055678Y-68700000D01*
X201355678Y-68500000D02*
G75*
G02*
X201155678Y-68699978I-199978J0D01*
G01*
X201555678Y-68280000D02*
G75*
G03*
X201355700Y-68480000I22J-200000D01*
G01*
X201055678Y-68700000D02*
G75*
G02*
X200855700Y-68500000I22J200000D01*
G01*
X199355678Y-68500000D02*
G75*
G02*
X199155678Y-68699978I-199978J0D01*
G01*
X199855678Y-68480000D02*
G75*
G03*
X199655678Y-68280022I-199978J0D01*
G01*
X200055678Y-68700000D02*
G75*
G02*
X199855700Y-68500000I22J200000D01*
G01*
X201855678Y-68480000D02*
G75*
G03*
X201655678Y-68280022I-199978J0D01*
G01*
X200855678Y-68480000D02*
G75*
G03*
X200655678Y-68280022I-199978J0D01*
G01*
X200355678Y-68500000D02*
G75*
G02*
X200155678Y-68699978I-199978J0D01*
G01*
X200555678Y-68280000D02*
G75*
G03*
X200355700Y-68480000I22J-200000D01*
G01*
X202055678Y-68700000D02*
G75*
G02*
X201855700Y-68500000I22J200000D01*
G01*
X199555678Y-68280000D02*
G75*
G03*
X199355700Y-68480000I22J-200000D01*
G01*
%TO.N,/FMC_D7*%
X204028248Y-68111091D02*
X203816116Y-68323224D01*
X203533274Y-68323224D02*
X203462563Y-68252513D01*
X207050000Y-68700000D02*
X207050000Y-68500000D01*
X205350000Y-68500000D02*
X205250000Y-68500000D01*
X214792289Y-71498218D02*
X214560642Y-71269921D01*
X204346445Y-66378678D02*
X203462561Y-67262561D01*
X213000000Y-70153824D02*
X211546176Y-68700000D01*
X205250000Y-68500000D02*
X204700000Y-68500000D01*
X206550000Y-68150000D02*
X206550000Y-68500000D01*
X206550000Y-68500000D02*
X206550000Y-68700000D01*
X206850000Y-67950000D02*
X206750000Y-67950000D01*
X203816116Y-67616116D02*
X204699999Y-66732232D01*
X206050000Y-68500000D02*
X206050000Y-68300000D01*
X204699999Y-66449389D02*
X204629288Y-66378678D01*
X204700000Y-68500000D02*
X204311092Y-68111092D01*
X206050000Y-68700000D02*
X206050000Y-68500000D01*
X210339955Y-68700000D02*
X209389955Y-67750000D01*
X202967585Y-66767585D02*
X202896875Y-66696875D01*
X211546176Y-68700000D02*
X210339955Y-68700000D01*
X209389955Y-67750000D02*
X208500000Y-67750000D01*
X203462561Y-67262561D02*
X203321138Y-67403981D01*
X208500000Y-67750000D02*
X207750000Y-68500000D01*
X202896875Y-66696875D02*
X202424970Y-66224970D01*
X202424970Y-66224970D02*
X201900000Y-65700000D01*
X203674695Y-67757537D02*
X203816116Y-67616116D01*
X205550000Y-67550000D02*
X205550000Y-68300000D01*
X207050000Y-68500000D02*
X207050000Y-68150000D01*
X201900000Y-65700000D02*
X201800000Y-65800000D01*
X203038296Y-67403982D02*
X202967585Y-67333271D01*
X205850000Y-67350000D02*
X205750000Y-67350000D01*
X206350000Y-68900000D02*
X206250000Y-68900000D01*
X214750000Y-72250000D02*
X214792289Y-72207711D01*
X206050000Y-68300000D02*
X206050000Y-67550000D01*
X213000000Y-70500000D02*
X213000000Y-70153824D01*
X214792289Y-72207711D02*
X214792289Y-71498218D01*
X203462562Y-67969669D02*
X203674695Y-67757537D01*
X214750000Y-72250000D02*
X213000000Y-70500000D01*
X207350000Y-68900000D02*
X207250000Y-68900000D01*
X207750000Y-68500000D02*
G75*
G03*
X207550000Y-68700000I0J-200000D01*
G01*
X204311092Y-68111092D02*
G75*
G03*
X204028279Y-68111121I-141392J-141408D01*
G01*
X207550000Y-68700000D02*
G75*
G02*
X207350000Y-68900000I-200000J0D01*
G01*
X207250000Y-68900000D02*
G75*
G02*
X207050000Y-68700000I0J200000D01*
G01*
X206550000Y-68700000D02*
G75*
G02*
X206350000Y-68900000I-200000J0D01*
G01*
X203462563Y-68252513D02*
G75*
G02*
X203462571Y-67969678I141437J141413D01*
G01*
X207050000Y-68150000D02*
G75*
G03*
X206850000Y-67950000I-200000J0D01*
G01*
X206050000Y-67550000D02*
G75*
G03*
X205850000Y-67350000I-200000J0D01*
G01*
X206750000Y-67950000D02*
G75*
G03*
X206550000Y-68150000I0J-200000D01*
G01*
X203321138Y-67403981D02*
G75*
G02*
X203038279Y-67403999I-141438J141381D01*
G01*
X204699999Y-66732232D02*
G75*
G03*
X204700010Y-66449378I-141399J141432D01*
G01*
X203816116Y-68323224D02*
G75*
G02*
X203533274Y-68323224I-141421J141426D01*
G01*
X205550000Y-68300000D02*
G75*
G02*
X205350000Y-68500000I-200000J0D01*
G01*
X202967584Y-67050427D02*
G75*
G03*
X202967591Y-66767579I-141384J141427D01*
G01*
X206250000Y-68900000D02*
G75*
G02*
X206050000Y-68700000I0J200000D01*
G01*
X205750000Y-67350000D02*
G75*
G03*
X205550000Y-67550000I0J-200000D01*
G01*
X204629288Y-66378678D02*
G75*
G03*
X204346446Y-66378678I-141421J-141420D01*
G01*
X202967585Y-67333271D02*
G75*
G02*
X202967535Y-67050379I141415J141471D01*
G01*
%TO.N,/FMC_D3*%
X225455025Y-82544975D02*
X226720321Y-81279679D01*
X225444975Y-82544975D02*
X225455025Y-82544975D01*
X226720321Y-81279679D02*
X226720321Y-79220321D01*
%TO.N,/FMC_D5*%
X214247253Y-67447253D02*
X214220000Y-67420000D01*
X207690127Y-66750000D02*
X207529361Y-66910766D01*
X213200194Y-67420000D02*
X212782004Y-67001810D01*
X215339734Y-68539734D02*
X215509439Y-68370028D01*
X215155888Y-68723584D02*
X215170029Y-68709440D01*
X215170029Y-68709440D02*
X215339734Y-68539735D01*
X215594295Y-69133707D02*
X215580151Y-69147848D01*
X216852945Y-72199999D02*
X216852945Y-71450334D01*
X214745762Y-67945763D02*
X214660911Y-67860911D01*
X215099316Y-67931621D02*
X215085173Y-67945763D01*
X212782004Y-66750000D02*
X207690127Y-66750000D01*
X215339734Y-68539735D02*
X215339734Y-68539734D01*
X207529361Y-66910766D02*
X206910766Y-66910766D01*
X204000000Y-64000000D02*
X200739950Y-64000000D01*
X214220000Y-67420000D02*
X213200194Y-67420000D01*
X206910766Y-66910766D02*
X204000000Y-64000000D01*
X215240741Y-69147849D02*
X215155888Y-69062996D01*
X216852945Y-70052945D02*
X216393326Y-69593326D01*
X215523581Y-68016474D02*
X215438728Y-67931621D01*
X216352945Y-70970334D02*
X216352945Y-70850334D01*
X216852945Y-70370334D02*
X216852945Y-70250334D01*
X215509439Y-68370028D02*
X215523581Y-68355886D01*
X200739950Y-64000000D02*
X199619975Y-65119975D01*
X212782004Y-67001810D02*
X212782004Y-66750000D01*
X216612945Y-71210334D02*
X216592945Y-71210334D01*
X214660911Y-67860911D02*
X214247253Y-67447253D01*
X216592945Y-70610334D02*
X216612945Y-70610334D01*
X216393326Y-69593326D02*
X215933707Y-69133707D01*
X216852945Y-70250334D02*
X216852945Y-70052945D01*
X216852945Y-71450334D02*
G75*
G03*
X216612945Y-71210255I-240045J34D01*
G01*
X215155888Y-69062996D02*
G75*
G02*
X215155898Y-68723594I169712J169696D01*
G01*
X215523581Y-68355886D02*
G75*
G03*
X215523561Y-68016494I-169681J169686D01*
G01*
X215580151Y-69147848D02*
G75*
G02*
X215240696Y-69147895I-169751J169748D01*
G01*
X215085173Y-67945763D02*
G75*
G02*
X214745761Y-67945764I-169706J169703D01*
G01*
X216352945Y-70850334D02*
G75*
G02*
X216592945Y-70610345I239955J34D01*
G01*
X215933707Y-69133707D02*
G75*
G03*
X215594295Y-69133707I-169706J-169701D01*
G01*
X215438728Y-67931621D02*
G75*
G03*
X215099316Y-67931621I-169706J-169704D01*
G01*
X216592945Y-71210334D02*
G75*
G02*
X216352866Y-70970334I-45J240034D01*
G01*
X216612945Y-70610334D02*
G75*
G03*
X216852934Y-70370334I-45J240034D01*
G01*
%TO.N,/FMC_A8*%
X209931502Y-63760000D02*
X209931502Y-63240000D01*
X208491502Y-63000000D02*
X208371502Y-63000000D01*
X204850000Y-63250000D02*
X200500000Y-63250000D01*
X207531502Y-63760000D02*
X207531502Y-63240000D01*
X210531502Y-63240000D02*
X210531502Y-63760000D01*
X208131502Y-63240000D02*
X208131502Y-63760000D01*
X205100000Y-63000000D02*
X204850000Y-63250000D01*
X207891502Y-64000000D02*
X207771502Y-64000000D01*
X206091502Y-63000000D02*
X205971502Y-63000000D01*
X195625000Y-66250000D02*
X195250000Y-66250000D01*
X208731502Y-63760000D02*
X208731502Y-63240000D01*
X212409950Y-63000000D02*
X210771502Y-63000000D01*
X207291502Y-63000000D02*
X207171502Y-63000000D01*
X209331502Y-63240000D02*
X209331502Y-63760000D01*
X213154975Y-63745025D02*
X212409950Y-63000000D01*
X195875000Y-66500000D02*
X195625000Y-66250000D01*
X210291502Y-64000000D02*
X210171502Y-64000000D01*
X200500000Y-63250000D02*
X197250000Y-66500000D01*
X197250000Y-66500000D02*
X195875000Y-66500000D01*
X205971502Y-63000000D02*
X205100000Y-63000000D01*
X206931502Y-63240000D02*
X206931502Y-63760000D01*
X209691502Y-63000000D02*
X209571502Y-63000000D01*
X206331502Y-63760000D02*
X206331502Y-63240000D01*
X209091502Y-64000000D02*
X208971502Y-64000000D01*
X206691502Y-64000000D02*
X206571502Y-64000000D01*
X207171502Y-63000000D02*
G75*
G03*
X206931500Y-63240000I-2J-240000D01*
G01*
X207531502Y-63240000D02*
G75*
G03*
X207291502Y-62999998I-240002J0D01*
G01*
X206931502Y-63760000D02*
G75*
G02*
X206691502Y-64000002I-240002J0D01*
G01*
X208731502Y-63240000D02*
G75*
G03*
X208491502Y-62999998I-240002J0D01*
G01*
X207771502Y-64000000D02*
G75*
G02*
X207531500Y-63760000I-2J240000D01*
G01*
X208971502Y-64000000D02*
G75*
G02*
X208731500Y-63760000I-2J240000D01*
G01*
X206331502Y-63240000D02*
G75*
G03*
X206091502Y-62999998I-240002J0D01*
G01*
X208131502Y-63760000D02*
G75*
G02*
X207891502Y-64000002I-240002J0D01*
G01*
X210531502Y-63760000D02*
G75*
G02*
X210291502Y-64000002I-240002J0D01*
G01*
X209931502Y-63240000D02*
G75*
G03*
X209691502Y-62999998I-240002J0D01*
G01*
X210771502Y-63000000D02*
G75*
G03*
X210531500Y-63240000I-2J-240000D01*
G01*
X209571502Y-63000000D02*
G75*
G03*
X209331500Y-63240000I-2J-240000D01*
G01*
X210171502Y-64000000D02*
G75*
G02*
X209931500Y-63760000I-2J240000D01*
G01*
X208371502Y-63000000D02*
G75*
G03*
X208131500Y-63240000I-2J-240000D01*
G01*
X209331502Y-63760000D02*
G75*
G02*
X209091502Y-64000002I-240002J0D01*
G01*
X206571502Y-64000000D02*
G75*
G02*
X206331500Y-63760000I-2J240000D01*
G01*
%TO.N,Net-(C45-Pad1)*%
X202000000Y-100250000D02*
X201500000Y-99750000D01*
X193250000Y-99750000D02*
X181250000Y-111750000D01*
X201500000Y-99750000D02*
X193250000Y-99750000D01*
%TO.N,Net-(U9A--)*%
X202000000Y-101439338D02*
X202000000Y-107000000D01*
X201905331Y-101344669D02*
X200750000Y-102500000D01*
X200750000Y-102500000D02*
X200750000Y-104500000D01*
X200750000Y-104500000D02*
X198500000Y-106750000D01*
X201905331Y-101344669D02*
X202000000Y-101439338D01*
X202000000Y-107000000D02*
X201250000Y-107750000D01*
%TO.N,Net-(C46-Pad1)*%
X184500000Y-125250000D02*
X185750000Y-126500000D01*
X187250000Y-126500000D02*
X188500000Y-125250000D01*
X199750000Y-104250000D02*
X193750000Y-110250000D01*
X184500000Y-124475000D02*
X184500000Y-125250000D01*
X193750000Y-110250000D02*
X193750000Y-113750000D01*
X188500000Y-125250000D02*
X188500000Y-124475000D01*
X188500000Y-119000000D02*
X188500000Y-124475000D01*
X199750000Y-102500000D02*
X199750000Y-104250000D01*
X185750000Y-126500000D02*
X187250000Y-126500000D01*
X193750000Y-113750000D02*
X188500000Y-119000000D01*
%TO.N,/Audio Codec/Input Output Channels/INR*%
X215800000Y-108625000D02*
X215750000Y-108575000D01*
X230500000Y-103750000D02*
X225625000Y-108625000D01*
X225625000Y-108625000D02*
X215800000Y-108625000D01*
X232083700Y-103750000D02*
X230500000Y-103750000D01*
%TO.N,/Audio Codec/Input Output Channels/INL*%
X232979504Y-103655854D02*
X232123650Y-102800000D01*
X217750000Y-101000000D02*
X215750000Y-99000000D01*
X232123650Y-102800000D02*
X230800000Y-102800000D01*
X230800000Y-102800000D02*
X229000000Y-101000000D01*
X229000000Y-101000000D02*
X217750000Y-101000000D01*
X232979504Y-103939709D02*
X232979504Y-103655854D01*
%TO.N,Net-(C53-Pad1)*%
X222400000Y-105850000D02*
X222400000Y-103350000D01*
X222400000Y-103350000D02*
X223000000Y-102750000D01*
%TO.N,/SWO*%
X183750000Y-98650000D02*
X171400000Y-111000000D01*
X171400000Y-111000000D02*
X165600000Y-111000000D01*
X165600000Y-118640000D02*
X167500000Y-120540000D01*
X183750000Y-84250000D02*
X183750000Y-98650000D01*
X165600000Y-111000000D02*
X165600000Y-118640000D01*
X185800000Y-82200000D02*
X183750000Y-84250000D01*
X188700000Y-82200000D02*
X185800000Y-82200000D01*
%TO.N,Net-(R11-Pad2)*%
X182500000Y-113000000D02*
X182500000Y-124475000D01*
X185500000Y-110250000D02*
X185250000Y-110250000D01*
X185250000Y-110250000D02*
X182500000Y-113000000D01*
%TO.N,Net-(R12-Pad2)*%
X185250000Y-111500000D02*
X186500000Y-112750000D01*
X186500000Y-112750000D02*
X186500000Y-124475000D01*
%TO.N,/FAD_LED4_OUT*%
X216050000Y-81850000D02*
X210100000Y-81850000D01*
%TO.N,/FMC_SDNRAS*%
X210150000Y-82750000D02*
X210700000Y-83300000D01*
X207510050Y-82750000D02*
X210150000Y-82750000D01*
X203324210Y-82000000D02*
X206760050Y-82000000D01*
X202453156Y-81128946D02*
X203324210Y-82000000D01*
X206760050Y-82000000D02*
X207510050Y-82750000D01*
X201928946Y-81128946D02*
X202453156Y-81128946D01*
X197930025Y-77130025D02*
X201928946Y-81128946D01*
X197930025Y-75519975D02*
X197930025Y-77130025D01*
X198000000Y-75450000D02*
X197930025Y-75519975D01*
%TD*%
M02*
