%TF.GenerationSoftware,KiCad,Pcbnew,8.0.8*%
%TF.CreationDate,2025-01-25T01:21:13+01:00*%
%TF.ProjectId,aware01_h7,61776172-6530-4315-9f68-372e6b696361,rev?*%
%TF.SameCoordinates,Original*%
%TF.FileFunction,Drillmap*%
%TF.FilePolarity,Positive*%
%FSLAX45Y45*%
G04 Gerber Fmt 4.5, Leading zero omitted, Abs format (unit mm)*
G04 Created by KiCad (PCBNEW 8.0.8) date 2025-01-25 01:21:13*
%MOMM*%
%LPD*%
G01*
G04 APERTURE LIST*
%ADD10C,0.050000*%
%ADD11C,0.200000*%
%ADD12C,0.100000*%
%ADD13C,0.110000*%
%ADD14C,0.120000*%
%ADD15C,0.297000*%
G04 APERTURE END LIST*
D10*
X16175000Y-3550000D02*
X23800000Y-3550000D01*
X23800000Y-14550000D01*
X16175000Y-14550000D01*
X16175000Y-3550000D01*
D11*
D12*
X16285000Y-6310000D02*
X16315000Y-6340000D01*
X16315000Y-6310000D02*
X16285000Y-6340000D01*
X16435000Y-6285000D02*
X16465000Y-6315000D01*
X16465000Y-6285000D02*
X16435000Y-6315000D01*
X16510000Y-6160000D02*
X16540000Y-6190000D01*
X16540000Y-6160000D02*
X16510000Y-6190000D01*
X16560000Y-6960000D02*
X16590000Y-6990000D01*
X16590000Y-6960000D02*
X16560000Y-6990000D01*
X16565000Y-12545000D02*
X16595000Y-12575000D01*
X16595000Y-12545000D02*
X16565000Y-12575000D01*
X16685000Y-6960000D02*
X16715000Y-6990000D01*
X16715000Y-6960000D02*
X16685000Y-6990000D01*
X16705000Y-7765000D02*
X16735000Y-7795000D01*
X16735000Y-7765000D02*
X16705000Y-7795000D01*
X16835000Y-6960000D02*
X16865000Y-6990000D01*
X16865000Y-6960000D02*
X16835000Y-6990000D01*
X16860000Y-4635000D02*
X16890000Y-4665000D01*
X16890000Y-4635000D02*
X16860000Y-4665000D01*
X16907500Y-6185000D02*
X16937500Y-6215000D01*
X16937500Y-6185000D02*
X16907500Y-6215000D01*
X16965000Y-11265000D02*
X16995000Y-11295000D01*
X16995000Y-11265000D02*
X16965000Y-11295000D01*
X16985000Y-9205000D02*
X17015000Y-9235000D01*
X17015000Y-9205000D02*
X16985000Y-9235000D01*
X17010000Y-4635000D02*
X17040000Y-4665000D01*
X17040000Y-4635000D02*
X17010000Y-4665000D01*
X17025000Y-5345000D02*
X17055000Y-5375000D01*
X17055000Y-5345000D02*
X17025000Y-5375000D01*
X17060000Y-7685000D02*
X17090000Y-7715000D01*
X17090000Y-7685000D02*
X17060000Y-7715000D01*
X17060000Y-9485000D02*
X17090000Y-9515000D01*
X17090000Y-9485000D02*
X17060000Y-9515000D01*
X17077500Y-5852500D02*
X17107500Y-5882500D01*
X17107500Y-5852500D02*
X17077500Y-5882500D01*
X17185000Y-4635000D02*
X17215000Y-4665000D01*
X17215000Y-4635000D02*
X17185000Y-4665000D01*
X17235000Y-6485000D02*
X17265000Y-6515000D01*
X17265000Y-6485000D02*
X17235000Y-6515000D01*
X17285000Y-7945000D02*
X17315000Y-7975000D01*
X17315000Y-7945000D02*
X17285000Y-7975000D01*
X17285000Y-7945000D02*
X17315000Y-7975000D01*
X17315000Y-7945000D02*
X17285000Y-7975000D01*
X17305000Y-9225000D02*
X17335000Y-9255000D01*
X17335000Y-9225000D02*
X17305000Y-9255000D01*
X17335000Y-4635000D02*
X17365000Y-4665000D01*
X17365000Y-4635000D02*
X17335000Y-4665000D01*
X17365000Y-12245000D02*
X17395000Y-12275000D01*
X17395000Y-12245000D02*
X17365000Y-12275000D01*
X17435000Y-6130000D02*
X17465000Y-6160000D01*
X17465000Y-6130000D02*
X17435000Y-6160000D01*
X17435000Y-8635000D02*
X17465000Y-8665000D01*
X17465000Y-8635000D02*
X17435000Y-8665000D01*
X17445000Y-7625000D02*
X17475000Y-7655000D01*
X17475000Y-7625000D02*
X17445000Y-7655000D01*
X17510000Y-13665000D02*
X17540000Y-13695000D01*
X17540000Y-13665000D02*
X17510000Y-13695000D01*
X17732500Y-6505000D02*
X17762500Y-6535000D01*
X17762500Y-6505000D02*
X17732500Y-6535000D01*
X17735000Y-7410000D02*
X17765000Y-7440000D01*
X17765000Y-7410000D02*
X17735000Y-7440000D01*
X17765000Y-6695000D02*
X17795000Y-6725000D01*
X17795000Y-6695000D02*
X17765000Y-6725000D01*
X17835000Y-7335000D02*
X17865000Y-7365000D01*
X17865000Y-7335000D02*
X17835000Y-7365000D01*
X17845000Y-6505000D02*
X17875000Y-6535000D01*
X17875000Y-6505000D02*
X17845000Y-6535000D01*
X17865000Y-8525000D02*
X17895000Y-8555000D01*
X17895000Y-8525000D02*
X17865000Y-8555000D01*
X17885000Y-9610000D02*
X17915000Y-9640000D01*
X17915000Y-9610000D02*
X17885000Y-9640000D01*
X17945000Y-7485000D02*
X17975000Y-7515000D01*
X17975000Y-7485000D02*
X17945000Y-7515000D01*
X17945000Y-7585000D02*
X17975000Y-7615000D01*
X17975000Y-7585000D02*
X17945000Y-7615000D01*
X17976053Y-6475641D02*
X18006053Y-6505641D01*
X18006053Y-6475641D02*
X17976053Y-6505641D01*
X17985000Y-7825000D02*
X18015000Y-7855000D01*
X18015000Y-7825000D02*
X17985000Y-7855000D01*
X18005000Y-9185000D02*
X18035000Y-9215000D01*
X18035000Y-9185000D02*
X18005000Y-9215000D01*
X18025000Y-13885000D02*
X18055000Y-13915000D01*
X18055000Y-13885000D02*
X18025000Y-13915000D01*
X18085000Y-7825000D02*
X18115000Y-7855000D01*
X18115000Y-7825000D02*
X18085000Y-7855000D01*
X18085000Y-9285000D02*
X18115000Y-9315000D01*
X18115000Y-9285000D02*
X18085000Y-9315000D01*
X18110000Y-8185000D02*
X18140000Y-8215000D01*
X18140000Y-8185000D02*
X18110000Y-8215000D01*
X18110000Y-9760000D02*
X18140000Y-9790000D01*
X18140000Y-9760000D02*
X18110000Y-9790000D01*
X18110000Y-11160000D02*
X18140000Y-11190000D01*
X18140000Y-11160000D02*
X18110000Y-11190000D01*
X18145000Y-6255000D02*
X18175000Y-6285000D01*
X18175000Y-6255000D02*
X18145000Y-6285000D01*
X18185000Y-9185000D02*
X18215000Y-9215000D01*
X18215000Y-9185000D02*
X18185000Y-9215000D01*
X18187500Y-5707500D02*
X18217500Y-5737500D01*
X18217500Y-5707500D02*
X18187500Y-5737500D01*
X18210000Y-8645000D02*
X18240000Y-8675000D01*
X18240000Y-8645000D02*
X18210000Y-8675000D01*
X18245000Y-6255000D02*
X18275000Y-6285000D01*
X18275000Y-6255000D02*
X18245000Y-6285000D01*
X18425000Y-4965000D02*
X18455000Y-4995000D01*
X18455000Y-4965000D02*
X18425000Y-4995000D01*
X18465000Y-8025000D02*
X18495000Y-8055000D01*
X18495000Y-8025000D02*
X18465000Y-8055000D01*
X18475000Y-8535000D02*
X18505000Y-8565000D01*
X18505000Y-8535000D02*
X18475000Y-8565000D01*
X18485000Y-7025000D02*
X18515000Y-7055000D01*
X18515000Y-7025000D02*
X18485000Y-7055000D01*
X18485000Y-8710000D02*
X18515000Y-8740000D01*
X18515000Y-8710000D02*
X18485000Y-8740000D01*
X18505000Y-5065000D02*
X18535000Y-5095000D01*
X18535000Y-5065000D02*
X18505000Y-5095000D01*
X18505000Y-6625000D02*
X18535000Y-6655000D01*
X18535000Y-6625000D02*
X18505000Y-6655000D01*
X18510000Y-11135000D02*
X18540000Y-11165000D01*
X18540000Y-11135000D02*
X18510000Y-11165000D01*
X18525000Y-5865000D02*
X18555000Y-5895000D01*
X18555000Y-5865000D02*
X18525000Y-5895000D01*
X18535000Y-7160000D02*
X18565000Y-7190000D01*
X18565000Y-7160000D02*
X18535000Y-7190000D01*
X18535000Y-11010000D02*
X18565000Y-11040000D01*
X18565000Y-11010000D02*
X18535000Y-11040000D01*
X18560000Y-7310000D02*
X18590000Y-7340000D01*
X18590000Y-7310000D02*
X18560000Y-7340000D01*
X18615000Y-5865000D02*
X18645000Y-5895000D01*
X18645000Y-5865000D02*
X18615000Y-5895000D01*
X18625000Y-6635000D02*
X18655000Y-6665000D01*
X18655000Y-6635000D02*
X18625000Y-6665000D01*
X18710000Y-7060000D02*
X18740000Y-7090000D01*
X18740000Y-7060000D02*
X18710000Y-7090000D01*
X18722344Y-8497656D02*
X18752344Y-8527656D01*
X18752344Y-8497656D02*
X18722344Y-8527656D01*
X18745000Y-7510000D02*
X18775000Y-7540000D01*
X18775000Y-7510000D02*
X18745000Y-7540000D01*
X18755000Y-8115000D02*
X18785000Y-8145000D01*
X18785000Y-8115000D02*
X18755000Y-8145000D01*
X18760000Y-6385000D02*
X18790000Y-6415000D01*
X18790000Y-6385000D02*
X18760000Y-6415000D01*
X18805000Y-5365000D02*
X18835000Y-5395000D01*
X18835000Y-5365000D02*
X18805000Y-5395000D01*
X18825000Y-9225000D02*
X18855000Y-9255000D01*
X18855000Y-9225000D02*
X18825000Y-9255000D01*
X18855000Y-8205000D02*
X18885000Y-8235000D01*
X18885000Y-8205000D02*
X18855000Y-8235000D01*
X18885000Y-8685000D02*
X18915000Y-8715000D01*
X18915000Y-8685000D02*
X18885000Y-8715000D01*
X18906998Y-7441997D02*
X18936998Y-7471997D01*
X18936998Y-7441997D02*
X18906998Y-7471997D01*
X18935000Y-10235000D02*
X18965000Y-10265000D01*
X18965000Y-10235000D02*
X18935000Y-10265000D01*
X18960000Y-6085000D02*
X18990000Y-6115000D01*
X18990000Y-6085000D02*
X18960000Y-6115000D01*
X18985000Y-8760000D02*
X19015000Y-8790000D01*
X19015000Y-8760000D02*
X18985000Y-8790000D01*
X18995000Y-4675000D02*
X19025000Y-4705000D01*
X19025000Y-4675000D02*
X18995000Y-4705000D01*
X19010000Y-6410000D02*
X19040000Y-6440000D01*
X19040000Y-6410000D02*
X19010000Y-6440000D01*
X19043090Y-8525587D02*
X19073090Y-8555587D01*
X19073090Y-8525587D02*
X19043090Y-8555587D01*
X19105000Y-9225000D02*
X19135000Y-9255000D01*
X19135000Y-9225000D02*
X19105000Y-9255000D01*
X19138741Y-8533759D02*
X19168741Y-8563759D01*
X19168741Y-8533759D02*
X19138741Y-8563759D01*
X19185000Y-13885000D02*
X19215000Y-13915000D01*
X19215000Y-13885000D02*
X19185000Y-13915000D01*
X19225000Y-5905000D02*
X19255000Y-5935000D01*
X19255000Y-5905000D02*
X19225000Y-5935000D01*
X19232500Y-9892500D02*
X19262500Y-9922500D01*
X19262500Y-9892500D02*
X19232500Y-9922500D01*
X19265000Y-8745000D02*
X19295000Y-8775000D01*
X19295000Y-8745000D02*
X19265000Y-8775000D01*
X19265000Y-8965000D02*
X19295000Y-8995000D01*
X19295000Y-8965000D02*
X19265000Y-8995000D01*
X19315000Y-5905000D02*
X19345000Y-5935000D01*
X19345000Y-5905000D02*
X19315000Y-5935000D01*
X19321360Y-9321360D02*
X19351360Y-9351360D01*
X19351360Y-9321360D02*
X19321360Y-9351360D01*
X19360000Y-10060000D02*
X19390000Y-10090000D01*
X19390000Y-10060000D02*
X19360000Y-10090000D01*
X19362384Y-7561379D02*
X19392384Y-7591379D01*
X19392384Y-7561379D02*
X19362384Y-7591379D01*
X19362500Y-8747500D02*
X19392500Y-8777500D01*
X19392500Y-8747500D02*
X19362500Y-8777500D01*
X19405000Y-9445000D02*
X19435000Y-9475000D01*
X19435000Y-9445000D02*
X19405000Y-9475000D01*
X19425000Y-8025000D02*
X19455000Y-8055000D01*
X19455000Y-8025000D02*
X19425000Y-8055000D01*
X19445000Y-8985000D02*
X19475000Y-9015000D01*
X19475000Y-8985000D02*
X19445000Y-9015000D01*
X19485000Y-4235000D02*
X19515000Y-4265000D01*
X19515000Y-4235000D02*
X19485000Y-4265000D01*
X19485000Y-7485000D02*
X19515000Y-7515000D01*
X19515000Y-7485000D02*
X19485000Y-7515000D01*
X19499142Y-6795858D02*
X19529142Y-6825858D01*
X19529142Y-6795858D02*
X19499142Y-6825858D01*
X19509498Y-6510502D02*
X19539498Y-6540502D01*
X19539498Y-6510502D02*
X19509498Y-6540502D01*
X19510000Y-6610000D02*
X19540000Y-6640000D01*
X19540000Y-6610000D02*
X19510000Y-6640000D01*
X19510000Y-7260000D02*
X19540000Y-7290000D01*
X19540000Y-7260000D02*
X19510000Y-7290000D01*
X19510434Y-6706569D02*
X19540434Y-6736569D01*
X19540434Y-6706569D02*
X19510434Y-6736569D01*
X19531678Y-9107683D02*
X19561678Y-9137683D01*
X19561678Y-9107683D02*
X19531678Y-9137683D01*
X19605000Y-6090000D02*
X19635000Y-6120000D01*
X19635000Y-6090000D02*
X19605000Y-6120000D01*
X19615000Y-7475000D02*
X19645000Y-7505000D01*
X19645000Y-7475000D02*
X19615000Y-7505000D01*
X19621998Y-9198003D02*
X19651998Y-9228003D01*
X19651998Y-9198003D02*
X19621998Y-9228003D01*
X19635139Y-8680000D02*
X19665139Y-8710000D01*
X19665139Y-8680000D02*
X19635139Y-8710000D01*
X19649498Y-6490000D02*
X19679498Y-6520000D01*
X19679498Y-6490000D02*
X19649498Y-6520000D01*
X19675000Y-5645000D02*
X19705000Y-5675000D01*
X19705000Y-5645000D02*
X19675000Y-5675000D01*
X19685000Y-10485000D02*
X19715000Y-10515000D01*
X19715000Y-10485000D02*
X19685000Y-10515000D01*
X19695139Y-7535000D02*
X19725139Y-7565000D01*
X19725139Y-7535000D02*
X19695139Y-7565000D01*
X19725000Y-8685000D02*
X19755000Y-8715000D01*
X19755000Y-8685000D02*
X19725000Y-8715000D01*
X19765000Y-5645000D02*
X19795000Y-5675000D01*
X19795000Y-5645000D02*
X19765000Y-5675000D01*
X19785000Y-7530000D02*
X19815000Y-7560000D01*
X19815000Y-7530000D02*
X19785000Y-7560000D01*
X19835000Y-10660000D02*
X19865000Y-10690000D01*
X19865000Y-10660000D02*
X19835000Y-10690000D01*
X19845000Y-7145000D02*
X19875000Y-7175000D01*
X19875000Y-7145000D02*
X19845000Y-7175000D01*
X19864616Y-7668617D02*
X19894616Y-7698617D01*
X19894616Y-7668617D02*
X19864616Y-7698617D01*
X19910000Y-7385000D02*
X19940000Y-7415000D01*
X19940000Y-7385000D02*
X19910000Y-7415000D01*
X19935000Y-5910000D02*
X19965000Y-5940000D01*
X19965000Y-5910000D02*
X19935000Y-5940000D01*
X19939636Y-6014636D02*
X19969636Y-6044636D01*
X19969636Y-6014636D02*
X19939636Y-6044636D01*
X19946998Y-6496997D02*
X19976998Y-6526997D01*
X19976998Y-6496997D02*
X19946998Y-6526997D01*
X19960000Y-9735000D02*
X19990000Y-9765000D01*
X19990000Y-9735000D02*
X19960000Y-9765000D01*
X19960000Y-10235000D02*
X19990000Y-10265000D01*
X19990000Y-10235000D02*
X19960000Y-10265000D01*
X19960000Y-12760000D02*
X19990000Y-12790000D01*
X19990000Y-12760000D02*
X19960000Y-12790000D01*
X19968273Y-7688273D02*
X19998273Y-7718273D01*
X19998273Y-7688273D02*
X19968273Y-7718273D01*
X20010000Y-7600000D02*
X20040000Y-7630000D01*
X20040000Y-7600000D02*
X20010000Y-7630000D01*
X20014244Y-7789244D02*
X20044244Y-7819244D01*
X20044244Y-7789244D02*
X20014244Y-7819244D01*
X20050579Y-7871584D02*
X20080579Y-7901584D01*
X20080579Y-7871584D02*
X20050579Y-7901584D01*
X20060000Y-6491726D02*
X20090000Y-6521726D01*
X20090000Y-6491726D02*
X20060000Y-6521726D01*
X20065000Y-8925000D02*
X20095000Y-8955000D01*
X20095000Y-8925000D02*
X20065000Y-8955000D01*
X20110000Y-10760000D02*
X20140000Y-10790000D01*
X20140000Y-10760000D02*
X20110000Y-10790000D01*
X20115000Y-7665000D02*
X20145000Y-7695000D01*
X20145000Y-7665000D02*
X20115000Y-7695000D01*
X20165000Y-6565000D02*
X20195000Y-6595000D01*
X20195000Y-6565000D02*
X20165000Y-6595000D01*
X20165000Y-12905000D02*
X20195000Y-12935000D01*
X20195000Y-12905000D02*
X20165000Y-12935000D01*
X20175533Y-10119467D02*
X20205533Y-10149467D01*
X20205533Y-10119467D02*
X20175533Y-10149467D01*
X20185000Y-10010000D02*
X20215000Y-10040000D01*
X20215000Y-10010000D02*
X20185000Y-10040000D01*
X20205191Y-6689809D02*
X20235191Y-6719809D01*
X20235191Y-6689809D02*
X20205191Y-6719809D01*
X20208499Y-8540000D02*
X20238499Y-8570000D01*
X20238499Y-8540000D02*
X20208499Y-8570000D01*
X20245870Y-8621875D02*
X20275870Y-8651875D01*
X20275870Y-8621875D02*
X20245870Y-8651875D01*
X20265000Y-8905000D02*
X20295000Y-8935000D01*
X20295000Y-8905000D02*
X20265000Y-8935000D01*
X20275000Y-6855000D02*
X20305000Y-6885000D01*
X20305000Y-6855000D02*
X20275000Y-6885000D01*
X20295000Y-7965000D02*
X20325000Y-7995000D01*
X20325000Y-7965000D02*
X20295000Y-7995000D01*
X20345000Y-5787500D02*
X20375000Y-5817500D01*
X20375000Y-5787500D02*
X20345000Y-5817500D01*
X20360000Y-5685000D02*
X20390000Y-5715000D01*
X20390000Y-5685000D02*
X20360000Y-5715000D01*
X20360000Y-6160000D02*
X20390000Y-6190000D01*
X20390000Y-6160000D02*
X20360000Y-6190000D01*
X20385000Y-5885000D02*
X20415000Y-5915000D01*
X20415000Y-5885000D02*
X20385000Y-5915000D01*
X20390993Y-8569007D02*
X20420993Y-8599007D01*
X20420993Y-8569007D02*
X20390993Y-8599007D01*
X20435574Y-6218828D02*
X20465574Y-6248828D01*
X20465574Y-6218828D02*
X20435574Y-6248828D01*
X20525000Y-8985000D02*
X20555000Y-9015000D01*
X20555000Y-8985000D02*
X20525000Y-9015000D01*
X20558003Y-5781997D02*
X20588003Y-5811997D01*
X20588003Y-5781997D02*
X20558003Y-5811997D01*
X20605000Y-8595000D02*
X20635000Y-8625000D01*
X20635000Y-8595000D02*
X20605000Y-8625000D01*
X20610000Y-7665000D02*
X20640000Y-7695000D01*
X20640000Y-7665000D02*
X20610000Y-7695000D01*
X20610000Y-12360000D02*
X20640000Y-12390000D01*
X20640000Y-12360000D02*
X20610000Y-12390000D01*
X20610000Y-12485000D02*
X20640000Y-12515000D01*
X20640000Y-12485000D02*
X20610000Y-12515000D01*
X20645000Y-10405000D02*
X20675000Y-10435000D01*
X20675000Y-10405000D02*
X20645000Y-10435000D01*
X20660000Y-5985000D02*
X20690000Y-6015000D01*
X20690000Y-5985000D02*
X20660000Y-6015000D01*
X20708941Y-6606077D02*
X20738941Y-6636077D01*
X20738941Y-6606077D02*
X20708941Y-6636077D01*
X20710000Y-4710000D02*
X20740000Y-4740000D01*
X20740000Y-4710000D02*
X20710000Y-4740000D01*
X20710000Y-8595000D02*
X20740000Y-8625000D01*
X20740000Y-8595000D02*
X20710000Y-8625000D01*
X20725000Y-9225000D02*
X20755000Y-9255000D01*
X20755000Y-9225000D02*
X20725000Y-9255000D01*
X20755000Y-5375000D02*
X20785000Y-5405000D01*
X20785000Y-5375000D02*
X20755000Y-5405000D01*
X20760000Y-6530000D02*
X20790000Y-6560000D01*
X20790000Y-6530000D02*
X20760000Y-6560000D01*
X20765000Y-8190000D02*
X20795000Y-8220000D01*
X20795000Y-8190000D02*
X20765000Y-8220000D01*
X20785000Y-10005000D02*
X20815000Y-10035000D01*
X20815000Y-10005000D02*
X20785000Y-10035000D01*
X20797500Y-8072500D02*
X20827500Y-8102500D01*
X20827500Y-8072500D02*
X20797500Y-8102500D01*
X20805000Y-8585000D02*
X20835000Y-8615000D01*
X20835000Y-8585000D02*
X20805000Y-8615000D01*
X20825000Y-7005000D02*
X20855000Y-7035000D01*
X20855000Y-7005000D02*
X20825000Y-7035000D01*
X20837966Y-6856029D02*
X20867966Y-6886029D01*
X20867966Y-6856029D02*
X20837966Y-6886029D01*
X20860000Y-7552500D02*
X20890000Y-7582500D01*
X20890000Y-7552500D02*
X20860000Y-7582500D01*
X20865028Y-7395000D02*
X20895028Y-7425000D01*
X20895028Y-7395000D02*
X20865028Y-7425000D01*
X20925000Y-9065000D02*
X20955000Y-9095000D01*
X20955000Y-9065000D02*
X20925000Y-9095000D01*
X20965000Y-7742500D02*
X20995000Y-7772500D01*
X20995000Y-7742500D02*
X20965000Y-7772500D01*
X20985000Y-10535000D02*
X21015000Y-10565000D01*
X21015000Y-10535000D02*
X20985000Y-10565000D01*
X21005555Y-8485000D02*
X21035555Y-8515000D01*
X21035555Y-8485000D02*
X21005555Y-8515000D01*
X21035000Y-9835000D02*
X21065000Y-9865000D01*
X21065000Y-9835000D02*
X21035000Y-9865000D01*
X21045000Y-6925000D02*
X21075000Y-6955000D01*
X21075000Y-6925000D02*
X21045000Y-6955000D01*
X21045000Y-9225000D02*
X21075000Y-9255000D01*
X21075000Y-9225000D02*
X21045000Y-9255000D01*
X21055000Y-8315000D02*
X21085000Y-8345000D01*
X21085000Y-8315000D02*
X21055000Y-8345000D01*
X21060000Y-6785000D02*
X21090000Y-6815000D01*
X21090000Y-6785000D02*
X21060000Y-6815000D01*
X21083880Y-7346348D02*
X21113880Y-7376348D01*
X21113880Y-7346348D02*
X21083880Y-7376348D01*
X21135000Y-7635000D02*
X21165000Y-7665000D01*
X21165000Y-7635000D02*
X21135000Y-7665000D01*
X21145000Y-8065000D02*
X21175000Y-8095000D01*
X21175000Y-8065000D02*
X21145000Y-8095000D01*
X21150623Y-6965000D02*
X21180623Y-6995000D01*
X21180623Y-6965000D02*
X21150623Y-6995000D01*
X21155000Y-8315000D02*
X21185000Y-8345000D01*
X21185000Y-8315000D02*
X21155000Y-8345000D01*
X21160000Y-12735000D02*
X21190000Y-12765000D01*
X21190000Y-12735000D02*
X21160000Y-12765000D01*
X21235000Y-11860000D02*
X21265000Y-11890000D01*
X21265000Y-11860000D02*
X21235000Y-11890000D01*
X21285000Y-7625000D02*
X21315000Y-7655000D01*
X21315000Y-7625000D02*
X21285000Y-7655000D01*
X21300498Y-6359502D02*
X21330498Y-6389502D01*
X21330498Y-6359502D02*
X21300498Y-6389502D01*
X21305000Y-8065000D02*
X21335000Y-8095000D01*
X21335000Y-8065000D02*
X21305000Y-8095000D01*
X21335000Y-10360000D02*
X21365000Y-10390000D01*
X21365000Y-10360000D02*
X21335000Y-10390000D01*
X21342575Y-7907927D02*
X21372575Y-7937927D01*
X21372575Y-7907927D02*
X21342575Y-7937927D01*
X21360000Y-9285000D02*
X21390000Y-9315000D01*
X21390000Y-9285000D02*
X21360000Y-9315000D01*
X21360000Y-10510000D02*
X21390000Y-10540000D01*
X21390000Y-10510000D02*
X21360000Y-10540000D01*
X21435000Y-5885000D02*
X21465000Y-5915000D01*
X21465000Y-5885000D02*
X21435000Y-5915000D01*
X21445000Y-4662500D02*
X21475000Y-4692500D01*
X21475000Y-4662500D02*
X21445000Y-4692500D01*
X21445000Y-7911357D02*
X21475000Y-7941357D01*
X21475000Y-7911357D02*
X21445000Y-7941357D01*
X21460000Y-7210000D02*
X21490000Y-7240000D01*
X21490000Y-7210000D02*
X21460000Y-7240000D01*
X21485000Y-12285000D02*
X21515000Y-12315000D01*
X21515000Y-12285000D02*
X21485000Y-12315000D01*
X21535000Y-9710000D02*
X21565000Y-9740000D01*
X21565000Y-9710000D02*
X21535000Y-9740000D01*
X21545000Y-10405000D02*
X21575000Y-10435000D01*
X21575000Y-10405000D02*
X21545000Y-10435000D01*
X21560000Y-7210000D02*
X21590000Y-7240000D01*
X21590000Y-7210000D02*
X21560000Y-7240000D01*
X21560000Y-9885000D02*
X21590000Y-9915000D01*
X21590000Y-9885000D02*
X21560000Y-9915000D01*
X21560000Y-10842500D02*
X21590000Y-10872500D01*
X21590000Y-10842500D02*
X21560000Y-10872500D01*
X21585000Y-9236005D02*
X21615000Y-9266005D01*
X21615000Y-9236005D02*
X21585000Y-9266005D01*
X21660000Y-6185000D02*
X21690000Y-6215000D01*
X21690000Y-6185000D02*
X21660000Y-6215000D01*
X21670295Y-7205000D02*
X21700295Y-7235000D01*
X21700295Y-7205000D02*
X21670295Y-7235000D01*
X21745000Y-9306005D02*
X21775000Y-9336005D01*
X21775000Y-9306005D02*
X21745000Y-9336005D01*
X21745000Y-12432500D02*
X21775000Y-12462500D01*
X21775000Y-12432500D02*
X21745000Y-12462500D01*
X21769294Y-6836331D02*
X21799294Y-6866331D01*
X21799294Y-6836331D02*
X21769294Y-6866331D01*
X21810000Y-12860000D02*
X21840000Y-12890000D01*
X21840000Y-12860000D02*
X21810000Y-12890000D01*
X21825000Y-9710000D02*
X21855000Y-9740000D01*
X21855000Y-9710000D02*
X21825000Y-9740000D01*
X21905936Y-6890000D02*
X21935936Y-6920000D01*
X21935936Y-6890000D02*
X21905936Y-6920000D01*
X21910000Y-6110000D02*
X21940000Y-6140000D01*
X21940000Y-6110000D02*
X21910000Y-6140000D01*
X21925000Y-4260000D02*
X21955000Y-4290000D01*
X21955000Y-4260000D02*
X21925000Y-4290000D01*
X21926036Y-7926035D02*
X21956036Y-7956035D01*
X21956036Y-7926035D02*
X21926036Y-7956035D01*
X21970756Y-6955000D02*
X22000756Y-6985000D01*
X22000756Y-6955000D02*
X21970756Y-6985000D01*
X22010000Y-12260000D02*
X22040000Y-12290000D01*
X22040000Y-12260000D02*
X22010000Y-12290000D01*
X22085000Y-6485000D02*
X22115000Y-6515000D01*
X22115000Y-6485000D02*
X22085000Y-6515000D01*
X22140800Y-12375500D02*
X22170800Y-12405500D01*
X22170800Y-12375500D02*
X22140800Y-12405500D01*
X22145000Y-10485000D02*
X22175000Y-10515000D01*
X22175000Y-10485000D02*
X22145000Y-10515000D01*
X22160000Y-12735000D02*
X22190000Y-12765000D01*
X22190000Y-12735000D02*
X22160000Y-12765000D01*
X22225000Y-8045000D02*
X22255000Y-8075000D01*
X22255000Y-8045000D02*
X22225000Y-8075000D01*
X22225000Y-10570000D02*
X22255000Y-10600000D01*
X22255000Y-10570000D02*
X22225000Y-10600000D01*
X22260000Y-6485000D02*
X22290000Y-6515000D01*
X22290000Y-6485000D02*
X22260000Y-6515000D01*
X22285000Y-7110000D02*
X22315000Y-7140000D01*
X22315000Y-7110000D02*
X22285000Y-7140000D01*
X22285000Y-10260000D02*
X22315000Y-10290000D01*
X22315000Y-10260000D02*
X22285000Y-10290000D01*
X22309375Y-8900625D02*
X22339375Y-8930625D01*
X22339375Y-8900625D02*
X22309375Y-8930625D01*
X22310000Y-8135000D02*
X22340000Y-8165000D01*
X22340000Y-8135000D02*
X22310000Y-8165000D01*
X22348003Y-7180000D02*
X22378002Y-7210000D01*
X22378002Y-7180000D02*
X22348003Y-7210000D01*
X22350000Y-11510000D02*
X22380000Y-11540000D01*
X22380000Y-11510000D02*
X22350000Y-11540000D01*
X22355000Y-10775000D02*
X22385000Y-10805000D01*
X22385000Y-10775000D02*
X22355000Y-10805000D01*
X22360000Y-6185000D02*
X22390000Y-6215000D01*
X22390000Y-6185000D02*
X22360000Y-6215000D01*
X22365000Y-10325000D02*
X22395000Y-10355000D01*
X22395000Y-10325000D02*
X22365000Y-10355000D01*
X22445000Y-5905000D02*
X22475000Y-5935000D01*
X22475000Y-5905000D02*
X22445000Y-5935000D01*
X22462500Y-9887500D02*
X22492500Y-9917500D01*
X22492500Y-9887500D02*
X22462500Y-9917500D01*
X22485000Y-10365000D02*
X22515000Y-10395000D01*
X22515000Y-10365000D02*
X22485000Y-10395000D01*
X22495000Y-6475000D02*
X22525000Y-6505000D01*
X22525000Y-6475000D02*
X22495000Y-6505000D01*
X22505000Y-10765000D02*
X22535000Y-10795000D01*
X22535000Y-10765000D02*
X22505000Y-10795000D01*
X22529497Y-8239497D02*
X22559497Y-8269497D01*
X22559497Y-8239497D02*
X22529497Y-8269497D01*
X22565000Y-7965000D02*
X22595000Y-7995000D01*
X22595000Y-7965000D02*
X22565000Y-7995000D01*
X22575000Y-7615000D02*
X22605000Y-7645000D01*
X22605000Y-7615000D02*
X22575000Y-7645000D01*
X22605000Y-9205000D02*
X22635000Y-9235000D01*
X22635000Y-9205000D02*
X22605000Y-9235000D01*
X22615000Y-6265000D02*
X22645000Y-6295000D01*
X22645000Y-6265000D02*
X22615000Y-6295000D01*
X22657032Y-7907032D02*
X22687032Y-7937032D01*
X22687032Y-7907032D02*
X22657032Y-7937032D01*
X22660000Y-9512500D02*
X22690000Y-9542500D01*
X22690000Y-9512500D02*
X22660000Y-9542500D01*
X22735000Y-7585000D02*
X22765000Y-7615000D01*
X22765000Y-7585000D02*
X22735000Y-7615000D01*
X22745000Y-4585000D02*
X22775000Y-4615000D01*
X22775000Y-4585000D02*
X22745000Y-4615000D01*
X22785000Y-5365000D02*
X22815000Y-5395000D01*
X22815000Y-5365000D02*
X22785000Y-5395000D01*
X22785000Y-10265000D02*
X22815000Y-10295000D01*
X22815000Y-10265000D02*
X22785000Y-10295000D01*
X22805000Y-8105000D02*
X22835000Y-8135000D01*
X22835000Y-8105000D02*
X22805000Y-8135000D01*
X22860000Y-6260000D02*
X22890000Y-6290000D01*
X22890000Y-6260000D02*
X22860000Y-6290000D01*
X22885000Y-9505000D02*
X22915000Y-9535000D01*
X22915000Y-9505000D02*
X22885000Y-9535000D01*
X22945000Y-8765000D02*
X22975000Y-8795000D01*
X22975000Y-8765000D02*
X22945000Y-8795000D01*
X22985000Y-6505000D02*
X23015000Y-6535000D01*
X23015000Y-6505000D02*
X22985000Y-6535000D01*
X22987500Y-8107500D02*
X23017500Y-8137500D01*
X23017500Y-8107500D02*
X22987500Y-8137500D01*
X23007000Y-12813000D02*
X23037000Y-12843000D01*
X23037000Y-12813000D02*
X23007000Y-12843000D01*
X23010000Y-12710000D02*
X23040000Y-12740000D01*
X23040000Y-12710000D02*
X23010000Y-12740000D01*
X23045000Y-8560000D02*
X23075000Y-8590000D01*
X23075000Y-8560000D02*
X23045000Y-8590000D01*
X23125000Y-8105000D02*
X23155000Y-8135000D01*
X23155000Y-8105000D02*
X23125000Y-8135000D01*
X23135000Y-6505000D02*
X23165000Y-6535000D01*
X23165000Y-6505000D02*
X23135000Y-6535000D01*
X23193370Y-10360000D02*
X23223370Y-10390000D01*
X23223370Y-10360000D02*
X23193370Y-10390000D01*
X23205000Y-9165000D02*
X23235000Y-9195000D01*
X23235000Y-9165000D02*
X23205000Y-9195000D01*
X23240000Y-9585000D02*
X23270000Y-9615000D01*
X23270000Y-9585000D02*
X23240000Y-9615000D01*
X23282950Y-10378971D02*
X23312950Y-10408971D01*
X23312950Y-10378971D02*
X23282950Y-10408971D01*
X23287500Y-8585000D02*
X23317500Y-8615000D01*
X23317500Y-8585000D02*
X23287500Y-8615000D01*
X23287500Y-8932500D02*
X23317500Y-8962500D01*
X23317500Y-8932500D02*
X23287500Y-8962500D01*
X23305000Y-8105000D02*
X23335000Y-8135000D01*
X23335000Y-8105000D02*
X23305000Y-8135000D01*
X23397390Y-9578695D02*
X23427390Y-9608695D01*
X23427390Y-9578695D02*
X23397390Y-9608695D01*
X23460000Y-10410000D02*
X23490000Y-10440000D01*
X23490000Y-10410000D02*
X23460000Y-10440000D01*
X23485000Y-10285000D02*
X23515000Y-10315000D01*
X23515000Y-10285000D02*
X23485000Y-10315000D01*
X23487500Y-9582500D02*
X23517500Y-9612500D01*
X23517500Y-9582500D02*
X23487500Y-9612500D01*
X23545000Y-12625000D02*
X23575000Y-12655000D01*
X23575000Y-12625000D02*
X23545000Y-12655000D01*
X23615000Y-10255000D02*
X23645000Y-10285000D01*
X23645000Y-10255000D02*
X23615000Y-10285000D01*
X23663461Y-9974618D02*
X23693461Y-10004618D01*
X23693461Y-9974618D02*
X23663461Y-10004618D01*
X23685000Y-10085000D02*
X23715000Y-10115000D01*
X23715000Y-10085000D02*
X23685000Y-10115000D01*
X23692432Y-9889409D02*
X23722432Y-9919409D01*
X23722432Y-9889409D02*
X23692432Y-9919409D01*
X23195000Y-9950000D02*
G75*
G02*
X23165000Y-9950000I-15000J0D01*
G01*
X23165000Y-9950000D02*
G75*
G02*
X23195000Y-9950000I15000J0D01*
G01*
X23315000Y-9830000D02*
G75*
G02*
X23285000Y-9830000I-15000J0D01*
G01*
X23285000Y-9830000D02*
G75*
G02*
X23315000Y-9830000I15000J0D01*
G01*
X23315000Y-9950000D02*
G75*
G02*
X23285000Y-9950000I-15000J0D01*
G01*
X23285000Y-9950000D02*
G75*
G02*
X23315000Y-9950000I15000J0D01*
G01*
X23315000Y-10070000D02*
G75*
G02*
X23285000Y-10070000I-15000J0D01*
G01*
X23285000Y-10070000D02*
G75*
G02*
X23315000Y-10070000I15000J0D01*
G01*
X23435000Y-9950000D02*
G75*
G02*
X23405000Y-9950000I-15000J0D01*
G01*
X23405000Y-9950000D02*
G75*
G02*
X23435000Y-9950000I15000J0D01*
G01*
X18650000Y-14109000D02*
X18650000Y-14159000D01*
X18625000Y-14134000D02*
X18675000Y-14134000D01*
X18700000Y-14109000D02*
X18600000Y-14109000D01*
X18600000Y-14159000D02*
G75*
G02*
X18600000Y-14109000I0J25000D01*
G01*
X18600000Y-14159000D02*
X18700000Y-14159000D01*
X18700000Y-14159000D02*
G75*
G03*
X18700000Y-14109000I0J25000D01*
G01*
X19750000Y-10983000D02*
X19750000Y-11033000D01*
X19725000Y-11008000D02*
X19775000Y-11008000D01*
X19700000Y-11033000D02*
X19800000Y-11033000D01*
X19800000Y-10983000D02*
G75*
G02*
X19800000Y-11033000I0J-25000D01*
G01*
X19800000Y-10983000D02*
X19700000Y-10983000D01*
X19700000Y-10983000D02*
G75*
G03*
X19700000Y-11033000I0J-25000D01*
G01*
X19750000Y-14109000D02*
X19750000Y-14159000D01*
X19725000Y-14134000D02*
X19775000Y-14134000D01*
X19800000Y-14109000D02*
X19700000Y-14109000D01*
X19700000Y-14159000D02*
G75*
G02*
X19700000Y-14109000I0J25000D01*
G01*
X19700000Y-14159000D02*
X19800000Y-14159000D01*
X19800000Y-14159000D02*
G75*
G03*
X19800000Y-14109000I0J25000D01*
G01*
X20850000Y-10983000D02*
X20850000Y-11033000D01*
X20825000Y-11008000D02*
X20875000Y-11008000D01*
X20800000Y-11033000D02*
X20900000Y-11033000D01*
X20900000Y-10983000D02*
G75*
G02*
X20900000Y-11033000I0J-25000D01*
G01*
X20900000Y-10983000D02*
X20800000Y-10983000D01*
X20800000Y-10983000D02*
G75*
G03*
X20800000Y-11033000I0J-25000D01*
G01*
X20850000Y-14109000D02*
X20850000Y-14159000D01*
X20825000Y-14134000D02*
X20875000Y-14134000D01*
X20900000Y-14109000D02*
X20800000Y-14109000D01*
X20800000Y-14159000D02*
G75*
G02*
X20800000Y-14109000I0J25000D01*
G01*
X20800000Y-14159000D02*
X20900000Y-14159000D01*
X20900000Y-14159000D02*
G75*
G03*
X20900000Y-14109000I0J25000D01*
G01*
X21950000Y-10983000D02*
X21950000Y-11033000D01*
X21925000Y-11008000D02*
X21975000Y-11008000D01*
X21900000Y-11033000D02*
X22000000Y-11033000D01*
X22000000Y-10983000D02*
G75*
G02*
X22000000Y-11033000I0J-25000D01*
G01*
X22000000Y-10983000D02*
X21900000Y-10983000D01*
X21900000Y-10983000D02*
G75*
G03*
X21900000Y-11033000I0J-25000D01*
G01*
X21950000Y-14109000D02*
X21950000Y-14159000D01*
X21925000Y-14134000D02*
X21975000Y-14134000D01*
X22000000Y-14109000D02*
X21900000Y-14109000D01*
X21900000Y-14159000D02*
G75*
G02*
X21900000Y-14109000I0J25000D01*
G01*
X21900000Y-14159000D02*
X22000000Y-14159000D01*
X22000000Y-14159000D02*
G75*
G03*
X22000000Y-14109000I0J25000D01*
G01*
X23050000Y-10983000D02*
X23050000Y-11033000D01*
X23025000Y-11008000D02*
X23075000Y-11008000D01*
X23000000Y-11033000D02*
X23100000Y-11033000D01*
X23100000Y-10983000D02*
G75*
G02*
X23100000Y-11033000I0J-25000D01*
G01*
X23100000Y-10983000D02*
X23000000Y-10983000D01*
X23000000Y-10983000D02*
G75*
G03*
X23000000Y-11033000I0J-25000D01*
G01*
X23050000Y-14109000D02*
X23050000Y-14159000D01*
X23025000Y-14134000D02*
X23075000Y-14134000D01*
X23100000Y-14109000D02*
X23000000Y-14109000D01*
X23000000Y-14159000D02*
G75*
G02*
X23000000Y-14109000I0J25000D01*
G01*
X23000000Y-14159000D02*
X23100000Y-14159000D01*
X23100000Y-14159000D02*
G75*
G03*
X23100000Y-14109000I0J25000D01*
G01*
X18671213Y-13015213D02*
X18671213Y-12972787D01*
X18628787Y-12972787D01*
X18628787Y-13015213D01*
X18671213Y-13015213D01*
X18685000Y-12964000D02*
X18615000Y-12964000D01*
X18615000Y-13024000D02*
G75*
G02*
X18615000Y-12964000I0J30000D01*
G01*
X18615000Y-13024000D02*
X18685000Y-13024000D01*
X18685000Y-13024000D02*
G75*
G03*
X18685000Y-12964000I0J30000D01*
G01*
X18671213Y-13325213D02*
X18671213Y-13282787D01*
X18628787Y-13282787D01*
X18628787Y-13325213D01*
X18671213Y-13325213D01*
X18695000Y-13274000D02*
X18605000Y-13274000D01*
X18605000Y-13334000D02*
G75*
G02*
X18605000Y-13274000I0J30000D01*
G01*
X18605000Y-13334000D02*
X18695000Y-13334000D01*
X18695000Y-13334000D02*
G75*
G03*
X18695000Y-13274000I0J30000D01*
G01*
X19771213Y-11859213D02*
X19771213Y-11816787D01*
X19728787Y-11816787D01*
X19728787Y-11859213D01*
X19771213Y-11859213D01*
X19705000Y-11868000D02*
X19795000Y-11868000D01*
X19795000Y-11808000D02*
G75*
G02*
X19795000Y-11868000I0J-30000D01*
G01*
X19795000Y-11808000D02*
X19705000Y-11808000D01*
X19705000Y-11808000D02*
G75*
G03*
X19705000Y-11868000I0J-30000D01*
G01*
X19771213Y-12169213D02*
X19771213Y-12126787D01*
X19728787Y-12126787D01*
X19728787Y-12169213D01*
X19771213Y-12169213D01*
X19715000Y-12178000D02*
X19785000Y-12178000D01*
X19785000Y-12118000D02*
G75*
G02*
X19785000Y-12178000I0J-30000D01*
G01*
X19785000Y-12118000D02*
X19715000Y-12118000D01*
X19715000Y-12118000D02*
G75*
G03*
X19715000Y-12178000I0J-30000D01*
G01*
X19771213Y-13015213D02*
X19771213Y-12972787D01*
X19728787Y-12972787D01*
X19728787Y-13015213D01*
X19771213Y-13015213D01*
X19785000Y-12964000D02*
X19715000Y-12964000D01*
X19715000Y-13024000D02*
G75*
G02*
X19715000Y-12964000I0J30000D01*
G01*
X19715000Y-13024000D02*
X19785000Y-13024000D01*
X19785000Y-13024000D02*
G75*
G03*
X19785000Y-12964000I0J30000D01*
G01*
X19771213Y-13325213D02*
X19771213Y-13282787D01*
X19728787Y-13282787D01*
X19728787Y-13325213D01*
X19771213Y-13325213D01*
X19795000Y-13274000D02*
X19705000Y-13274000D01*
X19705000Y-13334000D02*
G75*
G02*
X19705000Y-13274000I0J30000D01*
G01*
X19705000Y-13334000D02*
X19795000Y-13334000D01*
X19795000Y-13334000D02*
G75*
G03*
X19795000Y-13274000I0J30000D01*
G01*
X20871213Y-11859213D02*
X20871213Y-11816787D01*
X20828787Y-11816787D01*
X20828787Y-11859213D01*
X20871213Y-11859213D01*
X20805000Y-11868000D02*
X20895000Y-11868000D01*
X20895000Y-11808000D02*
G75*
G02*
X20895000Y-11868000I0J-30000D01*
G01*
X20895000Y-11808000D02*
X20805000Y-11808000D01*
X20805000Y-11808000D02*
G75*
G03*
X20805000Y-11868000I0J-30000D01*
G01*
X20871213Y-12169213D02*
X20871213Y-12126787D01*
X20828787Y-12126787D01*
X20828787Y-12169213D01*
X20871213Y-12169213D01*
X20815000Y-12178000D02*
X20885000Y-12178000D01*
X20885000Y-12118000D02*
G75*
G02*
X20885000Y-12178000I0J-30000D01*
G01*
X20885000Y-12118000D02*
X20815000Y-12118000D01*
X20815000Y-12118000D02*
G75*
G03*
X20815000Y-12178000I0J-30000D01*
G01*
X20871213Y-13015213D02*
X20871213Y-12972787D01*
X20828787Y-12972787D01*
X20828787Y-13015213D01*
X20871213Y-13015213D01*
X20885000Y-12964000D02*
X20815000Y-12964000D01*
X20815000Y-13024000D02*
G75*
G02*
X20815000Y-12964000I0J30000D01*
G01*
X20815000Y-13024000D02*
X20885000Y-13024000D01*
X20885000Y-13024000D02*
G75*
G03*
X20885000Y-12964000I0J30000D01*
G01*
X20871213Y-13325213D02*
X20871213Y-13282787D01*
X20828787Y-13282787D01*
X20828787Y-13325213D01*
X20871213Y-13325213D01*
X20895000Y-13274000D02*
X20805000Y-13274000D01*
X20805000Y-13334000D02*
G75*
G02*
X20805000Y-13274000I0J30000D01*
G01*
X20805000Y-13334000D02*
X20895000Y-13334000D01*
X20895000Y-13334000D02*
G75*
G03*
X20895000Y-13274000I0J30000D01*
G01*
X21971213Y-11859213D02*
X21971213Y-11816787D01*
X21928787Y-11816787D01*
X21928787Y-11859213D01*
X21971213Y-11859213D01*
X21905000Y-11868000D02*
X21995000Y-11868000D01*
X21995000Y-11808000D02*
G75*
G02*
X21995000Y-11868000I0J-30000D01*
G01*
X21995000Y-11808000D02*
X21905000Y-11808000D01*
X21905000Y-11808000D02*
G75*
G03*
X21905000Y-11868000I0J-30000D01*
G01*
X21971213Y-12169213D02*
X21971213Y-12126787D01*
X21928787Y-12126787D01*
X21928787Y-12169213D01*
X21971213Y-12169213D01*
X21915000Y-12178000D02*
X21985000Y-12178000D01*
X21985000Y-12118000D02*
G75*
G02*
X21985000Y-12178000I0J-30000D01*
G01*
X21985000Y-12118000D02*
X21915000Y-12118000D01*
X21915000Y-12118000D02*
G75*
G03*
X21915000Y-12178000I0J-30000D01*
G01*
X21971213Y-13015213D02*
X21971213Y-12972787D01*
X21928787Y-12972787D01*
X21928787Y-13015213D01*
X21971213Y-13015213D01*
X21985000Y-12964000D02*
X21915000Y-12964000D01*
X21915000Y-13024000D02*
G75*
G02*
X21915000Y-12964000I0J30000D01*
G01*
X21915000Y-13024000D02*
X21985000Y-13024000D01*
X21985000Y-13024000D02*
G75*
G03*
X21985000Y-12964000I0J30000D01*
G01*
X21971213Y-13325213D02*
X21971213Y-13282787D01*
X21928787Y-13282787D01*
X21928787Y-13325213D01*
X21971213Y-13325213D01*
X21995000Y-13274000D02*
X21905000Y-13274000D01*
X21905000Y-13334000D02*
G75*
G02*
X21905000Y-13274000I0J30000D01*
G01*
X21905000Y-13334000D02*
X21995000Y-13334000D01*
X21995000Y-13334000D02*
G75*
G03*
X21995000Y-13274000I0J30000D01*
G01*
X23071213Y-11859213D02*
X23071213Y-11816787D01*
X23028787Y-11816787D01*
X23028787Y-11859213D01*
X23071213Y-11859213D01*
X23005000Y-11868000D02*
X23095000Y-11868000D01*
X23095000Y-11808000D02*
G75*
G02*
X23095000Y-11868000I0J-30000D01*
G01*
X23095000Y-11808000D02*
X23005000Y-11808000D01*
X23005000Y-11808000D02*
G75*
G03*
X23005000Y-11868000I0J-30000D01*
G01*
X23071213Y-12169213D02*
X23071213Y-12126787D01*
X23028787Y-12126787D01*
X23028787Y-12169213D01*
X23071213Y-12169213D01*
X23015000Y-12178000D02*
X23085000Y-12178000D01*
X23085000Y-12118000D02*
G75*
G02*
X23085000Y-12178000I0J-30000D01*
G01*
X23085000Y-12118000D02*
X23015000Y-12118000D01*
X23015000Y-12118000D02*
G75*
G03*
X23015000Y-12178000I0J-30000D01*
G01*
X23071213Y-13015213D02*
X23071213Y-12972787D01*
X23028787Y-12972787D01*
X23028787Y-13015213D01*
X23071213Y-13015213D01*
X23085000Y-12964000D02*
X23015000Y-12964000D01*
X23015000Y-13024000D02*
G75*
G02*
X23015000Y-12964000I0J30000D01*
G01*
X23015000Y-13024000D02*
X23085000Y-13024000D01*
X23085000Y-13024000D02*
G75*
G03*
X23085000Y-12964000I0J30000D01*
G01*
X23071213Y-13325213D02*
X23071213Y-13282787D01*
X23028787Y-13282787D01*
X23028787Y-13325213D01*
X23071213Y-13325213D01*
X23095000Y-13274000D02*
X23005000Y-13274000D01*
X23005000Y-13334000D02*
G75*
G02*
X23005000Y-13274000I0J30000D01*
G01*
X23005000Y-13334000D02*
X23095000Y-13334000D01*
X23095000Y-13334000D02*
G75*
G03*
X23095000Y-13274000I0J30000D01*
G01*
X16675000Y-9338100D02*
X16713100Y-9300000D01*
X16675000Y-9261900D01*
X16636900Y-9300000D01*
X16675000Y-9338100D01*
X16925000Y-5338100D02*
X16963100Y-5300000D01*
X16925000Y-5261900D01*
X16886900Y-5300000D01*
X16925000Y-5338100D01*
X16925000Y-9338100D02*
X16963100Y-9300000D01*
X16925000Y-9261900D01*
X16886900Y-9300000D01*
X16925000Y-9338100D01*
X17175000Y-9338100D02*
X17213100Y-9300000D01*
X17175000Y-9261900D01*
X17136900Y-9300000D01*
X17175000Y-9338100D01*
X17425000Y-5338100D02*
X17463100Y-5300000D01*
X17425000Y-5261900D01*
X17386900Y-5300000D01*
X17425000Y-5338100D01*
X17425000Y-9338100D02*
X17463100Y-9300000D01*
X17425000Y-9261900D01*
X17386900Y-9300000D01*
X17425000Y-9338100D01*
X18475000Y-9338100D02*
X18513100Y-9300000D01*
X18475000Y-9261900D01*
X18436900Y-9300000D01*
X18475000Y-9338100D01*
X18725000Y-5338100D02*
X18763100Y-5300000D01*
X18725000Y-5261900D01*
X18686900Y-5300000D01*
X18725000Y-5338100D01*
X18725000Y-9338100D02*
X18763100Y-9300000D01*
X18725000Y-9261900D01*
X18686900Y-9300000D01*
X18725000Y-9338100D01*
X18975000Y-9338100D02*
X19013100Y-9300000D01*
X18975000Y-9261900D01*
X18936900Y-9300000D01*
X18975000Y-9338100D01*
X19225000Y-5338100D02*
X19263100Y-5300000D01*
X19225000Y-5261900D01*
X19186900Y-5300000D01*
X19225000Y-5338100D01*
X19225000Y-9338100D02*
X19263100Y-9300000D01*
X19225000Y-9261900D01*
X19186900Y-9300000D01*
X19225000Y-9338100D01*
X20400000Y-9338100D02*
X20438100Y-9300000D01*
X20400000Y-9261900D01*
X20361900Y-9300000D01*
X20400000Y-9338100D01*
X20650000Y-5338100D02*
X20688100Y-5300000D01*
X20650000Y-5261900D01*
X20611900Y-5300000D01*
X20650000Y-5338100D01*
X20650000Y-9338100D02*
X20688100Y-9300000D01*
X20650000Y-9261900D01*
X20611900Y-9300000D01*
X20650000Y-9338100D01*
X20900000Y-9338100D02*
X20938100Y-9300000D01*
X20900000Y-9261900D01*
X20861900Y-9300000D01*
X20900000Y-9338100D01*
X21150000Y-5338100D02*
X21188100Y-5300000D01*
X21150000Y-5261900D01*
X21111900Y-5300000D01*
X21150000Y-5338100D01*
X21150000Y-9338100D02*
X21188100Y-9300000D01*
X21150000Y-9261900D01*
X21111900Y-9300000D01*
X21150000Y-9338100D01*
X22450000Y-9338100D02*
X22488100Y-9300000D01*
X22450000Y-9261900D01*
X22411900Y-9300000D01*
X22450000Y-9338100D01*
X22700000Y-5338100D02*
X22738100Y-5300000D01*
X22700000Y-5261900D01*
X22661900Y-5300000D01*
X22700000Y-5338100D01*
X22700000Y-9338100D02*
X22738100Y-9300000D01*
X22700000Y-9261900D01*
X22661900Y-9300000D01*
X22700000Y-9338100D01*
X22950000Y-9338100D02*
X22988100Y-9300000D01*
X22950000Y-9261900D01*
X22911900Y-9300000D01*
X22950000Y-9338100D01*
X23200000Y-5338100D02*
X23238100Y-5300000D01*
X23200000Y-5261900D01*
X23161900Y-5300000D01*
X23200000Y-5338100D01*
X23200000Y-9338100D02*
X23238100Y-9300000D01*
X23200000Y-9261900D01*
X23161900Y-9300000D01*
X23200000Y-9338100D01*
X16546000Y-4121000D02*
X16646000Y-4221000D01*
X16646000Y-4121000D02*
X16546000Y-4221000D01*
X16646000Y-4171000D02*
G75*
G02*
X16546000Y-4171000I-50000J0D01*
G01*
X16546000Y-4171000D02*
G75*
G02*
X16646000Y-4171000I50000J0D01*
G01*
X16546000Y-4375000D02*
X16646000Y-4475000D01*
X16646000Y-4375000D02*
X16546000Y-4475000D01*
X16646000Y-4425000D02*
G75*
G02*
X16546000Y-4425000I-50000J0D01*
G01*
X16546000Y-4425000D02*
G75*
G02*
X16646000Y-4425000I50000J0D01*
G01*
X16700000Y-11242000D02*
X16800000Y-11342000D01*
X16800000Y-11242000D02*
X16700000Y-11342000D01*
X16800000Y-11292000D02*
G75*
G02*
X16700000Y-11292000I-50000J0D01*
G01*
X16700000Y-11292000D02*
G75*
G02*
X16800000Y-11292000I50000J0D01*
G01*
X16700000Y-11496000D02*
X16800000Y-11596000D01*
X16800000Y-11496000D02*
X16700000Y-11596000D01*
X16800000Y-11546000D02*
G75*
G02*
X16700000Y-11546000I-50000J0D01*
G01*
X16700000Y-11546000D02*
G75*
G02*
X16800000Y-11546000I50000J0D01*
G01*
X16700000Y-11750000D02*
X16800000Y-11850000D01*
X16800000Y-11750000D02*
X16700000Y-11850000D01*
X16800000Y-11800000D02*
G75*
G02*
X16700000Y-11800000I-50000J0D01*
G01*
X16700000Y-11800000D02*
G75*
G02*
X16800000Y-11800000I50000J0D01*
G01*
X16700000Y-12004000D02*
X16800000Y-12104000D01*
X16800000Y-12004000D02*
X16700000Y-12104000D01*
X16800000Y-12054000D02*
G75*
G02*
X16700000Y-12054000I-50000J0D01*
G01*
X16700000Y-12054000D02*
G75*
G02*
X16800000Y-12054000I50000J0D01*
G01*
X16700000Y-12258000D02*
X16800000Y-12358000D01*
X16800000Y-12258000D02*
X16700000Y-12358000D01*
X16800000Y-12308000D02*
G75*
G02*
X16700000Y-12308000I-50000J0D01*
G01*
X16700000Y-12308000D02*
G75*
G02*
X16800000Y-12308000I50000J0D01*
G01*
X16700000Y-12512000D02*
X16800000Y-12612000D01*
X16800000Y-12512000D02*
X16700000Y-12612000D01*
X16800000Y-12562000D02*
G75*
G02*
X16700000Y-12562000I-50000J0D01*
G01*
X16700000Y-12562000D02*
G75*
G02*
X16800000Y-12562000I50000J0D01*
G01*
X16800000Y-4121000D02*
X16900000Y-4221000D01*
X16900000Y-4121000D02*
X16800000Y-4221000D01*
X16900000Y-4171000D02*
G75*
G02*
X16800000Y-4171000I-50000J0D01*
G01*
X16800000Y-4171000D02*
G75*
G02*
X16900000Y-4171000I50000J0D01*
G01*
X16800000Y-4375000D02*
X16900000Y-4475000D01*
X16900000Y-4375000D02*
X16800000Y-4475000D01*
X16900000Y-4425000D02*
G75*
G02*
X16800000Y-4425000I-50000J0D01*
G01*
X16800000Y-4425000D02*
G75*
G02*
X16900000Y-4425000I50000J0D01*
G01*
X17054000Y-4121000D02*
X17154000Y-4221000D01*
X17154000Y-4121000D02*
X17054000Y-4221000D01*
X17154000Y-4171000D02*
G75*
G02*
X17054000Y-4171000I-50000J0D01*
G01*
X17054000Y-4171000D02*
G75*
G02*
X17154000Y-4171000I50000J0D01*
G01*
X17054000Y-4375000D02*
X17154000Y-4475000D01*
X17154000Y-4375000D02*
X17054000Y-4475000D01*
X17154000Y-4425000D02*
G75*
G02*
X17054000Y-4425000I-50000J0D01*
G01*
X17054000Y-4425000D02*
G75*
G02*
X17154000Y-4425000I50000J0D01*
G01*
X17308000Y-4121000D02*
X17408000Y-4221000D01*
X17408000Y-4121000D02*
X17308000Y-4221000D01*
X17408000Y-4171000D02*
G75*
G02*
X17308000Y-4171000I-50000J0D01*
G01*
X17308000Y-4171000D02*
G75*
G02*
X17408000Y-4171000I50000J0D01*
G01*
X17308000Y-4375000D02*
X17408000Y-4475000D01*
X17408000Y-4375000D02*
X17308000Y-4475000D01*
X17408000Y-4425000D02*
G75*
G02*
X17308000Y-4425000I-50000J0D01*
G01*
X17308000Y-4425000D02*
G75*
G02*
X17408000Y-4425000I50000J0D01*
G01*
X17562000Y-4121000D02*
X17662000Y-4221000D01*
X17662000Y-4121000D02*
X17562000Y-4221000D01*
X17662000Y-4171000D02*
G75*
G02*
X17562000Y-4171000I-50000J0D01*
G01*
X17562000Y-4171000D02*
G75*
G02*
X17662000Y-4171000I50000J0D01*
G01*
X17562000Y-4375000D02*
X17662000Y-4475000D01*
X17662000Y-4375000D02*
X17562000Y-4475000D01*
X17662000Y-4425000D02*
G75*
G02*
X17562000Y-4425000I-50000J0D01*
G01*
X17562000Y-4425000D02*
G75*
G02*
X17662000Y-4425000I50000J0D01*
G01*
X22850000Y-4037500D02*
X22950000Y-4137500D01*
X22950000Y-4037500D02*
X22850000Y-4137500D01*
X22950000Y-4087500D02*
G75*
G02*
X22850000Y-4087500I-50000J0D01*
G01*
X22850000Y-4087500D02*
G75*
G02*
X22950000Y-4087500I50000J0D01*
G01*
X22850000Y-4291500D02*
X22950000Y-4391500D01*
X22950000Y-4291500D02*
X22850000Y-4391500D01*
X22950000Y-4341500D02*
G75*
G02*
X22850000Y-4341500I-50000J0D01*
G01*
X22850000Y-4341500D02*
G75*
G02*
X22950000Y-4341500I50000J0D01*
G01*
X22850000Y-4545500D02*
X22950000Y-4645500D01*
X22950000Y-4545500D02*
X22850000Y-4645500D01*
X22950000Y-4595500D02*
G75*
G02*
X22850000Y-4595500I-50000J0D01*
G01*
X22850000Y-4595500D02*
G75*
G02*
X22950000Y-4595500I50000J0D01*
G01*
D13*
X18195000Y-4020000D02*
X18305000Y-4130000D01*
X18305000Y-4020000D02*
X18195000Y-4130000D01*
X18250000Y-4020000D02*
X18250000Y-4130000D01*
X18195000Y-4075000D02*
X18305000Y-4075000D01*
X18195000Y-4470000D02*
X18305000Y-4580000D01*
X18305000Y-4470000D02*
X18195000Y-4580000D01*
X18250000Y-4470000D02*
X18250000Y-4580000D01*
X18195000Y-4525000D02*
X18305000Y-4525000D01*
X18845000Y-4020000D02*
X18955000Y-4130000D01*
X18955000Y-4020000D02*
X18845000Y-4130000D01*
X18900000Y-4020000D02*
X18900000Y-4130000D01*
X18845000Y-4075000D02*
X18955000Y-4075000D01*
X18845000Y-4470000D02*
X18955000Y-4580000D01*
X18955000Y-4470000D02*
X18845000Y-4580000D01*
X18900000Y-4470000D02*
X18900000Y-4580000D01*
X18845000Y-4525000D02*
X18955000Y-4525000D01*
X20670000Y-4020000D02*
X20780000Y-4130000D01*
X20780000Y-4020000D02*
X20670000Y-4130000D01*
X20725000Y-4020000D02*
X20725000Y-4130000D01*
X20670000Y-4075000D02*
X20780000Y-4075000D01*
X20670000Y-4470000D02*
X20780000Y-4580000D01*
X20780000Y-4470000D02*
X20670000Y-4580000D01*
X20725000Y-4470000D02*
X20725000Y-4580000D01*
X20670000Y-4525000D02*
X20780000Y-4525000D01*
X21320000Y-4020000D02*
X21430000Y-4130000D01*
X21430000Y-4020000D02*
X21320000Y-4130000D01*
X21375000Y-4020000D02*
X21375000Y-4130000D01*
X21320000Y-4075000D02*
X21430000Y-4075000D01*
X21320000Y-4470000D02*
X21430000Y-4580000D01*
X21430000Y-4470000D02*
X21320000Y-4580000D01*
X21375000Y-4470000D02*
X21375000Y-4580000D01*
X21320000Y-4525000D02*
X21430000Y-4525000D01*
D14*
X17790000Y-12387500D02*
X17910000Y-12507500D01*
X17910000Y-12387500D02*
X17790000Y-12507500D01*
X17892427Y-12489927D02*
X17892427Y-12405073D01*
X17807573Y-12405073D01*
X17807573Y-12489927D01*
X17892427Y-12489927D01*
X17990000Y-12387500D02*
X18110000Y-12507500D01*
X18110000Y-12387500D02*
X17990000Y-12507500D01*
X18092427Y-12489927D02*
X18092427Y-12405073D01*
X18007573Y-12405073D01*
X18007573Y-12489927D01*
X18092427Y-12489927D01*
X18190000Y-12387500D02*
X18310000Y-12507500D01*
X18310000Y-12387500D02*
X18190000Y-12507500D01*
X18292427Y-12489927D02*
X18292427Y-12405073D01*
X18207573Y-12405073D01*
X18207573Y-12489927D01*
X18292427Y-12489927D01*
X18390000Y-12387500D02*
X18510000Y-12507500D01*
X18510000Y-12387500D02*
X18390000Y-12507500D01*
X18492427Y-12489927D02*
X18492427Y-12405073D01*
X18407573Y-12405073D01*
X18407573Y-12489927D01*
X18492427Y-12489927D01*
X18590000Y-12387500D02*
X18710000Y-12507500D01*
X18710000Y-12387500D02*
X18590000Y-12507500D01*
X18692427Y-12489927D02*
X18692427Y-12405073D01*
X18607573Y-12405073D01*
X18607573Y-12489927D01*
X18692427Y-12489927D01*
X18790000Y-12387500D02*
X18910000Y-12507500D01*
X18910000Y-12387500D02*
X18790000Y-12507500D01*
X18892427Y-12489927D02*
X18892427Y-12405073D01*
X18807573Y-12405073D01*
X18807573Y-12489927D01*
X18892427Y-12489927D01*
D15*
X17621500Y-11199000D02*
X17918500Y-11496000D01*
X17918500Y-11199000D02*
X17621500Y-11496000D01*
X17770000Y-11496000D02*
X17918500Y-11347500D01*
X17770000Y-11199000D01*
X17621500Y-11347500D01*
X17770000Y-11496000D01*
X18781500Y-11199000D02*
X19078500Y-11496000D01*
X19078500Y-11199000D02*
X18781500Y-11496000D01*
X18930000Y-11496000D02*
X19078500Y-11347500D01*
X18930000Y-11199000D01*
X18781500Y-11347500D01*
X18930000Y-11496000D01*
D11*
X16433277Y-14863984D02*
X16433277Y-14663984D01*
X16433277Y-14663984D02*
X16480896Y-14663984D01*
X16480896Y-14663984D02*
X16509467Y-14673508D01*
X16509467Y-14673508D02*
X16528515Y-14692555D01*
X16528515Y-14692555D02*
X16538039Y-14711603D01*
X16538039Y-14711603D02*
X16547562Y-14749698D01*
X16547562Y-14749698D02*
X16547562Y-14778269D01*
X16547562Y-14778269D02*
X16538039Y-14816365D01*
X16538039Y-14816365D02*
X16528515Y-14835412D01*
X16528515Y-14835412D02*
X16509467Y-14854460D01*
X16509467Y-14854460D02*
X16480896Y-14863984D01*
X16480896Y-14863984D02*
X16433277Y-14863984D01*
X16633277Y-14863984D02*
X16633277Y-14730650D01*
X16633277Y-14768746D02*
X16642801Y-14749698D01*
X16642801Y-14749698D02*
X16652324Y-14740174D01*
X16652324Y-14740174D02*
X16671372Y-14730650D01*
X16671372Y-14730650D02*
X16690420Y-14730650D01*
X16757086Y-14863984D02*
X16757086Y-14730650D01*
X16757086Y-14663984D02*
X16747562Y-14673508D01*
X16747562Y-14673508D02*
X16757086Y-14683031D01*
X16757086Y-14683031D02*
X16766610Y-14673508D01*
X16766610Y-14673508D02*
X16757086Y-14663984D01*
X16757086Y-14663984D02*
X16757086Y-14683031D01*
X16880896Y-14863984D02*
X16861848Y-14854460D01*
X16861848Y-14854460D02*
X16852324Y-14835412D01*
X16852324Y-14835412D02*
X16852324Y-14663984D01*
X16985658Y-14863984D02*
X16966610Y-14854460D01*
X16966610Y-14854460D02*
X16957086Y-14835412D01*
X16957086Y-14835412D02*
X16957086Y-14663984D01*
X17214229Y-14863984D02*
X17214229Y-14663984D01*
X17214229Y-14663984D02*
X17280896Y-14806841D01*
X17280896Y-14806841D02*
X17347563Y-14663984D01*
X17347563Y-14663984D02*
X17347563Y-14863984D01*
X17528515Y-14863984D02*
X17528515Y-14759222D01*
X17528515Y-14759222D02*
X17518991Y-14740174D01*
X17518991Y-14740174D02*
X17499944Y-14730650D01*
X17499944Y-14730650D02*
X17461848Y-14730650D01*
X17461848Y-14730650D02*
X17442801Y-14740174D01*
X17528515Y-14854460D02*
X17509467Y-14863984D01*
X17509467Y-14863984D02*
X17461848Y-14863984D01*
X17461848Y-14863984D02*
X17442801Y-14854460D01*
X17442801Y-14854460D02*
X17433277Y-14835412D01*
X17433277Y-14835412D02*
X17433277Y-14816365D01*
X17433277Y-14816365D02*
X17442801Y-14797317D01*
X17442801Y-14797317D02*
X17461848Y-14787793D01*
X17461848Y-14787793D02*
X17509467Y-14787793D01*
X17509467Y-14787793D02*
X17528515Y-14778269D01*
X17623753Y-14730650D02*
X17623753Y-14930650D01*
X17623753Y-14740174D02*
X17642801Y-14730650D01*
X17642801Y-14730650D02*
X17680896Y-14730650D01*
X17680896Y-14730650D02*
X17699944Y-14740174D01*
X17699944Y-14740174D02*
X17709467Y-14749698D01*
X17709467Y-14749698D02*
X17718991Y-14768746D01*
X17718991Y-14768746D02*
X17718991Y-14825888D01*
X17718991Y-14825888D02*
X17709467Y-14844936D01*
X17709467Y-14844936D02*
X17699944Y-14854460D01*
X17699944Y-14854460D02*
X17680896Y-14863984D01*
X17680896Y-14863984D02*
X17642801Y-14863984D01*
X17642801Y-14863984D02*
X17623753Y-14854460D01*
X17804705Y-14844936D02*
X17814229Y-14854460D01*
X17814229Y-14854460D02*
X17804705Y-14863984D01*
X17804705Y-14863984D02*
X17795182Y-14854460D01*
X17795182Y-14854460D02*
X17804705Y-14844936D01*
X17804705Y-14844936D02*
X17804705Y-14863984D01*
X17804705Y-14740174D02*
X17814229Y-14749698D01*
X17814229Y-14749698D02*
X17804705Y-14759222D01*
X17804705Y-14759222D02*
X17795182Y-14749698D01*
X17795182Y-14749698D02*
X17804705Y-14740174D01*
X17804705Y-14740174D02*
X17804705Y-14759222D01*
D12*
X16142500Y-15177500D02*
X16172500Y-15207500D01*
X16172500Y-15177500D02*
X16142500Y-15207500D01*
D11*
X16471372Y-15083984D02*
X16490420Y-15083984D01*
X16490420Y-15083984D02*
X16509467Y-15093508D01*
X16509467Y-15093508D02*
X16518991Y-15103031D01*
X16518991Y-15103031D02*
X16528515Y-15122079D01*
X16528515Y-15122079D02*
X16538039Y-15160174D01*
X16538039Y-15160174D02*
X16538039Y-15207793D01*
X16538039Y-15207793D02*
X16528515Y-15245888D01*
X16528515Y-15245888D02*
X16518991Y-15264936D01*
X16518991Y-15264936D02*
X16509467Y-15274460D01*
X16509467Y-15274460D02*
X16490420Y-15283984D01*
X16490420Y-15283984D02*
X16471372Y-15283984D01*
X16471372Y-15283984D02*
X16452324Y-15274460D01*
X16452324Y-15274460D02*
X16442801Y-15264936D01*
X16442801Y-15264936D02*
X16433277Y-15245888D01*
X16433277Y-15245888D02*
X16423753Y-15207793D01*
X16423753Y-15207793D02*
X16423753Y-15160174D01*
X16423753Y-15160174D02*
X16433277Y-15122079D01*
X16433277Y-15122079D02*
X16442801Y-15103031D01*
X16442801Y-15103031D02*
X16452324Y-15093508D01*
X16452324Y-15093508D02*
X16471372Y-15083984D01*
X16623753Y-15264936D02*
X16633277Y-15274460D01*
X16633277Y-15274460D02*
X16623753Y-15283984D01*
X16623753Y-15283984D02*
X16614229Y-15274460D01*
X16614229Y-15274460D02*
X16623753Y-15264936D01*
X16623753Y-15264936D02*
X16623753Y-15283984D01*
X16699943Y-15083984D02*
X16823753Y-15083984D01*
X16823753Y-15083984D02*
X16757086Y-15160174D01*
X16757086Y-15160174D02*
X16785658Y-15160174D01*
X16785658Y-15160174D02*
X16804705Y-15169698D01*
X16804705Y-15169698D02*
X16814229Y-15179222D01*
X16814229Y-15179222D02*
X16823753Y-15198269D01*
X16823753Y-15198269D02*
X16823753Y-15245888D01*
X16823753Y-15245888D02*
X16814229Y-15264936D01*
X16814229Y-15264936D02*
X16804705Y-15274460D01*
X16804705Y-15274460D02*
X16785658Y-15283984D01*
X16785658Y-15283984D02*
X16728515Y-15283984D01*
X16728515Y-15283984D02*
X16709467Y-15274460D01*
X16709467Y-15274460D02*
X16699943Y-15264936D01*
X16947563Y-15083984D02*
X16966610Y-15083984D01*
X16966610Y-15083984D02*
X16985658Y-15093508D01*
X16985658Y-15093508D02*
X16995182Y-15103031D01*
X16995182Y-15103031D02*
X17004705Y-15122079D01*
X17004705Y-15122079D02*
X17014229Y-15160174D01*
X17014229Y-15160174D02*
X17014229Y-15207793D01*
X17014229Y-15207793D02*
X17004705Y-15245888D01*
X17004705Y-15245888D02*
X16995182Y-15264936D01*
X16995182Y-15264936D02*
X16985658Y-15274460D01*
X16985658Y-15274460D02*
X16966610Y-15283984D01*
X16966610Y-15283984D02*
X16947563Y-15283984D01*
X16947563Y-15283984D02*
X16928515Y-15274460D01*
X16928515Y-15274460D02*
X16918991Y-15264936D01*
X16918991Y-15264936D02*
X16909467Y-15245888D01*
X16909467Y-15245888D02*
X16899944Y-15207793D01*
X16899944Y-15207793D02*
X16899944Y-15160174D01*
X16899944Y-15160174D02*
X16909467Y-15122079D01*
X16909467Y-15122079D02*
X16918991Y-15103031D01*
X16918991Y-15103031D02*
X16928515Y-15093508D01*
X16928515Y-15093508D02*
X16947563Y-15083984D01*
X17138039Y-15083984D02*
X17157086Y-15083984D01*
X17157086Y-15083984D02*
X17176134Y-15093508D01*
X17176134Y-15093508D02*
X17185658Y-15103031D01*
X17185658Y-15103031D02*
X17195182Y-15122079D01*
X17195182Y-15122079D02*
X17204705Y-15160174D01*
X17204705Y-15160174D02*
X17204705Y-15207793D01*
X17204705Y-15207793D02*
X17195182Y-15245888D01*
X17195182Y-15245888D02*
X17185658Y-15264936D01*
X17185658Y-15264936D02*
X17176134Y-15274460D01*
X17176134Y-15274460D02*
X17157086Y-15283984D01*
X17157086Y-15283984D02*
X17138039Y-15283984D01*
X17138039Y-15283984D02*
X17118991Y-15274460D01*
X17118991Y-15274460D02*
X17109467Y-15264936D01*
X17109467Y-15264936D02*
X17099944Y-15245888D01*
X17099944Y-15245888D02*
X17090420Y-15207793D01*
X17090420Y-15207793D02*
X17090420Y-15160174D01*
X17090420Y-15160174D02*
X17099944Y-15122079D01*
X17099944Y-15122079D02*
X17109467Y-15103031D01*
X17109467Y-15103031D02*
X17118991Y-15093508D01*
X17118991Y-15093508D02*
X17138039Y-15083984D01*
X17290420Y-15283984D02*
X17290420Y-15150650D01*
X17290420Y-15169698D02*
X17299944Y-15160174D01*
X17299944Y-15160174D02*
X17318991Y-15150650D01*
X17318991Y-15150650D02*
X17347563Y-15150650D01*
X17347563Y-15150650D02*
X17366610Y-15160174D01*
X17366610Y-15160174D02*
X17376134Y-15179222D01*
X17376134Y-15179222D02*
X17376134Y-15283984D01*
X17376134Y-15179222D02*
X17385658Y-15160174D01*
X17385658Y-15160174D02*
X17404705Y-15150650D01*
X17404705Y-15150650D02*
X17433277Y-15150650D01*
X17433277Y-15150650D02*
X17452325Y-15160174D01*
X17452325Y-15160174D02*
X17461848Y-15179222D01*
X17461848Y-15179222D02*
X17461848Y-15283984D01*
X17557086Y-15283984D02*
X17557086Y-15150650D01*
X17557086Y-15169698D02*
X17566610Y-15160174D01*
X17566610Y-15160174D02*
X17585658Y-15150650D01*
X17585658Y-15150650D02*
X17614229Y-15150650D01*
X17614229Y-15150650D02*
X17633277Y-15160174D01*
X17633277Y-15160174D02*
X17642801Y-15179222D01*
X17642801Y-15179222D02*
X17642801Y-15283984D01*
X17642801Y-15179222D02*
X17652325Y-15160174D01*
X17652325Y-15160174D02*
X17671372Y-15150650D01*
X17671372Y-15150650D02*
X17699944Y-15150650D01*
X17699944Y-15150650D02*
X17718991Y-15160174D01*
X17718991Y-15160174D02*
X17728515Y-15179222D01*
X17728515Y-15179222D02*
X17728515Y-15283984D01*
X18118991Y-15074460D02*
X17947563Y-15331603D01*
X18376134Y-15083984D02*
X18395182Y-15083984D01*
X18395182Y-15083984D02*
X18414229Y-15093508D01*
X18414229Y-15093508D02*
X18423753Y-15103031D01*
X18423753Y-15103031D02*
X18433277Y-15122079D01*
X18433277Y-15122079D02*
X18442801Y-15160174D01*
X18442801Y-15160174D02*
X18442801Y-15207793D01*
X18442801Y-15207793D02*
X18433277Y-15245888D01*
X18433277Y-15245888D02*
X18423753Y-15264936D01*
X18423753Y-15264936D02*
X18414229Y-15274460D01*
X18414229Y-15274460D02*
X18395182Y-15283984D01*
X18395182Y-15283984D02*
X18376134Y-15283984D01*
X18376134Y-15283984D02*
X18357087Y-15274460D01*
X18357087Y-15274460D02*
X18347563Y-15264936D01*
X18347563Y-15264936D02*
X18338039Y-15245888D01*
X18338039Y-15245888D02*
X18328515Y-15207793D01*
X18328515Y-15207793D02*
X18328515Y-15160174D01*
X18328515Y-15160174D02*
X18338039Y-15122079D01*
X18338039Y-15122079D02*
X18347563Y-15103031D01*
X18347563Y-15103031D02*
X18357087Y-15093508D01*
X18357087Y-15093508D02*
X18376134Y-15083984D01*
X18528515Y-15264936D02*
X18538039Y-15274460D01*
X18538039Y-15274460D02*
X18528515Y-15283984D01*
X18528515Y-15283984D02*
X18518991Y-15274460D01*
X18518991Y-15274460D02*
X18528515Y-15264936D01*
X18528515Y-15264936D02*
X18528515Y-15283984D01*
X18661848Y-15083984D02*
X18680896Y-15083984D01*
X18680896Y-15083984D02*
X18699944Y-15093508D01*
X18699944Y-15093508D02*
X18709468Y-15103031D01*
X18709468Y-15103031D02*
X18718991Y-15122079D01*
X18718991Y-15122079D02*
X18728515Y-15160174D01*
X18728515Y-15160174D02*
X18728515Y-15207793D01*
X18728515Y-15207793D02*
X18718991Y-15245888D01*
X18718991Y-15245888D02*
X18709468Y-15264936D01*
X18709468Y-15264936D02*
X18699944Y-15274460D01*
X18699944Y-15274460D02*
X18680896Y-15283984D01*
X18680896Y-15283984D02*
X18661848Y-15283984D01*
X18661848Y-15283984D02*
X18642801Y-15274460D01*
X18642801Y-15274460D02*
X18633277Y-15264936D01*
X18633277Y-15264936D02*
X18623753Y-15245888D01*
X18623753Y-15245888D02*
X18614229Y-15207793D01*
X18614229Y-15207793D02*
X18614229Y-15160174D01*
X18614229Y-15160174D02*
X18623753Y-15122079D01*
X18623753Y-15122079D02*
X18633277Y-15103031D01*
X18633277Y-15103031D02*
X18642801Y-15093508D01*
X18642801Y-15093508D02*
X18661848Y-15083984D01*
X18918991Y-15283984D02*
X18804706Y-15283984D01*
X18861848Y-15283984D02*
X18861848Y-15083984D01*
X18861848Y-15083984D02*
X18842801Y-15112555D01*
X18842801Y-15112555D02*
X18823753Y-15131603D01*
X18823753Y-15131603D02*
X18804706Y-15141127D01*
X19109468Y-15283984D02*
X18995182Y-15283984D01*
X19052325Y-15283984D02*
X19052325Y-15083984D01*
X19052325Y-15083984D02*
X19033277Y-15112555D01*
X19033277Y-15112555D02*
X19014229Y-15131603D01*
X19014229Y-15131603D02*
X18995182Y-15141127D01*
X19223753Y-15169698D02*
X19204706Y-15160174D01*
X19204706Y-15160174D02*
X19195182Y-15150650D01*
X19195182Y-15150650D02*
X19185658Y-15131603D01*
X19185658Y-15131603D02*
X19185658Y-15122079D01*
X19185658Y-15122079D02*
X19195182Y-15103031D01*
X19195182Y-15103031D02*
X19204706Y-15093508D01*
X19204706Y-15093508D02*
X19223753Y-15083984D01*
X19223753Y-15083984D02*
X19261849Y-15083984D01*
X19261849Y-15083984D02*
X19280896Y-15093508D01*
X19280896Y-15093508D02*
X19290420Y-15103031D01*
X19290420Y-15103031D02*
X19299944Y-15122079D01*
X19299944Y-15122079D02*
X19299944Y-15131603D01*
X19299944Y-15131603D02*
X19290420Y-15150650D01*
X19290420Y-15150650D02*
X19280896Y-15160174D01*
X19280896Y-15160174D02*
X19261849Y-15169698D01*
X19261849Y-15169698D02*
X19223753Y-15169698D01*
X19223753Y-15169698D02*
X19204706Y-15179222D01*
X19204706Y-15179222D02*
X19195182Y-15188746D01*
X19195182Y-15188746D02*
X19185658Y-15207793D01*
X19185658Y-15207793D02*
X19185658Y-15245888D01*
X19185658Y-15245888D02*
X19195182Y-15264936D01*
X19195182Y-15264936D02*
X19204706Y-15274460D01*
X19204706Y-15274460D02*
X19223753Y-15283984D01*
X19223753Y-15283984D02*
X19261849Y-15283984D01*
X19261849Y-15283984D02*
X19280896Y-15274460D01*
X19280896Y-15274460D02*
X19290420Y-15264936D01*
X19290420Y-15264936D02*
X19299944Y-15245888D01*
X19299944Y-15245888D02*
X19299944Y-15207793D01*
X19299944Y-15207793D02*
X19290420Y-15188746D01*
X19290420Y-15188746D02*
X19280896Y-15179222D01*
X19280896Y-15179222D02*
X19261849Y-15169698D01*
X19376134Y-15083984D02*
X19376134Y-15122079D01*
X19452325Y-15083984D02*
X19452325Y-15122079D01*
X19747563Y-15360174D02*
X19738039Y-15350650D01*
X19738039Y-15350650D02*
X19718991Y-15322079D01*
X19718991Y-15322079D02*
X19709468Y-15303031D01*
X19709468Y-15303031D02*
X19699944Y-15274460D01*
X19699944Y-15274460D02*
X19690420Y-15226841D01*
X19690420Y-15226841D02*
X19690420Y-15188746D01*
X19690420Y-15188746D02*
X19699944Y-15141127D01*
X19699944Y-15141127D02*
X19709468Y-15112555D01*
X19709468Y-15112555D02*
X19718991Y-15093508D01*
X19718991Y-15093508D02*
X19738039Y-15064936D01*
X19738039Y-15064936D02*
X19747563Y-15055412D01*
X19814230Y-15103031D02*
X19823753Y-15093508D01*
X19823753Y-15093508D02*
X19842801Y-15083984D01*
X19842801Y-15083984D02*
X19890420Y-15083984D01*
X19890420Y-15083984D02*
X19909468Y-15093508D01*
X19909468Y-15093508D02*
X19918991Y-15103031D01*
X19918991Y-15103031D02*
X19928515Y-15122079D01*
X19928515Y-15122079D02*
X19928515Y-15141127D01*
X19928515Y-15141127D02*
X19918991Y-15169698D01*
X19918991Y-15169698D02*
X19804706Y-15283984D01*
X19804706Y-15283984D02*
X19928515Y-15283984D01*
X19995182Y-15083984D02*
X20128515Y-15083984D01*
X20128515Y-15083984D02*
X20042801Y-15283984D01*
X20185658Y-15083984D02*
X20318991Y-15083984D01*
X20318991Y-15083984D02*
X20233277Y-15283984D01*
X20547563Y-15283984D02*
X20547563Y-15083984D01*
X20633277Y-15283984D02*
X20633277Y-15179222D01*
X20633277Y-15179222D02*
X20623753Y-15160174D01*
X20623753Y-15160174D02*
X20604706Y-15150650D01*
X20604706Y-15150650D02*
X20576134Y-15150650D01*
X20576134Y-15150650D02*
X20557087Y-15160174D01*
X20557087Y-15160174D02*
X20547563Y-15169698D01*
X20757087Y-15283984D02*
X20738039Y-15274460D01*
X20738039Y-15274460D02*
X20728515Y-15264936D01*
X20728515Y-15264936D02*
X20718992Y-15245888D01*
X20718992Y-15245888D02*
X20718992Y-15188746D01*
X20718992Y-15188746D02*
X20728515Y-15169698D01*
X20728515Y-15169698D02*
X20738039Y-15160174D01*
X20738039Y-15160174D02*
X20757087Y-15150650D01*
X20757087Y-15150650D02*
X20785658Y-15150650D01*
X20785658Y-15150650D02*
X20804706Y-15160174D01*
X20804706Y-15160174D02*
X20814230Y-15169698D01*
X20814230Y-15169698D02*
X20823753Y-15188746D01*
X20823753Y-15188746D02*
X20823753Y-15245888D01*
X20823753Y-15245888D02*
X20814230Y-15264936D01*
X20814230Y-15264936D02*
X20804706Y-15274460D01*
X20804706Y-15274460D02*
X20785658Y-15283984D01*
X20785658Y-15283984D02*
X20757087Y-15283984D01*
X20938039Y-15283984D02*
X20918992Y-15274460D01*
X20918992Y-15274460D02*
X20909468Y-15255412D01*
X20909468Y-15255412D02*
X20909468Y-15083984D01*
X21090420Y-15274460D02*
X21071373Y-15283984D01*
X21071373Y-15283984D02*
X21033277Y-15283984D01*
X21033277Y-15283984D02*
X21014230Y-15274460D01*
X21014230Y-15274460D02*
X21004706Y-15255412D01*
X21004706Y-15255412D02*
X21004706Y-15179222D01*
X21004706Y-15179222D02*
X21014230Y-15160174D01*
X21014230Y-15160174D02*
X21033277Y-15150650D01*
X21033277Y-15150650D02*
X21071373Y-15150650D01*
X21071373Y-15150650D02*
X21090420Y-15160174D01*
X21090420Y-15160174D02*
X21099944Y-15179222D01*
X21099944Y-15179222D02*
X21099944Y-15198269D01*
X21099944Y-15198269D02*
X21004706Y-15217317D01*
X21176134Y-15274460D02*
X21195182Y-15283984D01*
X21195182Y-15283984D02*
X21233277Y-15283984D01*
X21233277Y-15283984D02*
X21252325Y-15274460D01*
X21252325Y-15274460D02*
X21261849Y-15255412D01*
X21261849Y-15255412D02*
X21261849Y-15245888D01*
X21261849Y-15245888D02*
X21252325Y-15226841D01*
X21252325Y-15226841D02*
X21233277Y-15217317D01*
X21233277Y-15217317D02*
X21204706Y-15217317D01*
X21204706Y-15217317D02*
X21185658Y-15207793D01*
X21185658Y-15207793D02*
X21176134Y-15188746D01*
X21176134Y-15188746D02*
X21176134Y-15179222D01*
X21176134Y-15179222D02*
X21185658Y-15160174D01*
X21185658Y-15160174D02*
X21204706Y-15150650D01*
X21204706Y-15150650D02*
X21233277Y-15150650D01*
X21233277Y-15150650D02*
X21252325Y-15160174D01*
X21328515Y-15360174D02*
X21338039Y-15350650D01*
X21338039Y-15350650D02*
X21357087Y-15322079D01*
X21357087Y-15322079D02*
X21366611Y-15303031D01*
X21366611Y-15303031D02*
X21376134Y-15274460D01*
X21376134Y-15274460D02*
X21385658Y-15226841D01*
X21385658Y-15226841D02*
X21385658Y-15188746D01*
X21385658Y-15188746D02*
X21376134Y-15141127D01*
X21376134Y-15141127D02*
X21366611Y-15112555D01*
X21366611Y-15112555D02*
X21357087Y-15093508D01*
X21357087Y-15093508D02*
X21338039Y-15064936D01*
X21338039Y-15064936D02*
X21328515Y-15055412D01*
D12*
X16172500Y-15456500D02*
G75*
G02*
X16142500Y-15456500I-15000J0D01*
G01*
X16142500Y-15456500D02*
G75*
G02*
X16172500Y-15456500I15000J0D01*
G01*
D11*
X16471372Y-15347984D02*
X16490420Y-15347984D01*
X16490420Y-15347984D02*
X16509467Y-15357508D01*
X16509467Y-15357508D02*
X16518991Y-15367031D01*
X16518991Y-15367031D02*
X16528515Y-15386079D01*
X16528515Y-15386079D02*
X16538039Y-15424174D01*
X16538039Y-15424174D02*
X16538039Y-15471793D01*
X16538039Y-15471793D02*
X16528515Y-15509888D01*
X16528515Y-15509888D02*
X16518991Y-15528936D01*
X16518991Y-15528936D02*
X16509467Y-15538460D01*
X16509467Y-15538460D02*
X16490420Y-15547984D01*
X16490420Y-15547984D02*
X16471372Y-15547984D01*
X16471372Y-15547984D02*
X16452324Y-15538460D01*
X16452324Y-15538460D02*
X16442801Y-15528936D01*
X16442801Y-15528936D02*
X16433277Y-15509888D01*
X16433277Y-15509888D02*
X16423753Y-15471793D01*
X16423753Y-15471793D02*
X16423753Y-15424174D01*
X16423753Y-15424174D02*
X16433277Y-15386079D01*
X16433277Y-15386079D02*
X16442801Y-15367031D01*
X16442801Y-15367031D02*
X16452324Y-15357508D01*
X16452324Y-15357508D02*
X16471372Y-15347984D01*
X16623753Y-15528936D02*
X16633277Y-15538460D01*
X16633277Y-15538460D02*
X16623753Y-15547984D01*
X16623753Y-15547984D02*
X16614229Y-15538460D01*
X16614229Y-15538460D02*
X16623753Y-15528936D01*
X16623753Y-15528936D02*
X16623753Y-15547984D01*
X16699943Y-15347984D02*
X16823753Y-15347984D01*
X16823753Y-15347984D02*
X16757086Y-15424174D01*
X16757086Y-15424174D02*
X16785658Y-15424174D01*
X16785658Y-15424174D02*
X16804705Y-15433698D01*
X16804705Y-15433698D02*
X16814229Y-15443222D01*
X16814229Y-15443222D02*
X16823753Y-15462269D01*
X16823753Y-15462269D02*
X16823753Y-15509888D01*
X16823753Y-15509888D02*
X16814229Y-15528936D01*
X16814229Y-15528936D02*
X16804705Y-15538460D01*
X16804705Y-15538460D02*
X16785658Y-15547984D01*
X16785658Y-15547984D02*
X16728515Y-15547984D01*
X16728515Y-15547984D02*
X16709467Y-15538460D01*
X16709467Y-15538460D02*
X16699943Y-15528936D01*
X16947563Y-15347984D02*
X16966610Y-15347984D01*
X16966610Y-15347984D02*
X16985658Y-15357508D01*
X16985658Y-15357508D02*
X16995182Y-15367031D01*
X16995182Y-15367031D02*
X17004705Y-15386079D01*
X17004705Y-15386079D02*
X17014229Y-15424174D01*
X17014229Y-15424174D02*
X17014229Y-15471793D01*
X17014229Y-15471793D02*
X17004705Y-15509888D01*
X17004705Y-15509888D02*
X16995182Y-15528936D01*
X16995182Y-15528936D02*
X16985658Y-15538460D01*
X16985658Y-15538460D02*
X16966610Y-15547984D01*
X16966610Y-15547984D02*
X16947563Y-15547984D01*
X16947563Y-15547984D02*
X16928515Y-15538460D01*
X16928515Y-15538460D02*
X16918991Y-15528936D01*
X16918991Y-15528936D02*
X16909467Y-15509888D01*
X16909467Y-15509888D02*
X16899944Y-15471793D01*
X16899944Y-15471793D02*
X16899944Y-15424174D01*
X16899944Y-15424174D02*
X16909467Y-15386079D01*
X16909467Y-15386079D02*
X16918991Y-15367031D01*
X16918991Y-15367031D02*
X16928515Y-15357508D01*
X16928515Y-15357508D02*
X16947563Y-15347984D01*
X17138039Y-15347984D02*
X17157086Y-15347984D01*
X17157086Y-15347984D02*
X17176134Y-15357508D01*
X17176134Y-15357508D02*
X17185658Y-15367031D01*
X17185658Y-15367031D02*
X17195182Y-15386079D01*
X17195182Y-15386079D02*
X17204705Y-15424174D01*
X17204705Y-15424174D02*
X17204705Y-15471793D01*
X17204705Y-15471793D02*
X17195182Y-15509888D01*
X17195182Y-15509888D02*
X17185658Y-15528936D01*
X17185658Y-15528936D02*
X17176134Y-15538460D01*
X17176134Y-15538460D02*
X17157086Y-15547984D01*
X17157086Y-15547984D02*
X17138039Y-15547984D01*
X17138039Y-15547984D02*
X17118991Y-15538460D01*
X17118991Y-15538460D02*
X17109467Y-15528936D01*
X17109467Y-15528936D02*
X17099944Y-15509888D01*
X17099944Y-15509888D02*
X17090420Y-15471793D01*
X17090420Y-15471793D02*
X17090420Y-15424174D01*
X17090420Y-15424174D02*
X17099944Y-15386079D01*
X17099944Y-15386079D02*
X17109467Y-15367031D01*
X17109467Y-15367031D02*
X17118991Y-15357508D01*
X17118991Y-15357508D02*
X17138039Y-15347984D01*
X17290420Y-15547984D02*
X17290420Y-15414650D01*
X17290420Y-15433698D02*
X17299944Y-15424174D01*
X17299944Y-15424174D02*
X17318991Y-15414650D01*
X17318991Y-15414650D02*
X17347563Y-15414650D01*
X17347563Y-15414650D02*
X17366610Y-15424174D01*
X17366610Y-15424174D02*
X17376134Y-15443222D01*
X17376134Y-15443222D02*
X17376134Y-15547984D01*
X17376134Y-15443222D02*
X17385658Y-15424174D01*
X17385658Y-15424174D02*
X17404705Y-15414650D01*
X17404705Y-15414650D02*
X17433277Y-15414650D01*
X17433277Y-15414650D02*
X17452325Y-15424174D01*
X17452325Y-15424174D02*
X17461848Y-15443222D01*
X17461848Y-15443222D02*
X17461848Y-15547984D01*
X17557086Y-15547984D02*
X17557086Y-15414650D01*
X17557086Y-15433698D02*
X17566610Y-15424174D01*
X17566610Y-15424174D02*
X17585658Y-15414650D01*
X17585658Y-15414650D02*
X17614229Y-15414650D01*
X17614229Y-15414650D02*
X17633277Y-15424174D01*
X17633277Y-15424174D02*
X17642801Y-15443222D01*
X17642801Y-15443222D02*
X17642801Y-15547984D01*
X17642801Y-15443222D02*
X17652325Y-15424174D01*
X17652325Y-15424174D02*
X17671372Y-15414650D01*
X17671372Y-15414650D02*
X17699944Y-15414650D01*
X17699944Y-15414650D02*
X17718991Y-15424174D01*
X17718991Y-15424174D02*
X17728515Y-15443222D01*
X17728515Y-15443222D02*
X17728515Y-15547984D01*
X18118991Y-15338460D02*
X17947563Y-15595603D01*
X18376134Y-15347984D02*
X18395182Y-15347984D01*
X18395182Y-15347984D02*
X18414229Y-15357508D01*
X18414229Y-15357508D02*
X18423753Y-15367031D01*
X18423753Y-15367031D02*
X18433277Y-15386079D01*
X18433277Y-15386079D02*
X18442801Y-15424174D01*
X18442801Y-15424174D02*
X18442801Y-15471793D01*
X18442801Y-15471793D02*
X18433277Y-15509888D01*
X18433277Y-15509888D02*
X18423753Y-15528936D01*
X18423753Y-15528936D02*
X18414229Y-15538460D01*
X18414229Y-15538460D02*
X18395182Y-15547984D01*
X18395182Y-15547984D02*
X18376134Y-15547984D01*
X18376134Y-15547984D02*
X18357087Y-15538460D01*
X18357087Y-15538460D02*
X18347563Y-15528936D01*
X18347563Y-15528936D02*
X18338039Y-15509888D01*
X18338039Y-15509888D02*
X18328515Y-15471793D01*
X18328515Y-15471793D02*
X18328515Y-15424174D01*
X18328515Y-15424174D02*
X18338039Y-15386079D01*
X18338039Y-15386079D02*
X18347563Y-15367031D01*
X18347563Y-15367031D02*
X18357087Y-15357508D01*
X18357087Y-15357508D02*
X18376134Y-15347984D01*
X18528515Y-15528936D02*
X18538039Y-15538460D01*
X18538039Y-15538460D02*
X18528515Y-15547984D01*
X18528515Y-15547984D02*
X18518991Y-15538460D01*
X18518991Y-15538460D02*
X18528515Y-15528936D01*
X18528515Y-15528936D02*
X18528515Y-15547984D01*
X18661848Y-15347984D02*
X18680896Y-15347984D01*
X18680896Y-15347984D02*
X18699944Y-15357508D01*
X18699944Y-15357508D02*
X18709468Y-15367031D01*
X18709468Y-15367031D02*
X18718991Y-15386079D01*
X18718991Y-15386079D02*
X18728515Y-15424174D01*
X18728515Y-15424174D02*
X18728515Y-15471793D01*
X18728515Y-15471793D02*
X18718991Y-15509888D01*
X18718991Y-15509888D02*
X18709468Y-15528936D01*
X18709468Y-15528936D02*
X18699944Y-15538460D01*
X18699944Y-15538460D02*
X18680896Y-15547984D01*
X18680896Y-15547984D02*
X18661848Y-15547984D01*
X18661848Y-15547984D02*
X18642801Y-15538460D01*
X18642801Y-15538460D02*
X18633277Y-15528936D01*
X18633277Y-15528936D02*
X18623753Y-15509888D01*
X18623753Y-15509888D02*
X18614229Y-15471793D01*
X18614229Y-15471793D02*
X18614229Y-15424174D01*
X18614229Y-15424174D02*
X18623753Y-15386079D01*
X18623753Y-15386079D02*
X18633277Y-15367031D01*
X18633277Y-15367031D02*
X18642801Y-15357508D01*
X18642801Y-15357508D02*
X18661848Y-15347984D01*
X18918991Y-15547984D02*
X18804706Y-15547984D01*
X18861848Y-15547984D02*
X18861848Y-15347984D01*
X18861848Y-15347984D02*
X18842801Y-15376555D01*
X18842801Y-15376555D02*
X18823753Y-15395603D01*
X18823753Y-15395603D02*
X18804706Y-15405127D01*
X19109468Y-15547984D02*
X18995182Y-15547984D01*
X19052325Y-15547984D02*
X19052325Y-15347984D01*
X19052325Y-15347984D02*
X19033277Y-15376555D01*
X19033277Y-15376555D02*
X19014229Y-15395603D01*
X19014229Y-15395603D02*
X18995182Y-15405127D01*
X19223753Y-15433698D02*
X19204706Y-15424174D01*
X19204706Y-15424174D02*
X19195182Y-15414650D01*
X19195182Y-15414650D02*
X19185658Y-15395603D01*
X19185658Y-15395603D02*
X19185658Y-15386079D01*
X19185658Y-15386079D02*
X19195182Y-15367031D01*
X19195182Y-15367031D02*
X19204706Y-15357508D01*
X19204706Y-15357508D02*
X19223753Y-15347984D01*
X19223753Y-15347984D02*
X19261849Y-15347984D01*
X19261849Y-15347984D02*
X19280896Y-15357508D01*
X19280896Y-15357508D02*
X19290420Y-15367031D01*
X19290420Y-15367031D02*
X19299944Y-15386079D01*
X19299944Y-15386079D02*
X19299944Y-15395603D01*
X19299944Y-15395603D02*
X19290420Y-15414650D01*
X19290420Y-15414650D02*
X19280896Y-15424174D01*
X19280896Y-15424174D02*
X19261849Y-15433698D01*
X19261849Y-15433698D02*
X19223753Y-15433698D01*
X19223753Y-15433698D02*
X19204706Y-15443222D01*
X19204706Y-15443222D02*
X19195182Y-15452746D01*
X19195182Y-15452746D02*
X19185658Y-15471793D01*
X19185658Y-15471793D02*
X19185658Y-15509888D01*
X19185658Y-15509888D02*
X19195182Y-15528936D01*
X19195182Y-15528936D02*
X19204706Y-15538460D01*
X19204706Y-15538460D02*
X19223753Y-15547984D01*
X19223753Y-15547984D02*
X19261849Y-15547984D01*
X19261849Y-15547984D02*
X19280896Y-15538460D01*
X19280896Y-15538460D02*
X19290420Y-15528936D01*
X19290420Y-15528936D02*
X19299944Y-15509888D01*
X19299944Y-15509888D02*
X19299944Y-15471793D01*
X19299944Y-15471793D02*
X19290420Y-15452746D01*
X19290420Y-15452746D02*
X19280896Y-15443222D01*
X19280896Y-15443222D02*
X19261849Y-15433698D01*
X19376134Y-15347984D02*
X19376134Y-15386079D01*
X19452325Y-15347984D02*
X19452325Y-15386079D01*
X19747563Y-15624174D02*
X19738039Y-15614650D01*
X19738039Y-15614650D02*
X19718991Y-15586079D01*
X19718991Y-15586079D02*
X19709468Y-15567031D01*
X19709468Y-15567031D02*
X19699944Y-15538460D01*
X19699944Y-15538460D02*
X19690420Y-15490841D01*
X19690420Y-15490841D02*
X19690420Y-15452746D01*
X19690420Y-15452746D02*
X19699944Y-15405127D01*
X19699944Y-15405127D02*
X19709468Y-15376555D01*
X19709468Y-15376555D02*
X19718991Y-15357508D01*
X19718991Y-15357508D02*
X19738039Y-15328936D01*
X19738039Y-15328936D02*
X19747563Y-15319412D01*
X19918991Y-15347984D02*
X19823753Y-15347984D01*
X19823753Y-15347984D02*
X19814230Y-15443222D01*
X19814230Y-15443222D02*
X19823753Y-15433698D01*
X19823753Y-15433698D02*
X19842801Y-15424174D01*
X19842801Y-15424174D02*
X19890420Y-15424174D01*
X19890420Y-15424174D02*
X19909468Y-15433698D01*
X19909468Y-15433698D02*
X19918991Y-15443222D01*
X19918991Y-15443222D02*
X19928515Y-15462269D01*
X19928515Y-15462269D02*
X19928515Y-15509888D01*
X19928515Y-15509888D02*
X19918991Y-15528936D01*
X19918991Y-15528936D02*
X19909468Y-15538460D01*
X19909468Y-15538460D02*
X19890420Y-15547984D01*
X19890420Y-15547984D02*
X19842801Y-15547984D01*
X19842801Y-15547984D02*
X19823753Y-15538460D01*
X19823753Y-15538460D02*
X19814230Y-15528936D01*
X20166611Y-15547984D02*
X20166611Y-15347984D01*
X20252325Y-15547984D02*
X20252325Y-15443222D01*
X20252325Y-15443222D02*
X20242801Y-15424174D01*
X20242801Y-15424174D02*
X20223753Y-15414650D01*
X20223753Y-15414650D02*
X20195182Y-15414650D01*
X20195182Y-15414650D02*
X20176134Y-15424174D01*
X20176134Y-15424174D02*
X20166611Y-15433698D01*
X20376134Y-15547984D02*
X20357087Y-15538460D01*
X20357087Y-15538460D02*
X20347563Y-15528936D01*
X20347563Y-15528936D02*
X20338039Y-15509888D01*
X20338039Y-15509888D02*
X20338039Y-15452746D01*
X20338039Y-15452746D02*
X20347563Y-15433698D01*
X20347563Y-15433698D02*
X20357087Y-15424174D01*
X20357087Y-15424174D02*
X20376134Y-15414650D01*
X20376134Y-15414650D02*
X20404706Y-15414650D01*
X20404706Y-15414650D02*
X20423753Y-15424174D01*
X20423753Y-15424174D02*
X20433277Y-15433698D01*
X20433277Y-15433698D02*
X20442801Y-15452746D01*
X20442801Y-15452746D02*
X20442801Y-15509888D01*
X20442801Y-15509888D02*
X20433277Y-15528936D01*
X20433277Y-15528936D02*
X20423753Y-15538460D01*
X20423753Y-15538460D02*
X20404706Y-15547984D01*
X20404706Y-15547984D02*
X20376134Y-15547984D01*
X20557087Y-15547984D02*
X20538039Y-15538460D01*
X20538039Y-15538460D02*
X20528515Y-15519412D01*
X20528515Y-15519412D02*
X20528515Y-15347984D01*
X20709468Y-15538460D02*
X20690420Y-15547984D01*
X20690420Y-15547984D02*
X20652325Y-15547984D01*
X20652325Y-15547984D02*
X20633277Y-15538460D01*
X20633277Y-15538460D02*
X20623753Y-15519412D01*
X20623753Y-15519412D02*
X20623753Y-15443222D01*
X20623753Y-15443222D02*
X20633277Y-15424174D01*
X20633277Y-15424174D02*
X20652325Y-15414650D01*
X20652325Y-15414650D02*
X20690420Y-15414650D01*
X20690420Y-15414650D02*
X20709468Y-15424174D01*
X20709468Y-15424174D02*
X20718992Y-15443222D01*
X20718992Y-15443222D02*
X20718992Y-15462269D01*
X20718992Y-15462269D02*
X20623753Y-15481317D01*
X20795182Y-15538460D02*
X20814230Y-15547984D01*
X20814230Y-15547984D02*
X20852325Y-15547984D01*
X20852325Y-15547984D02*
X20871373Y-15538460D01*
X20871373Y-15538460D02*
X20880896Y-15519412D01*
X20880896Y-15519412D02*
X20880896Y-15509888D01*
X20880896Y-15509888D02*
X20871373Y-15490841D01*
X20871373Y-15490841D02*
X20852325Y-15481317D01*
X20852325Y-15481317D02*
X20823753Y-15481317D01*
X20823753Y-15481317D02*
X20804706Y-15471793D01*
X20804706Y-15471793D02*
X20795182Y-15452746D01*
X20795182Y-15452746D02*
X20795182Y-15443222D01*
X20795182Y-15443222D02*
X20804706Y-15424174D01*
X20804706Y-15424174D02*
X20823753Y-15414650D01*
X20823753Y-15414650D02*
X20852325Y-15414650D01*
X20852325Y-15414650D02*
X20871373Y-15424174D01*
X20947563Y-15624174D02*
X20957087Y-15614650D01*
X20957087Y-15614650D02*
X20976134Y-15586079D01*
X20976134Y-15586079D02*
X20985658Y-15567031D01*
X20985658Y-15567031D02*
X20995182Y-15538460D01*
X20995182Y-15538460D02*
X21004706Y-15490841D01*
X21004706Y-15490841D02*
X21004706Y-15452746D01*
X21004706Y-15452746D02*
X20995182Y-15405127D01*
X20995182Y-15405127D02*
X20985658Y-15376555D01*
X20985658Y-15376555D02*
X20976134Y-15357508D01*
X20976134Y-15357508D02*
X20957087Y-15328936D01*
X20957087Y-15328936D02*
X20947563Y-15319412D01*
D12*
X16147500Y-15695500D02*
X16147500Y-15745500D01*
X16122500Y-15720500D02*
X16172500Y-15720500D01*
D11*
X16471372Y-15611984D02*
X16490420Y-15611984D01*
X16490420Y-15611984D02*
X16509467Y-15621508D01*
X16509467Y-15621508D02*
X16518991Y-15631031D01*
X16518991Y-15631031D02*
X16528515Y-15650079D01*
X16528515Y-15650079D02*
X16538039Y-15688174D01*
X16538039Y-15688174D02*
X16538039Y-15735793D01*
X16538039Y-15735793D02*
X16528515Y-15773888D01*
X16528515Y-15773888D02*
X16518991Y-15792936D01*
X16518991Y-15792936D02*
X16509467Y-15802460D01*
X16509467Y-15802460D02*
X16490420Y-15811984D01*
X16490420Y-15811984D02*
X16471372Y-15811984D01*
X16471372Y-15811984D02*
X16452324Y-15802460D01*
X16452324Y-15802460D02*
X16442801Y-15792936D01*
X16442801Y-15792936D02*
X16433277Y-15773888D01*
X16433277Y-15773888D02*
X16423753Y-15735793D01*
X16423753Y-15735793D02*
X16423753Y-15688174D01*
X16423753Y-15688174D02*
X16433277Y-15650079D01*
X16433277Y-15650079D02*
X16442801Y-15631031D01*
X16442801Y-15631031D02*
X16452324Y-15621508D01*
X16452324Y-15621508D02*
X16471372Y-15611984D01*
X16623753Y-15792936D02*
X16633277Y-15802460D01*
X16633277Y-15802460D02*
X16623753Y-15811984D01*
X16623753Y-15811984D02*
X16614229Y-15802460D01*
X16614229Y-15802460D02*
X16623753Y-15792936D01*
X16623753Y-15792936D02*
X16623753Y-15811984D01*
X16814229Y-15611984D02*
X16718991Y-15611984D01*
X16718991Y-15611984D02*
X16709467Y-15707222D01*
X16709467Y-15707222D02*
X16718991Y-15697698D01*
X16718991Y-15697698D02*
X16738039Y-15688174D01*
X16738039Y-15688174D02*
X16785658Y-15688174D01*
X16785658Y-15688174D02*
X16804705Y-15697698D01*
X16804705Y-15697698D02*
X16814229Y-15707222D01*
X16814229Y-15707222D02*
X16823753Y-15726269D01*
X16823753Y-15726269D02*
X16823753Y-15773888D01*
X16823753Y-15773888D02*
X16814229Y-15792936D01*
X16814229Y-15792936D02*
X16804705Y-15802460D01*
X16804705Y-15802460D02*
X16785658Y-15811984D01*
X16785658Y-15811984D02*
X16738039Y-15811984D01*
X16738039Y-15811984D02*
X16718991Y-15802460D01*
X16718991Y-15802460D02*
X16709467Y-15792936D01*
X16947563Y-15611984D02*
X16966610Y-15611984D01*
X16966610Y-15611984D02*
X16985658Y-15621508D01*
X16985658Y-15621508D02*
X16995182Y-15631031D01*
X16995182Y-15631031D02*
X17004705Y-15650079D01*
X17004705Y-15650079D02*
X17014229Y-15688174D01*
X17014229Y-15688174D02*
X17014229Y-15735793D01*
X17014229Y-15735793D02*
X17004705Y-15773888D01*
X17004705Y-15773888D02*
X16995182Y-15792936D01*
X16995182Y-15792936D02*
X16985658Y-15802460D01*
X16985658Y-15802460D02*
X16966610Y-15811984D01*
X16966610Y-15811984D02*
X16947563Y-15811984D01*
X16947563Y-15811984D02*
X16928515Y-15802460D01*
X16928515Y-15802460D02*
X16918991Y-15792936D01*
X16918991Y-15792936D02*
X16909467Y-15773888D01*
X16909467Y-15773888D02*
X16899944Y-15735793D01*
X16899944Y-15735793D02*
X16899944Y-15688174D01*
X16899944Y-15688174D02*
X16909467Y-15650079D01*
X16909467Y-15650079D02*
X16918991Y-15631031D01*
X16918991Y-15631031D02*
X16928515Y-15621508D01*
X16928515Y-15621508D02*
X16947563Y-15611984D01*
X17138039Y-15611984D02*
X17157086Y-15611984D01*
X17157086Y-15611984D02*
X17176134Y-15621508D01*
X17176134Y-15621508D02*
X17185658Y-15631031D01*
X17185658Y-15631031D02*
X17195182Y-15650079D01*
X17195182Y-15650079D02*
X17204705Y-15688174D01*
X17204705Y-15688174D02*
X17204705Y-15735793D01*
X17204705Y-15735793D02*
X17195182Y-15773888D01*
X17195182Y-15773888D02*
X17185658Y-15792936D01*
X17185658Y-15792936D02*
X17176134Y-15802460D01*
X17176134Y-15802460D02*
X17157086Y-15811984D01*
X17157086Y-15811984D02*
X17138039Y-15811984D01*
X17138039Y-15811984D02*
X17118991Y-15802460D01*
X17118991Y-15802460D02*
X17109467Y-15792936D01*
X17109467Y-15792936D02*
X17099944Y-15773888D01*
X17099944Y-15773888D02*
X17090420Y-15735793D01*
X17090420Y-15735793D02*
X17090420Y-15688174D01*
X17090420Y-15688174D02*
X17099944Y-15650079D01*
X17099944Y-15650079D02*
X17109467Y-15631031D01*
X17109467Y-15631031D02*
X17118991Y-15621508D01*
X17118991Y-15621508D02*
X17138039Y-15611984D01*
X17290420Y-15811984D02*
X17290420Y-15678650D01*
X17290420Y-15697698D02*
X17299944Y-15688174D01*
X17299944Y-15688174D02*
X17318991Y-15678650D01*
X17318991Y-15678650D02*
X17347563Y-15678650D01*
X17347563Y-15678650D02*
X17366610Y-15688174D01*
X17366610Y-15688174D02*
X17376134Y-15707222D01*
X17376134Y-15707222D02*
X17376134Y-15811984D01*
X17376134Y-15707222D02*
X17385658Y-15688174D01*
X17385658Y-15688174D02*
X17404705Y-15678650D01*
X17404705Y-15678650D02*
X17433277Y-15678650D01*
X17433277Y-15678650D02*
X17452325Y-15688174D01*
X17452325Y-15688174D02*
X17461848Y-15707222D01*
X17461848Y-15707222D02*
X17461848Y-15811984D01*
X17557086Y-15811984D02*
X17557086Y-15678650D01*
X17557086Y-15697698D02*
X17566610Y-15688174D01*
X17566610Y-15688174D02*
X17585658Y-15678650D01*
X17585658Y-15678650D02*
X17614229Y-15678650D01*
X17614229Y-15678650D02*
X17633277Y-15688174D01*
X17633277Y-15688174D02*
X17642801Y-15707222D01*
X17642801Y-15707222D02*
X17642801Y-15811984D01*
X17642801Y-15707222D02*
X17652325Y-15688174D01*
X17652325Y-15688174D02*
X17671372Y-15678650D01*
X17671372Y-15678650D02*
X17699944Y-15678650D01*
X17699944Y-15678650D02*
X17718991Y-15688174D01*
X17718991Y-15688174D02*
X17728515Y-15707222D01*
X17728515Y-15707222D02*
X17728515Y-15811984D01*
X18118991Y-15602460D02*
X17947563Y-15859603D01*
X18376134Y-15611984D02*
X18395182Y-15611984D01*
X18395182Y-15611984D02*
X18414229Y-15621508D01*
X18414229Y-15621508D02*
X18423753Y-15631031D01*
X18423753Y-15631031D02*
X18433277Y-15650079D01*
X18433277Y-15650079D02*
X18442801Y-15688174D01*
X18442801Y-15688174D02*
X18442801Y-15735793D01*
X18442801Y-15735793D02*
X18433277Y-15773888D01*
X18433277Y-15773888D02*
X18423753Y-15792936D01*
X18423753Y-15792936D02*
X18414229Y-15802460D01*
X18414229Y-15802460D02*
X18395182Y-15811984D01*
X18395182Y-15811984D02*
X18376134Y-15811984D01*
X18376134Y-15811984D02*
X18357087Y-15802460D01*
X18357087Y-15802460D02*
X18347563Y-15792936D01*
X18347563Y-15792936D02*
X18338039Y-15773888D01*
X18338039Y-15773888D02*
X18328515Y-15735793D01*
X18328515Y-15735793D02*
X18328515Y-15688174D01*
X18328515Y-15688174D02*
X18338039Y-15650079D01*
X18338039Y-15650079D02*
X18347563Y-15631031D01*
X18347563Y-15631031D02*
X18357087Y-15621508D01*
X18357087Y-15621508D02*
X18376134Y-15611984D01*
X18528515Y-15792936D02*
X18538039Y-15802460D01*
X18538039Y-15802460D02*
X18528515Y-15811984D01*
X18528515Y-15811984D02*
X18518991Y-15802460D01*
X18518991Y-15802460D02*
X18528515Y-15792936D01*
X18528515Y-15792936D02*
X18528515Y-15811984D01*
X18661848Y-15611984D02*
X18680896Y-15611984D01*
X18680896Y-15611984D02*
X18699944Y-15621508D01*
X18699944Y-15621508D02*
X18709468Y-15631031D01*
X18709468Y-15631031D02*
X18718991Y-15650079D01*
X18718991Y-15650079D02*
X18728515Y-15688174D01*
X18728515Y-15688174D02*
X18728515Y-15735793D01*
X18728515Y-15735793D02*
X18718991Y-15773888D01*
X18718991Y-15773888D02*
X18709468Y-15792936D01*
X18709468Y-15792936D02*
X18699944Y-15802460D01*
X18699944Y-15802460D02*
X18680896Y-15811984D01*
X18680896Y-15811984D02*
X18661848Y-15811984D01*
X18661848Y-15811984D02*
X18642801Y-15802460D01*
X18642801Y-15802460D02*
X18633277Y-15792936D01*
X18633277Y-15792936D02*
X18623753Y-15773888D01*
X18623753Y-15773888D02*
X18614229Y-15735793D01*
X18614229Y-15735793D02*
X18614229Y-15688174D01*
X18614229Y-15688174D02*
X18623753Y-15650079D01*
X18623753Y-15650079D02*
X18633277Y-15631031D01*
X18633277Y-15631031D02*
X18642801Y-15621508D01*
X18642801Y-15621508D02*
X18661848Y-15611984D01*
X18918991Y-15811984D02*
X18804706Y-15811984D01*
X18861848Y-15811984D02*
X18861848Y-15611984D01*
X18861848Y-15611984D02*
X18842801Y-15640555D01*
X18842801Y-15640555D02*
X18823753Y-15659603D01*
X18823753Y-15659603D02*
X18804706Y-15669127D01*
X19014229Y-15811984D02*
X19052325Y-15811984D01*
X19052325Y-15811984D02*
X19071372Y-15802460D01*
X19071372Y-15802460D02*
X19080896Y-15792936D01*
X19080896Y-15792936D02*
X19099944Y-15764365D01*
X19099944Y-15764365D02*
X19109468Y-15726269D01*
X19109468Y-15726269D02*
X19109468Y-15650079D01*
X19109468Y-15650079D02*
X19099944Y-15631031D01*
X19099944Y-15631031D02*
X19090420Y-15621508D01*
X19090420Y-15621508D02*
X19071372Y-15611984D01*
X19071372Y-15611984D02*
X19033277Y-15611984D01*
X19033277Y-15611984D02*
X19014229Y-15621508D01*
X19014229Y-15621508D02*
X19004706Y-15631031D01*
X19004706Y-15631031D02*
X18995182Y-15650079D01*
X18995182Y-15650079D02*
X18995182Y-15697698D01*
X18995182Y-15697698D02*
X19004706Y-15716746D01*
X19004706Y-15716746D02*
X19014229Y-15726269D01*
X19014229Y-15726269D02*
X19033277Y-15735793D01*
X19033277Y-15735793D02*
X19071372Y-15735793D01*
X19071372Y-15735793D02*
X19090420Y-15726269D01*
X19090420Y-15726269D02*
X19099944Y-15716746D01*
X19099944Y-15716746D02*
X19109468Y-15697698D01*
X19176134Y-15611984D02*
X19309468Y-15611984D01*
X19309468Y-15611984D02*
X19223753Y-15811984D01*
X19376134Y-15611984D02*
X19376134Y-15650079D01*
X19452325Y-15611984D02*
X19452325Y-15650079D01*
X19747563Y-15888174D02*
X19738039Y-15878650D01*
X19738039Y-15878650D02*
X19718991Y-15850079D01*
X19718991Y-15850079D02*
X19709468Y-15831031D01*
X19709468Y-15831031D02*
X19699944Y-15802460D01*
X19699944Y-15802460D02*
X19690420Y-15754841D01*
X19690420Y-15754841D02*
X19690420Y-15716746D01*
X19690420Y-15716746D02*
X19699944Y-15669127D01*
X19699944Y-15669127D02*
X19709468Y-15640555D01*
X19709468Y-15640555D02*
X19718991Y-15621508D01*
X19718991Y-15621508D02*
X19738039Y-15592936D01*
X19738039Y-15592936D02*
X19747563Y-15583412D01*
X19861849Y-15611984D02*
X19880896Y-15611984D01*
X19880896Y-15611984D02*
X19899944Y-15621508D01*
X19899944Y-15621508D02*
X19909468Y-15631031D01*
X19909468Y-15631031D02*
X19918991Y-15650079D01*
X19918991Y-15650079D02*
X19928515Y-15688174D01*
X19928515Y-15688174D02*
X19928515Y-15735793D01*
X19928515Y-15735793D02*
X19918991Y-15773888D01*
X19918991Y-15773888D02*
X19909468Y-15792936D01*
X19909468Y-15792936D02*
X19899944Y-15802460D01*
X19899944Y-15802460D02*
X19880896Y-15811984D01*
X19880896Y-15811984D02*
X19861849Y-15811984D01*
X19861849Y-15811984D02*
X19842801Y-15802460D01*
X19842801Y-15802460D02*
X19833277Y-15792936D01*
X19833277Y-15792936D02*
X19823753Y-15773888D01*
X19823753Y-15773888D02*
X19814230Y-15735793D01*
X19814230Y-15735793D02*
X19814230Y-15688174D01*
X19814230Y-15688174D02*
X19823753Y-15650079D01*
X19823753Y-15650079D02*
X19833277Y-15631031D01*
X19833277Y-15631031D02*
X19842801Y-15621508D01*
X19842801Y-15621508D02*
X19861849Y-15611984D01*
X20166611Y-15811984D02*
X20166611Y-15611984D01*
X20252325Y-15811984D02*
X20252325Y-15707222D01*
X20252325Y-15707222D02*
X20242801Y-15688174D01*
X20242801Y-15688174D02*
X20223753Y-15678650D01*
X20223753Y-15678650D02*
X20195182Y-15678650D01*
X20195182Y-15678650D02*
X20176134Y-15688174D01*
X20176134Y-15688174D02*
X20166611Y-15697698D01*
X20376134Y-15811984D02*
X20357087Y-15802460D01*
X20357087Y-15802460D02*
X20347563Y-15792936D01*
X20347563Y-15792936D02*
X20338039Y-15773888D01*
X20338039Y-15773888D02*
X20338039Y-15716746D01*
X20338039Y-15716746D02*
X20347563Y-15697698D01*
X20347563Y-15697698D02*
X20357087Y-15688174D01*
X20357087Y-15688174D02*
X20376134Y-15678650D01*
X20376134Y-15678650D02*
X20404706Y-15678650D01*
X20404706Y-15678650D02*
X20423753Y-15688174D01*
X20423753Y-15688174D02*
X20433277Y-15697698D01*
X20433277Y-15697698D02*
X20442801Y-15716746D01*
X20442801Y-15716746D02*
X20442801Y-15773888D01*
X20442801Y-15773888D02*
X20433277Y-15792936D01*
X20433277Y-15792936D02*
X20423753Y-15802460D01*
X20423753Y-15802460D02*
X20404706Y-15811984D01*
X20404706Y-15811984D02*
X20376134Y-15811984D01*
X20557087Y-15811984D02*
X20538039Y-15802460D01*
X20538039Y-15802460D02*
X20528515Y-15783412D01*
X20528515Y-15783412D02*
X20528515Y-15611984D01*
X20709468Y-15802460D02*
X20690420Y-15811984D01*
X20690420Y-15811984D02*
X20652325Y-15811984D01*
X20652325Y-15811984D02*
X20633277Y-15802460D01*
X20633277Y-15802460D02*
X20623753Y-15783412D01*
X20623753Y-15783412D02*
X20623753Y-15707222D01*
X20623753Y-15707222D02*
X20633277Y-15688174D01*
X20633277Y-15688174D02*
X20652325Y-15678650D01*
X20652325Y-15678650D02*
X20690420Y-15678650D01*
X20690420Y-15678650D02*
X20709468Y-15688174D01*
X20709468Y-15688174D02*
X20718992Y-15707222D01*
X20718992Y-15707222D02*
X20718992Y-15726269D01*
X20718992Y-15726269D02*
X20623753Y-15745317D01*
X20795182Y-15802460D02*
X20814230Y-15811984D01*
X20814230Y-15811984D02*
X20852325Y-15811984D01*
X20852325Y-15811984D02*
X20871373Y-15802460D01*
X20871373Y-15802460D02*
X20880896Y-15783412D01*
X20880896Y-15783412D02*
X20880896Y-15773888D01*
X20880896Y-15773888D02*
X20871373Y-15754841D01*
X20871373Y-15754841D02*
X20852325Y-15745317D01*
X20852325Y-15745317D02*
X20823753Y-15745317D01*
X20823753Y-15745317D02*
X20804706Y-15735793D01*
X20804706Y-15735793D02*
X20795182Y-15716746D01*
X20795182Y-15716746D02*
X20795182Y-15707222D01*
X20795182Y-15707222D02*
X20804706Y-15688174D01*
X20804706Y-15688174D02*
X20823753Y-15678650D01*
X20823753Y-15678650D02*
X20852325Y-15678650D01*
X20852325Y-15678650D02*
X20871373Y-15688174D01*
X21118992Y-15735793D02*
X21271373Y-15735793D01*
X21195182Y-15811984D02*
X21195182Y-15659603D01*
X21528515Y-15811984D02*
X21566611Y-15811984D01*
X21566611Y-15811984D02*
X21585658Y-15802460D01*
X21585658Y-15802460D02*
X21595182Y-15792936D01*
X21595182Y-15792936D02*
X21614230Y-15764365D01*
X21614230Y-15764365D02*
X21623754Y-15726269D01*
X21623754Y-15726269D02*
X21623754Y-15650079D01*
X21623754Y-15650079D02*
X21614230Y-15631031D01*
X21614230Y-15631031D02*
X21604706Y-15621508D01*
X21604706Y-15621508D02*
X21585658Y-15611984D01*
X21585658Y-15611984D02*
X21547563Y-15611984D01*
X21547563Y-15611984D02*
X21528515Y-15621508D01*
X21528515Y-15621508D02*
X21518992Y-15631031D01*
X21518992Y-15631031D02*
X21509468Y-15650079D01*
X21509468Y-15650079D02*
X21509468Y-15697698D01*
X21509468Y-15697698D02*
X21518992Y-15716746D01*
X21518992Y-15716746D02*
X21528515Y-15726269D01*
X21528515Y-15726269D02*
X21547563Y-15735793D01*
X21547563Y-15735793D02*
X21585658Y-15735793D01*
X21585658Y-15735793D02*
X21604706Y-15726269D01*
X21604706Y-15726269D02*
X21614230Y-15716746D01*
X21614230Y-15716746D02*
X21623754Y-15697698D01*
X21852325Y-15802460D02*
X21871373Y-15811984D01*
X21871373Y-15811984D02*
X21909468Y-15811984D01*
X21909468Y-15811984D02*
X21928516Y-15802460D01*
X21928516Y-15802460D02*
X21938039Y-15783412D01*
X21938039Y-15783412D02*
X21938039Y-15773888D01*
X21938039Y-15773888D02*
X21928516Y-15754841D01*
X21928516Y-15754841D02*
X21909468Y-15745317D01*
X21909468Y-15745317D02*
X21880896Y-15745317D01*
X21880896Y-15745317D02*
X21861849Y-15735793D01*
X21861849Y-15735793D02*
X21852325Y-15716746D01*
X21852325Y-15716746D02*
X21852325Y-15707222D01*
X21852325Y-15707222D02*
X21861849Y-15688174D01*
X21861849Y-15688174D02*
X21880896Y-15678650D01*
X21880896Y-15678650D02*
X21909468Y-15678650D01*
X21909468Y-15678650D02*
X21928516Y-15688174D01*
X22052325Y-15811984D02*
X22033277Y-15802460D01*
X22033277Y-15802460D02*
X22023754Y-15783412D01*
X22023754Y-15783412D02*
X22023754Y-15611984D01*
X22157087Y-15811984D02*
X22138039Y-15802460D01*
X22138039Y-15802460D02*
X22128516Y-15792936D01*
X22128516Y-15792936D02*
X22118992Y-15773888D01*
X22118992Y-15773888D02*
X22118992Y-15716746D01*
X22118992Y-15716746D02*
X22128516Y-15697698D01*
X22128516Y-15697698D02*
X22138039Y-15688174D01*
X22138039Y-15688174D02*
X22157087Y-15678650D01*
X22157087Y-15678650D02*
X22185658Y-15678650D01*
X22185658Y-15678650D02*
X22204706Y-15688174D01*
X22204706Y-15688174D02*
X22214230Y-15697698D01*
X22214230Y-15697698D02*
X22223754Y-15716746D01*
X22223754Y-15716746D02*
X22223754Y-15773888D01*
X22223754Y-15773888D02*
X22214230Y-15792936D01*
X22214230Y-15792936D02*
X22204706Y-15802460D01*
X22204706Y-15802460D02*
X22185658Y-15811984D01*
X22185658Y-15811984D02*
X22157087Y-15811984D01*
X22280897Y-15678650D02*
X22357087Y-15678650D01*
X22309468Y-15611984D02*
X22309468Y-15783412D01*
X22309468Y-15783412D02*
X22318992Y-15802460D01*
X22318992Y-15802460D02*
X22338039Y-15811984D01*
X22338039Y-15811984D02*
X22357087Y-15811984D01*
X22414230Y-15802460D02*
X22433277Y-15811984D01*
X22433277Y-15811984D02*
X22471373Y-15811984D01*
X22471373Y-15811984D02*
X22490420Y-15802460D01*
X22490420Y-15802460D02*
X22499944Y-15783412D01*
X22499944Y-15783412D02*
X22499944Y-15773888D01*
X22499944Y-15773888D02*
X22490420Y-15754841D01*
X22490420Y-15754841D02*
X22471373Y-15745317D01*
X22471373Y-15745317D02*
X22442801Y-15745317D01*
X22442801Y-15745317D02*
X22423754Y-15735793D01*
X22423754Y-15735793D02*
X22414230Y-15716746D01*
X22414230Y-15716746D02*
X22414230Y-15707222D01*
X22414230Y-15707222D02*
X22423754Y-15688174D01*
X22423754Y-15688174D02*
X22442801Y-15678650D01*
X22442801Y-15678650D02*
X22471373Y-15678650D01*
X22471373Y-15678650D02*
X22490420Y-15688174D01*
X22566611Y-15888174D02*
X22576135Y-15878650D01*
X22576135Y-15878650D02*
X22595182Y-15850079D01*
X22595182Y-15850079D02*
X22604706Y-15831031D01*
X22604706Y-15831031D02*
X22614230Y-15802460D01*
X22614230Y-15802460D02*
X22623754Y-15754841D01*
X22623754Y-15754841D02*
X22623754Y-15716746D01*
X22623754Y-15716746D02*
X22614230Y-15669127D01*
X22614230Y-15669127D02*
X22604706Y-15640555D01*
X22604706Y-15640555D02*
X22595182Y-15621508D01*
X22595182Y-15621508D02*
X22576135Y-15592936D01*
X22576135Y-15592936D02*
X22566611Y-15583412D01*
D12*
X16163713Y-16005713D02*
X16163713Y-15963287D01*
X16121287Y-15963287D01*
X16121287Y-16005713D01*
X16163713Y-16005713D01*
D11*
X16471372Y-15875984D02*
X16490420Y-15875984D01*
X16490420Y-15875984D02*
X16509467Y-15885508D01*
X16509467Y-15885508D02*
X16518991Y-15895031D01*
X16518991Y-15895031D02*
X16528515Y-15914079D01*
X16528515Y-15914079D02*
X16538039Y-15952174D01*
X16538039Y-15952174D02*
X16538039Y-15999793D01*
X16538039Y-15999793D02*
X16528515Y-16037888D01*
X16528515Y-16037888D02*
X16518991Y-16056936D01*
X16518991Y-16056936D02*
X16509467Y-16066460D01*
X16509467Y-16066460D02*
X16490420Y-16075984D01*
X16490420Y-16075984D02*
X16471372Y-16075984D01*
X16471372Y-16075984D02*
X16452324Y-16066460D01*
X16452324Y-16066460D02*
X16442801Y-16056936D01*
X16442801Y-16056936D02*
X16433277Y-16037888D01*
X16433277Y-16037888D02*
X16423753Y-15999793D01*
X16423753Y-15999793D02*
X16423753Y-15952174D01*
X16423753Y-15952174D02*
X16433277Y-15914079D01*
X16433277Y-15914079D02*
X16442801Y-15895031D01*
X16442801Y-15895031D02*
X16452324Y-15885508D01*
X16452324Y-15885508D02*
X16471372Y-15875984D01*
X16623753Y-16056936D02*
X16633277Y-16066460D01*
X16633277Y-16066460D02*
X16623753Y-16075984D01*
X16623753Y-16075984D02*
X16614229Y-16066460D01*
X16614229Y-16066460D02*
X16623753Y-16056936D01*
X16623753Y-16056936D02*
X16623753Y-16075984D01*
X16804705Y-15875984D02*
X16766610Y-15875984D01*
X16766610Y-15875984D02*
X16747562Y-15885508D01*
X16747562Y-15885508D02*
X16738039Y-15895031D01*
X16738039Y-15895031D02*
X16718991Y-15923603D01*
X16718991Y-15923603D02*
X16709467Y-15961698D01*
X16709467Y-15961698D02*
X16709467Y-16037888D01*
X16709467Y-16037888D02*
X16718991Y-16056936D01*
X16718991Y-16056936D02*
X16728515Y-16066460D01*
X16728515Y-16066460D02*
X16747562Y-16075984D01*
X16747562Y-16075984D02*
X16785658Y-16075984D01*
X16785658Y-16075984D02*
X16804705Y-16066460D01*
X16804705Y-16066460D02*
X16814229Y-16056936D01*
X16814229Y-16056936D02*
X16823753Y-16037888D01*
X16823753Y-16037888D02*
X16823753Y-15990269D01*
X16823753Y-15990269D02*
X16814229Y-15971222D01*
X16814229Y-15971222D02*
X16804705Y-15961698D01*
X16804705Y-15961698D02*
X16785658Y-15952174D01*
X16785658Y-15952174D02*
X16747562Y-15952174D01*
X16747562Y-15952174D02*
X16728515Y-15961698D01*
X16728515Y-15961698D02*
X16718991Y-15971222D01*
X16718991Y-15971222D02*
X16709467Y-15990269D01*
X16947563Y-15875984D02*
X16966610Y-15875984D01*
X16966610Y-15875984D02*
X16985658Y-15885508D01*
X16985658Y-15885508D02*
X16995182Y-15895031D01*
X16995182Y-15895031D02*
X17004705Y-15914079D01*
X17004705Y-15914079D02*
X17014229Y-15952174D01*
X17014229Y-15952174D02*
X17014229Y-15999793D01*
X17014229Y-15999793D02*
X17004705Y-16037888D01*
X17004705Y-16037888D02*
X16995182Y-16056936D01*
X16995182Y-16056936D02*
X16985658Y-16066460D01*
X16985658Y-16066460D02*
X16966610Y-16075984D01*
X16966610Y-16075984D02*
X16947563Y-16075984D01*
X16947563Y-16075984D02*
X16928515Y-16066460D01*
X16928515Y-16066460D02*
X16918991Y-16056936D01*
X16918991Y-16056936D02*
X16909467Y-16037888D01*
X16909467Y-16037888D02*
X16899944Y-15999793D01*
X16899944Y-15999793D02*
X16899944Y-15952174D01*
X16899944Y-15952174D02*
X16909467Y-15914079D01*
X16909467Y-15914079D02*
X16918991Y-15895031D01*
X16918991Y-15895031D02*
X16928515Y-15885508D01*
X16928515Y-15885508D02*
X16947563Y-15875984D01*
X17138039Y-15875984D02*
X17157086Y-15875984D01*
X17157086Y-15875984D02*
X17176134Y-15885508D01*
X17176134Y-15885508D02*
X17185658Y-15895031D01*
X17185658Y-15895031D02*
X17195182Y-15914079D01*
X17195182Y-15914079D02*
X17204705Y-15952174D01*
X17204705Y-15952174D02*
X17204705Y-15999793D01*
X17204705Y-15999793D02*
X17195182Y-16037888D01*
X17195182Y-16037888D02*
X17185658Y-16056936D01*
X17185658Y-16056936D02*
X17176134Y-16066460D01*
X17176134Y-16066460D02*
X17157086Y-16075984D01*
X17157086Y-16075984D02*
X17138039Y-16075984D01*
X17138039Y-16075984D02*
X17118991Y-16066460D01*
X17118991Y-16066460D02*
X17109467Y-16056936D01*
X17109467Y-16056936D02*
X17099944Y-16037888D01*
X17099944Y-16037888D02*
X17090420Y-15999793D01*
X17090420Y-15999793D02*
X17090420Y-15952174D01*
X17090420Y-15952174D02*
X17099944Y-15914079D01*
X17099944Y-15914079D02*
X17109467Y-15895031D01*
X17109467Y-15895031D02*
X17118991Y-15885508D01*
X17118991Y-15885508D02*
X17138039Y-15875984D01*
X17290420Y-16075984D02*
X17290420Y-15942650D01*
X17290420Y-15961698D02*
X17299944Y-15952174D01*
X17299944Y-15952174D02*
X17318991Y-15942650D01*
X17318991Y-15942650D02*
X17347563Y-15942650D01*
X17347563Y-15942650D02*
X17366610Y-15952174D01*
X17366610Y-15952174D02*
X17376134Y-15971222D01*
X17376134Y-15971222D02*
X17376134Y-16075984D01*
X17376134Y-15971222D02*
X17385658Y-15952174D01*
X17385658Y-15952174D02*
X17404705Y-15942650D01*
X17404705Y-15942650D02*
X17433277Y-15942650D01*
X17433277Y-15942650D02*
X17452325Y-15952174D01*
X17452325Y-15952174D02*
X17461848Y-15971222D01*
X17461848Y-15971222D02*
X17461848Y-16075984D01*
X17557086Y-16075984D02*
X17557086Y-15942650D01*
X17557086Y-15961698D02*
X17566610Y-15952174D01*
X17566610Y-15952174D02*
X17585658Y-15942650D01*
X17585658Y-15942650D02*
X17614229Y-15942650D01*
X17614229Y-15942650D02*
X17633277Y-15952174D01*
X17633277Y-15952174D02*
X17642801Y-15971222D01*
X17642801Y-15971222D02*
X17642801Y-16075984D01*
X17642801Y-15971222D02*
X17652325Y-15952174D01*
X17652325Y-15952174D02*
X17671372Y-15942650D01*
X17671372Y-15942650D02*
X17699944Y-15942650D01*
X17699944Y-15942650D02*
X17718991Y-15952174D01*
X17718991Y-15952174D02*
X17728515Y-15971222D01*
X17728515Y-15971222D02*
X17728515Y-16075984D01*
X18118991Y-15866460D02*
X17947563Y-16123603D01*
X18376134Y-15875984D02*
X18395182Y-15875984D01*
X18395182Y-15875984D02*
X18414229Y-15885508D01*
X18414229Y-15885508D02*
X18423753Y-15895031D01*
X18423753Y-15895031D02*
X18433277Y-15914079D01*
X18433277Y-15914079D02*
X18442801Y-15952174D01*
X18442801Y-15952174D02*
X18442801Y-15999793D01*
X18442801Y-15999793D02*
X18433277Y-16037888D01*
X18433277Y-16037888D02*
X18423753Y-16056936D01*
X18423753Y-16056936D02*
X18414229Y-16066460D01*
X18414229Y-16066460D02*
X18395182Y-16075984D01*
X18395182Y-16075984D02*
X18376134Y-16075984D01*
X18376134Y-16075984D02*
X18357087Y-16066460D01*
X18357087Y-16066460D02*
X18347563Y-16056936D01*
X18347563Y-16056936D02*
X18338039Y-16037888D01*
X18338039Y-16037888D02*
X18328515Y-15999793D01*
X18328515Y-15999793D02*
X18328515Y-15952174D01*
X18328515Y-15952174D02*
X18338039Y-15914079D01*
X18338039Y-15914079D02*
X18347563Y-15895031D01*
X18347563Y-15895031D02*
X18357087Y-15885508D01*
X18357087Y-15885508D02*
X18376134Y-15875984D01*
X18528515Y-16056936D02*
X18538039Y-16066460D01*
X18538039Y-16066460D02*
X18528515Y-16075984D01*
X18528515Y-16075984D02*
X18518991Y-16066460D01*
X18518991Y-16066460D02*
X18528515Y-16056936D01*
X18528515Y-16056936D02*
X18528515Y-16075984D01*
X18661848Y-15875984D02*
X18680896Y-15875984D01*
X18680896Y-15875984D02*
X18699944Y-15885508D01*
X18699944Y-15885508D02*
X18709468Y-15895031D01*
X18709468Y-15895031D02*
X18718991Y-15914079D01*
X18718991Y-15914079D02*
X18728515Y-15952174D01*
X18728515Y-15952174D02*
X18728515Y-15999793D01*
X18728515Y-15999793D02*
X18718991Y-16037888D01*
X18718991Y-16037888D02*
X18709468Y-16056936D01*
X18709468Y-16056936D02*
X18699944Y-16066460D01*
X18699944Y-16066460D02*
X18680896Y-16075984D01*
X18680896Y-16075984D02*
X18661848Y-16075984D01*
X18661848Y-16075984D02*
X18642801Y-16066460D01*
X18642801Y-16066460D02*
X18633277Y-16056936D01*
X18633277Y-16056936D02*
X18623753Y-16037888D01*
X18623753Y-16037888D02*
X18614229Y-15999793D01*
X18614229Y-15999793D02*
X18614229Y-15952174D01*
X18614229Y-15952174D02*
X18623753Y-15914079D01*
X18623753Y-15914079D02*
X18633277Y-15895031D01*
X18633277Y-15895031D02*
X18642801Y-15885508D01*
X18642801Y-15885508D02*
X18661848Y-15875984D01*
X18804706Y-15895031D02*
X18814229Y-15885508D01*
X18814229Y-15885508D02*
X18833277Y-15875984D01*
X18833277Y-15875984D02*
X18880896Y-15875984D01*
X18880896Y-15875984D02*
X18899944Y-15885508D01*
X18899944Y-15885508D02*
X18909468Y-15895031D01*
X18909468Y-15895031D02*
X18918991Y-15914079D01*
X18918991Y-15914079D02*
X18918991Y-15933127D01*
X18918991Y-15933127D02*
X18909468Y-15961698D01*
X18909468Y-15961698D02*
X18795182Y-16075984D01*
X18795182Y-16075984D02*
X18918991Y-16075984D01*
X18985658Y-15875984D02*
X19109468Y-15875984D01*
X19109468Y-15875984D02*
X19042801Y-15952174D01*
X19042801Y-15952174D02*
X19071372Y-15952174D01*
X19071372Y-15952174D02*
X19090420Y-15961698D01*
X19090420Y-15961698D02*
X19099944Y-15971222D01*
X19099944Y-15971222D02*
X19109468Y-15990269D01*
X19109468Y-15990269D02*
X19109468Y-16037888D01*
X19109468Y-16037888D02*
X19099944Y-16056936D01*
X19099944Y-16056936D02*
X19090420Y-16066460D01*
X19090420Y-16066460D02*
X19071372Y-16075984D01*
X19071372Y-16075984D02*
X19014229Y-16075984D01*
X19014229Y-16075984D02*
X18995182Y-16066460D01*
X18995182Y-16066460D02*
X18985658Y-16056936D01*
X19280896Y-15875984D02*
X19242801Y-15875984D01*
X19242801Y-15875984D02*
X19223753Y-15885508D01*
X19223753Y-15885508D02*
X19214229Y-15895031D01*
X19214229Y-15895031D02*
X19195182Y-15923603D01*
X19195182Y-15923603D02*
X19185658Y-15961698D01*
X19185658Y-15961698D02*
X19185658Y-16037888D01*
X19185658Y-16037888D02*
X19195182Y-16056936D01*
X19195182Y-16056936D02*
X19204706Y-16066460D01*
X19204706Y-16066460D02*
X19223753Y-16075984D01*
X19223753Y-16075984D02*
X19261849Y-16075984D01*
X19261849Y-16075984D02*
X19280896Y-16066460D01*
X19280896Y-16066460D02*
X19290420Y-16056936D01*
X19290420Y-16056936D02*
X19299944Y-16037888D01*
X19299944Y-16037888D02*
X19299944Y-15990269D01*
X19299944Y-15990269D02*
X19290420Y-15971222D01*
X19290420Y-15971222D02*
X19280896Y-15961698D01*
X19280896Y-15961698D02*
X19261849Y-15952174D01*
X19261849Y-15952174D02*
X19223753Y-15952174D01*
X19223753Y-15952174D02*
X19204706Y-15961698D01*
X19204706Y-15961698D02*
X19195182Y-15971222D01*
X19195182Y-15971222D02*
X19185658Y-15990269D01*
X19376134Y-15875984D02*
X19376134Y-15914079D01*
X19452325Y-15875984D02*
X19452325Y-15914079D01*
X19747563Y-16152174D02*
X19738039Y-16142650D01*
X19738039Y-16142650D02*
X19718991Y-16114079D01*
X19718991Y-16114079D02*
X19709468Y-16095031D01*
X19709468Y-16095031D02*
X19699944Y-16066460D01*
X19699944Y-16066460D02*
X19690420Y-16018841D01*
X19690420Y-16018841D02*
X19690420Y-15980746D01*
X19690420Y-15980746D02*
X19699944Y-15933127D01*
X19699944Y-15933127D02*
X19709468Y-15904555D01*
X19709468Y-15904555D02*
X19718991Y-15885508D01*
X19718991Y-15885508D02*
X19738039Y-15856936D01*
X19738039Y-15856936D02*
X19747563Y-15847412D01*
X19861849Y-15875984D02*
X19880896Y-15875984D01*
X19880896Y-15875984D02*
X19899944Y-15885508D01*
X19899944Y-15885508D02*
X19909468Y-15895031D01*
X19909468Y-15895031D02*
X19918991Y-15914079D01*
X19918991Y-15914079D02*
X19928515Y-15952174D01*
X19928515Y-15952174D02*
X19928515Y-15999793D01*
X19928515Y-15999793D02*
X19918991Y-16037888D01*
X19918991Y-16037888D02*
X19909468Y-16056936D01*
X19909468Y-16056936D02*
X19899944Y-16066460D01*
X19899944Y-16066460D02*
X19880896Y-16075984D01*
X19880896Y-16075984D02*
X19861849Y-16075984D01*
X19861849Y-16075984D02*
X19842801Y-16066460D01*
X19842801Y-16066460D02*
X19833277Y-16056936D01*
X19833277Y-16056936D02*
X19823753Y-16037888D01*
X19823753Y-16037888D02*
X19814230Y-15999793D01*
X19814230Y-15999793D02*
X19814230Y-15952174D01*
X19814230Y-15952174D02*
X19823753Y-15914079D01*
X19823753Y-15914079D02*
X19833277Y-15895031D01*
X19833277Y-15895031D02*
X19842801Y-15885508D01*
X19842801Y-15885508D02*
X19861849Y-15875984D01*
X20166611Y-16075984D02*
X20166611Y-15875984D01*
X20252325Y-16075984D02*
X20252325Y-15971222D01*
X20252325Y-15971222D02*
X20242801Y-15952174D01*
X20242801Y-15952174D02*
X20223753Y-15942650D01*
X20223753Y-15942650D02*
X20195182Y-15942650D01*
X20195182Y-15942650D02*
X20176134Y-15952174D01*
X20176134Y-15952174D02*
X20166611Y-15961698D01*
X20376134Y-16075984D02*
X20357087Y-16066460D01*
X20357087Y-16066460D02*
X20347563Y-16056936D01*
X20347563Y-16056936D02*
X20338039Y-16037888D01*
X20338039Y-16037888D02*
X20338039Y-15980746D01*
X20338039Y-15980746D02*
X20347563Y-15961698D01*
X20347563Y-15961698D02*
X20357087Y-15952174D01*
X20357087Y-15952174D02*
X20376134Y-15942650D01*
X20376134Y-15942650D02*
X20404706Y-15942650D01*
X20404706Y-15942650D02*
X20423753Y-15952174D01*
X20423753Y-15952174D02*
X20433277Y-15961698D01*
X20433277Y-15961698D02*
X20442801Y-15980746D01*
X20442801Y-15980746D02*
X20442801Y-16037888D01*
X20442801Y-16037888D02*
X20433277Y-16056936D01*
X20433277Y-16056936D02*
X20423753Y-16066460D01*
X20423753Y-16066460D02*
X20404706Y-16075984D01*
X20404706Y-16075984D02*
X20376134Y-16075984D01*
X20557087Y-16075984D02*
X20538039Y-16066460D01*
X20538039Y-16066460D02*
X20528515Y-16047412D01*
X20528515Y-16047412D02*
X20528515Y-15875984D01*
X20709468Y-16066460D02*
X20690420Y-16075984D01*
X20690420Y-16075984D02*
X20652325Y-16075984D01*
X20652325Y-16075984D02*
X20633277Y-16066460D01*
X20633277Y-16066460D02*
X20623753Y-16047412D01*
X20623753Y-16047412D02*
X20623753Y-15971222D01*
X20623753Y-15971222D02*
X20633277Y-15952174D01*
X20633277Y-15952174D02*
X20652325Y-15942650D01*
X20652325Y-15942650D02*
X20690420Y-15942650D01*
X20690420Y-15942650D02*
X20709468Y-15952174D01*
X20709468Y-15952174D02*
X20718992Y-15971222D01*
X20718992Y-15971222D02*
X20718992Y-15990269D01*
X20718992Y-15990269D02*
X20623753Y-16009317D01*
X20795182Y-16066460D02*
X20814230Y-16075984D01*
X20814230Y-16075984D02*
X20852325Y-16075984D01*
X20852325Y-16075984D02*
X20871373Y-16066460D01*
X20871373Y-16066460D02*
X20880896Y-16047412D01*
X20880896Y-16047412D02*
X20880896Y-16037888D01*
X20880896Y-16037888D02*
X20871373Y-16018841D01*
X20871373Y-16018841D02*
X20852325Y-16009317D01*
X20852325Y-16009317D02*
X20823753Y-16009317D01*
X20823753Y-16009317D02*
X20804706Y-15999793D01*
X20804706Y-15999793D02*
X20795182Y-15980746D01*
X20795182Y-15980746D02*
X20795182Y-15971222D01*
X20795182Y-15971222D02*
X20804706Y-15952174D01*
X20804706Y-15952174D02*
X20823753Y-15942650D01*
X20823753Y-15942650D02*
X20852325Y-15942650D01*
X20852325Y-15942650D02*
X20871373Y-15952174D01*
X21118992Y-15999793D02*
X21271373Y-15999793D01*
X21195182Y-16075984D02*
X21195182Y-15923603D01*
X21623754Y-16075984D02*
X21509468Y-16075984D01*
X21566611Y-16075984D02*
X21566611Y-15875984D01*
X21566611Y-15875984D02*
X21547563Y-15904555D01*
X21547563Y-15904555D02*
X21528515Y-15923603D01*
X21528515Y-15923603D02*
X21509468Y-15933127D01*
X21738039Y-15961698D02*
X21718992Y-15952174D01*
X21718992Y-15952174D02*
X21709468Y-15942650D01*
X21709468Y-15942650D02*
X21699944Y-15923603D01*
X21699944Y-15923603D02*
X21699944Y-15914079D01*
X21699944Y-15914079D02*
X21709468Y-15895031D01*
X21709468Y-15895031D02*
X21718992Y-15885508D01*
X21718992Y-15885508D02*
X21738039Y-15875984D01*
X21738039Y-15875984D02*
X21776135Y-15875984D01*
X21776135Y-15875984D02*
X21795182Y-15885508D01*
X21795182Y-15885508D02*
X21804706Y-15895031D01*
X21804706Y-15895031D02*
X21814230Y-15914079D01*
X21814230Y-15914079D02*
X21814230Y-15923603D01*
X21814230Y-15923603D02*
X21804706Y-15942650D01*
X21804706Y-15942650D02*
X21795182Y-15952174D01*
X21795182Y-15952174D02*
X21776135Y-15961698D01*
X21776135Y-15961698D02*
X21738039Y-15961698D01*
X21738039Y-15961698D02*
X21718992Y-15971222D01*
X21718992Y-15971222D02*
X21709468Y-15980746D01*
X21709468Y-15980746D02*
X21699944Y-15999793D01*
X21699944Y-15999793D02*
X21699944Y-16037888D01*
X21699944Y-16037888D02*
X21709468Y-16056936D01*
X21709468Y-16056936D02*
X21718992Y-16066460D01*
X21718992Y-16066460D02*
X21738039Y-16075984D01*
X21738039Y-16075984D02*
X21776135Y-16075984D01*
X21776135Y-16075984D02*
X21795182Y-16066460D01*
X21795182Y-16066460D02*
X21804706Y-16056936D01*
X21804706Y-16056936D02*
X21814230Y-16037888D01*
X21814230Y-16037888D02*
X21814230Y-15999793D01*
X21814230Y-15999793D02*
X21804706Y-15980746D01*
X21804706Y-15980746D02*
X21795182Y-15971222D01*
X21795182Y-15971222D02*
X21776135Y-15961698D01*
X22042801Y-16066460D02*
X22061849Y-16075984D01*
X22061849Y-16075984D02*
X22099944Y-16075984D01*
X22099944Y-16075984D02*
X22118992Y-16066460D01*
X22118992Y-16066460D02*
X22128516Y-16047412D01*
X22128516Y-16047412D02*
X22128516Y-16037888D01*
X22128516Y-16037888D02*
X22118992Y-16018841D01*
X22118992Y-16018841D02*
X22099944Y-16009317D01*
X22099944Y-16009317D02*
X22071373Y-16009317D01*
X22071373Y-16009317D02*
X22052325Y-15999793D01*
X22052325Y-15999793D02*
X22042801Y-15980746D01*
X22042801Y-15980746D02*
X22042801Y-15971222D01*
X22042801Y-15971222D02*
X22052325Y-15952174D01*
X22052325Y-15952174D02*
X22071373Y-15942650D01*
X22071373Y-15942650D02*
X22099944Y-15942650D01*
X22099944Y-15942650D02*
X22118992Y-15952174D01*
X22242801Y-16075984D02*
X22223754Y-16066460D01*
X22223754Y-16066460D02*
X22214230Y-16047412D01*
X22214230Y-16047412D02*
X22214230Y-15875984D01*
X22347563Y-16075984D02*
X22328516Y-16066460D01*
X22328516Y-16066460D02*
X22318992Y-16056936D01*
X22318992Y-16056936D02*
X22309468Y-16037888D01*
X22309468Y-16037888D02*
X22309468Y-15980746D01*
X22309468Y-15980746D02*
X22318992Y-15961698D01*
X22318992Y-15961698D02*
X22328516Y-15952174D01*
X22328516Y-15952174D02*
X22347563Y-15942650D01*
X22347563Y-15942650D02*
X22376135Y-15942650D01*
X22376135Y-15942650D02*
X22395182Y-15952174D01*
X22395182Y-15952174D02*
X22404706Y-15961698D01*
X22404706Y-15961698D02*
X22414230Y-15980746D01*
X22414230Y-15980746D02*
X22414230Y-16037888D01*
X22414230Y-16037888D02*
X22404706Y-16056936D01*
X22404706Y-16056936D02*
X22395182Y-16066460D01*
X22395182Y-16066460D02*
X22376135Y-16075984D01*
X22376135Y-16075984D02*
X22347563Y-16075984D01*
X22471373Y-15942650D02*
X22547563Y-15942650D01*
X22499944Y-15875984D02*
X22499944Y-16047412D01*
X22499944Y-16047412D02*
X22509468Y-16066460D01*
X22509468Y-16066460D02*
X22528515Y-16075984D01*
X22528515Y-16075984D02*
X22547563Y-16075984D01*
X22604706Y-16066460D02*
X22623754Y-16075984D01*
X22623754Y-16075984D02*
X22661849Y-16075984D01*
X22661849Y-16075984D02*
X22680896Y-16066460D01*
X22680896Y-16066460D02*
X22690420Y-16047412D01*
X22690420Y-16047412D02*
X22690420Y-16037888D01*
X22690420Y-16037888D02*
X22680896Y-16018841D01*
X22680896Y-16018841D02*
X22661849Y-16009317D01*
X22661849Y-16009317D02*
X22633277Y-16009317D01*
X22633277Y-16009317D02*
X22614230Y-15999793D01*
X22614230Y-15999793D02*
X22604706Y-15980746D01*
X22604706Y-15980746D02*
X22604706Y-15971222D01*
X22604706Y-15971222D02*
X22614230Y-15952174D01*
X22614230Y-15952174D02*
X22633277Y-15942650D01*
X22633277Y-15942650D02*
X22661849Y-15942650D01*
X22661849Y-15942650D02*
X22680896Y-15952174D01*
X22757087Y-16152174D02*
X22766611Y-16142650D01*
X22766611Y-16142650D02*
X22785658Y-16114079D01*
X22785658Y-16114079D02*
X22795182Y-16095031D01*
X22795182Y-16095031D02*
X22804706Y-16066460D01*
X22804706Y-16066460D02*
X22814230Y-16018841D01*
X22814230Y-16018841D02*
X22814230Y-15980746D01*
X22814230Y-15980746D02*
X22804706Y-15933127D01*
X22804706Y-15933127D02*
X22795182Y-15904555D01*
X22795182Y-15904555D02*
X22785658Y-15885508D01*
X22785658Y-15885508D02*
X22766611Y-15856936D01*
X22766611Y-15856936D02*
X22757087Y-15847412D01*
D12*
X16134400Y-16286600D02*
X16172500Y-16248500D01*
X16134400Y-16210400D01*
X16096300Y-16248500D01*
X16134400Y-16286600D01*
D11*
X16471372Y-16139984D02*
X16490420Y-16139984D01*
X16490420Y-16139984D02*
X16509467Y-16149508D01*
X16509467Y-16149508D02*
X16518991Y-16159031D01*
X16518991Y-16159031D02*
X16528515Y-16178079D01*
X16528515Y-16178079D02*
X16538039Y-16216174D01*
X16538039Y-16216174D02*
X16538039Y-16263793D01*
X16538039Y-16263793D02*
X16528515Y-16301888D01*
X16528515Y-16301888D02*
X16518991Y-16320936D01*
X16518991Y-16320936D02*
X16509467Y-16330460D01*
X16509467Y-16330460D02*
X16490420Y-16339984D01*
X16490420Y-16339984D02*
X16471372Y-16339984D01*
X16471372Y-16339984D02*
X16452324Y-16330460D01*
X16452324Y-16330460D02*
X16442801Y-16320936D01*
X16442801Y-16320936D02*
X16433277Y-16301888D01*
X16433277Y-16301888D02*
X16423753Y-16263793D01*
X16423753Y-16263793D02*
X16423753Y-16216174D01*
X16423753Y-16216174D02*
X16433277Y-16178079D01*
X16433277Y-16178079D02*
X16442801Y-16159031D01*
X16442801Y-16159031D02*
X16452324Y-16149508D01*
X16452324Y-16149508D02*
X16471372Y-16139984D01*
X16623753Y-16320936D02*
X16633277Y-16330460D01*
X16633277Y-16330460D02*
X16623753Y-16339984D01*
X16623753Y-16339984D02*
X16614229Y-16330460D01*
X16614229Y-16330460D02*
X16623753Y-16320936D01*
X16623753Y-16320936D02*
X16623753Y-16339984D01*
X16699943Y-16139984D02*
X16833277Y-16139984D01*
X16833277Y-16139984D02*
X16747562Y-16339984D01*
X16995182Y-16139984D02*
X16957086Y-16139984D01*
X16957086Y-16139984D02*
X16938039Y-16149508D01*
X16938039Y-16149508D02*
X16928515Y-16159031D01*
X16928515Y-16159031D02*
X16909467Y-16187603D01*
X16909467Y-16187603D02*
X16899944Y-16225698D01*
X16899944Y-16225698D02*
X16899944Y-16301888D01*
X16899944Y-16301888D02*
X16909467Y-16320936D01*
X16909467Y-16320936D02*
X16918991Y-16330460D01*
X16918991Y-16330460D02*
X16938039Y-16339984D01*
X16938039Y-16339984D02*
X16976134Y-16339984D01*
X16976134Y-16339984D02*
X16995182Y-16330460D01*
X16995182Y-16330460D02*
X17004705Y-16320936D01*
X17004705Y-16320936D02*
X17014229Y-16301888D01*
X17014229Y-16301888D02*
X17014229Y-16254269D01*
X17014229Y-16254269D02*
X17004705Y-16235222D01*
X17004705Y-16235222D02*
X16995182Y-16225698D01*
X16995182Y-16225698D02*
X16976134Y-16216174D01*
X16976134Y-16216174D02*
X16938039Y-16216174D01*
X16938039Y-16216174D02*
X16918991Y-16225698D01*
X16918991Y-16225698D02*
X16909467Y-16235222D01*
X16909467Y-16235222D02*
X16899944Y-16254269D01*
X17090420Y-16159031D02*
X17099944Y-16149508D01*
X17099944Y-16149508D02*
X17118991Y-16139984D01*
X17118991Y-16139984D02*
X17166610Y-16139984D01*
X17166610Y-16139984D02*
X17185658Y-16149508D01*
X17185658Y-16149508D02*
X17195182Y-16159031D01*
X17195182Y-16159031D02*
X17204705Y-16178079D01*
X17204705Y-16178079D02*
X17204705Y-16197127D01*
X17204705Y-16197127D02*
X17195182Y-16225698D01*
X17195182Y-16225698D02*
X17080896Y-16339984D01*
X17080896Y-16339984D02*
X17204705Y-16339984D01*
X17290420Y-16339984D02*
X17290420Y-16206650D01*
X17290420Y-16225698D02*
X17299944Y-16216174D01*
X17299944Y-16216174D02*
X17318991Y-16206650D01*
X17318991Y-16206650D02*
X17347563Y-16206650D01*
X17347563Y-16206650D02*
X17366610Y-16216174D01*
X17366610Y-16216174D02*
X17376134Y-16235222D01*
X17376134Y-16235222D02*
X17376134Y-16339984D01*
X17376134Y-16235222D02*
X17385658Y-16216174D01*
X17385658Y-16216174D02*
X17404705Y-16206650D01*
X17404705Y-16206650D02*
X17433277Y-16206650D01*
X17433277Y-16206650D02*
X17452325Y-16216174D01*
X17452325Y-16216174D02*
X17461848Y-16235222D01*
X17461848Y-16235222D02*
X17461848Y-16339984D01*
X17557086Y-16339984D02*
X17557086Y-16206650D01*
X17557086Y-16225698D02*
X17566610Y-16216174D01*
X17566610Y-16216174D02*
X17585658Y-16206650D01*
X17585658Y-16206650D02*
X17614229Y-16206650D01*
X17614229Y-16206650D02*
X17633277Y-16216174D01*
X17633277Y-16216174D02*
X17642801Y-16235222D01*
X17642801Y-16235222D02*
X17642801Y-16339984D01*
X17642801Y-16235222D02*
X17652325Y-16216174D01*
X17652325Y-16216174D02*
X17671372Y-16206650D01*
X17671372Y-16206650D02*
X17699944Y-16206650D01*
X17699944Y-16206650D02*
X17718991Y-16216174D01*
X17718991Y-16216174D02*
X17728515Y-16235222D01*
X17728515Y-16235222D02*
X17728515Y-16339984D01*
X18118991Y-16130460D02*
X17947563Y-16387603D01*
X18376134Y-16139984D02*
X18395182Y-16139984D01*
X18395182Y-16139984D02*
X18414229Y-16149508D01*
X18414229Y-16149508D02*
X18423753Y-16159031D01*
X18423753Y-16159031D02*
X18433277Y-16178079D01*
X18433277Y-16178079D02*
X18442801Y-16216174D01*
X18442801Y-16216174D02*
X18442801Y-16263793D01*
X18442801Y-16263793D02*
X18433277Y-16301888D01*
X18433277Y-16301888D02*
X18423753Y-16320936D01*
X18423753Y-16320936D02*
X18414229Y-16330460D01*
X18414229Y-16330460D02*
X18395182Y-16339984D01*
X18395182Y-16339984D02*
X18376134Y-16339984D01*
X18376134Y-16339984D02*
X18357087Y-16330460D01*
X18357087Y-16330460D02*
X18347563Y-16320936D01*
X18347563Y-16320936D02*
X18338039Y-16301888D01*
X18338039Y-16301888D02*
X18328515Y-16263793D01*
X18328515Y-16263793D02*
X18328515Y-16216174D01*
X18328515Y-16216174D02*
X18338039Y-16178079D01*
X18338039Y-16178079D02*
X18347563Y-16159031D01*
X18347563Y-16159031D02*
X18357087Y-16149508D01*
X18357087Y-16149508D02*
X18376134Y-16139984D01*
X18528515Y-16320936D02*
X18538039Y-16330460D01*
X18538039Y-16330460D02*
X18528515Y-16339984D01*
X18528515Y-16339984D02*
X18518991Y-16330460D01*
X18518991Y-16330460D02*
X18528515Y-16320936D01*
X18528515Y-16320936D02*
X18528515Y-16339984D01*
X18661848Y-16139984D02*
X18680896Y-16139984D01*
X18680896Y-16139984D02*
X18699944Y-16149508D01*
X18699944Y-16149508D02*
X18709468Y-16159031D01*
X18709468Y-16159031D02*
X18718991Y-16178079D01*
X18718991Y-16178079D02*
X18728515Y-16216174D01*
X18728515Y-16216174D02*
X18728515Y-16263793D01*
X18728515Y-16263793D02*
X18718991Y-16301888D01*
X18718991Y-16301888D02*
X18709468Y-16320936D01*
X18709468Y-16320936D02*
X18699944Y-16330460D01*
X18699944Y-16330460D02*
X18680896Y-16339984D01*
X18680896Y-16339984D02*
X18661848Y-16339984D01*
X18661848Y-16339984D02*
X18642801Y-16330460D01*
X18642801Y-16330460D02*
X18633277Y-16320936D01*
X18633277Y-16320936D02*
X18623753Y-16301888D01*
X18623753Y-16301888D02*
X18614229Y-16263793D01*
X18614229Y-16263793D02*
X18614229Y-16216174D01*
X18614229Y-16216174D02*
X18623753Y-16178079D01*
X18623753Y-16178079D02*
X18633277Y-16159031D01*
X18633277Y-16159031D02*
X18642801Y-16149508D01*
X18642801Y-16149508D02*
X18661848Y-16139984D01*
X18795182Y-16139984D02*
X18918991Y-16139984D01*
X18918991Y-16139984D02*
X18852325Y-16216174D01*
X18852325Y-16216174D02*
X18880896Y-16216174D01*
X18880896Y-16216174D02*
X18899944Y-16225698D01*
X18899944Y-16225698D02*
X18909468Y-16235222D01*
X18909468Y-16235222D02*
X18918991Y-16254269D01*
X18918991Y-16254269D02*
X18918991Y-16301888D01*
X18918991Y-16301888D02*
X18909468Y-16320936D01*
X18909468Y-16320936D02*
X18899944Y-16330460D01*
X18899944Y-16330460D02*
X18880896Y-16339984D01*
X18880896Y-16339984D02*
X18823753Y-16339984D01*
X18823753Y-16339984D02*
X18804706Y-16330460D01*
X18804706Y-16330460D02*
X18795182Y-16320936D01*
X19042801Y-16139984D02*
X19061849Y-16139984D01*
X19061849Y-16139984D02*
X19080896Y-16149508D01*
X19080896Y-16149508D02*
X19090420Y-16159031D01*
X19090420Y-16159031D02*
X19099944Y-16178079D01*
X19099944Y-16178079D02*
X19109468Y-16216174D01*
X19109468Y-16216174D02*
X19109468Y-16263793D01*
X19109468Y-16263793D02*
X19099944Y-16301888D01*
X19099944Y-16301888D02*
X19090420Y-16320936D01*
X19090420Y-16320936D02*
X19080896Y-16330460D01*
X19080896Y-16330460D02*
X19061849Y-16339984D01*
X19061849Y-16339984D02*
X19042801Y-16339984D01*
X19042801Y-16339984D02*
X19023753Y-16330460D01*
X19023753Y-16330460D02*
X19014229Y-16320936D01*
X19014229Y-16320936D02*
X19004706Y-16301888D01*
X19004706Y-16301888D02*
X18995182Y-16263793D01*
X18995182Y-16263793D02*
X18995182Y-16216174D01*
X18995182Y-16216174D02*
X19004706Y-16178079D01*
X19004706Y-16178079D02*
X19014229Y-16159031D01*
X19014229Y-16159031D02*
X19023753Y-16149508D01*
X19023753Y-16149508D02*
X19042801Y-16139984D01*
X19233277Y-16139984D02*
X19252325Y-16139984D01*
X19252325Y-16139984D02*
X19271372Y-16149508D01*
X19271372Y-16149508D02*
X19280896Y-16159031D01*
X19280896Y-16159031D02*
X19290420Y-16178079D01*
X19290420Y-16178079D02*
X19299944Y-16216174D01*
X19299944Y-16216174D02*
X19299944Y-16263793D01*
X19299944Y-16263793D02*
X19290420Y-16301888D01*
X19290420Y-16301888D02*
X19280896Y-16320936D01*
X19280896Y-16320936D02*
X19271372Y-16330460D01*
X19271372Y-16330460D02*
X19252325Y-16339984D01*
X19252325Y-16339984D02*
X19233277Y-16339984D01*
X19233277Y-16339984D02*
X19214229Y-16330460D01*
X19214229Y-16330460D02*
X19204706Y-16320936D01*
X19204706Y-16320936D02*
X19195182Y-16301888D01*
X19195182Y-16301888D02*
X19185658Y-16263793D01*
X19185658Y-16263793D02*
X19185658Y-16216174D01*
X19185658Y-16216174D02*
X19195182Y-16178079D01*
X19195182Y-16178079D02*
X19204706Y-16159031D01*
X19204706Y-16159031D02*
X19214229Y-16149508D01*
X19214229Y-16149508D02*
X19233277Y-16139984D01*
X19376134Y-16139984D02*
X19376134Y-16178079D01*
X19452325Y-16139984D02*
X19452325Y-16178079D01*
X19747563Y-16416174D02*
X19738039Y-16406650D01*
X19738039Y-16406650D02*
X19718991Y-16378079D01*
X19718991Y-16378079D02*
X19709468Y-16359031D01*
X19709468Y-16359031D02*
X19699944Y-16330460D01*
X19699944Y-16330460D02*
X19690420Y-16282841D01*
X19690420Y-16282841D02*
X19690420Y-16244746D01*
X19690420Y-16244746D02*
X19699944Y-16197127D01*
X19699944Y-16197127D02*
X19709468Y-16168555D01*
X19709468Y-16168555D02*
X19718991Y-16149508D01*
X19718991Y-16149508D02*
X19738039Y-16120936D01*
X19738039Y-16120936D02*
X19747563Y-16111412D01*
X19814230Y-16159031D02*
X19823753Y-16149508D01*
X19823753Y-16149508D02*
X19842801Y-16139984D01*
X19842801Y-16139984D02*
X19890420Y-16139984D01*
X19890420Y-16139984D02*
X19909468Y-16149508D01*
X19909468Y-16149508D02*
X19918991Y-16159031D01*
X19918991Y-16159031D02*
X19928515Y-16178079D01*
X19928515Y-16178079D02*
X19928515Y-16197127D01*
X19928515Y-16197127D02*
X19918991Y-16225698D01*
X19918991Y-16225698D02*
X19804706Y-16339984D01*
X19804706Y-16339984D02*
X19928515Y-16339984D01*
X20099944Y-16206650D02*
X20099944Y-16339984D01*
X20052325Y-16130460D02*
X20004706Y-16273317D01*
X20004706Y-16273317D02*
X20128515Y-16273317D01*
X20357087Y-16339984D02*
X20357087Y-16139984D01*
X20442801Y-16339984D02*
X20442801Y-16235222D01*
X20442801Y-16235222D02*
X20433277Y-16216174D01*
X20433277Y-16216174D02*
X20414230Y-16206650D01*
X20414230Y-16206650D02*
X20385658Y-16206650D01*
X20385658Y-16206650D02*
X20366611Y-16216174D01*
X20366611Y-16216174D02*
X20357087Y-16225698D01*
X20566611Y-16339984D02*
X20547563Y-16330460D01*
X20547563Y-16330460D02*
X20538039Y-16320936D01*
X20538039Y-16320936D02*
X20528515Y-16301888D01*
X20528515Y-16301888D02*
X20528515Y-16244746D01*
X20528515Y-16244746D02*
X20538039Y-16225698D01*
X20538039Y-16225698D02*
X20547563Y-16216174D01*
X20547563Y-16216174D02*
X20566611Y-16206650D01*
X20566611Y-16206650D02*
X20595182Y-16206650D01*
X20595182Y-16206650D02*
X20614230Y-16216174D01*
X20614230Y-16216174D02*
X20623753Y-16225698D01*
X20623753Y-16225698D02*
X20633277Y-16244746D01*
X20633277Y-16244746D02*
X20633277Y-16301888D01*
X20633277Y-16301888D02*
X20623753Y-16320936D01*
X20623753Y-16320936D02*
X20614230Y-16330460D01*
X20614230Y-16330460D02*
X20595182Y-16339984D01*
X20595182Y-16339984D02*
X20566611Y-16339984D01*
X20747563Y-16339984D02*
X20728515Y-16330460D01*
X20728515Y-16330460D02*
X20718992Y-16311412D01*
X20718992Y-16311412D02*
X20718992Y-16139984D01*
X20899944Y-16330460D02*
X20880896Y-16339984D01*
X20880896Y-16339984D02*
X20842801Y-16339984D01*
X20842801Y-16339984D02*
X20823753Y-16330460D01*
X20823753Y-16330460D02*
X20814230Y-16311412D01*
X20814230Y-16311412D02*
X20814230Y-16235222D01*
X20814230Y-16235222D02*
X20823753Y-16216174D01*
X20823753Y-16216174D02*
X20842801Y-16206650D01*
X20842801Y-16206650D02*
X20880896Y-16206650D01*
X20880896Y-16206650D02*
X20899944Y-16216174D01*
X20899944Y-16216174D02*
X20909468Y-16235222D01*
X20909468Y-16235222D02*
X20909468Y-16254269D01*
X20909468Y-16254269D02*
X20814230Y-16273317D01*
X20985658Y-16330460D02*
X21004706Y-16339984D01*
X21004706Y-16339984D02*
X21042801Y-16339984D01*
X21042801Y-16339984D02*
X21061849Y-16330460D01*
X21061849Y-16330460D02*
X21071373Y-16311412D01*
X21071373Y-16311412D02*
X21071373Y-16301888D01*
X21071373Y-16301888D02*
X21061849Y-16282841D01*
X21061849Y-16282841D02*
X21042801Y-16273317D01*
X21042801Y-16273317D02*
X21014230Y-16273317D01*
X21014230Y-16273317D02*
X20995182Y-16263793D01*
X20995182Y-16263793D02*
X20985658Y-16244746D01*
X20985658Y-16244746D02*
X20985658Y-16235222D01*
X20985658Y-16235222D02*
X20995182Y-16216174D01*
X20995182Y-16216174D02*
X21014230Y-16206650D01*
X21014230Y-16206650D02*
X21042801Y-16206650D01*
X21042801Y-16206650D02*
X21061849Y-16216174D01*
X21138039Y-16416174D02*
X21147563Y-16406650D01*
X21147563Y-16406650D02*
X21166611Y-16378079D01*
X21166611Y-16378079D02*
X21176134Y-16359031D01*
X21176134Y-16359031D02*
X21185658Y-16330460D01*
X21185658Y-16330460D02*
X21195182Y-16282841D01*
X21195182Y-16282841D02*
X21195182Y-16244746D01*
X21195182Y-16244746D02*
X21185658Y-16197127D01*
X21185658Y-16197127D02*
X21176134Y-16168555D01*
X21176134Y-16168555D02*
X21166611Y-16149508D01*
X21166611Y-16149508D02*
X21147563Y-16120936D01*
X21147563Y-16120936D02*
X21138039Y-16111412D01*
D12*
X16072500Y-16462500D02*
X16172500Y-16562500D01*
X16172500Y-16462500D02*
X16072500Y-16562500D01*
X16172500Y-16512500D02*
G75*
G02*
X16072500Y-16512500I-50000J0D01*
G01*
X16072500Y-16512500D02*
G75*
G02*
X16172500Y-16512500I50000J0D01*
G01*
D11*
X16538039Y-16603984D02*
X16423753Y-16603984D01*
X16480896Y-16603984D02*
X16480896Y-16403984D01*
X16480896Y-16403984D02*
X16461848Y-16432555D01*
X16461848Y-16432555D02*
X16442801Y-16451603D01*
X16442801Y-16451603D02*
X16423753Y-16461127D01*
X16623753Y-16584936D02*
X16633277Y-16594460D01*
X16633277Y-16594460D02*
X16623753Y-16603984D01*
X16623753Y-16603984D02*
X16614229Y-16594460D01*
X16614229Y-16594460D02*
X16623753Y-16584936D01*
X16623753Y-16584936D02*
X16623753Y-16603984D01*
X16757086Y-16403984D02*
X16776134Y-16403984D01*
X16776134Y-16403984D02*
X16795182Y-16413508D01*
X16795182Y-16413508D02*
X16804705Y-16423031D01*
X16804705Y-16423031D02*
X16814229Y-16442079D01*
X16814229Y-16442079D02*
X16823753Y-16480174D01*
X16823753Y-16480174D02*
X16823753Y-16527793D01*
X16823753Y-16527793D02*
X16814229Y-16565888D01*
X16814229Y-16565888D02*
X16804705Y-16584936D01*
X16804705Y-16584936D02*
X16795182Y-16594460D01*
X16795182Y-16594460D02*
X16776134Y-16603984D01*
X16776134Y-16603984D02*
X16757086Y-16603984D01*
X16757086Y-16603984D02*
X16738039Y-16594460D01*
X16738039Y-16594460D02*
X16728515Y-16584936D01*
X16728515Y-16584936D02*
X16718991Y-16565888D01*
X16718991Y-16565888D02*
X16709467Y-16527793D01*
X16709467Y-16527793D02*
X16709467Y-16480174D01*
X16709467Y-16480174D02*
X16718991Y-16442079D01*
X16718991Y-16442079D02*
X16728515Y-16423031D01*
X16728515Y-16423031D02*
X16738039Y-16413508D01*
X16738039Y-16413508D02*
X16757086Y-16403984D01*
X16947563Y-16403984D02*
X16966610Y-16403984D01*
X16966610Y-16403984D02*
X16985658Y-16413508D01*
X16985658Y-16413508D02*
X16995182Y-16423031D01*
X16995182Y-16423031D02*
X17004705Y-16442079D01*
X17004705Y-16442079D02*
X17014229Y-16480174D01*
X17014229Y-16480174D02*
X17014229Y-16527793D01*
X17014229Y-16527793D02*
X17004705Y-16565888D01*
X17004705Y-16565888D02*
X16995182Y-16584936D01*
X16995182Y-16584936D02*
X16985658Y-16594460D01*
X16985658Y-16594460D02*
X16966610Y-16603984D01*
X16966610Y-16603984D02*
X16947563Y-16603984D01*
X16947563Y-16603984D02*
X16928515Y-16594460D01*
X16928515Y-16594460D02*
X16918991Y-16584936D01*
X16918991Y-16584936D02*
X16909467Y-16565888D01*
X16909467Y-16565888D02*
X16899944Y-16527793D01*
X16899944Y-16527793D02*
X16899944Y-16480174D01*
X16899944Y-16480174D02*
X16909467Y-16442079D01*
X16909467Y-16442079D02*
X16918991Y-16423031D01*
X16918991Y-16423031D02*
X16928515Y-16413508D01*
X16928515Y-16413508D02*
X16947563Y-16403984D01*
X17138039Y-16403984D02*
X17157086Y-16403984D01*
X17157086Y-16403984D02*
X17176134Y-16413508D01*
X17176134Y-16413508D02*
X17185658Y-16423031D01*
X17185658Y-16423031D02*
X17195182Y-16442079D01*
X17195182Y-16442079D02*
X17204705Y-16480174D01*
X17204705Y-16480174D02*
X17204705Y-16527793D01*
X17204705Y-16527793D02*
X17195182Y-16565888D01*
X17195182Y-16565888D02*
X17185658Y-16584936D01*
X17185658Y-16584936D02*
X17176134Y-16594460D01*
X17176134Y-16594460D02*
X17157086Y-16603984D01*
X17157086Y-16603984D02*
X17138039Y-16603984D01*
X17138039Y-16603984D02*
X17118991Y-16594460D01*
X17118991Y-16594460D02*
X17109467Y-16584936D01*
X17109467Y-16584936D02*
X17099944Y-16565888D01*
X17099944Y-16565888D02*
X17090420Y-16527793D01*
X17090420Y-16527793D02*
X17090420Y-16480174D01*
X17090420Y-16480174D02*
X17099944Y-16442079D01*
X17099944Y-16442079D02*
X17109467Y-16423031D01*
X17109467Y-16423031D02*
X17118991Y-16413508D01*
X17118991Y-16413508D02*
X17138039Y-16403984D01*
X17290420Y-16603984D02*
X17290420Y-16470650D01*
X17290420Y-16489698D02*
X17299944Y-16480174D01*
X17299944Y-16480174D02*
X17318991Y-16470650D01*
X17318991Y-16470650D02*
X17347563Y-16470650D01*
X17347563Y-16470650D02*
X17366610Y-16480174D01*
X17366610Y-16480174D02*
X17376134Y-16499222D01*
X17376134Y-16499222D02*
X17376134Y-16603984D01*
X17376134Y-16499222D02*
X17385658Y-16480174D01*
X17385658Y-16480174D02*
X17404705Y-16470650D01*
X17404705Y-16470650D02*
X17433277Y-16470650D01*
X17433277Y-16470650D02*
X17452325Y-16480174D01*
X17452325Y-16480174D02*
X17461848Y-16499222D01*
X17461848Y-16499222D02*
X17461848Y-16603984D01*
X17557086Y-16603984D02*
X17557086Y-16470650D01*
X17557086Y-16489698D02*
X17566610Y-16480174D01*
X17566610Y-16480174D02*
X17585658Y-16470650D01*
X17585658Y-16470650D02*
X17614229Y-16470650D01*
X17614229Y-16470650D02*
X17633277Y-16480174D01*
X17633277Y-16480174D02*
X17642801Y-16499222D01*
X17642801Y-16499222D02*
X17642801Y-16603984D01*
X17642801Y-16499222D02*
X17652325Y-16480174D01*
X17652325Y-16480174D02*
X17671372Y-16470650D01*
X17671372Y-16470650D02*
X17699944Y-16470650D01*
X17699944Y-16470650D02*
X17718991Y-16480174D01*
X17718991Y-16480174D02*
X17728515Y-16499222D01*
X17728515Y-16499222D02*
X17728515Y-16603984D01*
X18118991Y-16394460D02*
X17947563Y-16651603D01*
X18376134Y-16403984D02*
X18395182Y-16403984D01*
X18395182Y-16403984D02*
X18414229Y-16413508D01*
X18414229Y-16413508D02*
X18423753Y-16423031D01*
X18423753Y-16423031D02*
X18433277Y-16442079D01*
X18433277Y-16442079D02*
X18442801Y-16480174D01*
X18442801Y-16480174D02*
X18442801Y-16527793D01*
X18442801Y-16527793D02*
X18433277Y-16565888D01*
X18433277Y-16565888D02*
X18423753Y-16584936D01*
X18423753Y-16584936D02*
X18414229Y-16594460D01*
X18414229Y-16594460D02*
X18395182Y-16603984D01*
X18395182Y-16603984D02*
X18376134Y-16603984D01*
X18376134Y-16603984D02*
X18357087Y-16594460D01*
X18357087Y-16594460D02*
X18347563Y-16584936D01*
X18347563Y-16584936D02*
X18338039Y-16565888D01*
X18338039Y-16565888D02*
X18328515Y-16527793D01*
X18328515Y-16527793D02*
X18328515Y-16480174D01*
X18328515Y-16480174D02*
X18338039Y-16442079D01*
X18338039Y-16442079D02*
X18347563Y-16423031D01*
X18347563Y-16423031D02*
X18357087Y-16413508D01*
X18357087Y-16413508D02*
X18376134Y-16403984D01*
X18528515Y-16584936D02*
X18538039Y-16594460D01*
X18538039Y-16594460D02*
X18528515Y-16603984D01*
X18528515Y-16603984D02*
X18518991Y-16594460D01*
X18518991Y-16594460D02*
X18528515Y-16584936D01*
X18528515Y-16584936D02*
X18528515Y-16603984D01*
X18661848Y-16403984D02*
X18680896Y-16403984D01*
X18680896Y-16403984D02*
X18699944Y-16413508D01*
X18699944Y-16413508D02*
X18709468Y-16423031D01*
X18709468Y-16423031D02*
X18718991Y-16442079D01*
X18718991Y-16442079D02*
X18728515Y-16480174D01*
X18728515Y-16480174D02*
X18728515Y-16527793D01*
X18728515Y-16527793D02*
X18718991Y-16565888D01*
X18718991Y-16565888D02*
X18709468Y-16584936D01*
X18709468Y-16584936D02*
X18699944Y-16594460D01*
X18699944Y-16594460D02*
X18680896Y-16603984D01*
X18680896Y-16603984D02*
X18661848Y-16603984D01*
X18661848Y-16603984D02*
X18642801Y-16594460D01*
X18642801Y-16594460D02*
X18633277Y-16584936D01*
X18633277Y-16584936D02*
X18623753Y-16565888D01*
X18623753Y-16565888D02*
X18614229Y-16527793D01*
X18614229Y-16527793D02*
X18614229Y-16480174D01*
X18614229Y-16480174D02*
X18623753Y-16442079D01*
X18623753Y-16442079D02*
X18633277Y-16423031D01*
X18633277Y-16423031D02*
X18642801Y-16413508D01*
X18642801Y-16413508D02*
X18661848Y-16403984D01*
X18795182Y-16403984D02*
X18918991Y-16403984D01*
X18918991Y-16403984D02*
X18852325Y-16480174D01*
X18852325Y-16480174D02*
X18880896Y-16480174D01*
X18880896Y-16480174D02*
X18899944Y-16489698D01*
X18899944Y-16489698D02*
X18909468Y-16499222D01*
X18909468Y-16499222D02*
X18918991Y-16518269D01*
X18918991Y-16518269D02*
X18918991Y-16565888D01*
X18918991Y-16565888D02*
X18909468Y-16584936D01*
X18909468Y-16584936D02*
X18899944Y-16594460D01*
X18899944Y-16594460D02*
X18880896Y-16603984D01*
X18880896Y-16603984D02*
X18823753Y-16603984D01*
X18823753Y-16603984D02*
X18804706Y-16594460D01*
X18804706Y-16594460D02*
X18795182Y-16584936D01*
X19014229Y-16603984D02*
X19052325Y-16603984D01*
X19052325Y-16603984D02*
X19071372Y-16594460D01*
X19071372Y-16594460D02*
X19080896Y-16584936D01*
X19080896Y-16584936D02*
X19099944Y-16556365D01*
X19099944Y-16556365D02*
X19109468Y-16518269D01*
X19109468Y-16518269D02*
X19109468Y-16442079D01*
X19109468Y-16442079D02*
X19099944Y-16423031D01*
X19099944Y-16423031D02*
X19090420Y-16413508D01*
X19090420Y-16413508D02*
X19071372Y-16403984D01*
X19071372Y-16403984D02*
X19033277Y-16403984D01*
X19033277Y-16403984D02*
X19014229Y-16413508D01*
X19014229Y-16413508D02*
X19004706Y-16423031D01*
X19004706Y-16423031D02*
X18995182Y-16442079D01*
X18995182Y-16442079D02*
X18995182Y-16489698D01*
X18995182Y-16489698D02*
X19004706Y-16508746D01*
X19004706Y-16508746D02*
X19014229Y-16518269D01*
X19014229Y-16518269D02*
X19033277Y-16527793D01*
X19033277Y-16527793D02*
X19071372Y-16527793D01*
X19071372Y-16527793D02*
X19090420Y-16518269D01*
X19090420Y-16518269D02*
X19099944Y-16508746D01*
X19099944Y-16508746D02*
X19109468Y-16489698D01*
X19280896Y-16470650D02*
X19280896Y-16603984D01*
X19233277Y-16394460D02*
X19185658Y-16537317D01*
X19185658Y-16537317D02*
X19309468Y-16537317D01*
X19376134Y-16403984D02*
X19376134Y-16442079D01*
X19452325Y-16403984D02*
X19452325Y-16442079D01*
X19747563Y-16680174D02*
X19738039Y-16670650D01*
X19738039Y-16670650D02*
X19718991Y-16642079D01*
X19718991Y-16642079D02*
X19709468Y-16623031D01*
X19709468Y-16623031D02*
X19699944Y-16594460D01*
X19699944Y-16594460D02*
X19690420Y-16546841D01*
X19690420Y-16546841D02*
X19690420Y-16508746D01*
X19690420Y-16508746D02*
X19699944Y-16461127D01*
X19699944Y-16461127D02*
X19709468Y-16432555D01*
X19709468Y-16432555D02*
X19718991Y-16413508D01*
X19718991Y-16413508D02*
X19738039Y-16384936D01*
X19738039Y-16384936D02*
X19747563Y-16375412D01*
X19928515Y-16603984D02*
X19814230Y-16603984D01*
X19871372Y-16603984D02*
X19871372Y-16403984D01*
X19871372Y-16403984D02*
X19852325Y-16432555D01*
X19852325Y-16432555D02*
X19833277Y-16451603D01*
X19833277Y-16451603D02*
X19814230Y-16461127D01*
X20023753Y-16603984D02*
X20061849Y-16603984D01*
X20061849Y-16603984D02*
X20080896Y-16594460D01*
X20080896Y-16594460D02*
X20090420Y-16584936D01*
X20090420Y-16584936D02*
X20109468Y-16556365D01*
X20109468Y-16556365D02*
X20118991Y-16518269D01*
X20118991Y-16518269D02*
X20118991Y-16442079D01*
X20118991Y-16442079D02*
X20109468Y-16423031D01*
X20109468Y-16423031D02*
X20099944Y-16413508D01*
X20099944Y-16413508D02*
X20080896Y-16403984D01*
X20080896Y-16403984D02*
X20042801Y-16403984D01*
X20042801Y-16403984D02*
X20023753Y-16413508D01*
X20023753Y-16413508D02*
X20014230Y-16423031D01*
X20014230Y-16423031D02*
X20004706Y-16442079D01*
X20004706Y-16442079D02*
X20004706Y-16489698D01*
X20004706Y-16489698D02*
X20014230Y-16508746D01*
X20014230Y-16508746D02*
X20023753Y-16518269D01*
X20023753Y-16518269D02*
X20042801Y-16527793D01*
X20042801Y-16527793D02*
X20080896Y-16527793D01*
X20080896Y-16527793D02*
X20099944Y-16518269D01*
X20099944Y-16518269D02*
X20109468Y-16508746D01*
X20109468Y-16508746D02*
X20118991Y-16489698D01*
X20357087Y-16603984D02*
X20357087Y-16403984D01*
X20442801Y-16603984D02*
X20442801Y-16499222D01*
X20442801Y-16499222D02*
X20433277Y-16480174D01*
X20433277Y-16480174D02*
X20414230Y-16470650D01*
X20414230Y-16470650D02*
X20385658Y-16470650D01*
X20385658Y-16470650D02*
X20366611Y-16480174D01*
X20366611Y-16480174D02*
X20357087Y-16489698D01*
X20566611Y-16603984D02*
X20547563Y-16594460D01*
X20547563Y-16594460D02*
X20538039Y-16584936D01*
X20538039Y-16584936D02*
X20528515Y-16565888D01*
X20528515Y-16565888D02*
X20528515Y-16508746D01*
X20528515Y-16508746D02*
X20538039Y-16489698D01*
X20538039Y-16489698D02*
X20547563Y-16480174D01*
X20547563Y-16480174D02*
X20566611Y-16470650D01*
X20566611Y-16470650D02*
X20595182Y-16470650D01*
X20595182Y-16470650D02*
X20614230Y-16480174D01*
X20614230Y-16480174D02*
X20623753Y-16489698D01*
X20623753Y-16489698D02*
X20633277Y-16508746D01*
X20633277Y-16508746D02*
X20633277Y-16565888D01*
X20633277Y-16565888D02*
X20623753Y-16584936D01*
X20623753Y-16584936D02*
X20614230Y-16594460D01*
X20614230Y-16594460D02*
X20595182Y-16603984D01*
X20595182Y-16603984D02*
X20566611Y-16603984D01*
X20747563Y-16603984D02*
X20728515Y-16594460D01*
X20728515Y-16594460D02*
X20718992Y-16575412D01*
X20718992Y-16575412D02*
X20718992Y-16403984D01*
X20899944Y-16594460D02*
X20880896Y-16603984D01*
X20880896Y-16603984D02*
X20842801Y-16603984D01*
X20842801Y-16603984D02*
X20823753Y-16594460D01*
X20823753Y-16594460D02*
X20814230Y-16575412D01*
X20814230Y-16575412D02*
X20814230Y-16499222D01*
X20814230Y-16499222D02*
X20823753Y-16480174D01*
X20823753Y-16480174D02*
X20842801Y-16470650D01*
X20842801Y-16470650D02*
X20880896Y-16470650D01*
X20880896Y-16470650D02*
X20899944Y-16480174D01*
X20899944Y-16480174D02*
X20909468Y-16499222D01*
X20909468Y-16499222D02*
X20909468Y-16518269D01*
X20909468Y-16518269D02*
X20814230Y-16537317D01*
X20985658Y-16594460D02*
X21004706Y-16603984D01*
X21004706Y-16603984D02*
X21042801Y-16603984D01*
X21042801Y-16603984D02*
X21061849Y-16594460D01*
X21061849Y-16594460D02*
X21071373Y-16575412D01*
X21071373Y-16575412D02*
X21071373Y-16565888D01*
X21071373Y-16565888D02*
X21061849Y-16546841D01*
X21061849Y-16546841D02*
X21042801Y-16537317D01*
X21042801Y-16537317D02*
X21014230Y-16537317D01*
X21014230Y-16537317D02*
X20995182Y-16527793D01*
X20995182Y-16527793D02*
X20985658Y-16508746D01*
X20985658Y-16508746D02*
X20985658Y-16499222D01*
X20985658Y-16499222D02*
X20995182Y-16480174D01*
X20995182Y-16480174D02*
X21014230Y-16470650D01*
X21014230Y-16470650D02*
X21042801Y-16470650D01*
X21042801Y-16470650D02*
X21061849Y-16480174D01*
X21138039Y-16680174D02*
X21147563Y-16670650D01*
X21147563Y-16670650D02*
X21166611Y-16642079D01*
X21166611Y-16642079D02*
X21176134Y-16623031D01*
X21176134Y-16623031D02*
X21185658Y-16594460D01*
X21185658Y-16594460D02*
X21195182Y-16546841D01*
X21195182Y-16546841D02*
X21195182Y-16508746D01*
X21195182Y-16508746D02*
X21185658Y-16461127D01*
X21185658Y-16461127D02*
X21176134Y-16432555D01*
X21176134Y-16432555D02*
X21166611Y-16413508D01*
X21166611Y-16413508D02*
X21147563Y-16384936D01*
X21147563Y-16384936D02*
X21138039Y-16375412D01*
D13*
X16062500Y-16721500D02*
X16172500Y-16831500D01*
X16172500Y-16721500D02*
X16062500Y-16831500D01*
X16117500Y-16721500D02*
X16117500Y-16831500D01*
X16062500Y-16776500D02*
X16172500Y-16776500D01*
D11*
X16538039Y-16867984D02*
X16423753Y-16867984D01*
X16480896Y-16867984D02*
X16480896Y-16667984D01*
X16480896Y-16667984D02*
X16461848Y-16696555D01*
X16461848Y-16696555D02*
X16442801Y-16715603D01*
X16442801Y-16715603D02*
X16423753Y-16725127D01*
X16623753Y-16848936D02*
X16633277Y-16858460D01*
X16633277Y-16858460D02*
X16623753Y-16867984D01*
X16623753Y-16867984D02*
X16614229Y-16858460D01*
X16614229Y-16858460D02*
X16623753Y-16848936D01*
X16623753Y-16848936D02*
X16623753Y-16867984D01*
X16823753Y-16867984D02*
X16709467Y-16867984D01*
X16766610Y-16867984D02*
X16766610Y-16667984D01*
X16766610Y-16667984D02*
X16747562Y-16696555D01*
X16747562Y-16696555D02*
X16728515Y-16715603D01*
X16728515Y-16715603D02*
X16709467Y-16725127D01*
X16947563Y-16667984D02*
X16966610Y-16667984D01*
X16966610Y-16667984D02*
X16985658Y-16677508D01*
X16985658Y-16677508D02*
X16995182Y-16687031D01*
X16995182Y-16687031D02*
X17004705Y-16706079D01*
X17004705Y-16706079D02*
X17014229Y-16744174D01*
X17014229Y-16744174D02*
X17014229Y-16791793D01*
X17014229Y-16791793D02*
X17004705Y-16829889D01*
X17004705Y-16829889D02*
X16995182Y-16848936D01*
X16995182Y-16848936D02*
X16985658Y-16858460D01*
X16985658Y-16858460D02*
X16966610Y-16867984D01*
X16966610Y-16867984D02*
X16947563Y-16867984D01*
X16947563Y-16867984D02*
X16928515Y-16858460D01*
X16928515Y-16858460D02*
X16918991Y-16848936D01*
X16918991Y-16848936D02*
X16909467Y-16829889D01*
X16909467Y-16829889D02*
X16899944Y-16791793D01*
X16899944Y-16791793D02*
X16899944Y-16744174D01*
X16899944Y-16744174D02*
X16909467Y-16706079D01*
X16909467Y-16706079D02*
X16918991Y-16687031D01*
X16918991Y-16687031D02*
X16928515Y-16677508D01*
X16928515Y-16677508D02*
X16947563Y-16667984D01*
X17138039Y-16667984D02*
X17157086Y-16667984D01*
X17157086Y-16667984D02*
X17176134Y-16677508D01*
X17176134Y-16677508D02*
X17185658Y-16687031D01*
X17185658Y-16687031D02*
X17195182Y-16706079D01*
X17195182Y-16706079D02*
X17204705Y-16744174D01*
X17204705Y-16744174D02*
X17204705Y-16791793D01*
X17204705Y-16791793D02*
X17195182Y-16829889D01*
X17195182Y-16829889D02*
X17185658Y-16848936D01*
X17185658Y-16848936D02*
X17176134Y-16858460D01*
X17176134Y-16858460D02*
X17157086Y-16867984D01*
X17157086Y-16867984D02*
X17138039Y-16867984D01*
X17138039Y-16867984D02*
X17118991Y-16858460D01*
X17118991Y-16858460D02*
X17109467Y-16848936D01*
X17109467Y-16848936D02*
X17099944Y-16829889D01*
X17099944Y-16829889D02*
X17090420Y-16791793D01*
X17090420Y-16791793D02*
X17090420Y-16744174D01*
X17090420Y-16744174D02*
X17099944Y-16706079D01*
X17099944Y-16706079D02*
X17109467Y-16687031D01*
X17109467Y-16687031D02*
X17118991Y-16677508D01*
X17118991Y-16677508D02*
X17138039Y-16667984D01*
X17290420Y-16867984D02*
X17290420Y-16734650D01*
X17290420Y-16753698D02*
X17299944Y-16744174D01*
X17299944Y-16744174D02*
X17318991Y-16734650D01*
X17318991Y-16734650D02*
X17347563Y-16734650D01*
X17347563Y-16734650D02*
X17366610Y-16744174D01*
X17366610Y-16744174D02*
X17376134Y-16763222D01*
X17376134Y-16763222D02*
X17376134Y-16867984D01*
X17376134Y-16763222D02*
X17385658Y-16744174D01*
X17385658Y-16744174D02*
X17404705Y-16734650D01*
X17404705Y-16734650D02*
X17433277Y-16734650D01*
X17433277Y-16734650D02*
X17452325Y-16744174D01*
X17452325Y-16744174D02*
X17461848Y-16763222D01*
X17461848Y-16763222D02*
X17461848Y-16867984D01*
X17557086Y-16867984D02*
X17557086Y-16734650D01*
X17557086Y-16753698D02*
X17566610Y-16744174D01*
X17566610Y-16744174D02*
X17585658Y-16734650D01*
X17585658Y-16734650D02*
X17614229Y-16734650D01*
X17614229Y-16734650D02*
X17633277Y-16744174D01*
X17633277Y-16744174D02*
X17642801Y-16763222D01*
X17642801Y-16763222D02*
X17642801Y-16867984D01*
X17642801Y-16763222D02*
X17652325Y-16744174D01*
X17652325Y-16744174D02*
X17671372Y-16734650D01*
X17671372Y-16734650D02*
X17699944Y-16734650D01*
X17699944Y-16734650D02*
X17718991Y-16744174D01*
X17718991Y-16744174D02*
X17728515Y-16763222D01*
X17728515Y-16763222D02*
X17728515Y-16867984D01*
X18118991Y-16658460D02*
X17947563Y-16915603D01*
X18376134Y-16667984D02*
X18395182Y-16667984D01*
X18395182Y-16667984D02*
X18414229Y-16677508D01*
X18414229Y-16677508D02*
X18423753Y-16687031D01*
X18423753Y-16687031D02*
X18433277Y-16706079D01*
X18433277Y-16706079D02*
X18442801Y-16744174D01*
X18442801Y-16744174D02*
X18442801Y-16791793D01*
X18442801Y-16791793D02*
X18433277Y-16829889D01*
X18433277Y-16829889D02*
X18423753Y-16848936D01*
X18423753Y-16848936D02*
X18414229Y-16858460D01*
X18414229Y-16858460D02*
X18395182Y-16867984D01*
X18395182Y-16867984D02*
X18376134Y-16867984D01*
X18376134Y-16867984D02*
X18357087Y-16858460D01*
X18357087Y-16858460D02*
X18347563Y-16848936D01*
X18347563Y-16848936D02*
X18338039Y-16829889D01*
X18338039Y-16829889D02*
X18328515Y-16791793D01*
X18328515Y-16791793D02*
X18328515Y-16744174D01*
X18328515Y-16744174D02*
X18338039Y-16706079D01*
X18338039Y-16706079D02*
X18347563Y-16687031D01*
X18347563Y-16687031D02*
X18357087Y-16677508D01*
X18357087Y-16677508D02*
X18376134Y-16667984D01*
X18528515Y-16848936D02*
X18538039Y-16858460D01*
X18538039Y-16858460D02*
X18528515Y-16867984D01*
X18528515Y-16867984D02*
X18518991Y-16858460D01*
X18518991Y-16858460D02*
X18528515Y-16848936D01*
X18528515Y-16848936D02*
X18528515Y-16867984D01*
X18661848Y-16667984D02*
X18680896Y-16667984D01*
X18680896Y-16667984D02*
X18699944Y-16677508D01*
X18699944Y-16677508D02*
X18709468Y-16687031D01*
X18709468Y-16687031D02*
X18718991Y-16706079D01*
X18718991Y-16706079D02*
X18728515Y-16744174D01*
X18728515Y-16744174D02*
X18728515Y-16791793D01*
X18728515Y-16791793D02*
X18718991Y-16829889D01*
X18718991Y-16829889D02*
X18709468Y-16848936D01*
X18709468Y-16848936D02*
X18699944Y-16858460D01*
X18699944Y-16858460D02*
X18680896Y-16867984D01*
X18680896Y-16867984D02*
X18661848Y-16867984D01*
X18661848Y-16867984D02*
X18642801Y-16858460D01*
X18642801Y-16858460D02*
X18633277Y-16848936D01*
X18633277Y-16848936D02*
X18623753Y-16829889D01*
X18623753Y-16829889D02*
X18614229Y-16791793D01*
X18614229Y-16791793D02*
X18614229Y-16744174D01*
X18614229Y-16744174D02*
X18623753Y-16706079D01*
X18623753Y-16706079D02*
X18633277Y-16687031D01*
X18633277Y-16687031D02*
X18642801Y-16677508D01*
X18642801Y-16677508D02*
X18661848Y-16667984D01*
X18899944Y-16734650D02*
X18899944Y-16867984D01*
X18852325Y-16658460D02*
X18804706Y-16801317D01*
X18804706Y-16801317D02*
X18928515Y-16801317D01*
X18985658Y-16667984D02*
X19109468Y-16667984D01*
X19109468Y-16667984D02*
X19042801Y-16744174D01*
X19042801Y-16744174D02*
X19071372Y-16744174D01*
X19071372Y-16744174D02*
X19090420Y-16753698D01*
X19090420Y-16753698D02*
X19099944Y-16763222D01*
X19099944Y-16763222D02*
X19109468Y-16782270D01*
X19109468Y-16782270D02*
X19109468Y-16829889D01*
X19109468Y-16829889D02*
X19099944Y-16848936D01*
X19099944Y-16848936D02*
X19090420Y-16858460D01*
X19090420Y-16858460D02*
X19071372Y-16867984D01*
X19071372Y-16867984D02*
X19014229Y-16867984D01*
X19014229Y-16867984D02*
X18995182Y-16858460D01*
X18995182Y-16858460D02*
X18985658Y-16848936D01*
X19176134Y-16667984D02*
X19299944Y-16667984D01*
X19299944Y-16667984D02*
X19233277Y-16744174D01*
X19233277Y-16744174D02*
X19261849Y-16744174D01*
X19261849Y-16744174D02*
X19280896Y-16753698D01*
X19280896Y-16753698D02*
X19290420Y-16763222D01*
X19290420Y-16763222D02*
X19299944Y-16782270D01*
X19299944Y-16782270D02*
X19299944Y-16829889D01*
X19299944Y-16829889D02*
X19290420Y-16848936D01*
X19290420Y-16848936D02*
X19280896Y-16858460D01*
X19280896Y-16858460D02*
X19261849Y-16867984D01*
X19261849Y-16867984D02*
X19204706Y-16867984D01*
X19204706Y-16867984D02*
X19185658Y-16858460D01*
X19185658Y-16858460D02*
X19176134Y-16848936D01*
X19376134Y-16667984D02*
X19376134Y-16706079D01*
X19452325Y-16667984D02*
X19452325Y-16706079D01*
X19747563Y-16944174D02*
X19738039Y-16934650D01*
X19738039Y-16934650D02*
X19718991Y-16906079D01*
X19718991Y-16906079D02*
X19709468Y-16887031D01*
X19709468Y-16887031D02*
X19699944Y-16858460D01*
X19699944Y-16858460D02*
X19690420Y-16810841D01*
X19690420Y-16810841D02*
X19690420Y-16772746D01*
X19690420Y-16772746D02*
X19699944Y-16725127D01*
X19699944Y-16725127D02*
X19709468Y-16696555D01*
X19709468Y-16696555D02*
X19718991Y-16677508D01*
X19718991Y-16677508D02*
X19738039Y-16648936D01*
X19738039Y-16648936D02*
X19747563Y-16639412D01*
X19852325Y-16753698D02*
X19833277Y-16744174D01*
X19833277Y-16744174D02*
X19823753Y-16734650D01*
X19823753Y-16734650D02*
X19814230Y-16715603D01*
X19814230Y-16715603D02*
X19814230Y-16706079D01*
X19814230Y-16706079D02*
X19823753Y-16687031D01*
X19823753Y-16687031D02*
X19833277Y-16677508D01*
X19833277Y-16677508D02*
X19852325Y-16667984D01*
X19852325Y-16667984D02*
X19890420Y-16667984D01*
X19890420Y-16667984D02*
X19909468Y-16677508D01*
X19909468Y-16677508D02*
X19918991Y-16687031D01*
X19918991Y-16687031D02*
X19928515Y-16706079D01*
X19928515Y-16706079D02*
X19928515Y-16715603D01*
X19928515Y-16715603D02*
X19918991Y-16734650D01*
X19918991Y-16734650D02*
X19909468Y-16744174D01*
X19909468Y-16744174D02*
X19890420Y-16753698D01*
X19890420Y-16753698D02*
X19852325Y-16753698D01*
X19852325Y-16753698D02*
X19833277Y-16763222D01*
X19833277Y-16763222D02*
X19823753Y-16772746D01*
X19823753Y-16772746D02*
X19814230Y-16791793D01*
X19814230Y-16791793D02*
X19814230Y-16829889D01*
X19814230Y-16829889D02*
X19823753Y-16848936D01*
X19823753Y-16848936D02*
X19833277Y-16858460D01*
X19833277Y-16858460D02*
X19852325Y-16867984D01*
X19852325Y-16867984D02*
X19890420Y-16867984D01*
X19890420Y-16867984D02*
X19909468Y-16858460D01*
X19909468Y-16858460D02*
X19918991Y-16848936D01*
X19918991Y-16848936D02*
X19928515Y-16829889D01*
X19928515Y-16829889D02*
X19928515Y-16791793D01*
X19928515Y-16791793D02*
X19918991Y-16772746D01*
X19918991Y-16772746D02*
X19909468Y-16763222D01*
X19909468Y-16763222D02*
X19890420Y-16753698D01*
X20166611Y-16867984D02*
X20166611Y-16667984D01*
X20252325Y-16867984D02*
X20252325Y-16763222D01*
X20252325Y-16763222D02*
X20242801Y-16744174D01*
X20242801Y-16744174D02*
X20223753Y-16734650D01*
X20223753Y-16734650D02*
X20195182Y-16734650D01*
X20195182Y-16734650D02*
X20176134Y-16744174D01*
X20176134Y-16744174D02*
X20166611Y-16753698D01*
X20376134Y-16867984D02*
X20357087Y-16858460D01*
X20357087Y-16858460D02*
X20347563Y-16848936D01*
X20347563Y-16848936D02*
X20338039Y-16829889D01*
X20338039Y-16829889D02*
X20338039Y-16772746D01*
X20338039Y-16772746D02*
X20347563Y-16753698D01*
X20347563Y-16753698D02*
X20357087Y-16744174D01*
X20357087Y-16744174D02*
X20376134Y-16734650D01*
X20376134Y-16734650D02*
X20404706Y-16734650D01*
X20404706Y-16734650D02*
X20423753Y-16744174D01*
X20423753Y-16744174D02*
X20433277Y-16753698D01*
X20433277Y-16753698D02*
X20442801Y-16772746D01*
X20442801Y-16772746D02*
X20442801Y-16829889D01*
X20442801Y-16829889D02*
X20433277Y-16848936D01*
X20433277Y-16848936D02*
X20423753Y-16858460D01*
X20423753Y-16858460D02*
X20404706Y-16867984D01*
X20404706Y-16867984D02*
X20376134Y-16867984D01*
X20557087Y-16867984D02*
X20538039Y-16858460D01*
X20538039Y-16858460D02*
X20528515Y-16839412D01*
X20528515Y-16839412D02*
X20528515Y-16667984D01*
X20709468Y-16858460D02*
X20690420Y-16867984D01*
X20690420Y-16867984D02*
X20652325Y-16867984D01*
X20652325Y-16867984D02*
X20633277Y-16858460D01*
X20633277Y-16858460D02*
X20623753Y-16839412D01*
X20623753Y-16839412D02*
X20623753Y-16763222D01*
X20623753Y-16763222D02*
X20633277Y-16744174D01*
X20633277Y-16744174D02*
X20652325Y-16734650D01*
X20652325Y-16734650D02*
X20690420Y-16734650D01*
X20690420Y-16734650D02*
X20709468Y-16744174D01*
X20709468Y-16744174D02*
X20718992Y-16763222D01*
X20718992Y-16763222D02*
X20718992Y-16782270D01*
X20718992Y-16782270D02*
X20623753Y-16801317D01*
X20795182Y-16858460D02*
X20814230Y-16867984D01*
X20814230Y-16867984D02*
X20852325Y-16867984D01*
X20852325Y-16867984D02*
X20871373Y-16858460D01*
X20871373Y-16858460D02*
X20880896Y-16839412D01*
X20880896Y-16839412D02*
X20880896Y-16829889D01*
X20880896Y-16829889D02*
X20871373Y-16810841D01*
X20871373Y-16810841D02*
X20852325Y-16801317D01*
X20852325Y-16801317D02*
X20823753Y-16801317D01*
X20823753Y-16801317D02*
X20804706Y-16791793D01*
X20804706Y-16791793D02*
X20795182Y-16772746D01*
X20795182Y-16772746D02*
X20795182Y-16763222D01*
X20795182Y-16763222D02*
X20804706Y-16744174D01*
X20804706Y-16744174D02*
X20823753Y-16734650D01*
X20823753Y-16734650D02*
X20852325Y-16734650D01*
X20852325Y-16734650D02*
X20871373Y-16744174D01*
X20947563Y-16944174D02*
X20957087Y-16934650D01*
X20957087Y-16934650D02*
X20976134Y-16906079D01*
X20976134Y-16906079D02*
X20985658Y-16887031D01*
X20985658Y-16887031D02*
X20995182Y-16858460D01*
X20995182Y-16858460D02*
X21004706Y-16810841D01*
X21004706Y-16810841D02*
X21004706Y-16772746D01*
X21004706Y-16772746D02*
X20995182Y-16725127D01*
X20995182Y-16725127D02*
X20985658Y-16696555D01*
X20985658Y-16696555D02*
X20976134Y-16677508D01*
X20976134Y-16677508D02*
X20957087Y-16648936D01*
X20957087Y-16648936D02*
X20947563Y-16639412D01*
D14*
X16052500Y-16980500D02*
X16172500Y-17100500D01*
X16172500Y-16980500D02*
X16052500Y-17100500D01*
X16154927Y-17082927D02*
X16154927Y-16998073D01*
X16070073Y-16998073D01*
X16070073Y-17082927D01*
X16154927Y-17082927D01*
D11*
X16538039Y-17131984D02*
X16423753Y-17131984D01*
X16480896Y-17131984D02*
X16480896Y-16931984D01*
X16480896Y-16931984D02*
X16461848Y-16960555D01*
X16461848Y-16960555D02*
X16442801Y-16979603D01*
X16442801Y-16979603D02*
X16423753Y-16989127D01*
X16623753Y-17112936D02*
X16633277Y-17122460D01*
X16633277Y-17122460D02*
X16623753Y-17131984D01*
X16623753Y-17131984D02*
X16614229Y-17122460D01*
X16614229Y-17122460D02*
X16623753Y-17112936D01*
X16623753Y-17112936D02*
X16623753Y-17131984D01*
X16709467Y-16951031D02*
X16718991Y-16941508D01*
X16718991Y-16941508D02*
X16738039Y-16931984D01*
X16738039Y-16931984D02*
X16785658Y-16931984D01*
X16785658Y-16931984D02*
X16804705Y-16941508D01*
X16804705Y-16941508D02*
X16814229Y-16951031D01*
X16814229Y-16951031D02*
X16823753Y-16970079D01*
X16823753Y-16970079D02*
X16823753Y-16989127D01*
X16823753Y-16989127D02*
X16814229Y-17017698D01*
X16814229Y-17017698D02*
X16699943Y-17131984D01*
X16699943Y-17131984D02*
X16823753Y-17131984D01*
X16947563Y-16931984D02*
X16966610Y-16931984D01*
X16966610Y-16931984D02*
X16985658Y-16941508D01*
X16985658Y-16941508D02*
X16995182Y-16951031D01*
X16995182Y-16951031D02*
X17004705Y-16970079D01*
X17004705Y-16970079D02*
X17014229Y-17008174D01*
X17014229Y-17008174D02*
X17014229Y-17055793D01*
X17014229Y-17055793D02*
X17004705Y-17093889D01*
X17004705Y-17093889D02*
X16995182Y-17112936D01*
X16995182Y-17112936D02*
X16985658Y-17122460D01*
X16985658Y-17122460D02*
X16966610Y-17131984D01*
X16966610Y-17131984D02*
X16947563Y-17131984D01*
X16947563Y-17131984D02*
X16928515Y-17122460D01*
X16928515Y-17122460D02*
X16918991Y-17112936D01*
X16918991Y-17112936D02*
X16909467Y-17093889D01*
X16909467Y-17093889D02*
X16899944Y-17055793D01*
X16899944Y-17055793D02*
X16899944Y-17008174D01*
X16899944Y-17008174D02*
X16909467Y-16970079D01*
X16909467Y-16970079D02*
X16918991Y-16951031D01*
X16918991Y-16951031D02*
X16928515Y-16941508D01*
X16928515Y-16941508D02*
X16947563Y-16931984D01*
X17138039Y-16931984D02*
X17157086Y-16931984D01*
X17157086Y-16931984D02*
X17176134Y-16941508D01*
X17176134Y-16941508D02*
X17185658Y-16951031D01*
X17185658Y-16951031D02*
X17195182Y-16970079D01*
X17195182Y-16970079D02*
X17204705Y-17008174D01*
X17204705Y-17008174D02*
X17204705Y-17055793D01*
X17204705Y-17055793D02*
X17195182Y-17093889D01*
X17195182Y-17093889D02*
X17185658Y-17112936D01*
X17185658Y-17112936D02*
X17176134Y-17122460D01*
X17176134Y-17122460D02*
X17157086Y-17131984D01*
X17157086Y-17131984D02*
X17138039Y-17131984D01*
X17138039Y-17131984D02*
X17118991Y-17122460D01*
X17118991Y-17122460D02*
X17109467Y-17112936D01*
X17109467Y-17112936D02*
X17099944Y-17093889D01*
X17099944Y-17093889D02*
X17090420Y-17055793D01*
X17090420Y-17055793D02*
X17090420Y-17008174D01*
X17090420Y-17008174D02*
X17099944Y-16970079D01*
X17099944Y-16970079D02*
X17109467Y-16951031D01*
X17109467Y-16951031D02*
X17118991Y-16941508D01*
X17118991Y-16941508D02*
X17138039Y-16931984D01*
X17290420Y-17131984D02*
X17290420Y-16998650D01*
X17290420Y-17017698D02*
X17299944Y-17008174D01*
X17299944Y-17008174D02*
X17318991Y-16998650D01*
X17318991Y-16998650D02*
X17347563Y-16998650D01*
X17347563Y-16998650D02*
X17366610Y-17008174D01*
X17366610Y-17008174D02*
X17376134Y-17027222D01*
X17376134Y-17027222D02*
X17376134Y-17131984D01*
X17376134Y-17027222D02*
X17385658Y-17008174D01*
X17385658Y-17008174D02*
X17404705Y-16998650D01*
X17404705Y-16998650D02*
X17433277Y-16998650D01*
X17433277Y-16998650D02*
X17452325Y-17008174D01*
X17452325Y-17008174D02*
X17461848Y-17027222D01*
X17461848Y-17027222D02*
X17461848Y-17131984D01*
X17557086Y-17131984D02*
X17557086Y-16998650D01*
X17557086Y-17017698D02*
X17566610Y-17008174D01*
X17566610Y-17008174D02*
X17585658Y-16998650D01*
X17585658Y-16998650D02*
X17614229Y-16998650D01*
X17614229Y-16998650D02*
X17633277Y-17008174D01*
X17633277Y-17008174D02*
X17642801Y-17027222D01*
X17642801Y-17027222D02*
X17642801Y-17131984D01*
X17642801Y-17027222D02*
X17652325Y-17008174D01*
X17652325Y-17008174D02*
X17671372Y-16998650D01*
X17671372Y-16998650D02*
X17699944Y-16998650D01*
X17699944Y-16998650D02*
X17718991Y-17008174D01*
X17718991Y-17008174D02*
X17728515Y-17027222D01*
X17728515Y-17027222D02*
X17728515Y-17131984D01*
X18118991Y-16922460D02*
X17947563Y-17179603D01*
X18376134Y-16931984D02*
X18395182Y-16931984D01*
X18395182Y-16931984D02*
X18414229Y-16941508D01*
X18414229Y-16941508D02*
X18423753Y-16951031D01*
X18423753Y-16951031D02*
X18433277Y-16970079D01*
X18433277Y-16970079D02*
X18442801Y-17008174D01*
X18442801Y-17008174D02*
X18442801Y-17055793D01*
X18442801Y-17055793D02*
X18433277Y-17093889D01*
X18433277Y-17093889D02*
X18423753Y-17112936D01*
X18423753Y-17112936D02*
X18414229Y-17122460D01*
X18414229Y-17122460D02*
X18395182Y-17131984D01*
X18395182Y-17131984D02*
X18376134Y-17131984D01*
X18376134Y-17131984D02*
X18357087Y-17122460D01*
X18357087Y-17122460D02*
X18347563Y-17112936D01*
X18347563Y-17112936D02*
X18338039Y-17093889D01*
X18338039Y-17093889D02*
X18328515Y-17055793D01*
X18328515Y-17055793D02*
X18328515Y-17008174D01*
X18328515Y-17008174D02*
X18338039Y-16970079D01*
X18338039Y-16970079D02*
X18347563Y-16951031D01*
X18347563Y-16951031D02*
X18357087Y-16941508D01*
X18357087Y-16941508D02*
X18376134Y-16931984D01*
X18528515Y-17112936D02*
X18538039Y-17122460D01*
X18538039Y-17122460D02*
X18528515Y-17131984D01*
X18528515Y-17131984D02*
X18518991Y-17122460D01*
X18518991Y-17122460D02*
X18528515Y-17112936D01*
X18528515Y-17112936D02*
X18528515Y-17131984D01*
X18661848Y-16931984D02*
X18680896Y-16931984D01*
X18680896Y-16931984D02*
X18699944Y-16941508D01*
X18699944Y-16941508D02*
X18709468Y-16951031D01*
X18709468Y-16951031D02*
X18718991Y-16970079D01*
X18718991Y-16970079D02*
X18728515Y-17008174D01*
X18728515Y-17008174D02*
X18728515Y-17055793D01*
X18728515Y-17055793D02*
X18718991Y-17093889D01*
X18718991Y-17093889D02*
X18709468Y-17112936D01*
X18709468Y-17112936D02*
X18699944Y-17122460D01*
X18699944Y-17122460D02*
X18680896Y-17131984D01*
X18680896Y-17131984D02*
X18661848Y-17131984D01*
X18661848Y-17131984D02*
X18642801Y-17122460D01*
X18642801Y-17122460D02*
X18633277Y-17112936D01*
X18633277Y-17112936D02*
X18623753Y-17093889D01*
X18623753Y-17093889D02*
X18614229Y-17055793D01*
X18614229Y-17055793D02*
X18614229Y-17008174D01*
X18614229Y-17008174D02*
X18623753Y-16970079D01*
X18623753Y-16970079D02*
X18633277Y-16951031D01*
X18633277Y-16951031D02*
X18642801Y-16941508D01*
X18642801Y-16941508D02*
X18661848Y-16931984D01*
X18899944Y-16998650D02*
X18899944Y-17131984D01*
X18852325Y-16922460D02*
X18804706Y-17065317D01*
X18804706Y-17065317D02*
X18928515Y-17065317D01*
X18985658Y-16931984D02*
X19118991Y-16931984D01*
X19118991Y-16931984D02*
X19033277Y-17131984D01*
X19185658Y-16951031D02*
X19195182Y-16941508D01*
X19195182Y-16941508D02*
X19214229Y-16931984D01*
X19214229Y-16931984D02*
X19261849Y-16931984D01*
X19261849Y-16931984D02*
X19280896Y-16941508D01*
X19280896Y-16941508D02*
X19290420Y-16951031D01*
X19290420Y-16951031D02*
X19299944Y-16970079D01*
X19299944Y-16970079D02*
X19299944Y-16989127D01*
X19299944Y-16989127D02*
X19290420Y-17017698D01*
X19290420Y-17017698D02*
X19176134Y-17131984D01*
X19176134Y-17131984D02*
X19299944Y-17131984D01*
X19376134Y-16931984D02*
X19376134Y-16970079D01*
X19452325Y-16931984D02*
X19452325Y-16970079D01*
X19747563Y-17208174D02*
X19738039Y-17198650D01*
X19738039Y-17198650D02*
X19718991Y-17170079D01*
X19718991Y-17170079D02*
X19709468Y-17151031D01*
X19709468Y-17151031D02*
X19699944Y-17122460D01*
X19699944Y-17122460D02*
X19690420Y-17074841D01*
X19690420Y-17074841D02*
X19690420Y-17036746D01*
X19690420Y-17036746D02*
X19699944Y-16989127D01*
X19699944Y-16989127D02*
X19709468Y-16960555D01*
X19709468Y-16960555D02*
X19718991Y-16941508D01*
X19718991Y-16941508D02*
X19738039Y-16912936D01*
X19738039Y-16912936D02*
X19747563Y-16903412D01*
X19909468Y-16931984D02*
X19871372Y-16931984D01*
X19871372Y-16931984D02*
X19852325Y-16941508D01*
X19852325Y-16941508D02*
X19842801Y-16951031D01*
X19842801Y-16951031D02*
X19823753Y-16979603D01*
X19823753Y-16979603D02*
X19814230Y-17017698D01*
X19814230Y-17017698D02*
X19814230Y-17093889D01*
X19814230Y-17093889D02*
X19823753Y-17112936D01*
X19823753Y-17112936D02*
X19833277Y-17122460D01*
X19833277Y-17122460D02*
X19852325Y-17131984D01*
X19852325Y-17131984D02*
X19890420Y-17131984D01*
X19890420Y-17131984D02*
X19909468Y-17122460D01*
X19909468Y-17122460D02*
X19918991Y-17112936D01*
X19918991Y-17112936D02*
X19928515Y-17093889D01*
X19928515Y-17093889D02*
X19928515Y-17046270D01*
X19928515Y-17046270D02*
X19918991Y-17027222D01*
X19918991Y-17027222D02*
X19909468Y-17017698D01*
X19909468Y-17017698D02*
X19890420Y-17008174D01*
X19890420Y-17008174D02*
X19852325Y-17008174D01*
X19852325Y-17008174D02*
X19833277Y-17017698D01*
X19833277Y-17017698D02*
X19823753Y-17027222D01*
X19823753Y-17027222D02*
X19814230Y-17046270D01*
X20166611Y-17131984D02*
X20166611Y-16931984D01*
X20252325Y-17131984D02*
X20252325Y-17027222D01*
X20252325Y-17027222D02*
X20242801Y-17008174D01*
X20242801Y-17008174D02*
X20223753Y-16998650D01*
X20223753Y-16998650D02*
X20195182Y-16998650D01*
X20195182Y-16998650D02*
X20176134Y-17008174D01*
X20176134Y-17008174D02*
X20166611Y-17017698D01*
X20376134Y-17131984D02*
X20357087Y-17122460D01*
X20357087Y-17122460D02*
X20347563Y-17112936D01*
X20347563Y-17112936D02*
X20338039Y-17093889D01*
X20338039Y-17093889D02*
X20338039Y-17036746D01*
X20338039Y-17036746D02*
X20347563Y-17017698D01*
X20347563Y-17017698D02*
X20357087Y-17008174D01*
X20357087Y-17008174D02*
X20376134Y-16998650D01*
X20376134Y-16998650D02*
X20404706Y-16998650D01*
X20404706Y-16998650D02*
X20423753Y-17008174D01*
X20423753Y-17008174D02*
X20433277Y-17017698D01*
X20433277Y-17017698D02*
X20442801Y-17036746D01*
X20442801Y-17036746D02*
X20442801Y-17093889D01*
X20442801Y-17093889D02*
X20433277Y-17112936D01*
X20433277Y-17112936D02*
X20423753Y-17122460D01*
X20423753Y-17122460D02*
X20404706Y-17131984D01*
X20404706Y-17131984D02*
X20376134Y-17131984D01*
X20557087Y-17131984D02*
X20538039Y-17122460D01*
X20538039Y-17122460D02*
X20528515Y-17103412D01*
X20528515Y-17103412D02*
X20528515Y-16931984D01*
X20709468Y-17122460D02*
X20690420Y-17131984D01*
X20690420Y-17131984D02*
X20652325Y-17131984D01*
X20652325Y-17131984D02*
X20633277Y-17122460D01*
X20633277Y-17122460D02*
X20623753Y-17103412D01*
X20623753Y-17103412D02*
X20623753Y-17027222D01*
X20623753Y-17027222D02*
X20633277Y-17008174D01*
X20633277Y-17008174D02*
X20652325Y-16998650D01*
X20652325Y-16998650D02*
X20690420Y-16998650D01*
X20690420Y-16998650D02*
X20709468Y-17008174D01*
X20709468Y-17008174D02*
X20718992Y-17027222D01*
X20718992Y-17027222D02*
X20718992Y-17046270D01*
X20718992Y-17046270D02*
X20623753Y-17065317D01*
X20795182Y-17122460D02*
X20814230Y-17131984D01*
X20814230Y-17131984D02*
X20852325Y-17131984D01*
X20852325Y-17131984D02*
X20871373Y-17122460D01*
X20871373Y-17122460D02*
X20880896Y-17103412D01*
X20880896Y-17103412D02*
X20880896Y-17093889D01*
X20880896Y-17093889D02*
X20871373Y-17074841D01*
X20871373Y-17074841D02*
X20852325Y-17065317D01*
X20852325Y-17065317D02*
X20823753Y-17065317D01*
X20823753Y-17065317D02*
X20804706Y-17055793D01*
X20804706Y-17055793D02*
X20795182Y-17036746D01*
X20795182Y-17036746D02*
X20795182Y-17027222D01*
X20795182Y-17027222D02*
X20804706Y-17008174D01*
X20804706Y-17008174D02*
X20823753Y-16998650D01*
X20823753Y-16998650D02*
X20852325Y-16998650D01*
X20852325Y-16998650D02*
X20871373Y-17008174D01*
X20947563Y-17208174D02*
X20957087Y-17198650D01*
X20957087Y-17198650D02*
X20976134Y-17170079D01*
X20976134Y-17170079D02*
X20985658Y-17151031D01*
X20985658Y-17151031D02*
X20995182Y-17122460D01*
X20995182Y-17122460D02*
X21004706Y-17074841D01*
X21004706Y-17074841D02*
X21004706Y-17036746D01*
X21004706Y-17036746D02*
X20995182Y-16989127D01*
X20995182Y-16989127D02*
X20985658Y-16960555D01*
X20985658Y-16960555D02*
X20976134Y-16941508D01*
X20976134Y-16941508D02*
X20957087Y-16912936D01*
X20957087Y-16912936D02*
X20947563Y-16903412D01*
X15972500Y-17204500D02*
X16172500Y-17404500D01*
X16172500Y-17204500D02*
X15972500Y-17404500D01*
X16072500Y-17404500D02*
X16172500Y-17304500D01*
X16072500Y-17204500D01*
X15972500Y-17304500D01*
X16072500Y-17404500D01*
X16423753Y-17215031D02*
X16433277Y-17205508D01*
X16433277Y-17205508D02*
X16452324Y-17195984D01*
X16452324Y-17195984D02*
X16499943Y-17195984D01*
X16499943Y-17195984D02*
X16518991Y-17205508D01*
X16518991Y-17205508D02*
X16528515Y-17215031D01*
X16528515Y-17215031D02*
X16538039Y-17234079D01*
X16538039Y-17234079D02*
X16538039Y-17253127D01*
X16538039Y-17253127D02*
X16528515Y-17281698D01*
X16528515Y-17281698D02*
X16414229Y-17395984D01*
X16414229Y-17395984D02*
X16538039Y-17395984D01*
X16623753Y-17376936D02*
X16633277Y-17386460D01*
X16633277Y-17386460D02*
X16623753Y-17395984D01*
X16623753Y-17395984D02*
X16614229Y-17386460D01*
X16614229Y-17386460D02*
X16623753Y-17376936D01*
X16623753Y-17376936D02*
X16623753Y-17395984D01*
X16728515Y-17395984D02*
X16766610Y-17395984D01*
X16766610Y-17395984D02*
X16785658Y-17386460D01*
X16785658Y-17386460D02*
X16795182Y-17376936D01*
X16795182Y-17376936D02*
X16814229Y-17348365D01*
X16814229Y-17348365D02*
X16823753Y-17310270D01*
X16823753Y-17310270D02*
X16823753Y-17234079D01*
X16823753Y-17234079D02*
X16814229Y-17215031D01*
X16814229Y-17215031D02*
X16804705Y-17205508D01*
X16804705Y-17205508D02*
X16785658Y-17195984D01*
X16785658Y-17195984D02*
X16747562Y-17195984D01*
X16747562Y-17195984D02*
X16728515Y-17205508D01*
X16728515Y-17205508D02*
X16718991Y-17215031D01*
X16718991Y-17215031D02*
X16709467Y-17234079D01*
X16709467Y-17234079D02*
X16709467Y-17281698D01*
X16709467Y-17281698D02*
X16718991Y-17300746D01*
X16718991Y-17300746D02*
X16728515Y-17310270D01*
X16728515Y-17310270D02*
X16747562Y-17319793D01*
X16747562Y-17319793D02*
X16785658Y-17319793D01*
X16785658Y-17319793D02*
X16804705Y-17310270D01*
X16804705Y-17310270D02*
X16814229Y-17300746D01*
X16814229Y-17300746D02*
X16823753Y-17281698D01*
X16890420Y-17195984D02*
X17023753Y-17195984D01*
X17023753Y-17195984D02*
X16938039Y-17395984D01*
X17138039Y-17195984D02*
X17157086Y-17195984D01*
X17157086Y-17195984D02*
X17176134Y-17205508D01*
X17176134Y-17205508D02*
X17185658Y-17215031D01*
X17185658Y-17215031D02*
X17195182Y-17234079D01*
X17195182Y-17234079D02*
X17204705Y-17272174D01*
X17204705Y-17272174D02*
X17204705Y-17319793D01*
X17204705Y-17319793D02*
X17195182Y-17357889D01*
X17195182Y-17357889D02*
X17185658Y-17376936D01*
X17185658Y-17376936D02*
X17176134Y-17386460D01*
X17176134Y-17386460D02*
X17157086Y-17395984D01*
X17157086Y-17395984D02*
X17138039Y-17395984D01*
X17138039Y-17395984D02*
X17118991Y-17386460D01*
X17118991Y-17386460D02*
X17109467Y-17376936D01*
X17109467Y-17376936D02*
X17099944Y-17357889D01*
X17099944Y-17357889D02*
X17090420Y-17319793D01*
X17090420Y-17319793D02*
X17090420Y-17272174D01*
X17090420Y-17272174D02*
X17099944Y-17234079D01*
X17099944Y-17234079D02*
X17109467Y-17215031D01*
X17109467Y-17215031D02*
X17118991Y-17205508D01*
X17118991Y-17205508D02*
X17138039Y-17195984D01*
X17290420Y-17395984D02*
X17290420Y-17262650D01*
X17290420Y-17281698D02*
X17299944Y-17272174D01*
X17299944Y-17272174D02*
X17318991Y-17262650D01*
X17318991Y-17262650D02*
X17347563Y-17262650D01*
X17347563Y-17262650D02*
X17366610Y-17272174D01*
X17366610Y-17272174D02*
X17376134Y-17291222D01*
X17376134Y-17291222D02*
X17376134Y-17395984D01*
X17376134Y-17291222D02*
X17385658Y-17272174D01*
X17385658Y-17272174D02*
X17404705Y-17262650D01*
X17404705Y-17262650D02*
X17433277Y-17262650D01*
X17433277Y-17262650D02*
X17452325Y-17272174D01*
X17452325Y-17272174D02*
X17461848Y-17291222D01*
X17461848Y-17291222D02*
X17461848Y-17395984D01*
X17557086Y-17395984D02*
X17557086Y-17262650D01*
X17557086Y-17281698D02*
X17566610Y-17272174D01*
X17566610Y-17272174D02*
X17585658Y-17262650D01*
X17585658Y-17262650D02*
X17614229Y-17262650D01*
X17614229Y-17262650D02*
X17633277Y-17272174D01*
X17633277Y-17272174D02*
X17642801Y-17291222D01*
X17642801Y-17291222D02*
X17642801Y-17395984D01*
X17642801Y-17291222D02*
X17652325Y-17272174D01*
X17652325Y-17272174D02*
X17671372Y-17262650D01*
X17671372Y-17262650D02*
X17699944Y-17262650D01*
X17699944Y-17262650D02*
X17718991Y-17272174D01*
X17718991Y-17272174D02*
X17728515Y-17291222D01*
X17728515Y-17291222D02*
X17728515Y-17395984D01*
X18118991Y-17186460D02*
X17947563Y-17443603D01*
X18376134Y-17195984D02*
X18395182Y-17195984D01*
X18395182Y-17195984D02*
X18414229Y-17205508D01*
X18414229Y-17205508D02*
X18423753Y-17215031D01*
X18423753Y-17215031D02*
X18433277Y-17234079D01*
X18433277Y-17234079D02*
X18442801Y-17272174D01*
X18442801Y-17272174D02*
X18442801Y-17319793D01*
X18442801Y-17319793D02*
X18433277Y-17357889D01*
X18433277Y-17357889D02*
X18423753Y-17376936D01*
X18423753Y-17376936D02*
X18414229Y-17386460D01*
X18414229Y-17386460D02*
X18395182Y-17395984D01*
X18395182Y-17395984D02*
X18376134Y-17395984D01*
X18376134Y-17395984D02*
X18357087Y-17386460D01*
X18357087Y-17386460D02*
X18347563Y-17376936D01*
X18347563Y-17376936D02*
X18338039Y-17357889D01*
X18338039Y-17357889D02*
X18328515Y-17319793D01*
X18328515Y-17319793D02*
X18328515Y-17272174D01*
X18328515Y-17272174D02*
X18338039Y-17234079D01*
X18338039Y-17234079D02*
X18347563Y-17215031D01*
X18347563Y-17215031D02*
X18357087Y-17205508D01*
X18357087Y-17205508D02*
X18376134Y-17195984D01*
X18528515Y-17376936D02*
X18538039Y-17386460D01*
X18538039Y-17386460D02*
X18528515Y-17395984D01*
X18528515Y-17395984D02*
X18518991Y-17386460D01*
X18518991Y-17386460D02*
X18528515Y-17376936D01*
X18528515Y-17376936D02*
X18528515Y-17395984D01*
X18728515Y-17395984D02*
X18614229Y-17395984D01*
X18671372Y-17395984D02*
X18671372Y-17195984D01*
X18671372Y-17195984D02*
X18652325Y-17224555D01*
X18652325Y-17224555D02*
X18633277Y-17243603D01*
X18633277Y-17243603D02*
X18614229Y-17253127D01*
X18918991Y-17395984D02*
X18804706Y-17395984D01*
X18861848Y-17395984D02*
X18861848Y-17195984D01*
X18861848Y-17195984D02*
X18842801Y-17224555D01*
X18842801Y-17224555D02*
X18823753Y-17243603D01*
X18823753Y-17243603D02*
X18804706Y-17253127D01*
X19090420Y-17195984D02*
X19052325Y-17195984D01*
X19052325Y-17195984D02*
X19033277Y-17205508D01*
X19033277Y-17205508D02*
X19023753Y-17215031D01*
X19023753Y-17215031D02*
X19004706Y-17243603D01*
X19004706Y-17243603D02*
X18995182Y-17281698D01*
X18995182Y-17281698D02*
X18995182Y-17357889D01*
X18995182Y-17357889D02*
X19004706Y-17376936D01*
X19004706Y-17376936D02*
X19014229Y-17386460D01*
X19014229Y-17386460D02*
X19033277Y-17395984D01*
X19033277Y-17395984D02*
X19071372Y-17395984D01*
X19071372Y-17395984D02*
X19090420Y-17386460D01*
X19090420Y-17386460D02*
X19099944Y-17376936D01*
X19099944Y-17376936D02*
X19109468Y-17357889D01*
X19109468Y-17357889D02*
X19109468Y-17310270D01*
X19109468Y-17310270D02*
X19099944Y-17291222D01*
X19099944Y-17291222D02*
X19090420Y-17281698D01*
X19090420Y-17281698D02*
X19071372Y-17272174D01*
X19071372Y-17272174D02*
X19033277Y-17272174D01*
X19033277Y-17272174D02*
X19014229Y-17281698D01*
X19014229Y-17281698D02*
X19004706Y-17291222D01*
X19004706Y-17291222D02*
X18995182Y-17310270D01*
X19204706Y-17395984D02*
X19242801Y-17395984D01*
X19242801Y-17395984D02*
X19261849Y-17386460D01*
X19261849Y-17386460D02*
X19271372Y-17376936D01*
X19271372Y-17376936D02*
X19290420Y-17348365D01*
X19290420Y-17348365D02*
X19299944Y-17310270D01*
X19299944Y-17310270D02*
X19299944Y-17234079D01*
X19299944Y-17234079D02*
X19290420Y-17215031D01*
X19290420Y-17215031D02*
X19280896Y-17205508D01*
X19280896Y-17205508D02*
X19261849Y-17195984D01*
X19261849Y-17195984D02*
X19223753Y-17195984D01*
X19223753Y-17195984D02*
X19204706Y-17205508D01*
X19204706Y-17205508D02*
X19195182Y-17215031D01*
X19195182Y-17215031D02*
X19185658Y-17234079D01*
X19185658Y-17234079D02*
X19185658Y-17281698D01*
X19185658Y-17281698D02*
X19195182Y-17300746D01*
X19195182Y-17300746D02*
X19204706Y-17310270D01*
X19204706Y-17310270D02*
X19223753Y-17319793D01*
X19223753Y-17319793D02*
X19261849Y-17319793D01*
X19261849Y-17319793D02*
X19280896Y-17310270D01*
X19280896Y-17310270D02*
X19290420Y-17300746D01*
X19290420Y-17300746D02*
X19299944Y-17281698D01*
X19376134Y-17195984D02*
X19376134Y-17234079D01*
X19452325Y-17195984D02*
X19452325Y-17234079D01*
X19747563Y-17472174D02*
X19738039Y-17462650D01*
X19738039Y-17462650D02*
X19718991Y-17434079D01*
X19718991Y-17434079D02*
X19709468Y-17415031D01*
X19709468Y-17415031D02*
X19699944Y-17386460D01*
X19699944Y-17386460D02*
X19690420Y-17338841D01*
X19690420Y-17338841D02*
X19690420Y-17300746D01*
X19690420Y-17300746D02*
X19699944Y-17253127D01*
X19699944Y-17253127D02*
X19709468Y-17224555D01*
X19709468Y-17224555D02*
X19718991Y-17205508D01*
X19718991Y-17205508D02*
X19738039Y-17176936D01*
X19738039Y-17176936D02*
X19747563Y-17167412D01*
X19814230Y-17215031D02*
X19823753Y-17205508D01*
X19823753Y-17205508D02*
X19842801Y-17195984D01*
X19842801Y-17195984D02*
X19890420Y-17195984D01*
X19890420Y-17195984D02*
X19909468Y-17205508D01*
X19909468Y-17205508D02*
X19918991Y-17215031D01*
X19918991Y-17215031D02*
X19928515Y-17234079D01*
X19928515Y-17234079D02*
X19928515Y-17253127D01*
X19928515Y-17253127D02*
X19918991Y-17281698D01*
X19918991Y-17281698D02*
X19804706Y-17395984D01*
X19804706Y-17395984D02*
X19928515Y-17395984D01*
X20166611Y-17395984D02*
X20166611Y-17195984D01*
X20252325Y-17395984D02*
X20252325Y-17291222D01*
X20252325Y-17291222D02*
X20242801Y-17272174D01*
X20242801Y-17272174D02*
X20223753Y-17262650D01*
X20223753Y-17262650D02*
X20195182Y-17262650D01*
X20195182Y-17262650D02*
X20176134Y-17272174D01*
X20176134Y-17272174D02*
X20166611Y-17281698D01*
X20376134Y-17395984D02*
X20357087Y-17386460D01*
X20357087Y-17386460D02*
X20347563Y-17376936D01*
X20347563Y-17376936D02*
X20338039Y-17357889D01*
X20338039Y-17357889D02*
X20338039Y-17300746D01*
X20338039Y-17300746D02*
X20347563Y-17281698D01*
X20347563Y-17281698D02*
X20357087Y-17272174D01*
X20357087Y-17272174D02*
X20376134Y-17262650D01*
X20376134Y-17262650D02*
X20404706Y-17262650D01*
X20404706Y-17262650D02*
X20423753Y-17272174D01*
X20423753Y-17272174D02*
X20433277Y-17281698D01*
X20433277Y-17281698D02*
X20442801Y-17300746D01*
X20442801Y-17300746D02*
X20442801Y-17357889D01*
X20442801Y-17357889D02*
X20433277Y-17376936D01*
X20433277Y-17376936D02*
X20423753Y-17386460D01*
X20423753Y-17386460D02*
X20404706Y-17395984D01*
X20404706Y-17395984D02*
X20376134Y-17395984D01*
X20557087Y-17395984D02*
X20538039Y-17386460D01*
X20538039Y-17386460D02*
X20528515Y-17367412D01*
X20528515Y-17367412D02*
X20528515Y-17195984D01*
X20709468Y-17386460D02*
X20690420Y-17395984D01*
X20690420Y-17395984D02*
X20652325Y-17395984D01*
X20652325Y-17395984D02*
X20633277Y-17386460D01*
X20633277Y-17386460D02*
X20623753Y-17367412D01*
X20623753Y-17367412D02*
X20623753Y-17291222D01*
X20623753Y-17291222D02*
X20633277Y-17272174D01*
X20633277Y-17272174D02*
X20652325Y-17262650D01*
X20652325Y-17262650D02*
X20690420Y-17262650D01*
X20690420Y-17262650D02*
X20709468Y-17272174D01*
X20709468Y-17272174D02*
X20718992Y-17291222D01*
X20718992Y-17291222D02*
X20718992Y-17310270D01*
X20718992Y-17310270D02*
X20623753Y-17329317D01*
X20795182Y-17386460D02*
X20814230Y-17395984D01*
X20814230Y-17395984D02*
X20852325Y-17395984D01*
X20852325Y-17395984D02*
X20871373Y-17386460D01*
X20871373Y-17386460D02*
X20880896Y-17367412D01*
X20880896Y-17367412D02*
X20880896Y-17357889D01*
X20880896Y-17357889D02*
X20871373Y-17338841D01*
X20871373Y-17338841D02*
X20852325Y-17329317D01*
X20852325Y-17329317D02*
X20823753Y-17329317D01*
X20823753Y-17329317D02*
X20804706Y-17319793D01*
X20804706Y-17319793D02*
X20795182Y-17300746D01*
X20795182Y-17300746D02*
X20795182Y-17291222D01*
X20795182Y-17291222D02*
X20804706Y-17272174D01*
X20804706Y-17272174D02*
X20823753Y-17262650D01*
X20823753Y-17262650D02*
X20852325Y-17262650D01*
X20852325Y-17262650D02*
X20871373Y-17272174D01*
X20947563Y-17472174D02*
X20957087Y-17462650D01*
X20957087Y-17462650D02*
X20976134Y-17434079D01*
X20976134Y-17434079D02*
X20985658Y-17415031D01*
X20985658Y-17415031D02*
X20995182Y-17386460D01*
X20995182Y-17386460D02*
X21004706Y-17338841D01*
X21004706Y-17338841D02*
X21004706Y-17300746D01*
X21004706Y-17300746D02*
X20995182Y-17253127D01*
X20995182Y-17253127D02*
X20985658Y-17224555D01*
X20985658Y-17224555D02*
X20976134Y-17205508D01*
X20976134Y-17205508D02*
X20957087Y-17176936D01*
X20957087Y-17176936D02*
X20947563Y-17167412D01*
M02*
