M48
; DRILL file {KiCad 8.0.8} date 2025-01-25T01:21:04+0100
; FORMAT={-:-/ absolute / inch / decimal}
; #@! TF.CreationDate,2025-01-25T01:21:04+01:00
; #@! TF.GenerationSoftware,Kicad,Pcbnew,8.0.8
; #@! TF.FileFunction,Plated,1,4,PTH
FMAT,2
INCH
; #@! TA.AperFunction,Plated,PTH,ViaDrill
T1C0.0118
; #@! TA.AperFunction,Plated,PTH,ComponentDrill
T2C0.0118
; #@! TA.AperFunction,Plated,PTH,ComponentDrill
T3C0.0197
; #@! TA.AperFunction,Plated,PTH,ComponentDrill
T4C0.0236
; #@! TA.AperFunction,Plated,PTH,ComponentDrill
T5C0.0300
; #@! TA.AperFunction,Plated,PTH,ComponentDrill
T6C0.0394
; #@! TA.AperFunction,Plated,PTH,ComponentDrill
T7C0.0433
; #@! TA.AperFunction,Plated,PTH,ComponentDrill
T8C0.0472
; #@! TA.AperFunction,Plated,PTH,ComponentDrill
T9C0.1169
%
G90
G05
T1
X6.4173Y-2.4902
X6.4764Y-2.4803
X6.5059Y-2.4311
X6.5256Y-2.7461
X6.5276Y-4.9449
X6.5748Y-2.7461
X6.5827Y-3.063
X6.6339Y-2.7461
X6.6437Y-1.8307
X6.6624Y-2.4409
X6.685Y-4.4409
X6.6929Y-3.6299
X6.7028Y-1.8307
X6.7087Y-2.1102
X6.7224Y-3.0315
X6.7224Y-3.7402
X6.7293Y-2.31
X6.7717Y-1.8307
X6.7913Y-2.5591
X6.811Y-3.1339
X6.811Y-3.1339
X6.8189Y-3.6378
X6.8307Y-1.8307
X6.8425Y-4.8268
X6.8701Y-2.4193
X6.8701Y-3.4055
X6.874Y-3.0079
X6.8996Y-5.3858
X6.9872Y-2.5669
X6.9882Y-2.9232
X7.0Y-2.6417
X7.0276Y-2.8937
X7.0315Y-2.5669
X7.0394Y-3.3622
X7.0472Y-3.7894
X7.0709Y-2.9528
X7.0709Y-2.9921
X7.0831Y-2.5554
X7.0866Y-3.0866
X7.0945Y-3.622
X7.1024Y-5.4724
X7.126Y-3.0866
X7.126Y-3.6614
X7.1358Y-3.2283
X7.1358Y-3.8484
X7.1358Y-4.3996
X7.1496Y-2.4685
X7.1654Y-3.622
X7.1663Y-2.253
X7.1752Y-3.4094
X7.189Y-2.4685
X7.2598Y-1.9606
X7.2756Y-3.1654
X7.2795Y-3.3661
X7.2835Y-2.7717
X7.2835Y-3.435
X7.2913Y-2.0
X7.2913Y-2.6142
X7.2933Y-4.3898
X7.2992Y-2.315
X7.3031Y-2.8248
X7.3031Y-4.3406
X7.313Y-2.8839
X7.3346Y-2.315
X7.3386Y-2.6181
X7.372Y-2.7854
X7.3769Y-3.3514
X7.3858Y-2.9626
X7.3898Y-3.2008
X7.3917Y-2.5197
X7.4094Y-2.1181
X7.4173Y-3.6378
X7.4291Y-3.2362
X7.4409Y-3.4252
X7.4496Y-2.9358
X7.4606Y-4.0354
X7.4705Y-2.4016
X7.4803Y-3.4547
X7.4843Y-1.8465
X7.4902Y-2.5295
X7.5032Y-3.3624
X7.5276Y-3.6378
X7.5408Y-3.3657
X7.5591Y-5.4724
X7.5748Y-2.3307
X7.5778Y-3.9006
X7.5906Y-3.4488
X7.5906Y-3.5354
X7.6102Y-2.3307
X7.6127Y-3.6757
X7.628Y-3.9665
X7.6289Y-2.9828
X7.6289Y-3.4498
X7.6457Y-3.7244
X7.6535Y-3.1654
X7.6614Y-3.5433
X7.6772Y-1.6732
X7.6772Y-2.9528
X7.6827Y-2.6814
X7.6868Y-2.5691
X7.687Y-2.6083
X7.687Y-2.8642
X7.6872Y-2.6463
X7.6955Y-3.5916
X7.7244Y-2.4035
X7.7283Y-2.9488
X7.7311Y-3.6272
X7.7363Y-3.4232
X7.7419Y-2.561
X7.752Y-2.2283
X7.7559Y-4.1339
X7.7599Y-2.9724
X7.7717Y-3.4252
X7.7874Y-2.2283
X7.7953Y-2.9705
X7.815Y-4.2028
X7.8189Y-2.8189
X7.8266Y-3.025
X7.8445Y-2.9134
X7.8543Y-2.3327
X7.8562Y-2.3739
X7.8591Y-2.5638
X7.8642Y-3.8386
X7.8642Y-4.0354
X7.8642Y-5.0295
X7.8674Y-3.0328
X7.8839Y-2.998
X7.8855Y-3.0725
X7.8998Y-3.105
X7.9035Y-2.5617
X7.9055Y-3.5197
X7.9232Y-4.2421
X7.9252Y-3.0236
X7.9449Y-2.5906
X7.9449Y-5.0866
X7.949Y-3.9899
X7.9528Y-3.9469
X7.9607Y-2.6397
X7.962Y-3.3681
X7.9767Y-3.4003
X7.9843Y-3.5118
X7.9882Y-2.7047
X7.9961Y-3.1417
X8.0157Y-2.2844
X8.0217Y-2.2441
X8.0217Y-2.4311
X8.0315Y-2.3228
X8.0339Y-3.3795
X8.0514Y-2.4543
X8.0866Y-3.5433
X8.0996Y-2.2823
X8.1181Y-3.3898
X8.1201Y-3.0236
X8.1201Y-4.872
X8.1201Y-4.9213
X8.1339Y-4.1024
X8.1398Y-2.3622
X8.159Y-2.6067
X8.1594Y-1.8602
X8.1594Y-3.3898
X8.1654Y-3.6378
X8.1772Y-2.122
X8.1791Y-2.5768
X8.1811Y-3.2303
X8.189Y-3.9449
X8.1939Y-3.1841
X8.1969Y-3.3858
X8.2047Y-2.7638
X8.2098Y-2.7051
X8.2185Y-2.9793
X8.2205Y-2.9173
X8.2441Y-3.5748
X8.2598Y-3.0541
X8.2677Y-4.1535
X8.2758Y-3.3465
X8.2874Y-3.878
X8.2913Y-2.7323
X8.2913Y-3.6378
X8.2953Y-3.2795
X8.2972Y-2.6772
X8.3066Y-2.8982
X8.3268Y-3.0118
X8.3307Y-3.1811
X8.3329Y-2.748
X8.3346Y-3.2795
X8.3366Y-5.0197
X8.3661Y-4.6752
X8.3858Y-3.0079
X8.3919Y-2.5096
X8.3937Y-3.1811
X8.4055Y-4.0846
X8.4085Y-3.1193
X8.4154Y-3.6614
X8.4154Y-4.1437
X8.4449Y-2.3228
X8.4488Y-1.8415
X8.4488Y-3.1206
X8.4547Y-2.8445
X8.4646Y-4.8425
X8.4843Y-3.8287
X8.4882Y-4.1024
X8.4941Y-2.8445
X8.4941Y-3.8976
X8.4941Y-4.2746
X8.5039Y-3.6421
X8.5335Y-2.4409
X8.5375Y-2.8425
X8.5669Y-3.6697
X8.5669Y-4.9006
X8.5765Y-2.6974
X8.5925Y-5.0689
X8.5984Y-3.8287
X8.6303Y-2.7185
X8.6319Y-2.4114
X8.6378Y-1.6831
X8.6382Y-3.1264
X8.6558Y-2.7441
X8.6713Y-4.8327
X8.7008Y-2.5591
X8.7228Y-4.8781
X8.7244Y-4.1339
X8.7303Y-5.0197
X8.7559Y-3.1732
X8.7559Y-4.1673
X8.7697Y-2.5591
X8.7795Y-2.8051
X8.7795Y-4.0453
X8.7891Y-3.5101
X8.7894Y-3.2087
X8.8043Y-2.8327
X8.8051Y-4.5374
X8.8071Y-4.248
X8.8091Y-2.4409
X8.811Y-4.0709
X8.8425Y-2.3307
X8.8494Y-3.8986
X8.8583Y-4.0866
X8.8622Y-2.5551
X8.8661Y-4.2441
X8.8758Y-3.2498
X8.8898Y-3.1417
X8.8937Y-3.0039
X8.9055Y-3.6299
X8.9094Y-2.4724
X8.926Y-3.1189
X8.9272Y-3.751
X8.9567Y-2.9921
X8.9606Y-1.811
X8.9764Y-2.1181
X8.9764Y-4.0472
X8.9843Y-3.1969
X9.0059Y-2.4705
X9.0157Y-3.748
X9.0394Y-3.4567
X9.0551Y-2.5669
X9.0561Y-3.1978
X9.0638Y-5.0504
X9.065Y-5.0098
X9.0787Y-3.376
X9.1102Y-3.1969
X9.1142Y-2.5669
X9.1372Y-4.0846
X9.1417Y-3.6142
X9.1555Y-3.7795
X9.1724Y-4.0921
X9.1742Y-3.3858
X9.1742Y-3.5226
X9.1811Y-3.1969
X9.2175Y-3.777
X9.2421Y-4.1043
X9.252Y-4.0551
X9.253Y-3.7785
X9.2756Y-4.9764
X9.3031Y-4.0433
X9.3222Y-3.9329
X9.3307Y-3.9764
X9.3336Y-3.8994
T2
X9.126Y-3.9173
X9.1732Y-3.8701
X9.1732Y-3.9173
X9.1732Y-3.9646
X9.2205Y-3.9173
T5
X6.565Y-3.6614
X6.6634Y-2.0866
X6.6634Y-3.6614
X6.7618Y-3.6614
X6.8602Y-2.0866
X6.8602Y-3.6614
X7.2736Y-3.6614
X7.372Y-2.0866
X7.372Y-3.6614
X7.4705Y-3.6614
X7.5689Y-2.0866
X7.5689Y-3.6614
X8.0315Y-3.6614
X8.1299Y-2.0866
X8.1299Y-3.6614
X8.2283Y-3.6614
X8.3268Y-2.0866
X8.3268Y-3.6614
X8.8386Y-3.6614
X8.937Y-2.0866
X8.937Y-3.6614
X9.0354Y-3.6614
X9.1339Y-2.0866
X9.1339Y-3.6614
T6
X6.5339Y-1.6421
X6.5339Y-1.7421
X6.5945Y-4.4457
X6.5945Y-4.5457
X6.5945Y-4.6457
X6.5945Y-4.7457
X6.5945Y-4.8457
X6.5945Y-4.9457
X6.6339Y-1.6421
X6.6339Y-1.7421
X6.7339Y-1.6421
X6.7339Y-1.7421
X6.8339Y-1.6421
X6.8339Y-1.7421
X6.9339Y-1.6421
X6.9339Y-1.7421
X9.0157Y-1.6093
X9.0157Y-1.7093
X9.0157Y-1.8093
T7
X7.185Y-1.6043
X7.185Y-1.7815
X7.4409Y-1.6043
X7.4409Y-1.7815
X8.1594Y-1.6043
X8.1594Y-1.7815
X8.4154Y-1.6043
X8.4154Y-1.7815
T8
X7.0276Y-4.9006
X7.1063Y-4.9006
X7.185Y-4.9006
X7.2638Y-4.9006
X7.3425Y-4.9006
X7.4213Y-4.9006
T9
X6.9961Y-4.4675
X7.4528Y-4.4675
T3
G00X7.3622Y-5.5646
M15
G01X7.3228Y-5.5646
M16
G05
G00X7.7559Y-4.3339
M15
G01X7.7953Y-4.3339
M16
G05
G00X7.7953Y-5.5646
M15
G01X7.7559Y-5.5646
M16
G05
G00X8.189Y-4.3339
M15
G01X8.2283Y-4.3339
M16
G05
G00X8.2283Y-5.5646
M15
G01X8.189Y-5.5646
M16
G05
G00X8.622Y-4.3339
M15
G01X8.6614Y-4.3339
M16
G05
G00X8.6614Y-5.5646
M15
G01X8.622Y-5.5646
M16
G05
G00X9.0551Y-4.3339
M15
G01X9.0945Y-4.3339
M16
G05
G00X9.0945Y-5.5646
M15
G01X9.0551Y-5.5646
M16
G05
T4
G00X7.3563Y-5.1157
M15
G01X7.3287Y-5.1157
M16
G05
G00X7.3602Y-5.2378
M15
G01X7.3248Y-5.2378
M16
G05
G00X7.7579Y-4.6606
M15
G01X7.7933Y-4.6606
M16
G05
G00X7.7618Y-4.7827
M15
G01X7.7894Y-4.7827
M16
G05
G00X7.7894Y-5.1157
M15
G01X7.7618Y-5.1157
M16
G05
G00X7.7933Y-5.2378
M15
G01X7.7579Y-5.2378
M16
G05
G00X8.1909Y-4.6606
M15
G01X8.2264Y-4.6606
M16
G05
G00X8.1949Y-4.7827
M15
G01X8.2224Y-4.7827
M16
G05
G00X8.2224Y-5.1157
M15
G01X8.1949Y-5.1157
M16
G05
G00X8.2264Y-5.2378
M15
G01X8.1909Y-5.2378
M16
G05
G00X8.624Y-4.6606
M15
G01X8.6594Y-4.6606
M16
G05
G00X8.628Y-4.7827
M15
G01X8.6555Y-4.7827
M16
G05
G00X8.6555Y-5.1157
M15
G01X8.628Y-5.1157
M16
G05
G00X8.6594Y-5.2378
M15
G01X8.624Y-5.2378
M16
G05
G00X9.0571Y-4.6606
M15
G01X9.0925Y-4.6606
M16
G05
G00X9.061Y-4.7827
M15
G01X9.0886Y-4.7827
M16
G05
G00X9.0886Y-5.1157
M15
G01X9.061Y-5.1157
M16
G05
G00X9.0925Y-5.2378
M15
G01X9.0571Y-5.2378
M16
G05
M30
