%TF.GenerationSoftware,KiCad,Pcbnew,8.0.8*%
%TF.CreationDate,2025-01-25T01:21:00+01:00*%
%TF.ProjectId,aware01_h7,61776172-6530-4315-9f68-372e6b696361,rev?*%
%TF.SameCoordinates,Original*%
%TF.FileFunction,Legend,Top*%
%TF.FilePolarity,Positive*%
%FSLAX46Y46*%
G04 Gerber Fmt 4.6, Leading zero omitted, Abs format (unit mm)*
G04 Created by KiCad (PCBNEW 8.0.8) date 2025-01-25 01:21:00*
%MOMM*%
%LPD*%
G01*
G04 APERTURE LIST*
%ADD10C,0.100000*%
%ADD11C,0.150000*%
%ADD12C,0.254000*%
%ADD13C,0.120000*%
%ADD14C,0.127000*%
%ADD15C,0.200000*%
G04 APERTURE END LIST*
D10*
X181738095Y-93457419D02*
X181738095Y-94266942D01*
X181738095Y-94266942D02*
X181785714Y-94362180D01*
X181785714Y-94362180D02*
X181833333Y-94409800D01*
X181833333Y-94409800D02*
X181928571Y-94457419D01*
X181928571Y-94457419D02*
X182119047Y-94457419D01*
X182119047Y-94457419D02*
X182214285Y-94409800D01*
X182214285Y-94409800D02*
X182261904Y-94362180D01*
X182261904Y-94362180D02*
X182309523Y-94266942D01*
X182309523Y-94266942D02*
X182309523Y-93457419D01*
X183214285Y-93790752D02*
X183214285Y-94457419D01*
X182976190Y-93409800D02*
X182738095Y-94124085D01*
X182738095Y-94124085D02*
X183357142Y-94124085D01*
X221488095Y-93457419D02*
X221488095Y-94266942D01*
X221488095Y-94266942D02*
X221535714Y-94362180D01*
X221535714Y-94362180D02*
X221583333Y-94409800D01*
X221583333Y-94409800D02*
X221678571Y-94457419D01*
X221678571Y-94457419D02*
X221869047Y-94457419D01*
X221869047Y-94457419D02*
X221964285Y-94409800D01*
X221964285Y-94409800D02*
X222011904Y-94362180D01*
X222011904Y-94362180D02*
X222059523Y-94266942D01*
X222059523Y-94266942D02*
X222059523Y-93457419D01*
X222964285Y-93457419D02*
X222773809Y-93457419D01*
X222773809Y-93457419D02*
X222678571Y-93505038D01*
X222678571Y-93505038D02*
X222630952Y-93552657D01*
X222630952Y-93552657D02*
X222535714Y-93695514D01*
X222535714Y-93695514D02*
X222488095Y-93885990D01*
X222488095Y-93885990D02*
X222488095Y-94266942D01*
X222488095Y-94266942D02*
X222535714Y-94362180D01*
X222535714Y-94362180D02*
X222583333Y-94409800D01*
X222583333Y-94409800D02*
X222678571Y-94457419D01*
X222678571Y-94457419D02*
X222869047Y-94457419D01*
X222869047Y-94457419D02*
X222964285Y-94409800D01*
X222964285Y-94409800D02*
X223011904Y-94362180D01*
X223011904Y-94362180D02*
X223059523Y-94266942D01*
X223059523Y-94266942D02*
X223059523Y-94028847D01*
X223059523Y-94028847D02*
X223011904Y-93933609D01*
X223011904Y-93933609D02*
X222964285Y-93885990D01*
X222964285Y-93885990D02*
X222869047Y-93838371D01*
X222869047Y-93838371D02*
X222678571Y-93838371D01*
X222678571Y-93838371D02*
X222583333Y-93885990D01*
X222583333Y-93885990D02*
X222535714Y-93933609D01*
X222535714Y-93933609D02*
X222488095Y-94028847D01*
D11*
X193539580Y-46392857D02*
X193587200Y-46440476D01*
X193587200Y-46440476D02*
X193634819Y-46583333D01*
X193634819Y-46583333D02*
X193634819Y-46678571D01*
X193634819Y-46678571D02*
X193587200Y-46821428D01*
X193587200Y-46821428D02*
X193491961Y-46916666D01*
X193491961Y-46916666D02*
X193396723Y-46964285D01*
X193396723Y-46964285D02*
X193206247Y-47011904D01*
X193206247Y-47011904D02*
X193063390Y-47011904D01*
X193063390Y-47011904D02*
X192872914Y-46964285D01*
X192872914Y-46964285D02*
X192777676Y-46916666D01*
X192777676Y-46916666D02*
X192682438Y-46821428D01*
X192682438Y-46821428D02*
X192634819Y-46678571D01*
X192634819Y-46678571D02*
X192634819Y-46583333D01*
X192634819Y-46583333D02*
X192682438Y-46440476D01*
X192682438Y-46440476D02*
X192730057Y-46392857D01*
X193634819Y-45440476D02*
X193634819Y-46011904D01*
X193634819Y-45726190D02*
X192634819Y-45726190D01*
X192634819Y-45726190D02*
X192777676Y-45821428D01*
X192777676Y-45821428D02*
X192872914Y-45916666D01*
X192872914Y-45916666D02*
X192920533Y-46011904D01*
X192634819Y-44535714D02*
X192634819Y-45011904D01*
X192634819Y-45011904D02*
X193111009Y-45059523D01*
X193111009Y-45059523D02*
X193063390Y-45011904D01*
X193063390Y-45011904D02*
X193015771Y-44916666D01*
X193015771Y-44916666D02*
X193015771Y-44678571D01*
X193015771Y-44678571D02*
X193063390Y-44583333D01*
X193063390Y-44583333D02*
X193111009Y-44535714D01*
X193111009Y-44535714D02*
X193206247Y-44488095D01*
X193206247Y-44488095D02*
X193444342Y-44488095D01*
X193444342Y-44488095D02*
X193539580Y-44535714D01*
X193539580Y-44535714D02*
X193587200Y-44583333D01*
X193587200Y-44583333D02*
X193634819Y-44678571D01*
X193634819Y-44678571D02*
X193634819Y-44916666D01*
X193634819Y-44916666D02*
X193587200Y-45011904D01*
X193587200Y-45011904D02*
X193539580Y-45059523D01*
X214166666Y-140794819D02*
X214166666Y-141509104D01*
X214166666Y-141509104D02*
X214119047Y-141651961D01*
X214119047Y-141651961D02*
X214023809Y-141747200D01*
X214023809Y-141747200D02*
X213880952Y-141794819D01*
X213880952Y-141794819D02*
X213785714Y-141794819D01*
X214690476Y-141794819D02*
X214880952Y-141794819D01*
X214880952Y-141794819D02*
X214976190Y-141747200D01*
X214976190Y-141747200D02*
X215023809Y-141699580D01*
X215023809Y-141699580D02*
X215119047Y-141556723D01*
X215119047Y-141556723D02*
X215166666Y-141366247D01*
X215166666Y-141366247D02*
X215166666Y-140985295D01*
X215166666Y-140985295D02*
X215119047Y-140890057D01*
X215119047Y-140890057D02*
X215071428Y-140842438D01*
X215071428Y-140842438D02*
X214976190Y-140794819D01*
X214976190Y-140794819D02*
X214785714Y-140794819D01*
X214785714Y-140794819D02*
X214690476Y-140842438D01*
X214690476Y-140842438D02*
X214642857Y-140890057D01*
X214642857Y-140890057D02*
X214595238Y-140985295D01*
X214595238Y-140985295D02*
X214595238Y-141223390D01*
X214595238Y-141223390D02*
X214642857Y-141318628D01*
X214642857Y-141318628D02*
X214690476Y-141366247D01*
X214690476Y-141366247D02*
X214785714Y-141413866D01*
X214785714Y-141413866D02*
X214976190Y-141413866D01*
X214976190Y-141413866D02*
X215071428Y-141366247D01*
X215071428Y-141366247D02*
X215119047Y-141318628D01*
X215119047Y-141318628D02*
X215166666Y-141223390D01*
X217857142Y-47109580D02*
X217809523Y-47157200D01*
X217809523Y-47157200D02*
X217666666Y-47204819D01*
X217666666Y-47204819D02*
X217571428Y-47204819D01*
X217571428Y-47204819D02*
X217428571Y-47157200D01*
X217428571Y-47157200D02*
X217333333Y-47061961D01*
X217333333Y-47061961D02*
X217285714Y-46966723D01*
X217285714Y-46966723D02*
X217238095Y-46776247D01*
X217238095Y-46776247D02*
X217238095Y-46633390D01*
X217238095Y-46633390D02*
X217285714Y-46442914D01*
X217285714Y-46442914D02*
X217333333Y-46347676D01*
X217333333Y-46347676D02*
X217428571Y-46252438D01*
X217428571Y-46252438D02*
X217571428Y-46204819D01*
X217571428Y-46204819D02*
X217666666Y-46204819D01*
X217666666Y-46204819D02*
X217809523Y-46252438D01*
X217809523Y-46252438D02*
X217857142Y-46300057D01*
X218809523Y-47204819D02*
X218238095Y-47204819D01*
X218523809Y-47204819D02*
X218523809Y-46204819D01*
X218523809Y-46204819D02*
X218428571Y-46347676D01*
X218428571Y-46347676D02*
X218333333Y-46442914D01*
X218333333Y-46442914D02*
X218238095Y-46490533D01*
X219666666Y-46204819D02*
X219476190Y-46204819D01*
X219476190Y-46204819D02*
X219380952Y-46252438D01*
X219380952Y-46252438D02*
X219333333Y-46300057D01*
X219333333Y-46300057D02*
X219238095Y-46442914D01*
X219238095Y-46442914D02*
X219190476Y-46633390D01*
X219190476Y-46633390D02*
X219190476Y-47014342D01*
X219190476Y-47014342D02*
X219238095Y-47109580D01*
X219238095Y-47109580D02*
X219285714Y-47157200D01*
X219285714Y-47157200D02*
X219380952Y-47204819D01*
X219380952Y-47204819D02*
X219571428Y-47204819D01*
X219571428Y-47204819D02*
X219666666Y-47157200D01*
X219666666Y-47157200D02*
X219714285Y-47109580D01*
X219714285Y-47109580D02*
X219761904Y-47014342D01*
X219761904Y-47014342D02*
X219761904Y-46776247D01*
X219761904Y-46776247D02*
X219714285Y-46681009D01*
X219714285Y-46681009D02*
X219666666Y-46633390D01*
X219666666Y-46633390D02*
X219571428Y-46585771D01*
X219571428Y-46585771D02*
X219380952Y-46585771D01*
X219380952Y-46585771D02*
X219285714Y-46633390D01*
X219285714Y-46633390D02*
X219238095Y-46681009D01*
X219238095Y-46681009D02*
X219190476Y-46776247D01*
X209166667Y-47657200D02*
X209309524Y-47704819D01*
X209309524Y-47704819D02*
X209547619Y-47704819D01*
X209547619Y-47704819D02*
X209642857Y-47657200D01*
X209642857Y-47657200D02*
X209690476Y-47609580D01*
X209690476Y-47609580D02*
X209738095Y-47514342D01*
X209738095Y-47514342D02*
X209738095Y-47419104D01*
X209738095Y-47419104D02*
X209690476Y-47323866D01*
X209690476Y-47323866D02*
X209642857Y-47276247D01*
X209642857Y-47276247D02*
X209547619Y-47228628D01*
X209547619Y-47228628D02*
X209357143Y-47181009D01*
X209357143Y-47181009D02*
X209261905Y-47133390D01*
X209261905Y-47133390D02*
X209214286Y-47085771D01*
X209214286Y-47085771D02*
X209166667Y-46990533D01*
X209166667Y-46990533D02*
X209166667Y-46895295D01*
X209166667Y-46895295D02*
X209214286Y-46800057D01*
X209214286Y-46800057D02*
X209261905Y-46752438D01*
X209261905Y-46752438D02*
X209357143Y-46704819D01*
X209357143Y-46704819D02*
X209595238Y-46704819D01*
X209595238Y-46704819D02*
X209738095Y-46752438D01*
X210071429Y-46704819D02*
X210309524Y-47704819D01*
X210309524Y-47704819D02*
X210500000Y-46990533D01*
X210500000Y-46990533D02*
X210690476Y-47704819D01*
X210690476Y-47704819D02*
X210928572Y-46704819D01*
X211214286Y-46704819D02*
X211833333Y-46704819D01*
X211833333Y-46704819D02*
X211500000Y-47085771D01*
X211500000Y-47085771D02*
X211642857Y-47085771D01*
X211642857Y-47085771D02*
X211738095Y-47133390D01*
X211738095Y-47133390D02*
X211785714Y-47181009D01*
X211785714Y-47181009D02*
X211833333Y-47276247D01*
X211833333Y-47276247D02*
X211833333Y-47514342D01*
X211833333Y-47514342D02*
X211785714Y-47609580D01*
X211785714Y-47609580D02*
X211738095Y-47657200D01*
X211738095Y-47657200D02*
X211642857Y-47704819D01*
X211642857Y-47704819D02*
X211357143Y-47704819D01*
X211357143Y-47704819D02*
X211261905Y-47657200D01*
X211261905Y-47657200D02*
X211214286Y-47609580D01*
D12*
X181836905Y-115804318D02*
X182260238Y-117074318D01*
X182260238Y-117074318D02*
X182683572Y-115804318D01*
X183832619Y-117074318D02*
X183409285Y-116469556D01*
X183106904Y-117074318D02*
X183106904Y-115804318D01*
X183106904Y-115804318D02*
X183590714Y-115804318D01*
X183590714Y-115804318D02*
X183711666Y-115864794D01*
X183711666Y-115864794D02*
X183772143Y-115925270D01*
X183772143Y-115925270D02*
X183832619Y-116046222D01*
X183832619Y-116046222D02*
X183832619Y-116227651D01*
X183832619Y-116227651D02*
X183772143Y-116348603D01*
X183772143Y-116348603D02*
X183711666Y-116409080D01*
X183711666Y-116409080D02*
X183590714Y-116469556D01*
X183590714Y-116469556D02*
X183106904Y-116469556D01*
X185042143Y-117074318D02*
X184316428Y-117074318D01*
X184679285Y-117074318D02*
X184679285Y-115804318D01*
X184679285Y-115804318D02*
X184558333Y-115985746D01*
X184558333Y-115985746D02*
X184437381Y-116106699D01*
X184437381Y-116106699D02*
X184316428Y-116167175D01*
D10*
X163738095Y-93457419D02*
X163738095Y-94266942D01*
X163738095Y-94266942D02*
X163785714Y-94362180D01*
X163785714Y-94362180D02*
X163833333Y-94409800D01*
X163833333Y-94409800D02*
X163928571Y-94457419D01*
X163928571Y-94457419D02*
X164119047Y-94457419D01*
X164119047Y-94457419D02*
X164214285Y-94409800D01*
X164214285Y-94409800D02*
X164261904Y-94362180D01*
X164261904Y-94362180D02*
X164309523Y-94266942D01*
X164309523Y-94266942D02*
X164309523Y-93457419D01*
X164690476Y-93457419D02*
X165309523Y-93457419D01*
X165309523Y-93457419D02*
X164976190Y-93838371D01*
X164976190Y-93838371D02*
X165119047Y-93838371D01*
X165119047Y-93838371D02*
X165214285Y-93885990D01*
X165214285Y-93885990D02*
X165261904Y-93933609D01*
X165261904Y-93933609D02*
X165309523Y-94028847D01*
X165309523Y-94028847D02*
X165309523Y-94266942D01*
X165309523Y-94266942D02*
X165261904Y-94362180D01*
X165261904Y-94362180D02*
X165214285Y-94409800D01*
X165214285Y-94409800D02*
X165119047Y-94457419D01*
X165119047Y-94457419D02*
X164833333Y-94457419D01*
X164833333Y-94457419D02*
X164738095Y-94409800D01*
X164738095Y-94409800D02*
X164690476Y-94362180D01*
D11*
X192583333Y-44384819D02*
X192250000Y-43908628D01*
X192011905Y-44384819D02*
X192011905Y-43384819D01*
X192011905Y-43384819D02*
X192392857Y-43384819D01*
X192392857Y-43384819D02*
X192488095Y-43432438D01*
X192488095Y-43432438D02*
X192535714Y-43480057D01*
X192535714Y-43480057D02*
X192583333Y-43575295D01*
X192583333Y-43575295D02*
X192583333Y-43718152D01*
X192583333Y-43718152D02*
X192535714Y-43813390D01*
X192535714Y-43813390D02*
X192488095Y-43861009D01*
X192488095Y-43861009D02*
X192392857Y-43908628D01*
X192392857Y-43908628D02*
X192011905Y-43908628D01*
X192964286Y-43480057D02*
X193011905Y-43432438D01*
X193011905Y-43432438D02*
X193107143Y-43384819D01*
X193107143Y-43384819D02*
X193345238Y-43384819D01*
X193345238Y-43384819D02*
X193440476Y-43432438D01*
X193440476Y-43432438D02*
X193488095Y-43480057D01*
X193488095Y-43480057D02*
X193535714Y-43575295D01*
X193535714Y-43575295D02*
X193535714Y-43670533D01*
X193535714Y-43670533D02*
X193488095Y-43813390D01*
X193488095Y-43813390D02*
X192916667Y-44384819D01*
X192916667Y-44384819D02*
X193535714Y-44384819D01*
X233190476Y-107454819D02*
X233190476Y-108169104D01*
X233190476Y-108169104D02*
X233142857Y-108311961D01*
X233142857Y-108311961D02*
X233047619Y-108407200D01*
X233047619Y-108407200D02*
X232904762Y-108454819D01*
X232904762Y-108454819D02*
X232809524Y-108454819D01*
X234190476Y-108454819D02*
X233619048Y-108454819D01*
X233904762Y-108454819D02*
X233904762Y-107454819D01*
X233904762Y-107454819D02*
X233809524Y-107597676D01*
X233809524Y-107597676D02*
X233714286Y-107692914D01*
X233714286Y-107692914D02*
X233619048Y-107740533D01*
X234523810Y-107454819D02*
X235142857Y-107454819D01*
X235142857Y-107454819D02*
X234809524Y-107835771D01*
X234809524Y-107835771D02*
X234952381Y-107835771D01*
X234952381Y-107835771D02*
X235047619Y-107883390D01*
X235047619Y-107883390D02*
X235095238Y-107931009D01*
X235095238Y-107931009D02*
X235142857Y-108026247D01*
X235142857Y-108026247D02*
X235142857Y-108264342D01*
X235142857Y-108264342D02*
X235095238Y-108359580D01*
X235095238Y-108359580D02*
X235047619Y-108407200D01*
X235047619Y-108407200D02*
X234952381Y-108454819D01*
X234952381Y-108454819D02*
X234666667Y-108454819D01*
X234666667Y-108454819D02*
X234571429Y-108407200D01*
X234571429Y-108407200D02*
X234523810Y-108359580D01*
X231491666Y-143009819D02*
X231491666Y-143724104D01*
X231491666Y-143724104D02*
X231444047Y-143866961D01*
X231444047Y-143866961D02*
X231348809Y-143962200D01*
X231348809Y-143962200D02*
X231205952Y-144009819D01*
X231205952Y-144009819D02*
X231110714Y-144009819D01*
X232110714Y-143438390D02*
X232015476Y-143390771D01*
X232015476Y-143390771D02*
X231967857Y-143343152D01*
X231967857Y-143343152D02*
X231920238Y-143247914D01*
X231920238Y-143247914D02*
X231920238Y-143200295D01*
X231920238Y-143200295D02*
X231967857Y-143105057D01*
X231967857Y-143105057D02*
X232015476Y-143057438D01*
X232015476Y-143057438D02*
X232110714Y-143009819D01*
X232110714Y-143009819D02*
X232301190Y-143009819D01*
X232301190Y-143009819D02*
X232396428Y-143057438D01*
X232396428Y-143057438D02*
X232444047Y-143105057D01*
X232444047Y-143105057D02*
X232491666Y-143200295D01*
X232491666Y-143200295D02*
X232491666Y-143247914D01*
X232491666Y-143247914D02*
X232444047Y-143343152D01*
X232444047Y-143343152D02*
X232396428Y-143390771D01*
X232396428Y-143390771D02*
X232301190Y-143438390D01*
X232301190Y-143438390D02*
X232110714Y-143438390D01*
X232110714Y-143438390D02*
X232015476Y-143486009D01*
X232015476Y-143486009D02*
X231967857Y-143533628D01*
X231967857Y-143533628D02*
X231920238Y-143628866D01*
X231920238Y-143628866D02*
X231920238Y-143819342D01*
X231920238Y-143819342D02*
X231967857Y-143914580D01*
X231967857Y-143914580D02*
X232015476Y-143962200D01*
X232015476Y-143962200D02*
X232110714Y-144009819D01*
X232110714Y-144009819D02*
X232301190Y-144009819D01*
X232301190Y-144009819D02*
X232396428Y-143962200D01*
X232396428Y-143962200D02*
X232444047Y-143914580D01*
X232444047Y-143914580D02*
X232491666Y-143819342D01*
X232491666Y-143819342D02*
X232491666Y-143628866D01*
X232491666Y-143628866D02*
X232444047Y-143533628D01*
X232444047Y-143533628D02*
X232396428Y-143486009D01*
X232396428Y-143486009D02*
X232301190Y-143438390D01*
X210666666Y-108204819D02*
X210666666Y-108919104D01*
X210666666Y-108919104D02*
X210619047Y-109061961D01*
X210619047Y-109061961D02*
X210523809Y-109157200D01*
X210523809Y-109157200D02*
X210380952Y-109204819D01*
X210380952Y-109204819D02*
X210285714Y-109204819D01*
X211571428Y-108538152D02*
X211571428Y-109204819D01*
X211333333Y-108157200D02*
X211095238Y-108871485D01*
X211095238Y-108871485D02*
X211714285Y-108871485D01*
X217083333Y-44634819D02*
X216750000Y-44158628D01*
X216511905Y-44634819D02*
X216511905Y-43634819D01*
X216511905Y-43634819D02*
X216892857Y-43634819D01*
X216892857Y-43634819D02*
X216988095Y-43682438D01*
X216988095Y-43682438D02*
X217035714Y-43730057D01*
X217035714Y-43730057D02*
X217083333Y-43825295D01*
X217083333Y-43825295D02*
X217083333Y-43968152D01*
X217083333Y-43968152D02*
X217035714Y-44063390D01*
X217035714Y-44063390D02*
X216988095Y-44111009D01*
X216988095Y-44111009D02*
X216892857Y-44158628D01*
X216892857Y-44158628D02*
X216511905Y-44158628D01*
X217416667Y-43634819D02*
X218035714Y-43634819D01*
X218035714Y-43634819D02*
X217702381Y-44015771D01*
X217702381Y-44015771D02*
X217845238Y-44015771D01*
X217845238Y-44015771D02*
X217940476Y-44063390D01*
X217940476Y-44063390D02*
X217988095Y-44111009D01*
X217988095Y-44111009D02*
X218035714Y-44206247D01*
X218035714Y-44206247D02*
X218035714Y-44444342D01*
X218035714Y-44444342D02*
X217988095Y-44539580D01*
X217988095Y-44539580D02*
X217940476Y-44587200D01*
X217940476Y-44587200D02*
X217845238Y-44634819D01*
X217845238Y-44634819D02*
X217559524Y-44634819D01*
X217559524Y-44634819D02*
X217464286Y-44587200D01*
X217464286Y-44587200D02*
X217416667Y-44539580D01*
X187491666Y-143009819D02*
X187491666Y-143724104D01*
X187491666Y-143724104D02*
X187444047Y-143866961D01*
X187444047Y-143866961D02*
X187348809Y-143962200D01*
X187348809Y-143962200D02*
X187205952Y-144009819D01*
X187205952Y-144009819D02*
X187110714Y-144009819D01*
X188444047Y-143009819D02*
X187967857Y-143009819D01*
X187967857Y-143009819D02*
X187920238Y-143486009D01*
X187920238Y-143486009D02*
X187967857Y-143438390D01*
X187967857Y-143438390D02*
X188063095Y-143390771D01*
X188063095Y-143390771D02*
X188301190Y-143390771D01*
X188301190Y-143390771D02*
X188396428Y-143438390D01*
X188396428Y-143438390D02*
X188444047Y-143486009D01*
X188444047Y-143486009D02*
X188491666Y-143581247D01*
X188491666Y-143581247D02*
X188491666Y-143819342D01*
X188491666Y-143819342D02*
X188444047Y-143914580D01*
X188444047Y-143914580D02*
X188396428Y-143962200D01*
X188396428Y-143962200D02*
X188301190Y-144009819D01*
X188301190Y-144009819D02*
X188063095Y-144009819D01*
X188063095Y-144009819D02*
X187967857Y-143962200D01*
X187967857Y-143962200D02*
X187920238Y-143914580D01*
X193190476Y-107454819D02*
X193190476Y-108169104D01*
X193190476Y-108169104D02*
X193142857Y-108311961D01*
X193142857Y-108311961D02*
X193047619Y-108407200D01*
X193047619Y-108407200D02*
X192904762Y-108454819D01*
X192904762Y-108454819D02*
X192809524Y-108454819D01*
X194190476Y-108454819D02*
X193619048Y-108454819D01*
X193904762Y-108454819D02*
X193904762Y-107454819D01*
X193904762Y-107454819D02*
X193809524Y-107597676D01*
X193809524Y-107597676D02*
X193714286Y-107692914D01*
X193714286Y-107692914D02*
X193619048Y-107740533D01*
X195142857Y-108454819D02*
X194571429Y-108454819D01*
X194857143Y-108454819D02*
X194857143Y-107454819D01*
X194857143Y-107454819D02*
X194761905Y-107597676D01*
X194761905Y-107597676D02*
X194666667Y-107692914D01*
X194666667Y-107692914D02*
X194571429Y-107740533D01*
X198491666Y-143009819D02*
X198491666Y-143724104D01*
X198491666Y-143724104D02*
X198444047Y-143866961D01*
X198444047Y-143866961D02*
X198348809Y-143962200D01*
X198348809Y-143962200D02*
X198205952Y-144009819D01*
X198205952Y-144009819D02*
X198110714Y-144009819D01*
X198872619Y-143009819D02*
X199539285Y-143009819D01*
X199539285Y-143009819D02*
X199110714Y-144009819D01*
D10*
X200988095Y-93457419D02*
X200988095Y-94266942D01*
X200988095Y-94266942D02*
X201035714Y-94362180D01*
X201035714Y-94362180D02*
X201083333Y-94409800D01*
X201083333Y-94409800D02*
X201178571Y-94457419D01*
X201178571Y-94457419D02*
X201369047Y-94457419D01*
X201369047Y-94457419D02*
X201464285Y-94409800D01*
X201464285Y-94409800D02*
X201511904Y-94362180D01*
X201511904Y-94362180D02*
X201559523Y-94266942D01*
X201559523Y-94266942D02*
X201559523Y-93457419D01*
X202511904Y-93457419D02*
X202035714Y-93457419D01*
X202035714Y-93457419D02*
X201988095Y-93933609D01*
X201988095Y-93933609D02*
X202035714Y-93885990D01*
X202035714Y-93885990D02*
X202130952Y-93838371D01*
X202130952Y-93838371D02*
X202369047Y-93838371D01*
X202369047Y-93838371D02*
X202464285Y-93885990D01*
X202464285Y-93885990D02*
X202511904Y-93933609D01*
X202511904Y-93933609D02*
X202559523Y-94028847D01*
X202559523Y-94028847D02*
X202559523Y-94266942D01*
X202559523Y-94266942D02*
X202511904Y-94362180D01*
X202511904Y-94362180D02*
X202464285Y-94409800D01*
X202464285Y-94409800D02*
X202369047Y-94457419D01*
X202369047Y-94457419D02*
X202130952Y-94457419D01*
X202130952Y-94457419D02*
X202035714Y-94409800D01*
X202035714Y-94409800D02*
X201988095Y-94362180D01*
D11*
X184416667Y-47657200D02*
X184559524Y-47704819D01*
X184559524Y-47704819D02*
X184797619Y-47704819D01*
X184797619Y-47704819D02*
X184892857Y-47657200D01*
X184892857Y-47657200D02*
X184940476Y-47609580D01*
X184940476Y-47609580D02*
X184988095Y-47514342D01*
X184988095Y-47514342D02*
X184988095Y-47419104D01*
X184988095Y-47419104D02*
X184940476Y-47323866D01*
X184940476Y-47323866D02*
X184892857Y-47276247D01*
X184892857Y-47276247D02*
X184797619Y-47228628D01*
X184797619Y-47228628D02*
X184607143Y-47181009D01*
X184607143Y-47181009D02*
X184511905Y-47133390D01*
X184511905Y-47133390D02*
X184464286Y-47085771D01*
X184464286Y-47085771D02*
X184416667Y-46990533D01*
X184416667Y-46990533D02*
X184416667Y-46895295D01*
X184416667Y-46895295D02*
X184464286Y-46800057D01*
X184464286Y-46800057D02*
X184511905Y-46752438D01*
X184511905Y-46752438D02*
X184607143Y-46704819D01*
X184607143Y-46704819D02*
X184845238Y-46704819D01*
X184845238Y-46704819D02*
X184988095Y-46752438D01*
X185321429Y-46704819D02*
X185559524Y-47704819D01*
X185559524Y-47704819D02*
X185750000Y-46990533D01*
X185750000Y-46990533D02*
X185940476Y-47704819D01*
X185940476Y-47704819D02*
X186178572Y-46704819D01*
X186511905Y-46800057D02*
X186559524Y-46752438D01*
X186559524Y-46752438D02*
X186654762Y-46704819D01*
X186654762Y-46704819D02*
X186892857Y-46704819D01*
X186892857Y-46704819D02*
X186988095Y-46752438D01*
X186988095Y-46752438D02*
X187035714Y-46800057D01*
X187035714Y-46800057D02*
X187083333Y-46895295D01*
X187083333Y-46895295D02*
X187083333Y-46990533D01*
X187083333Y-46990533D02*
X187035714Y-47133390D01*
X187035714Y-47133390D02*
X186464286Y-47704819D01*
X186464286Y-47704819D02*
X187083333Y-47704819D01*
X220015476Y-143009819D02*
X220015476Y-143724104D01*
X220015476Y-143724104D02*
X219967857Y-143866961D01*
X219967857Y-143866961D02*
X219872619Y-143962200D01*
X219872619Y-143962200D02*
X219729762Y-144009819D01*
X219729762Y-144009819D02*
X219634524Y-144009819D01*
X221015476Y-144009819D02*
X220444048Y-144009819D01*
X220729762Y-144009819D02*
X220729762Y-143009819D01*
X220729762Y-143009819D02*
X220634524Y-143152676D01*
X220634524Y-143152676D02*
X220539286Y-143247914D01*
X220539286Y-143247914D02*
X220444048Y-143295533D01*
X221634524Y-143009819D02*
X221729762Y-143009819D01*
X221729762Y-143009819D02*
X221825000Y-143057438D01*
X221825000Y-143057438D02*
X221872619Y-143105057D01*
X221872619Y-143105057D02*
X221920238Y-143200295D01*
X221920238Y-143200295D02*
X221967857Y-143390771D01*
X221967857Y-143390771D02*
X221967857Y-143628866D01*
X221967857Y-143628866D02*
X221920238Y-143819342D01*
X221920238Y-143819342D02*
X221872619Y-143914580D01*
X221872619Y-143914580D02*
X221825000Y-143962200D01*
X221825000Y-143962200D02*
X221729762Y-144009819D01*
X221729762Y-144009819D02*
X221634524Y-144009819D01*
X221634524Y-144009819D02*
X221539286Y-143962200D01*
X221539286Y-143962200D02*
X221491667Y-143914580D01*
X221491667Y-143914580D02*
X221444048Y-143819342D01*
X221444048Y-143819342D02*
X221396429Y-143628866D01*
X221396429Y-143628866D02*
X221396429Y-143390771D01*
X221396429Y-143390771D02*
X221444048Y-143200295D01*
X221444048Y-143200295D02*
X221491667Y-143105057D01*
X221491667Y-143105057D02*
X221539286Y-143057438D01*
X221539286Y-143057438D02*
X221634524Y-143009819D01*
X215416666Y-106954819D02*
X215416666Y-107669104D01*
X215416666Y-107669104D02*
X215369047Y-107811961D01*
X215369047Y-107811961D02*
X215273809Y-107907200D01*
X215273809Y-107907200D02*
X215130952Y-107954819D01*
X215130952Y-107954819D02*
X215035714Y-107954819D01*
X216321428Y-106954819D02*
X216130952Y-106954819D01*
X216130952Y-106954819D02*
X216035714Y-107002438D01*
X216035714Y-107002438D02*
X215988095Y-107050057D01*
X215988095Y-107050057D02*
X215892857Y-107192914D01*
X215892857Y-107192914D02*
X215845238Y-107383390D01*
X215845238Y-107383390D02*
X215845238Y-107764342D01*
X215845238Y-107764342D02*
X215892857Y-107859580D01*
X215892857Y-107859580D02*
X215940476Y-107907200D01*
X215940476Y-107907200D02*
X216035714Y-107954819D01*
X216035714Y-107954819D02*
X216226190Y-107954819D01*
X216226190Y-107954819D02*
X216321428Y-107907200D01*
X216321428Y-107907200D02*
X216369047Y-107859580D01*
X216369047Y-107859580D02*
X216416666Y-107764342D01*
X216416666Y-107764342D02*
X216416666Y-107526247D01*
X216416666Y-107526247D02*
X216369047Y-107431009D01*
X216369047Y-107431009D02*
X216321428Y-107383390D01*
X216321428Y-107383390D02*
X216226190Y-107335771D01*
X216226190Y-107335771D02*
X216035714Y-107335771D01*
X216035714Y-107335771D02*
X215940476Y-107383390D01*
X215940476Y-107383390D02*
X215892857Y-107431009D01*
X215892857Y-107431009D02*
X215845238Y-107526247D01*
%TO.C,U4*%
D10*
X184000000Y-95500000D02*
X193000000Y-95500000D01*
X193000000Y-50500000D01*
X184000000Y-50500000D01*
X184000000Y-95500000D01*
%TO.C,U6*%
X223750000Y-95500000D02*
X232750000Y-95500000D01*
X232750000Y-50500000D01*
X223750000Y-50500000D01*
X223750000Y-95500000D01*
D13*
%TO.C,C15*%
X191240000Y-45609420D02*
X191240000Y-45890580D01*
X192260000Y-45609420D02*
X192260000Y-45890580D01*
D14*
%TO.C,J9*%
X204000000Y-131920000D02*
X204000000Y-142420000D01*
X208100000Y-130815000D02*
X208100000Y-131920000D01*
X208100000Y-131920000D02*
X204000000Y-131920000D01*
X208900000Y-131920000D02*
X208900000Y-130815000D01*
X213000000Y-131920000D02*
X208900000Y-131920000D01*
X213000000Y-142420000D02*
X204000000Y-142420000D01*
X213000000Y-142420000D02*
X213000000Y-131920000D01*
D15*
X208600000Y-128870000D02*
G75*
G02*
X208400000Y-128870000I-100000J0D01*
G01*
X208400000Y-128870000D02*
G75*
G02*
X208600000Y-128870000I100000J0D01*
G01*
D13*
%TO.C,C16*%
X215740000Y-45859420D02*
X215740000Y-46140580D01*
X216760000Y-45859420D02*
X216760000Y-46140580D01*
%TO.C,SW3*%
X207000000Y-42250000D02*
X207000000Y-43750000D01*
X208250000Y-46250000D02*
X212750000Y-46250000D01*
X212750000Y-39750000D02*
X208250000Y-39750000D01*
X214000000Y-43750000D02*
X214000000Y-42250000D01*
D10*
%TO.C,VR1*%
X177350000Y-107075000D02*
X177350000Y-107075000D01*
X177350000Y-107075000D02*
X177350000Y-107075000D01*
X177350000Y-107075000D02*
X177350000Y-110725000D01*
X177350000Y-107075000D02*
X189650000Y-107075000D01*
X177350000Y-110725000D02*
X177350000Y-107075000D01*
X177350000Y-110725000D02*
X177350000Y-110725000D01*
X177350000Y-116225000D02*
X177350000Y-116225000D01*
X177350000Y-116225000D02*
X177350000Y-122575000D01*
X177350000Y-122575000D02*
X177350000Y-116225000D01*
X177350000Y-122575000D02*
X177350000Y-122575000D01*
X177350000Y-122575000D02*
X177350000Y-122575000D01*
X177350000Y-122575000D02*
X189650000Y-122575000D01*
D15*
X180500000Y-125875000D02*
X180500000Y-125875000D01*
X180500000Y-125875000D02*
X180500000Y-125875000D01*
X180600000Y-125875000D02*
X180600000Y-125875000D01*
D10*
X189650000Y-107075000D02*
X177350000Y-107075000D01*
X189650000Y-107075000D02*
X189650000Y-107075000D01*
X189650000Y-107075000D02*
X189650000Y-107075000D01*
X189650000Y-107075000D02*
X189650000Y-110725000D01*
X189650000Y-110725000D02*
X189650000Y-107075000D01*
X189650000Y-110725000D02*
X189650000Y-110725000D01*
X189650000Y-116225000D02*
X189650000Y-116225000D01*
X189650000Y-116225000D02*
X189650000Y-122575000D01*
X189650000Y-122575000D02*
X177350000Y-122575000D01*
X189650000Y-122575000D02*
X189650000Y-116225000D01*
X189650000Y-122575000D02*
X189650000Y-122575000D01*
X189650000Y-122575000D02*
X189650000Y-122575000D01*
D15*
X180500000Y-125875000D02*
G75*
G02*
X180600000Y-125875000I50000J0D01*
G01*
X180600000Y-125875000D02*
G75*
G02*
X180500000Y-125875000I-50000J0D01*
G01*
X180600000Y-125875000D02*
G75*
G02*
X180500000Y-125875000I-50000J0D01*
G01*
%TO.C,U3*%
D10*
X166000000Y-95500000D02*
X175000000Y-95500000D01*
X175000000Y-50500000D01*
X166000000Y-50500000D01*
X166000000Y-95500000D01*
D13*
%TO.C,R2*%
X193004724Y-41977500D02*
X192495276Y-41977500D01*
X193004724Y-43022500D02*
X192495276Y-43022500D01*
D14*
%TO.C,J13*%
X226000000Y-109000000D02*
X226000000Y-119500000D01*
X226000000Y-109000000D02*
X235000000Y-109000000D01*
X226000000Y-119500000D02*
X230100000Y-119500000D01*
X230100000Y-119500000D02*
X230100000Y-120605000D01*
X230900000Y-119500000D02*
X235000000Y-119500000D01*
X230900000Y-120605000D02*
X230900000Y-119500000D01*
X235000000Y-119500000D02*
X235000000Y-109000000D01*
D15*
X230600000Y-122550000D02*
G75*
G02*
X230400000Y-122550000I-100000J0D01*
G01*
X230400000Y-122550000D02*
G75*
G02*
X230600000Y-122550000I100000J0D01*
G01*
D14*
%TO.C,J8*%
X226000000Y-131920000D02*
X226000000Y-142420000D01*
X230100000Y-130815000D02*
X230100000Y-131920000D01*
X230100000Y-131920000D02*
X226000000Y-131920000D01*
X230900000Y-131920000D02*
X230900000Y-130815000D01*
X235000000Y-131920000D02*
X230900000Y-131920000D01*
X235000000Y-142420000D02*
X226000000Y-142420000D01*
X235000000Y-142420000D02*
X235000000Y-131920000D01*
D15*
X230600000Y-128870000D02*
G75*
G02*
X230400000Y-128870000I-100000J0D01*
G01*
X230400000Y-128870000D02*
G75*
G02*
X230600000Y-128870000I100000J0D01*
G01*
D14*
%TO.C,J4*%
X204000000Y-109000000D02*
X204000000Y-119500000D01*
X204000000Y-109000000D02*
X213000000Y-109000000D01*
X204000000Y-119500000D02*
X208100000Y-119500000D01*
X208100000Y-119500000D02*
X208100000Y-120605000D01*
X208900000Y-119500000D02*
X213000000Y-119500000D01*
X208900000Y-120605000D02*
X208900000Y-119500000D01*
X213000000Y-119500000D02*
X213000000Y-109000000D01*
D15*
X208600000Y-122550000D02*
G75*
G02*
X208400000Y-122550000I-100000J0D01*
G01*
X208400000Y-122550000D02*
G75*
G02*
X208600000Y-122550000I100000J0D01*
G01*
D13*
%TO.C,R3*%
X217504724Y-42227500D02*
X216995276Y-42227500D01*
X217504724Y-43272500D02*
X216995276Y-43272500D01*
D14*
%TO.C,J5*%
X182000000Y-131920000D02*
X182000000Y-142420000D01*
X186100000Y-130815000D02*
X186100000Y-131920000D01*
X186100000Y-131920000D02*
X182000000Y-131920000D01*
X186900000Y-131920000D02*
X186900000Y-130815000D01*
X191000000Y-131920000D02*
X186900000Y-131920000D01*
X191000000Y-142420000D02*
X182000000Y-142420000D01*
X191000000Y-142420000D02*
X191000000Y-131920000D01*
D15*
X186600000Y-128870000D02*
G75*
G02*
X186400000Y-128870000I-100000J0D01*
G01*
X186400000Y-128870000D02*
G75*
G02*
X186600000Y-128870000I100000J0D01*
G01*
D14*
%TO.C,J11*%
X193000000Y-109000000D02*
X193000000Y-119500000D01*
X193000000Y-109000000D02*
X202000000Y-109000000D01*
X193000000Y-119500000D02*
X197100000Y-119500000D01*
X197100000Y-119500000D02*
X197100000Y-120605000D01*
X197900000Y-119500000D02*
X202000000Y-119500000D01*
X197900000Y-120605000D02*
X197900000Y-119500000D01*
X202000000Y-119500000D02*
X202000000Y-109000000D01*
D15*
X197600000Y-122550000D02*
G75*
G02*
X197400000Y-122550000I-100000J0D01*
G01*
X197400000Y-122550000D02*
G75*
G02*
X197600000Y-122550000I100000J0D01*
G01*
D14*
%TO.C,J7*%
X193000000Y-131920000D02*
X193000000Y-142420000D01*
X197100000Y-130815000D02*
X197100000Y-131920000D01*
X197100000Y-131920000D02*
X193000000Y-131920000D01*
X197900000Y-131920000D02*
X197900000Y-130815000D01*
X202000000Y-131920000D02*
X197900000Y-131920000D01*
X202000000Y-142420000D02*
X193000000Y-142420000D01*
X202000000Y-142420000D02*
X202000000Y-131920000D01*
D15*
X197600000Y-128870000D02*
G75*
G02*
X197400000Y-128870000I-100000J0D01*
G01*
X197400000Y-128870000D02*
G75*
G02*
X197600000Y-128870000I100000J0D01*
G01*
%TO.C,U5*%
D10*
X203250000Y-95500000D02*
X212250000Y-95500000D01*
X212250000Y-50500000D01*
X203250000Y-50500000D01*
X203250000Y-95500000D01*
D13*
%TO.C,SW2*%
X182250000Y-42250000D02*
X182250000Y-43750000D01*
X183500000Y-46250000D02*
X188000000Y-46250000D01*
X188000000Y-39750000D02*
X183500000Y-39750000D01*
X189250000Y-43750000D02*
X189250000Y-42250000D01*
D14*
%TO.C,J10*%
X215000000Y-131920000D02*
X215000000Y-142420000D01*
X219100000Y-130815000D02*
X219100000Y-131920000D01*
X219100000Y-131920000D02*
X215000000Y-131920000D01*
X219900000Y-131920000D02*
X219900000Y-130815000D01*
X224000000Y-131920000D02*
X219900000Y-131920000D01*
X224000000Y-142420000D02*
X215000000Y-142420000D01*
X224000000Y-142420000D02*
X224000000Y-131920000D01*
D15*
X219600000Y-128870000D02*
G75*
G02*
X219400000Y-128870000I-100000J0D01*
G01*
X219400000Y-128870000D02*
G75*
G02*
X219600000Y-128870000I100000J0D01*
G01*
D14*
%TO.C,J6*%
X215000000Y-109000000D02*
X215000000Y-119500000D01*
X215000000Y-109000000D02*
X224000000Y-109000000D01*
X215000000Y-119500000D02*
X219100000Y-119500000D01*
X219100000Y-119500000D02*
X219100000Y-120605000D01*
X219900000Y-119500000D02*
X224000000Y-119500000D01*
X219900000Y-120605000D02*
X219900000Y-119500000D01*
X224000000Y-119500000D02*
X224000000Y-109000000D01*
D15*
X219600000Y-122550000D02*
G75*
G02*
X219400000Y-122550000I-100000J0D01*
G01*
X219400000Y-122550000D02*
G75*
G02*
X219600000Y-122550000I100000J0D01*
G01*
%TD*%
M02*
