%TF.GenerationSoftware,KiCad,Pcbnew,8.0.8*%
%TF.CreationDate,2025-01-25T01:21:00+01:00*%
%TF.ProjectId,aware01_h7,61776172-6530-4315-9f68-372e6b696361,rev?*%
%TF.SameCoordinates,Original*%
%TF.FileFunction,Copper,L4,Bot*%
%TF.FilePolarity,Positive*%
%FSLAX46Y46*%
G04 Gerber Fmt 4.6, Leading zero omitted, Abs format (unit mm)*
G04 Created by KiCad (PCBNEW 8.0.8) date 2025-01-25 01:21:00*
%MOMM*%
%LPD*%
G01*
G04 APERTURE LIST*
G04 Aperture macros list*
%AMRoundRect*
0 Rectangle with rounded corners*
0 $1 Rounding radius*
0 $2 $3 $4 $5 $6 $7 $8 $9 X,Y pos of 4 corners*
0 Add a 4 corners polygon primitive as box body*
4,1,4,$2,$3,$4,$5,$6,$7,$8,$9,$2,$3,0*
0 Add four circle primitives for the rounded corners*
1,1,$1+$1,$2,$3*
1,1,$1+$1,$4,$5*
1,1,$1+$1,$6,$7*
1,1,$1+$1,$8,$9*
0 Add four rect primitives between the rounded corners*
20,1,$1+$1,$2,$3,$4,$5,0*
20,1,$1+$1,$4,$5,$6,$7,0*
20,1,$1+$1,$6,$7,$8,$9,0*
20,1,$1+$1,$8,$9,$2,$3,0*%
G04 Aperture macros list end*
%TA.AperFunction,Conductor*%
%ADD10C,0.200000*%
%TD*%
%TA.AperFunction,ComponentPad*%
%ADD11C,0.700000*%
%TD*%
%TA.AperFunction,HeatsinkPad*%
%ADD12R,3.450000X3.450000*%
%TD*%
%TA.AperFunction,SMDPad,CuDef*%
%ADD13RoundRect,0.033750X0.101250X0.386250X-0.101250X0.386250X-0.101250X-0.386250X0.101250X-0.386250X0*%
%TD*%
%TA.AperFunction,SMDPad,CuDef*%
%ADD14RoundRect,0.033750X0.386250X0.101250X-0.386250X0.101250X-0.386250X-0.101250X0.386250X-0.101250X0*%
%TD*%
%TA.AperFunction,SMDPad,CuDef*%
%ADD15RoundRect,0.237500X-0.250000X-0.237500X0.250000X-0.237500X0.250000X0.237500X-0.250000X0.237500X0*%
%TD*%
%TA.AperFunction,ComponentPad*%
%ADD16C,1.200000*%
%TD*%
%TA.AperFunction,ComponentPad*%
%ADD17O,2.216000X1.108000*%
%TD*%
%TA.AperFunction,ComponentPad*%
%ADD18O,2.016000X1.008000*%
%TD*%
%TA.AperFunction,ComponentPad*%
%ADD19C,2.000000*%
%TD*%
%TA.AperFunction,ComponentPad*%
%ADD20C,1.800000*%
%TD*%
%TA.AperFunction,ComponentPad*%
%ADD21C,4.455000*%
%TD*%
%TA.AperFunction,SMDPad,CuDef*%
%ADD22RoundRect,0.225000X0.225000X0.250000X-0.225000X0.250000X-0.225000X-0.250000X0.225000X-0.250000X0*%
%TD*%
%TA.AperFunction,SMDPad,CuDef*%
%ADD23RoundRect,0.237500X0.250000X0.237500X-0.250000X0.237500X-0.250000X-0.237500X0.250000X-0.237500X0*%
%TD*%
%TA.AperFunction,SMDPad,CuDef*%
%ADD24RoundRect,0.225000X0.250000X-0.225000X0.250000X0.225000X-0.250000X0.225000X-0.250000X-0.225000X0*%
%TD*%
%TA.AperFunction,SMDPad,CuDef*%
%ADD25RoundRect,0.237500X0.237500X-0.250000X0.237500X0.250000X-0.237500X0.250000X-0.237500X-0.250000X0*%
%TD*%
%TA.AperFunction,ComponentPad*%
%ADD26R,1.700000X1.700000*%
%TD*%
%TA.AperFunction,ComponentPad*%
%ADD27O,1.700000X1.700000*%
%TD*%
%TA.AperFunction,SMDPad,CuDef*%
%ADD28RoundRect,0.237500X-0.237500X0.250000X-0.237500X-0.250000X0.237500X-0.250000X0.237500X0.250000X0*%
%TD*%
%TA.AperFunction,SMDPad,CuDef*%
%ADD29RoundRect,0.225000X-0.250000X0.225000X-0.250000X-0.225000X0.250000X-0.225000X0.250000X0.225000X0*%
%TD*%
%TA.AperFunction,SMDPad,CuDef*%
%ADD30R,1.528000X0.650000*%
%TD*%
%TA.AperFunction,SMDPad,CuDef*%
%ADD31RoundRect,0.225000X-0.225000X-0.250000X0.225000X-0.250000X0.225000X0.250000X-0.225000X0.250000X0*%
%TD*%
%TA.AperFunction,SMDPad,CuDef*%
%ADD32R,0.550000X1.440000*%
%TD*%
%TA.AperFunction,SMDPad,CuDef*%
%ADD33RoundRect,0.243750X-0.456250X0.243750X-0.456250X-0.243750X0.456250X-0.243750X0.456250X0.243750X0*%
%TD*%
%TA.AperFunction,SMDPad,CuDef*%
%ADD34RoundRect,0.243750X0.456250X-0.243750X0.456250X0.243750X-0.456250X0.243750X-0.456250X-0.243750X0*%
%TD*%
%TA.AperFunction,SMDPad,CuDef*%
%ADD35R,1.400000X2.100000*%
%TD*%
%TA.AperFunction,SMDPad,CuDef*%
%ADD36RoundRect,0.250000X-1.500000X-0.550000X1.500000X-0.550000X1.500000X0.550000X-1.500000X0.550000X0*%
%TD*%
%TA.AperFunction,SMDPad,CuDef*%
%ADD37RoundRect,0.150000X0.150000X-0.587500X0.150000X0.587500X-0.150000X0.587500X-0.150000X-0.587500X0*%
%TD*%
%TA.AperFunction,SMDPad,CuDef*%
%ADD38RoundRect,0.237500X0.237500X-0.287500X0.237500X0.287500X-0.237500X0.287500X-0.237500X-0.287500X0*%
%TD*%
%TA.AperFunction,SMDPad,CuDef*%
%ADD39RoundRect,0.075000X-0.662500X-0.075000X0.662500X-0.075000X0.662500X0.075000X-0.662500X0.075000X0*%
%TD*%
%TA.AperFunction,SMDPad,CuDef*%
%ADD40RoundRect,0.075000X-0.075000X-0.662500X0.075000X-0.662500X0.075000X0.662500X-0.075000X0.662500X0*%
%TD*%
%TA.AperFunction,SMDPad,CuDef*%
%ADD41RoundRect,0.375000X-0.375000X0.625000X-0.375000X-0.625000X0.375000X-0.625000X0.375000X0.625000X0*%
%TD*%
%TA.AperFunction,SMDPad,CuDef*%
%ADD42RoundRect,0.500000X-1.400000X0.500000X-1.400000X-0.500000X1.400000X-0.500000X1.400000X0.500000X0*%
%TD*%
%TA.AperFunction,SMDPad,CuDef*%
%ADD43R,1.800000X2.100000*%
%TD*%
%TA.AperFunction,SMDPad,CuDef*%
%ADD44RoundRect,0.250000X1.500000X0.550000X-1.500000X0.550000X-1.500000X-0.550000X1.500000X-0.550000X0*%
%TD*%
%TA.AperFunction,SMDPad,CuDef*%
%ADD45RoundRect,0.250000X0.350000X-0.275000X0.350000X0.275000X-0.350000X0.275000X-0.350000X-0.275000X0*%
%TD*%
%TA.AperFunction,ViaPad*%
%ADD46C,0.700000*%
%TD*%
%TA.AperFunction,Conductor*%
%ADD47C,0.500000*%
%TD*%
%TA.AperFunction,Conductor*%
%ADD48C,0.300000*%
%TD*%
%TA.AperFunction,Conductor*%
%ADD49C,0.250000*%
%TD*%
G04 APERTURE END LIST*
D10*
%TO.N,+3.3V*%
X186250000Y-85250000D02*
X186250000Y-86000000D01*
X185000000Y-86000000D01*
X185000000Y-85500000D01*
X185000000Y-85100000D01*
X185250000Y-84750000D01*
X185750000Y-84750000D01*
X186250000Y-85250000D01*
%TA.AperFunction,Conductor*%
G36*
X186250000Y-85250000D02*
G01*
X186250000Y-86000000D01*
X185000000Y-86000000D01*
X185000000Y-85500000D01*
X185000000Y-85100000D01*
X185250000Y-84750000D01*
X185750000Y-84750000D01*
X186250000Y-85250000D01*
G37*
%TD.AperFunction*%
%TD*%
D11*
%TO.P,IC2,38*%
%TO.N,N/C*%
X233000000Y-100700000D03*
%TO.P,IC2,37*%
X231800000Y-99500000D03*
%TO.P,IC2,36*%
X233000000Y-98300000D03*
%TO.P,IC2,35*%
X234200000Y-99500000D03*
%TO.P,IC2,34*%
X233000000Y-99500000D03*
D12*
%TO.P,IC2,33,EP*%
%TO.N,GND*%
X233000000Y-99500000D03*
D13*
%TO.P,IC2,32,GPIO_/_MFP5*%
X234750000Y-97065000D03*
%TO.P,IC2,31,~{RESET}*%
%TO.N,+3.3V*%
X234250000Y-97065000D03*
%TO.P,IC2,30,LDO__SELECT*%
%TO.N,GND*%
X233750000Y-97065000D03*
%TO.P,IC2,29,DVDD*%
%TO.N,Net-(IC2-DVDD)*%
X233250000Y-97065000D03*
%TO.P,IC2,28,DVSS*%
%TO.N,GND*%
X232750000Y-97065000D03*
%TO.P,IC2,27,HPR*%
%TO.N,unconnected-(IC2-HPR-Pad27)*%
X232250000Y-97065000D03*
%TO.P,IC2,26,LDOIN*%
%TO.N,+3.3VA*%
X231750000Y-97065000D03*
%TO.P,IC2,25,HPL*%
%TO.N,unconnected-(IC2-HPL-Pad25)*%
X231250000Y-97065000D03*
D14*
%TO.P,IC2,24,AVDD*%
%TO.N,Net-(IC2-AVDD)*%
X230565000Y-97750000D03*
%TO.P,IC2,23,LOR*%
%TO.N,/Audio Codec/Input Output Channels/OUTR*%
X230565000Y-98250000D03*
%TO.P,IC2,22,LOL*%
%TO.N,/Audio Codec/Input Output Channels/OUTL*%
X230565000Y-98750000D03*
%TO.P,IC2,21,IN3_R*%
%TO.N,Net-(IC2-IN3_L)*%
X230565000Y-99250000D03*
%TO.P,IC2,20,IN3_L*%
X230565000Y-99750000D03*
%TO.P,IC2,19,MICBIAS*%
%TO.N,unconnected-(IC2-MICBIAS-Pad19)*%
X230565000Y-100250000D03*
%TO.P,IC2,18,REF*%
%TO.N,CODECREF*%
X230565000Y-100750000D03*
%TO.P,IC2,17,AVSS*%
%TO.N,GND*%
X230565000Y-101250000D03*
D13*
%TO.P,IC2,16,IN2_R*%
%TO.N,Net-(IC2-IN2_L)*%
X231250000Y-101935000D03*
%TO.P,IC2,15,IN2_L*%
X231750000Y-101935000D03*
%TO.P,IC2,14,IN1_R*%
%TO.N,/Audio Codec/Input Output Channels/INR*%
X232250000Y-101935000D03*
%TO.P,IC2,13,IN1_L*%
%TO.N,/Audio Codec/Input Output Channels/INL*%
X232750000Y-101935000D03*
%TO.P,IC2,12,SPI__SELECT*%
%TO.N,GND*%
X233250000Y-101935000D03*
%TO.P,IC2,11,MISO_/_MFP4*%
%TO.N,unconnected-(IC2-MISO_{slash}_MFP4-Pad11)*%
X233750000Y-101935000D03*
%TO.P,IC2,10,SDA/MOSI*%
%TO.N,/I2C1_SDA*%
X234250000Y-101935000D03*
%TO.P,IC2,9,SCL/~{SS}*%
%TO.N,/I2C1_SCL*%
X234750000Y-101935000D03*
D14*
%TO.P,IC2,8,SCLK_/_MFP3*%
%TO.N,unconnected-(IC2-SCLK_{slash}_MFP3-Pad8)*%
X235435000Y-101250000D03*
%TO.P,IC2,7,IOVSS*%
%TO.N,GND*%
X235435000Y-100750000D03*
%TO.P,IC2,6,IOVDD*%
%TO.N,+3.3V*%
X235435000Y-100250000D03*
%TO.P,IC2,5,DOUT_/_MFP2*%
%TO.N,/I2S1_SDO*%
X235435000Y-99750000D03*
%TO.P,IC2,4,DIN_/_MFP1*%
%TO.N,/I2S1_SDI*%
X235435000Y-99250000D03*
%TO.P,IC2,3,WCLK*%
%TO.N,/I2S1_WS*%
X235435000Y-98750000D03*
%TO.P,IC2,2,BCLK*%
%TO.N,/I2S1_CK*%
X235435000Y-98250000D03*
%TO.P,IC2,1,MCLK*%
%TO.N,/I2S1_MCK*%
X235435000Y-97750000D03*
%TD*%
D15*
%TO.P,R38,1*%
%TO.N,/CV1_IN*%
X215487500Y-125600000D03*
%TO.P,R38,2*%
%TO.N,GND*%
X217312500Y-125600000D03*
%TD*%
D16*
%TO.P,U4,1,1*%
%TO.N,+3.3V*%
X187250000Y-93000000D03*
%TO.P,U4,2,2*%
%TO.N,/FADER2_IN*%
X184750000Y-93000000D03*
%TO.P,U4,3,3*%
%TO.N,GND*%
X187250000Y-53000000D03*
%TO.P,U4,4,A*%
%TO.N,Net-(U4B-A)*%
X189750000Y-93000000D03*
%TO.P,U4,5,K*%
%TO.N,GND*%
X192250000Y-93000000D03*
%TO.P,U4,6,B*%
%TO.N,unconnected-(U4A-B-Pad6)*%
X192250000Y-53000000D03*
%TD*%
%TO.P,U6,1,1*%
%TO.N,+3.3V*%
X227000000Y-93000000D03*
%TO.P,U6,2,2*%
%TO.N,/FADER4_IN*%
X224500000Y-93000000D03*
%TO.P,U6,3,3*%
%TO.N,GND*%
X227000000Y-53000000D03*
%TO.P,U6,4,A*%
%TO.N,Net-(U6B-A)*%
X229500000Y-93000000D03*
%TO.P,U6,5,K*%
%TO.N,GND*%
X232000000Y-93000000D03*
%TO.P,U6,6,B*%
%TO.N,unconnected-(U6A-B-Pad6)*%
X232000000Y-53000000D03*
%TD*%
D17*
%TO.P,J9,S*%
%TO.N,GND*%
X208500000Y-129940000D03*
D18*
%TO.P,J9,T*%
%TO.N,Net-(J9-PadT)*%
X208500000Y-141340000D03*
D17*
%TO.P,J9,TN*%
%TO.N,unconnected-(J9-PadTN)*%
X208500000Y-133040000D03*
%TD*%
D19*
%TO.P,SW3,1,1*%
%TO.N,GND*%
X213750000Y-45250000D03*
X207250000Y-45250000D03*
%TO.P,SW3,2,2*%
%TO.N,/BUTTON2_IN*%
X213750000Y-40750000D03*
X207250000Y-40750000D03*
%TD*%
D20*
%TO.P,VR1,1*%
%TO.N,Net-(C45-Pad1)*%
X180500000Y-124475000D03*
%TO.P,VR1,2*%
X178500000Y-124475000D03*
%TO.P,VR1,3*%
%TO.N,Net-(C46-Pad1)*%
X188500000Y-124475000D03*
%TO.P,VR1,4*%
%TO.N,Net-(R11-Pad2)*%
X182500000Y-124475000D03*
%TO.P,VR1,5*%
%TO.N,Net-(C46-Pad1)*%
X184500000Y-124475000D03*
%TO.P,VR1,6*%
%TO.N,Net-(R12-Pad2)*%
X186500000Y-124475000D03*
D21*
%TO.P,VR1,MH1,MH1*%
%TO.N,unconnected-(VR1-PadMH1)*%
X177700000Y-113475000D03*
%TO.P,VR1,MH2,MH2*%
%TO.N,unconnected-(VR1-PadMH2)*%
X189300000Y-113475000D03*
%TD*%
D16*
%TO.P,U3,1,1*%
%TO.N,+3.3V*%
X169250000Y-93000000D03*
%TO.P,U3,2,2*%
%TO.N,/FADER1_IN*%
X166750000Y-93000000D03*
%TO.P,U3,3,3*%
%TO.N,GND*%
X169250000Y-53000000D03*
%TO.P,U3,4,A*%
%TO.N,Net-(U3B-A)*%
X171750000Y-93000000D03*
%TO.P,U3,5,K*%
%TO.N,GND*%
X174250000Y-93000000D03*
%TO.P,U3,6,B*%
%TO.N,unconnected-(U3A-B-Pad6)*%
X174250000Y-53000000D03*
%TD*%
D17*
%TO.P,J13,S*%
%TO.N,GND*%
X230500000Y-121480000D03*
D18*
%TO.P,J13,T*%
%TO.N,Net-(J13-PadT)*%
X230500000Y-110080000D03*
D17*
%TO.P,J13,TN*%
%TO.N,unconnected-(J13-PadTN)*%
X230500000Y-118380000D03*
%TD*%
%TO.P,J8,S*%
%TO.N,GND*%
X230500000Y-129940000D03*
D18*
%TO.P,J8,T*%
%TO.N,Net-(J8-PadT)*%
X230500000Y-141340000D03*
D17*
%TO.P,J8,TN*%
%TO.N,unconnected-(J8-PadTN)*%
X230500000Y-133040000D03*
%TD*%
%TO.P,J4,S*%
%TO.N,GND*%
X208500000Y-121480000D03*
D18*
%TO.P,J4,T*%
%TO.N,Net-(J11-PadTN)*%
X208500000Y-110080000D03*
D17*
%TO.P,J4,TN*%
%TO.N,unconnected-(J4-PadTN)*%
X208500000Y-118380000D03*
%TD*%
%TO.P,J5,S*%
%TO.N,GND*%
X186500000Y-129940000D03*
D18*
%TO.P,J5,T*%
%TO.N,Net-(J5-PadT)*%
X186500000Y-141340000D03*
D17*
%TO.P,J5,TN*%
%TO.N,unconnected-(J5-PadTN)*%
X186500000Y-133040000D03*
%TD*%
%TO.P,J11,S*%
%TO.N,GND*%
X197500000Y-121480000D03*
D18*
%TO.P,J11,T*%
%TO.N,Net-(J11-PadT)*%
X197500000Y-110080000D03*
D17*
%TO.P,J11,TN*%
%TO.N,Net-(J11-PadTN)*%
X197500000Y-118380000D03*
%TD*%
%TO.P,J7,S*%
%TO.N,GND*%
X197500000Y-129940000D03*
D18*
%TO.P,J7,T*%
%TO.N,Net-(J7-PadT)*%
X197500000Y-141340000D03*
D17*
%TO.P,J7,TN*%
%TO.N,unconnected-(J7-PadTN)*%
X197500000Y-133040000D03*
%TD*%
D16*
%TO.P,U5,6,B*%
%TO.N,unconnected-(U5A-B-Pad6)*%
X211500000Y-53000000D03*
%TO.P,U5,5,K*%
%TO.N,GND*%
X211500000Y-93000000D03*
%TO.P,U5,4,A*%
%TO.N,Net-(U5B-A)*%
X209000000Y-93000000D03*
%TO.P,U5,3,3*%
%TO.N,GND*%
X206500000Y-53000000D03*
%TO.P,U5,2,2*%
%TO.N,/FADER3_IN*%
X204000000Y-93000000D03*
%TO.P,U5,1,1*%
%TO.N,+3.3V*%
X206500000Y-93000000D03*
%TD*%
D19*
%TO.P,SW2,1,1*%
%TO.N,GND*%
X189000000Y-45250000D03*
X182500000Y-45250000D03*
%TO.P,SW2,2,2*%
%TO.N,/BUTTON1_IN*%
X189000000Y-40750000D03*
X182500000Y-40750000D03*
%TD*%
D17*
%TO.P,J10,S*%
%TO.N,GND*%
X219500000Y-129940000D03*
D18*
%TO.P,J10,T*%
%TO.N,Net-(J10-PadT)*%
X219500000Y-141340000D03*
D17*
%TO.P,J10,TN*%
%TO.N,unconnected-(J10-PadTN)*%
X219500000Y-133040000D03*
%TD*%
%TO.P,J6,S*%
%TO.N,GND*%
X219500000Y-121480000D03*
D18*
%TO.P,J6,T*%
%TO.N,Net-(J6-PadT)*%
X219500000Y-110080000D03*
D17*
%TO.P,J6,TN*%
%TO.N,unconnected-(J6-PadTN)*%
X219500000Y-118380000D03*
%TD*%
D22*
%TO.P,C58,1*%
%TO.N,GND*%
X217275000Y-127750000D03*
%TO.P,C58,2*%
%TO.N,+3.3V*%
X215725000Y-127750000D03*
%TD*%
D23*
%TO.P,R23,1*%
%TO.N,Net-(J5-PadT)*%
X183412500Y-140750000D03*
%TO.P,R23,2*%
%TO.N,Net-(Q1-B)*%
X181587500Y-140750000D03*
%TD*%
D24*
%TO.P,C7,1*%
%TO.N,+3.3V*%
X225750000Y-60775000D03*
%TO.P,C7,2*%
%TO.N,GND*%
X225750000Y-59225000D03*
%TD*%
D22*
%TO.P,C6,2*%
%TO.N,Net-(C6-Pad2)*%
X206725000Y-79250000D03*
%TO.P,C6,1*%
%TO.N,GND*%
X208275000Y-79250000D03*
%TD*%
D25*
%TO.P,R34,1*%
%TO.N,Net-(J10-PadT)*%
X222000000Y-137662500D03*
%TO.P,R34,2*%
%TO.N,Net-(U13B--)*%
X222000000Y-135837500D03*
%TD*%
D26*
%TO.P,J2,1,Pin_1*%
%TO.N,/UART4_TX*%
X229000000Y-40875000D03*
D27*
%TO.P,J2,2,Pin_2*%
%TO.N,/UART4_RX*%
X229000000Y-43415000D03*
%TO.P,J2,3,Pin_3*%
%TO.N,GND*%
X229000000Y-45955000D03*
%TD*%
D23*
%TO.P,R37,1*%
%TO.N,/V_OCT_IN*%
X204512500Y-130200000D03*
%TO.P,R37,2*%
%TO.N,GND*%
X202687500Y-130200000D03*
%TD*%
D24*
%TO.P,C8,1*%
%TO.N,+3.3V*%
X227500000Y-64025000D03*
%TO.P,C8,2*%
%TO.N,GND*%
X227500000Y-62475000D03*
%TD*%
D28*
%TO.P,R39,1*%
%TO.N,Net-(D3-K)*%
X166200000Y-75887500D03*
%TO.P,R39,2*%
%TO.N,GND*%
X166200000Y-77712500D03*
%TD*%
D22*
%TO.P,C60,1*%
%TO.N,+3.3VA*%
X231525000Y-95250000D03*
%TO.P,C60,2*%
%TO.N,GND*%
X229975000Y-95250000D03*
%TD*%
D25*
%TO.P,R26,1*%
%TO.N,Net-(J8-PadT)*%
X233250000Y-137662500D03*
%TO.P,R26,2*%
%TO.N,Net-(U11A--)*%
X233250000Y-135837500D03*
%TD*%
D28*
%TO.P,R25,1*%
%TO.N,AREF-10*%
X226750000Y-116837500D03*
%TO.P,R25,2*%
%TO.N,Net-(U11A--)*%
X226750000Y-118662500D03*
%TD*%
D29*
%TO.P,C1,1*%
%TO.N,Net-(U1-PH0)*%
X181250000Y-70975000D03*
%TO.P,C1,2*%
%TO.N,GND*%
X181250000Y-72525000D03*
%TD*%
D30*
%TO.P,U13,1*%
%TO.N,/V_OCT_IN*%
X208039000Y-127655000D03*
%TO.P,U13,2,-*%
%TO.N,Net-(U13A--)*%
X208039000Y-126385000D03*
%TO.P,U13,3,+*%
%TO.N,GND*%
X208039000Y-125115000D03*
%TO.P,U13,4,V-*%
X208039000Y-123845000D03*
%TO.P,U13,5,+*%
X213461000Y-123845000D03*
%TO.P,U13,6,-*%
%TO.N,Net-(U13B--)*%
X213461000Y-125115000D03*
%TO.P,U13,7*%
%TO.N,/CV1_IN*%
X213461000Y-126385000D03*
%TO.P,U13,8,V+*%
%TO.N,+3.3V*%
X213461000Y-127655000D03*
%TD*%
D29*
%TO.P,C54,1*%
%TO.N,Net-(C54-Pad1)*%
X208000000Y-102225000D03*
%TO.P,C54,2*%
%TO.N,Net-(U10B--)*%
X208000000Y-103775000D03*
%TD*%
D15*
%TO.P,R29,1*%
%TO.N,Net-(U11A--)*%
X232337500Y-127500000D03*
%TO.P,R29,2*%
%TO.N,/CV2_IN*%
X234162500Y-127500000D03*
%TD*%
D29*
%TO.P,C36,1*%
%TO.N,+3.3V*%
X180750000Y-74725000D03*
%TO.P,C36,2*%
%TO.N,GND*%
X180750000Y-76275000D03*
%TD*%
D22*
%TO.P,C38,1*%
%TO.N,GND*%
X235025000Y-94750000D03*
%TO.P,C38,2*%
%TO.N,Net-(IC2-DVDD)*%
X233475000Y-94750000D03*
%TD*%
D24*
%TO.P,C27,1*%
%TO.N,+3.3V*%
X207750000Y-75750000D03*
%TO.P,C27,2*%
%TO.N,GND*%
X207750000Y-74200000D03*
%TD*%
D31*
%TO.P,C25,1*%
%TO.N,+3.3VA*%
X231475000Y-90500000D03*
%TO.P,C25,2*%
%TO.N,GND*%
X233025000Y-90500000D03*
%TD*%
D29*
%TO.P,C63,1*%
%TO.N,+3.3V*%
X181250000Y-79475000D03*
%TO.P,C63,2*%
%TO.N,GND*%
X181250000Y-81025000D03*
%TD*%
D24*
%TO.P,C3,1*%
%TO.N,GND*%
X180200000Y-91175000D03*
%TO.P,C3,2*%
%TO.N,+3.3VA*%
X180200000Y-89625000D03*
%TD*%
D30*
%TO.P,U11,1*%
%TO.N,/CV2_IN*%
X228711000Y-124095000D03*
%TO.P,U11,2,-*%
%TO.N,Net-(U11A--)*%
X228711000Y-125365000D03*
%TO.P,U11,3,+*%
%TO.N,GND*%
X228711000Y-126635000D03*
%TO.P,U11,4,V-*%
X228711000Y-127905000D03*
%TO.P,U11,5,+*%
X223289000Y-127905000D03*
%TO.P,U11,6,-*%
%TO.N,Net-(U11B--)*%
X223289000Y-126635000D03*
%TO.P,U11,7*%
X223289000Y-125365000D03*
%TO.P,U11,8,V+*%
%TO.N,+3.3V*%
X223289000Y-124095000D03*
%TD*%
D23*
%TO.P,R4,1*%
%TO.N,/FAD_LED1_OUT*%
X173912500Y-90250000D03*
%TO.P,R4,2*%
%TO.N,Net-(U3B-A)*%
X172087500Y-90250000D03*
%TD*%
D29*
%TO.P,C61,1*%
%TO.N,+3.3VA*%
X180600000Y-64025000D03*
%TO.P,C61,2*%
%TO.N,GND*%
X180600000Y-65575000D03*
%TD*%
D22*
%TO.P,C30,1*%
%TO.N,+12V*%
X170775000Y-63000000D03*
%TO.P,C30,2*%
%TO.N,GND*%
X169225000Y-63000000D03*
%TD*%
D25*
%TO.P,R20,1*%
%TO.N,Net-(U10B--)*%
X209750000Y-103912500D03*
%TO.P,R20,2*%
%TO.N,Net-(C54-Pad1)*%
X209750000Y-102087500D03*
%TD*%
D29*
%TO.P,C43,1*%
%TO.N,+12V*%
X195500000Y-98975000D03*
%TO.P,C43,2*%
%TO.N,GND*%
X195500000Y-100525000D03*
%TD*%
D32*
%TO.P,U2,1,VDD*%
%TO.N,+3.3V*%
X231500000Y-77740000D03*
%TO.P,U2,2,DQ0*%
%TO.N,/FMC_D0*%
X230700000Y-77740000D03*
%TO.P,U2,3,VDDQ*%
%TO.N,+3.3V*%
X229900000Y-77740000D03*
%TO.P,U2,4,DQ1*%
%TO.N,/FMC_D1*%
X229100000Y-77740000D03*
%TO.P,U2,5,DQ2*%
%TO.N,/FMC_D2*%
X228300000Y-77740000D03*
%TO.P,U2,6,VSSQ*%
%TO.N,GND*%
X227500000Y-77740000D03*
%TO.P,U2,7,DQ3*%
%TO.N,/FMC_D3*%
X226700000Y-77740000D03*
%TO.P,U2,8,DQ4*%
%TO.N,/FMC_D4*%
X225900000Y-77740000D03*
%TO.P,U2,9,VDDQ*%
%TO.N,+3.3V*%
X225100000Y-77740000D03*
%TO.P,U2,10,DQ5*%
%TO.N,/FMC_D5*%
X224300000Y-77740000D03*
%TO.P,U2,11,DQ6*%
%TO.N,/FMC_D6*%
X223500000Y-77740000D03*
%TO.P,U2,12,VSSQ*%
%TO.N,GND*%
X222700000Y-77740000D03*
%TO.P,U2,13,DQ7*%
%TO.N,/FMC_D7*%
X221900000Y-77740000D03*
%TO.P,U2,14,VDD*%
%TO.N,+3.3V*%
X221100000Y-77740000D03*
%TO.P,U2,15,DQML*%
%TO.N,/FMC_NBL0*%
X220300000Y-77740000D03*
%TO.P,U2,16,~{WE}*%
%TO.N,/FMC_SDNWE*%
X219500000Y-77740000D03*
%TO.P,U2,17,~{CAS}*%
%TO.N,/FMC_SDNCAS*%
X218700000Y-77740000D03*
%TO.P,U2,18,~{RAS}*%
%TO.N,/FMC_SDNRAS*%
X217900000Y-77740000D03*
%TO.P,U2,19,~{CS}*%
%TO.N,/FMC_SDNE0*%
X217100000Y-77740000D03*
%TO.P,U2,20,BA0*%
%TO.N,/FMC_BA0*%
X216300000Y-77740000D03*
%TO.P,U2,21,BA1*%
%TO.N,/FMC_BA1*%
X215500000Y-77740000D03*
%TO.P,U2,22,A10*%
%TO.N,/FMC_A10*%
X214700000Y-77740000D03*
%TO.P,U2,23,A0*%
%TO.N,/FMC_A0*%
X213900000Y-77740000D03*
%TO.P,U2,24,A1*%
%TO.N,/FMC_A1*%
X213100000Y-77740000D03*
%TO.P,U2,25,A2*%
%TO.N,/FMC_A2*%
X212300000Y-77740000D03*
%TO.P,U2,26,A3*%
%TO.N,/FMC_A3*%
X211500000Y-77740000D03*
%TO.P,U2,27,VDD*%
%TO.N,+3.3V*%
X210700000Y-77740000D03*
%TO.P,U2,28,VSS*%
%TO.N,GND*%
X210700000Y-66500000D03*
%TO.P,U2,29,A4*%
%TO.N,/FMC_A4*%
X211500000Y-66500000D03*
%TO.P,U2,30,A5*%
%TO.N,/FMC_A5*%
X212300000Y-66500000D03*
%TO.P,U2,31,A6*%
%TO.N,/FMC_A6*%
X213100000Y-66500000D03*
%TO.P,U2,32,A7*%
%TO.N,/FMC_A7*%
X213900000Y-66500000D03*
%TO.P,U2,33,A8*%
%TO.N,/FMC_A8*%
X214700000Y-66500000D03*
%TO.P,U2,34,A9*%
%TO.N,/FMC_A9*%
X215500000Y-66500000D03*
%TO.P,U2,35,A11*%
%TO.N,/FMC_A11*%
X216300000Y-66500000D03*
%TO.P,U2,36,NC*%
%TO.N,unconnected-(U2-NC-Pad36)*%
X217100000Y-66500000D03*
%TO.P,U2,37,CKE*%
%TO.N,/FMC_SDCKE0*%
X217900000Y-66500000D03*
%TO.P,U2,38,CLK*%
%TO.N,/FMC_SDCLK*%
X218700000Y-66500000D03*
%TO.P,U2,39,DQMH*%
%TO.N,/FMC_NBL1*%
X219500000Y-66500000D03*
%TO.P,U2,40,NC*%
%TO.N,unconnected-(U2-NC-Pad40)*%
X220300000Y-66500000D03*
%TO.P,U2,41,VSS*%
%TO.N,GND*%
X221100000Y-66500000D03*
%TO.P,U2,42,DQ8*%
%TO.N,/FMC_D8*%
X221900000Y-66500000D03*
%TO.P,U2,43,VSSQ*%
%TO.N,GND*%
X222700000Y-66500000D03*
%TO.P,U2,44,DQ9*%
%TO.N,/FMC_D9*%
X223500000Y-66500000D03*
%TO.P,U2,45,DQ10*%
%TO.N,/FMC_D10*%
X224300000Y-66500000D03*
%TO.P,U2,46,VSSQ*%
%TO.N,GND*%
X225100000Y-66500000D03*
%TO.P,U2,47,DQ11*%
%TO.N,/FMC_D11*%
X225900000Y-66500000D03*
%TO.P,U2,48,DQ12*%
%TO.N,/FMC_D12*%
X226700000Y-66500000D03*
%TO.P,U2,49,VDDQ*%
%TO.N,+3.3V*%
X227500000Y-66500000D03*
%TO.P,U2,50,DQ13*%
%TO.N,/FMC_D13*%
X228300000Y-66500000D03*
%TO.P,U2,51,DQ14*%
%TO.N,/FMC_D14*%
X229100000Y-66500000D03*
%TO.P,U2,52,VSSQ*%
%TO.N,GND*%
X229900000Y-66500000D03*
%TO.P,U2,53,DQ15*%
%TO.N,/FMC_D15*%
X230700000Y-66500000D03*
%TO.P,U2,54,VSS*%
%TO.N,GND*%
X231500000Y-66500000D03*
%TD*%
D23*
%TO.P,R11,1*%
%TO.N,Net-(U9A--)*%
X188162500Y-106750000D03*
%TO.P,R11,2*%
%TO.N,Net-(R11-Pad2)*%
X186337500Y-106750000D03*
%TD*%
D24*
%TO.P,C23,1*%
%TO.N,+3.3VA*%
X229500000Y-90275000D03*
%TO.P,C23,2*%
%TO.N,GND*%
X229500000Y-88725000D03*
%TD*%
D28*
%TO.P,R16,1*%
%TO.N,GND*%
X213750000Y-95337500D03*
%TO.P,R16,2*%
%TO.N,Net-(C52-Pad1)*%
X213750000Y-97162500D03*
%TD*%
D31*
%TO.P,C48,1*%
%TO.N,Net-(C46-Pad1)*%
X212975000Y-108000000D03*
%TO.P,C48,2*%
%TO.N,/Audio Codec/Input Output Channels/INR*%
X214525000Y-108000000D03*
%TD*%
D33*
%TO.P,D2,1,K*%
%TO.N,Net-(D2-K)*%
X165750000Y-47312500D03*
%TO.P,D2,2,A*%
%TO.N,-12V*%
X165750000Y-49187500D03*
%TD*%
D31*
%TO.P,C28,1*%
%TO.N,+3.3V*%
X231475000Y-85000000D03*
%TO.P,C28,2*%
%TO.N,GND*%
X233025000Y-85000000D03*
%TD*%
%TO.P,C42,1*%
%TO.N,GND*%
X226225000Y-99000000D03*
%TO.P,C42,2*%
%TO.N,Net-(IC2-IN3_L)*%
X227775000Y-99000000D03*
%TD*%
D34*
%TO.P,D1,1,K*%
%TO.N,+12V*%
X176250000Y-49187500D03*
%TO.P,D1,2,A*%
%TO.N,Net-(D1-A)*%
X176250000Y-47312500D03*
%TD*%
D30*
%TO.P,U10,1*%
%TO.N,Net-(C53-Pad1)*%
X217211000Y-101595000D03*
%TO.P,U10,2,-*%
%TO.N,Net-(U10A--)*%
X217211000Y-102865000D03*
%TO.P,U10,3,+*%
%TO.N,GND*%
X217211000Y-104135000D03*
%TO.P,U10,4,V-*%
%TO.N,-12V*%
X217211000Y-105405000D03*
%TO.P,U10,5,+*%
%TO.N,GND*%
X211789000Y-105405000D03*
%TO.P,U10,6,-*%
%TO.N,Net-(U10B--)*%
X211789000Y-104135000D03*
%TO.P,U10,7*%
%TO.N,Net-(C54-Pad1)*%
X211789000Y-102865000D03*
%TO.P,U10,8,V+*%
%TO.N,+12V*%
X211789000Y-101595000D03*
%TD*%
D35*
%TO.P,SW1,1,1*%
%TO.N,GND*%
X175250000Y-141300000D03*
X175250000Y-132200000D03*
%TO.P,SW1,2,2*%
%TO.N,/NRST*%
X170750000Y-141300000D03*
X170750000Y-132200000D03*
%TD*%
D36*
%TO.P,C19,1*%
%TO.N,+12V*%
X174200000Y-57500000D03*
%TO.P,C19,2*%
%TO.N,GND*%
X179800000Y-57500000D03*
%TD*%
D29*
%TO.P,C21,1*%
%TO.N,+3.3V*%
X186250000Y-85725000D03*
%TO.P,C21,2*%
%TO.N,GND*%
X186250000Y-87275000D03*
%TD*%
%TO.P,C5,1*%
%TO.N,GND*%
X202250000Y-57975000D03*
%TO.P,C5,2*%
%TO.N,Net-(C5-Pad2)*%
X202250000Y-59525000D03*
%TD*%
D23*
%TO.P,R21,1*%
%TO.N,Net-(C53-Pad1)*%
X222412500Y-107250000D03*
%TO.P,R21,2*%
%TO.N,Net-(J6-PadT)*%
X220587500Y-107250000D03*
%TD*%
D28*
%TO.P,R30,1*%
%TO.N,/CV2_IN*%
X235000000Y-123837500D03*
%TO.P,R30,2*%
%TO.N,GND*%
X235000000Y-125662500D03*
%TD*%
D24*
%TO.P,C26,1*%
%TO.N,+3.3V*%
X206912500Y-82775000D03*
%TO.P,C26,2*%
%TO.N,GND*%
X206912500Y-81225000D03*
%TD*%
D22*
%TO.P,C17,1*%
%TO.N,+3.3V*%
X179025000Y-64250000D03*
%TO.P,C17,2*%
%TO.N,GND*%
X177475000Y-64250000D03*
%TD*%
D24*
%TO.P,C2,1*%
%TO.N,Net-(U1-PH1)*%
X181250000Y-69275000D03*
%TO.P,C2,2*%
%TO.N,GND*%
X181250000Y-67725000D03*
%TD*%
D28*
%TO.P,R31,1*%
%TO.N,AREF-10*%
X202750000Y-121587500D03*
%TO.P,R31,2*%
%TO.N,Net-(U13A--)*%
X202750000Y-123412500D03*
%TD*%
D22*
%TO.P,C51,1*%
%TO.N,Net-(C51-Pad1)*%
X226025000Y-101000000D03*
%TO.P,C51,2*%
%TO.N,/Audio Codec/Input Output Channels/OUTL*%
X224475000Y-101000000D03*
%TD*%
D30*
%TO.P,U9,1*%
%TO.N,Net-(C45-Pad1)*%
X203461000Y-100345000D03*
%TO.P,U9,2,-*%
%TO.N,Net-(U9A--)*%
X203461000Y-101615000D03*
%TO.P,U9,3,+*%
%TO.N,GND*%
X203461000Y-102885000D03*
%TO.P,U9,4,V-*%
%TO.N,-12V*%
X203461000Y-104155000D03*
%TO.P,U9,5,+*%
%TO.N,GND*%
X198039000Y-104155000D03*
%TO.P,U9,6,-*%
%TO.N,Net-(U9B--)*%
X198039000Y-102885000D03*
%TO.P,U9,7*%
%TO.N,Net-(C46-Pad1)*%
X198039000Y-101615000D03*
%TO.P,U9,8,V+*%
%TO.N,+12V*%
X198039000Y-100345000D03*
%TD*%
D25*
%TO.P,R19,1*%
%TO.N,Net-(U10A--)*%
X221750000Y-103162500D03*
%TO.P,R19,2*%
%TO.N,Net-(C53-Pad1)*%
X221750000Y-101337500D03*
%TD*%
D37*
%TO.P,U8,1,K*%
%TO.N,GND*%
X223650000Y-113937500D03*
%TO.P,U8,2,A*%
%TO.N,AREF-10*%
X221750000Y-113937500D03*
%TO.P,U8,3,NC*%
%TO.N,unconnected-(U8-NC-Pad3)*%
X222700000Y-112062500D03*
%TD*%
D23*
%TO.P,R12,1*%
%TO.N,Net-(U9B--)*%
X188162500Y-104750000D03*
%TO.P,R12,2*%
%TO.N,Net-(R12-Pad2)*%
X186337500Y-104750000D03*
%TD*%
D28*
%TO.P,R18,1*%
%TO.N,Net-(C52-Pad1)*%
X207750000Y-96087500D03*
%TO.P,R18,2*%
%TO.N,Net-(U10B--)*%
X207750000Y-97912500D03*
%TD*%
D29*
%TO.P,C12,1*%
%TO.N,+3.3V*%
X221500000Y-80225000D03*
%TO.P,C12,2*%
%TO.N,GND*%
X221500000Y-81775000D03*
%TD*%
D15*
%TO.P,R7,1*%
%TO.N,/FAD_LED4_OUT*%
X224187500Y-90100000D03*
%TO.P,R7,2*%
%TO.N,Net-(U6B-A)*%
X226012500Y-90100000D03*
%TD*%
D28*
%TO.P,R33,1*%
%TO.N,AREF-10*%
X216000000Y-116837500D03*
%TO.P,R33,2*%
%TO.N,Net-(U13B--)*%
X216000000Y-118662500D03*
%TD*%
D23*
%TO.P,R5,1*%
%TO.N,/FAD_LED2_OUT*%
X191912500Y-90750000D03*
%TO.P,R5,2*%
%TO.N,Net-(U4B-A)*%
X190087500Y-90750000D03*
%TD*%
D25*
%TO.P,R1,1*%
%TO.N,GND*%
X182000000Y-91162500D03*
%TO.P,R1,2*%
%TO.N,Net-(U1-BOOT0)*%
X182000000Y-89337500D03*
%TD*%
D15*
%TO.P,R15,1*%
%TO.N,GND*%
X225087500Y-103000000D03*
%TO.P,R15,2*%
%TO.N,Net-(C51-Pad1)*%
X226912500Y-103000000D03*
%TD*%
D24*
%TO.P,C55,1*%
%TO.N,Net-(U11A--)*%
X231750000Y-125550000D03*
%TO.P,C55,2*%
%TO.N,/CV2_IN*%
X231750000Y-124000000D03*
%TD*%
D31*
%TO.P,C40,1*%
%TO.N,GND*%
X226725000Y-96500000D03*
%TO.P,C40,2*%
%TO.N,Net-(IC2-AVDD)*%
X228275000Y-96500000D03*
%TD*%
D29*
%TO.P,C45,1*%
%TO.N,Net-(C45-Pad1)*%
X205750000Y-100475000D03*
%TO.P,C45,2*%
%TO.N,Net-(U9A--)*%
X205750000Y-102025000D03*
%TD*%
D31*
%TO.P,C9,1*%
%TO.N,+3.3V*%
X231700000Y-80000000D03*
%TO.P,C9,2*%
%TO.N,GND*%
X233250000Y-80000000D03*
%TD*%
%TO.P,C50,1*%
%TO.N,-12V*%
X219225000Y-105500000D03*
%TO.P,C50,2*%
%TO.N,GND*%
X220775000Y-105500000D03*
%TD*%
D23*
%TO.P,R27,1*%
%TO.N,/GATE1_IN*%
X176162500Y-75500000D03*
%TO.P,R27,2*%
%TO.N,+3.3V*%
X174337500Y-75500000D03*
%TD*%
D25*
%TO.P,R9,1*%
%TO.N,Net-(J11-PadT)*%
X201250000Y-111662500D03*
%TO.P,R9,2*%
%TO.N,Net-(U9A--)*%
X201250000Y-109837500D03*
%TD*%
D24*
%TO.P,C44,1*%
%TO.N,-12V*%
X205750000Y-105275000D03*
%TO.P,C44,2*%
%TO.N,GND*%
X205750000Y-103725000D03*
%TD*%
D31*
%TO.P,C52,1*%
%TO.N,Net-(C52-Pad1)*%
X220750000Y-97250000D03*
%TO.P,C52,2*%
%TO.N,/Audio Codec/Input Output Channels/OUTR*%
X222300000Y-97250000D03*
%TD*%
D38*
%TO.P,D3,1,K*%
%TO.N,Net-(D3-K)*%
X168600000Y-75875000D03*
%TO.P,D3,2,A*%
%TO.N,+3.3V*%
X168600000Y-74125000D03*
%TD*%
D22*
%TO.P,C35,1*%
%TO.N,+3.3V*%
X186500000Y-59662500D03*
%TO.P,C35,2*%
%TO.N,GND*%
X184950000Y-59662500D03*
%TD*%
D15*
%TO.P,R28,1*%
%TO.N,/GATE2_IN*%
X177837500Y-79500000D03*
%TO.P,R28,2*%
%TO.N,+3.3V*%
X179662500Y-79500000D03*
%TD*%
D23*
%TO.P,R17,1*%
%TO.N,Net-(C51-Pad1)*%
X225912500Y-105000000D03*
%TO.P,R17,2*%
%TO.N,Net-(U10A--)*%
X224087500Y-105000000D03*
%TD*%
D15*
%TO.P,R6,1*%
%TO.N,/FAD_LED3_OUT*%
X206487500Y-90200000D03*
%TO.P,R6,2*%
%TO.N,Net-(U5B-A)*%
X208312500Y-90200000D03*
%TD*%
D22*
%TO.P,C31,1*%
%TO.N,+3.3V*%
X198025000Y-57500000D03*
%TO.P,C31,2*%
%TO.N,GND*%
X196475000Y-57500000D03*
%TD*%
D26*
%TO.P,J1,1,Pin_1*%
%TO.N,+3.3V*%
X167500000Y-112920000D03*
D27*
%TO.P,J1,2,Pin_2*%
%TO.N,/SWCLK*%
X167500000Y-115460000D03*
%TO.P,J1,3,Pin_3*%
%TO.N,/SWDIO*%
X167500000Y-118000000D03*
%TO.P,J1,4,Pin_4*%
%TO.N,/SWO*%
X167500000Y-120540000D03*
%TO.P,J1,5,Pin_5*%
%TO.N,/NRST*%
X167500000Y-123080000D03*
%TO.P,J1,6,Pin_6*%
%TO.N,GND*%
X167500000Y-125620000D03*
%TD*%
D31*
%TO.P,C24,1*%
%TO.N,+3.3V*%
X196225000Y-85912500D03*
%TO.P,C24,2*%
%TO.N,GND*%
X197775000Y-85912500D03*
%TD*%
%TO.P,C47,1*%
%TO.N,Net-(C45-Pad1)*%
X212725000Y-99000000D03*
%TO.P,C47,2*%
%TO.N,/Audio Codec/Input Output Channels/INL*%
X214275000Y-99000000D03*
%TD*%
D28*
%TO.P,R8,1*%
%TO.N,-12V*%
X219000000Y-113650000D03*
%TO.P,R8,2*%
%TO.N,AREF-10*%
X219000000Y-115475000D03*
%TD*%
D39*
%TO.P,U1,1,PE2*%
%TO.N,unconnected-(U1-PE2-Pad1)*%
X183337500Y-81750000D03*
%TO.P,U1,2,PE3*%
%TO.N,unconnected-(U1-PE3-Pad2)*%
X183337500Y-81250000D03*
%TO.P,U1,3,PE4*%
%TO.N,unconnected-(U1-PE4-Pad3)*%
X183337500Y-80750000D03*
%TO.P,U1,4,PE5*%
%TO.N,unconnected-(U1-PE5-Pad4)*%
X183337500Y-80250000D03*
%TO.P,U1,5,PE6*%
%TO.N,unconnected-(U1-PE6-Pad5)*%
X183337500Y-79750000D03*
%TO.P,U1,6,VBAT*%
%TO.N,+3.3V*%
X183337500Y-79250000D03*
%TO.P,U1,7,PC13*%
%TO.N,unconnected-(U1-PC13-Pad7)*%
X183337500Y-78750000D03*
%TO.P,U1,8,PC14*%
%TO.N,unconnected-(U1-PC14-Pad8)*%
X183337500Y-78250000D03*
%TO.P,U1,9,PC15*%
%TO.N,unconnected-(U1-PC15-Pad9)*%
X183337500Y-77750000D03*
%TO.P,U1,10,PF0*%
%TO.N,/FMC_A0*%
X183337500Y-77250000D03*
%TO.P,U1,11,PF1*%
%TO.N,/FMC_A1*%
X183337500Y-76750000D03*
%TO.P,U1,12,PF2*%
%TO.N,/FMC_A2*%
X183337500Y-76250000D03*
%TO.P,U1,13,PF3*%
%TO.N,/FMC_A3*%
X183337500Y-75750000D03*
%TO.P,U1,14,PF4*%
%TO.N,/FMC_A4*%
X183337500Y-75250000D03*
%TO.P,U1,15,PF5*%
%TO.N,/FMC_A5*%
X183337500Y-74750000D03*
%TO.P,U1,16,VSS*%
%TO.N,GND*%
X183337500Y-74250000D03*
%TO.P,U1,17,VDD*%
%TO.N,+3.3V*%
X183337500Y-73750000D03*
%TO.P,U1,18,PF6*%
%TO.N,/GATE1_IN*%
X183337500Y-73250000D03*
%TO.P,U1,19,PF7*%
%TO.N,/GATE2_IN*%
X183337500Y-72750000D03*
%TO.P,U1,20,PF8*%
%TO.N,/BUTTON1_IN*%
X183337500Y-72250000D03*
%TO.P,U1,21,PF9*%
%TO.N,/BUTTON2_IN*%
X183337500Y-71750000D03*
%TO.P,U1,22,PF10*%
%TO.N,unconnected-(U1-PF10-Pad22)*%
X183337500Y-71250000D03*
%TO.P,U1,23,PH0*%
%TO.N,Net-(U1-PH0)*%
X183337500Y-70750000D03*
%TO.P,U1,24,PH1*%
%TO.N,Net-(U1-PH1)*%
X183337500Y-70250000D03*
%TO.P,U1,25,NRST*%
%TO.N,/NRST*%
X183337500Y-69750000D03*
%TO.P,U1,26,PC0*%
%TO.N,/FMC_SDNWE*%
X183337500Y-69250000D03*
%TO.P,U1,27,PC1*%
%TO.N,/CV1_IN*%
X183337500Y-68750000D03*
%TO.P,U1,28,PC2_C*%
%TO.N,/FMC_SDNE0*%
X183337500Y-68250000D03*
%TO.P,U1,29,PC3_C*%
%TO.N,/FMC_SDCKE0*%
X183337500Y-67750000D03*
%TO.P,U1,30,VDD*%
%TO.N,+3.3V*%
X183337500Y-67250000D03*
%TO.P,U1,31,VSSA*%
%TO.N,GND*%
X183337500Y-66750000D03*
%TO.P,U1,32,VREF+*%
%TO.N,+3.3VA*%
X183337500Y-66250000D03*
%TO.P,U1,33,VDDA*%
X183337500Y-65750000D03*
%TO.P,U1,34,PA0*%
%TO.N,/UART4_TX*%
X183337500Y-65250000D03*
%TO.P,U1,35,PA1*%
%TO.N,/UART4_RX*%
X183337500Y-64750000D03*
%TO.P,U1,36,PA2*%
%TO.N,/CV2_IN*%
X183337500Y-64250000D03*
D40*
%TO.P,U1,37,PA3*%
%TO.N,unconnected-(U1-PA3-Pad37)*%
X185250000Y-62337500D03*
%TO.P,U1,38,VSS*%
%TO.N,GND*%
X185750000Y-62337500D03*
%TO.P,U1,39,VDD*%
%TO.N,+3.3V*%
X186250000Y-62337500D03*
%TO.P,U1,40,PA4*%
%TO.N,/I2S1_WS*%
X186750000Y-62337500D03*
%TO.P,U1,41,PA5*%
%TO.N,/I2S1_CK*%
X187250000Y-62337500D03*
%TO.P,U1,42,PA6*%
%TO.N,/FADER1_IN*%
X187750000Y-62337500D03*
%TO.P,U1,43,PA7*%
%TO.N,/FADER3_IN*%
X188250000Y-62337500D03*
%TO.P,U1,44,PC4*%
%TO.N,/I2S1_MCK*%
X188750000Y-62337500D03*
%TO.P,U1,45,PC5*%
%TO.N,/FADER4_IN*%
X189250000Y-62337500D03*
%TO.P,U1,46,PB0*%
%TO.N,/V_OCT_IN*%
X189750000Y-62337500D03*
%TO.P,U1,47,PB1*%
%TO.N,/FADER2_IN*%
X190250000Y-62337500D03*
%TO.P,U1,48,PB2*%
%TO.N,unconnected-(U1-PB2-Pad48)*%
X190750000Y-62337500D03*
%TO.P,U1,49,PF11*%
%TO.N,/FMC_SDNRAS*%
X191250000Y-62337500D03*
%TO.P,U1,50,PF12*%
%TO.N,/FMC_A6*%
X191750000Y-62337500D03*
%TO.P,U1,51,VSS*%
%TO.N,GND*%
X192250000Y-62337500D03*
%TO.P,U1,52,VDD*%
%TO.N,+3.3V*%
X192750000Y-62337500D03*
%TO.P,U1,53,PF13*%
%TO.N,/FMC_A7*%
X193250000Y-62337500D03*
%TO.P,U1,54,PF14*%
%TO.N,/FMC_A8*%
X193750000Y-62337500D03*
%TO.P,U1,55,PF15*%
%TO.N,/FMC_A9*%
X194250000Y-62337500D03*
%TO.P,U1,56,PG0*%
%TO.N,/FMC_A10*%
X194750000Y-62337500D03*
%TO.P,U1,57,PG1*%
%TO.N,/FMC_A11*%
X195250000Y-62337500D03*
%TO.P,U1,58,PE7*%
%TO.N,/FMC_D4*%
X195750000Y-62337500D03*
%TO.P,U1,59,PE8*%
%TO.N,/FMC_D5*%
X196250000Y-62337500D03*
%TO.P,U1,60,PE9*%
%TO.N,/FMC_D6*%
X196750000Y-62337500D03*
%TO.P,U1,61,VSS*%
%TO.N,GND*%
X197250000Y-62337500D03*
%TO.P,U1,62,VDD*%
%TO.N,+3.3V*%
X197750000Y-62337500D03*
%TO.P,U1,63,PE10*%
%TO.N,/FMC_D7*%
X198250000Y-62337500D03*
%TO.P,U1,64,PE11*%
%TO.N,/FMC_D8*%
X198750000Y-62337500D03*
%TO.P,U1,65,PE12*%
%TO.N,/FMC_D9*%
X199250000Y-62337500D03*
%TO.P,U1,66,PE13*%
%TO.N,/FMC_D10*%
X199750000Y-62337500D03*
%TO.P,U1,67,PE14*%
%TO.N,/FMC_D11*%
X200250000Y-62337500D03*
%TO.P,U1,68,PE15*%
%TO.N,/FMC_D12*%
X200750000Y-62337500D03*
%TO.P,U1,69,PB10*%
%TO.N,unconnected-(U1-PB10-Pad69)*%
X201250000Y-62337500D03*
%TO.P,U1,70,PB11*%
%TO.N,unconnected-(U1-PB11-Pad70)*%
X201750000Y-62337500D03*
%TO.P,U1,71,VCAP*%
%TO.N,Net-(C5-Pad2)*%
X202250000Y-62337500D03*
%TO.P,U1,72,VDD*%
%TO.N,+3.3V*%
X202750000Y-62337500D03*
D39*
%TO.P,U1,73,PB12*%
%TO.N,unconnected-(U1-PB12-Pad73)*%
X204662500Y-64250000D03*
%TO.P,U1,74,PB13*%
%TO.N,unconnected-(U1-PB13-Pad74)*%
X204662500Y-64750000D03*
%TO.P,U1,75,PB14*%
%TO.N,unconnected-(U1-PB14-Pad75)*%
X204662500Y-65250000D03*
%TO.P,U1,76,PB15*%
%TO.N,unconnected-(U1-PB15-Pad76)*%
X204662500Y-65750000D03*
%TO.P,U1,77,PD8*%
%TO.N,/FMC_D13*%
X204662500Y-66250000D03*
%TO.P,U1,78,PD9*%
%TO.N,/FMC_D14*%
X204662500Y-66750000D03*
%TO.P,U1,79,PD10*%
%TO.N,/FMC_D15*%
X204662500Y-67250000D03*
%TO.P,U1,80,PD11*%
%TO.N,unconnected-(U1-PD11-Pad80)*%
X204662500Y-67750000D03*
%TO.P,U1,81,PD12*%
%TO.N,unconnected-(U1-PD12-Pad81)*%
X204662500Y-68250000D03*
%TO.P,U1,82,PD13*%
%TO.N,unconnected-(U1-PD13-Pad82)*%
X204662500Y-68750000D03*
%TO.P,U1,83,VSS*%
%TO.N,GND*%
X204662500Y-69250000D03*
%TO.P,U1,84,VDD*%
%TO.N,+3.3V*%
X204662500Y-69750000D03*
%TO.P,U1,85,PD14*%
%TO.N,/FMC_D0*%
X204662500Y-70250000D03*
%TO.P,U1,86,PD15*%
%TO.N,/FMC_D1*%
X204662500Y-70750000D03*
%TO.P,U1,87,PG2*%
%TO.N,unconnected-(U1-PG2-Pad87)*%
X204662500Y-71250000D03*
%TO.P,U1,88,PG3*%
%TO.N,unconnected-(U1-PG3-Pad88)*%
X204662500Y-71750000D03*
%TO.P,U1,89,PG4*%
%TO.N,/FMC_BA0*%
X204662500Y-72250000D03*
%TO.P,U1,90,PG5*%
%TO.N,/FMC_BA1*%
X204662500Y-72750000D03*
%TO.P,U1,91,PG6*%
%TO.N,unconnected-(U1-PG6-Pad91)*%
X204662500Y-73250000D03*
%TO.P,U1,92,PG7*%
%TO.N,unconnected-(U1-PG7-Pad92)*%
X204662500Y-73750000D03*
%TO.P,U1,93,PG8*%
%TO.N,/FMC_SDCLK*%
X204662500Y-74250000D03*
%TO.P,U1,94,VSS*%
%TO.N,GND*%
X204662500Y-74750000D03*
%TO.P,U1,95,VDD33_USB*%
%TO.N,+3.3V*%
X204662500Y-75250000D03*
%TO.P,U1,96,PC6*%
%TO.N,/FAD_LED1_OUT*%
X204662500Y-75750000D03*
%TO.P,U1,97,PC7*%
%TO.N,/FAD_LED2_OUT*%
X204662500Y-76250000D03*
%TO.P,U1,98,PC8*%
%TO.N,/FAD_LED3_OUT*%
X204662500Y-76750000D03*
%TO.P,U1,99,PC9*%
%TO.N,/FAD_LED4_OUT*%
X204662500Y-77250000D03*
%TO.P,U1,100,PA8*%
%TO.N,unconnected-(U1-PA8-Pad100)*%
X204662500Y-77750000D03*
%TO.P,U1,101,PA9*%
%TO.N,unconnected-(U1-PA9-Pad101)*%
X204662500Y-78250000D03*
%TO.P,U1,102,PA10*%
%TO.N,unconnected-(U1-PA10-Pad102)*%
X204662500Y-78750000D03*
%TO.P,U1,103,PA11*%
%TO.N,unconnected-(U1-PA11-Pad103)*%
X204662500Y-79250000D03*
%TO.P,U1,104,PA12*%
%TO.N,unconnected-(U1-PA12-Pad104)*%
X204662500Y-79750000D03*
%TO.P,U1,105,PA13*%
%TO.N,/SWDIO*%
X204662500Y-80250000D03*
%TO.P,U1,106,VCAP*%
%TO.N,Net-(C6-Pad2)*%
X204662500Y-80750000D03*
%TO.P,U1,107,VSS*%
%TO.N,GND*%
X204662500Y-81250000D03*
%TO.P,U1,108,VDD*%
%TO.N,+3.3V*%
X204662500Y-81750000D03*
D40*
%TO.P,U1,109,PA14*%
%TO.N,/SWCLK*%
X202750000Y-83662500D03*
%TO.P,U1,110,PA15*%
%TO.N,unconnected-(U1-PA15-Pad110)*%
X202250000Y-83662500D03*
%TO.P,U1,111,PC10*%
%TO.N,unconnected-(U1-PC10-Pad111)*%
X201750000Y-83662500D03*
%TO.P,U1,112,PC11*%
%TO.N,unconnected-(U1-PC11-Pad112)*%
X201250000Y-83662500D03*
%TO.P,U1,113,PC12*%
%TO.N,unconnected-(U1-PC12-Pad113)*%
X200750000Y-83662500D03*
%TO.P,U1,114,PD0*%
%TO.N,/FMC_D2*%
X200250000Y-83662500D03*
%TO.P,U1,115,PD1*%
%TO.N,/FMC_D3*%
X199750000Y-83662500D03*
%TO.P,U1,116,PD2*%
%TO.N,unconnected-(U1-PD2-Pad116)*%
X199250000Y-83662500D03*
%TO.P,U1,117,PD3*%
%TO.N,unconnected-(U1-PD3-Pad117)*%
X198750000Y-83662500D03*
%TO.P,U1,118,PD4*%
%TO.N,unconnected-(U1-PD4-Pad118)*%
X198250000Y-83662500D03*
%TO.P,U1,119,PD5*%
%TO.N,unconnected-(U1-PD5-Pad119)*%
X197750000Y-83662500D03*
%TO.P,U1,120,VSS*%
%TO.N,GND*%
X197250000Y-83662500D03*
%TO.P,U1,121,VDDMMC*%
%TO.N,+3.3V*%
X196750000Y-83662500D03*
%TO.P,U1,122,PD6*%
%TO.N,unconnected-(U1-PD6-Pad122)*%
X196250000Y-83662500D03*
%TO.P,U1,123,PD7*%
%TO.N,/I2S1_SDO*%
X195750000Y-83662500D03*
%TO.P,U1,124,PG9*%
%TO.N,unconnected-(U1-PG9-Pad124)*%
X195250000Y-83662500D03*
%TO.P,U1,125,PG10*%
%TO.N,unconnected-(U1-PG10-Pad125)*%
X194750000Y-83662500D03*
%TO.P,U1,126,PG11*%
%TO.N,unconnected-(U1-PG11-Pad126)*%
X194250000Y-83662500D03*
%TO.P,U1,127,PG12*%
%TO.N,unconnected-(U1-PG12-Pad127)*%
X193750000Y-83662500D03*
%TO.P,U1,128,PG13*%
%TO.N,unconnected-(U1-PG13-Pad128)*%
X193250000Y-83662500D03*
%TO.P,U1,129,PG14*%
%TO.N,unconnected-(U1-PG14-Pad129)*%
X192750000Y-83662500D03*
%TO.P,U1,130,VSS*%
%TO.N,GND*%
X192250000Y-83662500D03*
%TO.P,U1,131,VDD*%
%TO.N,+3.3V*%
X191750000Y-83662500D03*
%TO.P,U1,132,PG15*%
%TO.N,/FMC_SDNCAS*%
X191250000Y-83662500D03*
%TO.P,U1,133,PB3*%
%TO.N,/SWO*%
X190750000Y-83662500D03*
%TO.P,U1,134,PB4*%
%TO.N,/I2S1_SDI*%
X190250000Y-83662500D03*
%TO.P,U1,135,PB5*%
%TO.N,unconnected-(U1-PB5-Pad135)*%
X189750000Y-83662500D03*
%TO.P,U1,136,PB6*%
%TO.N,/I2C1_SCL*%
X189250000Y-83662500D03*
%TO.P,U1,137,PB7*%
%TO.N,/I2C1_SDA*%
X188750000Y-83662500D03*
%TO.P,U1,138,BOOT0*%
%TO.N,Net-(U1-BOOT0)*%
X188250000Y-83662500D03*
%TO.P,U1,139,PB8*%
%TO.N,unconnected-(U1-PB8-Pad139)*%
X187750000Y-83662500D03*
%TO.P,U1,140,PB9*%
%TO.N,unconnected-(U1-PB9-Pad140)*%
X187250000Y-83662500D03*
%TO.P,U1,141,PE0*%
%TO.N,/FMC_NBL0*%
X186750000Y-83662500D03*
%TO.P,U1,142,PE1*%
%TO.N,/FMC_NBL1*%
X186250000Y-83662500D03*
%TO.P,U1,143,PDR_ON*%
%TO.N,+3.3V*%
X185750000Y-83662500D03*
%TO.P,U1,144,VDD*%
X185250000Y-83662500D03*
%TD*%
D31*
%TO.P,C39,1*%
%TO.N,Net-(IC2-IN2_L)*%
X231975000Y-104900000D03*
%TO.P,C39,2*%
%TO.N,GND*%
X233525000Y-104900000D03*
%TD*%
%TO.P,C14,2*%
%TO.N,GND*%
X212375000Y-81750000D03*
%TO.P,C14,1*%
%TO.N,+3.3V*%
X210825000Y-81750000D03*
%TD*%
D37*
%TO.P,Q1,1,B*%
%TO.N,Net-(Q1-B)*%
X182450000Y-137687500D03*
%TO.P,Q1,2,E*%
%TO.N,GND*%
X180550000Y-137687500D03*
%TO.P,Q1,3,C*%
%TO.N,/GATE1_IN*%
X181500000Y-135812500D03*
%TD*%
D24*
%TO.P,C41,1*%
%TO.N,GND*%
X228750000Y-102250000D03*
%TO.P,C41,2*%
%TO.N,CODECREF*%
X228750000Y-100700000D03*
%TD*%
D22*
%TO.P,C49,1*%
%TO.N,+12V*%
X210775000Y-99750000D03*
%TO.P,C49,2*%
%TO.N,GND*%
X209225000Y-99750000D03*
%TD*%
D41*
%TO.P,U7,1,GND*%
%TO.N,GND*%
X165700000Y-65350000D03*
%TO.P,U7,2,VO*%
%TO.N,+3.3V*%
X168000000Y-65350000D03*
D42*
X168000000Y-71650000D03*
D41*
%TO.P,U7,3,VI*%
%TO.N,+12V*%
X170300000Y-65350000D03*
%TD*%
D23*
%TO.P,R24,1*%
%TO.N,Net-(J7-PadT)*%
X194750000Y-140500000D03*
%TO.P,R24,2*%
%TO.N,Net-(Q2-B)*%
X192925000Y-140500000D03*
%TD*%
D24*
%TO.P,C29,1*%
%TO.N,+3.3V*%
X207500000Y-70275000D03*
%TO.P,C29,2*%
%TO.N,GND*%
X207500000Y-68725000D03*
%TD*%
D31*
%TO.P,C37,1*%
%TO.N,AREF-10*%
X221925000Y-116312500D03*
%TO.P,C37,2*%
%TO.N,GND*%
X223475000Y-116312500D03*
%TD*%
D37*
%TO.P,Q2,1,B*%
%TO.N,Net-(Q2-B)*%
X193450000Y-137437500D03*
%TO.P,Q2,2,E*%
%TO.N,GND*%
X191550000Y-137437500D03*
%TO.P,Q2,3,C*%
%TO.N,/GATE2_IN*%
X192500000Y-135562500D03*
%TD*%
D24*
%TO.P,C57,1*%
%TO.N,Net-(U13B--)*%
X216200000Y-123775000D03*
%TO.P,C57,2*%
%TO.N,/CV1_IN*%
X216200000Y-122225000D03*
%TD*%
D28*
%TO.P,R35,1*%
%TO.N,Net-(U13A--)*%
X203250000Y-126087500D03*
%TO.P,R35,2*%
%TO.N,/V_OCT_IN*%
X203250000Y-127912500D03*
%TD*%
D22*
%TO.P,C32,1*%
%TO.N,+3.3V*%
X193575000Y-60000000D03*
%TO.P,C32,2*%
%TO.N,GND*%
X192025000Y-60000000D03*
%TD*%
D43*
%TO.P,Y1,1,1*%
%TO.N,Net-(U1-PH0)*%
X176350000Y-71700000D03*
%TO.P,Y1,2,2*%
%TO.N,GND*%
X176350000Y-68800000D03*
%TO.P,Y1,3,3*%
%TO.N,Net-(U1-PH1)*%
X178650000Y-68800000D03*
%TO.P,Y1,4,4*%
%TO.N,GND*%
X178650000Y-71700000D03*
%TD*%
D22*
%TO.P,C34,1*%
%TO.N,+3.3V*%
X198025000Y-59500000D03*
%TO.P,C34,2*%
%TO.N,GND*%
X196475000Y-59500000D03*
%TD*%
D15*
%TO.P,R22,1*%
%TO.N,Net-(C54-Pad1)*%
X228587500Y-107500000D03*
%TO.P,R22,2*%
%TO.N,Net-(J13-PadT)*%
X230412500Y-107500000D03*
%TD*%
D31*
%TO.P,C22,1*%
%TO.N,+3.3V*%
X192225000Y-86750000D03*
%TO.P,C22,2*%
%TO.N,GND*%
X193775000Y-86750000D03*
%TD*%
D29*
%TO.P,C46,1*%
%TO.N,Net-(C46-Pad1)*%
X195500000Y-102475000D03*
%TO.P,C46,2*%
%TO.N,Net-(U9B--)*%
X195500000Y-104025000D03*
%TD*%
%TO.P,C53,1*%
%TO.N,Net-(C53-Pad1)*%
X219500000Y-101475000D03*
%TO.P,C53,2*%
%TO.N,Net-(U10A--)*%
X219500000Y-103025000D03*
%TD*%
D44*
%TO.P,C20,1*%
%TO.N,GND*%
X169800000Y-57500000D03*
%TO.P,C20,2*%
%TO.N,-12V*%
X164200000Y-57500000D03*
%TD*%
D28*
%TO.P,R36,1*%
%TO.N,Net-(U13B--)*%
X214000000Y-119837500D03*
%TO.P,R36,2*%
%TO.N,/CV1_IN*%
X214000000Y-121662500D03*
%TD*%
D23*
%TO.P,R14,1*%
%TO.N,Net-(C46-Pad1)*%
X192662500Y-102500000D03*
%TO.P,R14,2*%
%TO.N,GND*%
X190837500Y-102500000D03*
%TD*%
D31*
%TO.P,C62,1*%
%TO.N,+3.3V*%
X203950000Y-60000000D03*
%TO.P,C62,2*%
%TO.N,GND*%
X205500000Y-60000000D03*
%TD*%
%TO.P,C13,2*%
%TO.N,GND*%
X212375000Y-80000000D03*
%TO.P,C13,1*%
%TO.N,+3.3V*%
X210825000Y-80000000D03*
%TD*%
D45*
%TO.P,FB1,1*%
%TO.N,+3.3VA*%
X231500000Y-88900000D03*
%TO.P,FB1,2*%
%TO.N,+3.3V*%
X231500000Y-86600000D03*
%TD*%
D22*
%TO.P,C10,1*%
%TO.N,+3.3V*%
X230025000Y-80000000D03*
%TO.P,C10,2*%
%TO.N,GND*%
X228475000Y-80000000D03*
%TD*%
D29*
%TO.P,C56,1*%
%TO.N,Net-(U13A--)*%
X205750000Y-126225000D03*
%TO.P,C56,2*%
%TO.N,/V_OCT_IN*%
X205750000Y-127775000D03*
%TD*%
D22*
%TO.P,C11,1*%
%TO.N,+3.3V*%
X225025000Y-80200000D03*
%TO.P,C11,2*%
%TO.N,GND*%
X223475000Y-80200000D03*
%TD*%
D24*
%TO.P,C59,1*%
%TO.N,GND*%
X221250000Y-126525000D03*
%TO.P,C59,2*%
%TO.N,+3.3V*%
X221250000Y-124975000D03*
%TD*%
%TO.P,C4,1*%
%TO.N,/NRST*%
X174500000Y-63975000D03*
%TO.P,C4,2*%
%TO.N,GND*%
X174500000Y-62425000D03*
%TD*%
D22*
%TO.P,C18,1*%
%TO.N,+3.3V*%
X183775000Y-85500000D03*
%TO.P,C18,2*%
%TO.N,GND*%
X182225000Y-85500000D03*
%TD*%
D25*
%TO.P,R10,1*%
%TO.N,Net-(J11-PadTN)*%
X204750000Y-111662500D03*
%TO.P,R10,2*%
%TO.N,Net-(U9B--)*%
X204750000Y-109837500D03*
%TD*%
D26*
%TO.P,J3,1,Pin_1*%
%TO.N,Net-(D1-A)*%
X176120000Y-44250000D03*
D27*
%TO.P,J3,2,Pin_2*%
X176120000Y-41710000D03*
%TO.P,J3,3,Pin_3*%
%TO.N,GND*%
X173580000Y-44250000D03*
%TO.P,J3,4,Pin_4*%
X173580000Y-41710000D03*
%TO.P,J3,5,Pin_5*%
X171040000Y-44250000D03*
%TO.P,J3,6,Pin_6*%
X171040000Y-41710000D03*
%TO.P,J3,7,Pin_7*%
X168500000Y-44250000D03*
%TO.P,J3,8,Pin_8*%
X168500000Y-41710000D03*
%TO.P,J3,9,Pin_9*%
%TO.N,Net-(D2-K)*%
X165960000Y-44250000D03*
%TO.P,J3,10,Pin_10*%
X165960000Y-41710000D03*
%TD*%
D22*
%TO.P,C33,1*%
%TO.N,+3.3V*%
X167275000Y-63000000D03*
%TO.P,C33,2*%
%TO.N,GND*%
X165725000Y-63000000D03*
%TD*%
D23*
%TO.P,R13,1*%
%TO.N,Net-(C45-Pad1)*%
X203412500Y-97750000D03*
%TO.P,R13,2*%
%TO.N,GND*%
X201587500Y-97750000D03*
%TD*%
D25*
%TO.P,R32,1*%
%TO.N,Net-(J9-PadT)*%
X211000000Y-137662500D03*
%TO.P,R32,2*%
%TO.N,Net-(U13A--)*%
X211000000Y-135837500D03*
%TD*%
D46*
%TO.N,GND*%
X229000000Y-95200000D03*
X227600000Y-46000000D03*
%TO.N,/UART4_TX*%
X184400000Y-49800000D03*
X181600000Y-62700000D03*
%TO.N,/UART4_RX*%
X185200000Y-50800000D03*
X182600000Y-62700000D03*
%TO.N,+3.3V*%
X178600000Y-65200000D03*
X174600000Y-76400000D03*
X222400000Y-80600000D03*
%TO.N,GND*%
X201800000Y-129200000D03*
X206600000Y-104200000D03*
X215600000Y-104200000D03*
X217600000Y-124475000D03*
%TO.N,/FADER3_IN*%
X194600000Y-90000000D03*
X190580903Y-85405871D03*
%TO.N,/FAD_LED3_OUT*%
X205400000Y-90000000D03*
%TO.N,Net-(U5B-A)*%
X209400000Y-90800000D03*
%TO.N,/FADER4_IN*%
X196300000Y-74900000D03*
%TO.N,/FADER3_IN*%
X195000000Y-75000000D03*
%TO.N,/FADER4_IN*%
X210205548Y-85000000D03*
%TO.N,/SWDIO*%
X208200000Y-86000000D03*
%TO.N,/CV2_IN*%
X225200000Y-107800000D03*
X223800000Y-103400000D03*
%TO.N,GND*%
X223650000Y-115250000D03*
X208529656Y-68710294D03*
X173500000Y-46500000D03*
X182000000Y-92000000D03*
X173200000Y-92400000D03*
X228750000Y-62750000D03*
X233025000Y-89475000D03*
X197000000Y-105000000D03*
X225000000Y-103800000D03*
X164500000Y-63000000D03*
X210000000Y-105500000D03*
X225100000Y-64900000D03*
X206250000Y-125000000D03*
X208000000Y-100200000D03*
X170250000Y-46500000D03*
X208800281Y-74100000D03*
X175250000Y-136800000D03*
X193750000Y-100750000D03*
X223250000Y-81500000D03*
X234750000Y-104250000D03*
X233200000Y-81200000D03*
X232200000Y-91800000D03*
X230000000Y-65200000D03*
X230250000Y-127250000D03*
X165250000Y-61750000D03*
X182250000Y-86600000D03*
X178500000Y-73500000D03*
X167200000Y-77800000D03*
X207700000Y-53900000D03*
X206250000Y-123750000D03*
X172000000Y-46500000D03*
X170400000Y-53600000D03*
X197400000Y-87000000D03*
X232550000Y-96000000D03*
X182025000Y-57225000D03*
X222750000Y-65000000D03*
X213200000Y-80800000D03*
X193775000Y-87624997D03*
X224600000Y-59200000D03*
X228000000Y-102800000D03*
X196900000Y-56600000D03*
X210750000Y-68000000D03*
X233025000Y-86000000D03*
X221600000Y-105000000D03*
X226750000Y-95275000D03*
X229600000Y-87800000D03*
X189500000Y-102500000D03*
X192400000Y-59200000D03*
X185400000Y-58800000D03*
X192000000Y-139000000D03*
X185000000Y-87250000D03*
X174500000Y-61450000D03*
X221750000Y-127500000D03*
X235600000Y-126400000D03*
X218250000Y-128750000D03*
X224775000Y-99025000D03*
X207250000Y-47250000D03*
X179910529Y-64906412D03*
X231500000Y-65200000D03*
X177475000Y-65200000D03*
X210600000Y-92400000D03*
X228200000Y-81200000D03*
X208125000Y-80875000D03*
X180200000Y-92000000D03*
X169225000Y-62000000D03*
X214600000Y-46775000D03*
X168750000Y-46500000D03*
X179600000Y-76000000D03*
X180400000Y-139000000D03*
X206750000Y-60000000D03*
X199750000Y-97500000D03*
X170925000Y-58675000D03*
X188200000Y-53800000D03*
X215000000Y-123000000D03*
X190100000Y-46900000D03*
X203600000Y-58025000D03*
X221000000Y-65000000D03*
X213750000Y-93000000D03*
X220250000Y-122750000D03*
X191200000Y-92400000D03*
X230220000Y-128280000D03*
X227500000Y-76000000D03*
X177800000Y-67100000D03*
X235025000Y-95975000D03*
X181250000Y-82000000D03*
X165800000Y-125600000D03*
X228000000Y-53800000D03*
%TO.N,+12V*%
X210500000Y-98500000D03*
X179000000Y-96250000D03*
X172500000Y-65000000D03*
X192475000Y-99075000D03*
%TO.N,+3.3V*%
X167000000Y-69750000D03*
X230025000Y-81225000D03*
X208400000Y-70200000D03*
X211750000Y-127500000D03*
X195000000Y-42500000D03*
X207800000Y-82050000D03*
X211600000Y-80800000D03*
X197800003Y-56600000D03*
X231400000Y-81200000D03*
X180000000Y-78400000D03*
X204000000Y-59000000D03*
X226200000Y-92200000D03*
X219400000Y-42750000D03*
X192800000Y-87600000D03*
X225800000Y-79800000D03*
X208750000Y-75675000D03*
X186300003Y-58800000D03*
X170000000Y-92200000D03*
X165750000Y-69750000D03*
X234123900Y-95936950D03*
X168500000Y-69750000D03*
X196501388Y-86950000D03*
X184900000Y-85500000D03*
X169800000Y-112800000D03*
X221558000Y-123905000D03*
X230600000Y-85750000D03*
X188400000Y-92400000D03*
X181000000Y-78400000D03*
X207400000Y-92400000D03*
X226300000Y-62800000D03*
X193300003Y-59200000D03*
X237000000Y-101000000D03*
X179600000Y-75000000D03*
%TO.N,/GATE1_IN*%
X177500000Y-74250000D03*
X185750000Y-73250000D03*
%TO.N,/CV2_IN*%
X194400000Y-80400000D03*
X185200000Y-66400000D03*
X184800000Y-80400000D03*
%TO.N,/FMC_D15*%
X207239411Y-66210766D03*
X223630025Y-71950000D03*
%TO.N,/FMC_D4*%
X225900000Y-76300000D03*
X196200000Y-61050000D03*
%TO.N,/FADER1_IN*%
X170750000Y-77000000D03*
X187750000Y-64000000D03*
%TO.N,/FADER2_IN*%
X181000000Y-93000000D03*
X190250000Y-64250000D03*
%TO.N,/FMC_D8*%
X205730025Y-57969975D03*
X199500000Y-59250000D03*
%TO.N,/I2S1_SDO*%
X195466784Y-91226833D03*
X236784606Y-99896183D03*
%TO.N,/I2C1_SCL*%
X236300000Y-102700000D03*
X190000000Y-87750000D03*
%TO.N,/FMC_NBL0*%
X202608698Y-86368747D03*
X187373440Y-85126560D03*
%TO.N,/FMC_A7*%
X195254339Y-67215687D03*
X202201908Y-67048091D03*
%TO.N,/FMC_SDNE0*%
X197101388Y-75500000D03*
X211700000Y-83300000D03*
%TO.N,/NRST*%
X185000000Y-70400000D03*
X186400000Y-66500000D03*
%TO.N,/FMC_D12*%
X223750000Y-62000000D03*
X216750000Y-62000000D03*
%TO.N,/FMC_A4*%
X187600000Y-75250000D03*
X210600000Y-69400000D03*
%TO.N,/FMC_D14*%
X207750000Y-65450000D03*
X223000000Y-71250000D03*
%TO.N,/FMC_BA1*%
X201300000Y-76800000D03*
X206250000Y-76800000D03*
%TO.N,/BUTTON1_IN*%
X187250000Y-70750000D03*
%TO.N,/FAD_LED2_OUT*%
X206200000Y-86100000D03*
X192800000Y-89800000D03*
%TO.N,/FMC_A3*%
X198796164Y-76836173D03*
X211500000Y-76500000D03*
%TO.N,/BUTTON2_IN*%
X185500000Y-71750000D03*
%TO.N,/FMC_SDNRAS*%
X210700000Y-83300000D03*
X198000000Y-75450000D03*
%TO.N,/FMC_SDCKE0*%
X217842939Y-68513315D03*
X195250000Y-72750000D03*
%TO.N,/FMC_A11*%
X196644975Y-65050000D03*
X203750000Y-61750000D03*
%TO.N,/FMC_D11*%
X214500000Y-59000000D03*
X219250000Y-61250000D03*
%TO.N,/I2S1_SDI*%
X237074318Y-99044085D03*
X196369975Y-92130025D03*
%TO.N,/FMC_D6*%
X215750000Y-72250000D03*
X200750000Y-65067258D03*
%TO.N,+3.3VA*%
X178800000Y-85400000D03*
X173000000Y-79600000D03*
X173000000Y-79600000D03*
%TO.N,-12V*%
X181250000Y-97750000D03*
X163000000Y-63250000D03*
%TO.N,/FAD_LED3_OUT*%
X207250000Y-86100000D03*
%TO.N,/FMC_A5*%
X211656226Y-69800000D03*
X189219975Y-74569975D03*
%TO.N,/FMC_A9*%
X195244975Y-65255025D03*
X204505737Y-62338283D03*
%TO.N,/FMC_A0*%
X200655788Y-78865837D03*
X214600000Y-79263567D03*
%TO.N,/CV1_IN*%
X193773839Y-75763789D03*
X216000000Y-92510050D03*
X212500000Y-118750000D03*
X213750000Y-105250000D03*
%TO.N,/FMC_NBL1*%
X219209361Y-69050000D03*
X187700000Y-81300000D03*
%TO.N,/SWDIO*%
X202800000Y-89200000D03*
X193363602Y-93363602D03*
%TO.N,/FMC_D9*%
X203750000Y-57000000D03*
X199546359Y-60296358D03*
%TO.N,/FMC_A1*%
X200292441Y-78042441D03*
X213575754Y-79229272D03*
%TO.N,/FAD_LED4_OUT*%
X223243750Y-89156250D03*
X203100000Y-79800000D03*
%TO.N,/V_OCT_IN*%
X173800000Y-122600000D03*
X189750000Y-61000000D03*
X170750000Y-95000000D03*
X199750000Y-127750000D03*
%TO.N,/FMC_SDCLK*%
X213000000Y-76400000D03*
X219857557Y-69700000D03*
%TO.N,/FMC_SDNCAS*%
X191537412Y-85487588D03*
X202234992Y-85550000D03*
%TO.N,/FMC_SDNWE*%
X219410355Y-79410355D03*
X200250000Y-76150000D03*
%TO.N,/FAD_LED1_OUT*%
X174500000Y-86500000D03*
X199250000Y-74000000D03*
%TO.N,/FMC_A10*%
X198600000Y-71600000D03*
X210988796Y-73613480D03*
%TO.N,/SWCLK*%
X194200000Y-94600000D03*
X200800000Y-89400000D03*
X204059926Y-85840074D03*
%TO.N,/I2C1_SDA*%
X189000000Y-87000000D03*
X235000000Y-103000000D03*
%TO.N,/FMC_A6*%
X202900000Y-68700000D03*
X195141422Y-68108578D03*
%TO.N,/FMC_A2*%
X209800000Y-77575000D03*
X199832726Y-77032726D03*
%TO.N,/FMC_D7*%
X201800000Y-65800000D03*
X214750000Y-72250000D03*
%TO.N,/FMC_D3*%
X226720321Y-79220321D03*
X225444975Y-82544975D03*
%TO.N,/FMC_D5*%
X216852945Y-72199999D03*
X199619975Y-65119975D03*
%TO.N,/FMC_A8*%
X213154975Y-63745025D03*
X195250000Y-66250000D03*
%TO.N,Net-(C45-Pad1)*%
X202000000Y-100250000D03*
X181250000Y-111750000D03*
%TO.N,Net-(U9A--)*%
X201250000Y-107750000D03*
X198500000Y-106750000D03*
X201905331Y-101344669D03*
%TO.N,Net-(C46-Pad1)*%
X199750000Y-102500000D03*
%TO.N,/Audio Codec/Input Output Channels/INR*%
X232083700Y-103750000D03*
X215750000Y-108575000D03*
%TO.N,/Audio Codec/Input Output Channels/INL*%
X232979504Y-103939709D03*
X215750000Y-99000000D03*
%TO.N,Net-(C52-Pad1)*%
X218400000Y-97250000D03*
X215500000Y-97250000D03*
%TO.N,Net-(C53-Pad1)*%
X223000000Y-102750000D03*
X222400000Y-105850000D03*
%TO.N,Net-(C54-Pad1)*%
X213500000Y-103750000D03*
X223700000Y-107900000D03*
%TO.N,/SWO*%
X188700000Y-82200000D03*
%TO.N,Net-(R11-Pad2)*%
X185500000Y-110250000D03*
%TO.N,Net-(R12-Pad2)*%
X185250000Y-111500000D03*
%TO.N,/CV2_IN*%
X217600000Y-93210050D03*
%TD*%
D47*
%TO.N,GND*%
X229050000Y-95250000D02*
X229000000Y-95200000D01*
X229975000Y-95250000D02*
X229050000Y-95250000D01*
D48*
%TO.N,Net-(U13B--)*%
X217400000Y-121400000D02*
X215837500Y-119837500D01*
X217400000Y-122600000D02*
X217400000Y-121400000D01*
X216225000Y-123775000D02*
X217400000Y-122600000D01*
X216200000Y-123775000D02*
X216225000Y-123775000D01*
X215837500Y-119837500D02*
X214000000Y-119837500D01*
%TO.N,Net-(J6-PadT)*%
X220587500Y-108992500D02*
X219500000Y-110080000D01*
X220587500Y-107250000D02*
X220587500Y-108992500D01*
%TO.N,Net-(C54-Pad1)*%
X227887500Y-106800000D02*
X228587500Y-107500000D01*
X223700000Y-107900000D02*
X224800000Y-106800000D01*
X224800000Y-106800000D02*
X227887500Y-106800000D01*
%TO.N,Net-(U11B--)*%
X223289000Y-125365000D02*
X223289000Y-126635000D01*
%TO.N,/UART4_RX*%
X228180000Y-44235000D02*
X229000000Y-43415000D01*
X215035000Y-44235000D02*
X228180000Y-44235000D01*
X196200000Y-50000000D02*
X202800000Y-43400000D01*
X214200000Y-43400000D02*
X215035000Y-44235000D01*
X186000000Y-50000000D02*
X196200000Y-50000000D01*
X185200000Y-50800000D02*
X186000000Y-50000000D01*
X202800000Y-43400000D02*
X214200000Y-43400000D01*
D47*
%TO.N,GND*%
X227645000Y-45955000D02*
X227600000Y-46000000D01*
X229000000Y-45955000D02*
X227645000Y-45955000D01*
D48*
%TO.N,/UART4_TX*%
X219160050Y-42000000D02*
X227875000Y-42000000D01*
X202200000Y-42200000D02*
X218960050Y-42200000D01*
X227875000Y-42000000D02*
X229000000Y-40875000D01*
X195600000Y-48800000D02*
X202200000Y-42200000D01*
X185400000Y-48800000D02*
X195600000Y-48800000D01*
X184400000Y-49800000D02*
X185400000Y-48800000D01*
X218960050Y-42200000D02*
X219160050Y-42000000D01*
%TO.N,+3.3VA*%
X181950000Y-65617333D02*
X181950000Y-65750000D01*
X180600000Y-64267333D02*
X181950000Y-65617333D01*
X180600000Y-64025000D02*
X180600000Y-64267333D01*
%TO.N,/UART4_TX*%
X181742893Y-62842893D02*
X181600000Y-62700000D01*
X181750000Y-62842893D02*
X181742893Y-62842893D01*
X181750000Y-64710227D02*
X181750000Y-62842893D01*
X182289773Y-65250000D02*
X181750000Y-64710227D01*
X182289774Y-65250000D02*
X182289773Y-65250000D01*
%TO.N,+3.3V*%
X179700000Y-66500000D02*
X179025000Y-65825000D01*
X181744408Y-66925000D02*
X180473528Y-66925000D01*
X180048528Y-66500000D02*
X179700000Y-66500000D01*
X182069408Y-67250000D02*
X181744408Y-66925000D01*
X180473528Y-66925000D02*
X180048528Y-66500000D01*
X179025000Y-65825000D02*
X179025000Y-64250000D01*
X183337500Y-67250000D02*
X182069408Y-67250000D01*
%TO.N,/UART4_TX*%
X183337500Y-65250000D02*
X182289774Y-65250000D01*
%TO.N,/UART4_RX*%
X182250000Y-63050000D02*
X182600000Y-62700000D01*
X182250000Y-64503120D02*
X182250000Y-63050000D01*
X182496880Y-64750000D02*
X182250000Y-64503120D01*
X183337500Y-64750000D02*
X182496880Y-64750000D01*
%TO.N,+3.3VA*%
X181950000Y-65750000D02*
X183337500Y-65750000D01*
%TO.N,/UART4_TX*%
X183337500Y-65250000D02*
X182703986Y-65250000D01*
%TO.N,GND*%
X181867893Y-66325000D02*
X182292893Y-66750000D01*
X181600000Y-66325000D02*
X181867893Y-66325000D01*
D47*
X181525000Y-66325000D02*
X181600000Y-66325000D01*
X180800000Y-65600000D02*
X181525000Y-66325000D01*
X179910529Y-64906412D02*
X180106412Y-64906412D01*
X180106412Y-64906412D02*
X180800000Y-65600000D01*
D48*
%TO.N,/CV2_IN*%
X185600000Y-65000000D02*
X184850000Y-64250000D01*
X185600000Y-66000000D02*
X185600000Y-65000000D01*
X184850000Y-64250000D02*
X183337500Y-64250000D01*
X185200000Y-66400000D02*
X185600000Y-66000000D01*
D47*
%TO.N,+3.3V*%
X178600000Y-65200000D02*
X179025000Y-64775000D01*
X179025000Y-64775000D02*
X179025000Y-64250000D01*
%TO.N,GND*%
X177475000Y-64250000D02*
X177475000Y-65200000D01*
%TO.N,+3.3VA*%
X179750000Y-62575000D02*
X180800000Y-63625000D01*
X176000000Y-63800000D02*
X176800000Y-63000000D01*
X176800000Y-63000000D02*
X180200000Y-63000000D01*
X173000000Y-68600000D02*
X176000000Y-65600000D01*
X176000000Y-65600000D02*
X176000000Y-63800000D01*
X173000000Y-79600000D02*
X173000000Y-68600000D01*
%TO.N,+3.3V*%
X174337500Y-76137500D02*
X174600000Y-76400000D01*
X174337500Y-75500000D02*
X174337500Y-76137500D01*
D48*
X222025000Y-80225000D02*
X222400000Y-80600000D01*
X221500000Y-80225000D02*
X222025000Y-80225000D01*
%TO.N,GND*%
X202687500Y-130087500D02*
X201800000Y-129200000D01*
X202687500Y-130200000D02*
X202687500Y-130087500D01*
%TO.N,/V_OCT_IN*%
X205750000Y-128962500D02*
X204512500Y-130200000D01*
X205750000Y-127775000D02*
X205750000Y-128962500D01*
D47*
%TO.N,GND*%
X206125000Y-103725000D02*
X206600000Y-104200000D01*
X205750000Y-103725000D02*
X206125000Y-103725000D01*
D48*
X215665000Y-104135000D02*
X215600000Y-104200000D01*
X217211000Y-104135000D02*
X215665000Y-104135000D01*
X234800000Y-97015000D02*
X234750000Y-97065000D01*
X234800000Y-96200000D02*
X234800000Y-97015000D01*
X235025000Y-95975000D02*
X234800000Y-96200000D01*
%TO.N,/CV2_IN*%
X223800000Y-102000000D02*
X223800000Y-103400000D01*
X223400000Y-100800000D02*
X223400000Y-101600000D01*
X222800000Y-100200000D02*
X223400000Y-100800000D01*
X218600000Y-100200000D02*
X222800000Y-100200000D01*
X217600000Y-99200000D02*
X218600000Y-100200000D01*
X223400000Y-101600000D02*
X223800000Y-102000000D01*
X217600000Y-93210050D02*
X217600000Y-99200000D01*
D47*
%TO.N,GND*%
X217312500Y-124762500D02*
X217600000Y-124475000D01*
X217312500Y-125600000D02*
X217312500Y-124762500D01*
X217312500Y-127712500D02*
X217275000Y-127750000D01*
D48*
%TO.N,/CV1_IN*%
X214702500Y-126385000D02*
X213461000Y-126385000D01*
X215487500Y-125600000D02*
X214702500Y-126385000D01*
%TO.N,Net-(U13B--)*%
X220000000Y-127750000D02*
X220025000Y-127775000D01*
X220000000Y-125200000D02*
X220000000Y-127750000D01*
X218575000Y-123775000D02*
X220000000Y-125200000D01*
X220025000Y-127775000D02*
X222000000Y-129750000D01*
X216200000Y-123775000D02*
X218575000Y-123775000D01*
X222000000Y-129750000D02*
X222000000Y-135837500D01*
%TO.N,/CV1_IN*%
X215475000Y-122225000D02*
X216200000Y-122225000D01*
X215000000Y-121750000D02*
X215475000Y-122225000D01*
%TO.N,Net-(U13B--)*%
X214085000Y-125115000D02*
X213461000Y-125115000D01*
X215425000Y-123775000D02*
X214085000Y-125115000D01*
X216200000Y-123775000D02*
X215425000Y-123775000D01*
%TO.N,/FADER3_IN*%
X190580903Y-85780903D02*
X190580903Y-85405871D01*
X191200000Y-86400000D02*
X190580903Y-85780903D01*
X191200000Y-87019408D02*
X191200000Y-86400000D01*
X192480592Y-88300000D02*
X191200000Y-87019408D01*
X193100000Y-88300000D02*
X192480592Y-88300000D01*
X194600000Y-90000000D02*
X194600000Y-89800000D01*
X194600000Y-89800000D02*
X193100000Y-88300000D01*
%TO.N,/I2S1_SDI*%
X190250000Y-84503120D02*
X190250000Y-83662500D01*
X189800000Y-84953120D02*
X190250000Y-84503120D01*
X192789950Y-88800000D02*
X191748528Y-88800000D01*
X190700000Y-87751472D02*
X190700000Y-87002944D01*
X190700000Y-87002944D02*
X189800000Y-86102944D01*
X193500000Y-89510050D02*
X192789950Y-88800000D01*
X189800000Y-86102944D02*
X189800000Y-84953120D01*
X193419975Y-90169974D02*
X193500000Y-90089950D01*
X195380026Y-92130025D02*
X193419975Y-90169974D01*
X193500000Y-90089950D02*
X193500000Y-89510050D01*
X191748528Y-88800000D02*
X190700000Y-87751472D01*
X196369975Y-92130025D02*
X195380026Y-92130025D01*
%TO.N,/FAD_LED2_OUT*%
X192800000Y-89862500D02*
X191912500Y-90750000D01*
X192800000Y-89800000D02*
X192800000Y-89862500D01*
X203407667Y-76250000D02*
X204662500Y-76250000D01*
X201750000Y-77907667D02*
X203407667Y-76250000D01*
X201750000Y-80885226D02*
X201750000Y-77907667D01*
X204242054Y-83377280D02*
X201750000Y-80885226D01*
X206200000Y-86100000D02*
X206200000Y-85557946D01*
X204242054Y-83600000D02*
X204242054Y-83377280D01*
X206200000Y-85557946D02*
X204242054Y-83600000D01*
%TO.N,/SWDIO*%
X205800000Y-79953120D02*
X205503120Y-80250000D01*
X205503120Y-80250000D02*
X204662500Y-80250000D01*
X205800000Y-78880592D02*
X205800000Y-79953120D01*
X206280592Y-78400000D02*
X205800000Y-78880592D01*
X208719408Y-78400000D02*
X206280592Y-78400000D01*
X209075000Y-85125000D02*
X209075000Y-78755592D01*
X209075000Y-78755592D02*
X208719408Y-78400000D01*
X208200000Y-86000000D02*
X209075000Y-85125000D01*
%TO.N,/FAD_LED3_OUT*%
X203614774Y-76750000D02*
X204662500Y-76750000D01*
X202250000Y-78114774D02*
X203614774Y-76750000D01*
X202250000Y-80678120D02*
X202250000Y-78114774D01*
X204742054Y-83170174D02*
X202250000Y-80678120D01*
X207250000Y-85900000D02*
X204742054Y-83392054D01*
X207250000Y-86100000D02*
X207250000Y-85900000D01*
X204742054Y-83392054D02*
X204742054Y-83170174D01*
%TO.N,/FMC_SDNCAS*%
X218700000Y-79300000D02*
X218700000Y-77740000D01*
X202779901Y-85550000D02*
X204029901Y-86800000D01*
X211200000Y-86800000D02*
X218700000Y-79300000D01*
X202234992Y-85550000D02*
X202779901Y-85550000D01*
X204029901Y-86800000D02*
X211200000Y-86800000D01*
%TO.N,/FMC_NBL0*%
X220300000Y-79950000D02*
X220300000Y-77740000D01*
X212850000Y-87400000D02*
X220300000Y-79950000D01*
X202608698Y-86368747D02*
X203639951Y-87400000D01*
X203639951Y-87400000D02*
X212850000Y-87400000D01*
%TO.N,/FMC_D2*%
X200250000Y-85000000D02*
X200250000Y-83662500D01*
X203250000Y-88000000D02*
X200250000Y-85000000D01*
X215700000Y-87300000D02*
X215000000Y-88000000D01*
X215000000Y-88000000D02*
X203250000Y-88000000D01*
%TO.N,/FMC_D3*%
X203089950Y-88500000D02*
X203042893Y-88500000D01*
X203042893Y-88500000D02*
X199750000Y-85207107D01*
X203189950Y-88600000D02*
X203089950Y-88500000D01*
X199750000Y-85207107D02*
X199750000Y-83662500D01*
X219389950Y-88600000D02*
X203189950Y-88600000D01*
X221886441Y-86103509D02*
X219389950Y-88600000D01*
%TO.N,/FAD_LED3_OUT*%
X205600000Y-90200000D02*
X205400000Y-90000000D01*
X206487500Y-90200000D02*
X205600000Y-90200000D01*
%TO.N,Net-(U5B-A)*%
X208800000Y-90200000D02*
X209400000Y-90800000D01*
X208312500Y-90200000D02*
X208800000Y-90200000D01*
%TO.N,/CV1_IN*%
X188150000Y-68750000D02*
X183337500Y-68750000D01*
X193773839Y-75711467D02*
X190900000Y-72837628D01*
X190900000Y-72837628D02*
X190900000Y-71500000D01*
X193773839Y-75763789D02*
X193773839Y-75711467D01*
X190900000Y-71500000D02*
X188150000Y-68750000D01*
%TO.N,/FMC_SDNWE*%
X187500000Y-69250000D02*
X183337500Y-69250000D01*
X190400000Y-72150000D02*
X187500000Y-69250000D01*
X190400000Y-74800000D02*
X190400000Y-72150000D01*
X198042387Y-76600000D02*
X192200000Y-76600000D01*
X198506214Y-76136173D02*
X198042387Y-76600000D01*
X192200000Y-76600000D02*
X190400000Y-74800000D01*
X199090016Y-76140075D02*
X199086114Y-76136173D01*
X200240075Y-76140075D02*
X199090016Y-76140075D01*
X199086114Y-76136173D02*
X198506214Y-76136173D01*
X200250000Y-76150000D02*
X200240075Y-76140075D01*
%TO.N,/FMC_A3*%
X187160050Y-77400000D02*
X185510050Y-75750000D01*
X185510050Y-75750000D02*
X183337500Y-75750000D01*
X198796164Y-76836173D02*
X198232337Y-77400000D01*
X198232337Y-77400000D02*
X187160050Y-77400000D01*
%TO.N,/FMC_A2*%
X185000000Y-76250000D02*
X183337500Y-76250000D01*
X186950000Y-78200000D02*
X185000000Y-76250000D01*
X198665452Y-78200000D02*
X186950000Y-78200000D01*
X199832726Y-77032726D02*
X198665452Y-78200000D01*
%TO.N,/FMC_A1*%
X199300000Y-79000000D02*
X186750000Y-79000000D01*
X200257559Y-78042441D02*
X199300000Y-79000000D01*
X186750000Y-79000000D02*
X184500000Y-76750000D01*
X184500000Y-76750000D02*
X183337500Y-76750000D01*
X200292441Y-78042441D02*
X200257559Y-78042441D01*
%TO.N,/FADER4_IN*%
X189050000Y-63752943D02*
X189250000Y-63552943D01*
X190000000Y-65750000D02*
X189050000Y-64800000D01*
X190378682Y-65750000D02*
X190000000Y-65750000D01*
X196800000Y-72171318D02*
X190378682Y-65750000D01*
X196800000Y-74400000D02*
X196800000Y-72171318D01*
X189250000Y-63552943D02*
X189250000Y-62337500D01*
X196300000Y-74900000D02*
X196800000Y-74400000D01*
X189050000Y-64800000D02*
X189050000Y-63752943D01*
%TO.N,/FMC_SDNE0*%
X191800000Y-71200000D02*
X188850000Y-68250000D01*
X188850000Y-68250000D02*
X183337500Y-68250000D01*
X191800000Y-72210050D02*
X191800000Y-71200000D01*
X194700000Y-75700000D02*
X194000000Y-75000000D01*
X194000000Y-75000000D02*
X194000000Y-74410050D01*
X196901388Y-75700000D02*
X194700000Y-75700000D01*
X194000000Y-74410050D02*
X191800000Y-72210050D01*
X197101388Y-75500000D02*
X196901388Y-75700000D01*
%TO.N,/FADER3_IN*%
X188550000Y-65050000D02*
X188550000Y-63800000D01*
X196000000Y-72500000D02*
X188550000Y-65050000D01*
X196000000Y-74000000D02*
X196000000Y-72500000D01*
X188250000Y-63500000D02*
X188250000Y-62337500D01*
X188550000Y-63800000D02*
X188250000Y-63500000D01*
X195000000Y-75000000D02*
X196000000Y-74000000D01*
%TO.N,/FMC_A5*%
X184250000Y-74750000D02*
X183337500Y-74750000D01*
X189200000Y-74550000D02*
X184450000Y-74550000D01*
X189219975Y-74569975D02*
X189200000Y-74550000D01*
X184450000Y-74550000D02*
X184250000Y-74750000D01*
%TO.N,/FMC_A4*%
X187600000Y-75250000D02*
X183337500Y-75250000D01*
%TO.N,/FMC_BA1*%
X213000000Y-82600000D02*
X215500000Y-80100000D01*
X209780592Y-82600000D02*
X213000000Y-82600000D01*
X215500000Y-80100000D02*
X215500000Y-77740000D01*
X209600000Y-82419408D02*
X209780592Y-82600000D01*
X209600000Y-78400000D02*
X209600000Y-82419408D01*
X208000000Y-76800000D02*
X209600000Y-78400000D01*
X206250000Y-76800000D02*
X208000000Y-76800000D01*
%TO.N,/FMC_SDNE0*%
X217100000Y-79300000D02*
X217100000Y-77740000D01*
X211725000Y-83325000D02*
X213075000Y-83325000D01*
X211700000Y-83300000D02*
X211725000Y-83325000D01*
X213075000Y-83325000D02*
X217100000Y-79300000D01*
D47*
%TO.N,GND*%
X212400000Y-80000000D02*
X213200000Y-80800000D01*
D48*
%TO.N,/FMC_SDNRAS*%
X213200000Y-84000000D02*
X217900000Y-79300000D01*
X211400000Y-84000000D02*
X213200000Y-84000000D01*
X217900000Y-79300000D02*
X217900000Y-77740000D01*
X210700000Y-83300000D02*
X211400000Y-84000000D01*
D47*
%TO.N,+3.3V*%
X210825000Y-79225000D02*
X210825000Y-80000000D01*
X210800000Y-78800000D02*
X210800000Y-79200000D01*
X210700000Y-78700000D02*
X210800000Y-78800000D01*
X210800000Y-79200000D02*
X210825000Y-79225000D01*
X210700000Y-77740000D02*
X210700000Y-78700000D01*
D48*
%TO.N,/FMC_A1*%
X213100000Y-78753518D02*
X213100000Y-77740000D01*
X213575754Y-79229272D02*
X213100000Y-78753518D01*
%TO.N,/FMC_A0*%
X213900000Y-78563567D02*
X213900000Y-77740000D01*
X214600000Y-79263567D02*
X213900000Y-78563567D01*
%TO.N,/FMC_A2*%
X212300000Y-76310050D02*
X212300000Y-77740000D01*
X211789950Y-75800000D02*
X212300000Y-76310050D01*
X210945000Y-75800000D02*
X211789950Y-75800000D01*
X209800000Y-77575000D02*
X209800000Y-76945000D01*
X209800000Y-76945000D02*
X210945000Y-75800000D01*
%TO.N,Net-(C6-Pad2)*%
X206975000Y-79625000D02*
X206975000Y-79500000D01*
X206050000Y-80750000D02*
X206600000Y-80200000D01*
X206600000Y-80000000D02*
X206975000Y-79625000D01*
X204662500Y-80750000D02*
X206050000Y-80750000D01*
X206600000Y-80200000D02*
X206600000Y-80000000D01*
D47*
%TO.N,GND*%
X206912500Y-81225000D02*
X207775000Y-81225000D01*
D48*
X206912500Y-81225000D02*
X206887500Y-81250000D01*
D47*
X207775000Y-81225000D02*
X208125000Y-80875000D01*
D48*
X206887500Y-81250000D02*
X204662500Y-81250000D01*
%TO.N,+3.3V*%
X206525000Y-82775000D02*
X205500000Y-81750000D01*
X205500000Y-81750000D02*
X204662500Y-81750000D01*
D47*
X206912500Y-82775000D02*
X207637500Y-82050000D01*
D48*
X206912500Y-82775000D02*
X206525000Y-82775000D01*
D47*
X207637500Y-82050000D02*
X207800000Y-82050000D01*
D48*
%TO.N,/CV2_IN*%
X228400000Y-122200000D02*
X228400000Y-111000000D01*
X225200000Y-107800000D02*
X228400000Y-111000000D01*
%TO.N,Net-(C51-Pad1)*%
X226912500Y-102112500D02*
X226912500Y-103000000D01*
X226025000Y-101225000D02*
X226912500Y-102112500D01*
X226025000Y-101000000D02*
X226025000Y-101225000D01*
%TO.N,Net-(U10A--)*%
X223337500Y-105000000D02*
X224087500Y-105000000D01*
%TO.N,Net-(C52-Pad1)*%
X220750000Y-97250000D02*
X218400000Y-97250000D01*
%TO.N,/SWCLK*%
X202750000Y-84750000D02*
X202750000Y-83662500D01*
X203840074Y-85840074D02*
X202750000Y-84750000D01*
X204059926Y-85840074D02*
X203840074Y-85840074D01*
D47*
%TO.N,+3.3VA*%
X222912379Y-88356250D02*
X227581250Y-88356250D01*
X207981371Y-91850000D02*
X209950000Y-91850000D01*
X211200000Y-90600000D02*
X220668629Y-90600000D01*
X207731371Y-91600000D02*
X207981371Y-91850000D01*
X201200000Y-91600000D02*
X207731371Y-91600000D01*
X227581250Y-88356250D02*
X229500000Y-90275000D01*
X179000000Y-93881371D02*
X181518629Y-96400000D01*
X209950000Y-91850000D02*
X211200000Y-90600000D01*
X196400000Y-96400000D02*
X201200000Y-91600000D01*
X179000000Y-90825000D02*
X179000000Y-93881371D01*
X181518629Y-96400000D02*
X196400000Y-96400000D01*
X220668629Y-90600000D02*
X222912379Y-88356250D01*
X180200000Y-89625000D02*
X179000000Y-90825000D01*
D48*
%TO.N,/SWDIO*%
X197069975Y-92419975D02*
X196126348Y-93363602D01*
X197069975Y-92130025D02*
X197069975Y-92419975D01*
X202800000Y-89200000D02*
X202300000Y-88700000D01*
X202300000Y-88700000D02*
X200500000Y-88700000D01*
X196126348Y-93363602D02*
X193363602Y-93363602D01*
X200500000Y-88700000D02*
X197069975Y-92130025D01*
D47*
%TO.N,GND*%
X228475000Y-80000000D02*
X228475000Y-80925000D01*
X180425000Y-67725000D02*
X179800000Y-67100000D01*
X176350000Y-68250000D02*
X176350000Y-68800000D01*
D48*
X233750000Y-97065000D02*
X233750000Y-97596140D01*
X213461000Y-123845000D02*
X213461000Y-123789000D01*
D47*
X221500000Y-81775000D02*
X222975000Y-81775000D01*
X169225000Y-62000000D02*
X169225000Y-63000000D01*
D48*
X210750000Y-68000000D02*
X210750000Y-66550000D01*
D47*
X220270000Y-122250000D02*
X220270000Y-122730000D01*
X208800281Y-74100000D02*
X207850000Y-74100000D01*
X230000000Y-65200000D02*
X229900000Y-65300000D01*
D48*
X182250000Y-85500000D02*
X182225000Y-85500000D01*
X193900003Y-86875003D02*
X193525000Y-86500000D01*
D47*
X180550000Y-137687500D02*
X180550000Y-138850000D01*
D48*
X193775000Y-86025000D02*
X193775000Y-86750000D01*
D47*
X229900000Y-65300000D02*
X229900000Y-66500000D01*
D48*
X193275000Y-85525000D02*
X193775000Y-86025000D01*
X206525000Y-68725000D02*
X207500000Y-68725000D01*
X185750000Y-61496880D02*
X185253120Y-61000000D01*
X233783860Y-103000000D02*
X233800000Y-103000000D01*
X192250000Y-84503120D02*
X192746880Y-85000000D01*
D47*
X207850000Y-74100000D02*
X207750000Y-74200000D01*
X217275000Y-127750000D02*
X217275000Y-127775000D01*
D48*
X192025000Y-61271880D02*
X192025000Y-60000000D01*
X197775000Y-85275000D02*
X197775000Y-85912500D01*
D47*
X174250000Y-93000000D02*
X173800000Y-93000000D01*
X177800000Y-67100000D02*
X177500000Y-67100000D01*
X178650000Y-71700000D02*
X178650000Y-73350000D01*
D48*
X201587500Y-97750000D02*
X200000000Y-97750000D01*
D47*
X208514950Y-68725000D02*
X207500000Y-68725000D01*
D48*
X232750000Y-97065000D02*
X232750000Y-96200000D01*
D47*
X182225000Y-86575000D02*
X182250000Y-86600000D01*
X209225000Y-99750000D02*
X208450000Y-99750000D01*
X210900000Y-92400000D02*
X211500000Y-93000000D01*
X215000000Y-123000000D02*
X214211000Y-123789000D01*
X208529656Y-68710294D02*
X208514950Y-68725000D01*
D48*
X197250000Y-62337500D02*
X197250000Y-61496880D01*
D47*
X222750000Y-66450000D02*
X222700000Y-66500000D01*
D48*
X196900000Y-56600000D02*
X196500000Y-57000000D01*
X214211000Y-123789000D02*
X213517000Y-123789000D01*
D47*
X228550000Y-102250000D02*
X228000000Y-102800000D01*
X181250000Y-67725000D02*
X180425000Y-67725000D01*
D48*
X197250000Y-61496880D02*
X197000000Y-61246880D01*
X210750000Y-66550000D02*
X210700000Y-66500000D01*
D47*
X169750000Y-57500000D02*
X170925000Y-58675000D01*
D48*
X185000000Y-59200000D02*
X185400000Y-58800000D01*
D47*
X232200000Y-91800000D02*
X232200000Y-92800000D01*
D48*
X196475000Y-57500000D02*
X196475000Y-59500000D01*
X180200000Y-91175000D02*
X180200000Y-92000000D01*
D47*
X167112500Y-77712500D02*
X167200000Y-77800000D01*
D48*
X185253120Y-61000000D02*
X185250000Y-61000000D01*
X197250000Y-83662500D02*
X197250000Y-84750000D01*
X196475000Y-60062500D02*
X196475000Y-59500000D01*
D47*
X221100000Y-65100000D02*
X221100000Y-66500000D01*
X221100000Y-105500000D02*
X221600000Y-105000000D01*
X191800000Y-93000000D02*
X191200000Y-92400000D01*
X228750000Y-62750000D02*
X227775000Y-62750000D01*
X222700000Y-77740000D02*
X222700000Y-79425000D01*
X220270000Y-122730000D02*
X220250000Y-122750000D01*
X234750000Y-103950000D02*
X233605000Y-102805000D01*
D48*
X181250000Y-72525000D02*
X181250000Y-72500000D01*
D47*
X225137500Y-103000000D02*
X225137500Y-103662500D01*
X165820000Y-125620000D02*
X165800000Y-125600000D01*
X206345000Y-123845000D02*
X206250000Y-123750000D01*
X222700000Y-79425000D02*
X223475000Y-80200000D01*
D48*
X192750000Y-85000000D02*
X193275000Y-85525000D01*
D47*
X208039000Y-123845000D02*
X206345000Y-123845000D01*
X182025000Y-57225000D02*
X181750000Y-57500000D01*
X181250000Y-72525000D02*
X179475000Y-72525000D01*
D48*
X205500000Y-60000000D02*
X206750000Y-60000000D01*
X185750000Y-62337500D02*
X185750000Y-61496880D01*
D47*
X233250000Y-80000000D02*
X233250000Y-81150000D01*
X185025000Y-87275000D02*
X185000000Y-87250000D01*
X193775000Y-87624997D02*
X193775000Y-86750000D01*
X231500000Y-65200000D02*
X231500000Y-66500000D01*
X233025000Y-86000000D02*
X233025000Y-85000000D01*
D48*
X192746880Y-85000000D02*
X192750000Y-85000000D01*
D47*
X218310000Y-128750000D02*
X219500000Y-129940000D01*
D48*
X191550000Y-137437500D02*
X191550000Y-138550000D01*
D47*
X178650000Y-73350000D02*
X178500000Y-73500000D01*
X179800000Y-67100000D02*
X177800000Y-67100000D01*
X235000000Y-125800000D02*
X235600000Y-126400000D01*
D48*
X233250000Y-101935000D02*
X233265000Y-101950000D01*
D47*
X197775000Y-86625000D02*
X197400000Y-87000000D01*
X222750000Y-65000000D02*
X222750000Y-66450000D01*
X233250000Y-81150000D02*
X233200000Y-81200000D01*
X223650000Y-116137500D02*
X223475000Y-116312500D01*
X234750000Y-104350000D02*
X234200000Y-104900000D01*
X166200000Y-77712500D02*
X167112500Y-77712500D01*
D48*
X192250000Y-83662500D02*
X192250000Y-84503120D01*
D47*
X206250000Y-125000000D02*
X207924000Y-125000000D01*
D48*
X185250000Y-61000000D02*
X184950000Y-60700000D01*
X205162500Y-69250000D02*
X206003120Y-69250000D01*
X182000000Y-91162500D02*
X182000000Y-92000000D01*
D47*
X229635000Y-126635000D02*
X230250000Y-127250000D01*
X193975000Y-100525000D02*
X195500000Y-100525000D01*
D48*
X206250000Y-74750000D02*
X206800000Y-74200000D01*
X197000000Y-60587500D02*
X196475000Y-60062500D01*
X206775000Y-74200000D02*
X207750000Y-74200000D01*
X200000000Y-97750000D02*
X199750000Y-97500000D01*
X176850000Y-68800000D02*
X176850000Y-68050000D01*
X233265000Y-102481140D02*
X233783860Y-103000000D01*
X230565000Y-101250000D02*
X229750000Y-101250000D01*
D47*
X217275000Y-127775000D02*
X218250000Y-128750000D01*
D48*
X227500000Y-77740000D02*
X227500000Y-76000000D01*
D47*
X229595000Y-127905000D02*
X230250000Y-127250000D01*
X181250000Y-81025000D02*
X181250000Y-82000000D01*
D48*
X221987500Y-127262500D02*
X222630000Y-127905000D01*
D47*
X174500000Y-61450000D02*
X174500000Y-62425000D01*
D48*
X206003120Y-69250000D02*
X206500000Y-68753120D01*
X222630000Y-127905000D02*
X223289000Y-127905000D01*
D47*
X223475000Y-81275000D02*
X223250000Y-81500000D01*
X168750000Y-57500000D02*
X169500000Y-57500000D01*
X228475000Y-80925000D02*
X228200000Y-81200000D01*
X203461000Y-102885000D02*
X204910000Y-102885000D01*
X207924000Y-125000000D02*
X208039000Y-125115000D01*
X223650000Y-113937500D02*
X223650000Y-116137500D01*
D48*
X192025000Y-59575000D02*
X192025000Y-60000000D01*
D47*
X180750000Y-76275000D02*
X179875000Y-76275000D01*
D48*
X206365000Y-125115000D02*
X206250000Y-125000000D01*
X218275000Y-128750000D02*
X218250000Y-128750000D01*
D47*
X232200000Y-92800000D02*
X232000000Y-93000000D01*
X235000000Y-96000000D02*
X235025000Y-95975000D01*
X230500000Y-128560000D02*
X230220000Y-128280000D01*
X179875000Y-76275000D02*
X179600000Y-76000000D01*
X181750000Y-57500000D02*
X179800000Y-57500000D01*
X233025000Y-89475000D02*
X233025000Y-90500000D01*
D48*
X213517000Y-123789000D02*
X213461000Y-123845000D01*
D47*
X204910000Y-102885000D02*
X205750000Y-103725000D01*
X208125000Y-80875000D02*
X208125000Y-79400000D01*
X182225000Y-85500000D02*
X182225000Y-86575000D01*
X192250000Y-93000000D02*
X191800000Y-93000000D01*
D48*
X192250000Y-61496880D02*
X192025000Y-61271880D01*
D47*
X213750000Y-93000000D02*
X213750000Y-95337500D01*
D48*
X196500000Y-57000000D02*
X196500000Y-57250000D01*
X208800281Y-74100000D02*
X208675281Y-74225000D01*
X190837500Y-102500000D02*
X189500000Y-102500000D01*
D47*
X221000000Y-65000000D02*
X221100000Y-65100000D01*
X227775000Y-62750000D02*
X227500000Y-62475000D01*
D48*
X208125000Y-80875000D02*
X208000000Y-81000000D01*
X218250000Y-128750000D02*
X218250000Y-128725000D01*
D47*
X208125000Y-79400000D02*
X208275000Y-79250000D01*
X193750000Y-100750000D02*
X193975000Y-100525000D01*
X197775000Y-85912500D02*
X197775000Y-86625000D01*
D48*
X211789000Y-105405000D02*
X210095000Y-105405000D01*
X184950000Y-60700000D02*
X184950000Y-59662500D01*
D47*
X167500000Y-125620000D02*
X165820000Y-125620000D01*
X228750000Y-102250000D02*
X228550000Y-102250000D01*
X229845000Y-127905000D02*
X230220000Y-128280000D01*
X228711000Y-127905000D02*
X229595000Y-127905000D01*
X208450000Y-99750000D02*
X208000000Y-100200000D01*
X223475000Y-80200000D02*
X223475000Y-81275000D01*
X206250000Y-123750000D02*
X206250000Y-125000000D01*
D48*
X219500000Y-129940000D02*
X219465000Y-129940000D01*
X221987500Y-127262500D02*
X221750000Y-127500000D01*
D47*
X179475000Y-72525000D02*
X178650000Y-71700000D01*
X220270000Y-122250000D02*
X219500000Y-121480000D01*
D48*
X181600000Y-75425000D02*
X181600000Y-75146880D01*
D47*
X235000000Y-125662500D02*
X235000000Y-125800000D01*
X230500000Y-129940000D02*
X230500000Y-128560000D01*
D48*
X226750000Y-96725000D02*
X226750000Y-95275000D01*
X192400000Y-59200000D02*
X192025000Y-59575000D01*
X181600000Y-75146880D02*
X182496880Y-74250000D01*
D47*
X213200000Y-80925000D02*
X212375000Y-81750000D01*
X225725000Y-59200000D02*
X225750000Y-59225000D01*
D48*
X229750000Y-101250000D02*
X228750000Y-102250000D01*
D47*
X210600000Y-92400000D02*
X210900000Y-92400000D01*
D48*
X192250000Y-62337500D02*
X192250000Y-61496880D01*
D47*
X234750000Y-104250000D02*
X234750000Y-104350000D01*
D48*
X185000000Y-59500000D02*
X185000000Y-59200000D01*
D47*
X228711000Y-126635000D02*
X229635000Y-126635000D01*
D48*
X183337500Y-66750000D02*
X182292893Y-66750000D01*
X180750000Y-76275000D02*
X181600000Y-75425000D01*
X202250000Y-58025000D02*
X203500000Y-58025000D01*
X232750000Y-96200000D02*
X232550000Y-96000000D01*
X186250000Y-87275000D02*
X186250000Y-87250000D01*
X233800000Y-103000000D02*
X233600000Y-102800000D01*
D47*
X186250000Y-87275000D02*
X185025000Y-87275000D01*
X225100000Y-64900000D02*
X225100000Y-66500000D01*
X224600000Y-59200000D02*
X225725000Y-59200000D01*
X175250000Y-132200000D02*
X175250000Y-141300000D01*
D48*
X182496880Y-74250000D02*
X183337500Y-74250000D01*
X226225000Y-99000000D02*
X224800000Y-99000000D01*
X210095000Y-105405000D02*
X210000000Y-105500000D01*
D47*
X229500000Y-87900000D02*
X229600000Y-87800000D01*
X234750000Y-104250000D02*
X234750000Y-103950000D01*
D48*
X204662500Y-74750000D02*
X206250000Y-74750000D01*
D47*
X234200000Y-104900000D02*
X233525000Y-104900000D01*
X197845000Y-104155000D02*
X197000000Y-105000000D01*
X177500000Y-67100000D02*
X176350000Y-68250000D01*
X198039000Y-104155000D02*
X197845000Y-104155000D01*
X222975000Y-81775000D02*
X223250000Y-81500000D01*
X173800000Y-93000000D02*
X173200000Y-92400000D01*
D48*
X221250000Y-126525000D02*
X221987500Y-127262500D01*
D47*
X218250000Y-128750000D02*
X218310000Y-128750000D01*
D48*
X191550000Y-138550000D02*
X192000000Y-139000000D01*
D47*
X229500000Y-88725000D02*
X229500000Y-87900000D01*
D48*
X233265000Y-101950000D02*
X233265000Y-102481140D01*
D47*
X235025000Y-95975000D02*
X235025000Y-94750000D01*
X220775000Y-105500000D02*
X221100000Y-105500000D01*
X229595000Y-127905000D02*
X229845000Y-127905000D01*
X233605000Y-102805000D02*
X233600000Y-102805000D01*
D48*
X197000000Y-61246880D02*
X197000000Y-60587500D01*
X197250000Y-84750000D02*
X197775000Y-85275000D01*
D47*
X180550000Y-138850000D02*
X180400000Y-139000000D01*
%TO.N,+12V*%
X181450000Y-99200000D02*
X179000000Y-96750000D01*
X172500000Y-59200000D02*
X174200000Y-57500000D01*
X210775000Y-98775000D02*
X210500000Y-98500000D01*
X196225000Y-98975000D02*
X195500000Y-98975000D01*
X197595000Y-100345000D02*
X196225000Y-98975000D01*
X172500000Y-65000000D02*
X172500000Y-59200000D01*
X195475000Y-99000000D02*
X195500000Y-98975000D01*
X211789000Y-100764000D02*
X210775000Y-99750000D01*
X211789000Y-101595000D02*
X211789000Y-100764000D01*
X192350000Y-99200000D02*
X181450000Y-99200000D01*
X174200000Y-57500000D02*
X176250000Y-55450000D01*
X210775000Y-99750000D02*
X210775000Y-98775000D01*
X176250000Y-55450000D02*
X176250000Y-49187500D01*
X192550000Y-99000000D02*
X195475000Y-99000000D01*
X198039000Y-100345000D02*
X197595000Y-100345000D01*
X179000000Y-96750000D02*
X179000000Y-96250000D01*
X192475000Y-99075000D02*
X192350000Y-99200000D01*
X192475000Y-99075000D02*
X192550000Y-99000000D01*
D48*
%TO.N,+3.3V*%
X192250000Y-85210226D02*
X192250000Y-86225000D01*
D47*
X208325000Y-70275000D02*
X207500000Y-70275000D01*
X180000000Y-78400000D02*
X181000000Y-78400000D01*
X225025000Y-80200000D02*
X225400000Y-80200000D01*
X230650000Y-85800000D02*
X230600000Y-85750000D01*
D48*
X202750000Y-60750000D02*
X203500000Y-60000000D01*
X193575000Y-60675000D02*
X193575000Y-60000000D01*
D47*
X211750000Y-127500000D02*
X213306000Y-127500000D01*
X192225000Y-86750000D02*
X192225000Y-87025000D01*
D48*
X186250000Y-60500000D02*
X186250000Y-62337500D01*
X191975000Y-86500000D02*
X191975000Y-86975000D01*
X206250000Y-75250000D02*
X206775000Y-75775000D01*
D47*
X196501388Y-86950000D02*
X196225000Y-86673612D01*
D48*
X181314774Y-74725000D02*
X180750000Y-74725000D01*
D47*
X179662500Y-79500000D02*
X179662500Y-78737500D01*
D48*
X204662500Y-75250000D02*
X206250000Y-75250000D01*
X182289774Y-73750000D02*
X181314774Y-74725000D01*
X221250000Y-124975000D02*
X222130000Y-124095000D01*
D47*
X181250000Y-79475000D02*
X181250000Y-78650000D01*
X231700000Y-80900000D02*
X231400000Y-81200000D01*
D48*
X197750000Y-61496880D02*
X198000000Y-61246880D01*
X234250000Y-97065000D02*
X234250000Y-96063050D01*
D47*
X225025000Y-77815000D02*
X225100000Y-77740000D01*
X231475000Y-85000000D02*
X231475000Y-85800000D01*
X227000000Y-93000000D02*
X226200000Y-92200000D01*
D48*
X237000000Y-101000000D02*
X236898473Y-101000000D01*
X186500000Y-58999997D02*
X186300003Y-58800000D01*
X198025000Y-57500000D02*
X198025000Y-59500000D01*
D47*
X226300000Y-62825000D02*
X227500000Y-64025000D01*
D48*
X198000000Y-57250000D02*
X198000000Y-56799997D01*
D47*
X229900000Y-79875000D02*
X230025000Y-80000000D01*
D48*
X229900000Y-79875000D02*
X229775000Y-80000000D01*
D47*
X210825000Y-81575000D02*
X211600000Y-80800000D01*
D48*
X184900000Y-85500000D02*
X185250000Y-85150000D01*
X206528120Y-70275000D02*
X207500000Y-70275000D01*
D47*
X227500000Y-64025000D02*
X227500000Y-66500000D01*
D48*
X236148473Y-100250000D02*
X235435000Y-100250000D01*
X208750000Y-75675000D02*
X208700000Y-75725000D01*
D47*
X231500000Y-79800000D02*
X231700000Y-80000000D01*
X230025000Y-81225000D02*
X230025000Y-80000000D01*
X231475000Y-86575000D02*
X231500000Y-86600000D01*
X168600000Y-72800000D02*
X168600000Y-74125000D01*
X225400000Y-80200000D02*
X225800000Y-79800000D01*
D48*
X193250000Y-61000000D02*
X193575000Y-60675000D01*
X186250000Y-85250000D02*
X186250000Y-85975000D01*
D47*
X181250000Y-78650000D02*
X181000000Y-78400000D01*
D48*
X191750000Y-83662500D02*
X191750000Y-84710226D01*
X183337500Y-79250000D02*
X181475000Y-79250000D01*
D47*
X231475000Y-85800000D02*
X231475000Y-86575000D01*
X206500000Y-93000000D02*
X206800000Y-93000000D01*
D48*
X191750000Y-84710226D02*
X192250000Y-85210226D01*
D47*
X167500000Y-112920000D02*
X169680000Y-112920000D01*
D48*
X222130000Y-124095000D02*
X223289000Y-124095000D01*
X192750000Y-61496880D02*
X193246880Y-61000000D01*
X203500000Y-60000000D02*
X203975000Y-60000000D01*
D47*
X223275000Y-124081000D02*
X223289000Y-124095000D01*
D48*
X183337500Y-73750000D02*
X182289774Y-73750000D01*
X185750000Y-83662500D02*
X185750000Y-84750000D01*
D47*
X208400000Y-70200000D02*
X208325000Y-70275000D01*
X210825000Y-81750000D02*
X210825000Y-80000000D01*
X215630000Y-127655000D02*
X215725000Y-127750000D01*
X221100000Y-77740000D02*
X221100000Y-79825000D01*
D48*
X206775000Y-75775000D02*
X207000000Y-75775000D01*
X193550000Y-59449997D02*
X193300003Y-59200000D01*
X196750000Y-84750000D02*
X196225000Y-85275000D01*
X196225000Y-85275000D02*
X196225000Y-85912500D01*
D47*
X231700000Y-80000000D02*
X231700000Y-80900000D01*
D48*
X196750000Y-83662500D02*
X196750000Y-84750000D01*
D47*
X226300000Y-62800000D02*
X226300000Y-62825000D01*
D48*
X186500000Y-60250000D02*
X186250000Y-60500000D01*
X210700000Y-77740000D02*
X210700000Y-78050000D01*
X181475000Y-79250000D02*
X181250000Y-79475000D01*
X192750000Y-62337500D02*
X192750000Y-61496880D01*
X198000000Y-61246880D02*
X198000000Y-59525000D01*
X236898473Y-101000000D02*
X236148473Y-100250000D01*
D47*
X168000000Y-71650000D02*
X168000000Y-72200000D01*
X213461000Y-127655000D02*
X215630000Y-127655000D01*
D48*
X193246880Y-61000000D02*
X193250000Y-61000000D01*
X197750000Y-62337500D02*
X197750000Y-61496880D01*
D47*
X225025000Y-80250000D02*
X225025000Y-77815000D01*
D48*
X186500000Y-59500000D02*
X186500000Y-58999997D01*
D47*
X196225000Y-86673612D02*
X196225000Y-85912500D01*
D48*
X204000000Y-60000000D02*
X204000000Y-59000000D01*
X198000000Y-56799997D02*
X197800003Y-56600000D01*
D49*
X202750000Y-62337500D02*
X202750000Y-60750000D01*
D48*
X207025000Y-75750000D02*
X207750000Y-75750000D01*
D47*
X208750000Y-75675000D02*
X207825000Y-75675000D01*
D48*
X234250000Y-96063050D02*
X234123900Y-95936950D01*
X206003120Y-69750000D02*
X206528120Y-70275000D01*
D47*
X170000000Y-92200000D02*
X170000000Y-92250000D01*
D48*
X205162500Y-69750000D02*
X206003120Y-69750000D01*
D47*
X170000000Y-92250000D02*
X169250000Y-93000000D01*
X192225000Y-87025000D02*
X192800000Y-87600000D01*
D48*
X198000000Y-59525000D02*
X198025000Y-59500000D01*
D47*
X225750000Y-61950000D02*
X225750000Y-60775000D01*
D48*
X223347000Y-124000000D02*
X221653000Y-124000000D01*
X225100000Y-80175000D02*
X225025000Y-80250000D01*
X184900000Y-85500000D02*
X183775000Y-85500000D01*
D47*
X207825000Y-75675000D02*
X207750000Y-75750000D01*
X169680000Y-112920000D02*
X169800000Y-112800000D01*
X231475000Y-85800000D02*
X230650000Y-85800000D01*
X213306000Y-127500000D02*
X213461000Y-127655000D01*
X187250000Y-93000000D02*
X187800000Y-93000000D01*
D48*
X207000000Y-75775000D02*
X207025000Y-75750000D01*
D47*
X229900000Y-77740000D02*
X229900000Y-79875000D01*
D48*
X185250000Y-85150000D02*
X185250000Y-83662500D01*
D47*
X206800000Y-93000000D02*
X207400000Y-92400000D01*
D48*
X192250000Y-86225000D02*
X191975000Y-86500000D01*
D47*
X179600000Y-75000000D02*
X179875000Y-74725000D01*
D48*
X193550000Y-59750000D02*
X193550000Y-59449997D01*
D47*
X231500000Y-77740000D02*
X231500000Y-79800000D01*
D48*
X185750000Y-84750000D02*
X186250000Y-85250000D01*
D47*
X179662500Y-78737500D02*
X180000000Y-78400000D01*
X187800000Y-93000000D02*
X188400000Y-92400000D01*
D48*
X186500000Y-59662500D02*
X186500000Y-60250000D01*
D47*
X168000000Y-72200000D02*
X168600000Y-72800000D01*
X179875000Y-74725000D02*
X180750000Y-74725000D01*
X226300000Y-62800000D02*
X226300000Y-62500000D01*
X226300000Y-62500000D02*
X225750000Y-61950000D01*
X221100000Y-79825000D02*
X221500000Y-80225000D01*
D48*
%TO.N,Net-(Q1-B)*%
X182450000Y-139050000D02*
X181587500Y-139912500D01*
X182450000Y-137687500D02*
X182450000Y-139050000D01*
X181587500Y-139912500D02*
X181587500Y-140750000D01*
%TO.N,/GATE1_IN*%
X177337500Y-74250000D02*
X176250000Y-75337500D01*
X183337500Y-73250000D02*
X183250000Y-73250000D01*
X176162500Y-75500000D02*
X176162500Y-109337500D01*
X176162500Y-109337500D02*
X174500000Y-111000000D01*
X183337500Y-73250000D02*
X185750000Y-73250000D01*
X174500000Y-111000000D02*
X174500000Y-126750000D01*
X174500000Y-126750000D02*
X181500000Y-133750000D01*
X177500000Y-74250000D02*
X177337500Y-74250000D01*
X181500000Y-133750000D02*
X181500000Y-135812500D01*
%TO.N,/GATE2_IN*%
X177837500Y-106837500D02*
X192500000Y-121500000D01*
X183337500Y-72750000D02*
X182496880Y-72750000D01*
X177837500Y-79500000D02*
X177837500Y-106837500D01*
X192500000Y-121500000D02*
X192500000Y-135562500D01*
X178250000Y-75010050D02*
X178250000Y-79087500D01*
X178250000Y-79087500D02*
X177837500Y-79500000D01*
X182496880Y-72750000D02*
X181321880Y-73925000D01*
X179335050Y-73925000D02*
X178250000Y-75010050D01*
X181321880Y-73925000D02*
X179335050Y-73925000D01*
%TO.N,Net-(Q2-B)*%
X192925000Y-140500000D02*
X192925000Y-139075000D01*
X192925000Y-139075000D02*
X193450000Y-138550000D01*
X192925000Y-140500000D02*
X192750000Y-140500000D01*
X193450000Y-138550000D02*
X193450000Y-137437500D01*
%TO.N,/CV2_IN*%
X234162500Y-126912500D02*
X233000000Y-125750000D01*
X231655000Y-124095000D02*
X231750000Y-124000000D01*
X234162500Y-127500000D02*
X234162500Y-126912500D01*
X233000000Y-125250000D02*
X231750000Y-124000000D01*
X228711000Y-124095000D02*
X228711000Y-122511000D01*
X233000000Y-125750000D02*
X233000000Y-125250000D01*
X194400000Y-80400000D02*
X184800000Y-80400000D01*
X234412500Y-123837500D02*
X234250000Y-124000000D01*
X235000000Y-123837500D02*
X234412500Y-123837500D01*
X228711000Y-122511000D02*
X228400000Y-122200000D01*
X228711000Y-124095000D02*
X231655000Y-124095000D01*
X234250000Y-124000000D02*
X231750000Y-124000000D01*
%TO.N,/FMC_D15*%
X231700000Y-69315238D02*
X231700000Y-69435238D01*
X230460000Y-68475238D02*
X229940000Y-68475238D01*
X229350000Y-71950000D02*
X223630025Y-71950000D01*
X207239411Y-66210766D02*
X206200177Y-67250000D01*
X230700000Y-70035238D02*
X230700000Y-70600000D01*
X229700000Y-68715238D02*
X229700000Y-68835238D01*
X206200177Y-67250000D02*
X204662500Y-67250000D01*
X230700000Y-66500000D02*
X230700000Y-68235238D01*
X230460000Y-69075238D02*
X231460000Y-69075238D01*
X229940000Y-69075238D02*
X230460000Y-69075238D01*
X230700000Y-70600000D02*
X229736420Y-71563580D01*
X231460000Y-69675238D02*
X230940000Y-69675238D01*
X229736420Y-71563580D02*
X229350000Y-71950000D01*
X230700000Y-69915238D02*
X230700000Y-70035238D01*
X229700000Y-68835238D02*
G75*
G03*
X229940000Y-69075200I240000J38D01*
G01*
X230940000Y-69675238D02*
G75*
G03*
X230700038Y-69915238I0J-239962D01*
G01*
X229940000Y-68475238D02*
G75*
G03*
X229700038Y-68715238I0J-239962D01*
G01*
X231460000Y-69075238D02*
G75*
G02*
X231699962Y-69315238I0J-239962D01*
G01*
X230700000Y-68235238D02*
G75*
G02*
X230460000Y-68475200I-240000J38D01*
G01*
X231700000Y-69435238D02*
G75*
G02*
X231460000Y-69675200I-240000J38D01*
G01*
%TO.N,/FMC_D13*%
X228300000Y-66500000D02*
X228300000Y-67400000D01*
X217020000Y-70500000D02*
X216900000Y-70500000D01*
X224400000Y-70500000D02*
X218100000Y-70500000D01*
X228300000Y-67400000D02*
X226600000Y-69100000D01*
X215460000Y-70260000D02*
X215460000Y-68960000D01*
X225800000Y-69100000D02*
X224400000Y-70500000D01*
X205503120Y-66250000D02*
X204662500Y-66250000D01*
X214620000Y-70500000D02*
X214500000Y-70500000D01*
X226600000Y-69100000D02*
X225800000Y-69100000D01*
X207003120Y-64750000D02*
X205503120Y-66250000D01*
X214260000Y-70260000D02*
X214260000Y-68960000D01*
X212100000Y-70500000D02*
X212000000Y-70500000D01*
X212460000Y-69810000D02*
X212460000Y-70260000D01*
X212820000Y-69570000D02*
X212700000Y-69570000D01*
X208125000Y-64750000D02*
X207003120Y-64750000D01*
X215220000Y-68720000D02*
X215100000Y-68720000D01*
X213060000Y-70260000D02*
X213060000Y-69810000D01*
X213660000Y-68960000D02*
X213660000Y-70260000D01*
X228300000Y-66500000D02*
X228300000Y-67200000D01*
X212220000Y-70500000D02*
X212100000Y-70500000D01*
X210500000Y-70500000D02*
X209500000Y-69500000D01*
X213420000Y-70500000D02*
X213300000Y-70500000D01*
X214860000Y-68960000D02*
X214860000Y-70260000D01*
X217860000Y-70260000D02*
X217860000Y-69460000D01*
X216660000Y-70260000D02*
X216660000Y-68960000D01*
X217260000Y-69460000D02*
X217260000Y-70260000D01*
X212000000Y-70500000D02*
X210500000Y-70500000D01*
X214020000Y-68720000D02*
X213900000Y-68720000D01*
X209500000Y-69500000D02*
X209500000Y-66125000D01*
X217620000Y-69220000D02*
X217500000Y-69220000D01*
X209500000Y-66125000D02*
X208125000Y-64750000D01*
X216420000Y-68720000D02*
X216300000Y-68720000D01*
X215820000Y-70500000D02*
X215700000Y-70500000D01*
X216060000Y-68960000D02*
X216060000Y-70260000D01*
X218100000Y-70500000D02*
G75*
G02*
X217860000Y-70260000I0J240000D01*
G01*
X215100000Y-68720000D02*
G75*
G03*
X214860000Y-68960000I0J-240000D01*
G01*
X215460000Y-68960000D02*
G75*
G03*
X215220000Y-68720000I-240000J0D01*
G01*
X216660000Y-68960000D02*
G75*
G03*
X216420000Y-68720000I-240000J0D01*
G01*
X212460000Y-70260000D02*
G75*
G02*
X212220000Y-70500000I-240000J0D01*
G01*
X215700000Y-70500000D02*
G75*
G02*
X215460000Y-70260000I0J240000D01*
G01*
X214260000Y-68960000D02*
G75*
G03*
X214020000Y-68720000I-240000J0D01*
G01*
X213900000Y-68720000D02*
G75*
G03*
X213660000Y-68960000I0J-240000D01*
G01*
X214500000Y-70500000D02*
G75*
G02*
X214260000Y-70260000I0J240000D01*
G01*
X217860000Y-69460000D02*
G75*
G03*
X217620000Y-69220000I-240000J0D01*
G01*
X213660000Y-70260000D02*
G75*
G02*
X213420000Y-70500000I-240000J0D01*
G01*
X216300000Y-68720000D02*
G75*
G03*
X216060000Y-68960000I0J-240000D01*
G01*
X214860000Y-70260000D02*
G75*
G02*
X214620000Y-70500000I-240000J0D01*
G01*
X213300000Y-70500000D02*
G75*
G02*
X213060000Y-70260000I0J240000D01*
G01*
X217260000Y-70260000D02*
G75*
G02*
X217020000Y-70500000I-240000J0D01*
G01*
X216900000Y-70500000D02*
G75*
G02*
X216660000Y-70260000I0J240000D01*
G01*
X217500000Y-69220000D02*
G75*
G03*
X217260000Y-69460000I0J-240000D01*
G01*
X212700000Y-69570000D02*
G75*
G03*
X212460000Y-69810000I0J-240000D01*
G01*
X216060000Y-70260000D02*
G75*
G02*
X215820000Y-70500000I-240000J0D01*
G01*
X213060000Y-69810000D02*
G75*
G03*
X212820000Y-69570000I-240000J0D01*
G01*
%TO.N,/FMC_D4*%
X196200000Y-61050000D02*
X196196880Y-61050000D01*
X225900000Y-76300000D02*
X225900000Y-77740000D01*
X196196880Y-61050000D02*
X195750000Y-61496880D01*
X195750000Y-61496880D02*
X195750000Y-62337500D01*
D10*
%TO.N,Net-(C6-Pad2)*%
X206682410Y-79500000D02*
X206975000Y-79500000D01*
D48*
%TO.N,/I2S1_CK*%
X235200000Y-91400000D02*
X236500000Y-92700000D01*
X235200000Y-65800000D02*
X235200000Y-91400000D01*
X236500000Y-97792894D02*
X236042894Y-98250000D01*
X187250000Y-61496880D02*
X197496880Y-51250000D01*
X236500000Y-92700000D02*
X236500000Y-97792894D01*
X197496880Y-51250000D02*
X220650000Y-51250000D01*
X220650000Y-51250000D02*
X235200000Y-65800000D01*
X187250000Y-62337500D02*
X187250000Y-61496880D01*
X236042894Y-98250000D02*
X235435000Y-98250000D01*
%TO.N,/FADER1_IN*%
X166750000Y-88750000D02*
X166750000Y-93000000D01*
X187750000Y-64000000D02*
X187750000Y-62337500D01*
X170750000Y-77000000D02*
X170750000Y-84750000D01*
X170750000Y-84750000D02*
X166750000Y-88750000D01*
%TO.N,/FADER2_IN*%
X184750000Y-93000000D02*
X181000000Y-93000000D01*
X190250000Y-64250000D02*
X190250000Y-62337500D01*
%TO.N,/FMC_D8*%
X198750000Y-60500000D02*
X198846359Y-60403641D01*
X218230694Y-64200000D02*
X218230694Y-63975000D01*
X218890694Y-64464000D02*
X218890694Y-64936000D01*
X221189950Y-64200000D02*
X220474694Y-64200000D01*
X221900000Y-64910050D02*
X221189950Y-64200000D01*
X218005694Y-63750000D02*
X217795694Y-63750000D01*
X216700000Y-64200000D02*
X216648029Y-64148029D01*
X219946694Y-65200000D02*
X219814694Y-65200000D01*
X213250000Y-60750000D02*
X208550000Y-60750000D01*
X216648029Y-64148029D02*
X213250000Y-60750000D01*
X219286694Y-64200000D02*
X219154694Y-64200000D01*
X198846359Y-59903641D02*
X199500000Y-59250000D01*
X208550000Y-60750000D02*
X205769975Y-57969975D01*
X218230694Y-64464000D02*
X218230694Y-64200000D01*
X218626694Y-65200000D02*
X218494694Y-65200000D01*
X218230694Y-64936000D02*
X218230694Y-64464000D01*
X205769975Y-57969975D02*
X205730025Y-57969975D01*
X198846359Y-60403641D02*
X198846359Y-59903641D01*
X217345694Y-64200000D02*
X217135694Y-64200000D01*
X221900000Y-66500000D02*
X221900000Y-64910050D01*
X220210694Y-64464000D02*
X220210694Y-64936000D01*
X217135694Y-64200000D02*
X216700000Y-64200000D01*
X198750000Y-62337500D02*
X198750000Y-60500000D01*
X219550694Y-64936000D02*
X219550694Y-64464000D01*
X220210694Y-64936000D02*
G75*
G02*
X219946694Y-65199994I-263994J0D01*
G01*
X219154694Y-64200000D02*
G75*
G03*
X218890700Y-64464000I6J-264000D01*
G01*
X218230694Y-63975000D02*
G75*
G03*
X218005694Y-63750006I-224994J0D01*
G01*
X217570694Y-63975000D02*
G75*
G02*
X217345694Y-64199994I-224994J0D01*
G01*
X218890694Y-64936000D02*
G75*
G02*
X218626694Y-65199994I-263994J0D01*
G01*
X218494694Y-65200000D02*
G75*
G02*
X218230700Y-64936000I6J264000D01*
G01*
X219550694Y-64464000D02*
G75*
G03*
X219286694Y-64200006I-263994J0D01*
G01*
X220474694Y-64200000D02*
G75*
G03*
X220210700Y-64464000I6J-264000D01*
G01*
X219814694Y-65200000D02*
G75*
G02*
X219550700Y-64936000I6J264000D01*
G01*
X217795694Y-63750000D02*
G75*
G03*
X217570700Y-63975000I6J-225000D01*
G01*
%TO.N,/I2S1_SDO*%
X195466784Y-91226833D02*
X195425000Y-91185049D01*
X195750000Y-84750000D02*
X195750000Y-83662500D01*
X236784606Y-99896183D02*
X236638423Y-99750000D01*
X236638423Y-99750000D02*
X235435000Y-99750000D01*
X195425000Y-91185049D02*
X195425000Y-85075000D01*
X195425000Y-85075000D02*
X195750000Y-84750000D01*
%TO.N,/I2C1_SCL*%
X235535000Y-101935000D02*
X234750000Y-101935000D01*
X190000000Y-87010050D02*
X189250000Y-86260050D01*
X190000000Y-87750000D02*
X190000000Y-87010050D01*
X189250000Y-86260050D02*
X189250000Y-83662500D01*
X236300000Y-102700000D02*
X235535000Y-101935000D01*
%TO.N,/FMC_NBL0*%
X186750000Y-84503120D02*
X186750000Y-83662500D01*
X187373440Y-85126560D02*
X186750000Y-84503120D01*
%TO.N,/FMC_D1*%
X224428000Y-76030000D02*
X224320000Y-76030000D01*
X224644000Y-75116000D02*
X224644000Y-75814000D01*
X223888000Y-74900000D02*
X223780000Y-74900000D01*
X226264000Y-74900000D02*
X226264000Y-73886000D01*
X220274586Y-71774586D02*
X220000000Y-71500000D01*
X221524751Y-72275217D02*
X221448383Y-72198849D01*
X226264000Y-75564000D02*
X226264000Y-75116000D01*
X223400000Y-74900000D02*
X222982807Y-74482807D01*
X219784000Y-71716000D02*
X219784000Y-72014000D01*
X226048000Y-73670000D02*
X225940000Y-73670000D01*
X217840000Y-71500000D02*
X217200000Y-71500000D01*
X224104000Y-75814000D02*
X224104000Y-75116000D01*
X222982807Y-74177336D02*
X223193524Y-73966618D01*
X227610000Y-74900000D02*
X227020000Y-74900000D01*
X224644000Y-73886000D02*
X224644000Y-74900000D01*
X228237328Y-75593524D02*
X228412689Y-75418160D01*
X223193524Y-73661148D02*
X223117156Y-73584780D01*
X221531822Y-73031821D02*
X221455455Y-72955455D01*
X206328120Y-71575000D02*
X205503120Y-70750000D01*
X222219131Y-73413660D02*
X222288427Y-73344363D01*
X228336324Y-75036324D02*
X228200000Y-74900000D01*
X218704000Y-71716000D02*
X218704000Y-72014000D01*
X205503120Y-70750000D02*
X204662500Y-70750000D01*
X226264000Y-75116000D02*
X226264000Y-74900000D01*
X229100000Y-76500000D02*
X229100000Y-75910000D01*
X228794528Y-75799999D02*
X228619166Y-75975362D01*
X217200000Y-71500000D02*
X208276515Y-71500000D01*
X222811686Y-73584780D02*
X222600968Y-73795497D01*
X225724000Y-73886000D02*
X225724000Y-74900000D01*
X224968000Y-73670000D02*
X224860000Y-73670000D01*
X225184000Y-75464000D02*
X225184000Y-74900000D01*
X225508000Y-75680000D02*
X225400000Y-75680000D01*
X224644000Y-74900000D02*
X224644000Y-75116000D01*
X229100000Y-77740000D02*
X229100000Y-76500000D01*
X228412689Y-75112690D02*
X228336324Y-75036324D01*
X218164000Y-72014000D02*
X218164000Y-71716000D01*
X226804000Y-75116000D02*
X226804000Y-75564000D01*
X222295498Y-73795497D02*
X222219131Y-73719131D01*
X219244000Y-72014000D02*
X219244000Y-71716000D01*
X226588000Y-75780000D02*
X226480000Y-75780000D01*
X222288427Y-73038893D02*
X222212059Y-72962525D01*
X228200000Y-74900000D02*
X227610000Y-74900000D01*
X221455455Y-72649984D02*
X221524751Y-72580687D01*
X220691779Y-72191779D02*
X220274586Y-71774586D01*
X223780000Y-74900000D02*
X223400000Y-74900000D01*
X225184000Y-74900000D02*
X225184000Y-73886000D01*
X208276515Y-71500000D02*
X208201515Y-71575000D01*
X225724000Y-74900000D02*
X225724000Y-75464000D01*
X218488000Y-72230000D02*
X218380000Y-72230000D01*
X220768146Y-72268145D02*
X220691779Y-72191779D01*
X221142913Y-72198849D02*
X221073616Y-72268145D01*
X219568000Y-72230000D02*
X219460000Y-72230000D01*
X228313696Y-75975362D02*
X228237328Y-75898994D01*
X229100000Y-75910000D02*
X229100000Y-75800000D01*
X219028000Y-71500000D02*
X218920000Y-71500000D01*
X208201515Y-71575000D02*
X206328120Y-71575000D01*
X221906589Y-72962525D02*
X221837292Y-73031821D01*
X217948000Y-71500000D02*
X217840000Y-71500000D01*
X221524751Y-72580687D02*
G75*
G03*
X221524703Y-72275265I-152751J152687D01*
G01*
X226480000Y-75780000D02*
G75*
G02*
X226264000Y-75564000I0J216000D01*
G01*
X221073616Y-72268145D02*
G75*
G02*
X220768146Y-72268145I-152735J152735D01*
G01*
X225940000Y-73670000D02*
G75*
G03*
X225724000Y-73886000I0J-216000D01*
G01*
X222982807Y-74482807D02*
G75*
G02*
X222982835Y-74177365I152693J152707D01*
G01*
X222600968Y-73795497D02*
G75*
G02*
X222295498Y-73795497I-152735J152735D01*
G01*
X224644000Y-75814000D02*
G75*
G02*
X224428000Y-76030000I-216000J0D01*
G01*
X222219131Y-73719131D02*
G75*
G02*
X222219135Y-73413664I152769J152731D01*
G01*
X218164000Y-71716000D02*
G75*
G03*
X217948000Y-71500000I-216000J0D01*
G01*
X226804000Y-75564000D02*
G75*
G02*
X226588000Y-75780000I-216000J0D01*
G01*
X224860000Y-73670000D02*
G75*
G03*
X224644000Y-73886000I0J-216000D01*
G01*
X221448383Y-72198849D02*
G75*
G03*
X221142913Y-72198849I-152735J-152735D01*
G01*
X221455455Y-72955455D02*
G75*
G02*
X221455435Y-72649965I152745J152755D01*
G01*
X224320000Y-76030000D02*
G75*
G02*
X224104000Y-75814000I0J216000D01*
G01*
X224104000Y-75116000D02*
G75*
G03*
X223888000Y-74900000I-216000J0D01*
G01*
X227020000Y-74900000D02*
G75*
G03*
X226804000Y-75116000I0J-216000D01*
G01*
X225400000Y-75680000D02*
G75*
G02*
X225184000Y-75464000I0J216000D01*
G01*
X223117156Y-73584780D02*
G75*
G03*
X222811686Y-73584780I-152735J-152735D01*
G01*
X218380000Y-72230000D02*
G75*
G02*
X218164000Y-72014000I0J216000D01*
G01*
X228619166Y-75975362D02*
G75*
G02*
X228313696Y-75975362I-152735J152735D01*
G01*
X228237328Y-75898994D02*
G75*
G02*
X228237369Y-75593565I152772J152694D01*
G01*
X223193524Y-73966618D02*
G75*
G03*
X223193507Y-73661165I-152724J152718D01*
G01*
X221837292Y-73031821D02*
G75*
G02*
X221531822Y-73031821I-152735J152735D01*
G01*
X228412689Y-75418160D02*
G75*
G03*
X228412714Y-75112665I-152689J152760D01*
G01*
X218704000Y-72014000D02*
G75*
G02*
X218488000Y-72230000I-216000J0D01*
G01*
X222212059Y-72962525D02*
G75*
G03*
X221906589Y-72962525I-152735J-152735D01*
G01*
X219784000Y-72014000D02*
G75*
G02*
X219568000Y-72230000I-216000J0D01*
G01*
X226264000Y-73886000D02*
G75*
G03*
X226048000Y-73670000I-216000J0D01*
G01*
X225724000Y-75464000D02*
G75*
G02*
X225508000Y-75680000I-216000J0D01*
G01*
X219460000Y-72230000D02*
G75*
G02*
X219244000Y-72014000I0J216000D01*
G01*
X225184000Y-73886000D02*
G75*
G03*
X224968000Y-73670000I-216000J0D01*
G01*
X229100000Y-75800000D02*
G75*
G03*
X228794565Y-75800035I-152700J-152700D01*
G01*
X222288427Y-73344363D02*
G75*
G03*
X222288455Y-73038865I-152727J152763D01*
G01*
X219244000Y-71716000D02*
G75*
G03*
X219028000Y-71500000I-216000J0D01*
G01*
X218920000Y-71500000D02*
G75*
G03*
X218704000Y-71716000I0J-216000D01*
G01*
X220000000Y-71500000D02*
G75*
G03*
X219784000Y-71716000I0J-216000D01*
G01*
%TO.N,/FMC_A7*%
X210252943Y-63550000D02*
X211970000Y-63550000D01*
X213900000Y-65480000D02*
X213900000Y-66500000D01*
X202201909Y-67048091D02*
X203075000Y-66175000D01*
X205710226Y-63250000D02*
X206060226Y-63600000D01*
X203075000Y-63789773D02*
X203614773Y-63250000D01*
X203614773Y-63250000D02*
X205710226Y-63250000D01*
X195215687Y-67215687D02*
X193250000Y-65250000D01*
X211970000Y-63550000D02*
X213900000Y-65480000D01*
X210202943Y-63600000D02*
X210252943Y-63550000D01*
X193250000Y-65250000D02*
X193250000Y-62337500D01*
X202201908Y-67048091D02*
X202201909Y-67048091D01*
X195254339Y-67215687D02*
X195215687Y-67215687D01*
X206060226Y-63600000D02*
X210202943Y-63600000D01*
X203075000Y-66175000D02*
X203075000Y-63789773D01*
%TO.N,Net-(U1-PH0)*%
X182000000Y-71000000D02*
X181975000Y-70975000D01*
X183337500Y-70750000D02*
X182250000Y-70750000D01*
X177500000Y-70200000D02*
X176850000Y-70850000D01*
X181975000Y-70975000D02*
X181250000Y-70975000D01*
X176850000Y-70850000D02*
X176850000Y-71700000D01*
X182250000Y-70750000D02*
X182000000Y-71000000D01*
X181250000Y-70975000D02*
X180475000Y-70200000D01*
X180475000Y-70200000D02*
X177500000Y-70200000D01*
%TO.N,/NRST*%
X174500000Y-65100000D02*
X174500000Y-63975000D01*
X186400000Y-66500000D02*
X186400000Y-65000000D01*
X184350000Y-69750000D02*
X183337500Y-69750000D01*
X185000000Y-70400000D02*
X184350000Y-69750000D01*
D47*
X170750000Y-124550000D02*
X170750000Y-132200000D01*
D48*
X183400000Y-62000000D02*
X176400000Y-62000000D01*
X174500000Y-63900000D02*
X174500000Y-63975000D01*
X186400000Y-65000000D02*
X183400000Y-62000000D01*
D47*
X167500000Y-123080000D02*
X169280000Y-123080000D01*
D48*
X165600000Y-80800000D02*
X171800000Y-74600000D01*
D47*
X169280000Y-123080000D02*
X170750000Y-124550000D01*
D48*
X171800000Y-74600000D02*
X171800000Y-67800000D01*
X176400000Y-62000000D02*
X174500000Y-63900000D01*
X165600000Y-121180000D02*
X165600000Y-80800000D01*
D47*
X170750000Y-132200000D02*
X170750000Y-141300000D01*
D48*
X167500000Y-123080000D02*
X165600000Y-121180000D01*
X171800000Y-67800000D02*
X174500000Y-65100000D01*
%TO.N,/FMC_D12*%
X208620753Y-59000000D02*
X205920753Y-56300000D01*
X223750000Y-62000000D02*
X224180592Y-62000000D01*
X226700000Y-64519408D02*
X226700000Y-66500000D01*
X216500000Y-62000000D02*
X213500000Y-59000000D01*
X202630592Y-56300000D02*
X201250000Y-57680592D01*
X224180592Y-62000000D02*
X226700000Y-64519408D01*
X205920753Y-56300000D02*
X202630592Y-56300000D01*
X201250000Y-57680592D02*
X201250000Y-60996880D01*
X200750000Y-61496880D02*
X200750000Y-62337500D01*
X216750000Y-62000000D02*
X216500000Y-62000000D01*
X213500000Y-59000000D02*
X208620753Y-59000000D01*
X201250000Y-60996880D02*
X200750000Y-61496880D01*
%TO.N,/FMC_A4*%
X210600000Y-69400000D02*
X211500000Y-68500000D01*
X211500000Y-68500000D02*
X211500000Y-66500000D01*
%TO.N,/FMC_D14*%
X229100000Y-66500000D02*
X229100000Y-68400000D01*
X207700000Y-65500000D02*
X206960227Y-65500000D01*
X207750000Y-65450000D02*
X207700000Y-65500000D01*
X226300000Y-71200000D02*
X223050000Y-71200000D01*
X206960227Y-65500000D02*
X205710227Y-66750000D01*
X223050000Y-71200000D02*
X223000000Y-71250000D01*
X229100000Y-68400000D02*
X226300000Y-71200000D01*
X205710227Y-66750000D02*
X204662500Y-66750000D01*
%TO.N,/FMC_BA1*%
X201300000Y-75700000D02*
X200600000Y-75000000D01*
X202450000Y-72750000D02*
X204662500Y-72750000D01*
X198400000Y-73200000D02*
X198800000Y-72800000D01*
X198400000Y-74400000D02*
X198400000Y-73200000D01*
X198800000Y-72800000D02*
X202400000Y-72800000D01*
X200600000Y-75000000D02*
X199000000Y-75000000D01*
X199000000Y-75000000D02*
X198400000Y-74400000D01*
X202400000Y-72800000D02*
X202450000Y-72750000D01*
X201300000Y-76800000D02*
X201300000Y-75700000D01*
%TO.N,/I2S1_MCK*%
X234200000Y-91700000D02*
X234200000Y-66200000D01*
X235825000Y-93325000D02*
X234200000Y-91700000D01*
X188750000Y-60946446D02*
X188750000Y-62337500D01*
X234200000Y-66200000D02*
X220000000Y-52000000D01*
X220000000Y-52000000D02*
X197696446Y-52000000D01*
X235435000Y-97750000D02*
X235825000Y-97360000D01*
X197696446Y-52000000D02*
X188750000Y-60946446D01*
X235825000Y-97360000D02*
X235825000Y-93325000D01*
%TO.N,/BUTTON1_IN*%
X185739950Y-72500000D02*
X187250000Y-70989950D01*
X183337500Y-72250000D02*
X185010050Y-72250000D01*
X185010050Y-72250000D02*
X185260050Y-72500000D01*
X187250000Y-70989950D02*
X187250000Y-70750000D01*
X185260050Y-72500000D02*
X185739950Y-72500000D01*
%TO.N,/FMC_A3*%
X211500000Y-76500000D02*
X211500000Y-77740000D01*
%TO.N,/BUTTON2_IN*%
X185500000Y-71750000D02*
X183337500Y-71750000D01*
X207250000Y-40750000D02*
X207250000Y-41000000D01*
%TO.N,/FMC_SDNRAS*%
X191250000Y-65207106D02*
X191250000Y-62337500D01*
X197900000Y-74607107D02*
X197900000Y-71857106D01*
X197900000Y-71857106D02*
X191250000Y-65207106D01*
X198000000Y-74707107D02*
X197900000Y-74607107D01*
X198000000Y-75450000D02*
X198000000Y-74707107D01*
%TO.N,/FMC_SDCKE0*%
X195250000Y-72750000D02*
X189700000Y-67200000D01*
X217900000Y-68456254D02*
X217900000Y-66500000D01*
X184728120Y-67200000D02*
X184178120Y-67750000D01*
X189700000Y-67200000D02*
X184728120Y-67200000D01*
X184178120Y-67750000D02*
X183337500Y-67750000D01*
X217842939Y-68513315D02*
X217900000Y-68456254D01*
%TO.N,/FMC_A11*%
X204000000Y-61550000D02*
X203950000Y-61550000D01*
X206520000Y-61550000D02*
X206400000Y-61550000D01*
X196644975Y-64894975D02*
X195250000Y-63500000D01*
X216300000Y-66500000D02*
X216300000Y-66300000D01*
X216300000Y-66300000D02*
X216250000Y-66250000D01*
X205320000Y-61550000D02*
X205200000Y-61550000D01*
X213050000Y-61550000D02*
X207600000Y-61550000D01*
X204360000Y-61270000D02*
X204360000Y-61310000D01*
X206760000Y-61270000D02*
X206760000Y-61310000D01*
X205920000Y-61030000D02*
X205800000Y-61030000D01*
X207360000Y-61310000D02*
X207360000Y-61270000D01*
X216250000Y-66250000D02*
X216250000Y-64750000D01*
X203950000Y-61550000D02*
X203750000Y-61750000D01*
X206160000Y-61310000D02*
X206160000Y-61270000D01*
X204720000Y-61030000D02*
X204600000Y-61030000D01*
X207120000Y-61030000D02*
X207000000Y-61030000D01*
X216250000Y-64750000D02*
X213050000Y-61550000D01*
X204120000Y-61550000D02*
X204000000Y-61550000D01*
X205560000Y-61270000D02*
X205560000Y-61310000D01*
X196644975Y-65050000D02*
X196644975Y-64894975D01*
X195250000Y-63500000D02*
X195250000Y-62337500D01*
X204960000Y-61310000D02*
X204960000Y-61270000D01*
X207600000Y-61550000D02*
G75*
G02*
X207360000Y-61310000I0J240000D01*
G01*
X204960000Y-61270000D02*
G75*
G03*
X204720000Y-61030000I-240000J0D01*
G01*
X204360000Y-61310000D02*
G75*
G02*
X204120000Y-61550000I-240000J0D01*
G01*
X206160000Y-61270000D02*
G75*
G03*
X205920000Y-61030000I-240000J0D01*
G01*
X207360000Y-61270000D02*
G75*
G03*
X207120000Y-61030000I-240000J0D01*
G01*
X206760000Y-61310000D02*
G75*
G02*
X206520000Y-61550000I-240000J0D01*
G01*
X206400000Y-61550000D02*
G75*
G02*
X206160000Y-61310000I0J240000D01*
G01*
X205800000Y-61030000D02*
G75*
G03*
X205560000Y-61270000I0J-240000D01*
G01*
X207000000Y-61030000D02*
G75*
G03*
X206760000Y-61270000I0J-240000D01*
G01*
X204600000Y-61030000D02*
G75*
G03*
X204360000Y-61270000I0J-240000D01*
G01*
X205200000Y-61550000D02*
G75*
G02*
X204960000Y-61310000I0J240000D01*
G01*
X205560000Y-61310000D02*
G75*
G02*
X205320000Y-61550000I-240000J0D01*
G01*
%TO.N,/FMC_BA0*%
X220300000Y-76600000D02*
X220700000Y-76200000D01*
X220700000Y-75707106D02*
X219392894Y-74400000D01*
X217352894Y-75160000D02*
X217352894Y-74640000D01*
X208650000Y-72100000D02*
X208500000Y-72250000D01*
X216300000Y-76845000D02*
X216475000Y-76670000D01*
X209750000Y-72100000D02*
X208650000Y-72100000D01*
X210470000Y-72900000D02*
X210350000Y-72900000D01*
X219673859Y-76670000D02*
X219793859Y-76670000D01*
X206220000Y-72250000D02*
X206100000Y-72250000D01*
X209870000Y-72100000D02*
X209750000Y-72100000D01*
X220700000Y-76200000D02*
X220700000Y-75707106D01*
X210710000Y-72340000D02*
X210710000Y-72660000D01*
X214046409Y-73346408D02*
X214046408Y-73346408D01*
X213593862Y-74308076D02*
X213509009Y-74223223D01*
X207060000Y-72490000D02*
X207060000Y-72660000D01*
X216152894Y-75160000D02*
X216152894Y-74640000D01*
X220200000Y-76600000D02*
X220300000Y-76600000D01*
X214216113Y-73176702D02*
X214265611Y-73127204D01*
X218833859Y-76430000D02*
X218833859Y-75910000D01*
X217952894Y-74640000D02*
X217952894Y-75160000D01*
X214046408Y-73346408D02*
X214216113Y-73176702D01*
X211910000Y-72340000D02*
X211910000Y-72860000D01*
X218312894Y-74400000D02*
X218192894Y-74400000D01*
X206460000Y-72660000D02*
X206460000Y-72490000D01*
X219073859Y-75670000D02*
X219193859Y-75670000D01*
X215792894Y-74400000D02*
X215100000Y-74400000D01*
X213841346Y-72702940D02*
X213791848Y-72752437D01*
X208020000Y-72900000D02*
X207900000Y-72900000D01*
X210110000Y-72660000D02*
X210110000Y-72340000D01*
X216512894Y-75400000D02*
X216392894Y-75400000D01*
X211310000Y-72860000D02*
X211310000Y-72340000D01*
X214265611Y-72787793D02*
X214180758Y-72702940D01*
X214300969Y-73940381D02*
X213933272Y-74308075D01*
X219433859Y-75910000D02*
X219433859Y-76430000D01*
X219152894Y-74640000D02*
X219152894Y-75160000D01*
X217712894Y-75400000D02*
X217592894Y-75400000D01*
X213876703Y-73516114D02*
X214046409Y-73346408D01*
X216752894Y-74640000D02*
X216752894Y-75160000D01*
X206100000Y-72250000D02*
X205470166Y-72250000D01*
X219793859Y-76670000D02*
X220130000Y-76670000D01*
X211670000Y-73100000D02*
X211550000Y-73100000D01*
X220130000Y-76670000D02*
X220200000Y-76600000D01*
X205470166Y-72250000D02*
X204662500Y-72250000D01*
X206820000Y-72900000D02*
X206700000Y-72900000D01*
X216300000Y-77740000D02*
X216300000Y-76845000D01*
X215912894Y-74400000D02*
X215792894Y-74400000D01*
X216475000Y-76670000D02*
X218593859Y-76670000D01*
X213452437Y-72752437D02*
X213367585Y-72667585D01*
X217112894Y-74400000D02*
X216992894Y-74400000D01*
X218912894Y-75400000D02*
X218792894Y-75400000D01*
X218552894Y-75160000D02*
X218552894Y-74640000D01*
X213367585Y-72667585D02*
X212800000Y-72100000D01*
X207420000Y-72250000D02*
X207300000Y-72250000D01*
X207660000Y-72660000D02*
X207660000Y-72490000D01*
X215100000Y-74400000D02*
X214640381Y-73940381D01*
X208260000Y-72490000D02*
X208260000Y-72660000D01*
X213509009Y-73883811D02*
X213876703Y-73516114D01*
X212800000Y-72100000D02*
X212150000Y-72100000D01*
X211070000Y-72100000D02*
X210950000Y-72100000D01*
X214180758Y-72702940D02*
G75*
G03*
X213841346Y-72702940I-169706J-169704D01*
G01*
X211310000Y-72340000D02*
G75*
G03*
X211070000Y-72100000I-240000J0D01*
G01*
X213933272Y-74308075D02*
G75*
G02*
X213593896Y-74308043I-169672J169675D01*
G01*
X211550000Y-73100000D02*
G75*
G02*
X211310000Y-72860000I0J240000D01*
G01*
X217952894Y-75160000D02*
G75*
G02*
X217712894Y-75399994I-239994J0D01*
G01*
X210350000Y-72900000D02*
G75*
G02*
X210110000Y-72660000I0J240000D01*
G01*
X218593859Y-76670000D02*
G75*
G03*
X218833900Y-76430000I41J240000D01*
G01*
X207060000Y-72660000D02*
G75*
G02*
X206820000Y-72900000I-240000J0D01*
G01*
X213509009Y-74223223D02*
G75*
G02*
X213508992Y-73883794I169691J169723D01*
G01*
X210110000Y-72340000D02*
G75*
G03*
X209870000Y-72100000I-240000J0D01*
G01*
X219433859Y-76430000D02*
G75*
G03*
X219673859Y-76670041I240041J0D01*
G01*
X214265611Y-73127204D02*
G75*
G03*
X214265610Y-72787794I-169711J169704D01*
G01*
X208260000Y-72660000D02*
G75*
G02*
X208020000Y-72900000I-240000J0D01*
G01*
X218833859Y-75910000D02*
G75*
G02*
X219073859Y-75669959I240041J0D01*
G01*
X216752894Y-75160000D02*
G75*
G02*
X216512894Y-75399994I-239994J0D01*
G01*
X208500000Y-72250000D02*
G75*
G03*
X208260000Y-72490000I0J-240000D01*
G01*
X216392894Y-75400000D02*
G75*
G02*
X216152900Y-75160000I6J240000D01*
G01*
X218192894Y-74400000D02*
G75*
G03*
X217952900Y-74640000I6J-240000D01*
G01*
X210710000Y-72660000D02*
G75*
G02*
X210470000Y-72900000I-240000J0D01*
G01*
X207900000Y-72900000D02*
G75*
G02*
X207660000Y-72660000I0J240000D01*
G01*
X219193859Y-75670000D02*
G75*
G02*
X219433900Y-75910000I41J-240000D01*
G01*
X217352894Y-74640000D02*
G75*
G03*
X217112894Y-74400006I-239994J0D01*
G01*
X206700000Y-72900000D02*
G75*
G02*
X206460000Y-72660000I0J240000D01*
G01*
X206460000Y-72490000D02*
G75*
G03*
X206220000Y-72250000I-240000J0D01*
G01*
X214640381Y-73940381D02*
G75*
G03*
X214300969Y-73940381I-169706J-169701D01*
G01*
X213791848Y-72752437D02*
G75*
G02*
X213452436Y-72752438I-169706J169703D01*
G01*
X219392894Y-74400000D02*
G75*
G03*
X219152900Y-74640000I6J-240000D01*
G01*
X207660000Y-72490000D02*
G75*
G03*
X207420000Y-72250000I-240000J0D01*
G01*
X211910000Y-72860000D02*
G75*
G02*
X211670000Y-73100000I-240000J0D01*
G01*
X218552894Y-74640000D02*
G75*
G03*
X218312894Y-74400006I-239994J0D01*
G01*
X216992894Y-74400000D02*
G75*
G03*
X216752900Y-74640000I6J-240000D01*
G01*
X219152894Y-75160000D02*
G75*
G02*
X218912894Y-75399994I-239994J0D01*
G01*
X212150000Y-72100000D02*
G75*
G03*
X211910000Y-72340000I0J-240000D01*
G01*
X207300000Y-72250000D02*
G75*
G03*
X207060000Y-72490000I0J-240000D01*
G01*
X218792894Y-75400000D02*
G75*
G02*
X218552900Y-75160000I6J240000D01*
G01*
X210950000Y-72100000D02*
G75*
G03*
X210710000Y-72340000I0J-240000D01*
G01*
X216152894Y-74640000D02*
G75*
G03*
X215912894Y-74400006I-239994J0D01*
G01*
X217592894Y-75400000D02*
G75*
G02*
X217352900Y-75160000I6J240000D01*
G01*
%TO.N,/FMC_D11*%
X200750000Y-57250000D02*
X200750000Y-60789774D01*
X202500000Y-55500000D02*
X200750000Y-57250000D01*
X206000000Y-55500000D02*
X202500000Y-55500000D01*
X221750000Y-61250000D02*
X224500000Y-64000000D01*
X213750000Y-58250000D02*
X208750000Y-58250000D01*
X225900000Y-64650000D02*
X225900000Y-66500000D01*
X214500000Y-59000000D02*
X213750000Y-58250000D01*
X219250000Y-61250000D02*
X221750000Y-61250000D01*
X225250000Y-64000000D02*
X225900000Y-64650000D01*
X200750000Y-60789774D02*
X200250000Y-61289774D01*
X224500000Y-64000000D02*
X225250000Y-64000000D01*
X208750000Y-58250000D02*
X206000000Y-55500000D01*
X200250000Y-61289774D02*
X200250000Y-62337500D01*
%TO.N,/I2S1_SDI*%
X237074318Y-99044085D02*
X236922220Y-99196183D01*
X236922220Y-99196183D02*
X236494656Y-99196183D01*
X236494656Y-99196183D02*
X236440839Y-99250000D01*
X236440839Y-99250000D02*
X235435000Y-99250000D01*
%TO.N,/FMC_D6*%
X216912996Y-73250000D02*
X215912996Y-72250000D01*
X223500000Y-77740000D02*
X223500000Y-76845000D01*
X199909925Y-64419975D02*
X199330025Y-64419975D01*
X200557208Y-65067258D02*
X199909925Y-64419975D01*
X200750000Y-65067258D02*
X200557208Y-65067258D01*
X219905000Y-73250000D02*
X217000000Y-73250000D01*
X199130025Y-64619975D02*
X198191855Y-64619975D01*
X196750000Y-63178120D02*
X196750000Y-62337500D01*
X198191855Y-64619975D02*
X196750000Y-63178120D01*
X217000000Y-73250000D02*
X216912996Y-73250000D01*
X223500000Y-76845000D02*
X219905000Y-73250000D01*
X215912996Y-72250000D02*
X215750000Y-72250000D01*
X199330025Y-64419975D02*
X199130025Y-64619975D01*
%TO.N,Net-(U1-BOOT0)*%
X186062500Y-89337500D02*
X182000000Y-89337500D01*
X188250000Y-87150000D02*
X186062500Y-89337500D01*
X188250000Y-83662500D02*
X188250000Y-87150000D01*
%TO.N,Net-(C5-Pad2)*%
X202250000Y-62337500D02*
X202250000Y-62500000D01*
X202250000Y-59525000D02*
X202250000Y-62337500D01*
%TO.N,+3.3VA*%
X231250000Y-90275000D02*
X231475000Y-90500000D01*
D47*
X230800000Y-94525000D02*
X230800000Y-91175000D01*
X230800000Y-91175000D02*
X231475000Y-90500000D01*
X231475000Y-90500000D02*
X229725000Y-90500000D01*
X231475000Y-90500000D02*
X231475000Y-88925000D01*
D48*
X231750000Y-97065000D02*
X231750000Y-95475000D01*
D47*
X231525000Y-95250000D02*
X230800000Y-94525000D01*
X180200000Y-89625000D02*
X180200000Y-86800000D01*
X229725000Y-90500000D02*
X229500000Y-90275000D01*
X231475000Y-88925000D02*
X231500000Y-88900000D01*
D48*
X231750000Y-95475000D02*
X231525000Y-95250000D01*
X183337500Y-66250000D02*
X182500000Y-66250000D01*
D47*
X180200000Y-86800000D02*
X178800000Y-85400000D01*
D48*
X182500000Y-66250000D02*
X182500000Y-65753120D01*
D47*
%TO.N,-12V*%
X165750000Y-55950000D02*
X165750000Y-49187500D01*
D48*
X219405000Y-105405000D02*
X219500000Y-105500000D01*
D47*
X197250000Y-97750000D02*
X200500000Y-101000000D01*
X216000000Y-106750000D02*
X217211000Y-105539000D01*
X163000000Y-63250000D02*
X163150000Y-63100000D01*
X219225000Y-105500000D02*
X217306000Y-105500000D01*
X200500000Y-101000000D02*
X200500000Y-101913000D01*
X200500000Y-101913000D02*
X202742000Y-104155000D01*
X164200000Y-57500000D02*
X165750000Y-55950000D01*
X203461000Y-105711000D02*
X204500000Y-106750000D01*
X204775000Y-105275000D02*
X205750000Y-105275000D01*
X217211000Y-105405000D02*
X217211000Y-111861000D01*
X203461000Y-104155000D02*
X203461000Y-105711000D01*
X217306000Y-105500000D02*
X217211000Y-105405000D01*
X203461000Y-104155000D02*
X203655000Y-104155000D01*
X204500000Y-106750000D02*
X216000000Y-106750000D01*
X217211000Y-105539000D02*
X217211000Y-105405000D01*
X163150000Y-63100000D02*
X163150000Y-57500000D01*
X203655000Y-104155000D02*
X204775000Y-105275000D01*
X181250000Y-97750000D02*
X197250000Y-97750000D01*
X202742000Y-104155000D02*
X203461000Y-104155000D01*
X217211000Y-111861000D02*
X219000000Y-113650000D01*
D48*
%TO.N,/FMC_A5*%
X211656226Y-69800000D02*
X212300000Y-69156226D01*
X212300000Y-69156226D02*
X212300000Y-66500000D01*
%TO.N,/FMC_A9*%
X210105900Y-62970000D02*
X209999900Y-62970000D01*
X208515900Y-62250000D02*
X208409900Y-62250000D01*
X208197900Y-62462000D02*
X208197900Y-62758000D01*
X211165900Y-62970000D02*
X211059900Y-62970000D01*
X208727900Y-62758000D02*
X208727900Y-62462000D01*
X212437900Y-62462000D02*
X212437900Y-62758000D01*
X207455900Y-62250000D02*
X207349900Y-62250000D01*
X209787900Y-62758000D02*
X209787900Y-62462000D01*
X215500000Y-65100100D02*
X213449950Y-63050050D01*
X207100000Y-62250000D02*
X204594020Y-62250000D01*
X204594020Y-62250000D02*
X204505737Y-62338283D01*
X210635900Y-62250000D02*
X210529900Y-62250000D01*
X207667900Y-62758000D02*
X207667900Y-62462000D01*
X211377900Y-62462000D02*
X211377900Y-62758000D01*
X209575900Y-62250000D02*
X209469900Y-62250000D01*
X212225900Y-62970000D02*
X212119900Y-62970000D01*
X213449950Y-63050050D02*
X213039829Y-62639929D01*
X211907900Y-62758000D02*
X211907900Y-62462000D01*
X207349900Y-62250000D02*
X207100000Y-62250000D01*
X211695900Y-62250000D02*
X211589900Y-62250000D01*
X195244975Y-65255025D02*
X194250000Y-64260050D01*
X213039829Y-62639929D02*
X212649900Y-62250000D01*
X209257900Y-62462000D02*
X209257900Y-62758000D01*
X210847900Y-62758000D02*
X210847900Y-62462000D01*
X207985900Y-62970000D02*
X207879900Y-62970000D01*
X210317900Y-62462000D02*
X210317900Y-62758000D01*
X215500000Y-66500000D02*
X215500000Y-65100100D01*
X194250000Y-64260050D02*
X194250000Y-62337500D01*
X209045900Y-62970000D02*
X208939900Y-62970000D01*
X210529900Y-62250000D02*
G75*
G03*
X210317900Y-62462000I0J-212000D01*
G01*
X207879900Y-62970000D02*
G75*
G02*
X207667900Y-62758000I0J212000D01*
G01*
X208727900Y-62462000D02*
G75*
G03*
X208515900Y-62250000I-212000J0D01*
G01*
X207667900Y-62462000D02*
G75*
G03*
X207455900Y-62250000I-212000J0D01*
G01*
X208939900Y-62970000D02*
G75*
G02*
X208727900Y-62758000I0J212000D01*
G01*
X209999900Y-62970000D02*
G75*
G02*
X209787900Y-62758000I0J212000D01*
G01*
X211907900Y-62462000D02*
G75*
G03*
X211695900Y-62250000I-212000J0D01*
G01*
X210847900Y-62462000D02*
G75*
G03*
X210635900Y-62250000I-212000J0D01*
G01*
X212437900Y-62758000D02*
G75*
G02*
X212225900Y-62970000I-212000J0D01*
G01*
X212119900Y-62970000D02*
G75*
G02*
X211907900Y-62758000I0J212000D01*
G01*
X211059900Y-62970000D02*
G75*
G02*
X210847900Y-62758000I0J212000D01*
G01*
X212649900Y-62250000D02*
G75*
G03*
X212437900Y-62462000I0J-212000D01*
G01*
X211589900Y-62250000D02*
G75*
G03*
X211377900Y-62462000I0J-212000D01*
G01*
X210317900Y-62758000D02*
G75*
G02*
X210105900Y-62970000I-212000J0D01*
G01*
X209257900Y-62758000D02*
G75*
G02*
X209045900Y-62970000I-212000J0D01*
G01*
X211377900Y-62758000D02*
G75*
G02*
X211165900Y-62970000I-212000J0D01*
G01*
X208197900Y-62758000D02*
G75*
G02*
X207985900Y-62970000I-212000J0D01*
G01*
X208409900Y-62250000D02*
G75*
G03*
X208197900Y-62462000I0J-212000D01*
G01*
X209469900Y-62250000D02*
G75*
G03*
X209257900Y-62462000I0J-212000D01*
G01*
X209787900Y-62462000D02*
G75*
G03*
X209575900Y-62250000I-212000J0D01*
G01*
%TO.N,/FMC_A0*%
X200655788Y-78865837D02*
X199821625Y-79700000D01*
X184425000Y-77625000D02*
X184425000Y-77496880D01*
X184178120Y-77250000D02*
X183337500Y-77250000D01*
X186500000Y-79700000D02*
X184425000Y-77625000D01*
X199821625Y-79700000D02*
X186500000Y-79700000D01*
X184425000Y-77496880D02*
X184178120Y-77250000D01*
%TO.N,/CV1_IN*%
X212000000Y-123250000D02*
X212000000Y-125363000D01*
X216450000Y-92960050D02*
X216000000Y-92510050D01*
X213750000Y-105250000D02*
X214250000Y-104750000D01*
X212500000Y-120162500D02*
X214000000Y-121662500D01*
X216450000Y-100550000D02*
X216450000Y-92960050D01*
X212500000Y-118750000D02*
X212500000Y-120162500D01*
X214250000Y-102750000D02*
X216450000Y-100550000D01*
X215000000Y-121750000D02*
X213500000Y-121750000D01*
X213022000Y-126385000D02*
X213461000Y-126385000D01*
X213500000Y-121750000D02*
X212000000Y-123250000D01*
X214250000Y-104750000D02*
X214250000Y-102750000D01*
X212000000Y-125363000D02*
X213022000Y-126385000D01*
%TO.N,/FMC_NBL1*%
X187700000Y-81300000D02*
X186250000Y-82750000D01*
X219500000Y-66500000D02*
X219500000Y-66750000D01*
X219209361Y-69050000D02*
X219500000Y-68759361D01*
X219500000Y-68759361D02*
X219500000Y-66500000D01*
X186250000Y-82750000D02*
X186250000Y-83662500D01*
%TO.N,/FMC_D9*%
X199546359Y-60296358D02*
X199546359Y-60453641D01*
X211460000Y-59740000D02*
X211460000Y-59760000D01*
X218718419Y-63250000D02*
X218718419Y-63050000D01*
X213020000Y-59500000D02*
X212900000Y-59500000D01*
X212060000Y-59760000D02*
X212060000Y-59740000D01*
X222050000Y-63250000D02*
X221673419Y-63250000D01*
X218518419Y-62850000D02*
X218008419Y-62850000D01*
X213766148Y-60266148D02*
X213500000Y-60000000D01*
X217608419Y-63250000D02*
X217098419Y-63250000D01*
X205750000Y-57000000D02*
X203750000Y-57000000D01*
X220313419Y-63250000D02*
X219853419Y-63250000D01*
X213260000Y-59760000D02*
X213260000Y-59740000D01*
X211820000Y-59500000D02*
X211700000Y-59500000D01*
X210260000Y-59740000D02*
X210260000Y-59760000D01*
X212660000Y-59740000D02*
X212660000Y-59760000D01*
X199250000Y-60750000D02*
X199250000Y-62337500D01*
X223500000Y-64700000D02*
X222050000Y-63250000D01*
X217098419Y-63250000D02*
X216750000Y-63250000D01*
X210020000Y-60000000D02*
X209900000Y-60000000D01*
X209636290Y-60000000D02*
X208750000Y-60000000D01*
X216700000Y-63200000D02*
X213766148Y-60266148D01*
X219403419Y-63700000D02*
X218943419Y-63700000D01*
X210620000Y-59500000D02*
X210500000Y-59500000D01*
X199546359Y-60453641D02*
X199250000Y-60750000D01*
X210860000Y-59760000D02*
X210860000Y-59740000D01*
X211220000Y-60000000D02*
X211100000Y-60000000D01*
X212420000Y-60000000D02*
X212300000Y-60000000D01*
X209900000Y-60000000D02*
X209636290Y-60000000D01*
X208750000Y-60000000D02*
X205750000Y-57000000D01*
X221223419Y-63700000D02*
X220763419Y-63700000D01*
X216750000Y-63250000D02*
X216700000Y-63200000D01*
X223500000Y-66500000D02*
X223500000Y-64700000D01*
X218718419Y-63475000D02*
X218718419Y-63250000D01*
X221448419Y-63475000D02*
G75*
G02*
X221223419Y-63700019I-225019J0D01*
G01*
X218008419Y-62850000D02*
G75*
G03*
X217808400Y-63050000I-19J-200000D01*
G01*
X210260000Y-59760000D02*
G75*
G02*
X210020000Y-60000000I-240000J0D01*
G01*
X213500000Y-60000000D02*
G75*
G02*
X213260000Y-59760000I0J240000D01*
G01*
X211460000Y-59760000D02*
G75*
G02*
X211220000Y-60000000I-240000J0D01*
G01*
X218943419Y-63700000D02*
G75*
G02*
X218718400Y-63475000I-19J225000D01*
G01*
X212900000Y-59500000D02*
G75*
G03*
X212660000Y-59740000I0J-240000D01*
G01*
X217808419Y-63050000D02*
G75*
G02*
X217608419Y-63250019I-200019J0D01*
G01*
X213260000Y-59740000D02*
G75*
G03*
X213020000Y-59500000I-240000J0D01*
G01*
X220538419Y-63475000D02*
G75*
G03*
X220313419Y-63249981I-225019J0D01*
G01*
X221673419Y-63250000D02*
G75*
G03*
X221448400Y-63475000I-19J-225000D01*
G01*
X220763419Y-63700000D02*
G75*
G02*
X220538400Y-63475000I-19J225000D01*
G01*
X211100000Y-60000000D02*
G75*
G02*
X210860000Y-59760000I0J240000D01*
G01*
X219853419Y-63250000D02*
G75*
G03*
X219628400Y-63475000I-19J-225000D01*
G01*
X211700000Y-59500000D02*
G75*
G03*
X211460000Y-59740000I0J-240000D01*
G01*
X212060000Y-59740000D02*
G75*
G03*
X211820000Y-59500000I-240000J0D01*
G01*
X212660000Y-59760000D02*
G75*
G02*
X212420000Y-60000000I-240000J0D01*
G01*
X212300000Y-60000000D02*
G75*
G02*
X212060000Y-59760000I0J240000D01*
G01*
X219628419Y-63475000D02*
G75*
G02*
X219403419Y-63700019I-225019J0D01*
G01*
X210500000Y-59500000D02*
G75*
G03*
X210260000Y-59740000I0J-240000D01*
G01*
X218718419Y-63050000D02*
G75*
G03*
X218518419Y-62849981I-200019J0D01*
G01*
X210860000Y-59740000D02*
G75*
G03*
X210620000Y-59500000I-240000J0D01*
G01*
%TO.N,/FAD_LED4_OUT*%
X203100000Y-77971880D02*
X203821880Y-77250000D01*
X203100000Y-79800000D02*
X203100000Y-77971880D01*
X223243750Y-89156250D02*
X224187500Y-90100000D01*
X203821880Y-77250000D02*
X204662500Y-77250000D01*
%TO.N,/FMC_D2*%
X217610000Y-87060000D02*
X217610000Y-86370000D01*
X221333273Y-84012096D02*
X221248420Y-84096948D01*
X216650000Y-87300000D02*
X215700000Y-87300000D01*
X219954413Y-87045586D02*
X219700000Y-87300000D01*
X220039265Y-86960732D02*
X219954413Y-87045586D01*
X217370000Y-86130000D02*
X217250000Y-86130000D01*
X220399891Y-85284889D02*
X220887794Y-85772792D01*
X227750000Y-79250000D02*
X222500000Y-84500000D01*
X228300000Y-77740000D02*
X228300000Y-78630592D01*
X216770000Y-87300000D02*
X216650000Y-87300000D01*
X217970000Y-87300000D02*
X217850000Y-87300000D01*
X220484744Y-84860625D02*
X220399891Y-84945477D01*
X220887794Y-86112203D02*
X220802942Y-86197057D01*
X220802942Y-86197057D02*
X220802942Y-86197058D01*
X217010000Y-86370000D02*
X217010000Y-87060000D01*
X220463530Y-86197058D02*
X219975626Y-85709154D01*
X221312059Y-85348529D02*
X220824155Y-84860625D01*
X221736323Y-85263674D02*
X221651471Y-85348528D01*
X227750000Y-79180592D02*
X227750000Y-79250000D01*
X219551362Y-86133418D02*
X220039265Y-86621321D01*
X221248420Y-84436360D02*
X221736323Y-84924263D01*
X222160588Y-84500000D02*
X221672684Y-84012096D01*
X218810000Y-87060000D02*
X218810000Y-86770000D01*
X221651471Y-85348528D02*
X221651471Y-85348529D01*
X218570000Y-86530000D02*
X218450000Y-86530000D01*
X219700000Y-87300000D02*
X219050000Y-87300000D01*
X218210000Y-86770000D02*
X218210000Y-87060000D01*
X219636215Y-85709154D02*
X219551362Y-85794006D01*
X228300000Y-78630592D02*
X227750000Y-79180592D01*
X222500000Y-84500000D02*
G75*
G02*
X222160588Y-84500000I-169706J169704D01*
G01*
X220887794Y-85772792D02*
G75*
G02*
X220887797Y-86112206I-169694J-169708D01*
G01*
X221248420Y-84096948D02*
G75*
G03*
X221248374Y-84436406I169680J-169752D01*
G01*
X217610000Y-86370000D02*
G75*
G03*
X217370000Y-86130000I-240000J0D01*
G01*
X220399891Y-84945477D02*
G75*
G03*
X220399874Y-85284906I169709J-169723D01*
G01*
X217850000Y-87300000D02*
G75*
G02*
X217610000Y-87060000I0J240000D01*
G01*
X220039265Y-86621321D02*
G75*
G02*
X220039239Y-86960705I-169665J-169679D01*
G01*
X219975626Y-85709154D02*
G75*
G03*
X219636214Y-85709153I-169706J-169703D01*
G01*
X218810000Y-86770000D02*
G75*
G03*
X218570000Y-86530000I-240000J0D01*
G01*
X218450000Y-86530000D02*
G75*
G03*
X218210000Y-86770000I0J-240000D01*
G01*
X221736323Y-84924263D02*
G75*
G02*
X221736355Y-85263705I-169723J-169737D01*
G01*
X219050000Y-87300000D02*
G75*
G02*
X218810000Y-87060000I0J240000D01*
G01*
X220824155Y-84860625D02*
G75*
G03*
X220484743Y-84860624I-169706J-169703D01*
G01*
X221651471Y-85348529D02*
G75*
G02*
X221312059Y-85348529I-169706J169704D01*
G01*
X218210000Y-87060000D02*
G75*
G02*
X217970000Y-87300000I-240000J0D01*
G01*
X221672684Y-84012096D02*
G75*
G03*
X221333274Y-84012096I-169705J-169703D01*
G01*
X217250000Y-86130000D02*
G75*
G03*
X217010000Y-86370000I0J-240000D01*
G01*
X219551362Y-85794006D02*
G75*
G03*
X219551374Y-86133406I169738J-169694D01*
G01*
X220802942Y-86197058D02*
G75*
G02*
X220463530Y-86197058I-169706J169704D01*
G01*
X217010000Y-87060000D02*
G75*
G02*
X216770000Y-87300000I-240000J0D01*
G01*
%TO.N,/V_OCT_IN*%
X200250000Y-127750000D02*
X200412500Y-127912500D01*
X190335788Y-65000000D02*
X196292894Y-70957106D01*
X170800000Y-119600000D02*
X170800000Y-95050000D01*
X205870000Y-127655000D02*
X205750000Y-127775000D01*
X189550000Y-63960050D02*
X189550000Y-64539950D01*
X190250000Y-65000000D02*
X190335788Y-65000000D01*
X173800000Y-122600000D02*
X170800000Y-119600000D01*
X200412500Y-127912500D02*
X203250000Y-127912500D01*
X208039000Y-127655000D02*
X205870000Y-127655000D01*
X189750000Y-63760050D02*
X189550000Y-63960050D01*
X205612500Y-127912500D02*
X205750000Y-127775000D01*
X199750000Y-127750000D02*
X200250000Y-127750000D01*
X189750000Y-62337500D02*
X189750000Y-63760050D01*
X190010050Y-65000000D02*
X190250000Y-65000000D01*
X170800000Y-95050000D02*
X170750000Y-95000000D01*
X189550000Y-64539950D02*
X190010050Y-65000000D01*
X202750000Y-127912500D02*
X205612500Y-127912500D01*
X189750000Y-62337500D02*
X189750000Y-61000000D01*
%TO.N,/FMC_SDCLK*%
X218750000Y-66750000D02*
X218700000Y-66700000D01*
X218919411Y-69750000D02*
X218509361Y-69339950D01*
X218700000Y-68569411D02*
X218700000Y-66500000D01*
X206353120Y-73400000D02*
X205503120Y-74250000D01*
X212800000Y-76200000D02*
X212800000Y-76102944D01*
X219549311Y-69700000D02*
X219499311Y-69750000D01*
X211997056Y-75300000D02*
X211550000Y-75300000D01*
X218700000Y-66700000D02*
X218700000Y-66500000D01*
X213000000Y-76400000D02*
X212800000Y-76200000D01*
X218509361Y-69339950D02*
X218509361Y-68760050D01*
X205503120Y-74250000D02*
X204662500Y-74250000D01*
X219857557Y-69700000D02*
X219549311Y-69700000D01*
X218509361Y-68760050D02*
X218700000Y-68569411D01*
X209650000Y-73400000D02*
X206353120Y-73400000D01*
X219499311Y-69750000D02*
X218919411Y-69750000D01*
X211550000Y-75300000D02*
X209650000Y-73400000D01*
X212800000Y-76102944D02*
X211997056Y-75300000D01*
%TO.N,/I2S1_WS*%
X186750000Y-61000000D02*
X186750000Y-62337500D01*
X221300000Y-50500000D02*
X197250000Y-50500000D01*
X197250000Y-50500000D02*
X186750000Y-61000000D01*
X236200000Y-91000000D02*
X236200000Y-65400000D01*
X236250001Y-98750000D02*
X237200000Y-97800001D01*
X237200000Y-92000000D02*
X236200000Y-91000000D01*
X237200000Y-97800001D02*
X237200000Y-92000000D01*
X236200000Y-65400000D02*
X221300000Y-50500000D01*
X235435000Y-98750000D02*
X236250001Y-98750000D01*
%TO.N,/FMC_SDNCAS*%
X191250000Y-85200176D02*
X191250000Y-83662500D01*
X191537412Y-85487588D02*
X191250000Y-85200176D01*
%TO.N,/FMC_D0*%
X208069408Y-71000000D02*
X207994408Y-71075000D01*
X228962000Y-73000000D02*
X228962000Y-72718000D01*
X225884000Y-73000000D02*
X225770000Y-73000000D01*
X226682000Y-73482000D02*
X226682000Y-73000000D01*
X226112000Y-72718000D02*
X226112000Y-72772000D01*
X229304000Y-73910000D02*
X229190000Y-73910000D01*
X228962000Y-73228000D02*
X228962000Y-73000000D01*
X231000000Y-73000000D02*
X230380000Y-73000000D01*
X230700000Y-77740000D02*
X230700000Y-76720000D01*
X231677558Y-73999999D02*
X231356532Y-74321026D01*
X224972000Y-72718000D02*
X224972000Y-72772000D01*
X227252000Y-72718000D02*
X227252000Y-73000000D01*
X230700000Y-76720000D02*
X230984583Y-76435417D01*
X225542000Y-72772000D02*
X225542000Y-72718000D01*
X231034090Y-74321025D02*
X230953479Y-74240414D01*
X225314000Y-72490000D02*
X225200000Y-72490000D01*
X222981053Y-73000000D02*
X220981053Y-71000000D01*
X228164000Y-73910000D02*
X228050000Y-73910000D01*
X231790686Y-75629315D02*
X232000000Y-75420000D01*
X228392000Y-73000000D02*
X228392000Y-73682000D01*
X227024000Y-73710000D02*
X226910000Y-73710000D01*
X228734000Y-72490000D02*
X228620000Y-72490000D01*
X223490000Y-73000000D02*
X223100000Y-73000000D01*
X223650000Y-73000000D02*
X223490000Y-73000000D01*
X232000000Y-75420000D02*
X232000000Y-74000000D01*
X226682000Y-73000000D02*
X226682000Y-72772000D01*
X207994408Y-71075000D02*
X206575000Y-71075000D01*
X224744000Y-73000000D02*
X224630000Y-73000000D01*
X224220000Y-72590000D02*
X224060000Y-72590000D01*
X227822000Y-73000000D02*
X227822000Y-72718000D01*
X231193898Y-73193898D02*
X231000000Y-73000000D01*
X230953479Y-73917974D02*
X231274506Y-73596948D01*
X231274505Y-73274506D02*
X231193898Y-73193898D01*
X228962000Y-73682000D02*
X228962000Y-73228000D01*
X227252000Y-73000000D02*
X227252000Y-73482000D01*
X229532000Y-73228000D02*
X229532000Y-73682000D01*
X205750000Y-70250000D02*
X204662500Y-70250000D01*
X230663558Y-75469509D02*
X230744168Y-75388900D01*
X230984583Y-76112977D02*
X230663557Y-75791951D01*
X227822000Y-73682000D02*
X227822000Y-73000000D01*
X226682000Y-72772000D02*
X226682000Y-72718000D01*
X231710077Y-75709926D02*
X231790686Y-75629315D01*
X226454000Y-72490000D02*
X226340000Y-72490000D01*
X228392000Y-72718000D02*
X228392000Y-73000000D01*
X220981053Y-71000000D02*
X208069408Y-71000000D01*
X231066608Y-75388900D02*
X231387635Y-75709927D01*
X223100000Y-73000000D02*
X222981053Y-73000000D01*
X227594000Y-72490000D02*
X227480000Y-72490000D01*
X206575000Y-71075000D02*
X205750000Y-70250000D01*
X230380000Y-73000000D02*
X229760000Y-73000000D01*
X231274506Y-73596948D02*
G75*
G03*
X231274533Y-73274478I-161206J161248D01*
G01*
X225542000Y-72718000D02*
G75*
G03*
X225314000Y-72490000I-228000J0D01*
G01*
X225200000Y-72490000D02*
G75*
G03*
X224972000Y-72718000I0J-228000D01*
G01*
X224425000Y-72795000D02*
G75*
G03*
X224220000Y-72590000I-205000J0D01*
G01*
X224060000Y-72590000D02*
G75*
G03*
X223855000Y-72795000I0J-205000D01*
G01*
X230984583Y-76435417D02*
G75*
G03*
X230984580Y-76112980I-161183J161217D01*
G01*
X231356532Y-74321026D02*
G75*
G02*
X231034079Y-74321037I-161232J161226D01*
G01*
X228962000Y-72718000D02*
G75*
G03*
X228734000Y-72490000I-228000J0D01*
G01*
X230953479Y-74240414D02*
G75*
G02*
X230953485Y-73917980I161221J161214D01*
G01*
X227252000Y-73482000D02*
G75*
G02*
X227024000Y-73710000I-228000J0D01*
G01*
X229532000Y-73682000D02*
G75*
G02*
X229304000Y-73910000I-228000J0D01*
G01*
X228050000Y-73910000D02*
G75*
G02*
X227822000Y-73682000I0J228000D01*
G01*
X223855000Y-72795000D02*
G75*
G02*
X223650000Y-73000000I-205000J0D01*
G01*
X226340000Y-72490000D02*
G75*
G03*
X226112000Y-72718000I0J-228000D01*
G01*
X226682000Y-72718000D02*
G75*
G03*
X226454000Y-72490000I-228000J0D01*
G01*
X225770000Y-73000000D02*
G75*
G02*
X225542000Y-72772000I0J228000D01*
G01*
X227822000Y-72718000D02*
G75*
G03*
X227594000Y-72490000I-228000J0D01*
G01*
X224630000Y-73000000D02*
G75*
G02*
X224425000Y-72795000I0J205000D01*
G01*
X224972000Y-72772000D02*
G75*
G02*
X224744000Y-73000000I-228000J0D01*
G01*
X228392000Y-73682000D02*
G75*
G02*
X228164000Y-73910000I-228000J0D01*
G01*
X228620000Y-72490000D02*
G75*
G03*
X228392000Y-72718000I0J-228000D01*
G01*
X232000000Y-74000000D02*
G75*
G03*
X231677580Y-74000020I-161200J-161200D01*
G01*
X226910000Y-73710000D02*
G75*
G02*
X226682000Y-73482000I0J228000D01*
G01*
X230744168Y-75388900D02*
G75*
G02*
X231066608Y-75388900I161220J-161218D01*
G01*
X230663557Y-75791951D02*
G75*
G02*
X230663527Y-75469479I161243J161251D01*
G01*
X227480000Y-72490000D02*
G75*
G03*
X227252000Y-72718000I0J-228000D01*
G01*
X231387635Y-75709927D02*
G75*
G03*
X231710121Y-75709971I161265J161227D01*
G01*
X226112000Y-72772000D02*
G75*
G02*
X225884000Y-73000000I-228000J0D01*
G01*
X229760000Y-73000000D02*
G75*
G03*
X229532000Y-73228000I0J-228000D01*
G01*
X229190000Y-73910000D02*
G75*
G02*
X228962000Y-73682000I0J228000D01*
G01*
%TO.N,/FMC_SDNWE*%
X219410355Y-79410355D02*
X219500000Y-79320710D01*
X219500000Y-79320710D02*
X219500000Y-77740000D01*
%TO.N,Net-(IC2-DVDD)*%
X233250000Y-95475000D02*
X233250000Y-97065000D01*
X233475000Y-95250000D02*
X233250000Y-95475000D01*
%TO.N,/FAD_LED1_OUT*%
X202071880Y-74000000D02*
X199250000Y-74000000D01*
X203821880Y-75750000D02*
X202071880Y-74000000D01*
X174500000Y-86500000D02*
X173912500Y-87087500D01*
X173912500Y-87087500D02*
X173912500Y-90250000D01*
X204662500Y-75750000D02*
X203821880Y-75750000D01*
%TO.N,/FMC_A10*%
X212213480Y-73613480D02*
X213009009Y-74409009D01*
X214292348Y-74892348D02*
X214700000Y-75300000D01*
X196200000Y-69200000D02*
X196200000Y-66200000D01*
X210988796Y-73613480D02*
X212213480Y-73613480D01*
X213471028Y-74892348D02*
X214292348Y-74892348D01*
X195944975Y-64965075D02*
X195534925Y-64555025D01*
X213009009Y-74409009D02*
X213009009Y-74430329D01*
X214700000Y-75300000D02*
X214700000Y-77740000D01*
X213009009Y-74430329D02*
X213471028Y-74892348D01*
X195944975Y-65944975D02*
X195944975Y-64965075D01*
X194750000Y-64052944D02*
X194750000Y-62337500D01*
X195252081Y-64555025D02*
X194750000Y-64052944D01*
X198600000Y-71600000D02*
X196200000Y-69200000D01*
X195534925Y-64555025D02*
X195252081Y-64555025D01*
X196200000Y-66200000D02*
X195944975Y-65944975D01*
%TO.N,/FMC_D10*%
X210747950Y-56978000D02*
X210747950Y-56522000D01*
X210067950Y-56522000D02*
X210067950Y-56978000D01*
X200250000Y-56750000D02*
X200250000Y-60582667D01*
X206278553Y-54800000D02*
X202200000Y-54800000D01*
X208728553Y-57250000D02*
X208539276Y-57060723D01*
X224300000Y-66500000D02*
X224300000Y-64700000D01*
X210475950Y-56250000D02*
X210339950Y-56250000D01*
X211427950Y-56522000D02*
X211427950Y-57250000D01*
X224300000Y-64700000D02*
X222100000Y-62500000D01*
X202200000Y-54800000D02*
X200250000Y-56750000D01*
X199750000Y-61082667D02*
X199750000Y-62337500D01*
X209795950Y-57250000D02*
X209659950Y-57250000D01*
X210747950Y-57500000D02*
X210747950Y-57250000D01*
X212537950Y-57750000D02*
X212357950Y-57750000D01*
X213467950Y-56978000D02*
X213467950Y-56522000D01*
X211177950Y-57750000D02*
X210997950Y-57750000D01*
X212787950Y-56522000D02*
X212787950Y-56978000D01*
X200250000Y-60582667D02*
X199750000Y-61082667D01*
X213894975Y-57405025D02*
X213739950Y-57250000D01*
X208539276Y-57060723D02*
X206278553Y-54800000D01*
X212107950Y-57500000D02*
X212107950Y-57250000D01*
X212107950Y-57250000D02*
X212107950Y-56522000D01*
X212787950Y-57250000D02*
X212787950Y-57500000D01*
X210747950Y-57250000D02*
X210747950Y-56978000D01*
X209659950Y-57250000D02*
X208728553Y-57250000D01*
X222100000Y-62500000D02*
X218989950Y-62500000D01*
X213195950Y-56250000D02*
X213059950Y-56250000D01*
X212787950Y-56978000D02*
X212787950Y-57250000D01*
X218989950Y-62500000D02*
X213894975Y-57405025D01*
X211427950Y-57250000D02*
X211427950Y-57500000D01*
X211835950Y-56250000D02*
X211699950Y-56250000D01*
X213739950Y-57250000D02*
G75*
G02*
X213468000Y-56978000I50J272000D01*
G01*
X211699950Y-56250000D02*
G75*
G03*
X211428000Y-56522000I50J-272000D01*
G01*
X210339950Y-56250000D02*
G75*
G03*
X210068000Y-56522000I50J-272000D01*
G01*
X210997950Y-57750000D02*
G75*
G02*
X210747900Y-57500000I-50J250000D01*
G01*
X212107950Y-56522000D02*
G75*
G03*
X211835950Y-56249950I-272050J0D01*
G01*
X212787950Y-57500000D02*
G75*
G02*
X212537950Y-57749950I-249950J0D01*
G01*
X213059950Y-56250000D02*
G75*
G03*
X212788000Y-56522000I50J-272000D01*
G01*
X211427950Y-57500000D02*
G75*
G02*
X211177950Y-57749950I-249950J0D01*
G01*
X210747950Y-56522000D02*
G75*
G03*
X210475950Y-56249950I-272050J0D01*
G01*
X212357950Y-57750000D02*
G75*
G02*
X212107900Y-57500000I-50J250000D01*
G01*
X210067950Y-56978000D02*
G75*
G02*
X209795950Y-57250050I-272050J0D01*
G01*
X213467950Y-56522000D02*
G75*
G03*
X213195950Y-56249950I-272050J0D01*
G01*
%TO.N,/I2C1_SDA*%
X234250000Y-102466140D02*
X234783860Y-103000000D01*
X189000000Y-87000000D02*
X188750000Y-86750000D01*
X188750000Y-86750000D02*
X188750000Y-83662500D01*
X234250000Y-101935000D02*
X234250000Y-102466140D01*
X234783860Y-103000000D02*
X235000000Y-103000000D01*
%TO.N,Net-(U1-PH1)*%
X183337500Y-70250000D02*
X182225000Y-70250000D01*
X180775000Y-68800000D02*
X181250000Y-69275000D01*
X182225000Y-70250000D02*
X181250000Y-69275000D01*
X179150000Y-68800000D02*
X180775000Y-68800000D01*
%TO.N,/FMC_A6*%
X210460050Y-64050000D02*
X211670000Y-64050000D01*
X195141422Y-68108578D02*
X194858578Y-68108578D01*
X191750000Y-65000000D02*
X191750000Y-62337500D01*
X202900000Y-68700000D02*
X203575000Y-68025000D01*
X205853120Y-64100000D02*
X210410050Y-64100000D01*
X194858578Y-68108578D02*
X191750000Y-65000000D01*
X203575000Y-68025000D02*
X203575000Y-63996880D01*
X210410050Y-64100000D02*
X210460050Y-64050000D01*
X203821880Y-63750000D02*
X205503120Y-63750000D01*
X213100000Y-65480000D02*
X213100000Y-66500000D01*
X213100000Y-66500000D02*
X213250000Y-66500000D01*
X205503120Y-63750000D02*
X205853120Y-64100000D01*
X211670000Y-64050000D02*
X213100000Y-65480000D01*
X203575000Y-63996880D02*
X203821880Y-63750000D01*
%TO.N,/FMC_D7*%
X200750000Y-63750000D02*
X198821880Y-63750000D01*
X221900000Y-76200000D02*
X219600000Y-73900000D01*
X216400000Y-73900000D02*
X214750000Y-72250000D01*
X201800000Y-65800000D02*
X201800000Y-64800000D01*
X221900000Y-77740000D02*
X221900000Y-76200000D01*
X219600000Y-73900000D02*
X216400000Y-73900000D01*
X198821880Y-63750000D02*
X198250000Y-63178120D01*
X201800000Y-64800000D02*
X200750000Y-63750000D01*
X198250000Y-63178120D02*
X198250000Y-62337500D01*
%TO.N,/FMC_D3*%
X223767287Y-84222666D02*
X223682433Y-84307518D01*
X221985373Y-86004578D02*
X221886441Y-86103509D01*
X222833903Y-85156048D02*
X222833902Y-85156048D01*
X224000630Y-85304541D02*
X223915779Y-85389393D01*
X223682433Y-84307518D02*
X223682432Y-84307518D01*
X223152100Y-86153071D02*
X223067249Y-86237923D01*
X224424897Y-84540863D02*
X224106699Y-84222665D01*
X224849160Y-84456011D02*
X224764309Y-84540863D01*
X222727837Y-86237923D02*
X222409639Y-85919725D01*
X223682432Y-84646930D02*
X224000631Y-84965129D01*
X222918757Y-85071196D02*
X222833903Y-85156048D01*
X226700000Y-77740000D02*
X226700000Y-79200000D01*
X223576367Y-85389393D02*
X223258169Y-85071195D01*
X225444975Y-82544975D02*
X224530962Y-83458988D01*
X226700000Y-79200000D02*
X226720321Y-79220321D01*
X224530962Y-83798400D02*
X224849161Y-84116599D01*
X222833902Y-85495460D02*
X223152101Y-85813659D01*
X222070227Y-85919726D02*
X221985373Y-86004578D01*
X223067249Y-86237923D02*
G75*
G02*
X222727837Y-86237923I-169706J169701D01*
G01*
X223915779Y-85389393D02*
G75*
G02*
X223576367Y-85389393I-169706J169701D01*
G01*
X222409639Y-85919725D02*
G75*
G03*
X222070193Y-85919692I-169739J-169675D01*
G01*
X224000631Y-84965129D02*
G75*
G02*
X224000596Y-85304507I-169731J-169671D01*
G01*
X222833902Y-85156048D02*
G75*
G03*
X222833856Y-85495506I169698J-169752D01*
G01*
X224849161Y-84116599D02*
G75*
G02*
X224849155Y-84456006I-169661J-169701D01*
G01*
X223152101Y-85813659D02*
G75*
G02*
X223152136Y-86153106I-169701J-169741D01*
G01*
X223258169Y-85071195D02*
G75*
G03*
X222918794Y-85071232I-169669J-169705D01*
G01*
X224530962Y-83458988D02*
G75*
G03*
X224530956Y-83798406I169738J-169712D01*
G01*
X223682432Y-84307518D02*
G75*
G03*
X223682456Y-84646906I169668J-169682D01*
G01*
X224764309Y-84540863D02*
G75*
G02*
X224424897Y-84540863I-169706J169701D01*
G01*
X224106699Y-84222665D02*
G75*
G03*
X223767293Y-84222672I-169699J-169735D01*
G01*
%TO.N,/FMC_D5*%
X196250000Y-63500000D02*
X196250000Y-62337500D01*
X224300000Y-76845000D02*
X224300000Y-77740000D01*
X217402946Y-72750000D02*
X220205000Y-72750000D01*
X220205000Y-72750000D02*
X224300000Y-76845000D01*
X197869975Y-65119975D02*
X196250000Y-63500000D01*
X216852945Y-72199999D02*
X217402946Y-72750000D01*
X199619975Y-65119975D02*
X197869975Y-65119975D01*
%TO.N,/FMC_A8*%
X195250000Y-66250000D02*
X193750000Y-64750000D01*
X214700000Y-65290050D02*
X214700000Y-66500000D01*
X193750000Y-64750000D02*
X193750000Y-62337500D01*
X213154975Y-63745025D02*
X214700000Y-65290050D01*
%TO.N,Net-(U3B-A)*%
X172087500Y-90250000D02*
X172087500Y-92662500D01*
X172087500Y-92662500D02*
X171750000Y-93000000D01*
%TO.N,Net-(IC2-IN2_L)*%
X231750000Y-102250000D02*
X231250000Y-102750000D01*
X231250000Y-101935000D02*
X231250000Y-102750000D01*
X231250000Y-102750000D02*
X231250000Y-104175000D01*
X231250000Y-104175000D02*
X231975000Y-104900000D01*
X231750000Y-101935000D02*
X231750000Y-102250000D01*
%TO.N,Net-(U4B-A)*%
X190087500Y-90750000D02*
X190087500Y-92662500D01*
X190087500Y-92662500D02*
X189750000Y-93000000D01*
%TO.N,Net-(U6B-A)*%
X228000000Y-91500000D02*
X227400000Y-91500000D01*
X227400000Y-91500000D02*
X226012500Y-90112500D01*
X226012500Y-90112500D02*
X226012500Y-90100000D01*
X229500000Y-93000000D02*
X228000000Y-91500000D01*
D47*
%TO.N,AREF-10*%
X219225000Y-115475000D02*
X220000000Y-116250000D01*
X220500000Y-116250000D02*
X220562500Y-116312500D01*
X221925000Y-115425000D02*
X221750000Y-115250000D01*
X220562500Y-116312500D02*
X221925000Y-116312500D01*
X221925000Y-116312500D02*
X221925000Y-115425000D01*
D48*
X225837500Y-117750000D02*
X226750000Y-116837500D01*
X209400000Y-120000000D02*
X204337500Y-120000000D01*
X222750000Y-117750000D02*
X225837500Y-117750000D01*
X217362500Y-115475000D02*
X216000000Y-116837500D01*
D47*
X219000000Y-115475000D02*
X219225000Y-115475000D01*
X220000000Y-116250000D02*
X220500000Y-116250000D01*
X221750000Y-115250000D02*
X221750000Y-113937500D01*
D48*
X212562500Y-116837500D02*
X209400000Y-120000000D01*
X216000000Y-116837500D02*
X212562500Y-116837500D01*
X221925000Y-116925000D02*
X222750000Y-117750000D01*
X219000000Y-115475000D02*
X217362500Y-115475000D01*
X221925000Y-116312500D02*
X221925000Y-116925000D01*
X204337500Y-120000000D02*
X202750000Y-121587500D01*
%TO.N,Net-(IC2-AVDD)*%
X229315000Y-96500000D02*
X228275000Y-96500000D01*
X230565000Y-97750000D02*
X229315000Y-96500000D01*
%TO.N,CODECREF*%
X230565000Y-100750000D02*
X228800000Y-100750000D01*
X228800000Y-100750000D02*
X228750000Y-100700000D01*
%TO.N,Net-(IC2-IN3_L)*%
X229025000Y-99250000D02*
X230565000Y-99250000D01*
X230565000Y-99750000D02*
X229525000Y-99750000D01*
X229525000Y-99750000D02*
X229025000Y-99250000D01*
X228250000Y-99000000D02*
X228750000Y-99500000D01*
X229000000Y-99250000D02*
X229025000Y-99250000D01*
X227775000Y-99000000D02*
X228250000Y-99000000D01*
X228750000Y-99500000D02*
X229000000Y-99250000D01*
%TO.N,Net-(C45-Pad1)*%
X210800000Y-97075000D02*
X212725000Y-99000000D01*
X203366000Y-100250000D02*
X203461000Y-100345000D01*
X206731000Y-97075000D02*
X210800000Y-97075000D01*
X203461000Y-100345000D02*
X205620000Y-100345000D01*
X178500000Y-124475000D02*
X180500000Y-124475000D01*
X203461000Y-100345000D02*
X206731000Y-97075000D01*
X205620000Y-100345000D02*
X205750000Y-100475000D01*
X180500000Y-112500000D02*
X181250000Y-111750000D01*
X180500000Y-124475000D02*
X180500000Y-112500000D01*
X202000000Y-100250000D02*
X203366000Y-100250000D01*
X203412500Y-100296500D02*
X203461000Y-100345000D01*
X203412500Y-97750000D02*
X203412500Y-100296500D01*
%TO.N,Net-(U9A--)*%
X205750000Y-102025000D02*
X205025000Y-102025000D01*
X205025000Y-102025000D02*
X204615000Y-101615000D01*
X204615000Y-101615000D02*
X203461000Y-101615000D01*
X202175662Y-101615000D02*
X203461000Y-101615000D01*
X198500000Y-106750000D02*
X188162500Y-106750000D01*
X201250000Y-109837500D02*
X201250000Y-107750000D01*
X201905331Y-101344669D02*
X202175662Y-101615000D01*
%TO.N,Net-(C46-Pad1)*%
X200750000Y-103500000D02*
X198865000Y-101615000D01*
X195475000Y-102500000D02*
X195500000Y-102475000D01*
X200750000Y-104500000D02*
X200750000Y-103500000D01*
X204250000Y-108000000D02*
X200750000Y-104500000D01*
X196250000Y-102500000D02*
X196225000Y-102475000D01*
X212975000Y-108000000D02*
X204250000Y-108000000D01*
X196225000Y-102475000D02*
X195500000Y-102475000D01*
X198865000Y-101615000D02*
X198039000Y-101615000D01*
X198039000Y-101615000D02*
X197135000Y-101615000D01*
X192662500Y-102500000D02*
X195475000Y-102500000D01*
X197135000Y-101615000D02*
X196250000Y-102500000D01*
%TO.N,Net-(U9B--)*%
X199750000Y-104000000D02*
X198635000Y-102885000D01*
X198635000Y-102885000D02*
X198039000Y-102885000D01*
X191725000Y-104025000D02*
X195500000Y-104025000D01*
X198478000Y-102865000D02*
X198039000Y-102865000D01*
X204587500Y-109837500D02*
X199750000Y-105000000D01*
X195975000Y-104025000D02*
X197115000Y-102885000D01*
X188162500Y-104750000D02*
X191000000Y-104750000D01*
X195500000Y-104025000D02*
X195975000Y-104025000D01*
X199750000Y-105000000D02*
X199750000Y-104000000D01*
X197115000Y-102885000D02*
X198039000Y-102885000D01*
X191000000Y-104750000D02*
X191725000Y-104025000D01*
X204750000Y-109837500D02*
X204587500Y-109837500D01*
%TO.N,/Audio Codec/Input Output Channels/INR*%
X215025000Y-108000000D02*
X214525000Y-108000000D01*
X232250000Y-103583700D02*
X232250000Y-101935000D01*
X232083700Y-103750000D02*
X232250000Y-103583700D01*
X215750000Y-108575000D02*
X215600000Y-108575000D01*
X215600000Y-108575000D02*
X215025000Y-108000000D01*
%TO.N,/Audio Codec/Input Output Channels/INL*%
X215750000Y-99000000D02*
X214275000Y-99000000D01*
X232750000Y-103000000D02*
X232750000Y-101935000D01*
X232979504Y-103939709D02*
X232979504Y-103229504D01*
X232979504Y-103229504D02*
X232750000Y-103000000D01*
%TO.N,Net-(C51-Pad1)*%
X226912500Y-103000000D02*
X226912500Y-104000000D01*
X226831250Y-104081250D02*
X225912500Y-105000000D01*
%TO.N,/Audio Codec/Input Output Channels/OUTL*%
X230565000Y-98750000D02*
X229000000Y-98750000D01*
X224810050Y-98000000D02*
X224000000Y-98810050D01*
X228250000Y-98000000D02*
X224810050Y-98000000D01*
X224000000Y-100525000D02*
X224475000Y-101000000D01*
X229000000Y-98750000D02*
X228250000Y-98000000D01*
X224000000Y-98810050D02*
X224000000Y-100525000D01*
%TO.N,Net-(C52-Pad1)*%
X207750000Y-96087500D02*
X211912500Y-96087500D01*
X213075000Y-97250000D02*
X211912500Y-96087500D01*
X215500000Y-97250000D02*
X213075000Y-97250000D01*
%TO.N,/Audio Codec/Input Output Channels/OUTR*%
X228394408Y-97325000D02*
X225575000Y-97325000D01*
X229319408Y-98250000D02*
X228394408Y-97325000D01*
X225575000Y-97325000D02*
X225500000Y-97250000D01*
X225500000Y-97250000D02*
X222300000Y-97250000D01*
X230565000Y-98250000D02*
X229319408Y-98250000D01*
%TO.N,Net-(U10A--)*%
X219500000Y-103025000D02*
X221362500Y-103025000D01*
X219340000Y-102865000D02*
X219500000Y-103025000D01*
X217211000Y-102865000D02*
X219340000Y-102865000D01*
X221362500Y-103025000D02*
X223337500Y-105000000D01*
%TO.N,Net-(C53-Pad1)*%
X221750000Y-101500000D02*
X223000000Y-102750000D01*
X219500000Y-101475000D02*
X217331000Y-101475000D01*
X221612500Y-101475000D02*
X221750000Y-101337500D01*
X222400000Y-107237500D02*
X222412500Y-107250000D01*
X221750000Y-101337500D02*
X221750000Y-101500000D01*
X217331000Y-101475000D02*
X217211000Y-101595000D01*
X219500000Y-101475000D02*
X221612500Y-101475000D01*
X222400000Y-105850000D02*
X222400000Y-107237500D01*
%TO.N,Net-(C54-Pad1)*%
X211789000Y-102961000D02*
X211750000Y-103000000D01*
X208000000Y-102225000D02*
X209612500Y-102225000D01*
X209612500Y-102225000D02*
X209750000Y-102087500D01*
X211789000Y-102865000D02*
X210527500Y-102865000D01*
X212615000Y-102865000D02*
X211789000Y-102865000D01*
X210527500Y-102865000D02*
X209750000Y-102087500D01*
X213500000Y-103750000D02*
X212615000Y-102865000D01*
%TO.N,Net-(U10B--)*%
X209750000Y-103912500D02*
X208137500Y-103912500D01*
X207525000Y-103775000D02*
X207000000Y-103250000D01*
X208137500Y-103912500D02*
X208000000Y-103775000D01*
X207000000Y-103250000D02*
X207000000Y-99500000D01*
X207000000Y-99500000D02*
X207750000Y-98750000D01*
X211789000Y-104135000D02*
X209972500Y-104135000D01*
X207750000Y-98750000D02*
X207750000Y-97912500D01*
X209972500Y-104135000D02*
X209750000Y-103912500D01*
X208000000Y-103775000D02*
X207525000Y-103775000D01*
%TO.N,Net-(U11A--)*%
X227647000Y-125365000D02*
X228711000Y-125365000D01*
X232337500Y-128837500D02*
X233250000Y-129750000D01*
X232337500Y-127500000D02*
X232337500Y-128837500D01*
X226750000Y-118662500D02*
X226750000Y-124468000D01*
X226750000Y-124468000D02*
X227647000Y-125365000D01*
X231750000Y-126912500D02*
X232337500Y-127500000D01*
X231750000Y-125550000D02*
X231750000Y-126912500D01*
X231565000Y-125365000D02*
X231750000Y-125550000D01*
X233250000Y-129750000D02*
X233250000Y-135837500D01*
X228711000Y-125365000D02*
X231565000Y-125365000D01*
%TO.N,Net-(U13A--)*%
X203387500Y-126225000D02*
X203250000Y-126087500D01*
X206635000Y-126385000D02*
X206475000Y-126225000D01*
X206475000Y-126225000D02*
X205750000Y-126225000D01*
X208478000Y-126385000D02*
X211000000Y-128907000D01*
X208039000Y-126385000D02*
X206635000Y-126385000D01*
X202750000Y-125587500D02*
X203250000Y-126087500D01*
X205750000Y-126225000D02*
X203387500Y-126225000D01*
X208039000Y-126385000D02*
X208039000Y-126461000D01*
X211000000Y-128907000D02*
X211000000Y-135837500D01*
X202750000Y-123412500D02*
X202750000Y-125587500D01*
X208039000Y-126461000D02*
X208000000Y-126500000D01*
X208039000Y-126385000D02*
X208478000Y-126385000D01*
%TO.N,Net-(U13B--)*%
X214825000Y-119837500D02*
X216000000Y-118662500D01*
X214000000Y-119837500D02*
X214825000Y-119837500D01*
D47*
%TO.N,Net-(D1-A)*%
X176250000Y-45750000D02*
X176120000Y-45620000D01*
X176120000Y-45620000D02*
X176120000Y-44250000D01*
X176250000Y-47312500D02*
X176250000Y-45750000D01*
X176120000Y-41710000D02*
X176120000Y-44250000D01*
%TO.N,Net-(D2-K)*%
X165880000Y-41710000D02*
X165880000Y-44250000D01*
X165880000Y-44250000D02*
X165880000Y-47182500D01*
D48*
%TO.N,/SWO*%
X190128120Y-82200000D02*
X190750000Y-82821880D01*
X188700000Y-82200000D02*
X190128120Y-82200000D01*
X190750000Y-82821880D02*
X190750000Y-83662500D01*
%TO.N,Net-(J5-PadT)*%
X183752500Y-141340000D02*
X183412500Y-141000000D01*
X186500000Y-141340000D02*
X183752500Y-141340000D01*
%TO.N,Net-(R11-Pad2)*%
X185500000Y-110250000D02*
X185500000Y-107587500D01*
X185500000Y-107587500D02*
X186337500Y-106750000D01*
%TO.N,Net-(R12-Pad2)*%
X184250000Y-110500000D02*
X184250000Y-106250000D01*
X185750000Y-104750000D02*
X186337500Y-104750000D01*
X184250000Y-106250000D02*
X185750000Y-104750000D01*
X185250000Y-111500000D02*
X184250000Y-110500000D01*
%TO.N,Net-(J7-PadT)*%
X197500000Y-141340000D02*
X195590000Y-141340000D01*
X195590000Y-141340000D02*
X194750000Y-140500000D01*
%TO.N,Net-(J9-PadT)*%
X211000000Y-137662500D02*
X211000000Y-138840000D01*
X211000000Y-138840000D02*
X208500000Y-141340000D01*
%TO.N,Net-(J10-PadT)*%
X222000000Y-138840000D02*
X219500000Y-141340000D01*
X222000000Y-138840000D02*
X222000000Y-137662500D01*
%TO.N,Net-(J8-PadT)*%
X233250000Y-138590000D02*
X230500000Y-141340000D01*
X233250000Y-137662500D02*
X233250000Y-138590000D01*
%TO.N,Net-(J11-PadT)*%
X201250000Y-111662500D02*
X199082500Y-111662500D01*
X197500000Y-110080000D02*
X197582500Y-110080000D01*
X199082500Y-111662500D02*
X197500000Y-110080000D01*
%TO.N,Net-(J13-PadT)*%
X230500000Y-108175000D02*
X230075000Y-107750000D01*
X230500000Y-110080000D02*
X230500000Y-108175000D01*
%TO.N,Net-(J11-PadTN)*%
X197500000Y-118380000D02*
X204217500Y-111662500D01*
X204750000Y-111662500D02*
X206917500Y-111662500D01*
X206917500Y-111662500D02*
X208500000Y-110080000D01*
X204217500Y-111662500D02*
X204750000Y-111662500D01*
D47*
%TO.N,Net-(D3-K)*%
X168600000Y-75875000D02*
X167675000Y-75875000D01*
X166200000Y-75887500D02*
X167662500Y-75887500D01*
X167662500Y-75887500D02*
X167675000Y-75875000D01*
D48*
%TO.N,/SWCLK*%
X194200000Y-94600000D02*
X195600000Y-94600000D01*
X195600000Y-94600000D02*
X200800000Y-89400000D01*
%TO.N,GND*%
X234250000Y-100750000D02*
X233388909Y-99888909D01*
X235435000Y-100750000D02*
X234250000Y-100750000D01*
X233750000Y-97596140D02*
X233988860Y-97835000D01*
X233988860Y-97835000D02*
X233988860Y-98511140D01*
X233988860Y-98511140D02*
X233494975Y-99005025D01*
X233750000Y-98750000D02*
X233388909Y-99111091D01*
%TD*%
%TA.AperFunction,Conductor*%
%TO.N,GND*%
G36*
X174693039Y-40519685D02*
G01*
X174738794Y-40572489D01*
X174750000Y-40624000D01*
X174750000Y-46198638D01*
X174730315Y-46265677D01*
X174713681Y-46286319D01*
X173786319Y-47213681D01*
X173724996Y-47247166D01*
X173698638Y-47250000D01*
X168301362Y-47250000D01*
X168234323Y-47230315D01*
X168213681Y-47213681D01*
X167286319Y-46286319D01*
X167252834Y-46224996D01*
X167250000Y-46198638D01*
X167250000Y-44669911D01*
X167254225Y-44637818D01*
X167295063Y-44485408D01*
X167315659Y-44250000D01*
X167295063Y-44014592D01*
X167254225Y-43862180D01*
X167250000Y-43830087D01*
X167250000Y-42129911D01*
X167254225Y-42097818D01*
X167295063Y-41945408D01*
X167315659Y-41710000D01*
X167295063Y-41474592D01*
X167254225Y-41322180D01*
X167250000Y-41290087D01*
X167250000Y-40624000D01*
X167269685Y-40556961D01*
X167322489Y-40511206D01*
X167374000Y-40500000D01*
X174626000Y-40500000D01*
X174693039Y-40519685D01*
G37*
%TD.AperFunction*%
%TD*%
%TA.AperFunction,Conductor*%
%TO.N,+3.3V*%
G36*
X167943039Y-62019685D02*
G01*
X167988794Y-62072489D01*
X168000000Y-62124000D01*
X168000000Y-63750000D01*
X167999999Y-63750000D01*
X168333333Y-64000000D01*
X168722754Y-64292065D01*
X168764574Y-64348035D01*
X168769495Y-64417731D01*
X168767331Y-64426195D01*
X168764978Y-64434208D01*
X168764977Y-64434213D01*
X168764977Y-64434216D01*
X168764976Y-64434220D01*
X168750121Y-64537544D01*
X168744500Y-64576637D01*
X168744500Y-64637326D01*
X168744790Y-64654433D01*
X168744928Y-64658505D01*
X168744999Y-64662695D01*
X168744999Y-66037265D01*
X168744929Y-66041439D01*
X168744787Y-66045630D01*
X168744500Y-66062677D01*
X168744500Y-66062697D01*
X168744500Y-66876000D01*
X168744501Y-66876009D01*
X168756052Y-66983450D01*
X168756054Y-66983462D01*
X168767260Y-67034972D01*
X168801383Y-67137497D01*
X168801386Y-67137503D01*
X168879171Y-67258537D01*
X168879179Y-67258548D01*
X168924926Y-67311344D01*
X168957203Y-67339312D01*
X168994977Y-67398090D01*
X169000000Y-67433025D01*
X169000000Y-69500000D01*
X170698074Y-70712910D01*
X170741184Y-70767894D01*
X170750000Y-70813813D01*
X170750000Y-73126000D01*
X170730315Y-73193039D01*
X170677511Y-73238794D01*
X170626000Y-73250000D01*
X165374000Y-73250000D01*
X165306961Y-73230315D01*
X165261206Y-73177511D01*
X165250000Y-73126000D01*
X165250000Y-67576636D01*
X165269685Y-67509597D01*
X165318546Y-67465727D01*
X165712818Y-67268591D01*
X165768272Y-67255500D01*
X166375990Y-67255500D01*
X166376000Y-67255500D01*
X166483456Y-67243947D01*
X166534967Y-67232741D01*
X166569197Y-67221347D01*
X166637497Y-67198616D01*
X166637501Y-67198613D01*
X166637504Y-67198613D01*
X166758543Y-67120825D01*
X166811347Y-67075070D01*
X166905567Y-66966336D01*
X166965338Y-66835459D01*
X166985023Y-66768420D01*
X166985024Y-66768416D01*
X167005500Y-66626000D01*
X167005500Y-64537544D01*
X167005481Y-64533178D01*
X167005463Y-64531094D01*
X167005411Y-64526967D01*
X166982545Y-64384916D01*
X166961737Y-64318217D01*
X166961736Y-64318215D01*
X166961734Y-64318210D01*
X166961684Y-64318085D01*
X166961253Y-64317203D01*
X166949258Y-64292065D01*
X166899775Y-64188360D01*
X166592685Y-63727725D01*
X166571878Y-63661027D01*
X166590323Y-63593844D01*
X166612003Y-63558697D01*
X166665349Y-63397708D01*
X166675500Y-63298345D01*
X166675499Y-62701656D01*
X166665349Y-62602292D01*
X166612003Y-62441303D01*
X166611999Y-62441297D01*
X166611998Y-62441294D01*
X166523962Y-62298566D01*
X166505500Y-62233469D01*
X166505500Y-62124000D01*
X166525185Y-62056961D01*
X166577989Y-62011206D01*
X166629500Y-62000000D01*
X167876000Y-62000000D01*
X167943039Y-62019685D01*
G37*
%TD.AperFunction*%
%TD*%
%TA.AperFunction,Conductor*%
%TO.N,GND*%
G36*
X165943039Y-61269685D02*
G01*
X165988794Y-61322489D01*
X166000000Y-61374000D01*
X166000000Y-63750000D01*
X166479174Y-64468761D01*
X166499982Y-64535460D01*
X166500000Y-64537544D01*
X166500000Y-66626000D01*
X166480315Y-66693039D01*
X166427511Y-66738794D01*
X166376000Y-66750000D01*
X164874000Y-66750000D01*
X164806961Y-66730315D01*
X164761206Y-66677511D01*
X164750000Y-66626000D01*
X164750000Y-64499999D01*
X164270826Y-63781238D01*
X164250018Y-63714539D01*
X164250000Y-63712455D01*
X164250000Y-61374000D01*
X164269685Y-61306961D01*
X164322489Y-61261206D01*
X164374000Y-61250000D01*
X165876000Y-61250000D01*
X165943039Y-61269685D01*
G37*
%TD.AperFunction*%
%TD*%
%TA.AperFunction,Conductor*%
%TO.N,+12V*%
G36*
X172693039Y-62019685D02*
G01*
X172738794Y-62072489D01*
X172750000Y-62124000D01*
X172750000Y-65878692D01*
X172730315Y-65945731D01*
X172713681Y-65966373D01*
X171716373Y-66963681D01*
X171655050Y-66997166D01*
X171628692Y-67000000D01*
X169374000Y-67000000D01*
X169306961Y-66980315D01*
X169261206Y-66927511D01*
X169250000Y-66876000D01*
X169250000Y-66062697D01*
X169250284Y-66054307D01*
X169250500Y-66051123D01*
X169250499Y-64648878D01*
X169250284Y-64645705D01*
X169250000Y-64637319D01*
X169250000Y-64576636D01*
X169269685Y-64509597D01*
X169318546Y-64465727D01*
X170249998Y-64000001D01*
X170250000Y-64000000D01*
X170250000Y-62124000D01*
X170269685Y-62056961D01*
X170322489Y-62011206D01*
X170374000Y-62000000D01*
X172626000Y-62000000D01*
X172693039Y-62019685D01*
G37*
%TD.AperFunction*%
%TD*%
M02*
