<?xml version="1.0" encoding="UTF-8" standalone="no"?>
<svg
   viewBox="0 0 793.7007874015749 1122.5196850393702"
   width="793.7007874015749"
   height="1122.5196850393702"
   version="1.1"
   id="svg78"
   sodipodi:docname="panel.dxf"
   xmlns:inkscape="http://www.inkscape.org/namespaces/inkscape"
   xmlns:sodipodi="http://sodipodi.sourceforge.net/DTD/sodipodi-0.dtd"
   xmlns="http://www.w3.org/2000/svg"
   xmlns:svg="http://www.w3.org/2000/svg">
  <sodipodi:namedview
     id="namedview78"
     pagecolor="#ffffff"
     bordercolor="#000000"
     borderopacity="0.25"
     inkscape:showpageshadow="2"
     inkscape:pageopacity="0.0"
     inkscape:pagecheckerboard="0"
     inkscape:deskcolor="#d1d1d1" />
  <desc
     id="desc1">panel.dxf - scale = 1.000000, origin = (0.000000, 0.000000), method = manual</desc>
  <defs
     id="defs4">
    <rect
       x="346.87303"
       y="760.23005"
       width="102.13484"
       height="28.424317"
       id="rect78" />
    <marker
       id="DistanceX"
       orient="auto"
       refX="0.0"
       refY="0.0"
       style="overflow:visible">
      <path
         d="M 3,-3 L -3,3 M 0,-5 L  0,5"
         style="stroke:#000000; stroke-width:0.5"
         id="path1" />
    </marker>
    <pattern
       id="Hatch"
       patternUnits="userSpaceOnUse"
       width="8"
       height="8"
       x="0"
       y="0">
      <path
         d="M8 4 l-4,4"
         stroke="#000000"
         stroke-width="0.25"
         linecap="square"
         id="path2" />
      <path
         d="M6 2 l-4,4"
         stroke="#000000"
         stroke-width="0.25"
         linecap="square"
         id="path3" />
      <path
         d="M4 0 l-4,4"
         stroke="#000000"
         stroke-width="0.25"
         linecap="square"
         id="path4" />
    </pattern>
    <symbol
       id="*MODEL_SPACE" />
    <symbol
       id="*PAPER_SPACE" />
  </defs>
  <g
     inkscape:groupmode="layer"
     inkscape:label="0"
     id="g4" />
  <g
     inkscape:groupmode="layer"
     inkscape:label="View"
     id="g78">
    <path
       style="fill:none;stroke:#000000"
       d="M 492.537 307.47 L 492.537 793.14"
       id="path5" />
    <path
       style="fill:none;stroke:#000000"
       d="M 492.537 793.14 L 300.537 793.14"
       id="path6" />
    <path
       style="fill:none;stroke:#000000"
       d="M 300.537 793.14 L 300.537 307.47"
       id="path7" />
    <path
       style="fill:none;stroke:#000000"
       d="M 300.537 307.47 L 492.537 307.47"
       id="path8" />
    <path
       style="fill:none;stroke:#000000"
       d="M 381.986 430.494 L 381.986 568.069"
       id="path9" />
    <path
       d="M 379.907345,570.147649 A 2.078740,2.078740 -0.000000 0 0 381.986085,568.068909"
       style="fill:none;stroke:#000000"
       id="path10" />
    <path
       style="fill:none;stroke:#000000"
       d="M 379.907 570.148 L 371.592 570.148"
       id="path11" />
    <path
       d="M 369.513644,568.068909 A 2.078740,2.078740 -0.000000 0 0 371.592384,570.147649"
       style="fill:none;stroke:#000000"
       id="path12" />
    <path
       style="fill:none;stroke:#000000"
       d="M 369.514 568.069 L 369.514 430.494"
       id="path13" />
    <path
       d="M 371.592384,428.415366 A 2.078740,2.078740 -0.000000 0 0 369.513644,430.494106"
       style="fill:none;stroke:#000000"
       id="path14" />
    <path
       style="fill:none;stroke:#000000"
       d="M 371.592 428.415 L 379.907 428.415"
       id="path15" />
    <path
       d="M 381.986085,430.494106 A 2.078740,2.078740 -0.000000 0 0 379.907345,428.415366"
       style="fill:none;stroke:#000000"
       id="path16" />
    <path
       style="fill:none;stroke:#000000"
       d="M 423.561 430.494 L 423.561 568.069"
       id="path17" />
    <path
       d="M 421.482148,570.147649 A 2.078740,2.078740 -0.000000 0 0 423.560888,568.068909"
       style="fill:none;stroke:#000000"
       id="path18" />
    <path
       style="fill:none;stroke:#000000"
       d="M 421.482 570.148 L 413.167 570.148"
       id="path19" />
    <path
       d="M 411.088447,568.068909 A 2.078740,2.078740 -0.000000 0 0 413.167187,570.147649"
       style="fill:none;stroke:#000000"
       id="path20" />
    <path
       style="fill:none;stroke:#000000"
       d="M 411.088 568.069 L 411.088 430.494"
       id="path21" />
    <path
       d="M 413.167187,428.415366 A 2.078740,2.078740 -0.000000 0 0 411.088447,430.494106"
       style="fill:none;stroke:#000000"
       id="path22" />
    <path
       style="fill:none;stroke:#000000"
       d="M 413.167 428.415 L 421.482 428.415"
       id="path23" />
    <path
       d="M 423.560888,430.494106 A 2.078740,2.078740 -0.000000 0 0 421.482148,428.415366"
       style="fill:none;stroke:#000000"
       id="path24" />
    <path
       style="fill:none;stroke:#000000"
       d="M 465.136 430.494 L 465.136 568.069"
       id="path25" />
    <path
       d="M 463.056951,570.147649 A 2.078740,2.078740 -0.000000 0 0 465.135691,568.068909"
       style="fill:none;stroke:#000000"
       id="path26" />
    <path
       style="fill:none;stroke:#000000"
       d="M 463.057 570.148 L 454.742 570.148"
       id="path27" />
    <path
       d="M 452.663250,568.068909 A 2.078740,2.078740 -0.000000 0 0 454.741990,570.147649"
       style="fill:none;stroke:#000000"
       id="path28" />
    <path
       style="fill:none;stroke:#000000"
       d="M 452.663 568.069 L 452.663 430.494"
       id="path29" />
    <path
       d="M 454.741990,428.415366 A 2.078740,2.078740 -0.000000 0 0 452.663250,430.494106"
       style="fill:none;stroke:#000000"
       id="path30" />
    <path
       style="fill:none;stroke:#000000"
       d="M 454.742 428.415 L 463.057 428.415"
       id="path31" />
    <path
       d="M 465.135691,430.494106 A 2.078740,2.078740 -0.000000 0 0 463.056951,428.415366"
       style="fill:none;stroke:#000000"
       id="path32" />
    <path
       style="fill:none;stroke:#000000"
       d="M 340.411 430.163 L 340.411 567.738"
       id="path33" />
    <path
       d="M 338.332542,569.816941 A 2.078740,2.078740 -0.000000 0 0 340.411282,567.738200"
       style="fill:none;stroke:#000000"
       id="path34" />
    <path
       style="fill:none;stroke:#000000"
       d="M 338.333 569.817 L 330.018 569.817"
       id="path35" />
    <path
       d="M 327.938841,567.738200 A 2.078740,2.078740 -0.000000 0 0 330.017581,569.816941"
       style="fill:none;stroke:#000000"
       id="path36" />
    <path
       style="fill:none;stroke:#000000"
       d="M 327.939 567.738 L 327.939 430.163"
       id="path37" />
    <path
       d="M 330.017581,428.084657 A 2.078740,2.078740 -0.000000 0 0 327.938841,430.163397"
       style="fill:none;stroke:#000000"
       id="path38" />
    <path
       style="fill:none;stroke:#000000"
       d="M 330.018 428.085 L 338.333 428.085"
       id="path39" />
    <path
       d="M 340.411282,430.163397 A 2.078740,2.078740 -0.000000 0 0 338.332542,428.084657"
       style="fill:none;stroke:#000000"
       id="path40" />
    <path
       d="M 363.466400,669.553949 C 363.467143,668.531714 363.591517,667.374013 363.957738,666.114578 C 364.323770,664.859479 364.939100,663.496925 365.923093,662.183870 C 366.901277,660.874984 368.264317,659.622943 369.969411,658.715597 C 371.665407,657.804049 373.699394,657.264846 375.749864,657.270484 C 377.800335,657.264846 379.834322,657.804049 381.530318,658.715597 C 383.235412,659.622943 384.598452,660.874984 385.576636,662.183870 C 386.560629,663.496925 387.175959,664.859479 387.541990,666.114578 C 387.908212,667.374013 388.032586,668.531714 388.033329,669.553949 C 388.032586,670.576183 387.908212,671.733884 387.541990,672.993319 C 387.175959,674.248418 386.560629,675.610972 385.576636,676.924027 C 384.598452,678.232913 383.235412,679.484954 381.530318,680.392300 C 379.834322,681.303848 377.800335,681.843051 375.749864,681.837413 C 373.699394,681.843051 371.665407,681.303848 369.969411,680.392300 C 368.264317,679.484954 366.901277,678.232913 365.923093,676.924027 C 364.939100,675.610972 364.323770,674.248418 363.957738,672.993319 C 363.591517,671.733884 363.467143,670.576183 363.466400,669.553949 z"
       style="fill:none;stroke:#000000"
       id="path41" />
    <path
       d="M 388.033329,728.892531 A 12.283465,12.283465 -0.000000 0, 0 363.466400,728.892531 A 12.283465,12.283465 -0.000000 0, 0 388.033329,728.892531 z"
       style="fill:none;stroke:#000000"
       id="path42" />
    <path
       d="M 346.458526,610.215366 A 12.283465,12.283465 -0.000000 0, 0 321.891597,610.215366 A 12.283465,12.283465 -0.000000 0, 0 346.458526,610.215366 z"
       style="fill:none;stroke:#000000"
       id="path43" />
    <path
       d="M 388.033329,610.215366 A 12.283465,12.283465 -0.000000 0, 0 363.466400,610.215366 A 12.283465,12.283465 -0.000000 0, 0 388.033329,610.215366 z"
       style="fill:none;stroke:#000000"
       id="path44" />
    <path
       d="M 429.608132,610.215366 A 12.283465,12.283465 -0.000000 0, 0 405.041203,610.215366 A 12.283465,12.283465 -0.000000 0, 0 429.608132,610.215366 z"
       style="fill:none;stroke:#000000"
       id="path45" />
    <path
       d="M 346.458526,669.553949 A 12.283465,12.283465 -0.000000 0, 0 321.891597,669.553949 A 12.283465,12.283465 -0.000000 0, 0 346.458526,669.553949 z"
       style="fill:none;stroke:#000000"
       id="path46" />
    <path
       d="M 471.182935,610.215366 A 12.283465,12.283465 -0.000000 0, 0 446.616006,610.215366 A 12.283465,12.283465 -0.000000 0, 0 471.182935,610.215366 z"
       style="fill:none;stroke:#000000"
       id="path47" />
    <path
       d="M 429.608132,669.553949 A 12.283465,12.283465 -0.000000 0, 0 405.041203,669.553949 A 12.283465,12.283465 -0.000000 0, 0 429.608132,669.553949 z"
       style="fill:none;stroke:#000000"
       id="path48" />
    <path
       d="M 471.182935,669.553949 A 12.283465,12.283465 -0.000000 0, 0 446.616006,669.553949 A 12.283465,12.283465 -0.000000 0, 0 471.182935,669.553949 z"
       style="fill:none;stroke:#000000"
       id="path49" />
    <path
       d="M 346.458526,728.892531 A 12.283465,12.283465 -0.000000 0, 0 321.891597,728.892531 A 12.283465,12.283465 -0.000000 0, 0 346.458526,728.892531 z"
       style="fill:none;stroke:#000000"
       id="path50" />
    <path
       d="M 471.182935,728.892531 A 12.283465,12.283465 -0.000000 0, 0 446.616006,728.892531 A 12.283465,12.283465 -0.000000 0, 0 471.182935,728.892531 z"
       style="fill:none;stroke:#000000"
       id="path51" />
    <path
       d="M 429.608132,728.892531 A 12.283465,12.283465 -0.000000 0, 0 405.041203,728.892531 A 12.283465,12.283465 -0.000000 0, 0 429.608132,728.892531 z"
       style="fill:none;stroke:#000000"
       id="path52" />
    <path
       d="M 321.324668,324.667334 A 6.141732,6.141732 -0.000000 0 0 321.324668,312.383870"
       style="fill:none;stroke:#000000"
       id="path53" />
    <path
       style="fill:none;stroke:#000000"
       d="M 321.325 324.667 L 309.986 324.667"
       id="path54" />
    <path
       d="M 309.986085,312.383870 A 6.141732,6.141732 -0.000000 0 0 309.986085,324.667334"
       style="fill:none;stroke:#000000"
       id="path55" />
    <path
       style="fill:none;stroke:#000000"
       d="M 321.325 312.384 L 309.986 312.384"
       id="path56" />
    <path
       d="M 483.088447,788.226389 A 6.141732,6.141732 -0.000000 0 0 483.088447,775.942925"
       style="fill:none;stroke:#000000"
       id="path57" />
    <path
       style="fill:none;stroke:#000000"
       d="M 483.088 788.226 L 471.75 788.226"
       id="path58" />
    <path
       d="M 471.749864,775.942925 A 6.141732,6.141732 -0.000000 0 0 471.749864,788.226389"
       style="fill:none;stroke:#000000"
       id="path59" />
    <path
       style="fill:none;stroke:#000000"
       d="M 483.088 775.943 L 471.75 775.943"
       id="path60" />
    <path
       d="M 483.088447,324.667334 A 6.141732,6.141732 -0.000000 0 0 483.088447,312.383870"
       style="fill:none;stroke:#000000"
       id="path61" />
    <path
       style="fill:none;stroke:#000000"
       d="M 483.088 324.667 L 471.75 324.667"
       id="path62" />
    <path
       d="M 471.749864,312.383870 A 6.141732,6.141732 -0.000000 0 0 471.749864,324.667334"
       style="fill:none;stroke:#000000"
       id="path63" />
    <path
       style="fill:none;stroke:#000000"
       d="M 483.088 312.384 L 471.75 312.384"
       id="path64" />
    <path
       d="M 321.324668,788.226389 A 6.141732,6.141732 -0.000000 0 0 321.324668,775.942925"
       style="fill:none;stroke:#000000"
       id="path65" />
    <path
       style="fill:none;stroke:#000000"
       d="M 321.325 788.226 L 309.986 788.226"
       id="path66" />
    <path
       d="M 309.986085,775.942925 A 6.141732,6.141732 -0.000000 0 0 309.986085,788.226389"
       style="fill:none;stroke:#000000"
       id="path67" />
    <path
       style="fill:none;stroke:#000000"
       d="M 321.325 775.943 L 309.986 775.943"
       id="path68" />
    <path
       d="M 340.146715,361.706704 A 7.483465,7.483465 -0.000000 0, 0 325.179786,361.706704 A 7.483465,7.483465 -0.000000 0, 0 340.146715,361.706704 z"
       style="fill:none;stroke:#000000"
       id="path69" />
    <path
       d="M 382.603407,361.706704 A 7.483465,7.483465 -0.000000 0, 0 367.636477,361.706704 A 7.483465,7.483465 -0.000000 0, 0 382.603407,361.706704 z"
       style="fill:none;stroke:#000000"
       id="path70" />
    <path
       d="M 425.060102,361.706704 A 7.483465,7.483465 -0.000000 0, 0 410.093173,361.706704 A 7.483465,7.483465 -0.000000 0, 0 425.060102,361.706704 z"
       style="fill:none;stroke:#000000"
       id="path71" />
    <path
       d="M 467.516794,361.706704 A 7.483465,7.483465 -0.000000 0, 0 452.549864,361.706704 A 7.483465,7.483465 -0.000000 0, 0 467.516794,361.706704 z"
       style="fill:none;stroke:#000000"
       id="path72" />
    <path
       d="M 350.427030,393.265760 A 6.047244,6.047244 -0.000000 0, 0 338.332542,393.265760 A 6.047244,6.047244 -0.000000 0, 0 350.427030,393.265760 z"
       style="fill:none;stroke:#000000"
       id="path73" />
    <path
       d="M 454.741990,393.643712 A 6.047244,6.047244 -0.000000 0, 0 442.647502,393.643712 A 6.047244,6.047244 -0.000000 0, 0 454.741990,393.643712 z"
       style="fill:none;stroke:#000000"
       id="path74" />
    <path
       d="M 338.332542,421.470484 A 4.157480,4.157480 -0.000000 0, 0 330.017581,421.470484 A 4.157480,4.157480 -0.000000 0, 0 338.332542,421.470484 z"
       style="fill:none;stroke:#000000"
       id="path75" />
    <path
       d="M 463.056951,421.801193 A 4.157480,4.157480 -0.000000 0, 0 454.741990,421.801193 A 4.157480,4.157480 -0.000000 0, 0 463.056951,421.801193 z"
       style="fill:none;stroke:#000000"
       id="path76" />
    <path
       d="M 379.907345,421.801193 A 4.157480,4.157480 -0.000000 0, 0 371.592384,421.801193 A 4.157480,4.157480 -0.000000 0, 0 379.907345,421.801193 z"
       style="fill:none;stroke:#000000"
       id="path77" />
    <path
       d="M 421.482148,421.801193 A 4.157480,4.157480 -0.000000 0, 0 413.167187,421.801193 A 4.157480,4.157480 -0.000000 0, 0 421.482148,421.801193 z"
       style="fill:none;stroke:#000000"
       id="path78" />
  </g>
  <g
     inkscape:groupmode="layer"
     id="layer1"
     inkscape:label="Text">
    <text
       xml:space="preserve"
       id="text78"
       style="writing-mode:lr-tb;direction:ltr;white-space:pre;shape-inside:url(#rect78);fill:#000000;stroke:#000000;stroke-width:1.94705"
       transform="translate(7.7082895,9.1535937)"><tspan
         sodipodi:role="line"
         id="tspan78">Aware Modular</tspan></text>
  </g>
</svg>
