<?xml version="1.0" encoding="UTF-8" standalone="no"?>
<svg
   viewBox="0 0 192.99975 486.66942"
   width="192.99976"
   height="486.6694"
   version="1.1"
   id="svg96"
   sodipodi:docname="panel_unioned.svg"
   inkscape:version="1.4.3 (0d15f75042, 2025-12-25)"
   inkscape:export-filename="panel_font_only_texture.svg"
   inkscape:export-xdpi="1000"
   inkscape:export-ydpi="1000"
   xmlns:inkscape="http://www.inkscape.org/namespaces/inkscape"
   xmlns:sodipodi="http://sodipodi.sourceforge.net/DTD/sodipodi-0.dtd"
   xmlns="http://www.w3.org/2000/svg"
   xmlns:svg="http://www.w3.org/2000/svg">
  <sodipodi:namedview
     id="namedview96"
     pagecolor="#ffffff"
     bordercolor="#000000"
     borderopacity="0.25"
     inkscape:showpageshadow="2"
     inkscape:pageopacity="0.0"
     inkscape:pagecheckerboard="0"
     inkscape:deskcolor="#d1d1d1"
     inkscape:zoom="1.4677326"
     inkscape:cx="1.7033075"
     inkscape:cy="240.84769"
     inkscape:window-width="2560"
     inkscape:window-height="1374"
     inkscape:window-x="0"
     inkscape:window-y="0"
     inkscape:window-maximized="1"
     inkscape:current-layer="svg96"
     showguides="true"
     inkscape:document-units="mm">
    <sodipodi:guide
       position="34.138018,806.99472"
       orientation="0,793.70081"
       id="guide118"
       inkscape:locked="false" />
    <sodipodi:guide
       position="34.138018,791.99472"
       orientation="0,1"
       id="guide123"
       inkscape:label=""
       inkscape:locked="false"
       inkscape:color="rgb(0,134,229)" />
    <sodipodi:guide
       position="34.138008,747.65623"
       orientation="0,-1"
       id="guide124"
       inkscape:locked="false" />
    <sodipodi:guide
       position="34.138008,732.65623"
       orientation="0,1"
       id="guide125"
       inkscape:label=""
       inkscape:locked="false"
       inkscape:color="rgb(0,134,229)" />
    <sodipodi:guide
       position="34.138008,688.31772"
       orientation="0,-1"
       id="guide126"
       inkscape:locked="false" />
    <sodipodi:guide
       position="34.138008,673.31772"
       orientation="0,1"
       id="guide127"
       inkscape:label=""
       inkscape:locked="false"
       inkscape:color="rgb(0,134,229)" />
    <sodipodi:guide
       position="34.138448,859.673"
       orientation="0,-1"
       id="guide128"
       inkscape:locked="false" />
    <sodipodi:guide
       position="34.138448,844.673"
       orientation="0,1"
       id="guide129"
       inkscape:label=""
       inkscape:locked="false"
       inkscape:color="rgb(0,134,229)" />
    <sodipodi:guide
       position="34.138458,1001.4048"
       orientation="0,1"
       id="guide130"
       inkscape:label=""
       inkscape:locked="false"
       inkscape:color="rgb(0,134,229)" />
    <inkscape:page
       x="0"
       y="0"
       width="192.99976"
       height="486.66943"
       id="page2"
       margin="0"
       bleed="0" />
  </sodipodi:namedview>
  <desc
     id="desc1">panel.dxf - scale = 1.000000, origin = (0.000000, 0.000000), method = manual</desc>
  <defs
     id="defs4" />
  <path
     id="text118"
     style="font-size:18.6667px;font-family:'Liberation Mono';-inkscape-font-specification:'Liberation Mono';display:inline;fill:#050505;stroke:#000000;stroke-width:0"
     inkscape:label="AAREBOT"
     d="M 70.77188,18.401 69.51406,14.91922 H 64.38254 L 63.13384,18.401 H 61.34738 L 65.99583,6.1054 h 1.97787 l 4.56641,12.2956 z m -3.8099,-10.9831 -0.10938,0.35547 -0.62891,1.9323 -1.3763,3.85547 h 4.22006 L 67.49062,9.00384 Z M 81.97372,18.401 80.71591,14.91922 H 75.58439 L 74.33569,18.401 H 72.54923 L 77.19767,6.1054 h 1.97787 l 4.56641,12.2956 z m -3.8099,-10.9831 -0.10938,0.35547 -0.6289,1.9323 -1.37631,3.85547 h 4.22006 L 78.69247,9.00384 Z M 92.47374,18.401 89.1378,13.1601 H 86.96852 V 18.401 H 85.22763 V 6.1054 h 4.39324 q 2.1237,0 3.23568,0.88412 1.11199,0.875 1.11199,2.51563 0,1.35807 -0.85678,2.28776 -0.84765,0.92969 -2.27865,1.16667 L 94.47895,18.401 Z M 92.21853,9.53249 q 0,-2.03256 -2.77084,-2.03256 h -2.47917 v 4.28387 h 2.55209 q 1.30339,0 1.9961,-0.58334 0.70182,-0.58333 0.70182,-1.66797 z M 96.42948,18.401 V 6.1054 h 8.37631 v 1.42188 h -6.63542 v 3.84636 h 6.08855 v 1.40365 h -6.08855 v 4.20183 h 7.00912 V 18.401 Z m 20.22529,-3.46355 q 0,1.64063 -1.2487,2.55209 -1.2487,0.91146 -3.47266,0.91146 h -4.30209 V 6.1054 h 3.75522 q 4.52084,0 4.52084,2.98047 0,1.11199 -0.65625,1.85938 -0.65625,0.7474 -1.78647,0.97527 1.52214,0.16406 2.35157,0.97526 0.83854,0.8112 0.83854,2.04167 z m -2.4974,-5.63283 q 0,-0.97526 -0.69271,-1.38541 -0.68359,-0.41928 -2.05989,-0.41928 h -2.03256 v 3.79168 h 2.05078 q 2.73438,0 2.73438,-1.98699 z m 0.73829,5.47788 q 0,-1.03907 -0.8112,-1.58594 -0.8112,-0.54688 -2.41537,-0.54688 h -2.29688 v 4.35678 h 2.42448 q 1.59506,0 2.34246,-0.54687 0.75651,-0.55599 0.75651,-1.67709 z m 12.72398,-2.58855 q 0,3.07162 -1.21224,4.73048 -1.20313,1.65886 -3.46355,1.65886 -2.26954,0 -3.46355,-1.63152 -1.19401,-1.63151 -1.19401,-4.75782 0,-3.07162 1.1849,-4.67579 1.18489,-1.60417 3.49089,-1.60417 2.2513,0 3.45443,1.58594 1.20313,1.57683 1.20313,4.69402 z m -1.83204,0 q 0,-4.85808 -2.82552,-4.85808 -2.84376,0 -2.84376,4.85808 0,2.46094 0.72006,3.71876 0.72005,1.25781 2.11458,1.25781 1.48568,0 2.16016,-1.27604 0.67448,-1.27604 0.67448,-3.70053 z m 9.23309,-4.66667 V 18.401 h -1.73177 V 7.52728 h -4.03777 V 6.1054 h 9.80731 v 1.42188 z m 13.75564,266.62448 q 0,1.72396 -0.80209,2.65626 -0.79688,0.92708 -2.28647,0.92708 h -1.92709 v -7.02606 h 1.6198 q 1.71355,0 2.55209,0.85938 0.84376,0.85417 0.84376,2.58334 z m -1.00001,0 q 0,-1.37501 -0.57292,-2.00001 -0.57291,-0.63021 -1.81771,-0.63021 h -0.63021 v 5.40106 h 0.84375 q 1.10417,0 1.64063,-0.69271 0.53646,-0.69271 0.53646,-2.07813 z m 3.21876,0.96354 q 0,0.94792 0.41667,1.48438 0.42188,0.53646 1.15105,0.53646 0.53646,0 0.9375,-0.22917 0.40625,-0.23437 0.54167,-0.63541 l 0.82292,0.23437 q -0.22917,0.64584 -0.84376,0.98959 -0.60937,0.34375 -1.45833,0.34375 -1.22917,0 -1.89063,-0.76563 -0.66147,-0.76563 -0.66147,-2.19271 0,-1.39063 0.64584,-2.13543 0.65104,-0.75 1.87501,-0.75 1.22396,0 1.85417,0.74479 0.63021,0.7448 0.63021,2.25001 v 0.125 z m 1.54688,-2.42709 q -0.69792,0 -1.10417,0.45834 -0.40625,0.45312 -0.43229,1.25 h 3.04168 q -0.14584,-1.70834 -1.50522,-1.70834 z m 8.69795,3.43751 q 0,0.80209 -0.60938,1.26042 -0.60417,0.45313 -1.67709,0.45313 -1.07292,0 -1.63542,-0.33334 -0.55729,-0.33854 -0.72917,-1.0625 l 0.82813,-0.16146 q 0.099,0.44792 0.42187,0.65625 0.32813,0.20313 1.11459,0.20313 1.40626,0 1.40626,-0.89063 0,-0.33333 -0.25521,-0.53646 -0.25521,-0.20833 -0.78126,-0.33854 -1.375,-0.33854 -1.74479,-0.53125 -0.3698,-0.19271 -0.56771,-0.47917 -0.19792,-0.29167 -0.19792,-0.72396 0,-0.76563 0.55208,-1.19792 0.55209,-0.43229 1.59897,-0.43229 0.91667,0 1.46354,0.34895 0.54688,0.34376 0.6823,1.00522 l -0.84375,0.10416 q -0.0573,-0.375 -0.3698,-0.56771 -0.3125,-0.19271 -0.93229,-0.19271 -1.27605,0 -1.27605,0.78647 0,0.3125 0.21354,0.5 0.21876,0.1875 0.69792,0.30208 l 0.6198,0.16146 q 0.84896,0.20833 1.21875,0.41146 0.375,0.20313 0.58854,0.51042 0.21355,0.30208 0.21355,0.74479 z m 1.86979,-3.28647 v -0.73958 h 0.88542 l 0.30209,-1.46876 h 0.625 v 1.46876 h 2.25001 v 0.73958 h -2.25001 v 3.39585 q 0,0.41146 0.21875,0.60937 0.22396,0.19792 0.72917,0.19792 0.69792,0 1.54688,-0.17708 v 0.71354 q -0.88021,0.23959 -1.7448,0.23959 -0.84375,0 -1.26563,-0.35417 -0.42187,-0.35938 -0.42187,-1.13021 v -3.49481 z m 10.85421,0.11459 q -0.58334,-0.099 -1.10417,-0.099 -0.83855,0 -1.35418,0.63021 -0.51562,0.63021 -0.51562,1.60417 v 2.64584 h -0.9375 v -3.65105 q 0,-0.39584 -0.0729,-0.9323 -0.0677,-0.53646 -0.19792,-1.05208 h 0.89063 q 0.20833,0.71875 0.25,1.30208 h 0.026 q 0.26042,-0.58333 0.51042,-0.85416 0.25,-0.27605 0.59375,-0.41146 0.34375,-0.14063 0.83855,-0.14063 0.54166,0 1.07292,0.0885 z m -61.43121,4.88771 -1.90625,-2.9948 h -1.23959 v 2.9948 h -0.9948 v -7.02607 h 2.51043 q 1.21354,0 1.84896,0.50521 0.63542,0.5 0.63542,1.43751 0,0.77604 -0.48958,1.30729 -0.48438,0.53126 -1.30209,0.66667 l 2.08334,3.10939 z m -0.14583,-5.06773 q 0,-1.16146 -1.58334,-1.16146 h -1.41667 v 2.44793 h 1.45834 q 0.74479,0 1.14062,-0.33334 0.40105,-0.33333 0.40105,-0.95313 z m 3.23959,2.44793 q 0,0.94792 0.41667,1.48438 0.42188,0.53646 1.15104,0.53646 0.53646,0 0.93751,-0.22917 0.40625,-0.23438 0.54167,-0.63542 l 0.82291,0.23438 q -0.22916,0.64583 -0.84375,0.98958 -0.60937,0.34375 -1.45834,0.34375 -1.22917,0 -1.89063,-0.76562 -0.66146,-0.76563 -0.66146,-2.19272 0,-1.39063 0.64584,-2.13542 0.65104,-0.75 1.875,-0.75 1.22397,0 1.85418,0.74479 0.63021,0.74479 0.63021,2.25001 v 0.125 z m 1.54688,-2.42709 q -0.69792,0 -1.10417,0.45833 -0.40625,0.45313 -0.43229,1.25001 h 3.04167 q -0.14583,-1.70834 -1.50521,-1.70834 z m 7.52607,4.28126 1.46354,0.026 v 0.73959 l -1.92709,-0.0208 q -0.58854,-0.10416 -0.85937,-0.46875 -0.11459,-0.15625 -0.13021,-0.85417 v -5.64585 h -1.50522 v -0.73958 h 2.44272 v 6.49481 q 0.005,0.23437 0.13021,0.34896 0.10937,0.099 0.38542,0.11979 z m 0.0208,0.026 z m -0.53646,-0.49479 z m 0.0833,1.23438 z m -1.02083,-0.73959 v -0.60417 z m -51.19788,0.70594 -0.71875,-1.98959 h -2.93231 l -0.71354,1.98959 H 66.6629 l 2.65626,-7.02607 h 1.13021 l 2.60939,7.02607 z m -2.17709,-6.27607 -0.0625,0.20313 -0.35938,1.10417 -0.78646,2.20313 h 2.41147 l -0.90105,-2.60417 z m 4.1823,1.38022 v -0.73959 h 0.88542 l 0.30209,-1.46875 h 0.625 v 1.46875 h 2.25001 v 0.73959 h -2.25001 v 3.39584 q 0,0.41146 0.21875,0.60938 0.22396,0.19792 0.72917,0.19792 0.69792,0 1.54688,-0.17709 v 0.71355 q -0.88021,0.23958 -1.7448,0.23958 -0.84375,0 -1.26563,-0.35417 -0.42187,-0.35937 -0.42187,-1.13021 v -3.4948 z m 6.40106,0 v -0.73959 h 0.88542 l 0.30209,-1.46875 h 0.625 v 1.46875 h 2.25001 v 0.73959 h -2.25001 v 3.39584 q 0,0.41146 0.21875,0.60938 0.22396,0.19792 0.72917,0.19792 0.69792,0 1.54688,-0.17709 v 0.71355 q -0.88021,0.23958 -1.7448,0.23958 -0.84375,0 -1.26563,-0.35417 -0.42187,-0.35937 -0.42187,-1.13021 v -3.4948 z m -56.44379,-0.14555 q 0,0.65104 -0.3125,1.16146 -0.30729,0.51042 -0.88542,0.79688 -0.57292,0.28646 -1.32813,0.28646 h -1.46354 v 2.67709 h -0.9948 v -7.02606 h 2.39584 q 1.23959,0 1.91147,0.55729 0.67708,0.55208 0.67708,1.54688 z m -1,0.0156 q 0,-1.32292 -1.70834,-1.32292 h -1.28125 v 2.76564 h 1.32292 q 0.77604,0 1.21875,-0.38021 0.44792,-0.38021 0.44792,-1.06251 z m 5.45314,4.16668 h 1.97917 v 0.73959 h -5.11459 v -0.73959 h 2.19792 v -4.15626 H 25.865 v -0.73959 h 2.59896 z m -1.04167,-5.9896 v -1 h 1.04167 v 1 z m 4.5521,1.83334 v -0.73959 h 0.88542 l 0.30208,-1.46875 h 0.62501 v 1.46875 h 2.25 v 0.73959 h -2.25 v 3.39584 q 0,0.41146 0.21875,0.60938 0.22396,0.19792 0.72917,0.19792 0.69791,0 1.54688,-0.17709 v 0.71355 q -0.88022,0.23958 -1.7448,0.23958 -0.84375,0 -1.26563,-0.35417 -0.42188,-0.35937 -0.42188,-1.13021 v -3.4948 z m 6.08856,2.07292 q 0,-1.40625 0.67188,-2.16146 0.67188,-0.75521 1.94271,-0.75521 0.94792,0 1.56251,0.45833 0.61458,0.45313 0.76042,1.22396 l -1.00001,0.0729 q -0.0833,-0.47396 -0.41666,-0.74479 -0.33334,-0.27605 -0.94792,-0.27605 -0.82292,0 -1.20834,0.51042 -0.38021,0.51042 -0.38021,1.65105 0,1.15625 0.38021,1.69271 0.38542,0.53126 1.20313,0.53126 0.5625,0 0.93229,-0.27605 0.36979,-0.27604 0.45834,-0.84375 l 0.98958,0.0625 q -0.0677,0.5 -0.38021,0.91146 -0.30729,0.40625 -0.81771,0.64063 -0.51042,0.22917 -1.14063,0.22917 -1.27604,0 -1.94271,-0.75001 -0.66667,-0.75 -0.66667,-2.17709 z m 6.68752,-4.90626 h 0.94271 v 2.03125 q 0,0.3073 -0.0469,1.02605 h 0.0156 q 0.54688,-1.06771 1.76563,-1.06771 1.82293,0 1.82293,1.98438 v 3.75522 h -0.94272 v -3.6198 q 0,-0.70834 -0.27604,-1.05209 -0.27083,-0.34375 -0.86979,-0.34375 -0.64584,0 -1.06251,0.47396 -0.41145,0.46875 -0.41145,1.27604 v 3.26564 h -0.93751 z m 112.42729,62.73591 q -0.38542,0 -0.64583,-0.0573 v -0.70313 q 0.19791,0.0312 0.4375,0.0312 0.41146,0 0.77083,-0.30729 0.36459,-0.30729 0.61459,-0.97917 l 0.0937,-0.25521 -2.44793,-5.57814 h 1.00001 l 1.375,3.34376 q 0.47396,1.16667 0.51042,1.32292 l 0.21354,-0.57292 1.61459,-4.09376 h 0.98959 l -2.37501,5.63543 q -0.46354,1.22396 -0.96355,1.71876 -0.49479,0.49479 -1.1875,0.49479 z m -38.24139,-2.10985 -1.67188,-2.31251 -1.6823,2.31251 h -1.01042 l 2.16146,-2.89584 -2.06771,-2.73959 h 1.03646 l 1.56251,2.19271 1.55208,-2.19271 h 1.04688 l -2.06771,2.72917 2.18751,2.90626 z m -46.86122,3.60166 q 0,0.65105 -0.3125,1.16146 -0.30729,0.51042 -0.88542,0.79688 -0.57291,0.28646 -1.32813,0.28646 h -1.46354 v 2.67709 h -0.9948 v -7.02606 h 2.39584 q 1.23959,0 1.91147,0.55729 0.67708,0.55209 0.67708,1.54688 z m -1,0.0156 q 0,-1.32292 -1.70834,-1.32292 h -1.28125 v 2.76563 h 1.32292 q 0.77604,0 1.21875,-0.38021 0.44792,-0.38021 0.44792,-1.0625 z m 7.28648,2.08334 q 0,1.42188 -0.65625,2.17709 -0.65104,0.75 -1.88542,0.75 -1.20834,0 -1.85417,-0.76042 -0.64063,-0.76042 -0.64063,-2.16667 0,-1.45313 0.65625,-2.1823 0.66146,-0.73438 1.8698,-0.73438 1.27084,0 1.89063,0.72396 0.61979,0.72396 0.61979,2.19272 z m -0.98438,0 q 0,-1.1198 -0.35937,-1.67188 -0.35417,-0.55209 -1.15105,-0.55209 -0.80729,0 -1.18229,0.5625 -0.375,0.56251 -0.375,1.66147 0,1.09375 0.375,1.66667 0.375,0.56771 1.125,0.56771 0.82813,0 1.19792,-0.55729 0.36979,-0.5573 0.36979,-1.67709 z m 7.19274,1.21354 q 0,0.80209 -0.60938,1.26042 -0.60417,0.45313 -1.67709,0.45313 -1.07292,0 -1.63542,-0.33333 -0.5573,-0.33855 -0.72917,-1.06251 l 0.82813,-0.16146 q 0.099,0.44792 0.42187,0.65626 0.32813,0.20312 1.11459,0.20312 1.40625,0 1.40625,-0.89063 0,-0.33333 -0.2552,-0.53646 -0.25521,-0.20833 -0.78126,-0.33854 -1.375,-0.33854 -1.74479,-0.53125 -0.3698,-0.19271 -0.56771,-0.47917 -0.19792,-0.29167 -0.19792,-0.72396 0,-0.76563 0.55208,-1.19792 0.55209,-0.43229 1.59897,-0.43229 0.91667,0 1.46354,0.34896 0.54688,0.34375 0.6823,1.00521 l -0.84376,0.10416 q -0.0573,-0.375 -0.36979,-0.56771 -0.3125,-0.1927 -0.93229,-0.1927 -1.27605,0 -1.27605,0.78646 0,0.3125 0.21354,0.5 0.21875,0.1875 0.69792,0.30208 l 0.6198,0.16146 q 0.84896,0.20834 1.21875,0.41146 0.375,0.20313 0.58854,0.51042 0.21355,0.30208 0.21355,0.74479 z m -18.84902,-9.06541 q 0,0.95833 -0.70313,1.49479 -0.69792,0.53646 -1.9948,0.53646 -2.38021,0 -2.76563,-1.86458 l 0.96354,-0.19271 q 0.14584,0.67187 0.60417,0.97917 0.45834,0.30208 1.22396,0.30208 0.82813,0 1.25522,-0.32292 0.43229,-0.32292 0.43229,-0.91667 0,-0.36458 -0.17188,-0.59375 -0.16666,-0.22917 -0.44271,-0.375 -0.27604,-0.14583 -0.625,-0.23438 -0.34375,-0.0937 -0.69792,-0.18229 -0.83854,-0.21875 -1.19792,-0.39062 -0.35417,-0.17188 -0.56771,-0.39063 -0.21354,-0.22396 -0.32292,-0.51042 -0.10937,-0.28646 -0.10937,-0.67188 0,-0.90104 0.63021,-1.38542 0.63542,-0.48958 1.81771,-0.48958 1.10417,0 1.68751,0.38542 0.58333,0.38541 0.8125,1.30208 l -0.97917,0.17188 q -0.125,-0.58334 -0.5,-0.84375 -0.375,-0.26563 -1.02604,-0.26563 -1.47397,0 -1.47397,1.10938 0,0.3125 0.13542,0.51042 0.14062,0.19271 0.375,0.32292 0.23958,0.125 0.55209,0.20833 0.31771,0.0833 0.67708,0.17708 0.72396,0.1823 1.04167,0.3073 0.31771,0.11979 0.5625,0.27604 0.25,0.15625 0.42709,0.36979 0.17708,0.21354 0.27604,0.5 0.10417,0.28646 0.10417,0.67709 z m 4.87501,1.16146 1.46355,0.026 v 0.73959 l -1.92709,-0.0208 q -0.58854,-0.10416 -0.85938,-0.46875 -0.11458,-0.15625 -0.13021,-0.85417 v -5.64585 h -1.50521 v -0.73958 h 2.44272 v 6.49481 q 0.005,0.23437 0.1302,0.34896 0.10938,0.099 0.38542,0.11979 z m 0.0208,0.026 z m -0.53646,-0.49479 z m 0.0833,1.23438 z m -1.02084,-0.73959 v -0.60417 z m 7.38544,0 h 1.97918 v 0.73959 h -5.1146 v -0.73959 h 2.19792 v -4.15626 h -1.66146 v -0.73959 h 2.59896 z m -1.04167,-5.9896 v -1 h 1.04167 v 1 z m 4.2396,3.90626 q 0,-1.40625 0.67188,-2.16146 0.67187,-0.75521 1.94271,-0.75521 0.94792,0 1.56251,0.45833 0.61458,0.45313 0.76042,1.22396 l -1.00001,0.0729 q -0.0833,-0.47396 -0.41667,-0.74479 -0.33333,-0.27605 -0.94792,-0.27605 -0.82291,0 -1.20833,0.51042 -0.38021,0.51042 -0.38021,1.65105 0,1.15625 0.38021,1.69271 0.38542,0.53125 1.20313,0.53125 0.5625,0 0.93229,-0.27604 0.36979,-0.27604 0.45834,-0.84375 l 0.98958,0.0625 q -0.0677,0.5 -0.38021,0.91146 -0.30729,0.40625 -0.81771,0.64063 -0.51042,0.22916 -1.14063,0.22916 -1.27604,0 -1.94271,-0.75 -0.66667,-0.75 -0.66667,-2.17709 z m 7.40107,0.20313 q 0,0.94792 0.41666,1.48438 0.42188,0.53646 1.15105,0.53646 0.53646,0 0.9375,-0.22917 0.40625,-0.23438 0.54167,-0.63542 l 0.82292,0.23438 q -0.22917,0.64583 -0.84375,0.98958 -0.60938,0.34375 -1.45834,0.34375 -1.22917,0 -1.89063,-0.76562 -0.66146,-0.76563 -0.66146,-2.19272 0,-1.39063 0.64583,-2.13542 0.65105,-0.75 1.87501,-0.75 1.22396,0 1.85417,0.74479 0.63021,0.74479 0.63021,2.25001 v 0.125 z m 1.54688,-2.42709 q -0.69792,0 -1.10417,0.45833 -0.40626,0.45313 -0.4323,1.25001 h 3.04168 q -0.14584,-1.70834 -1.50521,-1.70834 z m -66.30915,5.10717 H 21.3337 l -2.63022,-7.02606 h 1.04688 l 1.66667,4.69793 q 0.16146,0.44791 0.4375,1.45313 0.20834,-0.77605 0.43751,-1.45313 l 1.65625,-4.69793 h 1.04688 z m 3.28126,0.10417 4.27606,-7.83336 h 0.92708 l -4.25522,7.83336 z m 11.67191,-3.65106 q 0,1.75522 -0.69271,2.70314 -0.6875,0.94792 -1.97917,0.94792 -1.29688,0 -1.97917,-0.9323 -0.6823,-0.93229 -0.6823,-2.71876 0,-1.75521 0.67709,-2.67188 0.67709,-0.91667 1.9948,-0.91667 1.28646,0 1.97396,0.90625 0.6875,0.90105 0.6875,2.6823 z m -1.04687,0 q 0,-2.77605 -1.61459,-2.77605 -1.62501,0 -1.62501,2.77605 0,1.40626 0.41146,2.12501 0.41146,0.71875 1.20834,0.71875 0.84896,0 1.23438,-0.72917 0.38542,-0.72917 0.38542,-2.11459 z m 2.26042,0.72396 q 0,-1.40625 0.67188,-2.16146 0.67187,-0.75521 1.94271,-0.75521 0.94792,0 1.56251,0.45833 0.61458,0.45313 0.76042,1.22396 l -1.00001,0.0729 q -0.0833,-0.47396 -0.41667,-0.74479 -0.33333,-0.27605 -0.94791,-0.27605 -0.82292,0 -1.20834,0.51042 -0.38021,0.51042 -0.38021,1.65105 0,1.15625 0.38021,1.69271 0.38542,0.53126 1.20313,0.53126 0.5625,0 0.93229,-0.27605 0.36979,-0.27604 0.45834,-0.84375 l 0.98958,0.0625 q -0.0677,0.5 -0.38021,0.91146 -0.30729,0.40625 -0.81771,0.64063 -0.51042,0.22917 -1.14063,0.22917 -1.27604,0 -1.94271,-0.75001 -0.66667,-0.75 -0.66667,-2.17709 z m 6.71356,-2.07292 v -0.73959 h 0.88542 l 0.30209,-1.46875 h 0.625 v 1.46875 h 2.25001 v 0.73959 h -2.25001 v 3.39584 q 0,0.41146 0.21875,0.60938 0.22396,0.19792 0.72917,0.19792 0.69792,0 1.54688,-0.17709 v 0.71355 q -0.88021,0.23958 -1.7448,0.23958 -0.84375,0 -1.26563,-0.35417 -0.42187,-0.35937 -0.42187,-1.13021 v -3.4948 z m 103.62521,62.27333 q 0,0.95833 -0.70313,1.49479 -0.69791,0.53646 -1.99479,0.53646 -2.38022,0 -2.76564,-1.86459 l 0.96355,-0.19271 q 0.14583,0.67188 0.60417,0.97917 0.45833,0.30209 1.22396,0.30209 0.82813,0 1.25521,-0.32292 0.43229,-0.32292 0.43229,-0.91667 0,-0.36458 -0.17187,-0.59375 -0.16667,-0.22917 -0.44271,-0.375 -0.27604,-0.14584 -0.625,-0.23438 -0.34375,-0.0937 -0.69792,-0.18229 -0.83855,-0.21875 -1.19792,-0.39063 -0.35417,-0.17187 -0.56771,-0.39062 -0.21355,-0.22396 -0.32292,-0.51042 -0.10938,-0.28646 -0.10938,-0.67188 0,-0.90104 0.63021,-1.38542 0.63542,-0.48958 1.81772,-0.48958 1.10417,0 1.6875,0.38541 0.58334,0.38542 0.81251,1.30209 l -0.97917,0.17188 q -0.125,-0.58334 -0.5,-0.84376 -0.37501,-0.26562 -1.02605,-0.26562 -1.47396,0 -1.47396,1.10938 0,0.3125 0.13541,0.51041 0.14063,0.19271 0.37501,0.32292 0.23958,0.125 0.55208,0.20834 0.31771,0.0833 0.67709,0.17708 0.72396,0.18229 1.04167,0.30729 0.31771,0.11979 0.5625,0.27605 0.25,0.15625 0.42708,0.36979 0.17709,0.21354 0.27605,0.5 0.10416,0.28646 0.10416,0.67709 z m 4.87502,1.16146 1.46354,0.026 v 0.73958 l -1.92709,-0.0208 q -0.58854,-0.10417 -0.85937,-0.46875 -0.11459,-0.15625 -0.13021,-0.85417 v -5.64585 h -1.50522 v -0.73959 h 2.44272 v 6.49482 q 0.005,0.23437 0.13021,0.34896 0.10938,0.0989 0.38542,0.11979 z m 0.0208,0.026 z m -0.53646,-0.49479 z m 0.0833,1.23437 z m -1.02083,-0.73958 v -0.60417 z m 7.38544,0 h 1.97917 v 0.73958 h -5.1146 v -0.73958 h 2.19793 v -4.15626 h -1.66147 v -0.73955 h 2.59897 z m -1.04167,-5.9896 v -1.00001 h 1.04167 v 1.00001 z m 4.23959,3.90626 q 0,-1.40626 0.67188,-2.16147 0.67188,-0.75521 1.94272,-0.75521 0.94792,0 1.5625,0.45834 0.61459,0.45312 0.76042,1.22396 l -1,0.0729 q -0.0833,-0.47396 -0.41667,-0.7448 -0.33333,-0.27604 -0.94792,-0.27604 -0.82292,0 -1.20834,0.51042 -0.38021,0.51042 -0.38021,1.65105 0,1.15625 0.38021,1.69271 0.38542,0.53125 1.20313,0.53125 0.5625,0 0.9323,-0.27604 0.36979,-0.27604 0.45833,-0.84375 l 0.98959,0.0625 q -0.0677,0.5 -0.38021,0.91146 -0.30729,0.40625 -0.81771,0.64062 -0.51042,0.22917 -1.14063,0.22917 -1.27605,0 -1.94272,-0.75 -0.66667,-0.75 -0.66667,-2.17709 z m 7.40107,0.20312 q 0,0.94792 0.41667,1.48438 0.42187,0.53646 1.15104,0.53646 0.53646,0 0.93751,-0.22916 0.40625,-0.23438 0.54166,-0.63542 l 0.82292,0.23437 q -0.22916,0.64584 -0.84375,0.98959 -0.60938,0.34375 -1.45834,0.34375 -1.22917,0 -1.89063,-0.76563 -0.66146,-0.76562 -0.66146,-2.19271 0,-1.39063 0.64584,-2.13542 0.65104,-0.75001 1.875,-0.75001 1.22397,0 1.85418,0.7448 0.63021,0.74479 0.63021,2.25 v 0.125 z m 1.54688,-2.42709 q -0.69792,0 -1.10417,0.45834 -0.40625,0.45312 -0.43229,1.25 h 3.04167 q -0.14583,-1.70834 -1.50521,-1.70834 z m -59.34818,5.15039 v -1.5573 h 1.22396 v 1.5573 z m 0,-4.07814 v -1.5573 h 1.22396 v 1.5573 z m 4.42189,1.10417 v -1.06771 l 5.18231,-2.17709 v 0.80209 l -4.46877,1.90625 4.46877,1.91147 v 0.79687 z m -45.83053,3.0043 -1.90626,-2.9948 h -1.23958 v 2.9948 h -0.9948 v -7.02606 h 2.51043 q 1.21354,0 1.84896,0.50521 0.63542,0.5 0.63542,1.4375 0,0.77605 -0.48959,1.3073 -0.48437,0.53125 -1.30208,0.66667 l 2.08334,3.10938 z m -0.14584,-5.06772 q 0,-1.16146 -1.58333,-1.16146 h -1.41667 v 2.44792 h 1.45833 q 0.7448,0 1.14063,-0.33333 0.40104,-0.33334 0.40104,-0.95313 z m 3.2396,2.44792 q 0,0.94792 0.41667,1.48438 0.42187,0.53646 1.15104,0.53646 0.53646,0 0.9375,-0.22916 0.40626,-0.23438 0.54167,-0.63542 l 0.82292,0.23437 q -0.22916,0.64584 -0.84375,0.98959 -0.60938,0.34375 -1.45834,0.34375 -1.22917,0 -1.89063,-0.76563 -0.66146,-0.76562 -0.66146,-2.19271 0,-1.39063 0.64584,-2.13543 0.65104,-0.75 1.875,-0.75 1.22396,0 1.85417,0.7448 0.63021,0.74479 0.63021,2.25 v 0.125 z m 1.54688,-2.42709 q -0.69792,0 -1.10417,0.45834 -0.40625,0.45312 -0.43229,1.25 h 3.04167 q -0.14583,-1.70834 -1.50521,-1.70834 z m 3.85418,2.22397 q 0,-1.40626 0.67187,-2.16147 0.67188,-0.75521 1.94272,-0.75521 0.94792,0 1.5625,0.45834 0.61459,0.45312 0.76042,1.22396 l -1,0.0729 q -0.0833,-0.47396 -0.41667,-0.7448 -0.33333,-0.27604 -0.94792,-0.27604 -0.82292,0 -1.20833,0.51042 -0.38021,0.51042 -0.38021,1.65104 0,1.15626 0.38021,1.69272 0.38541,0.53125 1.20312,0.53125 0.56251,0 0.9323,-0.27604 0.36979,-0.27605 0.45833,-0.84376 l 0.98959,0.0625 q -0.0677,0.5 -0.38021,0.91146 -0.30729,0.40625 -0.81771,0.64062 -0.51042,0.22917 -1.14063,0.22917 -1.27604,0 -1.94271,-0.75 -0.66667,-0.75 -0.66667,-2.17709 z m -52.65235,-2.07937 q 0,0.65104 -0.3125,1.16146 -0.30729,0.51042 -0.88542,0.79687 -0.57292,0.28646 -1.32813,0.28646 h -1.46355 v 2.6771 h -0.99479 v -7.02607 h 2.39584 q 1.23959,0 1.91146,0.5573 0.67709,0.55208 0.67709,1.54688 z m -1,0.0156 q 0,-1.32292 -1.70834,-1.32292 h -1.28126 v 2.76563 h 1.32292 q 0.77605,0 1.21876,-0.38021 0.44792,-0.38021 0.44792,-1.0625 z m 5.92189,4.14064 1.46355,0.026 v 0.73959 l -1.92709,-0.0208 q -0.58855,-0.10416 -0.85938,-0.46875 -0.11458,-0.15625 -0.13021,-0.85417 v -5.64585 h -1.50521 v -0.73959 h 2.44271 v 6.49482 q 0.005,0.23437 0.13021,0.34896 0.10938,0.099 0.38542,0.11979 z m 0.0208,0.026 z m -0.53646,-0.49479 z m 0.0833,1.23438 z m -1.02084,-0.73959 v -0.60417 z m 9.23961,0.16146 q 0.13542,0 0.3073,-0.0365 v 0.58334 q -0.35417,0.0833 -0.72396,0.0833 -0.52084,0 -0.76042,-0.27083 -0.23438,-0.27605 -0.26563,-0.85938 h -0.0312 q -0.33854,0.63021 -0.80209,0.90625 -0.45833,0.27604 -1.13542,0.27604 -0.82291,0 -1.23958,-0.44792 -0.41667,-0.44791 -0.41667,-1.22917 0,-1.81771 2.36459,-1.84375 l 1.22917,-0.0208 v -0.3073 q 0,-0.68229 -0.27604,-0.97917 -0.27604,-0.30208 -0.88021,-0.30208 -0.61459,0 -0.88542,0.21875 -0.27084,0.21875 -0.32292,0.67708 l -0.97917,-0.0885 q 0.23958,-1.52084 2.20313,-1.52084 1.04167,0 1.56251,0.48959 0.52604,0.48438 0.52604,1.40625 v 2.42709 q 0,0.41667 0.10938,0.63022 0.10937,0.20833 0.41666,0.20833 z m -3.17188,-0.0312 q 0.5,0 0.88542,-0.23959 0.38542,-0.23958 0.59896,-0.64062 0.21354,-0.40105 0.21354,-0.82813 v -0.46354 l -0.98959,0.0208 q -0.61458,0.0104 -0.9375,0.13542 -0.32292,0.125 -0.50521,0.38542 -0.17708,0.2552 -0.17708,0.68229 0,0.42708 0.22916,0.6875 0.23438,0.26042 0.6823,0.26042 z m 5.35939,2.82292 q -0.38542,0 -0.64583,-0.0573 v -0.70312 q 0.19791,0.0312 0.4375,0.0312 0.41146,0 0.77083,-0.3073 0.36459,-0.30729 0.61459,-0.97917 l 0.0937,-0.25521 -2.44793,-5.57814 h 1.00001 l 1.375,3.34376 q 0.47396,1.16667 0.51042,1.32292 l 0.21354,-0.57292 1.61459,-4.09376 h 0.98959 l -2.37501,5.63544 q -0.46354,1.22396 -0.96355,1.71875 -0.49479,0.49479 -1.1875,0.49479 z m 109.97948,53.47719 q 0,1.75521 -0.69271,2.70313 -0.6875,0.94792 -1.97917,0.94792 -1.29688,0 -1.97917,-0.93229 -0.6823,-0.9323 -0.6823,-2.71876 0,-1.75521 0.67709,-2.67188 0.67709,-0.91667 1.9948,-0.91667 1.28646,0 1.97396,0.90625 0.6875,0.90104 0.6875,2.6823 z m -1.04687,0 q 0,-2.77605 -1.61459,-2.77605 -1.62501,0 -1.62501,2.77605 0,1.40625 0.41146,2.12501 0.41146,0.71875 1.20834,0.71875 0.84896,0 1.23438,-0.72917 0.38542,-0.72917 0.38542,-2.11459 z m 3.48438,-2.08855 v 3.57293 q 0,0.8125 0.25521,1.13021 0.25521,0.3125 0.91146,0.3125 0.67188,0 1.06251,-0.45833 0.39062,-0.45834 0.39062,-1.29167 v -3.26564 h 0.94271 v 4.43231 q 0,0.98438 0.0312,1.20313 h -0.88542 q -0.005,-0.026 -0.0104,-0.14063 -0.005,-0.11458 -0.0156,-0.26042 -0.005,-0.15104 -0.0156,-0.5625 h -0.0156 q -0.32291,0.58334 -0.75,0.82813 -0.42188,0.23958 -1.05209,0.23958 -0.92708,0 -1.35938,-0.45833 -0.42708,-0.46355 -0.42708,-1.52605 v -3.75522 z m 5.4896,0.73959 v -0.73959 h 0.88542 l 0.30209,-1.46875 h 0.625 v 1.46875 h 2.25001 v 0.73959 h -2.25001 v 3.39584 q 0,0.41146 0.21875,0.60938 0.22396,0.19792 0.72917,0.19792 0.69792,0 1.54688,-0.17709 v 0.71355 q -0.88021,0.23958 -1.7448,0.23958 -0.84375,0 -1.26563,-0.35417 -0.42187,-0.35937 -0.42187,-1.13021 v -3.4948 z m 10.39587,4.89585 -1.90626,-2.99481 h -1.23958 v 2.99481 h -0.9948 v -7.02607 h 2.51043 q 1.21354,0 1.84896,0.50521 0.63542,0.5 0.63542,1.43751 0,0.77604 -0.48959,1.30729 -0.48437,0.53125 -1.30208,0.66667 l 2.08334,3.10939 z m -0.14583,-5.06773 q 0,-1.16146 -1.58334,-1.16146 h -1.41667 v 2.44792 h 1.45833 q 0.7448,0 1.14063,-0.33333 0.40105,-0.33333 0.40105,-0.95313 z m -60.88549,1.5018 q 0,1.75521 -0.69271,2.70313 -0.6875,0.94792 -1.97917,0.94792 -1.29688,0 -1.97918,-0.93229 -0.68229,-0.9323 -0.68229,-2.71876 0,-1.75522 0.67709,-2.67189 0.67708,-0.91667 1.99479,-0.91667 1.28647,0 1.97397,0.90626 0.6875,0.90104 0.6875,2.6823 z m -1.04688,0 q 0,-2.77605 -1.61459,-2.77605 -1.625,0 -1.625,2.77605 0,1.40625 0.41146,2.125 0.41146,0.71876 1.20834,0.71876 0.84896,0 1.23438,-0.72917 0.38541,-0.72917 0.38541,-2.11459 z m 3.48439,-2.08855 v 3.57293 q 0,0.8125 0.25521,1.13021 0.25521,0.3125 0.91146,0.3125 0.67188,0 1.0625,-0.45834 0.39063,-0.45833 0.39063,-1.29167 v -3.26563 h 0.94271 v 4.4323 q 0,0.98438 0.0312,1.20313 h -0.88542 q -0.005,-0.026 -0.0104,-0.14062 -0.005,-0.11459 -0.0156,-0.26042 -0.005,-0.15104 -0.0156,-0.5625 h -0.0156 q -0.32292,0.58333 -0.75,0.82813 -0.42188,0.23958 -1.05209,0.23958 -0.92709,0 -1.35938,-0.45833 -0.42708,-0.46355 -0.42708,-1.52605 v -3.75522 z m 5.4896,0.73958 v -0.73958 h 0.88542 l 0.30208,-1.46876 h 0.62501 v 1.46876 h 2.25 v 0.73958 h -2.25 v 3.39585 q 0,0.41146 0.21875,0.60937 0.22396,0.19792 0.72917,0.19792 0.69791,0 1.54688,-0.17708 v 0.71354 q -0.88022,0.23959 -1.7448,0.23959 -0.84375,0 -1.26563,-0.35417 -0.42188,-0.35938 -0.42188,-1.13021 v -3.49481 z m 6.64585,4.89585 v -7.02606 h 0.9948 v 6.21356 h 3.50001 v 0.8125 z m -56.88651,-7.02869 h 4.28647 v 0.81251 h -1.64584 v 5.40106 h 1.64584 v 0.8125 h -4.28647 v -0.8125 h 1.64584 v -5.40106 h -1.64584 z m 9.86982,7.02607 v -3.6198 q 0,-0.70834 -0.27604,-1.05209 -0.27084,-0.34375 -0.8698,-0.34375 -0.64583,0 -1.0625,0.47396 -0.41146,0.46875 -0.41146,1.27604 v 3.26564 h -0.9375 v -4.43231 q 0,-0.98438 -0.0312,-1.20313 h 0.88542 q 0.005,0.0261 0.0104,0.14063 0.005,0.11458 0.0104,0.26563 0.0104,0.14583 0.0208,0.55729 h 0.0156 q 0.54688,-1.06771 1.80209,-1.06771 0.90104,0 1.34375,0.48958 0.44271,0.48438 0.44271,1.4948 v 3.75522 z m 6.86461,0 -1.90626,-2.9948 h -1.23959 v 2.9948 h -0.99479 v -7.02607 h 2.51042 q 1.21355,0 1.84897,0.50521 0.63542,0.50001 0.63542,1.43751 0,0.77604 -0.48959,1.30729 -0.48438,0.53126 -1.30209,0.66667 l 2.08334,3.10939 z m -0.14584,-5.06773 q 0,-1.16146 -1.58334,-1.16146 h -1.41667 v 2.44793 h 1.45834 q 0.7448,0 1.14063,-0.33334 0.40104,-0.33333 0.40104,-0.95313 z m -58.2095,-1.95834 h 4.28647 v 0.81251 h -1.64584 v 5.40106 h 1.64584 v 0.8125 h -4.28647 v -0.8125 h 1.64584 v -5.40106 h -1.64584 z m 9.86982,7.02607 v -3.6198 q 0,-0.70834 -0.27604,-1.05209 -0.27084,-0.34375 -0.8698,-0.34375 -0.64583,0 -1.0625,0.47396 -0.41146,0.46875 -0.41146,1.27604 v 3.26564 h -0.9375 v -4.43231 q 0,-0.98438 -0.0312,-1.20313 h 0.88542 q 0.005,0.0261 0.0104,0.14063 0.005,0.11458 0.0104,0.26563 0.0104,0.14583 0.0208,0.55729 h 0.0156 q 0.54688,-1.06771 1.80209,-1.06771 0.90104,0 1.34375,0.48958 0.44271,0.48438 0.44271,1.4948 v 3.75522 z m 3.11459,0 v -7.02607 h 0.9948 v 6.21357 h 3.50001 v 0.8125 z m 7.63239,30.41345 -0.89844,-2.48697 h -3.66535 l -0.89193,2.48697 h -1.27603 l 3.3203,-8.78253 h 1.41276 l 3.26171,8.78253 z m -2.72135,-7.84503 -0.0781,0.2539 -0.44922,1.38021 -0.98307,2.7539 h 3.01431 l -1.1263,-3.2552 z m 11.81846,7.84503 h -1.35416 q -0.48177,-1.79687 -0.73567,-2.73437 -0.2474,-0.9375 -0.52735,-2.18749 -0.1888,0.8138 -0.35156,1.47135 -0.15625,0.65755 -0.93099,3.45051 h -1.35416 l -1.37369,-8.78253 h 1.23046 l 0.70964,5.43618 q 0.10416,0.85287 0.21484,2.2526 0.20833,-0.89843 0.34505,-1.48437 0.14323,-0.58593 0.9375,-3.48306 h 1.13932 q 0.44922,1.64713 0.70312,2.59114 0.26042,0.94401 0.57943,2.37629 l 0.22786,-2.2526 0.67708,-5.43618 h 1.23047 z m 9.30545,0 -0.89843,-2.48697 h -3.66536 l -0.89192,2.48697 h -1.27604 l 3.3203,-8.78253 h 1.41276 l 3.26171,8.78253 z m -2.72135,-7.84503 -0.0781,0.2539 -0.44922,1.38021 -0.98307,2.7539 h 3.01432 l -1.1263,-3.2552 z m 11.42133,7.84503 -2.3828,-3.74348 h -1.54948 v 3.74348 H 67.6853 v -8.78253 h 3.13801 q 1.51692,0 2.31119,0.63151 0.79427,0.625 0.79427,1.79687 0,0.97005 -0.61198,1.63411 -0.60547,0.66406 -1.6276,0.83333 l 2.60416,3.88671 z m -0.18229,-6.33462 q 0,-1.45182 -1.97916,-1.45182 h -1.77083 v 3.05989 h 1.82291 q 0.93099,0 1.42578,-0.41667 0.5013,-0.41666 0.5013,-1.1914 z m 4.20781,6.33462 v -8.78253 h 5.98305 v 1.01562 h -4.73957 v 2.74739 h 4.34895 v 1.0026 h -4.34895 v 3.0013 h 5.0065 v 1.01562 z m 23.44812,0 v -5.65103 q 0,-0.8789 0.0195,-1.30859 l 0.0195,-0.65104 q -0.41666,1.34115 -0.61848,1.89453 l -1.06771,2.85155 h -0.89192 l -1.08073,-2.85155 q -0.11719,-0.29948 -0.625,-1.89453 l 0.026,1.95963 v 5.65103 H 95.0742 v -8.78253 h 1.54296 l 1.20443,3.18359 q 0.13672,0.34505 0.4427,1.5039 l 0.16927,-0.58594 0.28646,-0.91145 1.20443,-3.1901 h 1.46484 v 8.78253 z m 10.43175,-4.43358 q 0,2.194 -0.86588,3.3789 -0.85938,1.18489 -2.47396,1.18489 -1.62109,0 -2.47395,-1.16536 -0.85286,-1.16536 -0.85286,-3.39843 0,-2.19401 0.84635,-3.33984 0.84635,-1.14583 2.49348,-1.14583 1.60807,0 2.46745,1.13281 0.85937,1.1263 0.85937,3.35286 z m -1.30859,0 q 0,-3.47005 -2.01823,-3.47005 -2.03124,0 -2.03124,3.47005 0,1.75781 0.51432,2.65624 0.51432,0.89844 1.51041,0.89844 1.0612,0 1.54297,-0.91146 0.48177,-0.91146 0.48177,-2.64322 z m 10.50336,-0.0456 q 0,2.15494 -1.0026,3.3203 -0.9961,1.15885 -2.85807,1.15885 h -2.40885 v -8.78253 h 2.02474 q 2.14192,0 3.19009,1.07422 1.05469,1.0677 1.05469,3.22916 z m -1.25,0 q 0,-1.71875 -0.71614,-2.5 -0.71615,-0.78776 -2.27213,-0.78776 h -0.78776 v 6.75129 h 1.05468 q 1.38021,0 2.05078,-0.86589 0.67057,-0.86588 0.67057,-2.59764 z m 10.19087,1.28905 q 0,1.73828 -0.74219,2.53255 -0.74218,0.78776 -2.3828,0.78776 -1.58854,0 -2.30469,-0.76172 -0.70963,-0.76823 -0.70963,-2.4414 v -5.70962 h 1.24349 v 5.54035 q 0,1.32812 0.3776,1.84895 0.38411,0.51433 1.38672,0.51433 1.04817,0 1.47135,-0.53386 0.42317,-0.53385 0.42317,-1.91405 v -5.45572 h 1.23698 z m 3.68046,3.1901 v -8.78253 h 1.24348 v 7.76691 h 4.37499 v 1.01562 z m 14.39006,0 -0.89843,-2.48697 h -3.66536 l -0.89192,2.48697 h -1.27604 l 3.32031,-8.78253 h 1.41275 l 3.26171,8.78253 z m -2.72134,-7.84503 -0.0781,0.2539 -0.44921,1.38021 -0.98308,2.7539 h 3.01432 l -1.1263,-3.2552 z m 11.42133,7.84503 -2.38281,-3.74348 h -1.54947 v 3.74348 h -1.24349 v -8.78253 h 3.13802 q 1.51692,0 2.31119,0.63151 0.79427,0.625 0.79427,1.79687 0,0.97005 -0.61198,1.63411 -0.60547,0.66406 -1.6276,0.83333 l 2.60416,3.88671 z m -0.18229,-6.33462 q 0,-1.45182 -1.97916,-1.45182 h -1.77083 v 3.05989 h 1.82291 q 0.93099,0 1.42578,-0.41667 0.5013,-0.41666 0.5013,-1.1914 z M 4.91107,260.8913 v -0.83333 h 2.91667 v 0.83333 z m 5.41147,2.41668 v -0.60938 q 0.25521,-0.56771 0.79167,-1.14063 0.54167,-0.57812 1.46876,-1.31771 0.82813,-0.66146 1.19271,-1.15105 0.36458,-0.48958 0.36458,-0.94271 0,-0.57812 -0.35937,-0.89062 -0.35938,-0.31251 -1.02605,-0.31251 -0.59375,0 -0.96354,0.32813 -0.36459,0.32292 -0.43229,0.91146 l -0.95834,-0.0885 q 0.10417,-0.88542 0.72396,-1.40105 0.61979,-0.52083 1.63021,-0.52083 1.10938,0 1.72918,0.5 0.61979,0.5 0.61979,1.41667 0,0.59896 -0.39584,1.19792 -0.39583,0.59375 -1.18229,1.21876 -1.07292,0.85417 -1.48959,1.26042 -0.41146,0.40104 -0.58333,0.78125 h 3.76563 v 0.76042 z m 10.53129,-1.66147 v 1.66147 h -0.93751 v -1.66147 h -3.40626 v -0.72916 l 3.30731,-4.63544 h 1.03646 v 4.62502 H 21.833 v 0.73958 z m -0.93751,-4.34897 -2.60417,3.60939 h 2.60417 z m 3.28995,2.008 h 2.82241 v 0.76649 H 23.20627 Z M 7.49354,124.62134 v 2.22918 H 6.72792 v -2.22918 H 4.51957 v -0.76042 h 2.20835 v -2.22917 h 0.76562 v 2.22917 h 2.20834 v 0.76042 z m 3.57293,3.16668 v -0.60938 q 0.25521,-0.56771 0.79167,-1.14063 0.54167,-0.57812 1.46875,-1.31771 0.82813,-0.66146 1.19272,-1.15104 0.36458,-0.48959 0.36458,-0.94272 0,-0.57812 -0.35937,-0.89062 -0.35938,-0.3125 -1.02605,-0.3125 -0.59375,0 -0.96354,0.32812 -0.36459,0.32292 -0.4323,0.91146 l -0.95833,-0.0885 q 0.10416,-0.88542 0.72396,-1.40104 0.61979,-0.52084 1.63021,-0.52084 1.10938,0 1.72917,0.5 0.6198,0.5 0.6198,1.41667 0,0.59896 -0.39584,1.19792 -0.39583,0.59376 -1.18229,1.21876 -1.07292,0.85417 -1.48959,1.26042 -0.41146,0.40104 -0.58334,0.78125 h 3.76564 v 0.76042 z m 10.53128,-1.66146 v 1.66146 h -0.9375 v -1.66146 h -3.40626 v -0.72917 l 3.3073,-4.63543 h 1.03646 v 4.62501 h 0.97917 v 0.73959 z m -0.9375,-4.34898 -2.60417,3.60939 h 2.60417 z m 2.3403,1.55445 h 2.82241 v 0.76649 h -2.82241 z m -2.40378,68.64824 q 0,1.76042 -0.65104,2.69272 -0.64584,0.92708 -1.91147,0.92708 -1.26563,0 -1.90105,-0.92188 -0.63541,-0.92708 -0.63541,-2.69792 0,-1.81772 0.61979,-2.71876 0.61979,-0.90104 1.94792,-0.90104 1.29688,0 1.91147,0.91146 0.61979,0.90625 0.61979,2.70834 z m -0.95313,0 q 0,-1.51042 -0.36979,-2.1823 -0.36459,-0.67709 -1.20834,-0.67709 -0.86458,0 -1.24479,0.66667 -0.375,0.66667 -0.375,2.19272 0,1.48438 0.3802,2.17188 0.38542,0.68229 1.21876,0.68229 0.82813,0 1.21354,-0.70312 0.38542,-0.70313 0.38542,-2.15105 z m -2.20834,0.625 v -1.29688 h 1.22396 v 1.29688 z m 5.77097,-1.00826 h 2.82241 v 0.76649 h -2.82241 z" />
</svg>
